<?xml version="1.0" standalone="no"?>
<!DOCTYPE svg PUBLIC "-//W3C//DTD SVG 1.1//EN" "http://www.w3.org/Graphics/SVG/1.1/DTD/svg11.dtd" >
<svg xmlns="http://www.w3.org/2000/svg" xmlns:xlink="http://www.w3.org/1999/xlink" version="1.1">
<metadata>
Created by FontForge 20170731 at Mon Sep 20 10:34:34 2021
 By Aleksey,,,
Copyright (c) 2009 by Jos Buivenga. All rights reserved.
</metadata>
<defs>
<font id="MuseoSlab-300Italic" horiz-adv-x="1157" >
  <font-face 
    font-family="Museo Slab 300"
    font-weight="300"
    font-style="italic"
    font-stretch="normal"
    units-per-em="2048"
    panose-1="2 0 0 0 0 0 0 0 0 0"
    ascent="1536"
    descent="-512"
    x-height="1030"
    cap-height="1440"
    bbox="-371 -444 2175 1819"
    underline-thickness="102"
    underline-position="-307"
    unicode-range="U+0020-FB04"
  />
<missing-glyph horiz-adv-x="1044" 
d="M-109 0v1434h1024v-1434h-1024zM403 809l349 522h-697zM813 195v1044l-348 -522zM-6 195l348 522l-348 522v-1044zM55 102h697l-349 523z" />
    <glyph glyph-name="f_f" unicode="ff" horiz-adv-x="1312" 
d="M123 0l176 915h-182l20 115h182l11 45q19 96 60 168t86 110.5t100.5 61.5t95 29t78.5 6q20 0 39 -1.5t27 -2.5l9 -2l-26 -119q-18 4 -51 4q-28 0 -53.5 -3.5t-62 -19t-65 -41t-55.5 -74t-41 -114.5l-10 -47h497l11 45q19 96 60 168t85 110.5t99.5 61.5t94.5 29t78 6
q21 0 40 -1.5t28 -2.5l8 -2l-26 -119q-19 4 -52 4q-221 0 -274 -252l-10 -47h260l-21 -115h-262l-176 -915h-141l176 915h-496l-178 -915h-139z" />
    <glyph glyph-name="fi" unicode="fi" horiz-adv-x="1222" 
d="M123 0l178 915h-184l20 115h185l10 45q19 96 60 168t85.5 110.5t100 61.5t94.5 29t78 6q20 0 39 -1.5t27 -2.5l9 -2l-26 -119q-18 4 -51 4q-28 0 -53.5 -3.5t-62 -19t-65 -41t-55.5 -74t-41 -114.5l-10 -47h610l-149 -764q-7 -40 -7 -59q0 -58 26 -77t71 -19l53 4
l-23 -115q-44 -4 -73 -4q-199 0 -199 180q0 28 10 76l129 663h-469l-178 -915h-139zM969 1266l35 174h157l-37 -174h-155z" />
    <glyph glyph-name="fl" unicode="fl" horiz-adv-x="1234" 
d="M123 0l176 915h-184l20 115h184l9 39q81 399 499 399q84 0 166 -12t122 -24l40 -11l-221 -1147q-8 -50 -8 -67q0 -31 8 -50.5t23.5 -28t30 -11t36.5 -2.5l53 4l-24 -119q-37 -6 -72 -6t-65.5 7t-63.5 25t-52.5 57.5t-19.5 96.5q0 25 11 78l208 1073q-57 23 -182 23
q-47 0 -86 -6t-83 -24t-77 -48t-60.5 -82t-41.5 -123l-8 -41h262l-21 -115h-262l-178 -915h-139z" />
    <glyph glyph-name="f_f_i" unicode="ffi" horiz-adv-x="1859" 
d="M123 0l176 915h-182l20 115h182l11 45q19 96 60 168t86 110.5t100.5 61.5t95 29t78.5 6q20 0 39 -1.5t27 -2.5l9 -2l-26 -119q-18 4 -51 4q-28 0 -53.5 -3.5t-62 -19t-65 -41t-55.5 -74t-41 -114.5l-10 -47h497l11 45q19 96 60 168t85 110.5t99.5 61.5t94.5 29t78 6
q21 0 40 -1.5t28 -2.5l8 -2l-26 -119q-19 4 -52 4q-221 0 -274 -252l-10 -47h608l-149 -764q-7 -40 -7 -59q0 -58 26.5 -77t72.5 -19l51 4l-23 -115q-44 -4 -71 -4q-201 0 -201 180q0 28 10 76l129 663h-469l-176 -915h-141l176 915h-496l-178 -915h-139zM1606 1266l34 174
h158l-35 -174h-157z" />
    <glyph glyph-name="f_f_l" unicode="ffl" horiz-adv-x="1873" 
d="M123 0l176 915h-182l20 115h182l11 45q19 96 60 168t86 110.5t100.5 61.5t95 29t78.5 6q20 0 39 -1.5t27 -2.5l9 -2l-26 -119q-18 4 -51 4q-28 0 -53.5 -3.5t-62 -19t-65 -41t-55.5 -74t-41 -114.5l-10 -47h497l9 39q78 399 497 399q84 0 166.5 -12t123.5 -24l40 -11
l-221 -1147q-10 -42 -10 -67q0 -31 8 -50.5t23.5 -28t30 -11t36.5 -2.5l53 4l-24 -119q-37 -6 -72 -6t-65 7t-63 25t-52 57.5t-19 96.5q0 20 8 78l209 1073q-55 23 -182 23q-47 0 -86 -6t-83 -24t-77 -48t-60.5 -82t-41.5 -123l-6 -41h260l-21 -115h-262l-176 -915h-141
l176 915h-496l-178 -915h-139z" />
    <glyph glyph-name="f_j" unicode="fj" horiz-adv-x="1179" 
d="M123 0l176 915h-182l20 115h182l11 45q19 96 60 168t86 110.5t100.5 61.5t95 29t78.5 6q20 0 39 -1.5t27 -2.5l9 -2l-26 -119q-18 4 -51 4q-28 0 -53.5 -3.5t-62 -19t-65 -41t-55.5 -74t-41 -114.5l-10 -47h620l-207 -1063q-19 -98 -58.5 -172t-82.5 -114t-96.5 -64.5
t-93.5 -31.5t-80 -7q-22 0 -42.5 1.5t-30.5 2.5l-9 2l25 117q16 -4 45 -4q28 0 55.5 4.5t64.5 21.5t66.5 44t57 78t40.5 118l183 952h-478l-178 -915h-139zM981 1266l33 174h151l-35 -174h-149z" />
    <glyph glyph-name=".notdef" horiz-adv-x="1044" 
d="M-109 0v1434h1024v-1434h-1024zM403 809l349 522h-697zM813 195v1044l-348 -522zM-6 195l348 522l-348 522v-1044zM55 102h697l-349 523z" />
    <glyph glyph-name=".null" horiz-adv-x="0" 
 />
    <glyph glyph-name="nonmarkingreturn" horiz-adv-x="682" 
 />
    <glyph glyph-name="space" unicode=" " horiz-adv-x="512" 
 />
    <glyph glyph-name="exclam" unicode="!" horiz-adv-x="487" 
d="M133 377l201 1063h145l-215 -1063h-131zM45 0l33 162h162l-33 -162h-162z" />
    <glyph glyph-name="quotedbl" unicode="&#x22;" horiz-adv-x="653" 
d="M477 1049l78 411h121l-80 -411h-119zM227 1049l80 411h121l-80 -411h-121z" />
    <glyph glyph-name="numbersign" unicode="#" horiz-adv-x="1486" 
d="M197 0l149 399h-289l43 115h287l150 401h-287l41 115h287l151 410h129l-151 -410h354l151 410h127l-151 -410h285l-41 -115h-285l-150 -401h283l-41 -115h-285l-147 -399h-129l149 399h-354l-147 -399h-129zM516 514h352l150 401h-354z" />
    <glyph glyph-name="dollar" unicode="$" horiz-adv-x="1089" 
d="M20 190l93 93q5 -6 14.5 -16t42.5 -35t69.5 -44t93.5 -35t116 -16q141 0 249.5 77t108.5 194q0 53 -26 96.5t-68 73.5t-96.5 60t-110.5 54.5t-110.5 58.5t-96.5 71.5t-68 93.5t-26 124q0 156 125.5 265.5t326.5 124.5l45 223h115l-43 -226q59 -4 112.5 -19.5t88.5 -34.5
t61.5 -37t38.5 -30l12 -12l-81 -104q-4 5 -12.5 12.5t-38 27t-62 34.5t-85 27t-108.5 12q-151 0 -250.5 -75.5t-99.5 -183.5q0 -45 20.5 -83.5t55.5 -66.5t80.5 -53.5t95.5 -48.5t100 -47.5t95.5 -55t80.5 -66.5t55.5 -86.5t20.5 -110.5q0 -163 -129.5 -283t-328.5 -135
l-41 -219h-115l41 221q-71 7 -134 28t-102.5 46.5t-69.5 49.5t-43 40z" />
    <glyph glyph-name="percent" unicode="%" horiz-adv-x="1478" 
d="M463 895q-115 0 -184.5 69t-69.5 183q0 121 103 219t231 98q114 0 183 -70t69 -180q0 -125 -102 -222t-230 -97zM6 0l1362 1440h158l-1362 -1440h-158zM471 1010q79 0 140 61t61 143q0 58 -38 97t-99 39q-78 0 -140.5 -62t-62.5 -143q0 -58 38.5 -96.5t100.5 -38.5z
M729 227q0 121 103 219.5t231 98.5q114 0 183 -70t69 -180q0 -125 -102 -222.5t-230 -97.5q-115 0 -184.5 69t-69.5 183zM852 225q0 -59 38.5 -97t102.5 -38q79 0 140 60.5t61 142.5q0 59 -38.5 98t-100.5 39q-78 0 -140.5 -62t-62.5 -143z" />
    <glyph glyph-name="ampersand" unicode="&#x26;" horiz-adv-x="1329" 
d="M72 340q0 148 96 272.5t250 163.5v4q-6 2 -16 7t-35.5 24.5t-45 45.5t-35.5 72.5t-16 102.5q0 125 65.5 224.5t175.5 153.5t243 54q44 0 89.5 -6.5t68.5 -13.5l24 -6l-59 -117q-59 16 -125 16q-134 0 -235 -85t-101 -222q0 -201 266 -201h303l39 205h141l-39 -205h195
l-25 -122h-194l-43 -213q-51 -264 -193.5 -391.5t-359.5 -127.5q-203 0 -318.5 101t-115.5 264zM219 356q0 -116 76 -184t213 -68q334 0 412 394l41 209h-304q-116 0 -214 -40t-161 -121.5t-63 -189.5z" />
    <glyph glyph-name="quotesingle" unicode="'" horiz-adv-x="407" 
d="M227 1049l80 411h123l-80 -411h-123z" />
    <glyph glyph-name="parenleft" unicode="(" horiz-adv-x="622" 
d="M242 -195q-99 265 -99 545q0 638 416 1145h135q-424 -535 -424 -1149q0 -276 97 -541h-125z" />
    <glyph glyph-name="parenright" unicode=")" horiz-adv-x="628" 
d="M-49 -195q424 535 424 1149q0 279 -96 541h124q101 -270 101 -545q0 -635 -418 -1145h-135z" />
    <glyph glyph-name="asterisk" unicode="*" horiz-adv-x="983" 
d="M328 690l-99 80l242 250v4l-278 84l65 125l272 -109l50 316h139l-74 -316l320 107l18 -129l-324 -90v-4l140 -242l-113 -78l-129 260h-4z" />
    <glyph glyph-name="plus" unicode="+" horiz-adv-x="1241" 
d="M440 0l103 522h-473l22 119h473l103 522h125l-103 -522h471l-22 -119h-469l-105 -522h-125z" />
    <glyph glyph-name="comma" unicode="," horiz-adv-x="512" 
d="M117 168h157l-258 -432h-125z" />
    <glyph glyph-name="hyphen" unicode="-" horiz-adv-x="1009" 
d="M197 518l22 127h582l-23 -127h-581z" />
    <glyph glyph-name="period" unicode="." horiz-adv-x="501" 
d="M57 0l31 170h168l-33 -170h-166z" />
    <glyph glyph-name="slash" unicode="/" horiz-adv-x="851" 
d="M-37 -86l832 1606h139l-832 -1606h-139z" />
    <glyph glyph-name="zero" unicode="0" horiz-adv-x="1275" 
d="M133 440q0 83 10 173.5t33.5 191t58.5 193.5t88 178.5t118 149t153.5 101t189.5 37.5q406 0 406 -467q0 -83 -10 -173t-33.5 -190.5t-57.5 -193.5t-87.5 -178.5t-118 -148.5t-153.5 -100.5t-191 -37.5q-211 0 -308.5 123.5t-97.5 341.5zM279 440q0 -334 262 -334
q78 0 146 33t117.5 88t90.5 129.5t68 156t45 168.5t26 165.5t8 148.5q0 162 -61 250t-201 88q-102 0 -187.5 -59t-142 -153t-96.5 -214t-57.5 -238t-17.5 -229z" />
    <glyph glyph-name="one" unicode="1" horiz-adv-x="929" 
d="M-6 0l22 123h324l203 1040l20 90h-4q-29 -34 -74 -71l-196 -164l-78 98l393 324h131l-256 -1317h316l-25 -123h-776z" />
    <glyph glyph-name="two" unicode="2" horiz-adv-x="1181" 
d="M12 0q2 96 35.5 181t88 150t125 123.5t148 107.5t154.5 96t146.5 96.5t123.5 101t85.5 116t31.5 136.5q0 103 -66 164t-184 61q-60 0 -119.5 -20t-102 -49t-76.5 -58t-51 -49l-17 -20l-98 77q8 10 22.5 27t62.5 60t99.5 76t130.5 60t158 27q185 0 289 -95t104 -251
q0 -81 -29 -154t-78.5 -131t-113.5 -111t-137 -99.5t-146.5 -91t-142.5 -90.5t-125 -93.5t-96 -105t-52 -119.5h662l41 201h129l-64 -324h-938z" />
    <glyph glyph-name="three" unicode="3" horiz-adv-x="1155" 
d="M12 172l92 96q5 -7 14.5 -17.5t42.5 -38.5t69.5 -49.5t93.5 -39t116 -17.5q105 0 199 48.5t152.5 134.5t58.5 188q0 123 -85 187.5t-218 64.5l-96 -6l-23 86l475 465q11 10 25.5 21t23.5 17l9 5v4q-41 -4 -68 -4h-469l-39 -197h-131l63 320h850l-18 -101l-520 -501
q46 -2 92.5 -12.5t97.5 -36t89.5 -63t63.5 -98t25 -136.5q0 -101 -43 -196t-116.5 -165.5t-177 -113t-218.5 -42.5q-79 0 -152 20.5t-121.5 49.5t-85.5 57.5t-54 49.5z" />
    <glyph glyph-name="four" unicode="4" horiz-adv-x="1206" 
d="M23 399l16 93l887 948h157l-178 -920h205l-25 -121h-204l-78 -399h-141l77 399h-716zM223 520h541l127 649q3 19 9 43t10 38l5 14h-4q-28 -43 -63 -80l-625 -660v-4z" />
    <glyph glyph-name="five" unicode="5" horiz-adv-x="1144" 
d="M23 164l92 90q4 -6 12.5 -16t38 -35.5t63 -45t87.5 -35.5t112 -16q110 0 209 53t161 146t62 201q0 128 -85 203t-224 75q-70 0 -140 -20t-105 -40l-34 -19l-88 34l215 701h705l-64 -320h-131l41 197h-448l-117 -375l-31 -86h4q10 6 29 15t78.5 23.5t120.5 14.5
q187 0 304.5 -111t117.5 -290q0 -108 -48 -207t-128 -170.5t-187.5 -113.5t-222.5 -42q-78 0 -148 19.5t-114 47.5t-76.5 55.5t-46.5 46.5z" />
    <glyph glyph-name="six" unicode="6" horiz-adv-x="1216" 
d="M121 492q0 76 16.5 163.5t50 181.5t81 184t114.5 170t145 141t177.5 96.5t207.5 35.5q75 0 143 -15t99 -29l31 -15l-70 -119q-9 5 -26.5 13t-71 21t-107.5 13q-110 0 -210 -50.5t-174.5 -134.5t-128.5 -184.5t-85 -209.5h4q67 78 170 123t211 45q177 0 283 -103.5
t106 -273.5q0 -83 -23.5 -165t-70 -155t-109.5 -129t-148.5 -88.5t-180.5 -32.5q-203 0 -318.5 141.5t-115.5 375.5zM266 465q0 -89 32.5 -169.5t101 -135t159.5 -54.5q106 0 193.5 58t137.5 157.5t50 217.5q0 120 -71.5 189t-200.5 69q-64 0 -134 -24.5t-130 -66.5
t-99 -106t-39 -135z" />
    <glyph glyph-name="seven" unicode="7" horiz-adv-x="1099" 
d="M106 0l865 1255q13 18 25.5 33.5t19.5 21.5l6 7v4q-35 -4 -76 -4h-590l-39 -197h-131l64 320h964l-20 -99l-928 -1341h-160z" />
    <glyph glyph-name="eight" unicode="8" horiz-adv-x="1230" 
d="M82 350q0 250 320 455l12 8q-138 98 -138 244q0 76 34.5 148.5t96.5 130.5t156.5 93t204.5 35q189 0 293 -84.5t104 -232.5q0 -64 -25.5 -132.5t-57.5 -117t-76.5 -98t-66 -68.5t-42.5 -37q164 -106 164 -262q0 -125 -74.5 -230.5t-199.5 -166t-271 -60.5
q-190 0 -312 100.5t-122 274.5zM788 754q18 14 38.5 32t57.5 58.5t64.5 82t48.5 98.5t21 112q0 92 -68.5 145t-185.5 53q-147 0 -244.5 -81t-97.5 -195q0 -33 10.5 -62t33 -54t46 -44.5t62 -40.5t66.5 -34.5t75 -35t73 -34.5zM231 360q0 -118 83.5 -187t207.5 -69
q95 0 183 38.5t147 114t59 169.5q0 40 -18 75.5t-44 61t-70 52t-80.5 44t-92 43t-88.5 43.5q-29 -17 -53 -32.5t-71.5 -54.5t-79.5 -78.5t-57.5 -99t-25.5 -120.5z" />
    <glyph glyph-name="nine" unicode="9" horiz-adv-x="1216" 
d="M82 35l65 119q9 -5 26 -13t70 -21.5t107 -13.5q110 0 210 50.5t174.5 135t128.5 185.5t85 211h-4q-67 -77 -171 -122.5t-212 -45.5q-177 0 -282 102.5t-105 272.5q0 104 38 205.5t105 182.5t169 131t221 50q203 0 318.5 -141t115.5 -375q0 -76 -16.5 -163.5t-50 -181.5
t-81.5 -184t-115 -170.5t-145 -141.5t-177.5 -96.5t-207.5 -35.5q-75 0 -141.5 15t-95.5 30zM590 643q64 0 134.5 24.5t131 67t100 106t39.5 134.5q0 52 -11.5 103t-36 97t-58 81.5t-81.5 56t-103 20.5q-161 0 -273.5 -126t-112.5 -306q0 -118 72.5 -188t198.5 -70z" />
    <glyph glyph-name="colon" unicode=":" horiz-adv-x="614" 
d="M276 860l33 170h166l-33 -170h-166zM109 0l32 170h166l-33 -170h-165z" />
    <glyph glyph-name="semicolon" unicode=";" horiz-adv-x="624" 
d="M287 860l32 170h166l-32 -170h-166zM-61 -264l215 432h168l-259 -432h-124z" />
    <glyph glyph-name="less" unicode="&#x3c;" horiz-adv-x="1241" 
d="M115 530v103l925 414v-138l-753 -325v-4l753 -326v-137z" />
    <glyph glyph-name="equal" unicode="=" horiz-adv-x="1241" 
d="M133 700v119h954v-119h-954zM133 344v119h954v-119h-954z" />
    <glyph glyph-name="greater" unicode="&#x3e;" horiz-adv-x="1241" 
d="M193 117v137l753 326v4l-753 325v138l925 -414v-103z" />
    <glyph glyph-name="question" unicode="?" horiz-adv-x="952" 
d="M285 377l18 92q14 69 48 129.5t77 104.5t92.5 84.5t96 78.5t84 77.5t60.5 90t23 107.5q0 85 -60.5 138.5t-162.5 53.5q-64 0 -130.5 -21.5t-100.5 -43.5l-35 -21l-59 111q6 4 17.5 11.5t47.5 26t73.5 33t92.5 26t108 11.5q161 0 260 -85.5t99 -225.5q0 -74 -24.5 -138.5
t-64 -111.5t-88.5 -89t-100 -81.5t-95 -78t-77.5 -88t-44.5 -103.5l-18 -88h-137zM201 0l35 162h159l-33 -162h-161z" />
    <glyph glyph-name="at" unicode="@" horiz-adv-x="1583" 
d="M70 369q0 173 74 335.5t196.5 281t288.5 190t342 71.5q106 0 187.5 -25.5t131 -70.5t74.5 -103t25 -126q0 -42 -9 -80l-120 -627h145l-23 -115h-532q-162 0 -260 95t-98 237q0 118 64.5 222.5t180.5 168.5t256 64h258q2 25 2 43q0 83 -77 140.5t-222 57.5
q-146 0 -283.5 -64t-237 -168t-160 -243t-60.5 -284q0 -223 135.5 -362.5t364.5 -139.5l-25 -121q-270 0 -444 174t-174 449zM635 440q0 -99 64 -162t167 -63h254l109 563h-250q-135 0 -239.5 -103.5t-104.5 -234.5z" />
    <glyph glyph-name="A" unicode="A" horiz-adv-x="1464" 
d="M-94 0l22 119h146l741 1321h160l227 -1321h146l-23 -119h-455l23 119h166l-64 370h-561l-207 -370h164l-24 -119h-461zM498 610h481l-98 590q-4 21 -6 44t-3 36v12h-4q-14 -45 -39 -92z" />
    <glyph glyph-name="B" unicode="B" horiz-adv-x="1382" 
d="M-4 0l24 119h187l233 1202h-188l24 119h627q142 0 236 -47q68 -32 106.5 -103.5t38.5 -163.5q0 -127 -69 -222.5t-183 -143.5v-4q84 -30 131 -104.5t47 -184.5q0 -137 -71 -247.5t-185 -166.5q-106 -53 -258 -53h-700zM485 815h349q126 0 214.5 84t88.5 217
q0 112 -78 164q-58 37 -154 37h-321zM350 123h342q124 0 213 53q68 41 113 120.5t45 170.5q0 106 -63 165.5t-173 59.5h-366z" />
    <glyph glyph-name="C" unicode="C" horiz-adv-x="1521" 
d="M129 600q0 175 72 336t191 276t278 183.5t327 68.5q57 0 120.5 -6.5t138.5 -26t130.5 -49t87.5 -82t19 -118.5l-31 -158h-137l23 119q10 53 -22.5 92.5t-92 60t-120.5 30t-120 9.5q-142 0 -274 -59t-229 -156.5t-155.5 -231.5t-58.5 -278q0 -225 132 -365.5t352 -140.5
q63 0 132.5 11.5t137 34t115 62.5t57.5 89l23 113h137l-29 -152q-15 -74 -77.5 -132t-149.5 -90.5t-176 -48.5t-172 -16q-286 0 -457.5 173.5t-171.5 451.5z" />
    <glyph glyph-name="D" unicode="D" horiz-adv-x="1595" 
d="M-2 0l22 119h187l233 1202h-186l22 119h592q190 0 324 -49q156 -60 237.5 -191t81.5 -328q0 -166 -57.5 -322t-165.5 -279t-250 -189q-171 -82 -397 -82h-643zM350 123h275q205 0 352 72q175 90 282 271.5t107 393.5q0 155 -61 259.5t-175 152.5q-106 45 -274 45h-272z
" />
    <glyph glyph-name="E" unicode="E" horiz-adv-x="1284" 
d="M-4 0l24 119h187l233 1202h-188l24 119h1016l-59 -299h-129l35 176h-555l-103 -531h543l-25 -122h-542l-107 -541h594l37 186h129l-61 -309h-1053z" />
    <glyph glyph-name="F" unicode="F" horiz-adv-x="1171" 
d="M-4 0l24 119h187l233 1202h-188l24 119h969l-61 -307h-131l37 180h-506l-107 -543h527l-25 -123h-526l-103 -528h201l-25 -119h-530z" />
    <glyph glyph-name="G" unicode="G" horiz-adv-x="1579" 
d="M127 596q0 174 69.5 334t186.5 277t280 187t341 70q72 0 147 -11t146.5 -34t125.5 -55.5t82 -79.5t17 -102l-31 -158h-137l20 109q10 52 -22 92.5t-91 63.5t-124.5 34.5t-130.5 11.5q-149 0 -285.5 -60.5t-233 -160.5t-154 -233.5t-57.5 -274.5q0 -224 138 -363t372 -139
q50 0 104.5 6t115.5 21.5t111 38.5t86.5 60t45.5 83l45 226h-301l23 118h438l-76 -378q-16 -81 -80.5 -142.5t-155 -95t-183 -50t-181.5 -16.5q-298 0 -474.5 171.5t-176.5 449.5z" />
    <glyph glyph-name="H" unicode="H" horiz-adv-x="1722" 
d="M-2 0l22 119h187l233 1202h-186l22 119h521l-23 -119h-188l-105 -539h832l104 539h-188l24 119h521l-25 -119h-188l-234 -1202h189l-25 -119h-520l24 119h189l104 540h-831l-107 -540h189l-23 -119h-518z" />
    <glyph glyph-name="I" unicode="I" horiz-adv-x="745" 
d="M-2 0l22 119h187l233 1202h-186l22 119h521l-23 -119h-190l-234 -1202h189l-23 -119h-518z" />
    <glyph glyph-name="J" unicode="J" horiz-adv-x="1110" 
d="M6 301q0 34 6 74t12 63l7 23h139q-23 -79 -23 -142q0 -213 211 -213q50 0 97 15.5t92 48.5t79.5 92.5t49.5 138.5l176 920h-221l24 119h533l-25 -119h-168l-180 -932q-21 -110 -69.5 -192.5t-113 -129.5t-134 -69.5t-144.5 -22.5q-70 0 -131.5 19t-110.5 57t-77.5 102
t-28.5 148z" />
    <glyph glyph-name="K" unicode="K" horiz-adv-x="1372" 
d="M-2 0l22 119h187l233 1202h-186l22 119h508l-22 -119h-178l-99 -508h201l451 508h-131l24 119h445l-23 -119h-147l-506 -563v-4q24 -17 51 -80l186 -465q18 -48 42.5 -71t78.5 -23l60 4l-23 -119q-1 0 -31 -2t-47 -2q-52 0 -90 12.5t-63.5 40.5t-40.5 55.5t-33 73.5
l-172 445q-14 35 -38.5 51t-68.5 16h-149l-111 -571h187l-23 -119h-516z" />
    <glyph glyph-name="L" unicode="L" horiz-adv-x="1208" 
d="M-2 0l22 119h187l233 1198h-188l24 123h521l-25 -123h-188l-232 -1194h574l49 239h129l-72 -362h-1034z" />
    <glyph glyph-name="M" unicode="M" horiz-adv-x="1933" 
d="M-37 0l25 119h184l330 1202h-191l25 119h340l233 -942q5 -21 9 -42t5 -32l1 -10h4q18 37 45 84l602 942h350l-22 -119h-189l-141 -1202h186l-22 -119h-512l22 119h185l116 993l23 102h-4q-27 -61 -47 -96l-549 -844h-133l-222 844l-10 96h-4q-6 -65 -16 -102l-273 -993
h185l-23 -119h-512z" />
    <glyph glyph-name="N" unicode="N" horiz-adv-x="1705" 
d="M-4 0l24 119h187l233 1202h-188l24 119h322l584 -1143q7 -16 14 -37t10 -34l4 -13h4q5 57 13 94l200 1014h-190l23 119h522l-23 -119h-188l-258 -1321h-137l-586 1145q-7 15 -14 36t-10 35l-3 13h-4q-4 -57 -12 -94l-197 -1016h191l-25 -119h-520z" />
    <glyph glyph-name="O" unicode="O" horiz-adv-x="1691" 
d="M125 598q0 172 74 332.5t194.5 277t281 186.5t326.5 70q272 0 443.5 -170.5t171.5 -435.5q0 -140 -48 -274.5t-132.5 -243t-194.5 -191.5t-240.5 -128.5t-263.5 -45.5q-272 0 -442 175t-170 448zM270 602q0 -219 134 -357.5t346 -138.5q132 0 262 59.5t230.5 159t163 239
t62.5 288.5q0 213 -134 347t-347 134q-133 0 -263.5 -58.5t-230.5 -156t-161.5 -234t-61.5 -282.5z" />
    <glyph glyph-name="P" unicode="P" horiz-adv-x="1325" 
d="M-4 0l24 119h187l233 1202h-188l24 119h648q136 0 209 -29q92 -37 146 -121.5t54 -208.5q0 -154 -82.5 -283.5t-218.5 -187.5q-93 -41 -233 -41h-361l-88 -450h189l-23 -119h-520zM463 692h328q107 0 184 35q94 42 152.5 135.5t58.5 208.5q0 162 -113 215q-67 31 -170 31
h-319z" />
    <glyph glyph-name="Q" unicode="Q" horiz-adv-x="1693" 
d="M125 598q0 171 74 332.5t193.5 277.5t277 186t319.5 70q278 0 452.5 -170t174.5 -436q0 -181 -76.5 -344.5t-208.5 -288.5l137 -174l-94 -84l-139 178q-226 -170 -485 -170q-278 0 -451.5 175t-173.5 448zM272 602q0 -219 133.5 -357.5t346.5 -138.5t401 142l-178 227
l94 84l176 -229q103 105 163 240.5t60 281.5q0 212 -133.5 346.5t-345.5 134.5q-179 0 -344.5 -98t-269 -268t-103.5 -365z" />
    <glyph glyph-name="R" unicode="R" horiz-adv-x="1419" 
d="M-4 0l24 119h187l233 1202h-188l24 119h615q173 0 266 -49q70 -39 111 -111.5t41 -175.5q0 -176 -114 -308.5t-292 -160.5v-6q29 -35 39 -64l141 -356q18 -49 42 -71.5t79 -22.5l58 4l-23 -119q-2 0 -15 -1t-31 -2t-32 -1q-52 0 -89 13t-62 41t-40 55.5t-32 72.5
l-133 344q-21 53 -51 70.5t-90 17.5h-218l-96 -491h187l-25 -119h-516zM471 733h334q144 0 250 100.5t106 253.5q0 134 -90 189q-67 41 -209 41h-278z" />
    <glyph glyph-name="S" unicode="S" horiz-adv-x="1175" 
d="M72 274l24 136h137l-22 -119q-13 -64 30.5 -107.5t111.5 -60.5t151 -17q156 0 262 84.5t106 221.5q0 56 -22 99.5t-59 72.5t-85 52.5t-101 44t-106.5 41.5t-101.5 50t-85 65t-59 90.5t-22 123.5q0 126 75 222t193.5 143.5t258.5 47.5q66 0 134 -14t128 -41.5t92.5 -74.5
t20.5 -105l-29 -144h-137l20 105q7 39 -14 68.5t-61.5 45t-84.5 22.5t-90 7q-147 0 -250.5 -76.5t-103.5 -199.5q0 -51 22 -91t59 -66.5t85 -49t101 -42.5t105.5 -41.5t100.5 -51.5t85 -68t59 -95t22 -128q0 -132 -74 -236t-196 -158.5t-267 -54.5q-57 0 -115.5 9t-118.5 31
t-103.5 55t-65.5 86t-10 118z" />
    <glyph glyph-name="T" unicode="T" horiz-adv-x="1341" 
d="M289 0l22 119h189l235 1198h-403l-45 -234h-131l71 357h1207l-70 -357h-129l45 234h-401l-236 -1198h188l-22 -119h-520z" />
    <glyph glyph-name="U" unicode="U" horiz-adv-x="1628" 
d="M229 385q0 24 2.5 51.5t5.5 45t7.5 44t5.5 31.5l149 764h-188l22 119h521l-23 -119h-188l-150 -766q-18 -117 -18 -154q0 -137 90.5 -216t251.5 -79q186 0 307 97q137 107 178 307l160 811h-188l22 119h520l-22 -119h-189l-164 -829q-26 -135 -90.5 -240.5t-160.5 -169.5
q-159 -107 -377 -107q-217 0 -350.5 112t-133.5 298z" />
    <glyph glyph-name="V" unicode="V" horiz-adv-x="1441" 
d="M524 0l-213 1321h-147l22 119h461l-24 -119h-164l164 -1067q2 -13 3.5 -27t2 -25.5t0.5 -21v-14.5v-6h6q16 49 39 94l581 1067h-163l22 119h469l-22 -119h-148l-731 -1321h-158z" />
    <glyph glyph-name="W" unicode="W" horiz-adv-x="2045" 
d="M397 0l-75 1321h-148l25 119h458l-24 -119h-172l53 -1059l-4 -94h6q19 49 39 94l559 1178h133l103 -1178v-94h8q15 49 33 94l464 1059h-172l23 119h469l-23 -119h-145l-594 -1321h-168l-98 1133q-2 19 -2 42.5t1 37.5l1 14h-6q-15 -51 -35 -94l-539 -1133h-170z" />
    <glyph glyph-name="X" unicode="X" horiz-adv-x="1327" 
d="M-61 0l24 119h143l498 614l-256 588h-139l24 119h449l-25 -119h-163l192 -457l21 -53h4q14 24 39 53l360 457h-156l23 119h457l-23 -119h-143l-504 -621l254 -581h145l-22 -119h-451l25 119h157l-190 448l-20 56h-5q-18 -27 -41 -56l-354 -448h158l-23 -119h-458z" />
    <glyph glyph-name="Y" unicode="Y" horiz-adv-x="1318" 
d="M281 0l24 119h189l98 499l-289 703h-141l24 119h449l-25 -119h-159l208 -524l19 -56h4q19 29 39 56l418 524h-162l22 119h461l-24 -119h-142l-559 -703l-98 -499h188l-24 -119h-520z" />
    <glyph glyph-name="Z" unicode="Z" horiz-adv-x="1282" 
d="M4 0l21 100l1001 1149q16 18 34 35t28 25l10 8v4q-39 -4 -80 -4h-619l-45 -234h-131l72 357h1010l-19 -101l-1005 -1149q-16 -18 -34 -35t-28 -25l-10 -7v-4q39 4 80 4h649l47 239h131l-72 -362h-1040z" />
    <glyph glyph-name="bracketleft" unicode="[" horiz-adv-x="612" 
d="M59 -195l328 1690h277l-23 -115h-147l-283 -1460h147l-22 -115h-277z" />
    <glyph glyph-name="backslash" unicode="\" horiz-adv-x="835" 
d="M481 -86l-207 1606h125l207 -1606h-125z" />
    <glyph glyph-name="bracketright" unicode="]" horiz-adv-x="612" 
d="M-10 -80h147l283 1460h-150l25 115h276l-327 -1690h-277z" />
    <glyph glyph-name="asciicircum" unicode="^" horiz-adv-x="1241" 
d="M31 512l405 928h96l408 -928h-135l-320 758l-319 -758h-135z" />
    <glyph glyph-name="underscore" unicode="_" horiz-adv-x="1118" 
d="M-86 0h1057l-23 -119h-1054z" />
    <glyph glyph-name="grave" unicode="`" horiz-adv-x="1032" 
d="M426 1540l-184 244h172l153 -244h-141z" />
    <glyph glyph-name="a" unicode="a" horiz-adv-x="1120" 
d="M10 233q0 69 24 126t64.5 97.5t97.5 71.5t118.5 50t132.5 31.5t134 17t128 4.5h67q17 80 17 117q0 184 -211 184q-48 0 -97 -10t-86 -24t-66.5 -28t-44.5 -24l-16 -10l-43 112q7 4 19 11.5t51 26t80.5 32.5t103 25.5t121.5 11.5q154 0 242 -71.5t88 -215.5
q0 -65 -51.5 -293.5t-51.5 -267.5q0 -58 26.5 -77t70.5 -19l53 4l-23 -115q-40 -4 -77 -4q-94 0 -144 50.5t-43 150.5h-4q2 0 -14.5 -23t-48.5 -55.5t-75.5 -65t-108 -55.5t-132.5 -23q-130 0 -215.5 69t-85.5 189zM152 254q0 -71 48.5 -117.5t145.5 -46.5q69 0 136.5 36
t119 93t89 125.5t54.5 136.5l11 45h-60q-45 0 -85 -1.5t-97.5 -8t-104.5 -17.5t-96.5 -31.5t-83.5 -48.5t-55.5 -70.5t-21.5 -94.5z" />
    <glyph glyph-name="b" unicode="b" horiz-adv-x="1228" 
d="M72 0l256 1325h-185l23 115h323l-96 -498q-4 -22 -10.5 -45.5t-10.5 -36.5l-5 -12h4q56 92 157 149.5t213 57.5q181 0 281 -110.5t100 -303.5q0 -143 -47.5 -269t-125.5 -212t-179.5 -135.5t-208.5 -49.5q-116 0 -203 55t-120 156h-5q0 -43 -10 -92l-18 -94h-133z
M293 391q0 -128 65 -209.5t193 -81.5q76 0 151.5 37t137.5 103t100.5 168.5t38.5 222.5q0 138 -69.5 217.5t-190.5 79.5q-122 0 -221.5 -79.5t-152 -202t-52.5 -255.5z" />
    <glyph glyph-name="c" unicode="c" horiz-adv-x="1134" 
d="M72 424q0 171 90.5 317t240 230t318.5 84q57 0 117 -12.5t117 -38t88 -72t20 -105.5l-21 -108h-129l15 76q7 45 -29 77t-87.5 45t-106.5 13q-89 0 -177.5 -39t-157.5 -104t-112 -159t-43 -196q0 -153 93.5 -242.5t246.5 -89.5q60 0 119.5 15t101.5 36t75.5 42t50.5 36
l16 15l45 -115q-6 -6 -18.5 -16.5t-53.5 -37t-86 -47t-116 -37t-144 -16.5q-213 0 -343 122t-130 327z" />
    <glyph glyph-name="d" unicode="d" horiz-adv-x="1280" 
d="M74 389q0 143 47 269t124.5 212t180 135.5t211.5 49.5q112 0 198 -53t119 -154h4q3 43 9 86l75 391h-184l25 115h323l-229 -1174q-6 -35 -6 -59q0 -58 26 -77t72 -19l51 4l-22 -115q-43 -4 -74 -4q-97 0 -148 51t-38 148h-4q-57 -93 -158 -156.5t-221 -63.5
q-182 0 -281.5 110.5t-99.5 303.5zM217 397q0 -139 69 -218t191 -79t221.5 82t151 204t51.5 251q0 128 -65.5 209.5t-192.5 81.5q-76 0 -151 -37t-136.5 -103t-100 -168.5t-38.5 -222.5z" />
    <glyph glyph-name="e" unicode="e" horiz-adv-x="1132" 
d="M72 410q0 100 29 196t83 176.5t127 142t167 96t196 34.5q183 0 276.5 -102t93.5 -271q0 -36 -7 -78t-14 -66l-7 -24h-791q-10 -43 -10 -94q0 -140 86.5 -230t243.5 -90q52 0 106 13t94 31t72 36.5t49 31.5l17 13l43 -114q-7 -6 -19.5 -15t-54 -32.5t-84 -41.5
t-105.5 -32.5t-124 -14.5q-212 0 -339.5 119.5t-127.5 315.5zM250 616h645q8 37 8 78q0 119 -64.5 181.5t-170.5 62.5q-133 0 -248.5 -85t-169.5 -237z" />
    <glyph glyph-name="f" unicode="f" horiz-adv-x="675" 
d="M123 0l176 915h-182l20 115h182l11 45q19 96 60 168t86 110.5t100.5 61.5t95 29t78.5 6q20 0 39 -1.5t27 -2.5l9 -2l-26 -119q-18 4 -51 4q-28 0 -53.5 -3.5t-62 -19t-65 -41t-55.5 -74t-41 -114.5l-10 -47h262l-21 -115h-262l-178 -915h-139z" />
    <glyph glyph-name="g" unicode="g" horiz-adv-x="1255" 
d="M80 -240q13 -8 36 -19t94 -29.5t140 -18.5q80 0 147.5 19t126.5 60t100 115t58 176q7 40 16 73.5t14 47.5l5 13h-4q-126 -191 -344 -191q-182 0 -286.5 111.5t-104.5 298.5q0 111 36.5 222.5t103 205t172 152.5t231.5 59t215 -50t112 -139h4q-2 14 4 47q11 60 44 88.5
t96 28.5h186l-20 -115h-127q-47 0 -56 -43l-166 -858q-24 -119 -79.5 -207t-132 -138.5t-161.5 -74.5t-180 -24q-191 0 -346 86zM221 424q0 -137 72 -215t201 -78q97 0 176 51.5t126 134t72 176t25 185.5q0 252 -264 252q-94 0 -173 -44.5t-129 -116.5t-78 -162t-28 -183z
" />
    <glyph glyph-name="h" unicode="h" horiz-adv-x="1286" 
d="M72 0l256 1325h-176l22 115h315l-106 -559q-4 -21 -11 -44t-12 -36l-4 -13h4q18 36 55.5 78t94 86.5t136.5 73.5t165 29q137 0 211 -69t74 -198q0 -68 -48.5 -307.5t-48.5 -273.5q0 -59 26.5 -77.5t72.5 -18.5l51 4l-23 -115q-40 -4 -75 -4q-34 0 -63 6t-62 23
t-52.5 54.5t-19.5 92.5q0 43 48 281.5t48 298.5q0 86 -46 129t-128 43q-169 0 -304 -132.5t-171 -318.5l-90 -473h-139z" />
    <glyph glyph-name="i" unicode="i" horiz-adv-x="606" 
d="M348 1266l35 174h158l-35 -174h-158zM150 176q0 4 10 76l131 663h-185l23 115h324l-152 -764q-6 -35 -6 -59q0 -58 26 -77t72 -19l51 4l-22 -115q-43 -4 -72 -4q-200 0 -200 180z" />
    <glyph glyph-name="j" unicode="j" horiz-adv-x="565" 
d="M358 1266l33 174h158l-35 -174h-156zM115 -37l184 952h-184l22 115h324l-207 -1063q-19 -98 -58 -172t-82 -114t-96.5 -64.5t-93.5 -31.5t-80 -7q-22 0 -42.5 1.5t-29.5 2.5l-10 2l25 117q16 -4 45 -4q28 0 55.5 4.5t64.5 21.5t67 44t56.5 78t39.5 118z" />
    <glyph glyph-name="k" unicode="k" horiz-adv-x="1093" 
d="M70 0l260 1325h-185l23 115h324l-160 -811h141l311 286h-139l23 115h430l-23 -115h-127l-366 -337v-5q26 -20 53 -75l133 -297q15 -31 25 -46.5t34.5 -29.5t61.5 -14l57 4l-22 -115q-2 0 -14 -1t-29 -2t-31 -1q-41 0 -73 10t-52 22.5t-39.5 40.5t-29 47t-27.5 58
l-133 293q-12 28 -31 37.5t-59 9.5h-95l-102 -514h-139z" />
    <glyph glyph-name="l" unicode="l" horiz-adv-x="561" 
d="M106 180q0 25 11 78l207 1067h-185l23 115h323l-225 -1166q-8 -50 -8 -67q0 -31 8 -50.5t23.5 -28t30 -11t36.5 -2.5l51 4l-22 -119q-39 -6 -72 -6q-28 0 -52 3.5t-52.5 15.5t-49 31.5t-34 54.5t-13.5 81z" />
    <glyph glyph-name="m" unicode="m" horiz-adv-x="2009" 
d="M123 0l170 870q7 45 -37 45h-139l22 115h197q57 0 80.5 -21t23.5 -63q0 -19 -11.5 -76.5t-22.5 -87.5h4q54 105 176.5 189t255.5 84q134 0 197.5 -67.5t66.5 -199.5h4q63 116 179 191.5t245 75.5q137 0 211 -71t74 -198q0 -65 -48.5 -304t-48.5 -275q0 -59 25.5 -77.5
t71.5 -18.5l53 4l-23 -115q-42 -4 -75 -4q-34 0 -63 6t-62 23t-52.5 54.5t-19.5 92.5q0 43 48 283t48 295q0 85 -41.5 131.5t-138.5 46.5q-79 0 -153 -39.5t-129 -103.5t-93 -141.5t-53 -156.5l-94 -487h-140l119 621q19 89 19 137q0 170 -174 170q-105 0 -200 -67
t-156 -168t-83 -212l-94 -481h-139z" />
    <glyph glyph-name="n" unicode="n" horiz-adv-x="1339" 
d="M123 0l170 870q7 45 -37 45h-139l22 115h197q56 0 80 -21t24 -63q0 -21 -11 -78t-23 -86h4q17 37 54.5 80.5t93.5 88.5t138.5 74.5t171.5 29.5q135 0 208 -68.5t73 -195.5q0 -69 -48 -309t-48 -275q0 -59 26 -77.5t72 -18.5l51 4l-22 -115q-41 -4 -76 -4q-34 0 -63 6
t-62 23t-52.5 54.5t-19.5 92.5q0 43 48.5 281.5t48.5 298.5q0 172 -179 172q-163 0 -300 -133.5t-171 -317.5l-92 -473h-139z" />
    <glyph glyph-name="o" unicode="o" horiz-adv-x="1277" 
d="M70 426q0 129 54 246.5t143 200.5t206.5 132.5t241.5 49.5q202 0 330.5 -125t128.5 -320q0 -173 -92.5 -320.5t-241 -231t-312.5 -83.5q-203 0 -330.5 126t-127.5 325zM213 430q0 -145 91 -237.5t237 -92.5q121 0 233 66t184 183.5t72 254.5q0 143 -92 234.5t-238 91.5
q-123 0 -235 -66t-182 -182.5t-70 -251.5z" />
    <glyph glyph-name="p" unicode="p" horiz-adv-x="1282" 
d="M43 -410l250 1280q7 45 -37 45h-139l22 115h195q57 0 80.5 -21t23.5 -61q0 -36 -26 -108h4q59 94 157 154.5t222 60.5q181 0 281 -110.5t100 -303.5q0 -143 -47.5 -269t-125.5 -212t-178.5 -135.5t-206.5 -49.5q-116 0 -202.5 53t-120.5 154h-4q-2 -45 -12 -98l-97 -494
h-139zM348 397q0 -129 66 -213t192 -84q61 0 121.5 23t115.5 69t97 108.5t67 148.5t25 182q0 139 -69 218t-191 79q-91 0 -172 -47t-135 -123t-85.5 -171t-31.5 -190z" />
    <glyph glyph-name="q" unicode="q" horiz-adv-x="1228" 
d="M74 387q0 144 47 270.5t125.5 212.5t181 135.5t211.5 49.5q117 0 201.5 -54t117.5 -155h5q0 33 8 78l20 106h135l-260 -1327h185l-23 -113h-323l98 496q4 24 10.5 48.5t10.5 37.5l5 12h-4q-34 -56 -83 -101t-125 -76.5t-162 -31.5q-182 0 -281.5 110t-99.5 302zM217 397
q0 -138 69.5 -217.5t190.5 -79.5q122 0 221.5 82t151 204t51.5 251q0 128 -64.5 209.5t-191.5 81.5q-76 0 -151.5 -37t-137.5 -103t-100.5 -168.5t-38.5 -222.5z" />
    <glyph glyph-name="r" unicode="r" horiz-adv-x="784" 
d="M123 0l168 870q7 45 -37 45h-139l22 115h197q57 0 80.5 -20.5t23.5 -63.5q0 -21 -14 -87t-27 -101h4q59 121 158 201.5t219 80.5q38 0 62 -6l-27 -137q-28 4 -51 4q-79 0 -153 -48.5t-127.5 -125.5t-91 -164.5t-54.5 -173.5l-74 -389h-139z" />
    <glyph glyph-name="s" unicode="s" horiz-adv-x="970" 
d="M23 219l18 100h127l-14 -77q-9 -45 14.5 -76t68 -45t84 -19.5t80.5 -5.5q111 0 191 49.5t80 133.5q0 45 -28 79.5t-72 57.5t-98 44t-108 45.5t-98 54.5t-72 78t-28 110q0 95 60.5 166.5t153.5 106t200 34.5q87 0 159.5 -23t115 -72t28.5 -114l-23 -111h-129l19 86
q6 33 -10.5 56.5t-49.5 35t-66 16.5t-69 5q-99 0 -174.5 -46.5t-75.5 -127.5q0 -44 28 -78t72.5 -56.5t98.5 -42.5t108 -43.5t98.5 -53t72.5 -77t28 -108.5q0 -142 -119.5 -234t-314.5 -92q-69 0 -135 14.5t-121.5 42.5t-84 77t-15.5 110z" />
    <glyph glyph-name="t" unicode="t" horiz-adv-x="688" 
d="M166 283q0 47 12 112l101 520h-185l23 115h188l55 285h136l-56 -285h260l-22 -115h-260l-101 -528q-10 -44 -10 -90q0 -186 178 -186l58 4l-25 -119q-22 -4 -51 -4q-44 0 -82.5 6.5t-80.5 25.5t-71 50t-48 84.5t-19 124.5z" />
    <glyph glyph-name="u" unicode="u" horiz-adv-x="1329" 
d="M156 240q0 59 16 137l102 538h-182l21 115h323l-119 -614q-18 -95 -18 -144q0 -81 40.5 -124.5t139.5 -43.5q83 0 162.5 40t139.5 104.5t102.5 145t58.5 163.5l68 358h-183l23 115h324l-150 -764q-6 -35 -6 -59q0 -58 26 -77t72 -19l51 4l-22 -115q-45 -4 -78 -4
q-109 0 -154 65.5t-24 174.5h-4q-19 -33 -46 -66t-69 -69t-89.5 -63t-111 -45t-131.5 -18q-124 0 -203 64.5t-79 200.5z" />
    <glyph glyph-name="v" unicode="v" horiz-adv-x="1155" 
d="M385 0l-170 915h-135l20 115h422l-22 -115h-148l125 -690q3 -16 4 -36t1 -32l-1 -12h6q12 43 35 80l393 690h-149l22 115h433l-23 -115h-135l-528 -915h-150z" />
    <glyph glyph-name="w" unicode="w" horiz-adv-x="1748" 
d="M332 0l-115 915h-131l20 115h422l-20 -115h-156l82 -692l-2 -80h6q13 43 31 80l416 803h137l100 -803l2 -80h4q13 43 31 80l350 692h-153l22 115h432l-22 -115h-133l-471 -915h-150l-104 772l-4 82h-4q-15 -45 -35 -82l-406 -772h-149z" />
    <glyph glyph-name="x" unicode="x" horiz-adv-x="1112" 
d="M-53 0l20 115h154l344 424l-141 338q-11 24 -21.5 31t-34.5 7h-135l21 115h180q41 0 59.5 -15.5t36.5 -58.5l109 -266l20 -57h4q16 28 41 59l270 338h252l-22 -115h-164l-322 -389l140 -325q20 -47 45.5 -68.5t83.5 -21.5l71 4l-22 -115q-1 0 -30.5 -2t-49.5 -2
q-38 0 -67.5 5.5t-51.5 19.5t-37.5 26.5t-30 37.5t-22 41t-20.5 48l-80 203l-21 57h-4q-16 -26 -41 -59l-297 -375h-237z" />
    <glyph glyph-name="y" unicode="y" horiz-adv-x="1181" 
d="M-37 -264q6 -5 16 -12t43 -19t68 -12q66 0 125 45.5t104 118.5l84 137l-188 921h-135l22 115h426l-22 -115h-150l133 -702l5 -74h4q14 35 37 74l405 702h-149l22 115h432l-22 -115h-136l-653 -1105q-143 -240 -348 -240q-56 0 -104 15t-68 31l-20 15z" />
    <glyph glyph-name="z" unicode="z" horiz-adv-x="1060" 
d="M-20 0l18 98l723 729l92 88v5q-37 -5 -100 -5h-400l-34 -182h-125l57 297h809l-21 -100l-723 -727q-21 -21 -43.5 -42.5t-36.5 -34t-14 -11.5v-4q42 4 103 4h450l35 182h127l-57 -297h-860z" />
    <glyph glyph-name="braceleft" unicode="{" horiz-adv-x="663" 
d="M156 61q0 40 14 115l35 189q6 35 6 61q0 44 -13.5 77.5t-33.5 50.5t-39.5 28t-32.5 14l-14 2l24 127q7 1 19.5 3.5t45 18t60 38.5t55.5 69.5t40 106.5l34 174q14 71 38 128t51 94.5t61.5 64.5t66 41.5t68.5 22t63.5 9t57.5 0.5l-23 -115q-21 2 -44 -1t-56.5 -17.5
t-62 -40.5t-54.5 -77t-39 -120l-41 -206q-11 -59 -37.5 -107t-56 -74t-57.5 -44t-46 -23l-18 -6v-5q5 -2 13 -6.5t28.5 -22t36 -39t28.5 -58.5t13 -80q0 -25 -6 -60l-43 -217q-10 -58 -10 -92q0 -46 13 -79t31 -49.5t43.5 -25.5t44 -11t38.5 -1l-25 -115q-13 -2 -31 -2
q-23 0 -48.5 4.5t-62.5 20.5t-65 42.5t-48.5 76.5t-20.5 116z" />
    <glyph glyph-name="bar" unicode="|" horiz-adv-x="653" 
d="M270 -322v1936h129v-1936h-129z" />
    <glyph glyph-name="braceright" unicode="}" horiz-adv-x="663" 
d="M-78 -197l21 115q22 -2 45 1t57 17.5t62 40.5t54.5 77t39.5 120l43 229q12 62 38.5 111.5t56 76t57 44.5t45.5 23l18 6v4q-5 2 -13 6.5t-28 21.5t-35.5 38t-28 57t-12.5 77q0 26 6 60l37 196q10 44 10 90q0 56 -18.5 93t-48.5 51.5t-53 18.5t-48 3l23 115q21 5 49 1
t59 -10t61 -26t53.5 -47t38.5 -73t15 -103q0 -40 -14 -115l-31 -164q-6 -38 -6 -63q0 -44 14 -77.5t33.5 -50.5t39.5 -28t34 -13l14 -3l-26 -127q-7 -1 -19 -3.5t-45 -17.5t-60 -38t-55 -69.5t-40 -107.5l-39 -196q-14 -71 -37.5 -128t-51.5 -94.5t-61 -66t-66.5 -41.5
t-67.5 -22.5t-64 -9t-56 0.5z" />
    <glyph glyph-name="asciitilde" unicode="~" horiz-adv-x="1214" 
d="M137 428q0 162 69.5 239.5t190.5 77.5q53 0 96.5 -16t71 -39.5t56 -51t52 -51t58 -39.5t74.5 -16q43 0 74 20.5t45 54.5t20 65.5t6 64.5h121q0 -162 -69.5 -239.5t-190.5 -77.5q-62 0 -110.5 22t-80.5 53t-61.5 62.5t-68.5 53.5t-87 22q-43 0 -74 -20.5t-45 -54.5
t-20 -65.5t-6 -64.5h-121z" />
    <glyph glyph-name="uni00A0" unicode="&#xa0;" horiz-adv-x="567" 
 />
    <glyph glyph-name="exclamdown" unicode="&#xa1;" horiz-adv-x="464" 
d="M201 868l35 162h159l-33 -162h-161zM-37 -410l215 1063h129l-201 -1063h-143z" />
    <glyph glyph-name="cent" unicode="&#xa2;" horiz-adv-x="1132" 
d="M410 -27l32 179q-156 24 -244.5 137t-88.5 297q0 122 40 244t110.5 222t177 166t229.5 74l32 172h117l-35 -176q56 -9 104 -30t79.5 -48t57 -57.5t40 -59.5t24 -52.5t12.5 -37.5l3 -14l-129 -49q-2 9 -5.5 24t-22.5 53t-45.5 67t-77.5 53t-115 24q-133 0 -237 -80.5
t-158 -210t-54 -282.5q0 -142 68.5 -224.5t207.5 -82.5q63 0 122.5 22.5t99 54.5t70 64.5t44.5 55.5l15 22l123 -51q-6 -12 -18 -31.5t-53.5 -70t-89.5 -90t-126 -74t-162 -38.5l-33 -172h-114z" />
    <glyph glyph-name="sterling" unicode="&#xa3;" horiz-adv-x="1245" 
d="M-18 0l22 121h180l107 547h-139l22 112h137l64 318q30 156 162.5 261t308.5 105q58 0 112 -12.5t89.5 -31t63 -36.5t39.5 -30l13 -13l-98 -92q-3 3 -9.5 9t-28 20.5t-45.5 25.5t-61.5 20t-76.5 9q-130 0 -219.5 -74t-110.5 -182l-57 -297h387l-23 -112h-387l-106 -547
h596l49 241h129l-70 -362h-1050z" />
    <glyph glyph-name="yen" unicode="&#xa5;" horiz-adv-x="1286" 
d="M446 0l86 432h-333l18 105h334l16 79l-39 101h-276l22 104h218l-240 619h156l192 -512l57 -183h5q61 99 120 183l392 512h172l-482 -619h215l-20 -104h-273l-75 -101l-17 -79h330l-18 -105h-330l-86 -432h-144z" />
    <glyph glyph-name="section" unicode="&#xa7;" horiz-adv-x="827" 
d="M199 174l34 885q2 172 110.5 288.5t287.5 116.5q43 0 83 -9.5t67 -22.5t48 -26t31 -22l10 -10l-86 -88q-6 6 -18.5 15t-52.5 24.5t-84 15.5q-122 0 -196 -79t-77 -201l-37 -887h-120zM-14 -37l84 88q7 -6 19.5 -15t53 -24.5t84.5 -15.5q122 0 196 79t77 201l37 887h120
l-34 -884q-2 -171 -111 -288.5t-287 -117.5q-43 0 -83 9.5t-67 22.5t-48 26t-31 23z" />
    <glyph glyph-name="dieresis" unicode="&#xa8;" horiz-adv-x="1032" 
d="M510 1608l35 176h143l-37 -176h-141zM135 1608l35 176h141l-35 -176h-141z" />
    <glyph glyph-name="copyright" unicode="&#xa9;" horiz-adv-x="1681" 
d="M137 721q0 152 57.5 290t154 237t230.5 157.5t281 58.5q150 0 286 -58.5t234 -157.5t155.5 -236.5t57.5 -290.5q0 -154 -57.5 -292.5t-155.5 -238t-233.5 -157.5t-286.5 -58q-147 0 -281 58.5t-230.5 157.5t-154 237.5t-57.5 292.5zM256 721q0 -176 79.5 -322
t218.5 -229.5t306 -83.5q170 0 311 83.5t221.5 229.5t80.5 322q0 175 -80.5 320t-221.5 229t-311 84q-167 0 -306 -84t-218.5 -229.5t-79.5 -319.5zM459 717q0 110 48 204.5t146 156t228 61.5q62 0 119.5 -19.5t94.5 -47.5t65.5 -56.5t41.5 -47.5l12 -20l-94 -63
q-3 6 -10 15.5t-29.5 33.5t-48 43t-65.5 34t-82 15q-142 0 -223.5 -90.5t-81.5 -216.5q0 -127 81 -217t224 -90q43 0 83 14.5t66.5 35t46.5 41.5t29 35l10 15l94 -64q-4 -8 -13 -20.5t-40 -45.5t-66.5 -58t-93.5 -45.5t-120 -20.5q-131 0 -229 60.5t-145.5 154t-47.5 203.5z
" />
    <glyph glyph-name="ordfeminine" unicode="&#xaa;" horiz-adv-x="882" 
d="M434 782q-74 0 -133 44.5t-59 125.5q0 50 19 90t47 65.5t69.5 44.5t78.5 28t83 14.5t72.5 6.5t56.5 1h39q4 15 4 17q12 69 -17.5 107t-99.5 38q-42 0 -88 -14t-71 -28l-25 -15l-39 84q11 8 32 19.5t84 30.5t125 19q215 0 215 -190q0 -35 -10 -80l-78 -395h-108l20 102h-4
q-3 -5 -9 -12.5t-27 -27.5t-44 -35t-59 -27.5t-74 -12.5zM467 879q77 0 141.5 76.5t81.5 160.5h-26q-304 0 -304 -151q0 -39 27 -62.5t80 -23.5zM158 541l18 96h539l-19 -96h-538z" />
    <glyph glyph-name="guillemotleft" unicode="&#xab;" horiz-adv-x="1075" 
d="M717 158l-262 424l422 417h161l-440 -428l260 -413h-141zM356 158l-262 424l393 417h160l-409 -428l260 -413h-142z" />
    <glyph glyph-name="logicalnot" unicode="&#xac;" horiz-adv-x="1290" 
d="M160 700v119h954v-495h-125v376h-829z" />
    <glyph glyph-name="uni00AD" unicode="&#xad;" horiz-adv-x="1009" 
d="M197 518l22 127h582l-23 -127h-581z" />
    <glyph glyph-name="registered" unicode="&#xae;" horiz-adv-x="1681" 
d="M137 721q0 152 57.5 290t154 237t230.5 157.5t281 58.5q150 0 286 -58.5t234 -157.5t155.5 -236.5t57.5 -290.5q0 -154 -57.5 -292.5t-155.5 -238t-233.5 -157.5t-286.5 -58q-147 0 -281 58.5t-230.5 157.5t-154 237.5t-57.5 292.5zM256 721q0 -176 79.5 -322
t218.5 -229.5t306 -83.5q170 0 311 83.5t221.5 229.5t80.5 322q0 175 -80.5 320t-221.5 229t-311 84q-167 0 -306 -84t-218.5 -229.5t-79.5 -319.5zM616 322v798h285q108 0 175 -65t67 -172q0 -84 -45 -140t-107 -71v-4q9 -10 27 -45l156 -301h-130l-157 323h-154v-323h-117
zM733 735h150q65 0 103 39.5t38 108.5q0 67 -38 104t-103 37h-150v-289z" />
    <glyph glyph-name="macron" unicode="&#xaf;" horiz-adv-x="1032" 
d="M147 1608l21 112h506l-21 -112h-506z" />
    <glyph glyph-name="degree" unicode="&#xb0;" horiz-adv-x="784" 
d="M465 893q-113 0 -184.5 70t-71.5 178q0 125 101.5 223t228.5 98q113 0 184.5 -70.5t71.5 -177.5q0 -125 -103 -223t-227 -98zM471 1008q79 0 140 60.5t61 141.5q0 59 -39 98.5t-101 39.5q-78 0 -139 -62t-61 -141q0 -60 38 -98.5t101 -38.5z" />
    <glyph glyph-name="plusminus" unicode="&#xb1;" horiz-adv-x="1241" 
d="M82 522v119h473v522h125v-522h471v-119h-471v-522h-125v522h-473zM119 -213h995v-119h-995v119z" />
    <glyph glyph-name="twosuperior" unicode="&#xb2;" horiz-adv-x="866" 
d="M188 866q1 73 26.5 135.5t65.5 106t91 83.5t104 69t103.5 62t90 63.5t63.5 72t24 88.5q0 55 -38.5 91t-101.5 36q-49 0 -99.5 -25t-76.5 -50l-26 -25l-66 78l13.5 13.5t37.5 30.5t59 39t75.5 30.5t89.5 13.5q117 0 184 -61.5t67 -162.5q0 -58 -21 -108.5t-55.5 -86.5
t-79.5 -70t-93 -60t-97 -56t-89.5 -58.5t-71.5 -67.5t-43 -82h360l23 112h100l-39 -211h-580z" />
    <glyph glyph-name="threesuperior" unicode="&#xb3;" horiz-adv-x="823" 
d="M477 846q-55 0 -105.5 14t-84 34t-59 39.5t-36.5 33.5l-12 14l80 74q3 -4 9 -11t26.5 -25t44 -31.5t61 -24.5t76.5 -11q86 0 152.5 62.5t66.5 152.5q0 64 -51 102t-121 38h-63l-19 61l265 254l51 41v4q-27 -6 -60 -6h-239l-23 -113h-102l41 209h545l-15 -74l-301 -288
q34 -5 67 -19t66.5 -39.5t54.5 -69.5t21 -100q0 -127 -99.5 -224t-236.5 -97z" />
    <glyph glyph-name="acute" unicode="&#xb4;" horiz-adv-x="1032" 
d="M190 1540l250 244h187l-281 -244h-156z" />
    <glyph glyph-name="mu" unicode="&#xb5;" horiz-adv-x="1200" 
d="M152 -94l-62 -316h-129l281 1440h139l-119 -612q-16 -71 -16 -142q0 -80 41 -125t139 -45q84 0 165 39t141 103t103 144.5t58 164.5l92 473h139l-200 -1030h-138l29 147l27 97h-4q-23 -42 -62 -85.5t-94.5 -86.5t-132.5 -70t-160 -27q-149 0 -215 88h-4q-8 -106 -18 -157
z" />
    <glyph glyph-name="mu" unicode="&#x3bc;" horiz-adv-x="1200" 
d="M152 -94l-62 -316h-129l281 1440h139l-119 -612q-16 -71 -16 -142q0 -80 41 -125t139 -45q84 0 165 39t141 103t103 144.5t58 164.5l92 473h139l-200 -1030h-138l29 147l27 97h-4q-23 -42 -62 -85.5t-94.5 -86.5t-132.5 -70t-160 -27q-149 0 -215 88h-4q-8 -106 -18 -157
z" />
    <glyph glyph-name="paragraph" unicode="&#xb6;" horiz-adv-x="1179" 
d="M438 -102l117 596q-106 0 -198.5 52t-149.5 146.5t-57 210.5q0 142 82 267.5t212 197.5t269 72h514l-25 -127h-371l-274 -1415h-119zM684 -102l250 1292h117l-250 -1292h-117z" />
    <glyph glyph-name="periodcentered" unicode="&#xb7;" horiz-adv-x="569" 
d="M182 504l33 170h164l-33 -170h-164z" />
    <glyph glyph-name="cedilla" unicode="&#xb8;" horiz-adv-x="1032" 
d="M283 -193l102 234l78 -14l-2 -17l-53 -129q56 -8 92.5 -43t36.5 -92q0 -59 -38.5 -100.5t-90 -58.5t-107.5 -17q-28 0 -54 3t-38 6l-12 3l18 90q35 -10 84 -10q47 0 85 19t38 63q0 29 -30 46t-81 17h-28z" />
    <glyph glyph-name="onesuperior" unicode="&#xb9;" horiz-adv-x="817" 
d="M190 866l19 99h215l108 567l19 74h-4q-20 -27 -53 -54l-113 -94l-59 80l264 219h106l-155 -792h211l-21 -99h-537z" />
    <glyph glyph-name="ordmasculine" unicode="&#xba;" horiz-adv-x="978" 
d="M530 784q-130 0 -209 79t-79 204q0 106 57 197.5t149.5 144.5t194.5 53q130 0 210.5 -79t80.5 -201q0 -81 -34.5 -155.5t-90.5 -127.5t-129.5 -84t-149.5 -31zM541 889q107 0 193.5 84t86.5 203q0 82 -52.5 133t-135.5 51q-108 0 -193.5 -84t-85.5 -201q0 -84 51.5 -135
t135.5 -51zM168 541l18 96h619l-19 -96h-618z" />
    <glyph glyph-name="guillemotright" unicode="&#xbb;" horiz-adv-x="1079" 
d="M422 158l409 428l-260 413h142l262 -424l-391 -417h-162zM33 158l438 428l-260 413h141l262 -424l-419 -417h-162z" />
    <glyph glyph-name="onequarter" unicode="&#xbc;" horiz-adv-x="1923" 
d="M1479 0l47 236h-432l14 75l545 580h112l-108 -559h133l-18 -96h-134l-47 -236h-112zM1245 332h299l64 330l24 88h-4q-26 -41 -59 -74l-324 -340v-4zM551 0h-127l967 1440h127zM111 549l18 98h215l109 567l18 74h-4q-20 -26 -53 -53l-113 -94l-59 80l264 219h106
l-155 -793h211l-21 -98h-536z" />
    <glyph glyph-name="onehalf" unicode="&#xbd;" horiz-adv-x="1882" 
d="M1092 0q2 83 34 152t82 116t110.5 87.5t120 75t109 70t80.5 81t31 98.5q0 55 -38 91t-101 36q-49 0 -100 -25t-77 -50l-26 -25l-66 77l13.5 13.5t37.5 30.5t59 39t75.5 30.5t89.5 13.5q117 0 184.5 -61t67.5 -162q0 -66 -27 -122t-71 -95.5t-97.5 -74t-110.5 -67
t-106 -64.5t-87 -75t-52 -92h360l23 113h100l-39 -211h-579zM537 0h-127l966 1440h127zM94 549l19 98h215l108 567l19 74h-4q-21 -26 -54 -53l-112 -94l-60 80l264 219h107l-156 -793h211l-20 -98h-537z" />
    <glyph glyph-name="threequarters" unicode="&#xbe;" horiz-adv-x="1961" 
d="M1509 0l47 236h-432l15 75l544 580h113l-108 -559h133l-19 -96h-133l-47 -236h-113zM1276 332h299l63 330l25 88h-4q-27 -41 -60 -74l-323 -340v-4zM414 528q-55 0 -105.5 14t-84 34t-59 40t-37.5 34l-11 14l80 73q3 -4 9 -11t26.5 -24.5t44 -31t61 -24.5t76.5 -11
q86 0 152.5 62.5t66.5 152.5q0 64 -51 101.5t-121 37.5h-64l-18 62l264 254l51 41v4q-26 -7 -59 -7h-240l-22 -112h-103l41 209h545l-14 -74l-301 -289q34 -5 67 -19t66.5 -39t54.5 -69t21 -100q0 -127 -99.5 -224.5t-236.5 -97.5zM582 0h-127l966 1440h127z" />
    <glyph glyph-name="questiondown" unicode="&#xbf;" horiz-adv-x="940" 
d="M520 868l33 162h162l-33 -162h-162zM-18 -119q0 74 24 138.5t64 111.5t88 89t99 81.5t95 78t78 88t45 103.5l19 82h137l-19 -88q-14 -69 -48.5 -129t-77.5 -103.5t-92.5 -84t-95.5 -78t-83.5 -77t-60.5 -90t-23 -107.5q0 -85 60.5 -139t164.5 -54q64 0 130 21.5t100 43.5
l35 21l59 -113q-6 -4 -17.5 -11.5t-47.5 -25.5t-73.5 -32t-92.5 -25.5t-107 -11.5q-163 0 -261.5 85t-98.5 226z" />
    <glyph glyph-name="Agrave" unicode="&#xc0;" horiz-adv-x="1464" 
d="M-94 0l22 119h146l741 1321h160l227 -1321h146l-23 -119h-455l23 119h166l-64 370h-561l-207 -370h164l-24 -119h-461zM498 610h481l-98 590q-4 21 -6 44t-3 36v12h-4q-14 -45 -39 -92zM868 1540l-184 244h172l154 -244h-142z" />
    <glyph glyph-name="Aacute" unicode="&#xc1;" horiz-adv-x="1464" 
d="M-94 0l22 119h146l741 1321h160l227 -1321h146l-23 -119h-455l23 119h166l-64 370h-561l-207 -370h164l-24 -119h-461zM498 610h481l-98 590q-4 21 -6 44t-3 36v12h-4q-14 -45 -39 -92zM811 1540l250 244h186l-280 -244h-156z" />
    <glyph glyph-name="Acircumflex" unicode="&#xc2;" horiz-adv-x="1464" 
d="M-94 0l22 119h146l741 1321h160l227 -1321h146l-23 -119h-455l23 119h166l-64 370h-561l-207 -370h164l-24 -119h-461zM498 610h481l-98 590q-4 21 -6 44t-3 36v12h-4q-14 -45 -39 -92zM651 1540l221 244h166l123 -244h-135l-78 166h-4l-143 -166h-150z" />
    <glyph glyph-name="Atilde" unicode="&#xc3;" horiz-adv-x="1464" 
d="M-94 0l22 119h146l741 1321h160l227 -1321h146l-23 -119h-455l23 119h166l-64 370h-561l-207 -370h164l-24 -119h-461zM498 610h481l-98 590q-4 21 -6 44t-3 36v12h-4q-14 -45 -39 -92zM606 1546q22 116 78 178t139 62q38 0 68 -15t48 -36t33.5 -42t34.5 -36t42 -15
q74 0 102 138h119q-22 -116 -78.5 -178t-138.5 -62q-39 0 -68.5 14.5t-47.5 35t-33.5 41.5t-34.5 35.5t-42 14.5q-77 0 -102 -135h-119z" />
    <glyph glyph-name="Adieresis" unicode="&#xc4;" horiz-adv-x="1464" 
d="M-94 0l22 119h146l741 1321h160l227 -1321h146l-23 -119h-455l23 119h166l-64 370h-561l-207 -370h164l-24 -119h-461zM498 610h481l-98 590q-4 21 -6 44t-3 36v12h-4q-14 -45 -39 -92zM1044 1608l35 176h144l-37 -176h-142zM670 1608l35 176h141l-35 -176h-141z" />
    <glyph glyph-name="Aring" unicode="&#xc5;" horiz-adv-x="1464" 
d="M-94 0l22 119h146l741 1321h160l227 -1321h146l-23 -119h-455l23 119h166l-64 370h-561l-207 -370h164l-24 -119h-461zM498 610h481l-98 590q-4 21 -6 44t-3 36v12h-4q-14 -45 -39 -92zM918 1507q-64 0 -107 37.5t-43 97.5q0 74 59 125.5t131 51.5q66 0 109 -37t43 -99
q0 -73 -59 -124.5t-133 -51.5zM924 1587q39 0 64.5 27t25.5 69q0 27 -16.5 42.5t-45.5 15.5q-35 0 -61.5 -27.5t-26.5 -68.5q0 -26 16 -42t44 -16z" />
    <glyph glyph-name="AE" unicode="&#xc6;" horiz-adv-x="1900" 
d="M-86 0l25 119h131l727 1202h-160l22 119h1252l-60 -299h-127l35 176h-555l-104 -531h540l-24 -122h-541l-104 -541h594l34 178h127l-59 -301h-1044l22 119h180l107 547h-381l-328 -547h160l-25 -119h-444zM623 784h333l105 533h-117z" />
    <glyph glyph-name="Ccedilla" unicode="&#xc7;" horiz-adv-x="1521" 
d="M584 -193l75 175q-245 29 -387.5 197t-142.5 421q0 175 72 336t191 276t278 183.5t327 68.5q57 0 120.5 -6.5t138.5 -26t130.5 -49t87.5 -82t19 -118.5l-31 -158h-137l23 119q10 53 -22.5 92.5t-92 60t-120.5 30t-120 9.5q-142 0 -274 -59t-229 -156.5t-155.5 -231.5
t-58.5 -278q0 -225 132 -365.5t352 -140.5q63 0 132.5 11.5t137 34t115 62.5t57.5 89l23 113h137l-29 -152q-15 -74 -77.5 -132t-149.5 -90.5t-176 -48.5t-172 -16h-10l-37 -94q56 -8 91.5 -43t35.5 -92q0 -59 -38 -100.5t-89 -58.5t-107 -17q-28 0 -54.5 3t-39.5 6l-12 3
l18 90q35 -10 84 -10q48 0 85.5 19t37.5 63q0 29 -29 46t-80 17h-30z" />
    <glyph glyph-name="Egrave" unicode="&#xc8;" horiz-adv-x="1284" 
d="M-4 0l24 119h187l233 1202h-188l24 119h1016l-59 -299h-129l35 176h-555l-103 -531h543l-25 -122h-542l-107 -541h594l37 186h129l-61 -309h-1053zM793 1540l-185 244h172l154 -244h-141z" />
    <glyph glyph-name="Eacute" unicode="&#xc9;" horiz-adv-x="1284" 
d="M733 1540l250 244h186l-280 -244h-156zM-4 0l24 119h187l233 1202h-188l24 119h1016l-59 -299h-129l35 176h-555l-103 -531h543l-25 -122h-542l-107 -541h594l37 186h129l-61 -309h-1053z" />
    <glyph glyph-name="Ecircumflex" unicode="&#xca;" horiz-adv-x="1284" 
d="M575 1540l222 244h166l122 -244h-135l-78 166h-4l-143 -166h-150zM-4 0l24 119h187l233 1202h-188l24 119h1016l-59 -299h-129l35 176h-555l-103 -531h543l-25 -122h-542l-107 -541h594l37 186h129l-61 -309h-1053z" />
    <glyph glyph-name="Edieresis" unicode="&#xcb;" horiz-adv-x="1284" 
d="M969 1608l35 176h143l-37 -176h-141zM594 1608l35 176h141l-35 -176h-141zM-4 0l24 119h187l233 1202h-188l24 119h1016l-59 -299h-129l35 176h-555l-103 -531h543l-25 -122h-542l-107 -541h594l37 186h129l-61 -309h-1053z" />
    <glyph glyph-name="Igrave" unicode="&#xcc;" horiz-adv-x="745" 
d="M-2 0l22 119h187l233 1202h-186l22 119h521l-23 -119h-190l-234 -1202h189l-23 -119h-518zM506 1540l-184 244h172l153 -244h-141z" />
    <glyph glyph-name="Iacute" unicode="&#xcd;" horiz-adv-x="745" 
d="M-2 0l22 119h187l233 1202h-186l22 119h521l-23 -119h-190l-234 -1202h189l-23 -119h-518zM449 1540l249 244h187l-281 -244h-155z" />
    <glyph glyph-name="Icircumflex" unicode="&#xce;" horiz-adv-x="745" 
d="M-2 0l22 119h187l233 1202h-186l22 119h521l-23 -119h-190l-234 -1202h189l-23 -119h-518zM289 1540l221 244h166l123 -244h-135l-78 166h-4l-144 -166h-149z" />
    <glyph glyph-name="Idieresis" unicode="&#xcf;" horiz-adv-x="745" 
d="M-2 0l22 119h187l233 1202h-186l22 119h521l-23 -119h-190l-234 -1202h189l-23 -119h-518zM684 1608l35 176h143l-37 -176h-141zM309 1608l35 176h141l-34 -176h-142z" />
    <glyph glyph-name="Eth" unicode="&#xd0;" horiz-adv-x="1611" 
d="M-2 0l22 119h187l106 543h-159l22 122h160l106 537h-188l22 119h625q294 0 460.5 -146.5t166.5 -412.5q0 -180 -63.5 -341.5t-174.5 -280.5t-271.5 -189t-344.5 -70h-676zM350 123h307q206 0 371.5 98t258.5 269t93 382q0 213 -129.5 329t-359.5 116h-305l-107 -533h348
l-24 -122h-346z" />
    <glyph glyph-name="Ntilde" unicode="&#xd1;" horiz-adv-x="1705" 
d="M-4 0l24 119h187l233 1202h-188l24 119h322l584 -1143q7 -16 14 -37t10 -34l4 -13h4q5 57 13 94l200 1014h-190l23 119h522l-23 -119h-188l-258 -1321h-137l-586 1145q-7 15 -14 36t-10 35l-3 13h-4q-4 -57 -12 -94l-197 -1016h191l-25 -119h-520zM737 1546
q22 116 78 178t139 62q38 0 68 -15t48 -36t33.5 -42t34.5 -36t42 -15q74 0 102 138h119q-22 -116 -78.5 -178t-138.5 -62q-39 0 -68.5 14.5t-47.5 35t-33.5 41.5t-34.5 35.5t-42 14.5q-77 0 -102 -135h-119z" />
    <glyph glyph-name="Ograve" unicode="&#xd2;" horiz-adv-x="1691" 
d="M125 598q0 172 74 332.5t194.5 277t281 186.5t326.5 70q272 0 443.5 -170.5t171.5 -435.5q0 -140 -48 -274.5t-132.5 -243t-194.5 -191.5t-240.5 -128.5t-263.5 -45.5q-272 0 -442 175t-170 448zM270 602q0 -219 134 -357.5t346 -138.5q132 0 262 59.5t230.5 159t163 239
t62.5 288.5q0 213 -134 347t-347 134q-133 0 -263.5 -58.5t-230.5 -156t-161.5 -234t-61.5 -282.5zM983 1540l-184 244h172l153 -244h-141z" />
    <glyph glyph-name="Oacute" unicode="&#xd3;" horiz-adv-x="1691" 
d="M924 1540l250 244h186l-281 -244h-155zM125 598q0 172 74 332.5t194.5 277t281 186.5t326.5 70q272 0 443.5 -170.5t171.5 -435.5q0 -140 -48 -274.5t-132.5 -243t-194.5 -191.5t-240.5 -128.5t-263.5 -45.5q-272 0 -442 175t-170 448zM270 602q0 -219 134 -357.5
t346 -138.5q132 0 262 59.5t230.5 159t163 239t62.5 288.5q0 213 -134 347t-347 134q-133 0 -263.5 -58.5t-230.5 -156t-161.5 -234t-61.5 -282.5z" />
    <glyph glyph-name="Ocircumflex" unicode="&#xd4;" horiz-adv-x="1691" 
d="M766 1540l221 244h166l123 -244h-135l-78 166h-4l-144 -166h-149zM125 598q0 172 74 332.5t194.5 277t281 186.5t326.5 70q272 0 443.5 -170.5t171.5 -435.5q0 -140 -48 -274.5t-132.5 -243t-194.5 -191.5t-240.5 -128.5t-263.5 -45.5q-272 0 -442 175t-170 448zM270 602
q0 -219 134 -357.5t346 -138.5q132 0 262 59.5t230.5 159t163 239t62.5 288.5q0 213 -134 347t-347 134q-133 0 -263.5 -58.5t-230.5 -156t-161.5 -234t-61.5 -282.5z" />
    <glyph glyph-name="Otilde" unicode="&#xd5;" horiz-adv-x="1691" 
d="M125 598q0 172 74 332.5t194.5 277t281 186.5t326.5 70q272 0 443.5 -170.5t171.5 -435.5q0 -140 -48 -274.5t-132.5 -243t-194.5 -191.5t-240.5 -128.5t-263.5 -45.5q-272 0 -442 175t-170 448zM270 602q0 -219 134 -357.5t346 -138.5q132 0 262 59.5t230.5 159t163 239
t62.5 288.5q0 213 -134 347t-347 134q-133 0 -263.5 -58.5t-230.5 -156t-161.5 -234t-61.5 -282.5zM721 1546q22 116 78 178t139 62q38 0 68 -15t48 -36t33 -42t34 -36t42 -15q75 0 103 138h118q-22 -116 -78.5 -178t-138.5 -62q-39 0 -68.5 14.5t-47.5 35t-33 41.5
t-34 35.5t-42 14.5q-77 0 -102 -135h-119z" />
    <glyph glyph-name="Odieresis" unicode="&#xd6;" horiz-adv-x="1691" 
d="M1159 1608l35 176h143l-37 -176h-141zM784 1608l35 176h142l-35 -176h-142zM125 598q0 172 74 332.5t194.5 277t281 186.5t326.5 70q272 0 443.5 -170.5t171.5 -435.5q0 -140 -48 -274.5t-132.5 -243t-194.5 -191.5t-240.5 -128.5t-263.5 -45.5q-272 0 -442 175t-170 448
zM270 602q0 -219 134 -357.5t346 -138.5q132 0 262 59.5t230.5 159t163 239t62.5 288.5q0 213 -134 347t-347 134q-133 0 -263.5 -58.5t-230.5 -156t-161.5 -234t-61.5 -282.5z" />
    <glyph glyph-name="multiply" unicode="&#xd7;" horiz-adv-x="1241" 
d="M94 84l443 498l-443 497l84 84l438 -493l439 493l84 -84l-445 -497l445 -498l-84 -84l-439 494l-438 -494z" />
    <glyph glyph-name="Oslash" unicode="&#xd8;" horiz-adv-x="1693" 
d="M147 14l138 150q-160 171 -160 434q0 171 74 332.5t193.5 277.5t277 186t319.5 70q226 0 383 -114l129 141l80 -66l-129 -141q78 -81 121 -191t43 -235q0 -140 -47.5 -274.5t-132 -243t-193 -191.5t-236.5 -128.5t-257 -45.5q-230 0 -390 119l-131 -143zM385 270l891 975
q-122 86 -287 86q-134 0 -264.5 -58t-230 -155t-161 -233.5t-61.5 -282.5q0 -201 113 -332zM457 199q123 -90 295 -90q132 0 262 59.5t230 158.5t162 237.5t62 287.5q0 195 -116 324z" />
    <glyph glyph-name="Ugrave" unicode="&#xd9;" horiz-adv-x="1628" 
d="M229 385q0 24 2.5 51.5t5.5 45t7.5 44t5.5 31.5l149 764h-188l22 119h521l-23 -119h-188l-150 -766q-18 -117 -18 -154q0 -137 90.5 -216t251.5 -79q186 0 307 97q137 107 178 307l160 811h-188l22 119h520l-22 -119h-189l-164 -829q-26 -135 -90.5 -240.5t-160.5 -169.5
q-159 -107 -377 -107q-217 0 -350.5 112t-133.5 298zM948 1540l-184 244h172l154 -244h-142z" />
    <glyph glyph-name="Uacute" unicode="&#xda;" horiz-adv-x="1628" 
d="M889 1540l250 244h186l-281 -244h-155zM229 385q0 24 2.5 51.5t5.5 45t7.5 44t5.5 31.5l149 764h-188l22 119h521l-23 -119h-188l-150 -766q-18 -117 -18 -154q0 -137 90.5 -216t251.5 -79q186 0 307 97q137 107 178 307l160 811h-188l22 119h520l-22 -119h-189
l-164 -829q-26 -135 -90.5 -240.5t-160.5 -169.5q-159 -107 -377 -107q-217 0 -350.5 112t-133.5 298z" />
    <glyph glyph-name="Ucircumflex" unicode="&#xdb;" horiz-adv-x="1628" 
d="M731 1540l221 244h166l123 -244h-135l-78 166h-4l-143 -166h-150zM229 385q0 24 2.5 51.5t5.5 45t7.5 44t5.5 31.5l149 764h-188l22 119h521l-23 -119h-188l-150 -766q-18 -117 -18 -154q0 -137 90.5 -216t251.5 -79q186 0 307 97q137 107 178 307l160 811h-188l22 119
h520l-22 -119h-189l-164 -829q-26 -135 -90.5 -240.5t-160.5 -169.5q-159 -107 -377 -107q-217 0 -350.5 112t-133.5 298z" />
    <glyph glyph-name="Udieresis" unicode="&#xdc;" horiz-adv-x="1628" 
d="M1124 1608l35 176h144l-37 -176h-142zM750 1608l34 176h142l-35 -176h-141zM229 385q0 24 2.5 51.5t5.5 45t7.5 44t5.5 31.5l149 764h-188l22 119h521l-23 -119h-188l-150 -766q-18 -117 -18 -154q0 -137 90.5 -216t251.5 -79q186 0 307 97q137 107 178 307l160 811h-188
l22 119h520l-22 -119h-189l-164 -829q-26 -135 -90.5 -240.5t-160.5 -169.5q-159 -107 -377 -107q-217 0 -350.5 112t-133.5 298z" />
    <glyph glyph-name="Yacute" unicode="&#xdd;" horiz-adv-x="1318" 
d="M281 0l24 119h189l98 499l-289 703h-141l24 119h449l-25 -119h-159l208 -524l19 -56h4q19 29 39 56l418 524h-162l22 119h461l-24 -119h-142l-559 -703l-98 -499h188l-24 -119h-520zM735 1540l250 244h186l-280 -244h-156z" />
    <glyph glyph-name="Thorn" unicode="&#xde;" horiz-adv-x="1320" 
d="M-4 0l24 119h187l233 1202h-188l24 119h521l-25 -119h-188l-35 -166h354q174 0 276.5 -91t102.5 -249q0 -142 -73 -253t-190 -168.5t-253 -57.5h-375l-43 -217h191l-25 -119h-518zM414 455h342q160 0 269.5 98.5t109.5 263.5q0 106 -70.5 162.5t-196.5 56.5h-342z" />
    <glyph glyph-name="germandbls" unicode="&#xdf;" horiz-adv-x="1193" 
d="M72 0l213 1104q22 112 94 195.5t166.5 124t195.5 40.5q153 0 241.5 -76t88.5 -192q0 -50 -17 -94.5t-44.5 -78t-60.5 -63.5t-66.5 -56t-61 -51t-44.5 -53.5t-17 -58.5q0 -36 32 -73t78 -73t92.5 -75.5t78.5 -94.5t32 -116q0 -133 -112 -228t-259 -95q-88 0 -166 16.5
t-112 32.5l-35 16l25 129q4 -3 12.5 -7.5t37 -16.5t59 -21t77 -16.5t94.5 -7.5q55 0 106.5 19.5t89.5 66t38 110.5q0 40 -23.5 78.5t-58.5 68t-76 63t-76 63.5t-58.5 70.5t-23.5 82.5q0 57 32.5 108.5t78.5 90.5t92 76.5t78.5 83t32.5 94.5q0 63 -48.5 108t-140.5 45
q-108 0 -200.5 -70.5t-116.5 -191.5l-209 -1077h-139z" />
    <glyph glyph-name="agrave" unicode="&#xe0;" horiz-adv-x="1120" 
d="M10 233q0 69 24 126t64.5 97.5t97.5 71.5t118.5 50t132.5 31.5t134 17t128 4.5h67q17 80 17 117q0 184 -211 184q-48 0 -97 -10t-86 -24t-66.5 -28t-44.5 -24l-16 -10l-43 112q7 4 19 11.5t51 26t80.5 32.5t103 25.5t121.5 11.5q154 0 242 -71.5t88 -215.5
q0 -65 -51.5 -293.5t-51.5 -267.5q0 -58 26.5 -77t70.5 -19l53 4l-23 -115q-40 -4 -77 -4q-94 0 -144 50.5t-43 150.5h-4q2 0 -14.5 -23t-48.5 -55.5t-75.5 -65t-108 -55.5t-132.5 -23q-130 0 -215.5 69t-85.5 189zM152 254q0 -71 48.5 -117.5t145.5 -46.5q69 0 136.5 36
t119 93t89 125.5t54.5 136.5l11 45h-60q-45 0 -85 -1.5t-97.5 -8t-104.5 -17.5t-96.5 -31.5t-83.5 -48.5t-55.5 -70.5t-21.5 -94.5zM600 1196l-184 244h172l153 -244h-141z" />
    <glyph glyph-name="aacute" unicode="&#xe1;" horiz-adv-x="1120" 
d="M10 233q0 69 24 126t64.5 97.5t97.5 71.5t118.5 50t132.5 31.5t134 17t128 4.5h67q17 80 17 117q0 184 -211 184q-48 0 -97 -10t-86 -24t-66.5 -28t-44.5 -24l-16 -10l-43 112q7 4 19 11.5t51 26t80.5 32.5t103 25.5t121.5 11.5q154 0 242 -71.5t88 -215.5
q0 -65 -51.5 -293.5t-51.5 -267.5q0 -58 26.5 -77t70.5 -19l53 4l-23 -115q-40 -4 -77 -4q-94 0 -144 50.5t-43 150.5h-4q2 0 -14.5 -23t-48.5 -55.5t-75.5 -65t-108 -55.5t-132.5 -23q-130 0 -215.5 69t-85.5 189zM152 254q0 -71 48.5 -117.5t145.5 -46.5q69 0 136.5 36
t119 93t89 125.5t54.5 136.5l11 45h-60q-45 0 -85 -1.5t-97.5 -8t-104.5 -17.5t-96.5 -31.5t-83.5 -48.5t-55.5 -70.5t-21.5 -94.5zM543 1196l250 244h186l-281 -244h-155z" />
    <glyph glyph-name="acircumflex" unicode="&#xe2;" horiz-adv-x="1120" 
d="M10 233q0 69 24 126t64.5 97.5t97.5 71.5t118.5 50t132.5 31.5t134 17t128 4.5h67q17 80 17 117q0 184 -211 184q-48 0 -97 -10t-86 -24t-66.5 -28t-44.5 -24l-16 -10l-43 112q7 4 19 11.5t51 26t80.5 32.5t103 25.5t121.5 11.5q154 0 242 -71.5t88 -215.5
q0 -65 -51.5 -293.5t-51.5 -267.5q0 -58 26.5 -77t70.5 -19l53 4l-23 -115q-40 -4 -77 -4q-94 0 -144 50.5t-43 150.5h-4q2 0 -14.5 -23t-48.5 -55.5t-75.5 -65t-108 -55.5t-132.5 -23q-130 0 -215.5 69t-85.5 189zM152 254q0 -71 48.5 -117.5t145.5 -46.5q69 0 136.5 36
t119 93t89 125.5t54.5 136.5l11 45h-60q-45 0 -85 -1.5t-97.5 -8t-104.5 -17.5t-96.5 -31.5t-83.5 -48.5t-55.5 -70.5t-21.5 -94.5zM385 1196l221 244h166l123 -244h-135l-78 166h-4l-143 -166h-150z" />
    <glyph glyph-name="atilde" unicode="&#xe3;" horiz-adv-x="1120" 
d="M10 233q0 69 24 126t64.5 97.5t97.5 71.5t118.5 50t132.5 31.5t134 17t128 4.5h67q17 80 17 117q0 184 -211 184q-48 0 -97 -10t-86 -24t-66.5 -28t-44.5 -24l-16 -10l-43 112q7 4 19 11.5t51 26t80.5 32.5t103 25.5t121.5 11.5q154 0 242 -71.5t88 -215.5
q0 -65 -51.5 -293.5t-51.5 -267.5q0 -58 26.5 -77t70.5 -19l53 4l-23 -115q-40 -4 -77 -4q-94 0 -144 50.5t-43 150.5h-4q2 0 -14.5 -23t-48.5 -55.5t-75.5 -65t-108 -55.5t-132.5 -23q-130 0 -215.5 69t-85.5 189zM152 254q0 -71 48.5 -117.5t145.5 -46.5q69 0 136.5 36
t119 93t89 125.5t54.5 136.5l11 45h-60q-45 0 -85 -1.5t-97.5 -8t-104.5 -17.5t-96.5 -31.5t-83.5 -48.5t-55.5 -70.5t-21.5 -94.5zM338 1202q22 116 78 178t139 62q38 0 68 -15t48 -36t33 -42t34 -36t42 -15q75 0 103 138h118q-22 -116 -78.5 -178t-138.5 -62
q-39 0 -68.5 14.5t-47.5 35t-33 41.5t-34 35.5t-42 14.5q-77 0 -102 -135h-119z" />
    <glyph glyph-name="adieresis" unicode="&#xe4;" horiz-adv-x="1120" 
d="M10 233q0 69 24 126t64.5 97.5t97.5 71.5t118.5 50t132.5 31.5t134 17t128 4.5h67q17 80 17 117q0 184 -211 184q-48 0 -97 -10t-86 -24t-66.5 -28t-44.5 -24l-16 -10l-43 112q7 4 19 11.5t51 26t80.5 32.5t103 25.5t121.5 11.5q154 0 242 -71.5t88 -215.5
q0 -65 -51.5 -293.5t-51.5 -267.5q0 -58 26.5 -77t70.5 -19l53 4l-23 -115q-40 -4 -77 -4q-94 0 -144 50.5t-43 150.5h-4q2 0 -14.5 -23t-48.5 -55.5t-75.5 -65t-108 -55.5t-132.5 -23q-130 0 -215.5 69t-85.5 189zM152 254q0 -71 48.5 -117.5t145.5 -46.5q69 0 136.5 36
t119 93t89 125.5t54.5 136.5l11 45h-60q-45 0 -85 -1.5t-97.5 -8t-104.5 -17.5t-96.5 -31.5t-83.5 -48.5t-55.5 -70.5t-21.5 -94.5zM778 1264l35 176h143l-36 -176h-142zM403 1264l35 176h142l-35 -176h-142z" />
    <glyph glyph-name="aring" unicode="&#xe5;" horiz-adv-x="1120" 
d="M10 233q0 69 24 126t64.5 97.5t97.5 71.5t118.5 50t132.5 31.5t134 17t128 4.5h67q17 80 17 117q0 184 -211 184q-48 0 -97 -10t-86 -24t-66.5 -28t-44.5 -24l-16 -10l-43 112q7 4 19 11.5t51 26t80.5 32.5t103 25.5t121.5 11.5q154 0 242 -71.5t88 -215.5
q0 -65 -51.5 -293.5t-51.5 -267.5q0 -58 26.5 -77t70.5 -19l53 4l-23 -115q-40 -4 -77 -4q-94 0 -144 50.5t-43 150.5h-4q2 0 -14.5 -23t-48.5 -55.5t-75.5 -65t-108 -55.5t-132.5 -23q-130 0 -215.5 69t-85.5 189zM152 254q0 -71 48.5 -117.5t145.5 -46.5q69 0 136.5 36
t119 93t89 125.5t54.5 136.5l11 45h-60q-45 0 -85 -1.5t-97.5 -8t-104.5 -17.5t-96.5 -31.5t-83.5 -48.5t-55.5 -70.5t-21.5 -94.5zM651 1163q-64 0 -106.5 37.5t-42.5 97.5q0 74 59 125.5t131 51.5q66 0 109 -37t43 -99q0 -73 -59.5 -124.5t-133.5 -51.5zM657 1243
q40 0 65.5 27.5t25.5 68.5q0 27 -16.5 42.5t-45.5 15.5q-35 0 -61.5 -27.5t-26.5 -69.5q0 -26 15.5 -41.5t43.5 -15.5z" />
    <glyph glyph-name="ae" unicode="&#xe6;" horiz-adv-x="1775" 
d="M14 240q0 69 22.5 125.5t60 95.5t91 69t109.5 47t122 28t122 14.5t116 3.5h113q14 79 14 122q0 94 -52.5 140.5t-164.5 46.5q-73 0 -148.5 -24t-114.5 -48l-40 -24l-43 112q6 4 18 11.5t50.5 26t78 32.5t98.5 25.5t116 11.5q275 0 315 -199h4q81 98 187 148.5t225 50.5
q185 0 281 -101t96 -274q0 -32 -7 -72t-13 -64l-7 -24h-776q-10 -45 -10 -96q0 -150 81.5 -238t233.5 -88q52 0 106 13t93.5 31t71.5 36.5t49 31.5l16 13l43 -112q-7 -6 -19.5 -15t-53 -32.5t-83 -41.5t-105 -32.5t-122.5 -14.5q-163 0 -274.5 76t-147.5 205h-4
q-9 -21 -27.5 -49.5t-57.5 -71t-86 -76.5t-118 -59t-149 -25q-132 0 -221 71t-89 194zM915 623h627q6 40 6 73q0 120 -66 181t-169 61q-132 0 -238.5 -81.5t-159.5 -233.5zM158 252q0 -69 50.5 -114.5t145.5 -45.5q93 0 177.5 60.5t137 146.5t72.5 178l11 41h-121
q-49 0 -94 -3.5t-102.5 -12t-103.5 -27.5t-87 -47t-63.5 -73t-22.5 -103z" />
    <glyph glyph-name="ccedilla" unicode="&#xe7;" horiz-adv-x="1134" 
d="M373 -193l76 177q-173 27 -275 142.5t-102 297.5q0 171 90.5 317t240.5 230t320 84q57 0 117 -12.5t116 -38t87 -72t20 -105.5l-21 -108h-129l15 76q7 45 -29 77t-87.5 45t-106.5 13q-89 0 -177.5 -39t-157.5 -104t-112 -159t-43 -196q0 -153 93.5 -242.5t246.5 -89.5
q60 0 119.5 15t101.5 36t75.5 42t50.5 36l16 15l45 -115q-6 -6 -18.5 -16.5t-53.5 -37t-86 -47t-116 -37t-144 -16.5h-8l-39 -94q56 -8 92.5 -43t36.5 -92q0 -59 -38.5 -100.5t-90 -58.5t-107.5 -17q-28 0 -54.5 3t-38.5 6l-13 3l20 90q33 -10 82 -10t87 19t38 63
q0 29 -30 46t-81 17h-28z" />
    <glyph glyph-name="egrave" unicode="&#xe8;" horiz-adv-x="1132" 
d="M72 410q0 100 29 196t83 176.5t127 142t167 96t196 34.5q183 0 276.5 -102t93.5 -271q0 -36 -7 -78t-14 -66l-7 -24h-791q-10 -43 -10 -94q0 -140 86.5 -230t243.5 -90q52 0 106 13t94 31t72 36.5t49 31.5l17 13l43 -114q-7 -6 -19.5 -15t-54 -32.5t-84 -41.5
t-105.5 -32.5t-124 -14.5q-212 0 -339.5 119.5t-127.5 315.5zM250 616h645q8 37 8 78q0 119 -64.5 181.5t-170.5 62.5q-133 0 -248.5 -85t-169.5 -237zM676 1196l-184 244h172l153 -244h-141z" />
    <glyph glyph-name="eacute" unicode="&#xe9;" horiz-adv-x="1132" 
d="M618 1196l250 244h187l-281 -244h-156zM72 410q0 100 29 196t83 176.5t127 142t167 96t196 34.5q183 0 276.5 -102t93.5 -271q0 -36 -7 -78t-14 -66l-7 -24h-791q-10 -43 -10 -94q0 -140 86.5 -230t243.5 -90q52 0 106 13t94 31t72 36.5t49 31.5l17 13l43 -114
q-7 -6 -19.5 -15t-54 -32.5t-84 -41.5t-105.5 -32.5t-124 -14.5q-212 0 -339.5 119.5t-127.5 315.5zM250 616h645q8 37 8 78q0 119 -64.5 181.5t-170.5 62.5q-133 0 -248.5 -85t-169.5 -237z" />
    <glyph glyph-name="ecircumflex" unicode="&#xea;" horiz-adv-x="1132" 
d="M459 1196l221 244h166l123 -244h-135l-78 166h-4l-144 -166h-149zM72 410q0 100 29 196t83 176.5t127 142t167 96t196 34.5q183 0 276.5 -102t93.5 -271q0 -36 -7 -78t-14 -66l-7 -24h-791q-10 -43 -10 -94q0 -140 86.5 -230t243.5 -90q52 0 106 13t94 31t72 36.5
t49 31.5l17 13l43 -114q-7 -6 -19.5 -15t-54 -32.5t-84 -41.5t-105.5 -32.5t-124 -14.5q-212 0 -339.5 119.5t-127.5 315.5zM250 616h645q8 37 8 78q0 119 -64.5 181.5t-170.5 62.5q-133 0 -248.5 -85t-169.5 -237z" />
    <glyph glyph-name="edieresis" unicode="&#xeb;" horiz-adv-x="1132" 
d="M854 1264l35 176h143l-37 -176h-141zM479 1264l35 176h141l-34 -176h-142zM72 410q0 100 29 196t83 176.5t127 142t167 96t196 34.5q183 0 276.5 -102t93.5 -271q0 -36 -7 -78t-14 -66l-7 -24h-791q-10 -43 -10 -94q0 -140 86.5 -230t243.5 -90q52 0 106 13t94 31
t72 36.5t49 31.5l17 13l43 -114q-7 -6 -19.5 -15t-54 -32.5t-84 -41.5t-105.5 -32.5t-124 -14.5q-212 0 -339.5 119.5t-127.5 315.5zM250 616h645q8 37 8 78q0 119 -64.5 181.5t-170.5 62.5q-133 0 -248.5 -85t-169.5 -237z" />
    <glyph glyph-name="igrave" unicode="&#xec;" horiz-adv-x="606" 
d="M152 176q0 18 8 76l131 663h-185l23 115h324l-152 -764q-6 -35 -6 -59q0 -58 26 -77t72 -19l51 4l-22 -115q-43 -4 -72 -4q-198 0 -198 180zM369 1196l-185 244h172l154 -244h-141z" />
    <glyph glyph-name="iacute" unicode="&#xed;" horiz-adv-x="606" 
d="M309 1196l250 244h186l-280 -244h-156zM152 176q0 18 8 76l131 663h-185l23 115h324l-152 -764q-6 -35 -6 -59q0 -58 26 -77t72 -19l51 4l-22 -115q-43 -4 -72 -4q-198 0 -198 180z" />
    <glyph glyph-name="icircumflex" unicode="&#xee;" horiz-adv-x="606" 
d="M152 1196l221 244h166l123 -244h-136l-77 166h-5l-143 -166h-149zM152 176q0 18 8 76l131 663h-185l23 115h324l-152 -764q-6 -35 -6 -59q0 -58 26 -77t72 -19l51 4l-22 -115q-43 -4 -72 -4q-198 0 -198 180z" />
    <glyph glyph-name="idieresis" unicode="&#xef;" horiz-adv-x="606" 
d="M152 176q0 18 8 76l131 663h-185l23 115h324l-152 -764q-6 -35 -6 -59q0 -58 26 -77t72 -19l51 4l-22 -115q-43 -4 -72 -4q-198 0 -198 180zM518 1264l37 176h141l-34 -176h-144zM195 1264l36 176h142l-35 -176h-143z" />
    <glyph glyph-name="eth" unicode="&#xf0;" horiz-adv-x="1214" 
d="M70 383q0 103 39.5 204.5t111.5 184t184 133.5t244 51q57 0 108 -12t82.5 -29.5t55 -35t33.5 -29.5l10 -12h4q-33 206 -194 338l-390 -162l-10 92l311 131q-124 71 -276 113l59 108q220 -61 363 -162l299 123l12 -92l-233 -96q211 -201 211 -508q0 -63 -11 -132
t-34.5 -142t-58 -141t-85 -129t-111.5 -106t-141 -71.5t-170 -26.5q-134 0 -229.5 57t-139.5 147.5t-44 203.5zM213 387q0 -123 70 -205t200 -82q78 0 150.5 32t125.5 84t93 117t60 133t20 130q0 109 -75.5 175.5t-205.5 66.5q-120 0 -221 -61.5t-159 -165.5t-58 -224z" />
    <glyph glyph-name="ntilde" unicode="&#xf1;" horiz-adv-x="1339" 
d="M123 0l170 870q7 45 -37 45h-139l22 115h197q56 0 80 -21t24 -63q0 -21 -11 -78t-23 -86h4q17 37 54.5 80.5t93.5 88.5t138.5 74.5t171.5 29.5q135 0 208 -68.5t73 -195.5q0 -69 -48 -309t-48 -275q0 -59 26 -77.5t72 -18.5l51 4l-22 -115q-41 -4 -76 -4q-34 0 -63 6
t-62 23t-52.5 54.5t-19.5 92.5q0 43 48.5 281.5t48.5 298.5q0 172 -179 172q-163 0 -300 -133.5t-171 -317.5l-92 -473h-139zM510 1202q22 116 78 178t139 62q38 0 68 -15t48 -36t33 -42t34 -36t42 -15q75 0 103 138h119q-22 -116 -79 -178t-139 -62q-38 0 -68 14.5t-48 35
t-33 41.5t-34 35.5t-42 14.5q-77 0 -102 -135h-119z" />
    <glyph glyph-name="ograve" unicode="&#xf2;" horiz-adv-x="1277" 
d="M70 426q0 129 54 246.5t143 200.5t206.5 132.5t241.5 49.5q202 0 330.5 -125t128.5 -320q0 -173 -92.5 -320.5t-241 -231t-312.5 -83.5q-203 0 -330.5 126t-127.5 325zM213 430q0 -145 91 -237.5t237 -92.5q121 0 233 66t184 183.5t72 254.5q0 143 -92 234.5t-238 91.5
q-123 0 -235 -66t-182 -182.5t-70 -251.5zM709 1196l-185 244h172l154 -244h-141z" />
    <glyph glyph-name="oacute" unicode="&#xf3;" horiz-adv-x="1277" 
d="M651 1196l250 244h186l-280 -244h-156zM70 426q0 129 54 246.5t143 200.5t206.5 132.5t241.5 49.5q202 0 330.5 -125t128.5 -320q0 -173 -92.5 -320.5t-241 -231t-312.5 -83.5q-203 0 -330.5 126t-127.5 325zM213 430q0 -145 91 -237.5t237 -92.5q121 0 233 66t184 183.5
t72 254.5q0 143 -92 234.5t-238 91.5q-123 0 -235 -66t-182 -182.5t-70 -251.5z" />
    <glyph glyph-name="ocircumflex" unicode="&#xf4;" horiz-adv-x="1277" 
d="M492 1196l221 244h166l122 -244h-135l-78 166h-4l-143 -166h-149zM70 426q0 129 54 246.5t143 200.5t206.5 132.5t241.5 49.5q202 0 330.5 -125t128.5 -320q0 -173 -92.5 -320.5t-241 -231t-312.5 -83.5q-203 0 -330.5 126t-127.5 325zM213 430q0 -145 91 -237.5
t237 -92.5q121 0 233 66t184 183.5t72 254.5q0 143 -92 234.5t-238 91.5q-123 0 -235 -66t-182 -182.5t-70 -251.5z" />
    <glyph glyph-name="otilde" unicode="&#xf5;" horiz-adv-x="1277" 
d="M70 426q0 129 54 246.5t143 200.5t206.5 132.5t241.5 49.5q202 0 330.5 -125t128.5 -320q0 -173 -92.5 -320.5t-241 -231t-312.5 -83.5q-203 0 -330.5 126t-127.5 325zM213 430q0 -145 91 -237.5t237 -92.5q121 0 233 66t184 183.5t72 254.5q0 143 -92 234.5t-238 91.5
q-123 0 -235 -66t-182 -182.5t-70 -251.5zM446 1202q22 116 78.5 178t139.5 62q38 0 68 -15t48 -36t33 -42t34 -36t42 -15q74 0 102 138h119q-22 -116 -78.5 -178t-138.5 -62q-39 0 -68.5 14.5t-47.5 35t-33 41.5t-34 35.5t-42 14.5q-44 0 -68.5 -41t-34.5 -94h-119z" />
    <glyph glyph-name="odieresis" unicode="&#xf6;" horiz-adv-x="1277" 
d="M885 1264l35 176h143l-37 -176h-141zM510 1264l35 176h141l-35 -176h-141zM70 426q0 129 54 246.5t143 200.5t206.5 132.5t241.5 49.5q202 0 330.5 -125t128.5 -320q0 -173 -92.5 -320.5t-241 -231t-312.5 -83.5q-203 0 -330.5 126t-127.5 325zM213 430q0 -145 91 -237.5
t237 -92.5q121 0 233 66t184 183.5t72 254.5q0 143 -92 234.5t-238 91.5q-123 0 -235 -66t-182 -182.5t-70 -251.5z" />
    <glyph glyph-name="divide" unicode="&#xf7;" horiz-adv-x="1241" 
d="M541 887v151h151v-151h-151zM115 522v119h1003v-119h-1003zM541 125v151h151v-151h-151z" />
    <glyph glyph-name="oslash" unicode="&#xf8;" horiz-adv-x="1282" 
d="M98 -4l101 110q-125 128 -125 320q0 128 54 246t141.5 201t203 132.5t234.5 49.5q164 0 286 -82l107 114l67 -61l-106 -117q117 -131 117 -299q0 -130 -54.5 -249t-143 -202.5t-203 -133.5t-232.5 -50q-153 0 -275 74l-106 -115zM295 211l606 659q-91 60 -196 60
q-123 0 -235.5 -66t-182.5 -182.5t-70 -251.5q0 -128 78 -219zM362 150q84 -50 183 -50q121 0 233 66t184 183.5t72 254.5q0 109 -71 201z" />
    <glyph glyph-name="ugrave" unicode="&#xf9;" horiz-adv-x="1329" 
d="M156 240q0 59 16 137l102 538h-182l21 115h323l-119 -614q-18 -95 -18 -144q0 -81 40.5 -124.5t139.5 -43.5q83 0 162.5 40t139.5 104.5t102.5 145t58.5 163.5l68 358h-183l23 115h324l-150 -764q-6 -35 -6 -59q0 -58 26 -77t72 -19l51 4l-22 -115q-45 -4 -78 -4
q-109 0 -154 65.5t-24 174.5h-4q-19 -33 -46 -66t-69 -69t-89.5 -63t-111 -45t-131.5 -18q-124 0 -203 64.5t-79 200.5zM688 1196l-184 244h172l153 -244h-141z" />
    <glyph glyph-name="uacute" unicode="&#xfa;" horiz-adv-x="1329" 
d="M631 1196l250 244h186l-281 -244h-155zM156 240q0 59 16 137l102 538h-182l21 115h323l-119 -614q-18 -95 -18 -144q0 -81 40.5 -124.5t139.5 -43.5q83 0 162.5 40t139.5 104.5t102.5 145t58.5 163.5l68 358h-183l23 115h324l-150 -764q-6 -35 -6 -59q0 -58 26 -77
t72 -19l51 4l-22 -115q-45 -4 -78 -4q-109 0 -154 65.5t-24 174.5h-4q-19 -33 -46 -66t-69 -69t-89.5 -63t-111 -45t-131.5 -18q-124 0 -203 64.5t-79 200.5z" />
    <glyph glyph-name="ucircumflex" unicode="&#xfb;" horiz-adv-x="1329" 
d="M471 1196l221 244h166l123 -244h-135l-78 166h-4l-143 -166h-150zM156 240q0 59 16 137l102 538h-182l21 115h323l-119 -614q-18 -95 -18 -144q0 -81 40.5 -124.5t139.5 -43.5q83 0 162.5 40t139.5 104.5t102.5 145t58.5 163.5l68 358h-183l23 115h324l-150 -764
q-6 -35 -6 -59q0 -58 26 -77t72 -19l51 4l-22 -115q-45 -4 -78 -4q-109 0 -154 65.5t-24 174.5h-4q-19 -33 -46 -66t-69 -69t-89.5 -63t-111 -45t-131.5 -18q-124 0 -203 64.5t-79 200.5z" />
    <glyph glyph-name="udieresis" unicode="&#xfc;" horiz-adv-x="1329" 
d="M864 1264l35 176h143l-36 -176h-142zM489 1264l35 176h142l-35 -176h-142zM156 240q0 59 16 137l102 538h-182l21 115h323l-119 -614q-18 -95 -18 -144q0 -81 40.5 -124.5t139.5 -43.5q83 0 162.5 40t139.5 104.5t102.5 145t58.5 163.5l68 358h-183l23 115h324l-150 -764
q-6 -35 -6 -59q0 -58 26 -77t72 -19l51 4l-22 -115q-45 -4 -78 -4q-109 0 -154 65.5t-24 174.5h-4q-19 -33 -46 -66t-69 -69t-89.5 -63t-111 -45t-131.5 -18q-124 0 -203 64.5t-79 200.5z" />
    <glyph glyph-name="yacute" unicode="&#xfd;" horiz-adv-x="1181" 
d="M-37 -264q6 -5 16 -12t43 -19t68 -12q66 0 125 45.5t104 118.5l84 137l-188 921h-135l22 115h426l-22 -115h-150l133 -702l5 -74h4q14 35 37 74l405 702h-149l22 115h432l-22 -115h-136l-653 -1105q-143 -240 -348 -240q-56 0 -104 15t-68 31l-20 15zM608 1196l250 244
h186l-280 -244h-156z" />
    <glyph glyph-name="thorn" unicode="&#xfe;" horiz-adv-x="1230" 
d="M-8 -410l336 1735h-176l22 115h315l-98 -504q-3 -19 -8.5 -40.5t-9.5 -33.5l-4 -12h4q57 87 153.5 146t216.5 59q181 0 281 -110.5t100 -303.5q0 -143 -47 -269t-124.5 -212t-178.5 -135.5t-207 -49.5q-115 0 -202 53t-121 154h-4q-3 -45 -13 -98l-98 -494h-137zM297 397
q0 -129 66 -213t192 -84q76 0 151 37t136 103t99 168.5t38 222.5q0 138 -68.5 217.5t-189.5 79.5q-91 0 -172 -47t-135 -123t-85.5 -171t-31.5 -190z" />
    <glyph glyph-name="ydieresis" unicode="&#xff;" horiz-adv-x="1181" 
d="M-37 -264q6 -5 16 -12t43 -19t68 -12q66 0 125 45.5t104 118.5l84 137l-188 921h-135l22 115h426l-22 -115h-150l133 -702l5 -74h4q14 35 37 74l405 702h-149l22 115h432l-22 -115h-136l-653 -1105q-143 -240 -348 -240q-56 0 -104 15t-68 31l-20 15zM844 1264l35 176
h143l-37 -176h-141zM469 1264l35 176h141l-35 -176h-141z" />
    <glyph glyph-name="Amacron" unicode="&#x100;" horiz-adv-x="1464" 
d="M-94 0l22 119h146l741 1321h160l227 -1321h146l-23 -119h-455l23 119h166l-64 370h-561l-207 -370h164l-24 -119h-461zM498 610h481l-98 590q-4 21 -6 44t-3 36v12h-4q-14 -45 -39 -92zM676 1608l20 112h506l-20 -112h-506z" />
    <glyph glyph-name="amacron" unicode="&#x101;" horiz-adv-x="1120" 
d="M10 233q0 69 24 126t64.5 97.5t97.5 71.5t118.5 50t132.5 31.5t134 17t128 4.5h67q17 80 17 117q0 184 -211 184q-48 0 -97 -10t-86 -24t-66.5 -28t-44.5 -24l-16 -10l-43 112q7 4 19 11.5t51 26t80.5 32.5t103 25.5t121.5 11.5q154 0 242 -71.5t88 -215.5
q0 -65 -51.5 -293.5t-51.5 -267.5q0 -58 26.5 -77t70.5 -19l53 4l-23 -115q-40 -4 -77 -4q-94 0 -144 50.5t-43 150.5h-4q2 0 -14.5 -23t-48.5 -55.5t-75.5 -65t-108 -55.5t-132.5 -23q-130 0 -215.5 69t-85.5 189zM152 254q0 -71 48.5 -117.5t145.5 -46.5q69 0 136.5 36
t119 93t89 125.5t54.5 136.5l11 45h-60q-45 0 -85 -1.5t-97.5 -8t-104.5 -17.5t-96.5 -31.5t-83.5 -48.5t-55.5 -70.5t-21.5 -94.5zM408 1264l20 112h506l-21 -112h-505z" />
    <glyph glyph-name="Abreve" unicode="&#x102;" horiz-adv-x="1464" 
d="M-94 0l22 119h146l741 1321h160l227 -1321h146l-23 -119h-455l23 119h166l-64 370h-561l-207 -370h164l-24 -119h-461zM498 610h481l-98 590q-4 21 -6 44t-3 36v12h-4q-14 -45 -39 -92zM924 1534q-101 0 -164.5 61t-42.5 158l6 31h117l-6 -27q-11 -64 17 -95.5t81 -31.5
q52 0 94 32t53 95l6 27h117l-6 -31q-19 -110 -94.5 -164.5t-177.5 -54.5z" />
    <glyph glyph-name="abreve" unicode="&#x103;" horiz-adv-x="1120" 
d="M10 233q0 69 24 126t64.5 97.5t97.5 71.5t118.5 50t132.5 31.5t134 17t128 4.5h67q17 80 17 117q0 184 -211 184q-48 0 -97 -10t-86 -24t-66.5 -28t-44.5 -24l-16 -10l-43 112q7 4 19 11.5t51 26t80.5 32.5t103 25.5t121.5 11.5q154 0 242 -71.5t88 -215.5
q0 -65 -51.5 -293.5t-51.5 -267.5q0 -58 26.5 -77t70.5 -19l53 4l-23 -115q-40 -4 -77 -4q-94 0 -144 50.5t-43 150.5h-4q2 0 -14.5 -23t-48.5 -55.5t-75.5 -65t-108 -55.5t-132.5 -23q-130 0 -215.5 69t-85.5 189zM152 254q0 -71 48.5 -117.5t145.5 -46.5q69 0 136.5 36
t119 93t89 125.5t54.5 136.5l11 45h-60q-45 0 -85 -1.5t-97.5 -8t-104.5 -17.5t-96.5 -31.5t-83.5 -48.5t-55.5 -70.5t-21.5 -94.5zM655 1190q-100 0 -163.5 61t-42.5 158l6 31h116l-6 -27q-11 -64 17.5 -95.5t81.5 -31.5q52 0 94 32t53 95l6 27h117l-6 -31
q-19 -110 -95 -164.5t-178 -54.5z" />
    <glyph glyph-name="Aogonek" unicode="&#x104;" horiz-adv-x="1464" 
d="M973 -264q0 142 182 264h-285l23 119h166l-64 370h-561l-207 -370h164l-24 -119h-461l22 119h146l741 1321h160l227 -1321h146l-23 -119h-10q-19 0 -70 -36t-98 -94.5t-47 -105.5q0 -27 15 -46.5t36.5 -28t37.5 -12t25 -3.5l-49 -108q-15 2 -34 6.5t-48.5 17t-52.5 30
t-40 48t-17 68.5zM498 610h481l-98 590q-4 21 -6 44t-3 36v12h-4q-14 -45 -39 -92z" />
    <glyph glyph-name="aogonek" unicode="&#x105;" horiz-adv-x="1120" 
d="M608 -264q0 145 191 268q-57 17 -84.5 67t-20.5 126h-4q2 0 -14.5 -23t-48.5 -55.5t-75.5 -65t-108 -55.5t-132.5 -23q-130 0 -215.5 69t-85.5 189q0 69 24 126t64.5 97.5t97.5 71.5t118.5 50t132.5 31.5t134 17t128 4.5h67q17 80 17 117q0 184 -211 184q-48 0 -97 -10
t-86 -24t-66.5 -28t-44.5 -24l-16 -10l-43 112q7 4 19 11.5t51 26t80.5 32.5t103 25.5t121.5 11.5q154 0 242 -71.5t88 -215.5q0 -65 -51.5 -293.5t-51.5 -267.5q0 -58 26.5 -77t70.5 -19l53 4l-23 -115q-10 0 -18 -2q-49 -16 -127 -93t-78 -141q0 -27 15 -46.5t37 -28
t38 -12t25 -3.5l-49 -108q-15 2 -34 6.5t-48.5 17t-53 30t-40.5 48t-17 68.5zM152 254q0 -71 48.5 -117.5t145.5 -46.5q69 0 136.5 36t119 93t89 125.5t54.5 136.5l11 45h-60q-45 0 -85 -1.5t-97.5 -8t-104.5 -17.5t-96.5 -31.5t-83.5 -48.5t-55.5 -70.5t-21.5 -94.5z" />
    <glyph glyph-name="Cacute" unicode="&#x106;" horiz-adv-x="1521" 
d="M897 1540l250 244h186l-280 -244h-156zM129 600q0 175 72 336t191 276t278 183.5t327 68.5q57 0 120.5 -6.5t138.5 -26t130.5 -49t87.5 -82t19 -118.5l-31 -158h-137l23 119q10 53 -22.5 92.5t-92 60t-120.5 30t-120 9.5q-142 0 -274 -59t-229 -156.5t-155.5 -231.5
t-58.5 -278q0 -225 132 -365.5t352 -140.5q63 0 132.5 11.5t137 34t115 62.5t57.5 89l23 113h137l-29 -152q-15 -74 -77.5 -132t-149.5 -90.5t-176 -48.5t-172 -16q-286 0 -457.5 173.5t-171.5 451.5z" />
    <glyph glyph-name="cacute" unicode="&#x107;" horiz-adv-x="1134" 
d="M623 1196l249 244h187l-281 -244h-155zM72 424q0 171 90.5 317t240 230t318.5 84q57 0 117 -12.5t117 -38t88 -72t20 -105.5l-21 -108h-129l15 76q7 45 -29 77t-87.5 45t-106.5 13q-89 0 -177.5 -39t-157.5 -104t-112 -159t-43 -196q0 -153 93.5 -242.5t246.5 -89.5
q60 0 119.5 15t101.5 36t75.5 42t50.5 36l16 15l45 -115q-6 -6 -18.5 -16.5t-53.5 -37t-86 -47t-116 -37t-144 -16.5q-213 0 -343 122t-130 327z" />
    <glyph glyph-name="Ccircumflex" unicode="&#x108;" horiz-adv-x="1521" 
d="M737 1540l221 244h166l123 -244h-135l-78 166h-4l-143 -166h-150zM129 600q0 175 72 336t191 276t278 183.5t327 68.5q57 0 120.5 -6.5t138.5 -26t130.5 -49t87.5 -82t19 -118.5l-31 -158h-137l23 119q10 53 -22.5 92.5t-92 60t-120.5 30t-120 9.5q-142 0 -274 -59
t-229 -156.5t-155.5 -231.5t-58.5 -278q0 -225 132 -365.5t352 -140.5q63 0 132.5 11.5t137 34t115 62.5t57.5 89l23 113h137l-29 -152q-15 -74 -77.5 -132t-149.5 -90.5t-176 -48.5t-172 -16q-286 0 -457.5 173.5t-171.5 451.5z" />
    <glyph glyph-name="ccircumflex" unicode="&#x109;" horiz-adv-x="1134" 
d="M465 1196l221 244h166l123 -244h-135l-78 166h-4l-144 -166h-149zM72 424q0 171 90.5 317t240 230t318.5 84q57 0 117 -12.5t117 -38t88 -72t20 -105.5l-21 -108h-129l15 76q7 45 -29 77t-87.5 45t-106.5 13q-89 0 -177.5 -39t-157.5 -104t-112 -159t-43 -196
q0 -153 93.5 -242.5t246.5 -89.5q60 0 119.5 15t101.5 36t75.5 42t50.5 36l16 15l45 -115q-6 -6 -18.5 -16.5t-53.5 -37t-86 -47t-116 -37t-144 -16.5q-213 0 -343 122t-130 327z" />
    <glyph glyph-name="Cdotaccent" unicode="&#x10a;" horiz-adv-x="1521" 
d="M129 600q0 175 72 336t191 276t278 183.5t327 68.5q57 0 120.5 -6.5t138.5 -26t130.5 -49t87.5 -82t19 -118.5l-31 -158h-137l23 119q10 53 -22.5 92.5t-92 60t-120.5 30t-120 9.5q-142 0 -274 -59t-229 -156.5t-155.5 -231.5t-58.5 -278q0 -225 132 -365.5t352 -140.5
q63 0 132.5 11.5t137 34t115 62.5t57.5 89l23 113h137l-29 -152q-15 -74 -77.5 -132t-149.5 -90.5t-176 -48.5t-172 -16q-286 0 -457.5 173.5t-171.5 451.5zM942 1610l35 174h145l-32 -174h-148z" />
    <glyph glyph-name="cdotaccent" unicode="&#x10b;" horiz-adv-x="1134" 
d="M72 424q0 171 90.5 317t240 230t318.5 84q57 0 117 -12.5t117 -38t88 -72t20 -105.5l-21 -108h-129l15 76q7 45 -29 77t-87.5 45t-106.5 13q-89 0 -177.5 -39t-157.5 -104t-112 -159t-43 -196q0 -153 93.5 -242.5t246.5 -89.5q60 0 119.5 15t101.5 36t75.5 42t50.5 36
l16 15l45 -115q-6 -6 -18.5 -16.5t-53.5 -37t-86 -47t-116 -37t-144 -16.5q-213 0 -343 122t-130 327zM668 1266l34 174h146l-33 -174h-147z" />
    <glyph glyph-name="Ccaron" unicode="&#x10c;" horiz-adv-x="1521" 
d="M924 1540l-123 244h135l78 -164h4l143 164h150l-221 -244h-166zM129 600q0 175 72 336t191 276t278 183.5t327 68.5q57 0 120.5 -6.5t138.5 -26t130.5 -49t87.5 -82t19 -118.5l-31 -158h-137l23 119q10 53 -22.5 92.5t-92 60t-120.5 30t-120 9.5q-142 0 -274 -59
t-229 -156.5t-155.5 -231.5t-58.5 -278q0 -225 132 -365.5t352 -140.5q63 0 132.5 11.5t137 34t115 62.5t57.5 89l23 113h137l-29 -152q-15 -74 -77.5 -132t-149.5 -90.5t-176 -48.5t-172 -16q-286 0 -457.5 173.5t-171.5 451.5z" />
    <glyph glyph-name="ccaron" unicode="&#x10d;" horiz-adv-x="1134" 
d="M651 1196l-123 244h136l77 -164h4l144 164h149l-221 -244h-166zM72 424q0 171 90.5 317t240 230t318.5 84q57 0 117 -12.5t117 -38t88 -72t20 -105.5l-21 -108h-129l15 76q7 45 -29 77t-87.5 45t-106.5 13q-89 0 -177.5 -39t-157.5 -104t-112 -159t-43 -196
q0 -153 93.5 -242.5t246.5 -89.5q60 0 119.5 15t101.5 36t75.5 42t50.5 36l16 15l45 -115q-6 -6 -18.5 -16.5t-53.5 -37t-86 -47t-116 -37t-144 -16.5q-213 0 -343 122t-130 327z" />
    <glyph glyph-name="Dcaron" unicode="&#x10e;" horiz-adv-x="1595" 
d="M840 1540l-123 244h135l78 -164h4l143 164h150l-221 -244h-166zM-2 0l22 119h187l233 1202h-186l22 119h592q190 0 324 -49q156 -60 237.5 -191t81.5 -328q0 -166 -57.5 -322t-165.5 -279t-250 -189q-171 -82 -397 -82h-643zM350 123h275q205 0 352 72q175 90 282 271.5
t107 393.5q0 155 -61 259.5t-175 152.5q-106 45 -274 45h-272z" />
    <glyph glyph-name="dcaron" unicode="&#x10f;" horiz-adv-x="1280" 
d="M1339 1440h134q2 -10 2 -43q0 -81 -46.5 -155t-125.5 -120l-60 60q103 93 103 198q0 20 -7 60zM74 389q0 143 47 269t124.5 212t180 135.5t211.5 49.5q112 0 198 -53t119 -154h4q3 43 9 86l75 391h-184l25 115h323l-229 -1174q-6 -35 -6 -59q0 -58 26 -77t72 -19l51 4
l-22 -115q-43 -4 -74 -4q-97 0 -148 51t-38 148h-4q-57 -93 -158 -156.5t-221 -63.5q-182 0 -281.5 110.5t-99.5 303.5zM217 397q0 -139 69 -218t191 -79t221.5 82t151 204t51.5 251q0 128 -65.5 209.5t-192.5 81.5q-76 0 -151 -37t-136.5 -103t-100 -168.5t-38.5 -222.5z
" />
    <glyph glyph-name="Dcroat" unicode="&#x110;" horiz-adv-x="1611" 
d="M-2 0l22 119h187l106 543h-159l22 122h160l106 537h-188l22 119h625q294 0 460.5 -146.5t166.5 -412.5q0 -180 -63.5 -341.5t-174.5 -280.5t-271.5 -189t-344.5 -70h-676zM350 123h307q206 0 371.5 98t258.5 269t93 382q0 213 -129.5 329t-359.5 116h-305l-107 -533h348
l-24 -122h-346z" />
    <glyph glyph-name="dcroat" unicode="&#x111;" horiz-adv-x="1277" 
d="M74 389q0 143 47 269t124.5 212t180 135.5t211.5 49.5q112 0 198 -53t119 -154h4q3 43 9 86l45 227h-312l21 105h311l35 174h139l-35 -174h162l-18 -105h-164l-174 -895q-6 -35 -6 -59q0 -58 26 -77t72 -19l51 4l-22 -115q-43 -4 -74 -4q-97 0 -148 51t-38 148h-4
q-57 -93 -158 -156.5t-221 -63.5q-182 0 -281.5 110.5t-99.5 303.5zM217 397q0 -139 69 -218t191 -79t221.5 82t151 204t51.5 251q0 128 -65.5 209.5t-192.5 81.5q-76 0 -151 -37t-136.5 -103t-100 -168.5t-38.5 -222.5z" />
    <glyph glyph-name="Emacron" unicode="&#x112;" horiz-adv-x="1284" 
d="M-4 0l24 119h187l233 1202h-188l24 119h1016l-59 -299h-129l35 176h-555l-103 -531h543l-25 -122h-542l-107 -541h594l37 186h129l-61 -309h-1053zM600 1608l21 112h505l-20 -112h-506z" />
    <glyph glyph-name="emacron" unicode="&#x113;" horiz-adv-x="1132" 
d="M72 410q0 100 29 196t83 176.5t127 142t167 96t196 34.5q183 0 276.5 -102t93.5 -271q0 -36 -7 -78t-14 -66l-7 -24h-791q-10 -43 -10 -94q0 -140 86.5 -230t243.5 -90q52 0 106 13t94 31t72 36.5t49 31.5l17 13l43 -114q-7 -6 -19.5 -15t-54 -32.5t-84 -41.5
t-105.5 -32.5t-124 -14.5q-212 0 -339.5 119.5t-127.5 315.5zM250 616h645q8 37 8 78q0 119 -64.5 181.5t-170.5 62.5q-133 0 -248.5 -85t-169.5 -237zM483 1264l21 112h506l-21 -112h-506z" />
    <glyph glyph-name="Ebreve" unicode="&#x114;" horiz-adv-x="1284" 
d="M-4 0l24 119h187l233 1202h-188l24 119h1016l-59 -299h-129l35 176h-555l-103 -531h543l-25 -122h-542l-107 -541h594l37 186h129l-61 -309h-1053zM848 1534q-101 0 -164.5 61t-42.5 158l6 31h117l-6 -27q-11 -64 17 -95.5t81 -31.5q52 0 94.5 32t53.5 95l6 27h116
l-6 -31q-19 -110 -94.5 -164.5t-177.5 -54.5z" />
    <glyph glyph-name="ebreve" unicode="&#x115;" horiz-adv-x="1132" 
d="M72 410q0 100 29 196t83 176.5t127 142t167 96t196 34.5q183 0 276.5 -102t93.5 -271q0 -36 -7 -78t-14 -66l-7 -24h-791q-10 -43 -10 -94q0 -140 86.5 -230t243.5 -90q52 0 106 13t94 31t72 36.5t49 31.5l17 13l43 -114q-7 -6 -19.5 -15t-54 -32.5t-84 -41.5
t-105.5 -32.5t-124 -14.5q-212 0 -339.5 119.5t-127.5 315.5zM250 616h645q8 37 8 78q0 119 -64.5 181.5t-170.5 62.5q-133 0 -248.5 -85t-169.5 -237zM731 1190q-101 0 -164.5 61t-42.5 158l6 31h117l-6 -27q-11 -64 17 -95.5t81 -31.5q52 0 94.5 32t53.5 95l6 27h117
l-6 -31q-19 -110 -95 -164.5t-178 -54.5z" />
    <glyph glyph-name="Edotaccent" unicode="&#x116;" horiz-adv-x="1284" 
d="M-4 0l24 119h187l233 1202h-188l24 119h1016l-59 -299h-129l35 176h-555l-103 -531h543l-25 -122h-542l-107 -541h594l37 186h129l-61 -309h-1053zM778 1610l35 174h145l-32 -174h-148z" />
    <glyph glyph-name="edotaccent" unicode="&#x117;" horiz-adv-x="1132" 
d="M72 410q0 100 29 196t83 176.5t127 142t167 96t196 34.5q183 0 276.5 -102t93.5 -271q0 -36 -7 -78t-14 -66l-7 -24h-791q-10 -43 -10 -94q0 -140 86.5 -230t243.5 -90q52 0 106 13t94 31t72 36.5t49 31.5l17 13l43 -114q-7 -6 -19.5 -15t-54 -32.5t-84 -41.5
t-105.5 -32.5t-124 -14.5q-212 0 -339.5 119.5t-127.5 315.5zM250 616h645q8 37 8 78q0 119 -64.5 181.5t-170.5 62.5q-133 0 -248.5 -85t-169.5 -237zM664 1266l34 174h146l-33 -174h-147z" />
    <glyph glyph-name="Eogonek" unicode="&#x118;" horiz-adv-x="1284" 
d="M-4 0l24 119h187l233 1202h-188l24 119h1016l-59 -299h-129l35 176h-555l-103 -531h543l-25 -122h-542l-107 -541h594l37 186h129l-61 -309h-11q-19 0 -70 -36.5t-98 -94.5t-47 -105q0 -27 15.5 -46.5t37.5 -28t37.5 -12t24.5 -3.5l-49 -108q-14 2 -33 6.5t-49 17t-53 30
t-40.5 48t-17.5 68.5q0 141 183 264h-883z" />
    <glyph glyph-name="eogonek" unicode="&#x119;" horiz-adv-x="1132" 
d="M72 410q0 125 45.5 242.5t123.5 206.5t190.5 142.5t238.5 53.5q185 0 279.5 -102t94.5 -271q0 -36 -7 -78t-14 -66l-7 -24h-791q-10 -43 -10 -94q0 -140 86.5 -230t243.5 -90q52 0 106 13t94 31t72 36.5t49 31.5l17 13l43 -114q-82 -60 -197 -107q-23 -10 -55 -32
t-67.5 -53.5t-60 -73t-24.5 -81.5q0 -27 15.5 -46.5t37.5 -28t37.5 -12t24.5 -3.5l-49 -108q-14 2 -33 6.5t-49 17t-53 30t-40.5 48t-17.5 68.5q0 127 150 239q-215 0 -344 120t-129 315zM250 616h645q8 37 8 78q0 119 -64.5 181.5t-170.5 62.5q-133 0 -248.5 -85
t-169.5 -237z" />
    <glyph glyph-name="Ecaron" unicode="&#x11a;" horiz-adv-x="1284" 
d="M762 1540l-123 244h135l78 -164h4l143 164h150l-221 -244h-166zM-4 0l24 119h187l233 1202h-188l24 119h1016l-59 -299h-129l35 176h-555l-103 -531h543l-25 -122h-542l-107 -541h594l37 186h129l-61 -309h-1053z" />
    <glyph glyph-name="ecaron" unicode="&#x11b;" horiz-adv-x="1132" 
d="M645 1196l-123 244h135l78 -164h4l144 164h149l-221 -244h-166zM72 410q0 100 29 196t83 176.5t127 142t167 96t196 34.5q183 0 276.5 -102t93.5 -271q0 -36 -7 -78t-14 -66l-7 -24h-791q-10 -43 -10 -94q0 -140 86.5 -230t243.5 -90q52 0 106 13t94 31t72 36.5t49 31.5
l17 13l43 -114q-7 -6 -19.5 -15t-54 -32.5t-84 -41.5t-105.5 -32.5t-124 -14.5q-212 0 -339.5 119.5t-127.5 315.5zM250 616h645q8 37 8 78q0 119 -64.5 181.5t-170.5 62.5q-133 0 -248.5 -85t-169.5 -237z" />
    <glyph glyph-name="Gcircumflex" unicode="&#x11c;" horiz-adv-x="1579" 
d="M760 1540l221 244h166l123 -244h-135l-78 166h-4l-144 -166h-149zM127 596q0 174 69.5 334t186.5 277t280 187t341 70q72 0 147 -11t146.5 -34t125.5 -55.5t82 -79.5t17 -102l-31 -158h-137l20 109q10 52 -22 92.5t-91 63.5t-124.5 34.5t-130.5 11.5q-149 0 -285.5 -60.5
t-233 -160.5t-154 -233.5t-57.5 -274.5q0 -224 138 -363t372 -139q50 0 104.5 6t115.5 21.5t111 38.5t86.5 60t45.5 83l45 226h-301l23 118h438l-76 -378q-16 -81 -80.5 -142.5t-155 -95t-183 -50t-181.5 -16.5q-298 0 -474.5 171.5t-176.5 449.5z" />
    <glyph glyph-name="gcircumflex" unicode="&#x11d;" horiz-adv-x="1255" 
d="M459 1196l221 244h166l123 -244h-135l-78 166h-4l-144 -166h-149zM80 -240q13 -8 36 -19t94 -29.5t140 -18.5q80 0 147.5 19t126.5 60t100 115t58 176q7 40 16 73.5t14 47.5l5 13h-4q-126 -191 -344 -191q-182 0 -286.5 111.5t-104.5 298.5q0 111 36.5 222.5t103 205
t172 152.5t231.5 59t215 -50t112 -139h4q-2 14 4 47q11 60 44 88.5t96 28.5h186l-20 -115h-127q-47 0 -56 -43l-166 -858q-24 -119 -79.5 -207t-132 -138.5t-161.5 -74.5t-180 -24q-191 0 -346 86zM221 424q0 -137 72 -215t201 -78q97 0 176 51.5t126 134t72 176t25 185.5
q0 252 -264 252q-94 0 -173 -44.5t-129 -116.5t-78 -162t-28 -183z" />
    <glyph glyph-name="Gbreve" unicode="&#x11e;" horiz-adv-x="1579" 
d="M127 596q0 174 69.5 334t186.5 277t280 187t341 70q72 0 147 -11t146.5 -34t125.5 -55.5t82 -79.5t17 -102l-31 -158h-137l20 109q10 52 -22 92.5t-91 63.5t-124.5 34.5t-130.5 11.5q-149 0 -285.5 -60.5t-233 -160.5t-154 -233.5t-57.5 -274.5q0 -224 138 -363t372 -139
q50 0 104.5 6t115.5 21.5t111 38.5t86.5 60t45.5 83l45 226h-301l23 118h438l-76 -378q-16 -81 -80.5 -142.5t-155 -95t-183 -50t-181.5 -16.5q-298 0 -474.5 171.5t-176.5 449.5zM1030 1534q-101 0 -164.5 61t-42.5 158l6 31h117l-6 -27q-11 -64 17 -95.5t81 -31.5
q52 0 94.5 32t53.5 95l6 27h117l-6 -31q-19 -110 -95 -164.5t-178 -54.5z" />
    <glyph glyph-name="gbreve" unicode="&#x11f;" horiz-adv-x="1255" 
d="M80 -240q13 -8 36 -19t94 -29.5t140 -18.5q80 0 147.5 19t126.5 60t100 115t58 176q7 40 16 73.5t14 47.5l5 13h-4q-126 -191 -344 -191q-182 0 -286.5 111.5t-104.5 298.5q0 111 36.5 222.5t103 205t172 152.5t231.5 59t215 -50t112 -139h4q-2 14 4 47q11 60 44 88.5
t96 28.5h186l-20 -115h-127q-47 0 -56 -43l-166 -858q-24 -119 -79.5 -207t-132 -138.5t-161.5 -74.5t-180 -24q-191 0 -346 86zM221 424q0 -137 72 -215t201 -78q97 0 176 51.5t126 134t72 176t25 185.5q0 252 -264 252q-94 0 -173 -44.5t-129 -116.5t-78 -162t-28 -183z
M731 1190q-101 0 -164.5 61t-42.5 158l6 31h117l-6 -27q-11 -64 17 -95.5t81 -31.5q52 0 94.5 32t53.5 95l6 27h117l-6 -31q-19 -110 -95 -164.5t-178 -54.5z" />
    <glyph glyph-name="Gdotaccent" unicode="&#x120;" horiz-adv-x="1579" 
d="M127 596q0 174 69.5 334t186.5 277t280 187t341 70q72 0 147 -11t146.5 -34t125.5 -55.5t82 -79.5t17 -102l-31 -158h-137l20 109q10 52 -22 92.5t-91 63.5t-124.5 34.5t-130.5 11.5q-149 0 -285.5 -60.5t-233 -160.5t-154 -233.5t-57.5 -274.5q0 -224 138 -363t372 -139
q50 0 104.5 6t115.5 21.5t111 38.5t86.5 60t45.5 83l45 226h-301l23 118h438l-76 -378q-16 -81 -80.5 -142.5t-155 -95t-183 -50t-181.5 -16.5q-298 0 -474.5 171.5t-176.5 449.5zM963 1610l34 174h146l-33 -174h-147z" />
    <glyph glyph-name="gdotaccent" unicode="&#x121;" horiz-adv-x="1255" 
d="M80 -240q13 -8 36 -19t94 -29.5t140 -18.5q80 0 147.5 19t126.5 60t100 115t58 176q7 40 16 73.5t14 47.5l5 13h-4q-126 -191 -344 -191q-182 0 -286.5 111.5t-104.5 298.5q0 111 36.5 222.5t103 205t172 152.5t231.5 59t215 -50t112 -139h4q-2 14 4 47q11 60 44 88.5
t96 28.5h186l-20 -115h-127q-47 0 -56 -43l-166 -858q-24 -119 -79.5 -207t-132 -138.5t-161.5 -74.5t-180 -24q-191 0 -346 86zM221 424q0 -137 72 -215t201 -78q97 0 176 51.5t126 134t72 176t25 185.5q0 252 -264 252q-94 0 -173 -44.5t-129 -116.5t-78 -162t-28 -183z
M662 1266l34 174h146l-33 -174h-147z" />
    <glyph glyph-name="Gcommaaccent" unicode="&#x122;" horiz-adv-x="1579" 
d="M616 -127h134q2 -10 2 -43q0 -81 -46.5 -154.5t-125.5 -119.5l-60 59q103 93 103 199q0 19 -7 59zM127 596q0 174 69.5 334t186.5 277t280 187t341 70q72 0 147 -11t146.5 -34t125.5 -55.5t82 -79.5t17 -102l-31 -158h-137l20 109q10 52 -22 92.5t-91 63.5t-124.5 34.5
t-130.5 11.5q-149 0 -285.5 -60.5t-233 -160.5t-154 -233.5t-57.5 -274.5q0 -224 138 -363t372 -139q50 0 104.5 6t115.5 21.5t111 38.5t86.5 60t45.5 83l45 226h-301l23 118h438l-76 -378q-16 -81 -80.5 -142.5t-155 -95t-183 -50t-181.5 -16.5q-298 0 -474.5 171.5
t-176.5 449.5z" />
    <glyph glyph-name="gcommaaccent" unicode="&#x123;" horiz-adv-x="1255" 
d="M766 1182h-133q-2 10 -2 43q0 81 46.5 154.5t125.5 119.5l59 -59q-102 -92 -102 -199q0 -25 6 -59zM80 -240q13 -8 36 -19t94 -29.5t140 -18.5q80 0 147.5 19t126.5 60t100 115t58 176q7 40 16 73.5t14 47.5l5 13h-4q-126 -191 -344 -191q-182 0 -286.5 111.5
t-104.5 298.5q0 111 36.5 222.5t103 205t172 152.5t231.5 59t215 -50t112 -139h4q-2 14 4 47q11 60 44 88.5t96 28.5h186l-20 -115h-127q-47 0 -56 -43l-166 -858q-24 -119 -79.5 -207t-132 -138.5t-161.5 -74.5t-180 -24q-191 0 -346 86zM221 424q0 -137 72 -215t201 -78
q97 0 176 51.5t126 134t72 176t25 185.5q0 252 -264 252q-94 0 -173 -44.5t-129 -116.5t-78 -162t-28 -183z" />
    <glyph glyph-name="Hcircumflex" unicode="&#x124;" horiz-adv-x="1722" 
d="M782 1540l222 244h165l123 -244h-135l-78 166h-4l-143 -166h-150zM-2 0l22 119h187l233 1202h-186l22 119h521l-23 -119h-188l-105 -539h832l104 539h-188l24 119h521l-25 -119h-188l-234 -1202h189l-25 -119h-520l24 119h189l104 540h-831l-107 -540h189l-23 -119h-518z
" />
    <glyph glyph-name="hcircumflex" unicode="&#x125;" horiz-adv-x="1286" 
d="M178 1540l221 244h166l123 -244h-135l-78 166h-4l-143 -166h-150zM72 0l256 1325h-176l22 115h315l-106 -559q-4 -21 -11 -44t-12 -36l-4 -13h4q18 36 55.5 78t94 86.5t136.5 73.5t165 29q137 0 211 -69t74 -198q0 -68 -48.5 -307.5t-48.5 -273.5q0 -59 26.5 -77.5
t72.5 -18.5l51 4l-23 -115q-40 -4 -75 -4q-34 0 -63 6t-62 23t-52.5 54.5t-19.5 92.5q0 43 48 281.5t48 298.5q0 86 -46 129t-128 43q-169 0 -304 -132.5t-171 -318.5l-90 -473h-139z" />
    <glyph glyph-name="Hbar" unicode="&#x126;" horiz-adv-x="1720" 
d="M-4 0l24 119h187l174 895h-172l20 98h172l39 209h-188l24 119h521l-25 -119h-188l-39 -209h831l41 209h-188l22 119h523l-25 -119h-188l-41 -209h172l-19 -98h-172l-176 -895h191l-25 -119h-520l22 119h189l106 536h-833l-105 -536h189l-25 -119h-518zM477 766h834
l47 248h-834z" />
    <glyph glyph-name="hbar" unicode="&#x127;" horiz-adv-x="1284" 
d="M70 0l225 1161h-156l21 105h155l35 174h139l-34 -174h313l-20 -105h-314l-53 -280q-4 -21 -11 -44t-12 -36l-4 -13h4q18 36 55.5 78t94 86.5t136.5 73.5t165 29q137 0 211 -69t74 -198q0 -68 -48.5 -307.5t-48.5 -273.5q0 -59 26.5 -77.5t72.5 -18.5l51 4l-23 -115
q-40 -4 -75 -4q-34 0 -63 6t-62 23t-52.5 54.5t-19.5 92.5q0 43 48 281.5t48 298.5q0 86 -46 129t-128 43q-169 0 -304 -132.5t-171 -318.5l-90 -473h-139z" />
    <glyph glyph-name="Itilde" unicode="&#x128;" horiz-adv-x="745" 
d="M-2 0l22 119h187l233 1202h-186l22 119h521l-23 -119h-190l-234 -1202h189l-23 -119h-518zM244 1546q22 116 78 178t139 62q38 0 68 -15t48 -36t33 -42t34 -36t42 -15q74 0 102 138h119q-22 -116 -78.5 -178t-138.5 -62q-38 0 -68 14.5t-48 35t-33 41.5t-34 35.5
t-42 14.5q-44 0 -68.5 -41t-34.5 -94h-118z" />
    <glyph glyph-name="itilde" unicode="&#x129;" horiz-adv-x="606" 
d="M152 176q0 18 8 76l131 663h-185l23 115h324l-152 -764q-6 -35 -6 -59q0 -58 26 -77t72 -19l51 4l-22 -115q-43 -4 -72 -4q-198 0 -198 180zM106 1202q22 116 78.5 178t139.5 62q38 0 68 -15t48 -36t33 -42t34 -36t42 -15q74 0 102 138h119q-22 -116 -78.5 -178
t-138.5 -62q-39 0 -68.5 14.5t-47.5 35t-33 41.5t-34 35.5t-42 14.5q-44 0 -68.5 -41t-34.5 -94h-119z" />
    <glyph glyph-name="Imacron" unicode="&#x12a;" horiz-adv-x="745" 
d="M-2 0l22 119h187l233 1202h-186l22 119h521l-23 -119h-190l-234 -1202h189l-23 -119h-518zM313 1608l21 112h506l-21 -112h-506z" />
    <glyph glyph-name="imacron" unicode="&#x12b;" horiz-adv-x="606" 
d="M152 176q0 18 8 76l131 663h-185l23 115h324l-152 -764q-6 -35 -6 -59q0 -58 26 -77t72 -19l51 4l-22 -115q-43 -4 -72 -4q-198 0 -198 180zM176 1264l21 112h505l-20 -112h-506z" />
    <glyph glyph-name="Ibreve" unicode="&#x12c;" horiz-adv-x="745" 
d="M-2 0l22 119h187l233 1202h-186l22 119h521l-23 -119h-190l-234 -1202h189l-23 -119h-518zM561 1534q-101 0 -164.5 61t-42.5 158l6 31h117l-6 -27q-11 -64 17 -95.5t81 -31.5q52 0 94.5 32t53.5 95l6 27h117l-6 -31q-19 -110 -95 -164.5t-178 -54.5z" />
    <glyph glyph-name="ibreve" unicode="&#x12d;" horiz-adv-x="606" 
d="M152 176q0 18 8 76l131 663h-185l23 115h324l-152 -764q-6 -35 -6 -59q0 -58 26 -77t72 -19l51 4l-22 -115q-43 -4 -72 -4q-198 0 -198 180zM424 1190q-101 0 -164.5 61t-42.5 158l6 31h117l-6 -27q-11 -64 17 -95.5t81 -31.5q52 0 94.5 32t53.5 95l6 27h116l-6 -31
q-19 -110 -94.5 -164.5t-177.5 -54.5z" />
    <glyph glyph-name="Iogonek" unicode="&#x12e;" horiz-adv-x="745" 
d="M-2 0l22 119h187l233 1202h-186l22 119h521l-23 -119h-190l-234 -1202h189l-23 -119h-10q-14 0 -49 -22.5t-72.5 -56t-66.5 -77.5t-29 -80q0 -27 15.5 -46.5t37 -28t37 -12t24.5 -3.5l-49 -108q-14 2 -33 6.5t-48.5 17t-53 30t-40.5 48t-17 68.5q0 142 182 264h-346z" />
    <glyph glyph-name="iogonek" unicode="&#x12f;" horiz-adv-x="608" 
d="M74 -264q0 141 192 270q-114 35 -114 170q0 28 10 76l129 663h-185l25 115h324l-152 -764q-6 -35 -6 -59q0 -58 26 -77t72 -19l51 4l-22 -115q-10 0 -18 -2q-46 -14 -125.5 -92t-79.5 -142q0 -27 15.5 -46.5t37 -28t37 -12t24.5 -3.5l-49 -108q-14 2 -33 6.5t-48.5 17
t-53 30t-40.5 48t-17 68.5zM350 1266l35 174h158l-35 -174h-158z" />
    <glyph glyph-name="Idotaccent" unicode="&#x130;" horiz-adv-x="745" 
d="M-2 0l22 119h187l233 1202h-186l22 119h521l-23 -119h-190l-234 -1202h189l-23 -119h-518zM494 1610l34 174h146l-33 -174h-147z" />
    <glyph glyph-name="dotlessi" unicode="&#x131;" horiz-adv-x="606" 
d="M152 176q0 18 8 76l131 663h-185l23 115h324l-152 -764q-6 -35 -6 -59q0 -58 26 -77t72 -19l51 4l-22 -115q-43 -4 -72 -4q-198 0 -198 180z" />
    <glyph glyph-name="IJ" unicode="&#x132;" horiz-adv-x="1437" 
d="M608 -8l23 125q299 -5 366 336l168 868h-192l24 119h521l-25 -119h-184l-168 -860q-23 -119 -65.5 -206.5t-92 -137.5t-115.5 -79.5t-126 -38t-134 -7.5zM-2 0l25 119h186l231 1202h-188l24 119h521l-25 -119h-188l-232 -1202h166l-24 -119h-496z" />
    <glyph glyph-name="ij" unicode="&#x133;" horiz-adv-x="1153" 
d="M348 1266l35 174h158l-35 -174h-158zM150 176q0 4 10 76l131 663h-185l23 115h324l-152 -764q-6 -35 -6 -59q0 -58 26 -77t72 -19l51 4l-22 -115q-43 -4 -72 -4q-200 0 -200 180zM946 1266l33 174h158l-35 -174h-156zM702 -37l185 952h-185l23 115h324l-207 -1063
q-19 -98 -58 -172t-82 -114t-96.5 -64.5t-93.5 -31.5t-80 -7q-22 0 -42.5 1.5t-29.5 2.5l-10 2l25 117q16 -4 45 -4q28 0 55.5 4.5t64 21.5t66.5 44t56.5 78t39.5 118z" />
    <glyph glyph-name="Jcircumflex" unicode="&#x134;" horiz-adv-x="1110" 
d="M702 1540l222 244h166l122 -244h-135l-78 166h-4l-143 -166h-150zM6 301q0 34 6 74t12 63l7 23h139q-23 -79 -23 -142q0 -213 211 -213q50 0 97 15.5t92 48.5t79.5 92.5t49.5 138.5l176 920h-221l24 119h533l-25 -119h-168l-180 -932q-21 -110 -69.5 -192.5t-113 -129.5
t-134 -69.5t-144.5 -22.5q-70 0 -131.5 19t-110.5 57t-77.5 102t-28.5 148z" />
    <glyph glyph-name="jcircumflex" unicode="&#x135;" horiz-adv-x="565" 
d="M123 1196l221 244h166l123 -244h-133l-80 166h-4l-144 -166h-149zM115 -37l184 952h-184l22 115h324l-207 -1063q-19 -98 -58 -172t-82 -114t-96.5 -64.5t-93.5 -31.5t-80 -7q-22 0 -42.5 1.5t-29.5 2.5l-10 2l25 117q16 -4 45 -4q28 0 55.5 4.5t64.5 21.5t67 44t56.5 78
t39.5 118z" />
    <glyph glyph-name="Kcommaaccent" unicode="&#x136;" horiz-adv-x="1372" 
d="M498 -127h133q2 -10 2 -43q0 -81 -46.5 -154.5t-125.5 -119.5l-60 59q103 93 103 199q0 24 -6 59zM-2 0l22 119h187l233 1202h-186l22 119h508l-22 -119h-178l-99 -508h201l451 508h-131l24 119h445l-23 -119h-147l-506 -563v-4q24 -17 51 -80l186 -465q18 -48 42.5 -71
t78.5 -23l60 4l-23 -119q-1 0 -31 -2t-47 -2q-52 0 -90 12.5t-63.5 40.5t-40.5 55.5t-33 73.5l-172 445q-14 35 -38.5 51t-68.5 16h-149l-111 -571h187l-23 -119h-516z" />
    <glyph glyph-name="kcommaaccent" unicode="&#x137;" horiz-adv-x="1093" 
d="M360 -127h134q2 -10 2 -43q0 -81 -46.5 -154.5t-125.5 -119.5l-60 59q103 93 103 199q0 19 -7 59zM70 0l260 1325h-185l23 115h324l-160 -811h141l311 286h-139l23 115h430l-23 -115h-127l-366 -337v-5q26 -20 53 -75l133 -297q15 -31 25 -46.5t34.5 -29.5t61.5 -14l57 4
l-22 -115q-2 0 -14 -1t-29 -2t-31 -1q-41 0 -73 10t-52 22.5t-39.5 40.5t-29 47t-27.5 58l-133 293q-12 28 -31 37.5t-59 9.5h-95l-102 -514h-139z" />
    <glyph glyph-name="kgreenlandic" unicode="&#x138;" horiz-adv-x="1146" 
d="M123 0l178 915h-184l22 115h324l-78 -399h145l310 284h-140l23 115h426l-23 -115h-129l-364 -340v-4q28 -18 53 -73l135 -297q15 -31 25 -46.5t34.5 -29.5t61.5 -14l57 4l-22 -115q-1 0 -28 -2t-44 -2q-40 0 -72 10t-52.5 23t-40 40t-29.5 47t-27 58l-133 293
q-12 28 -32 37.5t-60 9.5h-97l-102 -514h-137z" />
    <glyph glyph-name="Lacute" unicode="&#x139;" horiz-adv-x="1208" 
d="M446 1540l250 244h187l-281 -244h-156zM-2 0l22 119h187l233 1198h-188l24 123h521l-25 -123h-188l-232 -1194h574l49 239h129l-72 -362h-1034z" />
    <glyph glyph-name="lacute" unicode="&#x13a;" horiz-adv-x="561" 
d="M332 1540l250 244h186l-281 -244h-155zM106 180q0 25 11 78l207 1067h-185l23 115h323l-225 -1166q-8 -50 -8 -67q0 -31 8 -50.5t23.5 -28t30 -11t36.5 -2.5l51 4l-22 -119q-39 -6 -72 -6q-28 0 -52 3.5t-52.5 15.5t-49 31.5t-34 54.5t-13.5 81z" />
    <glyph glyph-name="Lcommaaccent" unicode="&#x13b;" horiz-adv-x="1208" 
d="M475 -127h133q2 -10 2 -43q0 -81 -46.5 -154.5t-125.5 -119.5l-59 59q102 92 102 199q0 24 -6 59zM-2 0l22 119h187l233 1198h-188l24 123h521l-25 -123h-188l-232 -1194h574l49 239h129l-72 -362h-1034z" />
    <glyph glyph-name="lcommaaccent" unicode="&#x13c;" horiz-adv-x="561" 
d="M123 -127h133q2 -10 2 -43q0 -81 -46.5 -154.5t-125.5 -119.5l-59 59q102 92 102 199q0 24 -6 59zM106 180q0 25 11 78l207 1067h-185l23 115h323l-225 -1166q-8 -50 -8 -67q0 -31 8 -50.5t23.5 -28t30 -11t36.5 -2.5l51 4l-22 -119q-39 -6 -72 -6q-28 0 -52 3.5
t-52.5 15.5t-49 31.5t-34 54.5t-13.5 81z" />
    <glyph glyph-name="Lcaron" unicode="&#x13d;" horiz-adv-x="1208" 
d="M475 -127h133q2 -10 2 -43q0 -81 -46.5 -154.5t-125.5 -119.5l-59 59q102 92 102 199q0 24 -6 59zM-2 0l22 119h187l233 1198h-188l24 123h521l-25 -123h-188l-232 -1194h574l49 239h129l-72 -362h-1034z" />
    <glyph glyph-name="lcaron" unicode="&#x13e;" horiz-adv-x="561" 
d="M623 1440h133q2 -10 2 -43q0 -81 -46.5 -155t-125.5 -120l-60 60q103 93 103 198q0 26 -6 60zM106 180q0 25 11 78l207 1067h-185l23 115h323l-225 -1166q-8 -50 -8 -67q0 -31 8 -50.5t23.5 -28t30 -11t36.5 -2.5l51 4l-22 -119q-39 -6 -72 -6q-28 0 -52 3.5t-52.5 15.5
t-49 31.5t-34 54.5t-13.5 81z" />
    <glyph glyph-name="Ldot" unicode="&#x13f;" horiz-adv-x="1208" 
d="M-2 0l22 119h187l233 1198h-188l24 123h521l-25 -123h-188l-232 -1194h574l49 239h129l-72 -362h-1034zM713 678l32 170h164l-32 -170h-164z" />
    <glyph glyph-name="ldot" unicode="&#x140;" horiz-adv-x="657" 
d="M106 180q0 25 11 78l207 1067h-185l23 115h323l-225 -1166q-8 -50 -8 -67q0 -31 8 -50.5t23.5 -28t30 -11t36.5 -2.5l51 4l-22 -119q-39 -6 -72 -6q-28 0 -52 3.5t-52.5 15.5t-49 31.5t-34 54.5t-13.5 81zM512 678l33 170h164l-33 -170h-164z" />
    <glyph glyph-name="Lslash" unicode="&#x141;" horiz-adv-x="1212" 
d="M-2 0l25 119h186l94 487l-199 -94l29 137l197 92l112 576h-188l25 123h520l-25 -123h-188l-99 -500l492 234l-27 -140l-489 -231l-111 -557h580l47 239h127l-72 -362h-1036z" />
    <glyph glyph-name="lslash" unicode="&#x142;" horiz-adv-x="561" 
d="M117 252l92 477l-189 -96l25 137l191 98l90 457h-185l23 115h323l-96 -494l209 109l-27 -137l-208 -109l-105 -541q-18 -91 7.5 -123t78.5 -32l35 2l-25 -119q-24 -4 -51 -4q-20 0 -39 2.5t-42.5 9.5t-41.5 19t-36 31.5t-26 47t-11 65t8 85.5z" />
    <glyph glyph-name="Nacute" unicode="&#x143;" horiz-adv-x="1705" 
d="M942 1540l250 244h186l-280 -244h-156zM-4 0l24 119h187l233 1202h-188l24 119h322l584 -1143q7 -16 14 -37t10 -34l4 -13h4q5 57 13 94l200 1014h-190l23 119h522l-23 -119h-188l-258 -1321h-137l-586 1145q-7 15 -14 36t-10 35l-3 13h-4q-4 -57 -12 -94l-197 -1016h191
l-25 -119h-520z" />
    <glyph glyph-name="nacute" unicode="&#x144;" horiz-adv-x="1339" 
d="M715 1196l250 244h186l-281 -244h-155zM123 0l170 870q7 45 -37 45h-139l22 115h197q56 0 80 -21t24 -63q0 -21 -11 -78t-23 -86h4q17 37 54.5 80.5t93.5 88.5t138.5 74.5t171.5 29.5q135 0 208 -68.5t73 -195.5q0 -69 -48 -309t-48 -275q0 -59 26 -77.5t72 -18.5l51 4
l-22 -115q-41 -4 -76 -4q-34 0 -63 6t-62 23t-52.5 54.5t-19.5 92.5q0 43 48.5 281.5t48.5 298.5q0 172 -179 172q-163 0 -300 -133.5t-171 -317.5l-92 -473h-139z" />
    <glyph glyph-name="Ncommaaccent" unicode="&#x145;" horiz-adv-x="1705" 
d="M647 -127h133q2 -10 2 -43q0 -81 -46.5 -154.5t-125.5 -119.5l-59 59q102 92 102 199q0 24 -6 59zM-4 0l24 119h187l233 1202h-188l24 119h322l584 -1143q7 -16 14 -37t10 -34l4 -13h4q5 57 13 94l200 1014h-190l23 119h522l-23 -119h-188l-258 -1321h-137l-586 1145
q-7 15 -14 36t-10 35l-3 13h-4q-4 -57 -12 -94l-197 -1016h191l-25 -119h-520z" />
    <glyph glyph-name="ncommaaccent" unicode="&#x146;" horiz-adv-x="1339" 
d="M532 -127h134q2 -10 2 -43q0 -81 -46.5 -154.5t-125.5 -119.5l-60 59q103 93 103 199q0 19 -7 59zM123 0l170 870q7 45 -37 45h-139l22 115h197q56 0 80 -21t24 -63q0 -21 -11 -78t-23 -86h4q17 37 54.5 80.5t93.5 88.5t138.5 74.5t171.5 29.5q135 0 208 -68.5t73 -195.5
q0 -69 -48 -309t-48 -275q0 -59 26 -77.5t72 -18.5l51 4l-22 -115q-41 -4 -76 -4q-34 0 -63 6t-62 23t-52.5 54.5t-19.5 92.5q0 43 48.5 281.5t48.5 298.5q0 172 -179 172q-163 0 -300 -133.5t-171 -317.5l-92 -473h-139z" />
    <glyph glyph-name="Ncaron" unicode="&#x147;" horiz-adv-x="1705" 
d="M969 1540l-123 244h135l78 -164h4l143 164h150l-221 -244h-166zM-4 0l24 119h187l233 1202h-188l24 119h322l584 -1143q7 -16 14 -37t10 -34l4 -13h4q5 57 13 94l200 1014h-190l23 119h522l-23 -119h-188l-258 -1321h-137l-586 1145q-7 15 -14 36t-10 35l-3 13h-4
q-4 -57 -12 -94l-197 -1016h191l-25 -119h-520z" />
    <glyph glyph-name="ncaron" unicode="&#x148;" horiz-adv-x="1339" 
d="M741 1196l-123 244h136l77 -164h5l143 164h149l-221 -244h-166zM123 0l170 870q7 45 -37 45h-139l22 115h197q56 0 80 -21t24 -63q0 -21 -11 -78t-23 -86h4q17 37 54.5 80.5t93.5 88.5t138.5 74.5t171.5 29.5q135 0 208 -68.5t73 -195.5q0 -69 -48 -309t-48 -275
q0 -59 26 -77.5t72 -18.5l51 4l-22 -115q-41 -4 -76 -4q-34 0 -63 6t-62 23t-52.5 54.5t-19.5 92.5q0 43 48.5 281.5t48.5 298.5q0 172 -179 172q-163 0 -300 -133.5t-171 -317.5l-92 -473h-139z" />
    <glyph glyph-name="napostrophe" unicode="&#x149;" horiz-adv-x="1339" 
d="M270 1454h133q3 -15 3 -43q0 -81 -47 -154.5t-126 -119.5l-59 59q102 92 102 199q0 25 -6 59zM123 0l170 870q7 45 -37 45h-139l22 115h197q56 0 80 -21t24 -63q0 -21 -11 -78t-23 -86h4q17 37 54.5 80.5t93.5 88.5t138.5 74.5t171.5 29.5q135 0 208 -68.5t73 -195.5
q0 -69 -48 -309t-48 -275q0 -59 26 -77.5t72 -18.5l51 4l-22 -115q-41 -4 -76 -4q-34 0 -63 6t-62 23t-52.5 54.5t-19.5 92.5q0 43 48.5 281.5t48.5 298.5q0 172 -179 172q-163 0 -300 -133.5t-171 -317.5l-92 -473h-139z" />
    <glyph glyph-name="Eng" unicode="&#x14a;" horiz-adv-x="1703" 
d="M-4 0l24 119h187l233 1202h-188l24 119h324l582 -1143q7 -16 14 -37t10 -34l4 -13h4q7 57 13 94l200 1014h-190l23 119h522l-23 -119h-188l-248 -1264q-23 -117 -64.5 -204t-90.5 -138.5t-114.5 -82.5t-128 -41.5t-139.5 -10.5l25 127q292 0 360 299l-581 1139
q-7 15 -14 36t-10 35l-3 13h-4q-6 -57 -12 -94l-197 -1016h191l-25 -119h-520z" />
    <glyph glyph-name="eng" unicode="&#x14b;" horiz-adv-x="1290" 
d="M123 0l170 870q7 45 -37 45h-139l22 115h197q56 0 80 -21t24 -63q0 -21 -11 -78t-23 -86h4q17 37 54.5 80.5t93.5 88.5t138.5 74.5t171.5 29.5q135 0 208 -68.5t73 -195.5q0 -62 -23 -175l-127 -657q-19 -98 -58.5 -172t-82.5 -114t-96 -64.5t-92.5 -31.5t-79.5 -7
q-23 0 -44 1.5t-30 2.5l-10 2l24 117q16 -4 45 -4q28 0 55.5 4.5t64.5 21.5t67 44t57.5 78t40.5 118l123 637q21 120 21 160q0 172 -179 172q-163 0 -300 -133.5t-171 -317.5l-92 -473h-139z" />
    <glyph glyph-name="Omacron" unicode="&#x14c;" horiz-adv-x="1691" 
d="M788 1608l21 112h506l-21 -112h-506zM125 598q0 172 74 332.5t194.5 277t281 186.5t326.5 70q272 0 443.5 -170.5t171.5 -435.5q0 -140 -48 -274.5t-132.5 -243t-194.5 -191.5t-240.5 -128.5t-263.5 -45.5q-272 0 -442 175t-170 448zM270 602q0 -219 134 -357.5
t346 -138.5q132 0 262 59.5t230.5 159t163 239t62.5 288.5q0 213 -134 347t-347 134q-133 0 -263.5 -58.5t-230.5 -156t-161.5 -234t-61.5 -282.5z" />
    <glyph glyph-name="omacron" unicode="&#x14d;" horiz-adv-x="1277" 
d="M516 1264l21 112h505l-20 -112h-506zM70 426q0 129 54 246.5t143 200.5t206.5 132.5t241.5 49.5q202 0 330.5 -125t128.5 -320q0 -173 -92.5 -320.5t-241 -231t-312.5 -83.5q-203 0 -330.5 126t-127.5 325zM213 430q0 -145 91 -237.5t237 -92.5q121 0 233 66t184 183.5
t72 254.5q0 143 -92 234.5t-238 91.5q-123 0 -235 -66t-182 -182.5t-70 -251.5z" />
    <glyph glyph-name="Obreve" unicode="&#x14e;" horiz-adv-x="1691" 
d="M125 598q0 172 74 332.5t194.5 277t281 186.5t326.5 70q272 0 443.5 -170.5t171.5 -435.5q0 -140 -48 -274.5t-132.5 -243t-194.5 -191.5t-240.5 -128.5t-263.5 -45.5q-272 0 -442 175t-170 448zM270 602q0 -219 134 -357.5t346 -138.5q132 0 262 59.5t230.5 159t163 239
t62.5 288.5q0 213 -134 347t-347 134q-133 0 -263.5 -58.5t-230.5 -156t-161.5 -234t-61.5 -282.5zM1038 1534q-101 0 -164.5 61t-42.5 158l7 31h116l-6 -27q-11 -64 17.5 -95.5t81.5 -31.5q52 0 94 32t53 95l6 27h117l-6 -31q-19 -110 -95 -164.5t-178 -54.5z" />
    <glyph glyph-name="obreve" unicode="&#x14f;" horiz-adv-x="1277" 
d="M70 426q0 129 54 246.5t143 200.5t206.5 132.5t241.5 49.5q202 0 330.5 -125t128.5 -320q0 -173 -92.5 -320.5t-241 -231t-312.5 -83.5q-203 0 -330.5 126t-127.5 325zM213 430q0 -145 91 -237.5t237 -92.5q121 0 233 66t184 183.5t72 254.5q0 143 -92 234.5t-238 91.5
q-123 0 -235 -66t-182 -182.5t-70 -251.5zM764 1190q-101 0 -164.5 61t-42.5 158l6 31h117l-6 -27q-11 -64 17 -95.5t81 -31.5q52 0 94.5 32t53.5 95l6 27h116l-6 -31q-19 -110 -94.5 -164.5t-177.5 -54.5z" />
    <glyph glyph-name="Ohungarumlaut" unicode="&#x150;" horiz-adv-x="1691" 
d="M1067 1540l190 244h175l-226 -244h-139zM786 1540l183 244h153l-186 -244h-150zM125 598q0 172 74 332.5t194.5 277t281 186.5t326.5 70q272 0 443.5 -170.5t171.5 -435.5q0 -140 -48 -274.5t-132.5 -243t-194.5 -191.5t-240.5 -128.5t-263.5 -45.5q-272 0 -442 175
t-170 448zM270 602q0 -219 134 -357.5t346 -138.5q132 0 262 59.5t230.5 159t163 239t62.5 288.5q0 213 -134 347t-347 134q-133 0 -263.5 -58.5t-230.5 -156t-161.5 -234t-61.5 -282.5z" />
    <glyph glyph-name="ohungarumlaut" unicode="&#x151;" horiz-adv-x="1277" 
d="M793 1196l190 244h174l-225 -244h-139zM512 1196l182 244h154l-186 -244h-150zM70 426q0 129 54 246.5t143 200.5t206.5 132.5t241.5 49.5q202 0 330.5 -125t128.5 -320q0 -173 -92.5 -320.5t-241 -231t-312.5 -83.5q-203 0 -330.5 126t-127.5 325zM213 430
q0 -145 91 -237.5t237 -92.5q121 0 233 66t184 183.5t72 254.5q0 143 -92 234.5t-238 91.5q-123 0 -235 -66t-182 -182.5t-70 -251.5z" />
    <glyph glyph-name="OE" unicode="&#x152;" horiz-adv-x="1976" 
d="M127 588q0 116 32 228t89 207.5t137.5 177t175 138.5t204.5 89t222 32q51 0 145 -10t128 -10h727l-60 -299h-127l35 176h-557l-102 -531h540l-24 -122h-541l-104 -541h593l35 178h127l-59 -301h-742q-29 0 -115.5 -10t-131.5 -10q-142 0 -260 45.5t-198.5 126.5
t-124.5 193t-44 243zM274 582q0 -213 130 -344.5t352 -131.5q36 0 72.5 4t55.5 8l19 5l232 1194q-64 16 -142 16q-144 0 -277 -60t-229.5 -160.5t-154.5 -239.5t-58 -291z" />
    <glyph glyph-name="oe" unicode="&#x153;" horiz-adv-x="2076" 
d="M72 426q0 128 54 246t142 201t204 132.5t237 49.5q153 0 262.5 -75.5t156.5 -203.5h5q79 127 204.5 203t276.5 76q185 0 280 -102t95 -271q0 -36 -7.5 -78.5t-14.5 -67.5l-7 -24h-791q-10 -43 -10 -94q0 -138 86.5 -228t243.5 -90q52 0 106 13t93.5 31t71.5 36.5t48 31.5
l17 13l45 -114q-7 -6 -19.5 -15t-53 -32.5t-83 -41.5t-105.5 -32.5t-124 -14.5q-161 0 -275 74.5t-157 208.5h-4q-86 -129 -225 -206t-287 -77q-208 0 -336.5 126t-128.5 325zM1196 616h643q8 37 8 78q0 119 -64.5 181.5t-170.5 62.5q-132 0 -247 -85t-169 -237zM215 430
q0 -145 91 -237.5t237 -92.5q121 0 233 66t184 183.5t72 254.5q0 143 -92 234.5t-238 91.5q-124 0 -236 -66t-181.5 -182t-69.5 -252z" />
    <glyph glyph-name="Racute" unicode="&#x154;" horiz-adv-x="1419" 
d="M752 1540l249 244h187l-281 -244h-155zM-4 0l24 119h187l233 1202h-188l24 119h615q173 0 266 -49q70 -39 111 -111.5t41 -175.5q0 -176 -114 -308.5t-292 -160.5v-6q29 -35 39 -64l141 -356q18 -49 42 -71.5t79 -22.5l58 4l-23 -119q-2 0 -15 -1t-31 -2t-32 -1
q-52 0 -89 13t-62 41t-40 55.5t-32 72.5l-133 344q-21 53 -51 70.5t-90 17.5h-218l-96 -491h187l-25 -119h-516zM471 733h334q144 0 250 100.5t106 253.5q0 134 -90 189q-67 41 -209 41h-278z" />
    <glyph glyph-name="racute" unicode="&#x155;" horiz-adv-x="784" 
d="M420 1196l250 244h186l-281 -244h-155zM123 0l168 870q7 45 -37 45h-139l22 115h197q57 0 80.5 -20.5t23.5 -63.5q0 -21 -14 -87t-27 -101h4q59 121 158 201.5t219 80.5q38 0 62 -6l-27 -137q-28 4 -51 4q-79 0 -153 -48.5t-127.5 -125.5t-91 -164.5t-54.5 -173.5
l-74 -389h-139z" />
    <glyph glyph-name="Rcommaaccent" unicode="&#x156;" horiz-adv-x="1419" 
d="M537 -127h133q2 -10 2 -43q0 -81 -46.5 -154.5t-125.5 -119.5l-60 59q103 93 103 199q0 24 -6 59zM-4 0l24 119h187l233 1202h-188l24 119h615q173 0 266 -49q70 -39 111 -111.5t41 -175.5q0 -176 -114 -308.5t-292 -160.5v-6q29 -35 39 -64l141 -356q18 -49 42 -71.5
t79 -22.5l58 4l-23 -119q-2 0 -15 -1t-31 -2t-32 -1q-52 0 -89 13t-62 41t-40 55.5t-32 72.5l-133 344q-21 53 -51 70.5t-90 17.5h-218l-96 -491h187l-25 -119h-516zM471 733h334q144 0 250 100.5t106 253.5q0 134 -90 189q-67 41 -209 41h-278z" />
    <glyph glyph-name="rcommaaccent" unicode="&#x157;" horiz-adv-x="784" 
d="M98 -127h133q2 -10 2 -43q0 -81 -46.5 -154.5t-125.5 -119.5l-59 59q102 92 102 199q0 24 -6 59zM123 0l168 870q7 45 -37 45h-139l22 115h197q57 0 80.5 -20.5t23.5 -63.5q0 -21 -14 -87t-27 -101h4q59 121 158 201.5t219 80.5q38 0 62 -6l-27 -137q-28 4 -51 4
q-79 0 -153 -48.5t-127.5 -125.5t-91 -164.5t-54.5 -173.5l-74 -389h-139z" />
    <glyph glyph-name="Rcaron" unicode="&#x158;" horiz-adv-x="1419" 
d="M778 1540l-123 244h136l77 -164h4l144 164h149l-221 -244h-166zM-4 0l24 119h187l233 1202h-188l24 119h615q173 0 266 -49q70 -39 111 -111.5t41 -175.5q0 -176 -114 -308.5t-292 -160.5v-6q29 -35 39 -64l141 -356q18 -49 42 -71.5t79 -22.5l58 4l-23 -119q-2 0 -15 -1
t-31 -2t-32 -1q-52 0 -89 13t-62 41t-40 55.5t-32 72.5l-133 344q-21 53 -51 70.5t-90 17.5h-218l-96 -491h187l-25 -119h-516zM471 733h334q144 0 250 100.5t106 253.5q0 134 -90 189q-67 41 -209 41h-278z" />
    <glyph glyph-name="rcaron" unicode="&#x159;" horiz-adv-x="784" 
d="M449 1196l-123 244h135l78 -164h4l143 164h150l-222 -244h-165zM123 0l168 870q7 45 -37 45h-139l22 115h197q57 0 80.5 -20.5t23.5 -63.5q0 -21 -14 -87t-27 -101h4q59 121 158 201.5t219 80.5q38 0 62 -6l-27 -137q-28 4 -51 4q-79 0 -153 -48.5t-127.5 -125.5
t-91 -164.5t-54.5 -173.5l-74 -389h-139z" />
    <glyph glyph-name="Sacute" unicode="&#x15a;" horiz-adv-x="1175" 
d="M655 1540l250 244h187l-281 -244h-156zM72 274l24 136h137l-22 -119q-13 -64 30.5 -107.5t111.5 -60.5t151 -17q156 0 262 84.5t106 221.5q0 56 -22 99.5t-59 72.5t-85 52.5t-101 44t-106.5 41.5t-101.5 50t-85 65t-59 90.5t-22 123.5q0 126 75 222t193.5 143.5
t258.5 47.5q66 0 134 -14t128 -41.5t92.5 -74.5t20.5 -105l-29 -144h-137l20 105q7 39 -14 68.5t-61.5 45t-84.5 22.5t-90 7q-147 0 -250.5 -76.5t-103.5 -199.5q0 -51 22 -91t59 -66.5t85 -49t101 -42.5t105.5 -41.5t100.5 -51.5t85 -68t59 -95t22 -128q0 -132 -74 -236
t-196 -158.5t-267 -54.5q-57 0 -115.5 9t-118.5 31t-103.5 55t-65.5 86t-10 118z" />
    <glyph glyph-name="sacute" unicode="&#x15b;" horiz-adv-x="970" 
d="M512 1196l250 244h186l-280 -244h-156zM23 219l18 100h127l-14 -77q-9 -45 14.5 -76t68 -45t84 -19.5t80.5 -5.5q111 0 191 49.5t80 133.5q0 45 -28 79.5t-72 57.5t-98 44t-108 45.5t-98 54.5t-72 78t-28 110q0 95 60.5 166.5t153.5 106t200 34.5q87 0 159.5 -23t115 -72
t28.5 -114l-23 -111h-129l19 86q6 33 -10.5 56.5t-49.5 35t-66 16.5t-69 5q-99 0 -174.5 -46.5t-75.5 -127.5q0 -44 28 -78t72.5 -56.5t98.5 -42.5t108 -43.5t98.5 -53t72.5 -77t28 -108.5q0 -142 -119.5 -234t-314.5 -92q-69 0 -135 14.5t-121.5 42.5t-84 77t-15.5 110z
" />
    <glyph glyph-name="Scircumflex" unicode="&#x15c;" horiz-adv-x="1175" 
d="M498 1540l221 244h166l123 -244h-136l-77 166h-4l-144 -166h-149zM72 274l24 136h137l-22 -119q-13 -64 30.5 -107.5t111.5 -60.5t151 -17q156 0 262 84.5t106 221.5q0 56 -22 99.5t-59 72.5t-85 52.5t-101 44t-106.5 41.5t-101.5 50t-85 65t-59 90.5t-22 123.5
q0 126 75 222t193.5 143.5t258.5 47.5q66 0 134 -14t128 -41.5t92.5 -74.5t20.5 -105l-29 -144h-137l20 105q7 39 -14 68.5t-61.5 45t-84.5 22.5t-90 7q-147 0 -250.5 -76.5t-103.5 -199.5q0 -51 22 -91t59 -66.5t85 -49t101 -42.5t105.5 -41.5t100.5 -51.5t85 -68t59 -95
t22 -128q0 -132 -74 -236t-196 -158.5t-267 -54.5q-57 0 -115.5 9t-118.5 31t-103.5 55t-65.5 86t-10 118z" />
    <glyph glyph-name="scircumflex" unicode="&#x15d;" horiz-adv-x="970" 
d="M354 1196l221 244h166l123 -244h-135l-78 166h-4l-143 -166h-150zM23 219l18 100h127l-14 -77q-9 -45 14.5 -76t68 -45t84 -19.5t80.5 -5.5q111 0 191 49.5t80 133.5q0 45 -28 79.5t-72 57.5t-98 44t-108 45.5t-98 54.5t-72 78t-28 110q0 95 60.5 166.5t153.5 106
t200 34.5q87 0 159.5 -23t115 -72t28.5 -114l-23 -111h-129l19 86q6 33 -10.5 56.5t-49.5 35t-66 16.5t-69 5q-99 0 -174.5 -46.5t-75.5 -127.5q0 -44 28 -78t72.5 -56.5t98.5 -42.5t108 -43.5t98.5 -53t72.5 -77t28 -108.5q0 -142 -119.5 -234t-314.5 -92q-69 0 -135 14.5
t-121.5 42.5t-84 77t-15.5 110z" />
    <glyph glyph-name="Scedilla" unicode="&#x15e;" horiz-adv-x="1175" 
d="M334 -193l76 173q-55 6 -104.5 18.5t-98.5 36t-82 55t-48.5 79.5t-4.5 105l24 136h137l-22 -119q-13 -64 30.5 -107.5t111.5 -60.5t151 -17q156 0 262 84.5t106 221.5q0 56 -22 99.5t-59 72.5t-85 52.5t-101 44t-106.5 41.5t-101.5 50t-85 65t-59 90.5t-22 123.5
q0 126 75 222t193.5 143.5t258.5 47.5q66 0 134 -14t128 -41.5t92.5 -74.5t20.5 -105l-29 -144h-137l20 105q7 39 -14 68.5t-61.5 45t-84.5 22.5t-90 7q-147 0 -250.5 -76.5t-103.5 -199.5q0 -51 22 -91t59 -66.5t85 -49t101 -42.5t105.5 -41.5t100.5 -51.5t85 -68t59 -95
t22 -128q0 -130 -72 -233t-190.5 -158t-261.5 -58l-37 -94q56 -8 91.5 -43t35.5 -92q0 -59 -38 -100.5t-89 -58.5t-107 -17q-28 0 -54.5 3t-39.5 6l-12 3l18 90q35 -10 84 -10q48 0 85.5 19t37.5 63q0 29 -28.5 46t-79.5 17h-31z" />
    <glyph glyph-name="scedilla" unicode="&#x15f;" horiz-adv-x="970" 
d="M244 -193l73 170q-50 5 -95.5 16.5t-86 31.5t-68 46.5t-40 64.5t-4.5 83l18 100h127l-14 -77q-9 -45 14.5 -76t68 -45t84 -19.5t80.5 -5.5q111 0 191 49.5t80 133.5q0 45 -28 79.5t-72 57.5t-98 44t-108 45.5t-98 54.5t-72 78t-28 110q0 95 60.5 166.5t153.5 106
t200 34.5q87 0 159.5 -23t115 -72t28.5 -114l-23 -111h-129l19 86q6 33 -10.5 56.5t-49.5 35t-66 16.5t-69 5q-99 0 -174.5 -46.5t-75.5 -127.5q0 -44 28 -78t72.5 -56.5t98.5 -42.5t108 -43.5t98.5 -53t72.5 -77t28 -108.5q0 -136 -111 -227.5t-294 -98.5l-39 -94
q56 -8 91.5 -43t35.5 -92q0 -59 -38 -100.5t-89 -58.5t-107 -17q-28 0 -54.5 3t-39.5 6l-12 3l20 90q33 -10 82 -10t87 19t38 63q0 29 -30 46t-81 17h-28z" />
    <glyph glyph-name="Scaron" unicode="&#x160;" horiz-adv-x="1175" 
d="M684 1540l-123 244h135l78 -164h4l144 164h149l-221 -244h-166zM72 274l24 136h137l-22 -119q-13 -64 30.5 -107.5t111.5 -60.5t151 -17q156 0 262 84.5t106 221.5q0 56 -22 99.5t-59 72.5t-85 52.5t-101 44t-106.5 41.5t-101.5 50t-85 65t-59 90.5t-22 123.5
q0 126 75 222t193.5 143.5t258.5 47.5q66 0 134 -14t128 -41.5t92.5 -74.5t20.5 -105l-29 -144h-137l20 105q7 39 -14 68.5t-61.5 45t-84.5 22.5t-90 7q-147 0 -250.5 -76.5t-103.5 -199.5q0 -51 22 -91t59 -66.5t85 -49t101 -42.5t105.5 -41.5t100.5 -51.5t85 -68t59 -95
t22 -128q0 -132 -74 -236t-196 -158.5t-267 -54.5q-57 0 -115.5 9t-118.5 31t-103.5 55t-65.5 86t-10 118z" />
    <glyph glyph-name="scaron" unicode="&#x161;" horiz-adv-x="970" 
d="M541 1196l-123 244h135l78 -164h4l143 164h150l-221 -244h-166zM23 219l18 100h127l-14 -77q-9 -45 14.5 -76t68 -45t84 -19.5t80.5 -5.5q111 0 191 49.5t80 133.5q0 45 -28 79.5t-72 57.5t-98 44t-108 45.5t-98 54.5t-72 78t-28 110q0 95 60.5 166.5t153.5 106t200 34.5
q87 0 159.5 -23t115 -72t28.5 -114l-23 -111h-129l19 86q6 33 -10.5 56.5t-49.5 35t-66 16.5t-69 5q-99 0 -174.5 -46.5t-75.5 -127.5q0 -44 28 -78t72.5 -56.5t98.5 -42.5t108 -43.5t98.5 -53t72.5 -77t28 -108.5q0 -142 -119.5 -234t-314.5 -92q-69 0 -135 14.5
t-121.5 42.5t-84 77t-15.5 110z" />
    <glyph glyph-name="Tcommaaccent" unicode="&#x162;" horiz-adv-x="1341" 
d="M289 0l22 119h189l235 1198h-403l-45 -234h-131l71 357h1207l-70 -357h-129l45 234h-401l-236 -1198h188l-22 -119h-217l-47 -119q55 -8 91 -43t36 -92q0 -59 -38.5 -100.5t-89.5 -58.5t-106 -17q-28 0 -54.5 3t-39.5 6l-12 3l18 90q35 -10 84 -10q47 0 85 19t38 63
q0 29 -28.5 46t-79.5 17h-31l82 193h-211z" />
    <glyph glyph-name="tcommaaccent" unicode="&#x163;" horiz-adv-x="686" 
d="M180 -193l101 228q-115 69 -115 248q0 40 10 112l103 520h-185l23 115h186l55 285h138l-56 -285h258l-22 -115h-260l-101 -528q-8 -47 -8 -90q0 -186 176 -186l60 4l-25 -119q-24 -4 -53 -4q-63 0 -109 10l-49 -121q56 -8 91.5 -43t35.5 -92q0 -59 -37.5 -100.5
t-88.5 -58.5t-107 -17q-28 0 -54.5 3t-39.5 6l-13 3l19 90q35 -10 84 -10q48 0 85 19t37 63q0 29 -28.5 46t-79.5 17h-31z" />
    <glyph glyph-name="Tcaron" unicode="&#x164;" horiz-adv-x="1341" 
d="M770 1540l-123 244h135l78 -164h4l144 164h149l-221 -244h-166zM289 0l22 119h189l235 1198h-403l-45 -234h-131l71 357h1207l-70 -357h-129l45 234h-401l-236 -1198h188l-22 -119h-520z" />
    <glyph glyph-name="tcaron" unicode="&#x165;" horiz-adv-x="688" 
d="M709 1454h133q2 -10 2 -43q0 -81 -46.5 -154.5t-125.5 -119.5l-60 59q103 93 103 199q0 25 -6 59zM166 283q0 47 12 112l101 520h-185l23 115h188l55 285h136l-56 -285h260l-22 -115h-260l-101 -528q-10 -44 -10 -90q0 -186 178 -186l58 4l-25 -119q-22 -4 -51 -4
q-44 0 -82.5 6.5t-80.5 25.5t-71 50t-48 84.5t-19 124.5z" />
    <glyph glyph-name="Tbar" unicode="&#x166;" horiz-adv-x="1341" 
d="M289 0l22 119h189l108 547h-383l23 112h381l106 539h-403l-45 -234h-131l71 357h1207l-70 -357h-129l45 234h-401l-107 -539h385l-22 -112h-383l-109 -547h188l-22 -119h-520z" />
    <glyph glyph-name="tbar" unicode="&#x167;" horiz-adv-x="686" 
d="M166 283q0 47 12 112l35 178h-174l20 113h174l46 234h-185l23 110h186l55 285h138l-56 -285h260l-22 -110h-260l-45 -234h248l-23 -113h-246l-35 -186q-10 -44 -10 -90q0 -186 176 -186l60 4l-25 -119q-22 -4 -53 -4q-57 0 -104 11.5t-94 41t-74 90t-27 148.5z" />
    <glyph glyph-name="Utilde" unicode="&#x168;" horiz-adv-x="1628" 
d="M229 385q0 24 2.5 51.5t5.5 45t7.5 44t5.5 31.5l149 764h-188l22 119h521l-23 -119h-188l-150 -766q-18 -117 -18 -154q0 -137 90.5 -216t251.5 -79q186 0 307 97q137 107 178 307l160 811h-188l22 119h520l-22 -119h-189l-164 -829q-26 -135 -90.5 -240.5t-160.5 -169.5
q-159 -107 -377 -107q-217 0 -350.5 112t-133.5 298zM686 1546q22 116 78 178t139 62q38 0 68 -15t48 -36t33 -42t34 -36t42 -15q75 0 103 138h119q-22 -116 -78.5 -178t-138.5 -62q-39 0 -68.5 14.5t-47.5 35t-33.5 41.5t-34.5 35.5t-42 14.5q-77 0 -102 -135h-119z" />
    <glyph glyph-name="utilde" unicode="&#x169;" horiz-adv-x="1329" 
d="M156 240q0 59 16 137l102 538h-182l21 115h323l-119 -614q-18 -95 -18 -144q0 -81 40.5 -124.5t139.5 -43.5q83 0 162.5 40t139.5 104.5t102.5 145t58.5 163.5l68 358h-183l23 115h324l-150 -764q-6 -35 -6 -59q0 -58 26 -77t72 -19l51 4l-22 -115q-45 -4 -78 -4
q-109 0 -154 65.5t-24 174.5h-4q-19 -33 -46 -66t-69 -69t-89.5 -63t-111 -45t-131.5 -18q-124 0 -203 64.5t-79 200.5zM426 1202q22 116 78 178t139 62q38 0 68 -15t48 -36t33 -42t34 -36t42 -15q75 0 103 138h119q-22 -116 -79 -178t-139 -62q-38 0 -68 14.5t-48 35
t-33 41.5t-34 35.5t-42 14.5q-77 0 -102 -135h-119z" />
    <glyph glyph-name="Umacron" unicode="&#x16a;" horiz-adv-x="1628" 
d="M229 385q0 24 2.5 51.5t5.5 45t7.5 44t5.5 31.5l149 764h-188l22 119h521l-23 -119h-188l-150 -766q-18 -117 -18 -154q0 -137 90.5 -216t251.5 -79q186 0 307 97q137 107 178 307l160 811h-188l22 119h520l-22 -119h-189l-164 -829q-26 -135 -90.5 -240.5t-160.5 -169.5
q-159 -107 -377 -107q-217 0 -350.5 112t-133.5 298zM754 1608l20 112h506l-20 -112h-506z" />
    <glyph glyph-name="umacron" unicode="&#x16b;" horiz-adv-x="1329" 
d="M156 240q0 59 16 137l102 538h-182l21 115h323l-119 -614q-18 -95 -18 -144q0 -81 40.5 -124.5t139.5 -43.5q83 0 162.5 40t139.5 104.5t102.5 145t58.5 163.5l68 358h-183l23 115h324l-150 -764q-6 -35 -6 -59q0 -58 26 -77t72 -19l51 4l-22 -115q-45 -4 -78 -4
q-109 0 -154 65.5t-24 174.5h-4q-19 -33 -46 -66t-69 -69t-89.5 -63t-111 -45t-131.5 -18q-124 0 -203 64.5t-79 200.5zM496 1264l20 112h506l-21 -112h-505z" />
    <glyph glyph-name="Ubreve" unicode="&#x16c;" horiz-adv-x="1628" 
d="M229 385q0 24 2.5 51.5t5.5 45t7.5 44t5.5 31.5l149 764h-188l22 119h521l-23 -119h-188l-150 -766q-18 -117 -18 -154q0 -137 90.5 -216t251.5 -79q186 0 307 97q137 107 178 307l160 811h-188l22 119h520l-22 -119h-189l-164 -829q-26 -135 -90.5 -240.5t-160.5 -169.5
q-159 -107 -377 -107q-217 0 -350.5 112t-133.5 298zM1004 1534q-101 0 -164.5 61t-42.5 158l6 31h117l-7 -27q-11 -64 17.5 -95.5t81.5 -31.5q52 0 94 32t53 95l6 27h117l-6 -31q-19 -110 -94.5 -164.5t-177.5 -54.5z" />
    <glyph glyph-name="ubreve" unicode="&#x16d;" horiz-adv-x="1329" 
d="M156 240q0 59 16 137l102 538h-182l21 115h323l-119 -614q-18 -95 -18 -144q0 -81 40.5 -124.5t139.5 -43.5q83 0 162.5 40t139.5 104.5t102.5 145t58.5 163.5l68 358h-183l23 115h324l-150 -764q-6 -35 -6 -59q0 -58 26 -77t72 -19l51 4l-22 -115q-45 -4 -78 -4
q-109 0 -154 65.5t-24 174.5h-4q-19 -33 -46 -66t-69 -69t-89.5 -63t-111 -45t-131.5 -18q-124 0 -203 64.5t-79 200.5zM743 1190q-100 0 -163.5 61t-42.5 158l6 31h116l-6 -27q-11 -64 17.5 -95.5t81.5 -31.5q52 0 94 32t53 95l6 27h117l-6 -31q-19 -110 -95 -164.5
t-178 -54.5z" />
    <glyph glyph-name="Uring" unicode="&#x16e;" horiz-adv-x="1628" 
d="M997 1507q-64 0 -106.5 37.5t-42.5 97.5q0 74 59 125.5t131 51.5q66 0 109 -37t43 -99q0 -73 -59.5 -124.5t-133.5 -51.5zM1004 1587q39 0 64.5 27t25.5 69q0 27 -16.5 42.5t-45.5 15.5q-35 0 -61.5 -27.5t-26.5 -68.5q0 -26 16 -42t44 -16zM229 385q0 24 2.5 51.5
t5.5 45t7.5 44t5.5 31.5l149 764h-188l22 119h521l-23 -119h-188l-150 -766q-18 -117 -18 -154q0 -137 90.5 -216t251.5 -79q186 0 307 97q137 107 178 307l160 811h-188l22 119h520l-22 -119h-189l-164 -829q-26 -135 -90.5 -240.5t-160.5 -169.5q-159 -107 -377 -107
q-217 0 -350.5 112t-133.5 298z" />
    <glyph glyph-name="uring" unicode="&#x16f;" horiz-adv-x="1329" 
d="M737 1163q-64 0 -106.5 37.5t-42.5 97.5q0 74 59 125.5t131 51.5q66 0 109 -37t43 -99q0 -73 -59.5 -124.5t-133.5 -51.5zM743 1243q40 0 65.5 27.5t25.5 68.5q0 27 -16.5 42.5t-45.5 15.5q-35 0 -61.5 -27.5t-26.5 -69.5q0 -26 15.5 -41.5t43.5 -15.5zM156 240
q0 59 16 137l102 538h-182l21 115h323l-119 -614q-18 -95 -18 -144q0 -81 40.5 -124.5t139.5 -43.5q83 0 162.5 40t139.5 104.5t102.5 145t58.5 163.5l68 358h-183l23 115h324l-150 -764q-6 -35 -6 -59q0 -58 26 -77t72 -19l51 4l-22 -115q-45 -4 -78 -4q-109 0 -154 65.5
t-24 174.5h-4q-19 -33 -46 -66t-69 -69t-89.5 -63t-111 -45t-131.5 -18q-124 0 -203 64.5t-79 200.5z" />
    <glyph glyph-name="Uhungarumlaut" unicode="&#x170;" horiz-adv-x="1628" 
d="M229 385q0 24 2.5 51.5t5.5 45t7.5 44t5.5 31.5l149 764h-188l22 119h521l-23 -119h-188l-150 -766q-18 -117 -18 -154q0 -137 90.5 -216t251.5 -79q186 0 307 97q137 107 178 307l160 811h-188l22 119h520l-22 -119h-189l-164 -829q-26 -135 -90.5 -240.5t-160.5 -169.5
q-159 -107 -377 -107q-217 0 -350.5 112t-133.5 298zM1032 1540l191 244h174l-226 -244h-139zM752 1540l182 244h153l-186 -244h-149z" />
    <glyph glyph-name="uhungarumlaut" unicode="&#x171;" horiz-adv-x="1329" 
d="M156 240q0 59 16 137l102 538h-182l21 115h323l-119 -614q-18 -95 -18 -144q0 -81 40.5 -124.5t139.5 -43.5q83 0 162.5 40t139.5 104.5t102.5 145t58.5 163.5l68 358h-183l23 115h324l-150 -764q-6 -35 -6 -59q0 -58 26 -77t72 -19l51 4l-22 -115q-45 -4 -78 -4
q-109 0 -154 65.5t-24 174.5h-4q-19 -33 -46 -66t-69 -69t-89.5 -63t-111 -45t-131.5 -18q-124 0 -203 64.5t-79 200.5zM772 1196l191 244h174l-226 -244h-139zM492 1196l182 244h153l-186 -244h-149z" />
    <glyph glyph-name="Uogonek" unicode="&#x172;" horiz-adv-x="1628" 
d="M229 395q0 50 13 117l157 809h-188l22 119h521l-23 -119h-188l-158 -815q-10 -41 -10 -96q0 -144 90 -224t252 -80q186 0 316.5 107t168.5 297l160 811h-188l22 119h520l-22 -119h-189l-166 -834q-34 -177 -139 -298t-264 -183q-20 -8 -52.5 -29.5t-69.5 -53.5t-63 -75
t-26 -84q0 -27 15.5 -46.5t37.5 -28t38 -12t26 -3.5l-49 -108q-15 2 -34.5 6.5t-49 17t-53 30t-41 48t-17.5 68.5q0 128 152 241q-77 -4 -149.5 7t-141 41.5t-119 78t-81 122.5t-30.5 169z" />
    <glyph glyph-name="uogonek" unicode="&#x173;" horiz-adv-x="1329" 
d="M791 -264q0 141 192 270q-67 21 -90 83t-4 147h-4q-19 -33 -46 -66t-69 -69t-89.5 -63t-111 -45t-131.5 -18q-124 0 -203 64.5t-79 200.5q0 59 16 137l102 538h-182l21 115h323l-119 -614q-18 -95 -18 -144q0 -81 40.5 -124.5t139.5 -43.5q83 0 162.5 40t139.5 104.5
t102.5 145t58.5 163.5l68 358h-183l23 115h324l-150 -764q-6 -35 -6 -59q0 -58 26 -77t72 -19l51 4l-22 -115q-11 0 -21 -2q-28 -8 -75.5 -44.5t-89 -91t-41.5 -98.5q0 -27 15.5 -46.5t37.5 -28t37.5 -12t25.5 -3.5l-49 -108q-20 2 -46 10t-62.5 25.5t-61 53t-24.5 81.5z
" />
    <glyph glyph-name="Wcircumflex" unicode="&#x174;" horiz-adv-x="2045" 
d="M942 1540l221 244h166l123 -244h-135l-78 166h-4l-143 -166h-150zM397 0l-75 1321h-148l25 119h458l-24 -119h-172l53 -1059l-4 -94h6q19 49 39 94l559 1178h133l103 -1178v-94h8q15 49 33 94l464 1059h-172l23 119h469l-23 -119h-145l-594 -1321h-168l-98 1133
q-2 19 -2 42.5t1 37.5l1 14h-6q-15 -51 -35 -94l-539 -1133h-170z" />
    <glyph glyph-name="wcircumflex" unicode="&#x175;" horiz-adv-x="1748" 
d="M725 1196l221 244h166l123 -244h-135l-78 166h-4l-144 -166h-149zM332 0l-115 915h-131l20 115h422l-20 -115h-156l82 -692l-2 -80h6q13 43 31 80l416 803h137l100 -803l2 -80h4q13 43 31 80l350 692h-153l22 115h432l-22 -115h-133l-471 -915h-150l-104 772l-4 82h-4
q-15 -45 -35 -82l-406 -772h-149z" />
    <glyph glyph-name="Ycircumflex" unicode="&#x176;" horiz-adv-x="1318" 
d="M281 0l24 119h189l98 499l-289 703h-141l24 119h449l-25 -119h-159l208 -524l19 -56h4q19 29 39 56l418 524h-162l22 119h461l-24 -119h-142l-559 -703l-98 -499h188l-24 -119h-520zM578 1540l221 244h166l122 -244h-135l-78 166h-4l-143 -166h-149z" />
    <glyph glyph-name="ycircumflex" unicode="&#x177;" horiz-adv-x="1181" 
d="M-37 -264q6 -5 16 -12t43 -19t68 -12q66 0 125 45.5t104 118.5l84 137l-188 921h-135l22 115h426l-22 -115h-150l133 -702l5 -74h4q14 35 37 74l405 702h-149l22 115h432l-22 -115h-136l-653 -1105q-143 -240 -348 -240q-56 0 -104 15t-68 31l-20 15zM451 1196l221 244
h166l123 -244h-136l-77 166h-5l-143 -166h-149z" />
    <glyph glyph-name="Ydieresis" unicode="&#x178;" horiz-adv-x="1318" 
d="M281 0l24 119h189l98 499l-289 703h-141l24 119h449l-25 -119h-159l208 -524l19 -56h4q19 29 39 56l418 524h-162l22 119h461l-24 -119h-142l-559 -703l-98 -499h188l-24 -119h-520zM971 1608l35 176h143l-37 -176h-141zM596 1608l35 176h141l-35 -176h-141z" />
    <glyph glyph-name="Zacute" unicode="&#x179;" horiz-adv-x="1282" 
d="M707 1540l249 244h187l-281 -244h-155zM4 0l21 100l1001 1149q16 18 34 35t28 25l10 8v4q-39 -4 -80 -4h-619l-45 -234h-131l72 357h1010l-19 -101l-1005 -1149q-16 -18 -34 -35t-28 -25l-10 -7v-4q39 4 80 4h649l47 239h131l-72 -362h-1040z" />
    <glyph glyph-name="zacute" unicode="&#x17a;" horiz-adv-x="1060" 
d="M530 1196l250 244h187l-281 -244h-156zM-20 0l18 98l723 729l92 88v5q-37 -5 -100 -5h-400l-34 -182h-125l57 297h809l-21 -100l-723 -727q-21 -21 -43.5 -42.5t-36.5 -34t-14 -11.5v-4q42 4 103 4h450l35 182h127l-57 -297h-860z" />
    <glyph glyph-name="Zdotaccent" unicode="&#x17b;" horiz-adv-x="1282" 
d="M4 0l21 100l1001 1149q16 18 34 35t28 25l10 8v4q-39 -4 -80 -4h-619l-45 -234h-131l72 357h1010l-19 -101l-1005 -1149q-16 -18 -34 -35t-28 -25l-10 -7v-4q39 4 80 4h649l47 239h131l-72 -362h-1040zM752 1610l34 174h146l-33 -174h-147z" />
    <glyph glyph-name="zdotaccent" unicode="&#x17c;" horiz-adv-x="1060" 
d="M-20 0l18 98l723 729l92 88v5q-37 -5 -100 -5h-400l-34 -182h-125l57 297h809l-21 -100l-723 -727q-21 -21 -43.5 -42.5t-36.5 -34t-14 -11.5v-4q42 4 103 4h450l35 182h127l-57 -297h-860zM575 1266l35 174h146l-33 -174h-148z" />
    <glyph glyph-name="Zcaron" unicode="&#x17d;" horiz-adv-x="1282" 
d="M733 1540l-123 244h135l78 -164h4l144 164h149l-221 -244h-166zM4 0l21 100l1001 1149q16 18 34 35t28 25l10 8v4q-39 -4 -80 -4h-619l-45 -234h-131l72 357h1010l-19 -101l-1005 -1149q-16 -18 -34 -35t-28 -25l-10 -7v-4q39 4 80 4h649l47 239h131l-72 -362h-1040z" />
    <glyph glyph-name="zcaron" unicode="&#x17e;" horiz-adv-x="1060" 
d="M559 1196l-123 244h135l78 -164h4l144 164h149l-221 -244h-166zM-20 0l18 98l723 729l92 88v5q-37 -5 -100 -5h-400l-34 -182h-125l57 297h809l-21 -100l-723 -727q-21 -21 -43.5 -42.5t-36.5 -34t-14 -11.5v-4q42 4 103 4h450l35 182h127l-57 -297h-860z" />
    <glyph glyph-name="longs" unicode="&#x17f;" horiz-adv-x="563" 
d="M121 0l178 918h-184l20 112h184l11 45q19 96 60 168t85.5 110.5t100 61.5t94.5 29t78 6q20 0 39 -1.5t27 -2.5l9 -2l-26 -119q-19 4 -52 4q-28 0 -54 -3.5t-62.5 -19t-65 -41t-55 -74t-39.5 -114.5l-209 -1077h-139z" />
    <glyph glyph-name="florin" unicode="&#x192;" horiz-adv-x="983" 
d="M-205 -82q59 -12 125 -12q28 0 56 4.5t66 21.5t69.5 44t63 77.5t50.5 116.5l162 578h-182l22 116h193l67 234q26 94 70.5 164t90 107t101 60t95 29t80.5 6q42 0 89 -4t73 -8l26 -4l-22 -121q-92 14 -164 14q-29 0 -56.5 -5t-65 -21.5t-68.5 -43.5t-62 -77t-51 -117
l-62 -213h256l-22 -116h-267l-172 -605q-26 -92 -70.5 -161t-89.5 -106t-100 -59t-94.5 -28t-79.5 -6q-37 0 -75 3.5t-57 7.5l-19 3z" />
    <glyph glyph-name="Scommaaccent" unicode="&#x218;" horiz-adv-x="1175" 
d="M375 -127h133q2 -10 2 -43q0 -81 -46.5 -154.5t-125.5 -119.5l-59 59q102 92 102 199q0 24 -6 59zM72 274l24 136h137l-22 -119q-13 -64 30.5 -107.5t111.5 -60.5t151 -17q156 0 262 84.5t106 221.5q0 56 -22 99.5t-59 72.5t-85 52.5t-101 44t-106.5 41.5t-101.5 50
t-85 65t-59 90.5t-22 123.5q0 126 75 222t193.5 143.5t258.5 47.5q66 0 134 -14t128 -41.5t92.5 -74.5t20.5 -105l-29 -144h-137l20 105q7 39 -14 68.5t-61.5 45t-84.5 22.5t-90 7q-147 0 -250.5 -76.5t-103.5 -199.5q0 -51 22 -91t59 -66.5t85 -49t101 -42.5t105.5 -41.5
t100.5 -51.5t85 -68t59 -95t22 -128q0 -132 -74 -236t-196 -158.5t-267 -54.5q-57 0 -115.5 9t-118.5 31t-103.5 55t-65.5 86t-10 118z" />
    <glyph glyph-name="scommaaccent" unicode="&#x219;" horiz-adv-x="970" 
d="M274 -127h134q2 -10 2 -43q0 -81 -46.5 -154.5t-125.5 -119.5l-60 59q103 93 103 199q0 19 -7 59zM23 219l18 100h127l-14 -77q-9 -45 14.5 -76t68 -45t84 -19.5t80.5 -5.5q111 0 191 49.5t80 133.5q0 45 -28 79.5t-72 57.5t-98 44t-108 45.5t-98 54.5t-72 78t-28 110
q0 95 60.5 166.5t153.5 106t200 34.5q87 0 159.5 -23t115 -72t28.5 -114l-23 -111h-129l19 86q6 33 -10.5 56.5t-49.5 35t-66 16.5t-69 5q-99 0 -174.5 -46.5t-75.5 -127.5q0 -44 28 -78t72.5 -56.5t98.5 -42.5t108 -43.5t98.5 -53t72.5 -77t28 -108.5q0 -142 -119.5 -234
t-314.5 -92q-69 0 -135 14.5t-121.5 42.5t-84 77t-15.5 110z" />
    <glyph glyph-name="uni021A" unicode="&#x21a;" horiz-adv-x="1341" 
d="M455 -127h133q2 -10 2 -43q0 -81 -46.5 -154.5t-125.5 -119.5l-60 59q103 93 103 199q0 24 -6 59zM289 0l22 119h189l235 1198h-403l-45 -234h-131l71 357h1207l-70 -357h-129l45 234h-401l-236 -1198h188l-22 -119h-520z" />
    <glyph glyph-name="uni021B" unicode="&#x21b;" horiz-adv-x="688" 
d="M221 -127h133q2 -10 2 -43q0 -81 -46.5 -154.5t-125.5 -119.5l-59 59q102 92 102 199q0 24 -6 59zM166 283q0 47 12 112l101 520h-185l23 115h188l55 285h136l-56 -285h260l-22 -115h-260l-101 -528q-10 -44 -10 -90q0 -186 178 -186l58 4l-25 -119q-22 -4 -51 -4
q-44 0 -82.5 6.5t-80.5 25.5t-71 50t-48 84.5t-19 124.5z" />
    <glyph glyph-name="circumflex" unicode="&#x2c6;" horiz-adv-x="1032" 
d="M117 1540l221 244h166l123 -244h-135l-78 166h-4l-144 -166h-149z" />
    <glyph glyph-name="caron" unicode="&#x2c7;" horiz-adv-x="1032" 
d="M303 1540l-123 244h135l78 -164h4l144 164h149l-221 -244h-166z" />
    <glyph glyph-name="breve" unicode="&#x2d8;" horiz-adv-x="1034" 
d="M385 1534q-101 0 -164.5 61t-42.5 158l6 31h117l-6 -27q-11 -64 17 -95.5t81 -31.5q52 0 94.5 32t53.5 95l6 27h117l-7 -31q-19 -110 -94.5 -164.5t-177.5 -54.5z" />
    <glyph glyph-name="dotaccent" unicode="&#x2d9;" horiz-adv-x="1034" 
d="M322 1610l34 174h146l-33 -174h-147z" />
    <glyph glyph-name="ring" unicode="&#x2da;" horiz-adv-x="1034" 
d="M383 1507q-64 0 -107 37.5t-43 97.5q0 74 59.5 125.5t131.5 51.5q66 0 108.5 -37t42.5 -99q0 -73 -59 -124.5t-133 -51.5zM389 1587q39 0 64.5 27t25.5 69q0 27 -16 42.5t-45 15.5q-35 0 -61.5 -27.5t-26.5 -68.5q0 -27 16 -42.5t43 -15.5z" />
    <glyph glyph-name="ogonek" unicode="&#x2db;" horiz-adv-x="1032" 
d="M233 -264q0 161 244 301h107l-6 -37q-14 0 -49 -22.5t-73 -56t-67 -77.5t-29 -80q0 -27 15.5 -46.5t37.5 -28t37.5 -12t24.5 -3.5l-49 -108q-14 2 -33 6.5t-49 17t-53 30t-40.5 48t-17.5 68.5z" />
    <glyph glyph-name="tilde" unicode="&#x2dc;" horiz-adv-x="1032" 
d="M70 1546q22 116 78 178t139 62q38 0 68 -15t48 -36t33 -42t34 -36t42 -15q74 0 102 138h119q-22 -116 -78.5 -178t-138.5 -62q-39 0 -68.5 14.5t-47.5 35t-33 41.5t-34 35.5t-42 14.5q-44 0 -68.5 -41t-34.5 -94h-118z" />
    <glyph glyph-name="hungarumlaut" unicode="&#x2dd;" horiz-adv-x="1032" 
d="M362 1540l191 244h174l-225 -244h-140zM82 1540l182 244h154l-187 -244h-149z" />
    <glyph glyph-name="uni1E9E" unicode="&#x1e9e;" horiz-adv-x="1449" 
d="M-33 0l25 119h186l180 930q33 172 162.5 281.5t306.5 109.5h568l-19 -99l-379 -450l-39 -41v-4q67 -11 127.5 -36.5t112.5 -66.5t82.5 -103t30.5 -138q0 -107 -46 -202t-127.5 -164.5t-198.5 -109.5t-253 -40q-37 0 -74 3t-59 6t-43 7t-23 4l25 129q90 -18 172 -18
q215 0 346 105t131 272q0 109 -94 175t-287 79l17 83l360 437l45 45l2 4q-28 -4 -55 -4h-332q-115 0 -205 -75.5t-110 -186.5l-205 -1051h-330z" />
    <glyph glyph-name="thinspace" unicode="&#x2009;" horiz-adv-x="567" 
 />
    <glyph glyph-name="endash" unicode="&#x2013;" horiz-adv-x="1462" 
d="M203 522l22 119h1022l-20 -119h-1024z" />
    <glyph glyph-name="emdash" unicode="&#x2014;" horiz-adv-x="1871" 
d="M203 522l22 119h1432l-21 -119h-1433z" />
    <glyph glyph-name="quoteleft" unicode="&#x2018;" horiz-adv-x="460" 
d="M199 1042l211 416h116l-170 -416h-157z" />
    <glyph glyph-name="quoteright" unicode="&#x2019;" horiz-adv-x="452" 
d="M205 1042l170 416h157l-210 -416h-117z" />
    <glyph glyph-name="quotesinglbase" unicode="&#x201a;" horiz-adv-x="499" 
d="M-66 -250l172 418h156l-209 -418h-119z" />
    <glyph glyph-name="quotedblleft" unicode="&#x201c;" horiz-adv-x="722" 
d="M461 1042l211 416h116l-172 -416h-155zM199 1042l211 416h116l-170 -416h-157z" />
    <glyph glyph-name="quotedblright" unicode="&#x201d;" horiz-adv-x="712" 
d="M465 1042l172 416h156l-211 -416h-117zM205 1042l170 416h157l-210 -416h-117z" />
    <glyph glyph-name="quotedblbase" unicode="&#x201e;" horiz-adv-x="761" 
d="M367 168h157l-211 -418h-116zM106 168h156l-209 -418h-119z" />
    <glyph glyph-name="dagger" unicode="&#x2020;" horiz-adv-x="817" 
d="M201 -102l196 1013h-239l22 119h240l78 410h137l-78 -410h248l-23 -119h-250l-196 -1013h-135z" />
    <glyph glyph-name="daggerdbl" unicode="&#x2021;" horiz-adv-x="839" 
d="M211 -102l90 469h-240l23 118h240l84 426h-240l22 119h240l80 410h135l-78 -410h248l-22 -119h-250l-84 -426h250l-25 -118h-248l-90 -469h-135z" />
    <glyph glyph-name="bullet" unicode="&#x2022;" horiz-adv-x="831" 
d="M414 303q-122 0 -207.5 85.5t-85.5 207.5t85.5 207.5t207.5 85.5q121 0 206 -85.5t85 -207.5t-85 -207.5t-206 -85.5z" />
    <glyph glyph-name="ellipsis" unicode="&#x2026;" horiz-adv-x="1464" 
d="M1020 0l33 170h166l-35 -170h-164zM539 0l32 170h166l-35 -170h-163zM57 0l33 170h164l-33 -170h-164z" />
    <glyph glyph-name="perthousand" unicode="&#x2030;" horiz-adv-x="2166" 
d="M483 895q-116 0 -184 68.5t-68 183.5q0 121 103.5 219t234.5 98q113 0 180.5 -70t67.5 -180q0 -125 -103.5 -222t-230.5 -97zM29 0l1362 1440h157l-1362 -1440h-157zM496 1010q79 0 139.5 61t60.5 143q0 58 -38.5 97t-100.5 39q-78 0 -140.5 -62t-62.5 -143
q0 -58 39.5 -96.5t102.5 -38.5zM1444 227q0 121 103 219.5t233 98.5q114 0 182 -70t68 -180q0 -125 -103.5 -222.5t-232.5 -97.5q-115 0 -182.5 68.5t-67.5 183.5zM752 227q0 121 103.5 219.5t234.5 98.5q114 0 181.5 -70t67.5 -180q0 -125 -103.5 -222.5t-231.5 -97.5
q-116 0 -184 68.5t-68 183.5zM1567 225q0 -59 38.5 -97t100.5 -38q79 0 140 60.5t61 142.5q0 59 -38.5 98t-99.5 39q-79 0 -140.5 -62t-61.5 -143zM874 225q0 -59 39 -97t103 -38q79 0 140 60.5t61 142.5q0 59 -39 98t-101 39q-78 0 -140.5 -62t-62.5 -143z" />
    <glyph glyph-name="guilsinglleft" unicode="&#x2039;" horiz-adv-x="698" 
d="M356 158l-262 424l393 417h160l-409 -428l260 -413h-142z" />
    <glyph glyph-name="guilsinglright" unicode="&#x203a;" horiz-adv-x="702" 
d="M45 158l410 428l-260 413h141l262 -424l-393 -417h-160z" />
    <glyph glyph-name="fraction" unicode="&#x2044;" horiz-adv-x="305" 
d="M-244 0h-127l967 1440h127z" />
    <glyph glyph-name="zerosuperior" unicode="&#x2070;" horiz-adv-x="874" 
d="M496 846q-139 0 -198.5 75.5t-59.5 215.5q0 60 9 126t27 140t51 139.5t76 119t106 85t138 31.5q138 0 198 -77t60 -218q0 -59 -9 -125t-28 -139t-52 -138.5t-76 -118.5t-105.5 -84.5t-136.5 -31.5zM498 952q61 0 111.5 36.5t82.5 93t54 128.5t31 139.5t9 129.5
q0 194 -145 194q-76 0 -135 -55t-91 -140t-47.5 -171.5t-15.5 -165.5q0 -189 146 -189z" />
    <glyph glyph-name="foursuperior" unicode="&#x2074;" horiz-adv-x="876" 
d="M575 866l48 236h-433l15 76l545 579h112l-108 -559h133l-19 -96h-133l-47 -236h-113zM342 1198h299l64 330l24 88h-4q-26 -41 -59 -74l-324 -340v-4z" />
    <glyph glyph-name="fivesuperior" unicode="&#x2075;" horiz-adv-x="827" 
d="M465 846q-50 0 -98 13.5t-80 32t-57 37.5t-36 33l-12 13l76 74q3 -4 9.5 -10.5t28 -24t44 -30.5t57.5 -23.5t70 -10.5q98 0 168 66t70 158q0 75 -50 122t-131 47q-40 0 -81.5 -12.5t-62.5 -24.5l-22 -12l-63 25l137 438h457l-41 -209h-103l23 113h-260l-62 -205l-16 -43
h2q47 23 121 23q119 0 192.5 -73t73.5 -185q0 -133 -103 -232.5t-251 -99.5z" />
    <glyph glyph-name="sixsuperior" unicode="&#x2076;" horiz-adv-x="854" 
d="M504 846q-129 0 -201 86t-72 231q0 68 20.5 149t63 163t99.5 150t138 110.5t171 42.5q50 0 95.5 -11t65.5 -23l21 -11l-55 -91q-53 31 -131 31q-110 0 -199 -90.5t-133 -222.5h4q39 36 96 58t115 22q108 0 175 -65t67 -173q0 -107 -51 -190t-127.5 -124.5t-161.5 -41.5z
M508 952q96 0 157.5 73t61.5 173q0 66 -41 105.5t-113 39.5q-82 0 -154.5 -56.5t-72.5 -129.5q0 -81 43.5 -143t118.5 -62z" />
    <glyph glyph-name="sevensuperior" unicode="&#x2077;" horiz-adv-x="604" 
d="M170 866l526 752q7 11 16.5 22t15.5 16l5 5l2 4q-26 -4 -51 -4h-315l-23 -113h-102l41 209h600l-15 -76l-571 -815h-129z" />
    <glyph glyph-name="eightsuperior" unicode="&#x2078;" horiz-adv-x="849" 
d="M487 846q-118 0 -200 62t-82 173q0 156 201 289q-76 60 -76 148q0 82 49 143t118.5 89t145.5 28q108 0 180 -54.5t72 -146.5q0 -141 -166 -281q100 -68 100 -168q0 -115 -103.5 -198.5t-238.5 -83.5zM645 1343q18 14 37 32.5t43 48t39.5 67t15.5 74.5q0 54 -42 82
t-103 28q-73 0 -133 -40.5t-60 -112.5q0 -22 9.5 -42t20.5 -33.5t36 -30t40 -24.5t49 -25zM489 948q83 0 153.5 51.5t70.5 126.5q0 28 -12 51t-39 43t-49 32.5t-65 33t-63 31.5q-163 -101 -163 -227q0 -65 49 -103.5t118 -38.5z" />
    <glyph glyph-name="ninesuperior" unicode="&#x2079;" horiz-adv-x="835" 
d="M391 846q-51 0 -97.5 11t-67.5 23l-21 11l57 90q51 -29 131 -29q108 0 197 91t133 223h-4q-39 -36 -96.5 -59t-114.5 -23q-108 0 -174 65.5t-66 173.5q0 106 50.5 189t126.5 124.5t161 41.5q130 0 202.5 -86.5t72.5 -231.5q0 -56 -15 -122t-43 -134.5t-71.5 -132.5
t-96 -114.5t-121.5 -80.5t-143 -30zM537 1280q82 0 154.5 57t72.5 131q0 81 -42.5 143t-117.5 62q-97 0 -159 -73.5t-62 -172.5q0 -67 41.5 -107t112.5 -40z" />
    <glyph glyph-name="zeroinferior" unicode="&#x2080;" horiz-adv-x="823" 
d="M244 -342q-139 0 -198.5 75.5t-59.5 215.5q0 60 9 126t27 140t51 139.5t76 119t106 85t138 31.5q138 0 198 -77t60 -218q0 -59 -9 -125t-28 -139t-52 -138.5t-76 -118.5t-105.5 -84.5t-136.5 -31.5zM246 -236q61 0 111.5 36.5t82.5 93t54 128.5t31.5 139.5t9.5 129.5
q0 194 -146 194q-76 0 -135 -55t-91 -140t-47.5 -171.5t-15.5 -165.5q0 -189 146 -189z" />
    <glyph glyph-name="oneinferior" unicode="&#x2081;" horiz-adv-x="653" 
d="M-100 -322l18 99h215l109 567l18 74h-4q-20 -26 -53 -53l-113 -95l-59 80l264 219h106l-155 -792h211l-21 -99h-536z" />
    <glyph glyph-name="twoinferior" unicode="&#x2082;" horiz-adv-x="749" 
d="M-96 -322q2 83 34 152t82 116t110.5 87.5t120 75t109 70t80.5 81t31 98.5q0 55 -38 91t-101 36q-49 0 -100 -25t-77 -50l-26 -25l-66 78l13.5 13.5t37.5 30.5t59 39t75.5 30.5t89.5 13.5q117 0 184.5 -61t67.5 -162q0 -66 -27 -122t-71 -95.5t-97.5 -74t-110.5 -67
t-106 -64.5t-87 -75t-52 -92h360l23 112h100l-39 -211h-579z" />
    <glyph glyph-name="threeinferior" unicode="&#x2083;" horiz-adv-x="757" 
d="M205 -344q-55 0 -105.5 14t-84 33.5t-59 39.5t-36.5 34l-12 14l80 74q3 -4 9 -11t26.5 -25t44 -31.5t61 -24.5t76.5 -11q86 0 152.5 62.5t66.5 152.5q0 64 -51 102t-121 38h-64l-18 61l264 254l51 41v4q-26 -6 -59 -6h-240l-22 -113h-103l41 209h545l-14 -73l-301 -289
q34 -5 67 -19t66.5 -39.5t54.5 -69.5t21 -100q0 -127 -99.5 -224t-236.5 -97z" />
    <glyph glyph-name="fourinferior" unicode="&#x2084;" horiz-adv-x="784" 
d="M301 -322l47 236h-432l14 76l545 579h113l-109 -559h133l-18 -96h-133l-47 -236h-113zM68 10h299l63 330l25 88h-4q-27 -41 -60 -74l-323 -340v-4z" />
    <glyph glyph-name="fiveinferior" unicode="&#x2085;" horiz-adv-x="749" 
d="M190 -342q-50 0 -98 13.5t-79.5 32t-56.5 37.5t-36 33l-12 13l76 74q3 -4 9.5 -10.5t28 -24t44 -30.5t57.5 -23.5t70 -10.5q98 0 167.5 66t69.5 158q0 76 -49.5 123t-130.5 47q-40 0 -81.5 -12.5t-62.5 -25.5l-22 -12l-64 25l138 438h456l-41 -209h-102l23 113h-261
l-61 -205l-16 -43h2q47 23 121 23q119 0 192.5 -73t73.5 -185q0 -133 -103.5 -232.5t-251.5 -99.5z" />
    <glyph glyph-name="sixinferior" unicode="&#x2086;" horiz-adv-x="786" 
d="M250 -342q-129 0 -201 86t-72 231q0 68 20.5 149t63 163t99.5 150t138 110.5t171 42.5q50 0 95.5 -11t65.5 -23l21 -11l-55 -90q-53 30 -131 30q-110 0 -199 -90.5t-133 -222.5h4q39 36 96 58t115 22q108 0 175 -65t67 -173q0 -107 -51 -190t-127.5 -124.5t-161.5 -41.5z
M254 -236q96 0 157.5 73t61.5 173q0 67 -41.5 106.5t-112.5 39.5q-82 0 -154.5 -57t-72.5 -130q0 -81 43.5 -143t118.5 -62z" />
    <glyph glyph-name="seveninferior" unicode="&#x2087;" horiz-adv-x="710" 
d="M-53 -324l526 752q7 11 16.5 22t14.5 16l6 5l2 4q-26 -4 -51 -4h-316l-22 -113h-103l41 209h601l-15 -75l-571 -816h-129z" />
    <glyph glyph-name="eightinferior" unicode="&#x2088;" horiz-adv-x="798" 
d="M236 -340q-118 0 -200.5 62.5t-82.5 173.5q0 155 201 288q-76 60 -76 148q0 82 49 143t118.5 89t145.5 28q108 0 180 -54.5t72 -146.5q0 -140 -166 -280q101 -69 101 -168q0 -116 -103.5 -199.5t-238.5 -83.5zM393 158q26 20 52 46t54.5 76.5t28.5 98.5q0 54 -42.5 82
t-102.5 28q-73 0 -133 -40.5t-60 -112.5q0 -22 9 -42t20.5 -33.5t36 -29.5t40 -24t49 -24.5t48.5 -24.5zM238 -238q83 0 153 52t70 127q0 28 -12 51t-39 42.5t-49.5 32t-64.5 33t-63 31.5q-163 -101 -163 -227q0 -65 49.5 -103.5t118.5 -38.5z" />
    <glyph glyph-name="nineinferior" unicode="&#x2089;" horiz-adv-x="786" 
d="M135 -342q-51 0 -97.5 11t-67.5 23l-21 11l57 90q51 -29 131 -29q108 0 197 91t133 223h-4q-39 -36 -96.5 -59t-114.5 -23q-108 0 -174 66t-66 174q0 106 50.5 188.5t126.5 124t161 41.5q130 0 202.5 -86.5t72.5 -231.5q0 -56 -15 -122t-43 -134.5t-71.5 -132.5
t-96 -114.5t-121.5 -80.5t-143 -30zM281 92q82 0 154.5 57.5t72.5 131.5q0 80 -42.5 142t-117.5 62q-97 0 -159 -73t-62 -172q0 -68 42 -108t112 -40z" />
    <glyph glyph-name="Euro" unicode="&#x20ac;" horiz-adv-x="1228" 
d="M88 526l21 103h112q2 86 31 207h-109l19 102h125q104 234 314.5 380t457.5 146q55 0 108 -7t79 -14l26 -7l-58 -123q-73 20 -159 20q-192 0 -357 -108t-254 -287h627l-41 -102h-629q-28 -108 -34 -207h587l-39 -103h-544q11 -184 126.5 -302t323.5 -118q45 0 92.5 7
t72.5 15l24 7l6 -131q-86 -29 -203 -29q-257 0 -420 152t-174 399h-131z" />
    <glyph glyph-name="trademark" unicode="&#x2122;" horiz-adv-x="2097" 
d="M1049 543l71 897h105l237 -514l29 -84h4q11 45 29 84l235 514h105l71 -897h-114l-49 608l2 59h-5l-229 -499h-96l-230 499h-4l2 -59l-49 -608h-114zM537 543v790h-320v107h756v-107h-320v-790h-116z" />
    <glyph glyph-name="minus" unicode="&#x2212;" horiz-adv-x="1241" 
d="M96 522v119h1037v-119h-1037z" />
    <glyph glyph-name="infinity" unicode="&#x221e;" horiz-adv-x="964" 
d="M500 360q-147 0 -251 104t-104 251t103.5 249.5t251.5 102.5q147 0 249.5 -102.5t102.5 -249.5t-103 -251t-249 -104z" />
    <glyph glyph-name="approxequal" unicode="&#x2248;" horiz-adv-x="1241" 
d="M182 657l-67 91q59 59 137.5 100t161.5 41q65 0 124 -22.5t96.5 -49.5t87 -49.5t97.5 -22.5q62 0 124 33t108 80l67 -88q-57 -59 -135.5 -100t-163.5 -41q-65 0 -124 22.5t-96.5 49t-87 49t-97.5 22.5q-61 0 -122 -33t-110 -82zM182 303l-67 88q59 59 137.5 100t161.5 41
q65 0 124 -22.5t96.5 -49t87 -49t97.5 -22.5q61 0 123.5 33.5t108.5 81.5l67 -90q-57 -59 -135.5 -100.5t-163.5 -41.5q-65 0 -124 22.5t-96.5 49.5t-87 49.5t-97.5 22.5q-61 0 -122.5 -32.5t-109.5 -80.5z" />
    <glyph glyph-name="notequal" unicode="&#x2260;" horiz-adv-x="1241" 
d="M252 170l127 174h-244v119h326l176 237h-502v119h586l174 238l86 -60l-133 -178h242v-119h-324l-176 -237h500v-119h-582l-170 -233z" />
    <glyph glyph-name="lessequal" unicode="&#x2264;" horiz-adv-x="1241" 
d="M115 530v103l925 414v-138l-753 -325v-4l753 -326v-137zM115 -213h925v-119h-925v119z" />
    <glyph glyph-name="greaterequal" unicode="&#x2265;" horiz-adv-x="1241" 
d="M197 117v137l751 326v4l-751 325v138l925 -414v-103zM195 -213h923v-119h-923v119z" />
    <glyph glyph-name="commaaccent" horiz-adv-x="686" 
d="M133 -127h133q2 -10 2 -43q0 -81 -46.5 -154.5t-125.5 -119.5l-59 59q102 92 102 199q0 24 -6 59z" />
    <glyph glyph-name="apple" horiz-adv-x="2314" 
d="M225 -10v311l-258 148v569l258 145v310l543 290l274 -145l271 145l542 -290v-310l254 -145v-569l-254 -148v-311l-542 -289l-271 145l-274 -145zM307 61l488 -258l247 136l242 -136l488 258v285l233 131v510l-233 135v279l-488 258l-242 -131l-247 131l-488 -258v-279
l-233 -135v-510l233 -131v-285zM377 131v248l-203 123v461l203 118v252l440 234l225 -121l220 121l438 -234v-252l205 -118v-461l-205 -123v-248l-438 -233l-220 118l-225 -118zM788 186h123v445h447v108h-447v367h361q33 0 44 -11.5t11 -43.5v-78h115v131q0 60 -26 86.5
t-89 26.5h-665v-111h126v-920z" />
    <glyph glyph-name="zero.tnum" 
d="M74 440q0 83 10 173.5t33.5 191t58.5 193.5t88 178.5t118 149t153.5 101t189.5 37.5q405 0 405 -467q0 -83 -10 -173t-33.5 -190.5t-57.5 -193.5t-87.5 -178.5t-118 -148.5t-153.5 -100.5t-191 -37.5q-211 0 -308 123.5t-97 341.5zM219 440q0 -334 262 -334q78 0 146 33
t118 88t91 129.5t68 156t45 168.5t26 165.5t8 148.5q0 162 -61 250t-201 88q-85 0 -159.5 -41.5t-128 -112t-96 -160t-67.5 -191t-38 -199.5t-13 -189z" />
    <glyph glyph-name="one.tnum" 
d="M106 0l23 123h324l202 1040l21 90h-4q-29 -34 -74 -71l-197 -164l-77 98l393 324h131l-256 -1317h315l-24 -123h-777z" />
    <glyph glyph-name="two.tnum" 
d="M0 0q2 96 35.5 181t88 150t125 123.5t148 107.5t154.5 96t146.5 96.5t123.5 101t85.5 116t31.5 136.5q0 103 -66 164t-184 61q-60 0 -119.5 -20t-102 -49t-76.5 -58t-51 -49l-17 -20l-99 77q8 10 22.5 27t62.5 60t99.5 76t130.5 60t158 27q185 0 289.5 -95t104.5 -251
q0 -81 -29 -154t-78.5 -131t-113.5 -111t-137 -99.5t-146.5 -91t-142.5 -90.5t-125 -93.5t-96 -105t-52 -119.5h661l41 201h129l-63 -324h-938z" />
    <glyph glyph-name="three.tnum" 
d="M12 172l92 96q5 -7 14.5 -17.5t42.5 -38.5t69.5 -49.5t93.5 -39t116 -17.5q105 0 199 48.5t152.5 134.5t58.5 188q0 123 -85 187.5t-218 64.5l-96 -6l-23 86l475 465q11 10 25.5 21t23.5 17l9 5v4q-41 -4 -68 -4h-469l-39 -197h-131l63 320h850l-18 -101l-520 -501
q46 -2 92.5 -12.5t97.5 -36t89.5 -63t63.5 -98t25 -136.5q0 -101 -43 -196t-116.5 -165.5t-177 -113t-218.5 -42.5q-79 0 -152 20.5t-121.5 49.5t-85.5 57.5t-54 49.5z" />
    <glyph glyph-name="four.tnum" 
d="M-2 399l16 93l887 948h158l-178 -920h204l-24 -121h-205l-78 -399h-141l78 399h-717zM199 520h540l127 649q3 19 9 43t11 38l5 14h-4q-29 -43 -64 -80l-624 -660v-4z" />
    <glyph glyph-name="five.tnum" 
d="M29 164l92 90q4 -6 12.5 -16t38 -35.5t63 -45t87.5 -35.5t112 -16q110 0 209 53t161 146t62 201q0 128 -85 203t-224 75q-70 0 -139.5 -20t-103.5 -40l-35 -19l-89 34l216 701h704l-63 -320h-132l41 197h-448l-117 -375l-31 -86h5q10 6 29 15t78 23.5t120 14.5
q187 0 304.5 -111t117.5 -290q0 -108 -48 -207t-128 -170.5t-187.5 -113.5t-222.5 -42q-78 0 -148 19.5t-114 47.5t-76.5 55.5t-46.5 46.5z" />
    <glyph glyph-name="six.tnum" 
d="M90 492q0 76 16.5 163.5t50 181.5t81.5 184t115 170t145 141t177.5 96.5t207.5 35.5q75 0 143 -15t98 -29l31 -15l-70 -119q-9 5 -26.5 13t-70.5 21t-107 13q-110 0 -210 -50.5t-174.5 -134.5t-128.5 -184.5t-85 -209.5h4q67 78 170 123t211 45q177 0 283 -103.5
t106 -273.5q0 -104 -38 -205.5t-105 -183t-169 -131.5t-221 -50q-203 0 -318.5 141.5t-115.5 375.5zM236 465q0 -89 32.5 -169.5t100.5 -135t159 -54.5q106 0 193.5 58t137.5 157.5t50 217.5q0 120 -71.5 189t-200.5 69q-64 0 -134 -24.5t-129.5 -66.5t-98.5 -106t-39 -135z
" />
    <glyph glyph-name="seven.tnum" 
d="M135 0l864 1255q13 18 26 33.5t19 21.5l7 7v4q-35 -4 -76 -4h-590l-39 -197h-131l64 320h964l-20 -99l-928 -1341h-160z" />
    <glyph glyph-name="eight.tnum" 
d="M45 350q0 250 320 455l12 8q-137 98 -137 244q0 76 34.5 148.5t96 130.5t156 93t204.5 35q189 0 293 -84.5t104 -232.5q0 -64 -25.5 -132.5t-57.5 -117t-76.5 -98t-66 -68.5t-42.5 -37q164 -106 164 -262q0 -125 -74.5 -230.5t-199.5 -166t-271 -60.5q-190 0 -312 100.5
t-122 274.5zM752 754q18 14 38.5 32.5t57.5 58.5t64 81.5t48 98.5t21 112q0 92 -68.5 145t-185.5 53q-147 0 -244.5 -81t-97.5 -195q0 -33 10.5 -62t33.5 -54t46 -44.5t62 -40.5t67 -34.5t75 -35t73 -34.5zM195 360q0 -118 83 -187t207 -69q95 0 183 38.5t147 114t59 169.5
q0 40 -18 75.5t-44 61t-70 52t-80.5 44t-92 43t-88.5 43.5q-29 -17 -53 -32.5t-71 -54.5t-79 -78.5t-57.5 -99t-25.5 -120.5z" />
    <glyph glyph-name="nine.tnum" 
d="M53 35l66 119q9 -5 26 -13t70 -21.5t107 -13.5q110 0 210 50.5t174.5 135t128.5 185.5t85 211h-5q-67 -77 -171 -122.5t-212 -45.5q-177 0 -282 102.5t-105 272.5q0 104 38 205.5t105 182.5t169 131t221 50q203 0 318.5 -141t115.5 -375q0 -76 -16.5 -163.5t-50 -181.5
t-81.5 -184t-115 -170.5t-145 -141.5t-177.5 -96.5t-207.5 -35.5q-75 0 -141.5 15t-95.5 30zM561 643q64 0 134.5 24.5t131.5 67t100.5 106t39.5 134.5q0 89 -32 169t-100 134.5t-159 54.5q-161 0 -273 -126t-112 -306q0 -118 72 -188t198 -70z" />
    <glyph glyph-name="hyphen.case" horiz-adv-x="1001" 
d="M215 651l23 127h581l-24 -127h-580z" />
    <glyph glyph-name="parenleft.case" horiz-adv-x="626" 
d="M254 -133q-98 262 -98 545q0 638 415 1144h136q-424 -535 -424 -1148q0 -279 96 -541h-125z" />
    <glyph glyph-name="parenright.case" horiz-adv-x="628" 
d="M-37 -133q424 535 424 1149q0 278 -96 540h125q100 -268 100 -544q0 -635 -418 -1145h-135z" />
    <glyph glyph-name="bracketleft.case" horiz-adv-x="612" 
d="M72 -133l327 1689h277l-23 -114h-147l-283 -1460h148l-23 -115h-276z" />
    <glyph glyph-name="bracketright.case" horiz-adv-x="612" 
d="M4 -18h146l282 1460h-147l22 114h277l-328 -1689h-274z" />
    <glyph glyph-name="braceleft.case" horiz-adv-x="663" 
d="M168 125q0 40 14 115l35 186q6 37 6 63q0 44 -13.5 77.5t-33 51t-39.5 28.5t-33 14l-14 2l25 126q7 1 19 3.5t45 17.5t60 38t55 69.5t40 107.5l35 174q74 372 405 361l-22 -115q-20 2 -43 -1t-57 -17.5t-62 -40.5t-54.5 -77t-39.5 -120l-41 -207q-11 -60 -37.5 -108
t-56 -74t-57.5 -43.5t-46 -23.5l-18 -5v-4q5 -2 13 -6.5t28 -22.5t35.5 -39.5t28.5 -58.5t13 -80q0 -24 -6 -59l-43 -219q-10 -58 -10 -91q0 -171 170 -165l-25 -115q-12 -2 -30 -2q-23 0 -49 4.5t-63 20.5t-65 42.5t-48.5 76.5t-20.5 116z" />
    <glyph glyph-name="braceright.case" horiz-adv-x="665" 
d="M-45 -20q22 -2 45.5 0.5t57 17t61.5 40.5t54.5 77.5t39.5 120.5l43 229q12 62 38.5 111.5t56 76t57 44t45.5 23.5l18 5v4q-5 2 -13 6.5t-28 22t-35.5 38.5t-28 57t-12.5 77q0 24 6 59l37 197q11 48 11 90q0 45 -13 78.5t-31 50t-43.5 25.5t-43 11t-37.5 1l22 114
q20 5 48.5 1t59.5 -10t61 -26t54 -47t39 -73t15 -103q0 -21 -13 -114l-32 -164q-7 -44 -7 -64q0 -44 14 -77.5t34 -50.5t40 -28t34 -14l14 -2l-25 -127q-4 0 -10.5 -1.5t-25.5 -7.5t-37.5 -15t-42 -27.5t-43 -42t-36.5 -60.5t-26 -81l-37 -197q-74 -362 -375 -362l-31 2z
" />
    <glyph glyph-name="at.case" horiz-adv-x="1544" 
d="M109 592q0 172 74 334.5t196.5 281t288.5 190.5t342 72q207 0 312 -91t105 -234q0 -47 -8 -80l-121 -627h146l-23 -114h-532q-162 0 -260.5 94.5t-98.5 236.5q0 88 38.5 170.5t104.5 145.5t160 101t199 38h258q2 25 2 43q0 83 -77 140t-222 57q-146 0 -283.5 -63.5
t-237 -167.5t-160 -243t-60.5 -284q0 -224 135.5 -364t364.5 -140l-25 -119q-270 0 -444 174t-174 449zM674 664q0 -99 64 -162.5t167 -63.5h254l109 563h-250q-135 0 -239.5 -103t-104.5 -234z" />
    <glyph glyph-name="guillemotleft.case" horiz-adv-x="1079" 
d="M741 281l-262 424l422 417h162l-440 -428l260 -413h-142zM381 281l-262 424l393 417h160l-410 -428l260 -413h-141z" />
    <glyph glyph-name="guillemotright.case" horiz-adv-x="1083" 
d="M449 281l409 428l-260 413h141l265 -424l-394 -417h-161zM59 281l439 428l-260 413h141l264 -424l-422 -417h-162z" />
    <glyph glyph-name="guilsinglleft.case" horiz-adv-x="702" 
d="M381 281l-262 424l393 417h160l-410 -428l260 -413h-141z" />
    <glyph glyph-name="guilsinglright.case" horiz-adv-x="704" 
d="M72 281l409 428l-260 413h141l263 -424l-394 -417h-159z" />
    <glyph glyph-name="endash.case" horiz-adv-x="1447" 
d="M215 645l23 119h1024l-23 -119h-1024z" />
    <glyph glyph-name="emdash.case" horiz-adv-x="1857" 
d="M215 645l23 119h1433l-22 -119h-1434z" />
    <glyph glyph-name="periodcentered.case" horiz-adv-x="552" 
d="M195 625l32 170h164l-33 -170h-163z" />
    <glyph glyph-name="questiondown.case" horiz-adv-x="901" 
d="M563 1278l33 162h160l-33 -162h-160zM23 287q0 74 24 138.5t64 111.5t88 89t99 81.5t95 78t78 88t45 103.5l19 86h137l-19 -92q-15 -69 -49.5 -129t-77.5 -103.5t-92 -84t-95.5 -78.5t-84 -77.5t-60 -90t-22.5 -107.5q0 -85 60.5 -138.5t162.5 -53.5q64 0 131 21.5
t102 43.5l34 21l59 -113q-6 -4 -17.5 -11.5t-48 -26t-74 -32.5t-92.5 -25.5t-108 -11.5q-161 0 -259.5 85.5t-98.5 226.5z" />
    <glyph glyph-name="exclamdown.case" horiz-adv-x="598" 
d="M348 1278l33 162h162l-33 -162h-162zM111 0l213 1063h131l-201 -1063h-143z" />
    <glyph glyph-name="bullet.case" horiz-adv-x="829" 
d="M434 428q-122 0 -207.5 86t-85.5 207t85.5 207t207.5 86t207.5 -86t85.5 -207t-85.5 -207t-207.5 -86z" />
    <glyph glyph-name="zero.p_osf" horiz-adv-x="1230" 
d="M111 416q0 99 25.5 200.5t76 195t120 166t165 116t202.5 43.5q102 0 181 -35.5t126 -97.5t71 -141t24 -171q0 -99 -25 -200t-75.5 -193.5t-119.5 -165t-164.5 -115.5t-203.5 -43q-104 0 -183.5 35t-126.5 96.5t-70 139.5t-23 170zM254 422q0 -140 66.5 -231t197.5 -91
q98 0 183.5 55t140 141.5t85.5 189t31 200.5q0 91 -26.5 162.5t-87.5 117.5t-150 46q-79 0 -150.5 -36.5t-123 -97t-90 -137t-57.5 -159t-19 -160.5z" />
    <glyph glyph-name="one.p_osf" horiz-adv-x="913" 
d="M14 0l23 119h319l142 731l22 108h-4q-37 -26 -90 -55l-233 -127l-50 107l414 229h129l-192 -993h284l-24 -119h-740z" />
    <glyph glyph-name="two.p_osf" horiz-adv-x="1116" 
d="M25 0l18 98q169 100 285.5 175t220 152.5t163.5 142t94 130.5t34 131q0 89 -66.5 136t-169.5 47q-52 0 -107 -17t-96.5 -41t-76 -48t-52.5 -41l-18 -17l-66 102q8 8 22 20.5t59.5 44.5t93 57t117.5 45t138 20q181 0 274 -82.5t93 -210.5q0 -98 -44.5 -188t-139.5 -179
t-220 -173t-309 -187v-4q41 6 117 6h514l-22 -119h-856z" />
    <glyph glyph-name="three.p_osf" horiz-adv-x="1052" 
d="M-74 -78l92 90q4 -6 12 -16t36.5 -36t62 -45.5t88.5 -35.5t115 -16q92 0 180 41.5t148.5 123t60.5 183.5q0 105 -84 167t-238 62l-82 -4l-16 86l440 414q16 16 35 31.5t30 22.5l11 7v4q-42 -4 -108 -4h-387l-35 -184h-125l57 299h805l-16 -92l-510 -469q45 -3 90.5 -13
t97 -34.5t90.5 -59.5t64.5 -93t25.5 -130q0 -134 -75 -246t-197.5 -174.5t-263.5 -62.5q-80 0 -151.5 19t-115.5 46t-76.5 54t-46.5 46z" />
    <glyph glyph-name="four.p_osf" horiz-adv-x="1173" 
d="M-41 78l16 90l859 944h153l-176 -917h219l-22 -117h-222l-61 -316h-137l61 316h-690zM156 195h516l119 608q4 25 12 58.5t14 54.5l6 20h-4q-47 -66 -94 -117l-569 -620v-4z" />
    <glyph glyph-name="five.p_osf" horiz-adv-x="1056" 
d="M-61 -72l88 95q4 -6 12.5 -15.5t38 -34t61.5 -43t83 -34t104 -15.5q58 0 116.5 15t113 46.5t96.5 74.5t67.5 104.5t25.5 132.5q0 117 -85 182.5t-211 65.5q-65 0 -133.5 -18t-103.5 -36l-36 -18l-84 31l205 651h684l-59 -299h-125l34 184h-434l-108 -342
q-6 -21 -13.5 -40t-11.5 -28l-4 -9h4q96 43 221 43q174 0 290 -94.5t116 -264.5q0 -113 -48.5 -209.5t-128.5 -160.5t-181 -100t-207 -36q-73 0 -140 17.5t-110 43t-75.5 51t-46.5 42.5z" />
    <glyph glyph-name="six.p_osf" horiz-adv-x="1200" 
d="M106 457q0 86 22.5 185.5t65 202.5t110.5 197.5t151 168.5t195 118.5t235 44.5q74 0 141.5 -14t97.5 -28l31 -15l-70 -111q-9 5 -26 12t-69 19t-105 12q-88 0 -170 -31.5t-146.5 -84t-119 -124t-92.5 -149.5t-62 -162h4q69 76 171 119t212 43q178 0 284.5 -97t106.5 -259
q0 -99 -40 -194t-109 -169.5t-171 -120t-216 -45.5q-202 0 -316.5 131t-114.5 351zM250 432q0 -82 32 -156t100.5 -125t160.5 -51q161 0 273 115t112 281q0 113 -74 178t-207 65q-95 0 -186.5 -40.5t-151 -112.5t-59.5 -154z" />
    <glyph glyph-name="seven.p_osf" horiz-adv-x="1054" 
d="M39 -238l819 1172q14 18 27 34t19 22l7 7v4q-34 -4 -75 -4h-549l-35 -184h-127l57 299h916l-17 -92l-882 -1258h-160z" />
    <glyph glyph-name="eight.p_osf" horiz-adv-x="1193" 
d="M72 332q0 51 16 101t38 88t57 76.5t61 62t63 50t50 34.5t34 20q-135 95 -135 227q0 70 33.5 138.5t93.5 123.5t151 89t197 34q183 0 287 -80.5t104 -218.5q0 -59 -25 -123.5t-54 -109t-74 -94t-61 -64t-40 -35.5q160 -101 160 -245q0 -113 -72.5 -212.5t-195 -159
t-262.5 -59.5q-184 0 -305 97t-121 260zM762 711q19 15 37 30t53.5 52.5t61 75t45.5 90.5t20 104q0 88 -67.5 137t-182.5 49q-142 0 -236 -74.5t-94 -179.5q0 -35 16.5 -67t38 -53.5t64.5 -47t72.5 -39.5t87 -39t84.5 -38zM217 340q0 -109 82.5 -174.5t202.5 -65.5
q87 0 174 37.5t147 108.5t60 155q0 36 -17.5 68.5t-42.5 55.5t-68.5 49t-78 42t-90.5 41t-88 41q-281 -157 -281 -358z" />
    <glyph glyph-name="nine.p_osf" horiz-adv-x="1183" 
d="M84 -94q9 -5 26 -12t69 -19t104 -12q88 0 170 31.5t146.5 84t118.5 124t92 149.5t62 162h-4q-68 -77 -170.5 -119.5t-212.5 -42.5q-177 0 -283 96.5t-106 259.5q0 98 40 193t109.5 169.5t170.5 120.5t215 46q201 0 315.5 -131t114.5 -351q0 -74 -16 -158t-49 -172.5
t-79.5 -173t-112.5 -159.5t-142.5 -131.5t-174.5 -89.5t-204 -33q-74 0 -140 14t-95 28l-30 15zM516 373q94 0 186.5 40.5t154 112t61.5 152.5q0 83 -32 157t-100.5 124.5t-160.5 50.5q-161 0 -272 -114.5t-111 -281.5q0 -111 72.5 -176t201.5 -65z" />
    <glyph glyph-name="zero.t_osf" 
d="M74 416q0 99 25.5 201t76.5 195t120.5 165.5t165 116t202.5 43.5q102 0 180.5 -35.5t126 -97.5t71 -141t23.5 -171q0 -99 -25 -200t-75.5 -193.5t-119.5 -165t-164.5 -115.5t-203.5 -43q-104 0 -183.5 35t-126.5 96.5t-70 139.5t-23 170zM217 422q0 -140 66.5 -231
t197.5 -91q98 0 183.5 55t140.5 141.5t86 189t31 200.5q0 91 -26.5 162.5t-88 117.5t-150.5 46q-79 0 -150.5 -36.5t-123 -97t-90 -137t-57.5 -159t-19 -160.5z" />
    <glyph glyph-name="one.t_osf" 
d="M135 0l23 119h319l141 731l23 108h-4q-37 -26 -90 -55l-234 -127l-49 107l414 229h129l-193 -993h285l-25 -119h-739z" />
    <glyph glyph-name="two.t_osf" 
d="M45 0l18 98q169 100 285.5 175t220 152.5t163.5 142t94 130.5t34 131q0 90 -66 136.5t-169 46.5q-52 0 -107 -17t-96.5 -41t-76 -48t-53.5 -41l-18 -17l-65 102q8 8 22 20.5t59.5 44.5t93 57t117.5 45t138 20q181 0 274 -82.5t93 -210.5q0 -98 -44.5 -188t-139.5 -179
t-220 -173t-309 -187v-4q41 6 117 6h514l-23 -119h-856z" />
    <glyph glyph-name="three.t_osf" 
d="M-23 -78l93 90q4 -6 12 -16t36.5 -36t61.5 -45.5t88 -35.5t115 -16q92 0 180 41.5t148.5 123t60.5 183.5q0 105 -83.5 167t-237.5 62l-82 -4l-17 86l441 414q16 16 35 31.5t30 22.5l10 7v4q-42 -4 -108 -4h-387l-35 -184h-125l57 299h805l-16 -92l-510 -469
q45 -3 90.5 -13t97 -34.5t90.5 -59.5t65 -93t26 -130q0 -134 -75 -246t-198 -174.5t-264 -62.5q-80 0 -151.5 19t-115.5 46t-76.5 54t-46.5 46z" />
    <glyph glyph-name="four.t_osf" 
d="M-49 78l16 90l858 944h154l-176 -917h219l-23 -117h-221l-61 -316h-137l61 316h-690zM147 195h517l118 608q4 25 12.5 58.5t14.5 54.5l6 20h-4q-47 -66 -94 -117l-570 -620v-4z" />
    <glyph glyph-name="five.t_osf" 
d="M-12 -72l88 95q4 -6 12.5 -15.5t38 -34t61.5 -43t83 -34t104 -15.5q58 0 116.5 15t113.5 46.5t97 74.5t67.5 104.5t25.5 132.5q0 117 -85.5 182.5t-211.5 65.5q-65 0 -133.5 -18t-104.5 -36l-35 -18l-84 31l205 651h684l-59 -299h-125l35 184h-435l-108 -342
q-6 -21 -13.5 -40t-11.5 -28l-4 -9h4q97 43 222 43q174 0 289.5 -94.5t115.5 -264.5q0 -113 -48.5 -209.5t-128.5 -160.5t-181 -100t-207 -36q-73 0 -140 17.5t-110 43t-75.5 51t-47.5 42.5z" />
    <glyph glyph-name="six.t_osf" 
d="M84 457q0 104 31 225t96.5 244t155 222.5t219 162.5t276.5 63q74 0 141.5 -14t98.5 -28l31 -15l-70 -111q-9 5 -26 12t-69.5 19t-105.5 12q-88 0 -170 -31.5t-146.5 -84t-119 -124t-92.5 -149.5t-62 -162h4q69 76 171 119t212 43q178 0 285 -97.5t107 -258.5
q0 -99 -40 -194t-109.5 -169.5t-171.5 -120t-216 -45.5q-201 0 -315.5 131t-114.5 351zM227 432q0 -82 32 -156t100.5 -125t160.5 -51q161 0 273 115t112 281q0 113 -73.5 178t-206.5 65q-95 0 -186.5 -40.5t-151.5 -112.5t-60 -154z" />
    <glyph glyph-name="seven.t_osf" 
d="M90 -238l819 1172q14 18 27.5 34t19.5 22l7 7v4q-35 -4 -76 -4h-549l-35 -184h-127l57 299h916l-16 -92l-883 -1258h-160z" />
    <glyph glyph-name="eight.t_osf" 
d="M53 332q0 51 16 101t38 88t57.5 76.5t61 62t63.5 50t50 34t34 20.5q-135 95 -135 227q0 70 33.5 138.5t93.5 123.5t151 89t197 34q183 0 287 -80.5t104 -218.5q0 -59 -25 -123.5t-54 -109t-74 -94t-61 -64t-40 -35.5q160 -101 160 -245q0 -84 -43.5 -163.5t-115 -138
t-169.5 -94t-203 -35.5q-184 0 -305 97t-121 260zM743 711q19 15 37 30t54 53t61.5 75t45.5 90t20 104q0 88 -67.5 137t-182.5 49q-142 0 -236 -74.5t-94 -179.5q0 -35 16.5 -67t38 -53.5t64.5 -47t72 -39.5t86.5 -39t84.5 -38zM199 340q0 -109 82 -174.5t202 -65.5
q87 0 174 37.5t147 108.5t60 155q0 36 -17.5 68.5t-42.5 55.5t-68.5 49t-78 42t-90.5 41t-88 41q-280 -157 -280 -358z" />
    <glyph glyph-name="nine.t_osf" 
d="M70 -94q9 -5 25.5 -12t68.5 -19t104 -12q88 0 170 31.5t146.5 84t119 124t92.5 149.5t62 162h-4q-68 -77 -170.5 -119.5t-212.5 -42.5q-177 0 -283 96.5t-106 259.5q0 132 67 252.5t191.5 198.5t275.5 78q202 0 316.5 -131t114.5 -351q0 -87 -22.5 -186.5t-65 -202.5
t-110.5 -197.5t-151 -168.5t-195 -118t-235 -44q-74 0 -140 14t-95 28l-29 15zM502 373q94 0 186.5 40.5t153.5 112t61 152.5q0 83 -32 157t-100.5 124.5t-160.5 50.5q-161 0 -272 -114.5t-111 -281.5q0 -111 73 -176t202 -65z" />
    <glyph glyph-name="dollar.osf" horiz-adv-x="989" 
d="M-8 184l82 90q5 -7 14.5 -18t42 -38.5t69 -47.5t95 -34.5t119.5 -10.5q71 0 136 22t110 70t45 111q0 46 -29.5 83.5t-76 63.5t-103 51t-113.5 54t-103.5 63.5t-76 87.5t-29.5 119q0 137 113.5 230.5t285.5 105.5l37 188h115l-37 -190q50 -6 96.5 -21.5t77 -32.5t54 -33.5
t34.5 -26.5l11 -11l-82 -98l-11 11t-33 24t-55.5 30t-77 24t-98.5 11q-68 0 -130.5 -20t-108.5 -68.5t-46 -116.5q0 -50 29.5 -88.5t76 -64.5t103 -50t113.5 -52t103.5 -61.5t76 -87t29.5 -122.5q0 -132 -120.5 -229t-295.5 -101l-39 -211h-114l41 217q-63 9 -120 31
t-94 46.5t-64.5 47.5t-39.5 38z" />
    <glyph glyph-name="cent.osf" horiz-adv-x="1079" 
d="M389 -53l35 174q-163 23 -259.5 132t-96.5 275q0 115 45.5 218.5t121 178t175 122.5t206.5 59l33 174h119l-37 -174q60 -6 114.5 -24.5t89 -41t60.5 -44t37 -36.5l12 -14l-81 -96q-3 5 -10 14t-32.5 31.5t-55.5 40t-81 31.5t-108 14q-119 0 -225 -57t-172 -160.5
t-66 -228.5q0 -133 87 -213t232 -80q55 0 110 14t94.5 34t71 40.5t46.5 34.5l16 14l50 -113q-6 -6 -17.5 -16t-50 -35t-80 -45t-104.5 -37.5t-127 -19.5l-35 -166h-117z" />
    <glyph glyph-name="sterling.osf" horiz-adv-x="1185" 
d="M-18 0l20 123h174l74 379h-135l18 106h137l41 213q35 175 171 278t321 103q59 0 114.5 -11.5t92.5 -27.5t65.5 -32t41.5 -27l13 -12l-81 -99q-4 3 -11.5 8.5t-32.5 19.5t-52.5 24.5t-70.5 19t-87 8.5q-134 0 -227.5 -74t-114.5 -182l-43 -209h473l-21 -106h-471l-74 -379
h693l-23 -123h-1005z" />
    <glyph glyph-name="yen.osf" horiz-adv-x="1173" 
d="M115 305l20 105h342l10 55l-45 108h-276l22 105h213l-208 504h155l170 -428q13 -34 27 -76.5t22 -67.5l8 -26h5q61 94 118 170l336 428h166l-401 -504h211l-21 -105h-274l-86 -108l-11 -55h340l-20 -105h-340l-57 -305h-144l60 305h-342z" />
    <glyph glyph-name="florin.osf" horiz-adv-x="1150" 
d="M-162 -127q59 -10 125 -10q29 0 56.5 4.5t65.5 21t69.5 43.5t62 77.5t49.5 117.5l150 524h-185l23 117h195l67 242q27 94 71 164t89 107t100 60t94 29t80 6q42 0 89 -4t73 -8l27 -4l-23 -121q-92 12 -164 12q-227 0 -303 -264l-61 -219h254l-23 -117h-266l-156 -551
q-23 -78 -56.5 -139.5t-73 -99.5t-79.5 -64t-83.5 -38t-75 -16.5t-64.5 -4.5q-38 0 -76 3.5t-57 6.5l-18 4z" />
    <glyph glyph-name="Euro.osf" horiz-adv-x="1169" 
d="M55 399l19 99h135q5 77 31 176h-127l18 98h141q40 89 101.5 164.5t146 136t197.5 95t241 34.5q55 0 108 -8t79 -16l26 -7l-55 -112q-74 18 -158 18q-187 0 -323 -85t-205 -220h567l-41 -98h-571q-27 -78 -33 -176h543l-41 -99h-492q18 -132 122.5 -214.5t289.5 -82.5
q45 0 90.5 7t68.5 13l23 7l9 -125q-89 -29 -195 -29q-127 0 -229.5 33.5t-169.5 93t-106.5 134.5t-49.5 163h-160z" />
    <glyph glyph-name="zero.numerator" horiz-adv-x="821" 
d="M414 528q-139 0 -198.5 75.5t-59.5 215.5q0 60 9 126t27 140t51 139.5t76 119t106 85t138 31.5q138 0 198 -77t60 -218q0 -59 -9 -125t-28 -139t-52 -138.5t-76 -118.5t-105.5 -84.5t-136.5 -31.5zM416 635q75 0 134 54t91 137.5t48 169.5t16 165q0 195 -146 195
q-62 0 -112.5 -37t-82.5 -94.5t-54 -130.5t-31 -141t-9 -130q0 -188 146 -188z" />
    <glyph glyph-name="one.numerator" horiz-adv-x="661" 
d="M76 549l18 98h215l109 567l18 74h-4q-20 -26 -53 -53l-113 -94l-59 80l264 219h107l-156 -793h211l-21 -98h-536z" />
    <glyph glyph-name="two.numerator" horiz-adv-x="749" 
d="M74 549q2 83 34 152t82 116t110.5 87.5t120 75t109 70t80.5 81t31 98.5q0 55 -38 91t-101 36q-31 0 -63.5 -10.5t-56.5 -25t-43.5 -29.5t-29.5 -25l-10 -11l-66 78l13.5 13.5t37.5 30.5t59 39t75.5 30.5t89.5 13.5q117 0 184.5 -61t67.5 -162q0 -66 -27 -122t-71 -95.5
t-97.5 -74t-110.5 -67t-106 -64.5t-87 -75t-52 -92h360l23 113h100l-39 -211h-579z" />
    <glyph glyph-name="three.numerator" horiz-adv-x="757" 
d="M375 528q-55 0 -105.5 14t-84 34t-59 40t-36.5 34l-12 14l80 73q3 -4 9 -11t26.5 -24.5t44 -31t61 -24.5t76.5 -11q86 0 152.5 62.5t66.5 152.5q0 64 -51 101.5t-121 37.5h-64l-18 62l264 254l51 41v4q-26 -7 -59 -7h-240l-22 -112h-103l41 209h545l-14 -74l-301 -289
q34 -5 67 -19t66.5 -39t54.5 -69t21 -100q0 -127 -99.5 -224.5t-236.5 -97.5z" />
    <glyph glyph-name="four.numerator" horiz-adv-x="782" 
d="M469 549l47 235h-432l14 76l545 580h113l-109 -559h133l-18 -97h-133l-47 -235h-113zM236 881h299l63 329l25 88h-5q-26 -40 -59 -73l-323 -340v-4z" />
    <glyph glyph-name="five.numerator" horiz-adv-x="749" 
d="M360 528q-50 0 -98 13.5t-79.5 32t-56.5 37.5t-36 33l-12 13l76 74q3 -4 9.5 -10.5t27.5 -23.5t44 -30t57.5 -23.5t69.5 -10.5q98 0 168 65.5t70 157.5q0 76 -49.5 123t-130.5 47q-40 0 -81.5 -12t-62.5 -24l-22 -13l-64 24l138 439h456l-41 -209h-102l23 112h-261
l-61 -204l-16 -43h2q47 22 121 22q119 0 192.5 -73t73.5 -185q0 -133 -103.5 -232.5t-251.5 -99.5z" />
    <glyph glyph-name="six.numerator" horiz-adv-x="786" 
d="M418 528q-129 0 -201 86.5t-72 231.5q0 68 20.5 148.5t63 163t99.5 150t138 110t171 42.5q50 0 95.5 -11t65.5 -23l21 -11l-55 -90q-53 31 -131 31q-109 0 -198.5 -91t-133.5 -223h4q39 36 96 58t115 22q108 0 175 -64.5t67 -172.5q0 -107 -51 -190.5t-127.5 -125
t-161.5 -41.5zM422 635q96 0 157.5 73t61.5 173q0 66 -41 105.5t-113 39.5q-82 0 -154.5 -56.5t-72.5 -129.5q0 -81 43.5 -143t118.5 -62z" />
    <glyph glyph-name="seven.numerator" horiz-adv-x="710" 
d="M117 549l526 751q7 11 16.5 22t14.5 16l6 5l2 5q-26 -5 -51 -5h-316l-22 -112h-103l41 209h600l-14 -76l-571 -815h-129z" />
    <glyph glyph-name="eight.numerator" horiz-adv-x="798" 
d="M403 526q-118 0 -200 62.5t-82 173.5q0 156 201 289q-76 60 -76 147q0 82 49 143t118.5 89t145.5 28q108 0 180 -54.5t72 -146.5q0 -140 -166 -280q100 -68 100 -168q0 -116 -103.5 -199.5t-238.5 -83.5zM561 1024q26 20 52 46t54.5 76.5t28.5 98.5q0 54 -42.5 82.5
t-102.5 28.5q-73 0 -133 -41t-60 -113q0 -22 9 -42t20.5 -33.5t36 -29.5t40 -24t49 -24.5t48.5 -24.5zM406 629q83 0 153 51.5t70 126.5q0 28 -12 51t-39 42.5t-49.5 32t-64.5 33t-63 31.5q-163 -101 -163 -227q0 -65 49 -103t119 -38z" />
    <glyph glyph-name="nine.numerator" horiz-adv-x="784" 
d="M303 528q-51 0 -97.5 11t-67.5 23l-21 11l57 91q51 -29 131 -29q108 0 197 90.5t133 222.5h-4q-39 -36 -96.5 -59t-114.5 -23q-108 0 -174 66t-66 174q0 106 50.5 188.5t126.5 124t161 41.5q130 0 202.5 -86t72.5 -231q0 -67 -21 -148t-63.5 -163.5t-99 -150t-137 -110.5
t-169.5 -43zM449 963q82 0 154.5 57t72.5 131q0 81 -42.5 143t-117.5 62q-97 0 -159 -73.5t-62 -172.5q0 -67 41.5 -107t112.5 -40z" />
    <glyph glyph-name="zero.denominator" horiz-adv-x="819" 
d="M305 -20q-139 0 -198.5 75t-59.5 215q0 60 9 126t27.5 139.5t51.5 139.5t76 119.5t106 85t138 31.5q138 0 198 -77t60 -218q0 -59 -9 -125t-28 -139t-52 -138t-76.5 -118t-106 -84.5t-136.5 -31.5zM307 86q75 0 134 54t91 137.5t48 169.5t16 165q0 195 -145 195
q-62 0 -112.5 -37t-82.5 -94.5t-54 -130.5t-31 -141t-9 -130q0 -188 145 -188z" />
    <glyph glyph-name="one.denominator" horiz-adv-x="657" 
d="M-37 0l19 98h215l108 568l19 73h-5q-20 -26 -53 -53l-112 -94l-60 80l264 219h107l-156 -793h211l-20 -98h-537z" />
    <glyph glyph-name="two.denominator" horiz-adv-x="749" 
d="M-33 0q1 73 26.5 135.5t65.5 106t91 83.5t104 69t103.5 62t90 63.5t63.5 72t24 88.5q0 55 -38.5 91t-101.5 36q-49 0 -99.5 -25t-76.5 -50l-26 -25l-66 77l13.5 13.5t37 30.5t59 39t75.5 30.5t89 13.5q117 0 184.5 -61t67.5 -162q0 -66 -27 -122t-71 -95.5t-97.5 -74
t-110.5 -67t-106 -64.5t-87 -75t-52 -92h361l22 113h101l-39 -211h-580z" />
    <glyph glyph-name="three.denominator" horiz-adv-x="757" 
d="M268 -20q-55 0 -105.5 14t-84 33.5t-59 39.5t-37.5 34l-11 14l80 73q3 -4 9 -11t26.5 -24.5t44 -31t61 -24.5t76.5 -11q86 0 152.5 62.5t66.5 152.5q0 64 -51 101.5t-121 37.5h-63l-19 62l265 254l51 41v4q-27 -6 -60 -6h-239l-23 -113h-102l41 209h545l-15 -74
l-301 -289q34 -5 67 -19t66.5 -39t54.5 -69t21 -100q0 -127 -99.5 -224t-236.5 -97z" />
    <glyph glyph-name="four.denominator" horiz-adv-x="782" 
d="M362 0l48 236h-433l15 75l545 580h112l-108 -559h133l-19 -96h-133l-47 -236h-113zM129 332h299l64 330l24 88h-4q-26 -41 -59 -74l-324 -340v-4z" />
    <glyph glyph-name="five.denominator" horiz-adv-x="747" 
d="M252 -20q-50 0 -98 13.5t-80 32t-57 37.5t-37 33l-11 13l76 73q3 -4 9.5 -10.5t28 -23.5t44 -30t57.5 -23.5t70 -10.5q98 0 168 65.5t70 157.5q0 75 -50 122.5t-131 47.5q-40 0 -81.5 -12.5t-63.5 -24.5l-21 -12l-63 25l137 438h457l-41 -209h-103l23 113h-260l-62 -205
l-16 -43h2q47 22 121 22q119 0 192.5 -73t73.5 -185q0 -133 -103 -232t-251 -99z" />
    <glyph glyph-name="six.denominator" horiz-adv-x="786" 
d="M311 -20q-129 0 -200.5 86t-71.5 231q0 68 20.5 148.5t63 163t99 150t137.5 110t171 42.5q50 0 96 -11.5t66 -22.5l21 -11l-56 -90q-53 31 -131 31q-109 0 -198 -90.5t-133 -222.5h4q39 36 96 57.5t115 21.5q108 0 174.5 -64.5t66.5 -172.5q0 -107 -51 -190
t-127.5 -124.5t-161.5 -41.5zM315 86q96 0 158 73t62 173q0 66 -41 105.5t-113 39.5q-82 0 -154.5 -56.5t-72.5 -129.5q0 -82 43 -143.5t118 -61.5z" />
    <glyph glyph-name="seven.denominator" horiz-adv-x="710" 
d="M10 0l527 752q7 11 16 22t15 16l5 5l2 4q-26 -4 -51 -4h-315l-23 -113h-102l41 209h600l-14 -76l-572 -815h-129z" />
    <glyph glyph-name="eight.denominator" horiz-adv-x="798" 
d="M297 -20q-118 0 -200.5 62t-82.5 173q0 156 201 289q-76 60 -76 147q0 82 49 143t119 89t146 28q108 0 180 -54t72 -146q0 -141 -166 -281q100 -68 100 -168q0 -115 -103.5 -198.5t-238.5 -83.5zM455 477q26 20 52 46t54.5 76.5t28.5 98.5q0 54 -43 82.5t-103 28.5
q-73 0 -132.5 -41t-59.5 -113q0 -22 9 -42t20.5 -33.5t36 -29.5t40 -24t49 -24.5t48.5 -24.5zM299 82q83 0 153 51.5t70 126.5q0 28 -12 51t-39 43t-48.5 32.5t-64.5 33t-63 31.5q-164 -101 -164 -228q0 -65 49 -103t119 -38z" />
    <glyph glyph-name="nine.denominator" horiz-adv-x="784" 
d="M197 -20q-51 0 -98 11t-68 23l-21 11l58 90q51 -29 131 -29q108 0 196.5 90.5t132.5 222.5h-4q-39 -36 -96.5 -59t-114.5 -23q-107 0 -173 65.5t-66 174.5q0 106 50.5 188.5t126.5 124t161 41.5q130 0 202 -86t72 -231q0 -67 -20.5 -148t-63 -163t-99.5 -150t-137 -110.5
t-169 -42.5zM342 414q82 0 154.5 57t72.5 131q0 81 -42 143t-117 62q-97 0 -159.5 -73.5t-62.5 -172.5q0 -67 41.5 -107t112.5 -40z" />
    </font>
</defs>
</svg>
