<?xml version="1.0" standalone="no"?>
<!DOCTYPE svg PUBLIC "-//W3C//DTD SVG 1.1//EN" "http://www.w3.org/Graphics/SVG/1.1/DTD/svg11.dtd" >
<svg xmlns="http://www.w3.org/2000/svg" xmlns:xlink="http://www.w3.org/1999/xlink" version="1.1">
<metadata>
Created by FontForge 20170731 at Mon Sep 20 10:34:35 2021
 By Aleksey,,,
Copyright (c) 2009 by Jos Buivenga. All rights reserved.
</metadata>
<defs>
<font id="MuseoSlab-500Italic" horiz-adv-x="1175" >
  <font-face 
    font-family="Museo Slab 500"
    font-weight="400"
    font-style="italic"
    font-stretch="normal"
    units-per-em="2048"
    panose-1="2 0 0 0 0 0 0 0 0 0"
    ascent="1536"
    descent="-512"
    x-height="1036"
    cap-height="1446"
    bbox="-389 -461 2195 1837"
    underline-thickness="102"
    underline-position="-307"
    unicode-range="U+0020-FB04"
  />
<missing-glyph horiz-adv-x="1044" 
d="M-111 0v1434h1024v-1434h-1024zM401 809l349 522h-697zM811 195v1044l-348 -522zM-8 195l348 522l-348 522v-1044zM53 102h697l-349 523z" />
    <glyph glyph-name="f_f" unicode="ff" horiz-adv-x="1386" 
d="M117 0l170 883h-172l30 153h170l11 45q14 70 40.5 128t57.5 96.5t70.5 67.5t76 45t77 26t70.5 13t60 3q24 0 46.5 -1.5t33.5 -2.5l10 -2l-34 -162q-25 4 -60 4q-204 0 -248 -211l-10 -49h469l8 45q14 70 40.5 128t58 96.5t71 67.5t76 45t77.5 26t71.5 13t60.5 3
q23 0 45 -1.5t33 -2.5l10 -2l-35 -162q-24 4 -59 4q-204 0 -248 -211l-10 -49h250l-29 -153h-250l-172 -883h-199l170 883h-467l-172 -883h-198z" />
    <glyph glyph-name="fi" unicode="fi" horiz-adv-x="1302" 
d="M117 0l172 883h-174l30 153h172l11 45q19 97 62 169.5t90.5 111.5t107 62t103 29.5t87.5 6.5q24 0 46.5 -1.5t33.5 -2.5l10 -2l-34 -162q-25 4 -60 4q-204 0 -248 -211l-10 -49h641l-143 -733q-8 -46 -8 -63q0 -51 25 -70.5t69 -19.5l47 4l-29 -154q-47 -4 -82 -4
q-36 0 -64 3t-62 15t-56 32.5t-37.5 58.5t-15.5 90q0 32 10 90l119 598h-443l-172 -883h-198zM993 1243l41 203h209l-41 -203h-209z" />
    <glyph glyph-name="fl" unicode="fl" horiz-adv-x="1314" 
d="M117 0l170 883h-172l28 153h172l9 37q83 406 540 406q95 0 189 -13.5t141 -27.5l47 -13l-215 -1112q-10 -42 -10 -69q0 -52 24.5 -69t69.5 -17l49 4l-33 -164q-40 -4 -79 -4q-236 0 -236 207q0 36 10 94l197 1008q-59 20 -172 20q-46 0 -84.5 -6t-78.5 -22.5t-70 -43.5
t-54 -71.5t-35 -104.5l-8 -39h250l-29 -153h-250l-172 -883h-198z" />
    <glyph glyph-name="f_f_i" unicode="ffi" horiz-adv-x="1970" 
d="M117 0l170 883h-172l30 153h170l11 45q14 70 40.5 128t57.5 96.5t70.5 67.5t76 45t77 26t70.5 13t60 3q24 0 46.5 -1.5t33.5 -2.5l10 -2l-34 -162q-25 4 -60 4q-204 0 -248 -211l-10 -49h469l8 45q14 70 40.5 128t58 96.5t71 67.5t76 45t77.5 26t71.5 13t60.5 3
q23 0 45 -1.5t33 -2.5l10 -2l-35 -162q-24 4 -59 4q-204 0 -248 -211l-10 -49h641l-144 -733q-8 -46 -8 -63q0 -51 25 -70.5t69 -19.5l48 4l-29 -154q-47 -4 -82 -4q-36 0 -63.5 3t-62 15t-57 32.5t-38 58.5t-15.5 90q0 26 11 90l118 598h-442l-172 -883h-199l170 883h-467
l-172 -883h-198zM1661 1243l41 203h209l-41 -203h-209z" />
    <glyph glyph-name="f_f_l" unicode="ffl" horiz-adv-x="1982" 
d="M117 0l170 883h-172l30 153h170l11 45q14 70 40.5 128t57.5 96.5t70.5 67.5t76 45t77 26t70.5 13t60 3q24 0 46.5 -1.5t33.5 -2.5l10 -2l-34 -162q-25 4 -60 4q-204 0 -248 -211l-10 -49h469l6 37q83 406 543 406q94 0 187.5 -13.5t140.5 -27.5l47 -13l-215 -1112
q-8 -50 -8 -69q0 -52 23.5 -69t68.5 -17l49 4l-33 -164q-39 -4 -80 -4q-235 0 -235 207q0 36 10 94l197 1008q-60 20 -173 20q-58 0 -105 -10.5t-92.5 -36t-77.5 -76.5t-46 -125l-8 -39h250l-29 -153h-250l-172 -883h-199l170 883h-467l-172 -883h-198z" />
    <glyph glyph-name="f_j" unicode="fj" horiz-adv-x="1251" 
d="M117 0l170 883h-172l30 153h170l11 45q14 70 40.5 128t57.5 96.5t70.5 67.5t76 45t77 26t70.5 13t60 3q24 0 46.5 -1.5t33.5 -2.5l10 -2l-34 -162q-25 4 -60 4q-204 0 -248 -211l-10 -49h649l-207 -1061q-16 -83 -47 -149.5t-71 -108.5t-82.5 -71t-89.5 -43t-83.5 -19.5
t-72.5 -5.5l-94 4l33 160q16 -2 45 -2q36 0 69.5 7.5t75 29t73.5 70.5t46 120l176 916h-449l-172 -883h-198zM1004 1243l38 203h205l-39 -203h-204z" />
    <glyph glyph-name=".notdef" horiz-adv-x="1044" 
d="M-111 0v1434h1024v-1434h-1024zM401 809l349 522h-697zM811 195v1044l-348 -522zM-8 195l348 522l-348 522v-1044zM53 102h697l-349 523z" />
    <glyph glyph-name=".null" horiz-adv-x="0" 
 />
    <glyph glyph-name="nonmarkingreturn" horiz-adv-x="682" 
 />
    <glyph glyph-name="space" unicode=" " horiz-adv-x="512" 
 />
    <glyph glyph-name="exclam" unicode="!" horiz-adv-x="514" 
d="M125 397l190 1049h207l-219 -1049h-178zM35 0l41 201h205l-39 -201h-207z" />
    <glyph glyph-name="quotedbl" unicode="&#x22;" horiz-adv-x="712" 
d="M502 1036l86 434h155l-84 -434h-157zM215 1036l84 434h156l-84 -434h-156z" />
    <glyph glyph-name="numbersign" unicode="#" horiz-adv-x="1470" 
d="M164 0l143 391h-262l53 152h264l130 344h-263l56 149h262l151 410h170l-151 -410h317l152 410h170l-152 -410h262l-53 -149h-264l-129 -344h262l-55 -152h-262l-144 -391h-170l144 391h-318l-143 -391h-170zM532 543h318l129 344h-317z" />
    <glyph glyph-name="dollar" unicode="$" horiz-adv-x="1112" 
d="M12 197l121 131q5 -6 15 -15.5t42.5 -34t68 -43t91 -34t111.5 -15.5q124 0 221.5 65.5t97.5 166.5q0 54 -32.5 97t-84 74t-114.5 60.5t-125.5 63.5t-114 75t-84 103.5t-32.5 140.5q0 163 130 276t330 128l41 221h146l-41 -223q61 -7 116 -24t90.5 -36.5t62 -37.5
t38.5 -30l12 -12l-108 -145q-5 5 -14 12.5t-39.5 27t-63.5 34.5t-83.5 27t-102.5 12q-130 0 -220 -65t-90 -159q0 -52 32.5 -94.5t84.5 -72.5t114.5 -59t125 -62.5t114.5 -73.5t84.5 -101.5t32.5 -138.5q0 -167 -132.5 -290t-336.5 -138l-39 -217h-145l41 223
q-71 9 -134.5 31t-103 47t-69 49t-42.5 40z" />
    <glyph glyph-name="percent" unicode="%" horiz-adv-x="1564" 
d="M473 864q-125 0 -200.5 74t-75.5 195q0 129 109 233t245 104q124 0 200 -75.5t76 -194.5q0 -131 -109 -233.5t-245 -102.5zM20 0l1366 1446h205l-1368 -1446h-203zM487 1016q70 0 125.5 54t55.5 126q0 55 -35.5 90t-93.5 35q-70 0 -126.5 -55.5t-56.5 -128.5
q0 -53 36 -87t95 -34zM780 244q0 129 109.5 233.5t247.5 104.5q124 0 200 -76t76 -195q0 -131 -110 -233.5t-246 -102.5q-124 0 -200.5 74.5t-76.5 194.5zM942 248q0 -53 35 -87t94 -34q71 0 125.5 53.5t54.5 126.5q0 55 -35.5 90t-93.5 35q-69 0 -124.5 -56t-55.5 -128z
" />
    <glyph glyph-name="ampersand" unicode="&#x26;" horiz-adv-x="1351" 
d="M59 356q0 139 95 260t245 162v4q-6 2 -15.5 7t-34 24.5t-43.5 45t-34.5 71t-15.5 100.5q0 133 71.5 235t184 153.5t244.5 51.5q47 0 95.5 -7t73.5 -14l25 -7l-78 -158q-55 14 -112 14q-120 0 -209.5 -75t-89.5 -199q0 -178 225 -178h268l41 201h199l-39 -201h191
l-33 -168h-193l-37 -197q-50 -255 -196 -380.5t-371 -125.5q-214 0 -335.5 105.5t-121.5 275.5zM270 375q0 -100 67 -159.5t185 -59.5q142 0 237 83t128 250l35 189h-275q-98 0 -181.5 -32.5t-139.5 -103t-56 -167.5z" />
    <glyph glyph-name="quotesingle" unicode="'" horiz-adv-x="425" 
d="M215 1036l84 434h160l-86 -434h-158z" />
    <glyph glyph-name="parenleft" unicode="(" horiz-adv-x="653" 
d="M238 -195q-105 267 -105 549q0 653 422 1151h182q-428 -530 -428 -1155q0 -277 97 -545h-168z" />
    <glyph glyph-name="parenright" unicode=")" horiz-adv-x="657" 
d="M-61 -195q426 534 426 1156q0 288 -97 544h168q105 -263 105 -549q0 -651 -422 -1151h-180z" />
    <glyph glyph-name="asterisk" unicode="*" horiz-adv-x="989" 
d="M344 674l-133 108l227 230v4l-258 74l88 167l250 -102l43 291h187l-74 -291l295 102l24 -174l-303 -79v-5l135 -221l-155 -106l-117 243h-4z" />
    <glyph glyph-name="plus" unicode="+" horiz-adv-x="1255" 
d="M424 0l98 504h-456l28 160h459l98 503h168l-98 -503h457l-31 -160h-457l-98 -504h-168z" />
    <glyph glyph-name="comma" unicode="," horiz-adv-x="546" 
d="M119 215h209l-281 -469h-164z" />
    <glyph glyph-name="hyphen" unicode="-" horiz-adv-x="976" 
d="M166 496l33 176h598l-33 -176h-598z" />
    <glyph glyph-name="period" unicode="." horiz-adv-x="528" 
d="M43 0l41 215h213l-41 -215h-213z" />
    <glyph glyph-name="slash" unicode="/" horiz-adv-x="882" 
d="M-49 -86l833 1610h189l-834 -1610h-188z" />
    <glyph glyph-name="zero" unicode="0" horiz-adv-x="1284" 
d="M123 453q0 83 10 173.5t33.5 190.5t58.5 192.5t88.5 177t119 147t155 99.5t192.5 37q426 0 426 -477q0 -83 -10 -173.5t-33.5 -190.5t-58.5 -192.5t-88.5 -177.5t-119 -147.5t-155 -99.5t-192.5 -37q-426 0 -426 478zM330 457q0 -299 223 -299q93 0 170.5 58.5t127 148.5
t83.5 203.5t48.5 218.5t14.5 198q0 303 -223 303q-89 0 -165 -56t-126 -144.5t-85.5 -200.5t-51.5 -221t-16 -209z" />
    <glyph glyph-name="one" unicode="1" horiz-adv-x="983" 
d="M-8 0l31 168h319l182 926l23 96h-4q-29 -35 -74 -72l-174 -145l-102 135l415 338h183l-250 -1278h315l-35 -168h-829z" />
    <glyph glyph-name="two" unicode="2" horiz-adv-x="1200" 
d="M6 0q2 101 34 190t84.5 156t120.5 127t142.5 109t149 95t142 92t119.5 93.5t82.5 105.5t30.5 122q0 92 -59 146t-160 54q-55 0 -109.5 -19.5t-94 -47.5t-71 -56t-47.5 -47l-16 -20l-135 108q8 11 22.5 28.5t64 62.5t103 79.5t136 63t166.5 28.5q187 0 301 -98t114 -262
q0 -99 -44.5 -187t-117 -155t-161 -127.5t-179.5 -115.5t-169 -108.5t-134.5 -117.5t-70.5 -131h573l39 192h178l-71 -360h-963z" />
    <glyph glyph-name="three" unicode="3" horiz-adv-x="1171" 
d="M4 168l119 139q5 -6 15 -16t42.5 -36t68 -45.5t90 -35.5t110.5 -16q147 0 254.5 94t107.5 229q0 105 -76 162t-198 57l-91 -4l-26 107l430 428q12 12 27 24.5t25 18.5l9 6v4q-44 -6 -73 -6h-389l-37 -184h-179l70 352h883l-29 -141l-471 -463q45 -6 88 -19t89.5 -40
t81 -63.5t57 -94t22.5 -127.5q0 -101 -43 -195.5t-117.5 -167t-183 -116.5t-231.5 -44q-81 0 -156.5 20t-125.5 48.5t-88.5 56.5t-56.5 48z" />
    <glyph glyph-name="four" unicode="4" horiz-adv-x="1234" 
d="M14 387l25 127l842 932h239l-176 -895h197l-31 -164h-197l-75 -387h-201l76 387h-699zM276 551h469l111 567q4 22 11.5 49.5t13.5 44.5l6 17h-6q-33 -51 -72 -96l-533 -578v-4z" />
    <glyph glyph-name="five" unicode="5" horiz-adv-x="1163" 
d="M12 164l119 133q5 -6 13.5 -15t38.5 -33t63 -42.5t85 -33.5t107 -15q99 0 187.5 45t143 125t54.5 176q0 114 -76 180t-202 66q-65 0 -130.5 -17.5t-98.5 -34.5l-33 -18l-115 45l215 721h745l-69 -352h-178l37 184h-392l-98 -320q-6 -22 -13.5 -42t-11.5 -30l-4 -9h4
q82 41 199 41q190 0 311 -113t121 -297q0 -144 -82.5 -267.5t-221 -194.5t-298.5 -71q-59 0 -114 10.5t-96 27t-76.5 36.5t-59.5 40.5t-41 37t-25 27.5z" />
    <glyph glyph-name="six" unicode="6" horiz-adv-x="1234" 
d="M111 502q0 80 17 170t52.5 184t84.5 183t118 167t149.5 137t181.5 93t210 34q79 0 150.5 -15t103.5 -31l32 -15l-86 -166q-9 5 -26.5 13t-70.5 21t-107 13q-98 0 -187 -42t-156 -113t-116.5 -156t-79.5 -180h4q57 62 148 99.5t184 37.5q184 0 290.5 -109t106.5 -282
q0 -84 -24 -166.5t-71.5 -155t-112 -128t-151.5 -88t-184 -32.5q-208 0 -334 142.5t-126 384.5zM317 479q0 -127 73 -224t192 -97q138 0 231.5 110t93.5 264q0 106 -64.5 170t-185.5 64q-81 0 -158.5 -35.5t-129.5 -103t-52 -148.5z" />
    <glyph glyph-name="seven" unicode="7" horiz-adv-x="1124" 
d="M84 0l836 1214q14 19 27.5 35.5t20.5 23.5l7 7v4q-37 -6 -84 -6h-498l-37 -184h-178l70 352h991l-27 -139l-907 -1307h-221z" />
    <glyph glyph-name="eight" unicode="8" horiz-adv-x="1241" 
d="M70 356q0 252 323 451q-133 98 -133 244q0 78 35 152.5t98 134t160.5 96t212.5 36.5q193 0 304.5 -89t111.5 -240q0 -215 -258 -439q159 -105 159 -266q0 -188 -162.5 -324.5t-398.5 -136.5q-202 0 -327 105t-125 276zM782 778q15 13 33.5 30t49.5 52.5t54.5 72.5
t41.5 86.5t18 96.5q0 83 -58.5 130.5t-160.5 47.5q-128 0 -212.5 -70t-84.5 -171q0 -29 9 -55t28.5 -48t39 -39.5t54 -36.5t58 -31.5t65.5 -32.5t65 -32zM281 379q0 -104 71.5 -164.5t182.5 -60.5q83 0 159 32t127 97t51 147q0 37 -16 69t-39 54.5t-61.5 47t-71 40t-81.5 39
t-79 39.5q-243 -155 -243 -340z" />
    <glyph glyph-name="nine" unicode="9" horiz-adv-x="1236" 
d="M74 39l84 164q9 -5 26 -12.5t69.5 -20t104.5 -12.5q98 0 187.5 42t156.5 112.5t117 156t80 180.5h-4q-58 -62 -148.5 -98.5t-185.5 -36.5q-184 0 -290.5 109t-106.5 280q0 104 38.5 205t107 182t172.5 130.5t225 49.5q211 0 336.5 -141.5t125.5 -384.5q0 -94 -24.5 -200
t-69.5 -215t-116.5 -208t-159 -176.5t-203 -123.5t-242.5 -46q-77 0 -147 16t-101 32zM618 684q80 0 159 35t132.5 102t53.5 146q0 128 -73 225.5t-190 97.5q-139 0 -234 -110.5t-95 -266.5q0 -104 63.5 -166.5t183.5 -62.5z" />
    <glyph glyph-name="colon" unicode=":" horiz-adv-x="616" 
d="M244 821l41 215h213l-41 -215h-213zM84 0l41 215h213l-41 -215h-213z" />
    <glyph glyph-name="semicolon" unicode=";" horiz-adv-x="628" 
d="M260 821l41 215h209l-43 -215h-207zM-86 -254l227 469h217l-280 -469h-164z" />
    <glyph glyph-name="less" unicode="&#x3c;" horiz-adv-x="1255" 
d="M100 516v135l955 426v-182l-731 -309v-4l731 -310v-182z" />
    <glyph glyph-name="equal" unicode="=" horiz-adv-x="1255" 
d="M131 696v160h977v-160h-977zM131 309v160h977v-160h-977z" />
    <glyph glyph-name="greater" unicode="&#x3e;" horiz-adv-x="1255" 
d="M199 90v182l731 310v4l-731 309v182l954 -426v-135z" />
    <glyph glyph-name="question" unicode="?" horiz-adv-x="968" 
d="M264 397l19 97q13 66 46 124t75 100t89.5 81t92.5 74t81.5 71t58.5 81.5t22 96.5q0 73 -53.5 119.5t-143.5 46.5q-59 0 -121.5 -21.5t-95.5 -42.5l-33 -22l-88 154q7 5 19 13t51 28.5t79.5 36t99.5 28.5t116 13q167 0 273.5 -89t106.5 -239q0 -74 -24 -138.5
t-63.5 -111.5t-87 -88.5t-98 -79t-93.5 -74t-75 -81t-42 -93.5l-16 -84h-195zM184 0l39 201h207l-41 -201h-205z" />
    <glyph glyph-name="at" unicode="@" horiz-adv-x="1624" 
d="M59 373q0 173 74 334.5t197.5 280.5t293.5 191t353 72q223 0 335.5 -97.5t112.5 -252.5q0 -42 -10 -94l-106 -551h147l-31 -150h-534q-174 0 -276.5 95t-102.5 237q0 84 37 163.5t102.5 140.5t163.5 98t211 37h213q2 20 2 36q0 73 -77 123.5t-208 50.5q-138 0 -268 -61
t-223 -160t-149 -229t-56 -264q0 -208 129 -339.5t350 -131.5l-30 -158q-188 0 -336 78.5t-231 222t-83 328.5zM715 449q0 -86 52.5 -139.5t143.5 -53.5h207l94 483h-202q-119 0 -207 -88t-88 -202z" />
    <glyph glyph-name="A" unicode="A" horiz-adv-x="1480" 
d="M-94 0l31 160h139l712 1286h230l209 -1286h141l-33 -160h-493l30 160h154l-49 321h-512l-176 -321h155l-32 -160h-506zM549 645h407l-77 502l-5 110h-6q-14 -51 -45 -110z" />
    <glyph glyph-name="B" unicode="B" horiz-adv-x="1402" 
d="M-6 0l31 160h180l219 1128h-182l32 158h625q149 0 242 -41q82 -34 128 -108.5t46 -172.5q0 -121 -67 -216t-177 -144v-4q85 -32 130.5 -107t45.5 -182q0 -143 -75.5 -254.5t-198.5 -167.5q-106 -49 -266 -49h-713zM541 838h303q110 0 186 74.5t76 189.5q0 99 -66 143
q-47 33 -137 33h-276zM410 168h303q114 0 190 49q61 40 99 108.5t38 147.5q0 93 -54.5 145t-151.5 52h-326z" />
    <glyph glyph-name="C" unicode="C" horiz-adv-x="1517" 
d="M117 606q0 175 71.5 335.5t190 276t278.5 184t332 68.5q59 0 125 -7t143 -27t134 -50t90 -82t20 -118l-37 -178h-186l20 116q10 47 -19 82t-81.5 53t-105.5 26.5t-105 8.5q-136 0 -259 -56.5t-210 -150t-138.5 -216.5t-51.5 -253q0 -206 118.5 -335t323.5 -129
q58 0 119 10t119 29.5t99 54t50 78.5l23 110h188l-33 -168q-12 -63 -56 -114.5t-104 -84t-134 -54.5t-143.5 -31t-135.5 -9q-291 0 -468 175.5t-177 455.5z" />
    <glyph glyph-name="D" unicode="D" horiz-adv-x="1599" 
d="M-8 0l31 160h180l219 1128h-180l30 158h598q189 0 326 -47q162 -62 247 -195t85 -332q0 -256 -135 -477.5t-357 -320.5q-163 -74 -381 -74h-663zM408 168h235q182 0 318 65q162 83 260 253.5t98 369.5q0 288 -215 381q-93 41 -246 41h-233z" />
    <glyph glyph-name="E" unicode="E" horiz-adv-x="1300" 
d="M-6 0l31 160h180l219 1128h-182l32 158h1047l-66 -336h-178l33 168h-483l-90 -465h512l-35 -168h-510l-94 -477h518l33 174h180l-68 -342h-1079z" />
    <glyph glyph-name="F" unicode="F" horiz-adv-x="1191" 
d="M-6 0l31 160h180l219 1128h-182l32 158h1002l-68 -342h-178l33 166h-438l-93 -479h500l-35 -168h-499l-88 -463h194l-31 -160h-579z" />
    <glyph glyph-name="G" unicode="G" horiz-adv-x="1576" 
d="M115 604q0 174 69.5 333.5t187.5 276.5t282.5 186.5t346.5 69.5q70 0 144.5 -10t149 -32.5t130.5 -54.5t86 -80.5t19 -106.5l-35 -178h-188l20 106q10 47 -19 83.5t-82.5 56.5t-111.5 30t-115 10q-142 0 -268.5 -57.5t-213.5 -152.5t-138 -218t-51 -252q0 -206 123 -333
t346 -127q57 0 120 9.5t126.5 29t109 56.5t55.5 85l39 190h-284l32 160h471l-80 -405q-16 -81 -80 -142.5t-155 -95t-185 -50t-186 -16.5q-304 0 -484.5 173.5t-180.5 455.5z" />
    <glyph glyph-name="H" unicode="H" horiz-adv-x="1740" 
d="M-8 0l31 160h180l219 1128h-180l30 158h568l-31 -158h-180l-94 -481h747l94 481h-182l31 158h569l-31 -158h-182l-221 -1128h182l-31 -160h-569l31 160h182l94 479h-747l-94 -479h182l-31 -160h-567z" />
    <glyph glyph-name="I" unicode="I" horiz-adv-x="786" 
d="M-8 0l31 160h180l219 1128h-180l30 158h568l-31 -158h-182l-219 -1128h182l-31 -160h-567z" />
    <glyph glyph-name="J" unicode="J" horiz-adv-x="1132" 
d="M0 317q0 37 7 79.5t13 66.5l7 24h196q-22 -82 -22 -145q0 -184 178 -184q44 0 84.5 14t78.5 42.5t66 80t41 119.5l170 874h-213l31 158h577l-30 -158h-160l-172 -889q-21 -110 -70 -194t-115 -133t-139.5 -73t-152.5 -24q-75 0 -141 20.5t-119 61t-84 107.5t-31 153z" />
    <glyph glyph-name="K" unicode="K" horiz-adv-x="1419" 
d="M-8 0l31 160h180l219 1128h-180l30 158h545l-31 -158h-159l-88 -454h176l403 454h-123l31 158h487l-30 -158h-140l-477 -530v-4q33 -20 58 -88l161 -416q17 -50 40 -72t77 -22l62 4l-31 -160q-32 -4 -98 -4q-60 0 -103 14t-71.5 44t-44.5 59t-33 75l-152 410
q-12 36 -35.5 52t-68.5 16h-121l-98 -506h178l-33 -160h-561z" />
    <glyph glyph-name="L" unicode="L" horiz-adv-x="1234" 
d="M-4 0l31 160h178l219 1118h-182l32 168h570l-33 -168h-182l-217 -1110h503l48 233h178l-80 -401h-1065z" />
    <glyph glyph-name="M" unicode="M" horiz-adv-x="1961" 
d="M-37 0l31 160h178l307 1128h-182l31 158h403l199 -881q5 -26 8 -52t4 -39v-13h4q20 45 53 104l543 881h416l-33 -158h-180l-133 -1128h180l-33 -160h-551l31 160h174l103 864q3 20 10 49.5t12 49.5l6 20h-6q-28 -70 -55 -111l-477 -760h-183l-184 760q-4 18 -6.5 46
t-2.5 46l-1 19h-4q-9 -74 -19 -119l-235 -864h174l-31 -160h-551z" />
    <glyph glyph-name="N" unicode="N" horiz-adv-x="1720" 
d="M-6 0l31 160h180l219 1128h-182l32 158h377l510 -1047q8 -17 15.5 -42t10.5 -41l3 -17h6q4 68 14 113l172 876h-184l31 158h571l-31 -158h-182l-252 -1288h-196l-512 1047q-8 18 -15.5 43t-10.5 41l-3 16h-6q-4 -68 -14 -113l-168 -874h184l-31 -160h-569z" />
    <glyph glyph-name="O" unicode="O" horiz-adv-x="1687" 
d="M115 606q0 115 33.5 226.5t92.5 206t141.5 175t179 137t207 88t222.5 31.5q185 0 328.5 -78.5t222 -218t78.5 -317.5q0 -174 -74 -338t-195 -282t-281.5 -189.5t-326.5 -71.5q-185 0 -328.5 81t-221.5 224.5t-78 325.5zM322 614q0 -201 121.5 -328.5t314.5 -127.5
q120 0 238.5 54.5t210 146t148 220t56.5 267.5q0 195 -121.5 319.5t-314.5 124.5q-122 0 -241 -54t-209.5 -143.5t-146.5 -216t-56 -262.5z" />
    <glyph glyph-name="P" unicode="P" horiz-adv-x="1347" 
d="M-8 0l31 160h182l219 1128h-182l32 158h658q137 0 215 -31q97 -37 156 -127t59 -219q0 -158 -86 -291.5t-227 -193.5q-98 -41 -242 -41h-324l-73 -383h182l-31 -160h-569zM516 711h285q98 0 166 32q84 39 135 124t51 190q0 142 -96 192q-60 29 -152 29h-278z" />
    <glyph glyph-name="Q" unicode="Q" horiz-adv-x="1685" 
d="M115 606q0 228 123.5 429t323 318t417.5 117q287 0 465 -172t178 -442q0 -177 -71.5 -333t-196.5 -281l133 -160l-131 -119l-133 170q-210 -158 -465 -158q-190 0 -337 81t-226.5 224.5t-79.5 325.5zM324 614q0 -201 121.5 -328.5t314.5 -127.5q182 0 344 114l-176 217
l129 117l172 -215q86 92 135 210t49 245q0 195 -121.5 319.5t-314.5 124.5q-123 0 -242 -54t-209.5 -143.5t-146 -216t-55.5 -262.5z" />
    <glyph glyph-name="R" unicode="R" horiz-adv-x="1441" 
d="M-8 0l31 160h182l219 1128h-182l32 158h637q170 0 258 -45q78 -41 124 -118t46 -187q0 -166 -103 -300t-275 -171v-7q33 -38 49 -77l112 -291q20 -51 42.5 -72.5t74.5 -21.5l59 4l-30 -160q-32 -4 -97 -4q-59 0 -101.5 14.5t-70.5 44.5t-44 58.5t-33 74.5l-117 314
q-18 49 -46 65.5t-83 16.5h-182l-84 -424h176l-31 -160h-563zM524 752h285q131 0 226 89t95 228q0 121 -77 170q-58 39 -185 39h-241z" />
    <glyph glyph-name="S" unicode="S" horiz-adv-x="1204" 
d="M59 297l29 143h188l-22 -112q-9 -45 11.5 -79.5t62.5 -53.5t91.5 -28t104.5 -9q143 0 234.5 73.5t91.5 190.5q0 54 -27 96t-71.5 68t-101.5 51.5t-116.5 46t-116.5 52.5t-101.5 69.5t-71.5 98.5t-27 138q0 82 29.5 152t81 120t121.5 85.5t151 53t168 17.5q54 0 110.5 -8
t113.5 -27.5t99 -47.5t63.5 -72.5t10.5 -97.5l-32 -156h-189l19 100q7 35 -11.5 61.5t-54 40.5t-75 20.5t-81.5 6.5q-134 0 -223.5 -64.5t-89.5 -170.5q0 -46 21.5 -82.5t58.5 -61t84.5 -46t100 -41t104.5 -41.5t99.5 -53t84.5 -69.5t58.5 -96.5t21.5 -130q0 -139 -78 -245
t-205 -160t-280 -54q-60 0 -122 9.5t-125.5 33.5t-110 59.5t-70.5 92.5t-11 127z" />
    <glyph glyph-name="T" unicode="T" horiz-adv-x="1363" 
d="M276 0l31 160h180l220 1118h-340l-43 -225h-181l78 393h1241l-78 -393h-178l43 225h-338l-219 -1118h182l-30 -160h-568z" />
    <glyph glyph-name="U" unicode="U" horiz-adv-x="1640" 
d="M217 399q0 43 21 172l139 717h-180l30 158h568l-31 -158h-182l-140 -719q-18 -106 -18 -147q0 -124 81 -194t226 -70q170 0 285 92q117 97 147 268l152 770h-182l30 158h570l-31 -158h-182l-154 -786q-28 -137 -94 -245t-164 -175q-159 -107 -383 -107
q-225 0 -366.5 113.5t-141.5 310.5z" />
    <glyph glyph-name="V" unicode="V" horiz-adv-x="1458" 
d="M502 0l-207 1288h-139l30 158h508l-30 -158h-160l139 -952q3 -23 3.5 -51t-0.5 -45l-1 -17h6q20 62 45 113l510 952h-159l32 158h520l-30 -158h-142l-708 -1288h-217z" />
    <glyph glyph-name="W" unicode="W" horiz-adv-x="2064" 
d="M375 0l-72 1288h-139l31 158h507l-30 -158h-172l41 -948l-6 -109h8q16 58 41 109l518 1106h174l86 -1106v-109h6q17 58 37 109l410 948h-173l31 158h522l-30 -158h-140l-575 -1288h-233l-82 1026q-2 27 -1 52.5t3 43.5l2 19h-9q-15 -64 -40 -115l-482 -1026h-233z" />
    <glyph glyph-name="X" unicode="X" horiz-adv-x="1372" 
d="M-57 0l30 160h136l487 581l-252 547h-139l31 158h493l-31 -158h-153l168 -383l24 -57h4q16 24 45 57l306 383h-146l33 158h494l-31 -158h-135l-490 -586l254 -542h141l-32 -160h-492l31 160h151l-168 377l-26 61h-4q-20 -30 -47 -61l-301 -377h147l-33 -160h-495z" />
    <glyph glyph-name="Y" unicode="Y" horiz-adv-x="1335" 
d="M264 0l31 160h182l88 452l-274 676h-137l30 158h490l-31 -158h-151l178 -454l18 -62h4q18 31 41 62l359 454h-150l31 158h502l-31 -158h-137l-537 -676l-88 -452h180l-31 -160h-567z" />
    <glyph glyph-name="Z" unicode="Z" horiz-adv-x="1300" 
d="M-2 0l27 135l940 1075q16 18 34.5 35.5t28.5 26.5l10 8v4q-41 -6 -82 -6h-524l-43 -225h-180l78 393h1042l-26 -133l-945 -1077q-16 -18 -34.5 -35.5t-28.5 -26.5l-10 -8v-4q41 6 82 6h555l47 233h178l-80 -401h-1069z" />
    <glyph glyph-name="bracketleft" unicode="[" horiz-adv-x="647" 
d="M45 -195l332 1700h338l-29 -149h-166l-270 -1399h166l-31 -152h-340z" />
    <glyph glyph-name="backslash" unicode="\" horiz-adv-x="864" 
d="M473 -86l-207 1610h168l207 -1610h-168z" />
    <glyph glyph-name="bracketright" unicode="]" horiz-adv-x="647" 
d="M-23 -43h164l271 1399h-164l31 149h339l-331 -1700h-338z" />
    <glyph glyph-name="asciicircum" unicode="^" horiz-adv-x="1255" 
d="M20 506l410 940h129l410 -940h-181l-294 721l-293 -721h-181z" />
    <glyph glyph-name="underscore" unicode="_" horiz-adv-x="1142" 
d="M-98 0h1099l-28 -160h-1102z" />
    <glyph glyph-name="grave" unicode="`" horiz-adv-x="1021" 
d="M414 1546l-203 260h221l160 -260h-178z" />
    <glyph glyph-name="a" unicode="a" horiz-adv-x="1140" 
d="M0 238q0 79 31.5 142.5t87 106t123.5 73t149.5 47t155 23.5t149.5 7h52q14 69 14 102q0 158 -189 158q-72 0 -149.5 -24.5t-118.5 -48.5l-41 -25l-51 153q7 4 20.5 11.5t55.5 26.5t85.5 33t108 26t125.5 12q75 0 137 -16.5t111.5 -51t77 -93t27.5 -136.5
q0 -64 -47.5 -273.5t-47.5 -250.5q0 -90 95 -90l47 4l-29 -154q-37 -4 -94 -4q-210 0 -213 188h-4q2 0 -14 -21.5t-48 -52.5t-74 -61.5t-104 -52t-127 -21.5q-129 0 -215 69.5t-86 193.5zM199 270q0 -64 40 -102.5t121 -38.5q60 0 120 31.5t105.5 81t79 108.5t48.5 117
l10 41h-53q-54 0 -105.5 -3.5t-122 -18t-121 -38.5t-86.5 -70t-36 -108z" />
    <glyph glyph-name="b" unicode="b" horiz-adv-x="1253" 
d="M59 0l250 1292h-174l31 154h371l-91 -469q-4 -22 -10.5 -45.5t-11.5 -35.5l-4 -13h4q56 79 150.5 128.5t195.5 49.5q183 0 285 -114.5t102 -311.5q0 -142 -48 -267t-127 -210t-181 -134t-209 -49q-109 0 -194 49t-122 140h-4q-2 -39 -10 -84l-16 -80h-187zM340 410
q0 -115 58 -189t175 -74q67 0 134 33t122.5 92t90 150.5t34.5 198.5q0 124 -62 195t-171 71q-105 0 -193.5 -67.5t-138 -177t-49.5 -232.5z" />
    <glyph glyph-name="c" unicode="c" horiz-adv-x="1140" 
d="M57 430q0 166 87.5 311t240.5 232.5t332 87.5q62 0 125.5 -13t124 -39.5t93.5 -76.5t21 -115l-24 -119h-176l14 70q7 40 -23.5 68.5t-77 40.5t-98.5 12q-83 0 -163 -36t-140 -96t-96.5 -142.5t-36.5 -170.5q0 -136 82.5 -216.5t226.5 -80.5q58 0 116 14t99 34t74 40
t50 34l16 14l57 -154q-6 -6 -18.5 -16.5t-54.5 -37t-88.5 -47t-119.5 -37t-149 -16.5q-225 0 -359.5 125.5t-134.5 329.5z" />
    <glyph glyph-name="d" unicode="d" horiz-adv-x="1310" 
d="M61 399q0 143 47.5 268.5t126.5 210.5t182.5 134t215.5 49q104 0 185.5 -44.5t115.5 -133.5h4q2 38 10 75l64 334h-172l30 154h371l-221 -1143q-8 -46 -8 -63q0 -51 25 -70.5t69 -19.5l47 4l-29 -154q-45 -4 -86 -4q-106 0 -164 43.5t-55 142.5h-4q-56 -88 -154 -147.5
t-210 -59.5q-185 0 -287.5 114t-102.5 310zM264 414q0 -124 62.5 -195.5t171.5 -71.5q105 0 193.5 70t137 179.5t48.5 228.5q0 115 -58.5 188.5t-173.5 73.5q-68 0 -135 -33t-122 -91.5t-89.5 -150t-34.5 -198.5z" />
    <glyph glyph-name="e" unicode="e" horiz-adv-x="1138" 
d="M61 418q0 171 77.5 318t217.5 236t310 89q193 0 293 -104.5t100 -278.5q0 -37 -8.5 -81.5t-16.5 -70.5l-8 -26h-754q-8 -35 -8 -74q0 -124 78 -201.5t217 -77.5q50 0 102.5 12.5t92 29.5t71.5 34.5t49 30.5l17 12l55 -155q-7 -6 -20 -15t-55 -32.5t-86 -41.5t-109 -32.5
t-127 -14.5q-224 0 -356 123t-132 320zM301 627h553q6 34 6 67q0 102 -54.5 155.5t-146.5 53.5q-116 0 -214 -73.5t-144 -202.5z" />
    <glyph glyph-name="f" unicode="f" horiz-adv-x="718" 
d="M117 0l170 883h-172l30 153h170l11 45q14 70 40.5 128t57.5 96.5t70.5 67.5t76 45t77 26t70.5 13t60 3q24 0 46.5 -1.5t33.5 -2.5l10 -2l-34 -162q-25 4 -60 4q-204 0 -248 -211l-10 -49h250l-29 -153h-250l-172 -883h-198z" />
    <glyph glyph-name="g" unicode="g" horiz-adv-x="1284" 
d="M88 -195q13 -8 36 -19t95.5 -29.5t145.5 -18.5q331 0 391 328q7 35 14.5 64t11.5 40l4 12h-4q-122 -170 -319 -170q-186 0 -290.5 115.5t-104.5 304.5q0 88 22.5 176.5t69 170t110 144.5t153 100.5t191.5 37.5q132 0 216.5 -51t103.5 -123h4q-2 14 4 43q19 106 137 106
h224l-29 -153h-115q-44 0 -53 -41l-156 -809q-25 -123 -83 -215.5t-137.5 -145t-167.5 -77.5t-185 -25q-210 0 -373 92zM270 446q0 -122 62.5 -192t177.5 -70q87 0 157.5 45.5t113 117.5t65 155t22.5 164q0 223 -237 223q-111 0 -195 -66t-125 -165.5t-41 -211.5z" />
    <glyph glyph-name="h" unicode="h" horiz-adv-x="1316" 
d="M59 0l250 1292h-166l29 154h367l-103 -535q-4 -22 -10.5 -45t-11.5 -35l-4 -12h4q11 21 33 49t61.5 62.5t86.5 63t112 48t133 19.5q137 0 213.5 -70.5t76.5 -202.5q0 -69 -45 -291t-45 -257q0 -54 24 -72t69 -18l49 4l-31 -154q-39 -4 -88 -4q-33 0 -59.5 3t-59.5 15
t-55 31.5t-37.5 57t-15.5 87.5q0 48 44 267.5t44 271.5q0 73 -40 111.5t-114 38.5q-152 0 -270.5 -121t-151.5 -293l-92 -465h-197z" />
    <glyph glyph-name="i" unicode="i" horiz-adv-x="653" 
d="M342 1243l41 203h209l-41 -203h-209zM150 195q0 32 10 90l119 598h-175l31 153h371l-144 -733q-8 -46 -8 -63q0 -90 95 -90l47 4l-29 -154q-47 -4 -82 -4q-36 0 -64 3t-62 15t-56 32.5t-37.5 58.5t-15.5 90z" />
    <glyph glyph-name="j" unicode="j" horiz-adv-x="610" 
d="M352 1243l39 203h209l-39 -203h-209zM111 -33l176 916h-174l30 153h373l-207 -1061q-16 -83 -47 -149.5t-71 -108.5t-82.5 -71t-89.5 -43t-83.5 -19.5t-72.5 -5.5l-94 4l32 160q16 -2 45 -2q27 0 53 4t61.5 18t63 37t52 66.5t35.5 101.5z" />
    <glyph glyph-name="k" unicode="k" horiz-adv-x="1144" 
d="M57 0l252 1292h-172l29 154h373l-158 -809h131l264 246h-129l29 153h463l-31 -153h-121l-334 -312v-4q29 -23 56 -82l112 -247q18 -43 42 -64.5t73 -21.5l57 2l-28 -154q-28 -4 -91 -4q-58 0 -97.5 11.5t-66 41t-39 51t-33.5 69.5q-3 7 -5 11l-115 256q-12 28 -30.5 38.5
t-53.5 10.5h-82l-98 -485h-197z" />
    <glyph glyph-name="l" unicode="l" horiz-adv-x="604" 
d="M100 201q0 30 11 94l194 997h-174l31 154h370l-217 -1133q-10 -42 -10 -69q0 -52 24 -69t70 -17l50 4l-33 -164q-41 -4 -82 -4q-234 0 -234 207z" />
    <glyph glyph-name="m" unicode="m" horiz-adv-x="2019" 
d="M117 0l164 840q6 43 -37 43h-129l30 153h234q113 0 113 -86q0 -19 -10.5 -66.5t-20.5 -74.5h4q20 37 58.5 78.5t91.5 81.5t123 66t139 26q245 0 260 -252h4q62 110 172 181t235 71q133 0 209 -72t76 -203q0 -67 -45 -288.5t-45 -257.5q0 -54 23.5 -72t68.5 -18l49 4
l-31 -154q-39 -4 -88 -4q-33 0 -59.5 3t-59.5 15t-55 31.5t-37.5 57t-15.5 87.5q0 48 44 270t44 271q0 73 -33.5 111.5t-117.5 38.5q-92 0 -174 -61.5t-133 -153t-70 -193.5l-92 -473h-199l121 621q14 96 14 116q0 69 -33 106.5t-114 37.5q-72 0 -138.5 -36.5t-115.5 -96
t-84 -133.5t-51 -152l-91 -463h-198z" />
    <glyph glyph-name="n" unicode="n" horiz-adv-x="1376" 
d="M117 0l164 838q7 45 -37 45h-129l30 153h236q111 0 111 -88q0 -19 -10 -65.5t-21 -73.5h4q11 22 33 50.5t62 65t87.5 66t115.5 50t140 20.5q134 0 210.5 -70.5t76.5 -202.5q0 -69 -45 -291t-45 -257q0 -54 23.5 -72t68.5 -18l49 4l-31 -154q-41 -4 -88 -4q-33 0 -59.5 3
t-59.5 15t-55 31.5t-37.5 57t-15.5 87.5q0 48 44 267.5t44 271.5q0 74 -40 112t-116 38q-149 0 -268.5 -122t-152.5 -292l-91 -465h-198z" />
    <glyph glyph-name="o" unicode="o" horiz-adv-x="1284" 
d="M59 432q0 173 93 319t243 228t318 82q211 0 344 -126t133 -327q0 -131 -55 -250t-145.5 -202t-209 -132t-243.5 -49q-211 0 -344.5 127.5t-133.5 329.5zM262 440q0 -130 81 -211.5t210 -81.5q107 0 207 58.5t163.5 163.5t63.5 229q0 129 -81 210t-210 81
q-108 0 -208 -58.5t-163 -163t-63 -227.5z" />
    <glyph glyph-name="p" unicode="p" horiz-adv-x="1314" 
d="M37 -410l242 1248q7 45 -35 45h-129l30 153h232q59 0 82.5 -20.5t23.5 -59.5q0 -22 -20 -94h4q57 89 151 144t211 55q183 0 285.5 -114.5t102.5 -311.5q0 -142 -48 -267t-126.5 -210t-180.5 -134t-209 -49q-106 0 -188 46.5t-121 134.5h-4q-2 -44 -12 -97l-92 -469h-199z
M401 414q0 -116 59 -191.5t173 -75.5q68 0 135 33t122 92t89.5 150.5t34.5 198.5q0 125 -62 195.5t-172 70.5q-103 0 -191 -67.5t-138 -176.5t-50 -229z" />
    <glyph glyph-name="q" unicode="q" horiz-adv-x="1255" 
d="M61 397q0 144 47.5 269.5t127 211t183 134.5t214.5 49q112 0 193.5 -46.5t117.5 -137.5h4q0 28 8 71l17 88h188l-252 -1296h174l-30 -150h-373l94 473q4 24 11 48t11 37l5 12h-4q-52 -77 -140.5 -131t-205.5 -54q-184 0 -287 114t-103 308zM264 414q0 -124 62.5 -195.5
t171.5 -71.5q105 0 194 70t138 179.5t49 228.5q0 114 -59 188t-173 74q-68 0 -135.5 -33t-123 -91.5t-90 -150t-34.5 -198.5z" />
    <glyph glyph-name="r" unicode="r" horiz-adv-x="837" 
d="M117 0l162 838q7 45 -37 45h-129l32 153h234q59 0 84.5 -21.5t25.5 -66.5q0 -21 -12 -80.5t-24 -95.5h4q56 118 155.5 197.5t216.5 79.5q32 0 62 -5l-39 -196q-30 6 -55 6q-92 0 -179 -68t-146.5 -174.5t-82.5 -226.5l-74 -385h-198z" />
    <glyph glyph-name="s" unicode="s" horiz-adv-x="995" 
d="M10 231l19 103h174l-13 -68q-7 -32 7 -56.5t38 -38t58.5 -21.5t63 -10.5t57.5 -2.5q101 0 168 41.5t67 110.5q0 40 -27.5 70.5t-71 51t-96.5 40t-106.5 44t-97 55t-71 80t-27.5 113.5q0 101 65 175t163 108.5t212 34.5q91 0 167 -22.5t122.5 -74.5t31.5 -124l-22 -113
h-174l14 74q6 29 -8.5 50t-43 31t-57 14.5t-59.5 4.5q-89 0 -152 -38t-63 -105q0 -40 27.5 -70.5t71.5 -50.5t97 -39t106 -42t97 -52.5t71.5 -77.5t27.5 -111q0 -151 -127.5 -245.5t-333.5 -94.5q-55 0 -110 8.5t-108.5 28.5t-91.5 48.5t-57 72.5t-8 98z" />
    <glyph glyph-name="t" unicode="t" horiz-adv-x="731" 
d="M154 295q0 45 12 104l94 484h-174l31 153h178l55 285h193l-56 -285h250l-30 -153h-250l-92 -484q-9 -43 -9 -80q0 -163 172 -163l58 4l-33 -164q-33 -4 -66 -4q-52 0 -96.5 7.5t-89.5 28.5t-76.5 54t-51 87.5t-19.5 125.5z" />
    <glyph glyph-name="u" unicode="u" horiz-adv-x="1363" 
d="M152 248q0 65 14 131l96 504h-172l31 153h371l-119 -616q-17 -73 -17 -119q0 -71 36 -108t120 -37q99 0 189 61.5t147 154t76 193.5l61 318h-172l31 153h370l-143 -733q-6 -35 -6 -63q0 -51 24.5 -70.5t67.5 -19.5l49 4l-30 -154q-46 -4 -95 -4q-108 0 -162.5 56.5
t-44.5 170.5h-4q-28 -44 -66 -84t-91 -79t-123.5 -62t-147.5 -23q-128 0 -209 67.5t-81 205.5z" />
    <glyph glyph-name="v" unicode="v" horiz-adv-x="1193" 
d="M367 0l-162 883h-131l28 153h459l-31 -153h-133l103 -604q4 -20 5 -44.5t0 -38.5l-1 -14h6q16 52 41 97l338 604h-133l30 153h469l-28 -153h-131l-506 -883h-223z" />
    <glyph glyph-name="w" unicode="w" horiz-adv-x="1761" 
d="M301 0l-96 883h-129l30 153h457l-28 -153h-142l60 -602q2 -23 1.5 -44.5t-2.5 -36.5l-1 -16h6q14 54 32 97l377 753h183l77 -753q2 -23 1.5 -44.5t-1.5 -36.5l-2 -16h6q15 54 35 97l295 602h-139l29 153h471l-31 -153h-129l-438 -883h-224l-81 692q-2 21 -2 45.5t1 38.5
l1 15h-7q-14 -52 -37 -99l-352 -692h-221z" />
    <glyph glyph-name="x" unicode="x" horiz-adv-x="1153" 
d="M-41 0l29 154h143l326 385l-138 307q-11 22 -22.5 29.5t-36.5 7.5h-123l31 153h192q45 0 66.5 -15t40.5 -58l96 -232l23 -63h4q18 32 47 65l244 303h274l-29 -153h-147l-309 -361l131 -284q22 -45 46.5 -65.5t76.5 -20.5l69 2l-30 -154q-28 -4 -89 -4q-25 0 -46.5 2
t-40 8t-33 10.5t-28 16t-22 17.5t-19.5 22.5t-16 23t-14.5 27.5t-12.5 27t-13 30l-62 154l-24 63h-4q-18 -30 -45 -65l-265 -332h-270z" />
    <glyph glyph-name="y" unicode="y" horiz-adv-x="1212" 
d="M-31 -219q6 -5 16.5 -12.5t46 -20t74.5 -12.5q64 0 122 39.5t98 103.5l61 103l-186 901h-131l30 153h465l-28 -153h-138l111 -617q4 -20 4.5 -42.5t-0.5 -35.5l-2 -12h6q16 45 43 90l348 617h-133l31 153h465l-31 -153h-127l-616 -1047q-156 -266 -396 -266
q-65 0 -121.5 17t-80.5 34l-23 17z" />
    <glyph glyph-name="z" unicode="z" horiz-adv-x="1085" 
d="M-23 0l25 131l678 672q18 19 39.5 39t34.5 30l12 11v4q-41 -4 -98 -4h-324l-31 -166h-174l64 319h846l-27 -131l-676 -672q-20 -20 -41.5 -39.5t-34 -30t-12.5 -9.5v-4q43 4 100 4h367l33 165h172l-62 -319h-891z" />
    <glyph glyph-name="braceleft" unicode="{" horiz-adv-x="698" 
d="M150 66q0 39 10 104l35 184q6 34 6 60q0 43 -14 75.5t-33.5 48.5t-39.5 26t-34 12l-14 2l34 176q7 1 19 3t44.5 16t60 36t55 67t38.5 105l37 184q71 367 445 342l-29 -151q-22 2 -46 -0.5t-56.5 -14.5t-59.5 -34.5t-51 -65t-35 -100.5l-43 -226q-11 -57 -38 -104
t-56.5 -72t-57.5 -42.5t-47 -22.5l-18 -6v-4q5 -2 13 -6.5t29 -22t37 -39t29 -60t13 -83.5q0 -25 -6 -60l-43 -219q-8 -54 -8 -76q0 -40 12.5 -69t32 -42.5t43 -22.5t45.5 -9h39l-29 -152q-20 -4 -49 -4q-26 0 -55.5 4.5t-69.5 21.5t-70.5 44.5t-52.5 78.5t-22 118z" />
    <glyph glyph-name="bar" unicode="|" horiz-adv-x="679" 
d="M258 -326v1948h176v-1948h-176z" />
    <glyph glyph-name="braceright" unicode="}" horiz-adv-x="698" 
d="M-84 -199l29 154h47.5t57 14t58 35.5t51 64.5t34.5 101l47 244q11 59 38 107t56.5 74t57.5 44t46 23l19 6v4q-5 2 -13 6t-29 21t-37 38t-29 58.5t-13 81.5q0 27 6 61l39 203q8 36 8 71q0 40 -13 68.5t-31.5 43.5t-43.5 23t-44.5 9t-39.5 0l31 151q27 6 60.5 2t69 -11
t69.5 -28t60.5 -49t43 -73.5t16.5 -102.5q0 -49 -12 -104l-31 -164q-6 -35 -6 -59q0 -31 7.5 -57t19.5 -42.5t26.5 -29.5t29.5 -19t27 -10t20 -5l7 -1l-34 -176q-7 -1 -19.5 -3t-45 -16t-60 -36t-55.5 -67.5t-40 -105.5l-39 -205q-18 -93 -56.5 -161t-83.5 -104t-102 -56
t-104.5 -23.5t-99.5 0.5z" />
    <glyph glyph-name="asciitilde" unicode="~" horiz-adv-x="1226" 
d="M121 418q0 174 75.5 260t211.5 86q50 0 92.5 -15t70 -37t56 -48.5t51 -48.5t55 -37t68.5 -15q50 0 81.5 31.5t42.5 72.5t11 89h162q0 -175 -74.5 -260.5t-210.5 -85.5q-59 0 -107.5 20.5t-80 49.5t-60.5 58t-65.5 49.5t-79.5 20.5q-38 0 -65.5 -17.5t-42 -46.5t-21 -60.5
t-6.5 -65.5h-164z" />
    <glyph glyph-name="uni00A0" unicode="&#xa0;" horiz-adv-x="544" 
 />
    <glyph glyph-name="exclamdown" unicode="&#xa1;" horiz-adv-x="501" 
d="M188 836l41 200h207l-41 -200h-207zM-51 -410l219 1049h178l-190 -1049h-207z" />
    <glyph glyph-name="cent" unicode="&#xa2;" horiz-adv-x="1157" 
d="M403 -27l35 181q-155 31 -245.5 148t-90.5 300q0 128 43 250t117 217t178.5 157t221.5 72l32 172h146l-35 -180q56 -10 103.5 -32.5t79 -50.5t57 -59.5t39.5 -60.5t23 -53t12 -38l3 -15l-180 -68q-1 4 -2.5 11.5t-8.5 28t-16.5 39.5t-28.5 42.5t-42.5 40t-59.5 28
t-79 11.5q-112 0 -204 -69.5t-143 -186t-51 -252.5q0 -126 62.5 -199t183.5 -73q57 0 111 20.5t89.5 49.5t63 58t40.5 50l13 20l170 -71q-6 -12 -17.5 -32t-53.5 -72t-90.5 -93t-128.5 -78t-168 -43l-33 -170h-146z" />
    <glyph glyph-name="sterling" unicode="&#xa3;" horiz-adv-x="1261" 
d="M-23 0l31 164h176l97 489h-144l29 144h139l60 293q31 164 168.5 272t320.5 108q62 0 119.5 -14.5t96 -35t68 -40.5t42.5 -34l14 -15l-131 -125q-3 3 -9.5 8.5t-27.5 20t-44.5 25t-59 19.5t-72.5 9q-111 0 -189 -63t-96 -158l-53 -270h369l-29 -144h-367l-96 -489h518
l47 237h179l-78 -401h-1078z" />
    <glyph glyph-name="yen" unicode="&#xa5;" horiz-adv-x="1298" 
d="M420 0l82 408h-334l22 129h334l17 75l-37 99h-279l25 129h211l-219 606h219l155 -451l54 -209h4q62 111 125 207l327 453h242l-457 -606h209l-24 -129h-279l-72 -99l-16 -75h332l-25 -129h-329l-82 -408h-205z" />
    <glyph glyph-name="section" unicode="&#xa7;" horiz-adv-x="886" 
d="M207 227l12 789q-3 125 45 227.5t147 164.5t232 62q53 0 102.5 -11.5t83 -27.5t59.5 -32t38 -27l12 -12l-111 -119q-8 7 -22 17.5t-62 28.5t-100 18q-125 0 -195.5 -81t-68.5 -208l-14 -789h-158zM-27 -16l111 120q8 -7 22 -17.5t62 -28t100 -17.5q126 0 196 80t68 207
l15 788h158l-13 -788q2 -125 -46.5 -227t-147.5 -165t-232 -63q-52 0 -101.5 11.5t-82.5 27.5t-59 32.5t-38 27.5z" />
    <glyph glyph-name="dieresis" unicode="&#xa8;" horiz-adv-x="1021" 
d="M498 1599l43 207h176l-43 -207h-176zM88 1599l41 207h178l-43 -207h-176z" />
    <glyph glyph-name="copyright" unicode="&#xa9;" horiz-adv-x="1669" 
d="M125 723q0 153 57.5 291.5t155 238.5t232 158.5t282.5 58.5q202 0 371 -99.5t266.5 -271t97.5 -376.5q0 -153 -57.5 -291.5t-155.5 -238.5t-234.5 -159t-287.5 -59q-197 0 -364.5 99.5t-265 272t-97.5 376.5zM276 723q0 -169 75.5 -308.5t208 -219.5t292.5 -80
q122 0 231 47t187 128t123 194t45 239t-45 239t-123 194t-187 128t-231 47q-160 0 -292.5 -80t-208 -219.5t-75.5 -308.5zM465 721q0 81 28.5 155t79.5 130.5t128 90t167 33.5q66 0 125 -21t95.5 -50.5t63.5 -59t38 -50.5l12 -21l-125 -68q-3 5 -8.5 14t-25 31t-41 39
t-57 31t-73.5 14q-116 0 -185 -78.5t-69 -189.5q0 -114 68 -191t186 -77q38 0 73.5 13.5t58.5 32.5t40 37.5t25 31.5l8 14l125 -68q-4 -8 -12.5 -22t-38.5 -49t-65 -61.5t-94 -48.5t-124 -22q-91 0 -168 33.5t-128 90t-79 130.5t-28 156z" />
    <glyph glyph-name="ordfeminine" unicode="&#xaa;" horiz-adv-x="874" 
d="M414 782q-76 0 -134.5 46t-58.5 128q0 246 422 246h33q4 21 4 25q9 59 -18.5 90t-88.5 31q-40 0 -85.5 -14t-71.5 -28l-25 -14l-43 105q4 3 12 7.5t34.5 16.5t55 21t71 16.5t85.5 7.5q111 0 168 -50t57 -148q0 -31 -10 -76l-78 -395h-139l21 98h-4q-3 -5 -9 -12.5
t-26 -27t-42.5 -34.5t-57.5 -27t-72 -12zM463 899q67 0 123 65t69 142h-22q-40 0 -77 -4.5t-82.5 -16.5t-73 -41t-27.5 -71q0 -34 23 -54t67 -20zM139 543l23 116h563l-23 -116h-563z" />
    <glyph glyph-name="guillemotleft" unicode="&#xab;" horiz-adv-x="1153" 
d="M752 158l-263 424l424 417h211l-444 -430l260 -411h-188zM344 158l-262 424l391 417h209l-410 -430l260 -411h-188z" />
    <glyph glyph-name="logicalnot" unicode="&#xac;" horiz-adv-x="1294" 
d="M145 696v160h977v-547h-166v387h-811z" />
    <glyph glyph-name="uni00AD" unicode="&#xad;" horiz-adv-x="976" 
d="M166 496l33 176h598l-33 -176h-598z" />
    <glyph glyph-name="registered" unicode="&#xae;" horiz-adv-x="1669" 
d="M125 723q0 153 57.5 291.5t155 238.5t232 158.5t282.5 58.5q202 0 371 -99.5t266.5 -271t97.5 -376.5q0 -153 -57.5 -291.5t-155.5 -238.5t-234.5 -159t-287.5 -59q-197 0 -364.5 99.5t-265 272t-97.5 376.5zM276 723q0 -169 75.5 -308.5t208 -219.5t292.5 -80
q122 0 231 47t187 128t123 194t45 239t-45 239t-123 194t-187 128t-231 47q-160 0 -292.5 -80t-208 -219.5t-75.5 -308.5zM602 340v772h299q109 0 175.5 -64t66.5 -171q0 -82 -44 -136.5t-98 -68.5v-4q9 -8 27 -43l150 -285h-160l-144 299h-126v-299h-146zM748 745h122
q58 0 91.5 35t33.5 97q0 59 -32.5 91.5t-90.5 32.5h-124v-256z" />
    <glyph glyph-name="macron" unicode="&#xaf;" horiz-adv-x="1021" 
d="M129 1606l27 145h520l-27 -145h-520z" />
    <glyph glyph-name="degree" unicode="&#xb0;" horiz-adv-x="806" 
d="M473 864q-124 0 -202 75t-78 191q0 132 108.5 236t241.5 104q122 0 201 -75.5t79 -190.5q0 -88 -51.5 -167.5t-132.5 -126t-166 -46.5zM483 1016q70 0 125.5 53.5t55.5 124.5q0 56 -36 91.5t-93 35.5q-71 0 -127 -55t-56 -127q0 -55 36 -89t95 -34z" />
    <glyph glyph-name="plusminus" unicode="&#xb1;" horiz-adv-x="1255" 
d="M82 504v160h459v503h168v-503h456v-160h-456v-504h-168v504h-459zM115 -195h1018v-159h-1018v159z" />
    <glyph glyph-name="twosuperior" unicode="&#xb2;" horiz-adv-x="776" 
d="M131 866q2 87 33.5 158.5t80.5 119.5t108 88.5t117.5 73t107 65t78.5 73.5t30 88t-33.5 77.5t-87.5 30.5q-46 0 -94.5 -24.5t-74.5 -49.5l-25 -24l-90 100q5 6 14 15.5t39.5 33.5t63 42.5t81 33.5t96.5 15q119 0 195 -64.5t76 -171.5q0 -65 -26.5 -119.5t-69.5 -93.5
t-95.5 -73t-107.5 -64t-102.5 -59t-83.5 -66t-48 -78h326l20 105h129l-45 -232h-612z" />
    <glyph glyph-name="threesuperior" unicode="&#xb3;" horiz-adv-x="770" 
d="M440 846q-58 0 -110.5 14t-86.5 34t-59.5 39.5t-37.5 33.5l-11 14l101 100q3 -4 8.5 -10t24.5 -22.5t41 -29t57 -22.5t73 -10q77 0 136 53.5t59 128.5q0 56 -46 87.5t-110 31.5h-63l-21 74l240 235q11 11 24.5 21.5t20.5 15.5l8 4v7q-28 -7 -61 -7h-201l-20 -108h-130
l46 231h569l-19 -98l-276 -266q34 -7 65.5 -23t62 -42.5t49 -68t18.5 -92.5q0 -127 -102 -226t-249 -99z" />
    <glyph glyph-name="acute" unicode="&#xb4;" horiz-adv-x="1021" 
d="M152 1546l262 260h237l-303 -260h-196z" />
    <glyph glyph-name="mu" unicode="&#xb5;" horiz-adv-x="1228" 
d="M184 -121l-55 -289h-176l280 1446h199l-119 -610q-14 -63 -14 -119q0 -72 36.5 -109.5t121.5 -37.5q99 0 188.5 59.5t147 151t77.5 194.5l93 471h198l-203 -1036h-192l22 121q4 22 11 46.5l11 38.5l5 13h-4q-23 -41 -61 -81t-90.5 -78t-123 -61.5t-145.5 -23.5
q-122 0 -184 68h-4q-7 -105 -19 -164z" />
    <glyph glyph-name="mu" unicode="&#x3bc;" horiz-adv-x="1228" 
d="M184 -121l-55 -289h-176l280 1446h199l-119 -610q-14 -63 -14 -119q0 -72 36.5 -109.5t121.5 -37.5q99 0 188.5 59.5t147 151t77.5 194.5l93 471h198l-203 -1036h-192l22 121q4 22 11 46.5l11 38.5l5 13h-4q-23 -41 -61 -81t-90.5 -78t-123 -61.5t-145.5 -23.5
q-122 0 -184 68h-4q-7 -105 -19 -164z" />
    <glyph glyph-name="paragraph" unicode="&#xb6;" horiz-adv-x="1230" 
d="M424 -102l117 596q-161 0 -281.5 119t-120.5 296q0 142 81.5 267.5t210.5 197.5t267 72h582l-33 -176h-403l-266 -1372h-154zM705 -102l243 1255h152l-242 -1255h-153z" />
    <glyph glyph-name="periodcentered" unicode="&#xb7;" horiz-adv-x="573" 
d="M158 485l41 215h207l-41 -215h-207z" />
    <glyph glyph-name="cedilla" unicode="&#xb8;" horiz-adv-x="1021" 
d="M256 -199l113 246l96 -20l-2 -17l-55 -125q60 -6 98.5 -43t38.5 -96q0 -49 -24 -87t-63 -59.5t-83 -32.5t-90 -11q-29 0 -58 3.5t-43 6.5l-14 4l23 108q35 -12 86 -12q28 0 53 5.5t46 24t21 46.5t-29.5 43.5t-78.5 15.5h-35z" />
    <glyph glyph-name="onesuperior" unicode="&#xb9;" horiz-adv-x="688" 
d="M129 866l25 127h211l96 496q3 18 7.5 36.5t7.5 28.5l3 9h-4q-20 -29 -51 -52l-100 -81l-76 102l282 229h138l-150 -768h209l-25 -127h-573z" />
    <glyph glyph-name="ordmasculine" unicode="&#xba;" horiz-adv-x="968" 
d="M528 786q-135 0 -218 79.5t-83 205.5q0 108 58.5 200.5t152 144.5t197.5 52q135 0 219 -80t84 -206q0 -109 -60 -201.5t-154 -143.5t-196 -51zM541 920q95 0 171 73.5t76 180.5q0 72 -46.5 117.5t-118.5 45.5q-95 0 -170.5 -74.5t-75.5 -179.5q0 -74 45.5 -118.5
t118.5 -44.5zM152 543l22 116h639l-22 -116h-639z" />
    <glyph glyph-name="guillemotright" unicode="&#xbb;" horiz-adv-x="1155" 
d="M459 158l411 430l-262 411h189l264 -424l-393 -417h-209zM16 158l447 430l-262 411h188l264 -424l-426 -417h-211z" />
    <glyph glyph-name="onequarter" unicode="&#xbc;" horiz-adv-x="1970" 
d="M1499 0l43 223h-424l19 99l520 573h168l-107 -551h125l-22 -121h-127l-43 -223h-152zM1300 344h267l57 299q4 18 10.5 41t11.5 37l5 14h-6q-27 -45 -60 -80l-285 -307v-4zM594 0h-164l969 1446h162zM102 551l25 127h211l96 496q3 18 7.5 36.5t8.5 27.5l3 9h-4
q-21 -28 -52 -51l-100 -82l-76 103l283 229h137l-149 -768h208l-24 -127h-574z" />
    <glyph glyph-name="onehalf" unicode="&#xbd;" horiz-adv-x="1937" 
d="M1120 0q2 87 33.5 158.5t80.5 119.5t108 88.5t117.5 73t107 65t78.5 73.5t30 88t-33.5 77.5t-87.5 30.5q-46 0 -94.5 -24.5t-73.5 -49.5l-26 -24l-90 100q5 6 14.5 15t40 33t62.5 42.5t81 33.5t97 15q119 0 194.5 -64t75.5 -171q0 -65 -26 -119.5t-69 -93.5t-95.5 -73
t-107.5 -64t-102.5 -59t-83.5 -66t-48 -78h325l21 104h129l-45 -231h-613zM584 0h-164l969 1446h161zM90 551l25 127h211l96 496q3 18 7.5 36.5t7.5 27.5l3 9h-4q-20 -28 -51 -51l-100 -82l-76 103l283 229h137l-150 -768h209l-24 -127h-574z" />
    <glyph glyph-name="threequarters" unicode="&#xbe;" horiz-adv-x="1996" 
d="M1520 0l43 223h-424l18 99l520 573h168l-106 -551h125l-23 -121h-127l-43 -223h-151zM1321 344h266l58 299q4 18 10.5 41t10.5 37l5 14h-6q-26 -45 -59 -80l-285 -307v-4zM410 530q-58 0 -111 14t-87 34t-59.5 40t-36.5 34l-12 14l101 100q3 -4 8.5 -10t25 -22.5t41 -29
t57 -22.5t73.5 -10q77 0 135.5 53.5t58.5 128.5q0 56 -45.5 87.5t-109.5 31.5h-64l-20 74l239 235q11 11 24.5 21.5t21.5 14.5l7 5v6q-28 -6 -61 -6h-201l-20 -109h-129l45 232h569l-18 -98l-277 -267q34 -7 65.5 -23t62 -42t49 -67.5t18.5 -92.5q0 -127 -101.5 -226.5
t-248.5 -99.5zM614 0h-163l968 1446h162z" />
    <glyph glyph-name="questiondown" unicode="&#xbf;" horiz-adv-x="972" 
d="M504 836l41 200h205l-39 -200h-207zM-25 -102q0 74 24 137.5t63 110.5t87 88.5t98 79t93.5 74t76 81.5t42.5 94l16 76h193l-17 -88q-14 -67 -47 -125.5t-75 -100.5t-89.5 -81t-92 -74t-81 -71t-58.5 -81t-22 -96q0 -73 54 -120.5t143 -47.5q60 0 122.5 22t94.5 44l33 22
l88 -153q-7 -5 -19 -13t-51 -28.5t-79.5 -36t-99.5 -28.5t-116 -13q-167 0 -274 89t-107 239z" />
    <glyph glyph-name="Agrave" unicode="&#xc0;" horiz-adv-x="1480" 
d="M-94 0l31 160h139l712 1286h230l209 -1286h141l-33 -160h-493l30 160h154l-49 321h-512l-176 -321h155l-32 -160h-506zM549 645h407l-77 502l-5 110h-6q-14 -51 -45 -110zM858 1546l-203 260h222l159 -260h-178z" />
    <glyph glyph-name="Aacute" unicode="&#xc1;" horiz-adv-x="1480" 
d="M-94 0l31 160h139l712 1286h230l209 -1286h141l-33 -160h-493l30 160h154l-49 321h-512l-176 -321h155l-32 -160h-506zM549 645h407l-77 502l-5 110h-6q-14 -51 -45 -110zM793 1546l262 260h237l-303 -260h-196z" />
    <glyph glyph-name="Acircumflex" unicode="&#xc2;" horiz-adv-x="1480" 
d="M-94 0l31 160h139l712 1286h230l209 -1286h141l-33 -160h-493l30 160h154l-49 321h-512l-176 -321h155l-32 -160h-506zM549 645h407l-77 502l-5 110h-6q-14 -51 -45 -110zM625 1546l231 260h215l129 -260h-172l-74 164h-4l-139 -164h-186z" />
    <glyph glyph-name="Atilde" unicode="&#xc3;" horiz-adv-x="1480" 
d="M-94 0l31 160h139l712 1286h230l209 -1286h141l-33 -160h-493l30 160h154l-49 321h-512l-176 -321h155l-32 -160h-506zM549 645h407l-77 502l-5 110h-6q-14 -51 -45 -110zM588 1548q25 125 87 192.5t152 67.5q39 0 69.5 -14t49 -34t34 -40.5t34.5 -34.5t41 -14
q69 0 98 131h150q-22 -124 -85 -192t-153 -68q-39 0 -69 14t-48.5 34t-34.5 40.5t-34.5 34.5t-40.5 14q-40 0 -65 -38.5t-36 -92.5h-149z" />
    <glyph glyph-name="Adieresis" unicode="&#xc4;" horiz-adv-x="1480" 
d="M-94 0l31 160h139l712 1286h230l209 -1286h141l-33 -160h-493l30 160h154l-49 321h-512l-176 -321h155l-32 -160h-506zM549 645h407l-77 502l-5 110h-6q-14 -51 -45 -110zM1047 1599l43 207h176l-43 -207h-176zM637 1599l41 207h178l-43 -207h-176z" />
    <glyph glyph-name="Aring" unicode="&#xc5;" horiz-adv-x="1480" 
d="M-94 0l31 160h139l712 1286h230l209 -1286h141l-33 -160h-493l30 160h154l-49 321h-512l-176 -321h155l-32 -160h-506zM549 645h407l-77 502l-5 110h-6q-14 -51 -45 -110zM924 1513q-70 0 -118 38t-48 102q0 80 64.5 132t142.5 52q72 0 120 -39t48 -104
q0 -78 -64.5 -129.5t-144.5 -51.5zM930 1599q38 0 64 27t26 68q0 26 -15.5 41.5t-43.5 15.5q-35 0 -63 -27.5t-28 -68.5q0 -25 16.5 -40.5t43.5 -15.5z" />
    <glyph glyph-name="AE" unicode="&#xc6;" horiz-adv-x="1941" 
d="M-88 0l31 160h127l682 1128h-156l33 158h1333l-66 -336h-170l33 168h-485l-92 -465h508l-33 -168h-508l-92 -477h520l33 170h170l-66 -338h-1071l31 160h176l96 487h-371l-292 -487h153l-30 -160h-494zM670 807h307l92 471h-117z" />
    <glyph glyph-name="Ccedilla" unicode="&#xc7;" horiz-adv-x="1517" 
d="M559 -199l84 185q-242 34 -384 202t-142 418q0 175 71.5 335.5t190 276t278.5 184t332 68.5q59 0 125 -7t143 -27t134 -50t90 -82t20 -118l-37 -178h-186l20 116q10 47 -19 82t-81.5 53t-105.5 26.5t-105 8.5q-136 0 -259 -56.5t-210 -150t-138.5 -216.5t-51.5 -253
q0 -206 118.5 -335t323.5 -129q58 0 119 10t119 29.5t99 54t50 78.5l23 110h188l-33 -168q-12 -63 -56 -114.5t-104 -84t-134 -54.5t-143.5 -31t-135.5 -9h-12l-39 -90q60 -6 98.5 -43t38.5 -96q0 -49 -24 -87t-63 -59.5t-83 -32.5t-90 -11q-29 0 -58 3.5t-43 6.5l-14 4
l23 108q37 -12 88 -12q44 0 81 17.5t37 58.5q0 28 -29.5 43.5t-78.5 15.5h-35z" />
    <glyph glyph-name="Egrave" unicode="&#xc8;" horiz-adv-x="1300" 
d="M-6 0l31 160h180l219 1128h-182l32 158h1047l-66 -336h-178l33 168h-483l-90 -465h512l-35 -168h-510l-94 -477h518l33 174h180l-68 -342h-1079zM791 1546l-203 260h221l160 -260h-178z" />
    <glyph glyph-name="Eacute" unicode="&#xc9;" horiz-adv-x="1300" 
d="M725 1546l262 260h238l-303 -260h-197zM-6 0l31 160h180l219 1128h-182l32 158h1047l-66 -336h-178l33 168h-483l-90 -465h512l-35 -168h-510l-94 -477h518l33 174h180l-68 -342h-1079z" />
    <glyph glyph-name="Ecircumflex" unicode="&#xca;" horiz-adv-x="1300" 
d="M557 1546l231 260h216l129 -260h-172l-74 164h-4l-140 -164h-186zM-6 0l31 160h180l219 1128h-182l32 158h1047l-66 -336h-178l33 168h-483l-90 -465h512l-35 -168h-510l-94 -477h518l33 174h180l-68 -342h-1079z" />
    <glyph glyph-name="Edieresis" unicode="&#xcb;" horiz-adv-x="1300" 
d="M979 1599l43 207h176l-43 -207h-176zM569 1599l41 207h178l-43 -207h-176zM-6 0l31 160h180l219 1128h-182l32 158h1047l-66 -336h-178l33 168h-483l-90 -465h512l-35 -168h-510l-94 -477h518l33 174h180l-68 -342h-1079z" />
    <glyph glyph-name="Igrave" unicode="&#xcc;" horiz-adv-x="786" 
d="M-8 0l31 160h180l219 1128h-180l30 158h568l-31 -158h-182l-219 -1128h182l-31 -160h-567zM510 1546l-203 260h221l160 -260h-178z" />
    <glyph glyph-name="Iacute" unicode="&#xcd;" horiz-adv-x="786" 
d="M-8 0l31 160h180l219 1128h-180l30 158h568l-31 -158h-182l-219 -1128h182l-31 -160h-567zM444 1546l263 260h237l-303 -260h-197z" />
    <glyph glyph-name="Icircumflex" unicode="&#xce;" horiz-adv-x="786" 
d="M-8 0l31 160h180l219 1128h-180l30 158h568l-31 -158h-182l-219 -1128h182l-31 -160h-567zM276 1546l232 260h215l129 -260h-172l-74 164h-4l-139 -164h-187z" />
    <glyph glyph-name="Idieresis" unicode="&#xcf;" horiz-adv-x="786" 
d="M-8 0l31 160h180l219 1128h-180l30 158h568l-31 -158h-182l-219 -1128h182l-31 -160h-567zM700 1599l43 207h177l-43 -207h-177zM291 1599l41 207h178l-43 -207h-176z" />
    <glyph glyph-name="Eth" unicode="&#xd0;" horiz-adv-x="1609" 
d="M-8 0l31 160h180l94 479h-156l33 168h156l94 481h-182l30 158h625q301 0 471 -148t170 -415q0 -180 -63.5 -342t-174.5 -281.5t-271.5 -189.5t-344.5 -70h-692zM410 168h260q142 0 265 54t209 147.5t135.5 222t49.5 274.5q0 199 -117.5 305.5t-326.5 106.5h-258l-92 -471
h315l-33 -168h-315z" />
    <glyph glyph-name="Ntilde" unicode="&#xd1;" horiz-adv-x="1720" 
d="M-6 0l31 160h180l219 1128h-182l32 158h377l510 -1047q8 -17 15.5 -42t10.5 -41l3 -17h6q4 68 14 113l172 876h-184l31 158h571l-31 -158h-182l-252 -1288h-196l-512 1047q-8 18 -15.5 43t-10.5 41l-3 16h-6q-4 -68 -14 -113l-168 -874h184l-31 -160h-569zM719 1548
q25 125 87 192.5t152 67.5q39 0 69.5 -14t49 -34t34 -40.5t34.5 -34.5t41 -14q69 0 98 131h150q-22 -124 -85 -192t-153 -68q-39 0 -69 14t-48.5 34t-34.5 40.5t-34.5 34.5t-40.5 14q-40 0 -65 -38.5t-36 -92.5h-149z" />
    <glyph glyph-name="Ograve" unicode="&#xd2;" horiz-adv-x="1687" 
d="M115 606q0 115 33.5 226.5t92.5 206t141.5 175t179 137t207 88t222.5 31.5q185 0 328.5 -78.5t222 -218t78.5 -317.5q0 -174 -74 -338t-195 -282t-281.5 -189.5t-326.5 -71.5q-185 0 -328.5 81t-221.5 224.5t-78 325.5zM322 614q0 -201 121.5 -328.5t314.5 -127.5
q120 0 238.5 54.5t210 146t148 220t56.5 267.5q0 195 -121.5 319.5t-314.5 124.5q-122 0 -241 -54t-209.5 -143.5t-146.5 -216t-56 -262.5zM965 1546l-203 260h221l160 -260h-178z" />
    <glyph glyph-name="Oacute" unicode="&#xd3;" horiz-adv-x="1687" 
d="M899 1546l262 260h238l-303 -260h-197zM115 606q0 115 33.5 226.5t92.5 206t141.5 175t179 137t207 88t222.5 31.5q185 0 328.5 -78.5t222 -218t78.5 -317.5q0 -174 -74 -338t-195 -282t-281.5 -189.5t-326.5 -71.5q-185 0 -328.5 81t-221.5 224.5t-78 325.5zM322 614
q0 -201 121.5 -328.5t314.5 -127.5q120 0 238.5 54.5t210 146t148 220t56.5 267.5q0 195 -121.5 319.5t-314.5 124.5q-122 0 -241 -54t-209.5 -143.5t-146.5 -216t-56 -262.5z" />
    <glyph glyph-name="Ocircumflex" unicode="&#xd4;" horiz-adv-x="1687" 
d="M731 1546l232 260h215l129 -260h-172l-74 164h-4l-139 -164h-187zM115 606q0 115 33.5 226.5t92.5 206t141.5 175t179 137t207 88t222.5 31.5q185 0 328.5 -78.5t222 -218t78.5 -317.5q0 -174 -74 -338t-195 -282t-281.5 -189.5t-326.5 -71.5q-185 0 -328.5 81
t-221.5 224.5t-78 325.5zM322 614q0 -201 121.5 -328.5t314.5 -127.5q120 0 238.5 54.5t210 146t148 220t56.5 267.5q0 195 -121.5 319.5t-314.5 124.5q-122 0 -241 -54t-209.5 -143.5t-146.5 -216t-56 -262.5z" />
    <glyph glyph-name="Otilde" unicode="&#xd5;" horiz-adv-x="1687" 
d="M115 606q0 115 33.5 226.5t92.5 206t141.5 175t179 137t207 88t222.5 31.5q185 0 328.5 -78.5t222 -218t78.5 -317.5q0 -174 -74 -338t-195 -282t-281.5 -189.5t-326.5 -71.5q-185 0 -328.5 81t-221.5 224.5t-78 325.5zM322 614q0 -201 121.5 -328.5t314.5 -127.5
q120 0 238.5 54.5t210 146t148 220t56.5 267.5q0 195 -121.5 319.5t-314.5 124.5q-122 0 -241 -54t-209.5 -143.5t-146.5 -216t-56 -262.5zM692 1548q25 125 87 192.5t153 67.5q39 0 69.5 -14t48.5 -34t33.5 -40.5t34.5 -34.5t41 -14q69 0 98 131h150q-22 -124 -85 -192
t-153 -68q-39 0 -69 14t-48.5 34t-34.5 40.5t-34.5 34.5t-40.5 14q-74 0 -100 -131h-150z" />
    <glyph glyph-name="Odieresis" unicode="&#xd6;" horiz-adv-x="1687" 
d="M1153 1599l43 207h176l-43 -207h-176zM743 1599l41 207h179l-43 -207h-177zM115 606q0 115 33.5 226.5t92.5 206t141.5 175t179 137t207 88t222.5 31.5q185 0 328.5 -78.5t222 -218t78.5 -317.5q0 -174 -74 -338t-195 -282t-281.5 -189.5t-326.5 -71.5q-185 0 -328.5 81
t-221.5 224.5t-78 325.5zM322 614q0 -201 121.5 -328.5t314.5 -127.5q120 0 238.5 54.5t210 146t148 220t56.5 267.5q0 195 -121.5 319.5t-314.5 124.5q-122 0 -241 -54t-209.5 -143.5t-146.5 -216t-56 -262.5z" />
    <glyph glyph-name="multiply" unicode="&#xd7;" horiz-adv-x="1255" 
d="M90 113l422 471l-422 471l113 112l418 -467l419 467l113 -112l-424 -471l424 -471l-113 -113l-419 465l-418 -465z" />
    <glyph glyph-name="Oslash" unicode="&#xd8;" horiz-adv-x="1689" 
d="M133 25l137 149q-155 176 -155 432q0 228 123.5 429t323 318t417.5 117q226 0 385 -110l127 139l92 -78l-127 -137q166 -174 166 -428q0 -174 -74 -338t-193.5 -282t-277 -189.5t-319.5 -71.5q-232 0 -398 119l-131 -145zM416 330l809 882q-109 72 -248 72
q-165 0 -315 -89t-244 -245t-94 -336q0 -169 92 -284zM498 242q113 -80 262 -80q120 0 238.5 54.5t210 145.5t148 219t56.5 265q0 165 -98 284z" />
    <glyph glyph-name="Ugrave" unicode="&#xd9;" horiz-adv-x="1640" 
d="M217 399q0 43 21 172l139 717h-180l30 158h568l-31 -158h-182l-140 -719q-18 -106 -18 -147q0 -124 81 -194t226 -70q170 0 285 92q117 97 147 268l152 770h-182l30 158h570l-31 -158h-182l-154 -786q-28 -137 -94 -245t-164 -175q-159 -107 -383 -107
q-225 0 -366.5 113.5t-141.5 310.5zM936 1546l-203 260h221l160 -260h-178z" />
    <glyph glyph-name="Uacute" unicode="&#xda;" horiz-adv-x="1640" 
d="M870 1546l263 260h237l-303 -260h-197zM217 399q0 43 21 172l139 717h-180l30 158h568l-31 -158h-182l-140 -719q-18 -106 -18 -147q0 -124 81 -194t226 -70q170 0 285 92q117 97 147 268l152 770h-182l30 158h570l-31 -158h-182l-154 -786q-28 -137 -94 -245t-164 -175
q-159 -107 -383 -107q-225 0 -366.5 113.5t-141.5 310.5z" />
    <glyph glyph-name="Ucircumflex" unicode="&#xdb;" horiz-adv-x="1640" 
d="M702 1546l232 260h215l129 -260h-172l-74 164h-4l-139 -164h-187zM217 399q0 43 21 172l139 717h-180l30 158h568l-31 -158h-182l-140 -719q-18 -106 -18 -147q0 -124 81 -194t226 -70q170 0 285 92q117 97 147 268l152 770h-182l30 158h570l-31 -158h-182l-154 -786
q-28 -137 -94 -245t-164 -175q-159 -107 -383 -107q-225 0 -366.5 113.5t-141.5 310.5z" />
    <glyph glyph-name="Udieresis" unicode="&#xdc;" horiz-adv-x="1640" 
d="M1126 1599l43 207h177l-43 -207h-177zM717 1599l41 207h178l-43 -207h-176zM217 399q0 43 21 172l139 717h-180l30 158h568l-31 -158h-182l-140 -719q-18 -106 -18 -147q0 -124 81 -194t226 -70q170 0 285 92q117 97 147 268l152 770h-182l30 158h570l-31 -158h-182
l-154 -786q-28 -137 -94 -245t-164 -175q-159 -107 -383 -107q-225 0 -366.5 113.5t-141.5 310.5z" />
    <glyph glyph-name="Yacute" unicode="&#xdd;" horiz-adv-x="1335" 
d="M264 0l31 160h182l88 452l-274 676h-137l30 158h490l-31 -158h-151l178 -454l18 -62h4q18 31 41 62l359 454h-150l31 158h502l-31 -158h-137l-537 -676l-88 -452h180l-31 -160h-567zM723 1546l262 260h238l-303 -260h-197z" />
    <glyph glyph-name="Thorn" unicode="&#xde;" horiz-adv-x="1339" 
d="M-6 0l31 160h180l219 1128h-182l32 158h568l-31 -158h-186l-29 -147h334q177 0 279 -90t102 -244q0 -138 -71 -244.5t-188.5 -162.5t-258.5 -56h-351l-36 -184h184l-31 -160h-565zM473 504h299q144 0 237 80t93 219q0 88 -61 133t-173 45h-303z" />
    <glyph glyph-name="germandbls" unicode="&#xdf;" horiz-adv-x="1224" 
d="M59 0l213 1102q22 116 98.5 201.5t176 126t207.5 40.5q164 0 263 -81t99 -207q0 -50 -15.5 -94t-41 -76t-55.5 -61.5t-60.5 -54t-56 -48t-41 -50t-15.5 -53.5q0 -34 29 -70.5t70 -70.5t82.5 -72t70.5 -91t29 -113q0 -93 -54.5 -172t-144 -124.5t-190.5 -45.5
q-86 0 -161.5 15t-108.5 29l-33 15l35 172q11 -7 32 -16.5t87.5 -26t134.5 -16.5q47 0 91 16.5t77.5 56.5t33.5 97q0 43 -29.5 84t-71.5 75.5t-84 70t-71.5 81t-29.5 94.5q0 42 16 80.5t41.5 68.5t56 58t61 54t56 51.5t41.5 56t16 61.5q0 58 -43 96.5t-125 38.5
q-98 0 -178 -59t-102 -168l-209 -1071h-197z" />
    <glyph glyph-name="agrave" unicode="&#xe0;" horiz-adv-x="1140" 
d="M0 238q0 79 31.5 142.5t87 106t123.5 73t149.5 47t155 23.5t149.5 7h52q14 69 14 102q0 158 -189 158q-72 0 -149.5 -24.5t-118.5 -48.5l-41 -25l-51 153q7 4 20.5 11.5t55.5 26.5t85.5 33t108 26t125.5 12q75 0 137 -16.5t111.5 -51t77 -93t27.5 -136.5
q0 -64 -47.5 -273.5t-47.5 -250.5q0 -90 95 -90l47 4l-29 -154q-37 -4 -94 -4q-210 0 -213 188h-4q2 0 -14 -21.5t-48 -52.5t-74 -61.5t-104 -52t-127 -21.5q-129 0 -215 69.5t-86 193.5zM199 270q0 -64 40 -102.5t121 -38.5q60 0 120 31.5t105.5 81t79 108.5t48.5 117
l10 41h-53q-54 0 -105.5 -3.5t-122 -18t-121 -38.5t-86.5 -70t-36 -108zM590 1186l-203 260h221l160 -260h-178z" />
    <glyph glyph-name="aacute" unicode="&#xe1;" horiz-adv-x="1140" 
d="M0 238q0 79 31.5 142.5t87 106t123.5 73t149.5 47t155 23.5t149.5 7h52q14 69 14 102q0 158 -189 158q-72 0 -149.5 -24.5t-118.5 -48.5l-41 -25l-51 153q7 4 20.5 11.5t55.5 26.5t85.5 33t108 26t125.5 12q75 0 137 -16.5t111.5 -51t77 -93t27.5 -136.5
q0 -64 -47.5 -273.5t-47.5 -250.5q0 -90 95 -90l47 4l-29 -154q-37 -4 -94 -4q-210 0 -213 188h-4q2 0 -14 -21.5t-48 -52.5t-74 -61.5t-104 -52t-127 -21.5q-129 0 -215 69.5t-86 193.5zM199 270q0 -64 40 -102.5t121 -38.5q60 0 120 31.5t105.5 81t79 108.5t48.5 117
l10 41h-53q-54 0 -105.5 -3.5t-122 -18t-121 -38.5t-86.5 -70t-36 -108zM524 1186l262 260h238l-303 -260h-197z" />
    <glyph glyph-name="acircumflex" unicode="&#xe2;" horiz-adv-x="1140" 
d="M0 238q0 79 31.5 142.5t87 106t123.5 73t149.5 47t155 23.5t149.5 7h52q14 69 14 102q0 158 -189 158q-72 0 -149.5 -24.5t-118.5 -48.5l-41 -25l-51 153q7 4 20.5 11.5t55.5 26.5t85.5 33t108 26t125.5 12q75 0 137 -16.5t111.5 -51t77 -93t27.5 -136.5
q0 -64 -47.5 -273.5t-47.5 -250.5q0 -90 95 -90l47 4l-29 -154q-37 -4 -94 -4q-210 0 -213 188h-4q2 0 -14 -21.5t-48 -52.5t-74 -61.5t-104 -52t-127 -21.5q-129 0 -215 69.5t-86 193.5zM199 270q0 -64 40 -102.5t121 -38.5q60 0 120 31.5t105.5 81t79 108.5t48.5 117
l10 41h-53q-54 0 -105.5 -3.5t-122 -18t-121 -38.5t-86.5 -70t-36 -108zM356 1186l232 260h215l129 -260h-172l-74 164h-4l-139 -164h-187z" />
    <glyph glyph-name="atilde" unicode="&#xe3;" horiz-adv-x="1140" 
d="M0 238q0 79 31.5 142.5t87 106t123.5 73t149.5 47t155 23.5t149.5 7h52q14 69 14 102q0 158 -189 158q-72 0 -149.5 -24.5t-118.5 -48.5l-41 -25l-51 153q7 4 20.5 11.5t55.5 26.5t85.5 33t108 26t125.5 12q75 0 137 -16.5t111.5 -51t77 -93t27.5 -136.5
q0 -64 -47.5 -273.5t-47.5 -250.5q0 -90 95 -90l47 4l-29 -154q-37 -4 -94 -4q-210 0 -213 188h-4q2 0 -14 -21.5t-48 -52.5t-74 -61.5t-104 -52t-127 -21.5q-129 0 -215 69.5t-86 193.5zM199 270q0 -64 40 -102.5t121 -38.5q60 0 120 31.5t105.5 81t79 108.5t48.5 117
l10 41h-53q-54 0 -105.5 -3.5t-122 -18t-121 -38.5t-86.5 -70t-36 -108zM317 1188q25 125 87 192.5t153 67.5q39 0 69.5 -14t48.5 -34t33.5 -40.5t34.5 -34.5t41 -14q70 0 99 131h149q-22 -124 -84.5 -192t-152.5 -68q-39 0 -69 14t-49 34t-35 40.5t-34.5 34.5t-40.5 14
q-74 0 -100 -131h-150z" />
    <glyph glyph-name="adieresis" unicode="&#xe4;" horiz-adv-x="1140" 
d="M0 238q0 79 31.5 142.5t87 106t123.5 73t149.5 47t155 23.5t149.5 7h52q14 69 14 102q0 158 -189 158q-72 0 -149.5 -24.5t-118.5 -48.5l-41 -25l-51 153q7 4 20.5 11.5t55.5 26.5t85.5 33t108 26t125.5 12q75 0 137 -16.5t111.5 -51t77 -93t27.5 -136.5
q0 -64 -47.5 -273.5t-47.5 -250.5q0 -90 95 -90l47 4l-29 -154q-37 -4 -94 -4q-210 0 -213 188h-4q2 0 -14 -21.5t-48 -52.5t-74 -61.5t-104 -52t-127 -21.5q-129 0 -215 69.5t-86 193.5zM199 270q0 -64 40 -102.5t121 -38.5q60 0 120 31.5t105.5 81t79 108.5t48.5 117
l10 41h-53q-54 0 -105.5 -3.5t-122 -18t-121 -38.5t-86.5 -70t-36 -108zM778 1239l43 207h176l-43 -207h-176zM369 1239l41 207h178l-43 -207h-176z" />
    <glyph glyph-name="aring" unicode="&#xe5;" horiz-adv-x="1140" 
d="M0 238q0 79 31.5 142.5t87 106t123.5 73t149.5 47t155 23.5t149.5 7h52q14 69 14 102q0 158 -189 158q-72 0 -149.5 -24.5t-118.5 -48.5l-41 -25l-51 153q7 4 20.5 11.5t55.5 26.5t85.5 33t108 26t125.5 12q75 0 137 -16.5t111.5 -51t77 -93t27.5 -136.5
q0 -64 -47.5 -273.5t-47.5 -250.5q0 -90 95 -90l47 4l-29 -154q-37 -4 -94 -4q-210 0 -213 188h-4q2 0 -14 -21.5t-48 -52.5t-74 -61.5t-104 -52t-127 -21.5q-129 0 -215 69.5t-86 193.5zM199 270q0 -64 40 -102.5t121 -38.5q60 0 120 31.5t105.5 81t79 108.5t48.5 117
l10 41h-53q-54 0 -105.5 -3.5t-122 -18t-121 -38.5t-86.5 -70t-36 -108zM655 1153q-70 0 -118 37.5t-48 101.5q0 80 65 132.5t142 52.5q71 0 119.5 -39t48.5 -105q0 -78 -64.5 -129t-144.5 -51zM662 1239q39 0 64.5 26.5t25.5 67.5q0 26 -16 42t-44 16q-35 0 -62.5 -28
t-27.5 -69q0 -25 16 -40t44 -15z" />
    <glyph glyph-name="ae" unicode="&#xe6;" horiz-adv-x="1767" 
d="M4 248q0 79 30 142t83 103.5t116 69t139.5 42.5t142 20t134.5 6h94q13 89 13 102q0 164 -197 164q-73 0 -148 -24.5t-114 -48.5l-39 -25l-53 153q7 4 20 11.5t54.5 26.5t84 33t105 26t121.5 12q244 0 311 -174h4q152 174 385 174q194 0 296 -104t102 -281q0 -35 -8 -78.5
t-16 -69.5l-7 -26h-746q-8 -35 -8 -74q0 -131 75.5 -208t211.5 -77q50 0 102 12.5t91 29.5t70.5 34.5t48.5 30.5l16 12l57 -151q-7 -6 -20 -15t-55 -32.5t-85.5 -41.5t-108 -32.5t-126.5 -14.5q-160 0 -271 68.5t-155 187.5h-4q-9 -20 -26.5 -46t-55 -65t-83 -69.5
t-114.5 -53t-145 -22.5q-135 0 -228.5 73.5t-93.5 199.5zM944 631h541q4 36 4 65q0 100 -56 153.5t-145 53.5q-117 0 -208 -70.5t-136 -201.5zM207 270q0 -59 42.5 -97t123.5 -38q60 0 118.5 30t101.5 78t74 106t44 116l8 37h-96q-42 0 -81 -3t-89.5 -11t-91.5 -24.5
t-77 -41t-56.5 -63.5t-20.5 -89z" />
    <glyph glyph-name="ccedilla" unicode="&#xe7;" horiz-adv-x="1142" 
d="M346 -199l86 187q-174 31 -274.5 148.5t-100.5 293.5q0 124 52.5 240t140.5 202t210.5 137.5t256.5 51.5q49 0 100 -7.5t103.5 -25.5t91.5 -45t59 -70t10 -96l-22 -119h-176l12 70q11 58 -52 89.5t-147 31.5q-83 0 -163 -36t-140 -96t-96.5 -142.5t-36.5 -170.5
q0 -136 83 -216.5t228 -80.5q57 0 115 14t99 34t74.5 40t50.5 34l16 14l57 -154q-6 -6 -18.5 -16.5t-54.5 -37t-88.5 -47t-119.5 -37t-149 -16.5h-16l-37 -90q59 -6 98 -43t39 -96q0 -49 -24 -87t-63 -59.5t-83 -32.5t-90 -11q-29 0 -58 3.5t-43 6.5l-14 4l21 108
q37 -12 88 -12q45 0 81.5 17.5t36.5 58.5q0 29 -28.5 44t-77.5 15h-37z" />
    <glyph glyph-name="egrave" unicode="&#xe8;" horiz-adv-x="1138" 
d="M61 418q0 171 77.5 318t217.5 236t310 89q193 0 293 -104.5t100 -278.5q0 -37 -8.5 -81.5t-16.5 -70.5l-8 -26h-754q-8 -35 -8 -74q0 -124 78 -201.5t217 -77.5q50 0 102.5 12.5t92 29.5t71.5 34.5t49 30.5l17 12l55 -155q-7 -6 -20 -15t-55 -32.5t-86 -41.5t-109 -32.5
t-127 -14.5q-224 0 -356 123t-132 320zM301 627h553q6 34 6 67q0 102 -54.5 155.5t-146.5 53.5q-116 0 -214 -73.5t-144 -202.5zM655 1186l-202 260h221l160 -260h-179z" />
    <glyph glyph-name="eacute" unicode="&#xe9;" horiz-adv-x="1138" 
d="M590 1186l262 260h238l-304 -260h-196zM61 418q0 171 77.5 318t217.5 236t310 89q193 0 293 -104.5t100 -278.5q0 -37 -8.5 -81.5t-16.5 -70.5l-8 -26h-754q-8 -35 -8 -74q0 -124 78 -201.5t217 -77.5q50 0 102.5 12.5t92 29.5t71.5 34.5t49 30.5l17 12l55 -155
q-7 -6 -20 -15t-55 -32.5t-86 -41.5t-109 -32.5t-127 -14.5q-224 0 -356 123t-132 320zM301 627h553q6 34 6 67q0 102 -54.5 155.5t-146.5 53.5q-116 0 -214 -73.5t-144 -202.5z" />
    <glyph glyph-name="ecircumflex" unicode="&#xea;" horiz-adv-x="1138" 
d="M422 1186l231 260h215l129 -260h-172l-73 164h-4l-140 -164h-186zM61 418q0 171 77.5 318t217.5 236t310 89q193 0 293 -104.5t100 -278.5q0 -37 -8.5 -81.5t-16.5 -70.5l-8 -26h-754q-8 -35 -8 -74q0 -124 78 -201.5t217 -77.5q50 0 102.5 12.5t92 29.5t71.5 34.5
t49 30.5l17 12l55 -155q-7 -6 -20 -15t-55 -32.5t-86 -41.5t-109 -32.5t-127 -14.5q-224 0 -356 123t-132 320zM301 627h553q6 34 6 67q0 102 -54.5 155.5t-146.5 53.5q-116 0 -214 -73.5t-144 -202.5z" />
    <glyph glyph-name="edieresis" unicode="&#xeb;" horiz-adv-x="1138" 
d="M844 1239l43 207h176l-43 -207h-176zM434 1239l41 207h178l-43 -207h-176zM61 418q0 171 77.5 318t217.5 236t310 89q193 0 293 -104.5t100 -278.5q0 -37 -8.5 -81.5t-16.5 -70.5l-8 -26h-754q-8 -35 -8 -74q0 -124 78 -201.5t217 -77.5q50 0 102.5 12.5t92 29.5
t71.5 34.5t49 30.5l17 12l55 -155q-7 -6 -20 -15t-55 -32.5t-86 -41.5t-109 -32.5t-127 -14.5q-224 0 -356 123t-132 320zM301 627h553q6 34 6 67q0 102 -54.5 155.5t-146.5 53.5q-116 0 -214 -73.5t-144 -202.5z" />
    <glyph glyph-name="igrave" unicode="&#xec;" horiz-adv-x="653" 
d="M150 195q0 32 10 90l119 598h-175l31 153h371l-144 -733q-8 -46 -8 -63q0 -90 95 -90l47 4l-29 -154q-47 -4 -82 -4q-36 0 -64 3t-62 15t-56 32.5t-37.5 58.5t-15.5 90zM373 1186l-203 260h221l160 -260h-178z" />
    <glyph glyph-name="iacute" unicode="&#xed;" horiz-adv-x="653" 
d="M307 1186l262 260h238l-303 -260h-197zM150 195q0 32 10 90l119 598h-175l31 153h371l-144 -733q-8 -46 -8 -63q0 -90 95 -90l47 4l-29 -154q-47 -4 -82 -4q-36 0 -64 3t-62 15t-56 32.5t-37.5 58.5t-15.5 90z" />
    <glyph glyph-name="icircumflex" unicode="&#xee;" horiz-adv-x="653" 
d="M139 1186l232 260h215l129 -260h-172l-74 164h-4l-139 -164h-187zM150 195q0 32 10 90l119 598h-175l31 153h371l-144 -733q-8 -46 -8 -63q0 -90 95 -90l47 4l-29 -154q-47 -4 -82 -4q-36 0 -64 3t-62 15t-56 32.5t-37.5 58.5t-15.5 90z" />
    <glyph glyph-name="idieresis" unicode="&#xef;" horiz-adv-x="653" 
d="M150 195q0 32 10 90l119 598h-175l31 153h371l-144 -733q-8 -46 -8 -63q0 -90 95 -90l47 4l-29 -154q-47 -4 -82 -4q-36 0 -64 3t-62 15t-56 32.5t-37.5 58.5t-15.5 90zM535 1239l43 207h176l-41 -207h-178zM180 1239l43 207h176l-43 -207h-176z" />
    <glyph glyph-name="eth" unicode="&#xf0;" horiz-adv-x="1218" 
d="M55 391q0 102 40.5 202t112.5 180.5t183.5 130.5t241.5 50q48 0 91.5 -9.5t71.5 -23.5t49 -28t31 -23l9 -10h4q-34 174 -180 291l-398 -160l2 111l291 119q-119 67 -256 104l82 148q229 -62 381 -173l317 127v-110l-229 -92q205 -205 205 -506q0 -63 -10.5 -131
t-34.5 -141t-58.5 -140.5t-85 -128t-112 -105.5t-142.5 -71.5t-172 -26.5q-106 0 -190 33.5t-136.5 91t-80 132t-27.5 159.5zM258 395q0 -108 60 -178t174 -70q85 0 160.5 42t124.5 107.5t77.5 141.5t28.5 146q0 95 -65 153t-179 58q-107 0 -195 -55.5t-137 -147t-49 -197.5
z" />
    <glyph glyph-name="ntilde" unicode="&#xf1;" horiz-adv-x="1376" 
d="M117 0l164 838q7 45 -37 45h-129l30 153h236q111 0 111 -88q0 -19 -10 -65.5t-21 -73.5h4q11 22 33 50.5t62 65t87.5 66t115.5 50t140 20.5q134 0 210.5 -70.5t76.5 -202.5q0 -69 -45 -291t-45 -257q0 -54 23.5 -72t68.5 -18l49 4l-31 -154q-41 -4 -88 -4q-33 0 -59.5 3
t-59.5 15t-55 31.5t-37.5 57t-15.5 87.5q0 48 44 267.5t44 271.5q0 74 -40 112t-116 38q-149 0 -268.5 -122t-152.5 -292l-91 -465h-198zM498 1188q25 125 87 192.5t152 67.5q39 0 69.5 -14t49 -34t34 -40.5t34.5 -34.5t41 -14q69 0 98 131h149q-22 -124 -84.5 -192
t-152.5 -68q-39 0 -69 14t-48.5 34t-34.5 40.5t-34.5 34.5t-40.5 14q-40 0 -65 -38.5t-36 -92.5h-149z" />
    <glyph glyph-name="ograve" unicode="&#xf2;" horiz-adv-x="1284" 
d="M59 432q0 173 93 319t243 228t318 82q211 0 344 -126t133 -327q0 -131 -55 -250t-145.5 -202t-209 -132t-243.5 -49q-211 0 -344.5 127.5t-133.5 329.5zM262 440q0 -130 81 -211.5t210 -81.5q107 0 207 58.5t163.5 163.5t63.5 229q0 129 -81 210t-210 81
q-108 0 -208 -58.5t-163 -163t-63 -227.5zM694 1186l-202 260h221l159 -260h-178z" />
    <glyph glyph-name="oacute" unicode="&#xf3;" horiz-adv-x="1284" 
d="M629 1186l262 260h237l-303 -260h-196zM59 432q0 173 93 319t243 228t318 82q211 0 344 -126t133 -327q0 -131 -55 -250t-145.5 -202t-209 -132t-243.5 -49q-211 0 -344.5 127.5t-133.5 329.5zM262 440q0 -130 81 -211.5t210 -81.5q107 0 207 58.5t163.5 163.5t63.5 229
q0 129 -81 210t-210 81q-108 0 -208 -58.5t-163 -163t-63 -227.5z" />
    <glyph glyph-name="ocircumflex" unicode="&#xf4;" horiz-adv-x="1284" 
d="M461 1186l231 260h215l129 -260h-172l-73 164h-5l-139 -164h-186zM59 432q0 173 93 319t243 228t318 82q211 0 344 -126t133 -327q0 -131 -55 -250t-145.5 -202t-209 -132t-243.5 -49q-211 0 -344.5 127.5t-133.5 329.5zM262 440q0 -130 81 -211.5t210 -81.5
q107 0 207 58.5t163.5 163.5t63.5 229q0 129 -81 210t-210 81q-108 0 -208 -58.5t-163 -163t-63 -227.5z" />
    <glyph glyph-name="otilde" unicode="&#xf5;" horiz-adv-x="1284" 
d="M59 432q0 173 93 319t243 228t318 82q211 0 344 -126t133 -327q0 -131 -55 -250t-145.5 -202t-209 -132t-243.5 -49q-211 0 -344.5 127.5t-133.5 329.5zM262 440q0 -130 81 -211.5t210 -81.5q107 0 207 58.5t163.5 163.5t63.5 229q0 129 -81 210t-210 81
q-108 0 -208 -58.5t-163 -163t-63 -227.5zM422 1188q25 125 87 192.5t153 67.5q39 0 69.5 -14t48.5 -34t33.5 -40.5t34.5 -34.5t41 -14q69 0 98 131h150q-22 -124 -85 -192t-153 -68q-39 0 -69 14t-48.5 34t-34.5 40.5t-34.5 34.5t-40.5 14q-40 0 -65 -38.5t-36 -92.5h-149z
" />
    <glyph glyph-name="odieresis" unicode="&#xf6;" horiz-adv-x="1284" 
d="M883 1239l43 207h176l-43 -207h-176zM473 1239l41 207h178l-43 -207h-176zM59 432q0 173 93 319t243 228t318 82q211 0 344 -126t133 -327q0 -131 -55 -250t-145.5 -202t-209 -132t-243.5 -49q-211 0 -344.5 127.5t-133.5 329.5zM262 440q0 -130 81 -211.5t210 -81.5
q107 0 207 58.5t163.5 163.5t63.5 229q0 129 -81 210t-210 81q-108 0 -208 -58.5t-163 -163t-63 -227.5z" />
    <glyph glyph-name="divide" unicode="&#xf7;" horiz-adv-x="1255" 
d="M524 891v186h193v-186h-193zM102 504v160h1037v-160h-1037zM524 90v186h193v-186h-193z" />
    <glyph glyph-name="oslash" unicode="&#xf8;" horiz-adv-x="1286" 
d="M82 -4l104 115q-127 134 -127 321q0 130 54.5 248t143.5 200.5t205 131.5t236 49q166 0 293 -78l111 119l80 -70l-111 -119q119 -129 119 -305q0 -131 -54.5 -250t-144 -202t-205 -132t-235.5 -49q-155 0 -279 70l-110 -119zM324 258l536 584q-70 47 -164 47
q-108 0 -208 -58.5t-163 -163t-63 -227.5q0 -103 62 -182zM403 186q70 -39 150 -39q107 0 207 58.5t163.5 163.5t63.5 229q0 88 -55 164z" />
    <glyph glyph-name="ugrave" unicode="&#xf9;" horiz-adv-x="1363" 
d="M152 248q0 65 14 131l96 504h-172l31 153h371l-119 -616q-17 -73 -17 -119q0 -71 36 -108t120 -37q99 0 189 61.5t147 154t76 193.5l61 318h-172l31 153h370l-143 -733q-6 -35 -6 -63q0 -51 24.5 -70.5t67.5 -19.5l49 4l-30 -154q-46 -4 -95 -4q-108 0 -162.5 56.5
t-44.5 170.5h-4q-28 -44 -66 -84t-91 -79t-123.5 -62t-147.5 -23q-128 0 -209 67.5t-81 205.5zM686 1186l-203 260h222l159 -260h-178z" />
    <glyph glyph-name="uacute" unicode="&#xfa;" horiz-adv-x="1363" 
d="M621 1186l262 260h237l-303 -260h-196zM152 248q0 65 14 131l96 504h-172l31 153h371l-119 -616q-17 -73 -17 -119q0 -71 36 -108t120 -37q99 0 189 61.5t147 154t76 193.5l61 318h-172l31 153h370l-143 -733q-6 -35 -6 -63q0 -51 24.5 -70.5t67.5 -19.5l49 4l-30 -154
q-46 -4 -95 -4q-108 0 -162.5 56.5t-44.5 170.5h-4q-28 -44 -66 -84t-91 -79t-123.5 -62t-147.5 -23q-128 0 -209 67.5t-81 205.5z" />
    <glyph glyph-name="ucircumflex" unicode="&#xfb;" horiz-adv-x="1363" 
d="M453 1186l231 260h215l129 -260h-172l-74 164h-4l-139 -164h-186zM152 248q0 65 14 131l96 504h-172l31 153h371l-119 -616q-17 -73 -17 -119q0 -71 36 -108t120 -37q99 0 189 61.5t147 154t76 193.5l61 318h-172l31 153h370l-143 -733q-6 -35 -6 -63q0 -51 24.5 -70.5
t67.5 -19.5l49 4l-30 -154q-46 -4 -95 -4q-108 0 -162.5 56.5t-44.5 170.5h-4q-28 -44 -66 -84t-91 -79t-123.5 -62t-147.5 -23q-128 0 -209 67.5t-81 205.5z" />
    <glyph glyph-name="udieresis" unicode="&#xfc;" horiz-adv-x="1363" 
d="M877 1239l43 207h176l-43 -207h-176zM467 1239l41 207h178l-43 -207h-176zM152 248q0 65 14 131l96 504h-172l31 153h371l-119 -616q-17 -73 -17 -119q0 -71 36 -108t120 -37q99 0 189 61.5t147 154t76 193.5l61 318h-172l31 153h370l-143 -733q-6 -35 -6 -63
q0 -51 24.5 -70.5t67.5 -19.5l49 4l-30 -154q-46 -4 -95 -4q-108 0 -162.5 56.5t-44.5 170.5h-4q-28 -44 -66 -84t-91 -79t-123.5 -62t-147.5 -23q-128 0 -209 67.5t-81 205.5z" />
    <glyph glyph-name="yacute" unicode="&#xfd;" horiz-adv-x="1212" 
d="M-31 -219q6 -5 16.5 -12.5t46 -20t74.5 -12.5q64 0 122 39.5t98 103.5l61 103l-186 901h-131l30 153h465l-28 -153h-138l111 -617q4 -20 4.5 -42.5t-0.5 -35.5l-2 -12h6q16 45 43 90l348 617h-133l31 153h465l-31 -153h-127l-616 -1047q-156 -266 -396 -266
q-65 0 -121.5 17t-80.5 34l-23 17zM592 1186l262 260h238l-304 -260h-196z" />
    <glyph glyph-name="thorn" unicode="&#xfe;" horiz-adv-x="1257" 
d="M-20 -410l329 1702h-168l29 154h367l-95 -481q-3 -18 -8 -38.5t-8 -32.5l-4 -11h4q55 78 145 128t199 50q184 0 286.5 -114.5t102.5 -311.5q0 -142 -48 -267t-126.5 -210t-180 -134t-208.5 -49q-103 0 -187.5 47t-121.5 134h-4q-5 -44 -15 -97l-92 -469h-196zM344 414
q0 -116 58.5 -191.5t172.5 -75.5q68 0 135 33t122 92t89.5 150.5t34.5 198.5q0 124 -62 195t-171 71q-103 0 -191.5 -67.5t-138 -176.5t-49.5 -229z" />
    <glyph glyph-name="ydieresis" unicode="&#xff;" horiz-adv-x="1212" 
d="M-31 -219q6 -5 16.5 -12.5t46 -20t74.5 -12.5q64 0 122 39.5t98 103.5l61 103l-186 901h-131l30 153h465l-28 -153h-138l111 -617q4 -20 4.5 -42.5t-0.5 -35.5l-2 -12h6q16 45 43 90l348 617h-133l31 153h465l-31 -153h-127l-616 -1047q-156 -266 -396 -266
q-65 0 -121.5 17t-80.5 34l-23 17zM846 1239l43 207h176l-43 -207h-176zM436 1239l41 207h178l-43 -207h-176z" />
    <glyph glyph-name="Amacron" unicode="&#x100;" horiz-adv-x="1480" 
d="M-94 0l31 160h139l712 1286h230l209 -1286h141l-33 -160h-493l30 160h154l-49 321h-512l-176 -321h155l-32 -160h-506zM549 645h407l-77 502l-5 110h-6q-14 -51 -45 -110zM672 1606l26 145h521l-27 -145h-520z" />
    <glyph glyph-name="amacron" unicode="&#x101;" horiz-adv-x="1140" 
d="M0 238q0 79 31.5 142.5t87 106t123.5 73t149.5 47t155 23.5t149.5 7h52q14 69 14 102q0 158 -189 158q-72 0 -149.5 -24.5t-118.5 -48.5l-41 -25l-51 153q7 4 20.5 11.5t55.5 26.5t85.5 33t108 26t125.5 12q75 0 137 -16.5t111.5 -51t77 -93t27.5 -136.5
q0 -64 -47.5 -273.5t-47.5 -250.5q0 -90 95 -90l47 4l-29 -154q-37 -4 -94 -4q-210 0 -213 188h-4q2 0 -14 -21.5t-48 -52.5t-74 -61.5t-104 -52t-127 -21.5q-129 0 -215 69.5t-86 193.5zM199 270q0 -64 40 -102.5t121 -38.5q60 0 120 31.5t105.5 81t79 108.5t48.5 117
l10 41h-53q-54 0 -105.5 -3.5t-122 -18t-121 -38.5t-86.5 -70t-36 -108zM403 1245l27 146h520l-26 -146h-521z" />
    <glyph glyph-name="Abreve" unicode="&#x102;" horiz-adv-x="1480" 
d="M-94 0l31 160h139l712 1286h230l209 -1286h141l-33 -160h-493l30 160h154l-49 321h-512l-176 -321h155l-32 -160h-506zM549 645h407l-77 502l-5 110h-6q-14 -51 -45 -110zM936 1538q-118 0 -191 67t-51 173l6 28h150l-4 -26q-11 -61 17.5 -92t78.5 -31q51 0 94 31.5
t54 93.5l4 24h151l-6 -28q-22 -120 -106 -180t-197 -60z" />
    <glyph glyph-name="abreve" unicode="&#x103;" horiz-adv-x="1140" 
d="M0 238q0 79 31.5 142.5t87 106t123.5 73t149.5 47t155 23.5t149.5 7h52q14 69 14 102q0 158 -189 158q-72 0 -149.5 -24.5t-118.5 -48.5l-41 -25l-51 153q7 4 20.5 11.5t55.5 26.5t85.5 33t108 26t125.5 12q75 0 137 -16.5t111.5 -51t77 -93t27.5 -136.5
q0 -64 -47.5 -273.5t-47.5 -250.5q0 -90 95 -90l47 4l-29 -154q-37 -4 -94 -4q-210 0 -213 188h-4q2 0 -14 -21.5t-48 -52.5t-74 -61.5t-104 -52t-127 -21.5q-129 0 -215 69.5t-86 193.5zM199 270q0 -64 40 -102.5t121 -38.5q60 0 120 31.5t105.5 81t79 108.5t48.5 117
l10 41h-53q-54 0 -105.5 -3.5t-122 -18t-121 -38.5t-86.5 -70t-36 -108zM666 1178q-118 0 -191 66.5t-51 172.5l6 29h150l-5 -27q-11 -61 18 -92t79 -31q51 0 93.5 31.5t53.5 93.5l4 25h152l-6 -29q-15 -81 -61 -136t-107.5 -79t-134.5 -24z" />
    <glyph glyph-name="Aogonek" unicode="&#x104;" horiz-adv-x="1480" 
d="M950 -274q0 148 187 274h-295l30 160h154l-49 321h-512l-176 -321h155l-32 -160h-506l31 160h139l712 1286h230l209 -1286h141l-33 -160h-8q-23 0 -73 -36t-94 -92t-44 -101q0 -23 12 -40t31.5 -25.5t36.5 -12t33 -4.5l-64 -140q-32 4 -65 14t-69 29.5t-58.5 54
t-22.5 79.5zM549 645h407l-77 502l-5 110h-6q-14 -51 -45 -110z" />
    <glyph glyph-name="aogonek" unicode="&#x105;" horiz-adv-x="1140" 
d="M594 -274q0 152 194 278q-119 32 -116 180h-4q2 0 -14 -21.5t-48 -52.5t-74 -61.5t-104 -52t-127 -21.5q-129 0 -215 69.5t-86 193.5q0 79 31.5 142.5t87 106t123.5 73t149.5 47t155 23.5t149.5 7h52q14 69 14 102q0 158 -189 158q-72 0 -149.5 -24.5t-118.5 -48.5
l-41 -25l-51 153q7 4 20.5 11.5t55.5 26.5t85.5 33t108 26t125.5 12q75 0 137 -16.5t111.5 -51t77 -93t27.5 -136.5q0 -64 -47.5 -273.5t-47.5 -250.5q0 -90 95 -90l47 4l-29 -154q-11 0 -23 -2q-50 -15 -123 -89.5t-73 -137.5q0 -23 12 -40t31 -25.5t35 -12t32 -4.5
l-63 -140q-31 4 -63.5 14t-68.5 29.5t-58.5 54t-22.5 79.5zM199 270q0 -64 40 -102.5t121 -38.5q60 0 120 31.5t105.5 81t79 108.5t48.5 117l10 41h-53q-54 0 -105.5 -3.5t-122 -18t-121 -38.5t-86.5 -70t-36 -108z" />
    <glyph glyph-name="Cacute" unicode="&#x106;" horiz-adv-x="1517" 
d="M870 1546l263 260h237l-303 -260h-197zM117 606q0 175 71.5 335.5t190 276t278.5 184t332 68.5q59 0 125 -7t143 -27t134 -50t90 -82t20 -118l-37 -178h-186l20 116q10 47 -19 82t-81.5 53t-105.5 26.5t-105 8.5q-136 0 -259 -56.5t-210 -150t-138.5 -216.5t-51.5 -253
q0 -206 118.5 -335t323.5 -129q58 0 119 10t119 29.5t99 54t50 78.5l23 110h188l-33 -168q-12 -63 -56 -114.5t-104 -84t-134 -54.5t-143.5 -31t-135.5 -9q-291 0 -468 175.5t-177 455.5z" />
    <glyph glyph-name="cacute" unicode="&#x107;" horiz-adv-x="1140" 
d="M594 1186l262 260h238l-303 -260h-197zM57 430q0 166 87.5 311t240.5 232.5t332 87.5q62 0 125.5 -13t124 -39.5t93.5 -76.5t21 -115l-24 -119h-176l14 70q7 40 -23.5 68.5t-77 40.5t-98.5 12q-83 0 -163 -36t-140 -96t-96.5 -142.5t-36.5 -170.5q0 -136 82.5 -216.5
t226.5 -80.5q58 0 116 14t99 34t74 40t50 34l16 14l57 -154q-6 -6 -18.5 -16.5t-54.5 -37t-88.5 -47t-119.5 -37t-149 -16.5q-225 0 -359.5 125.5t-134.5 329.5z" />
    <glyph glyph-name="Ccircumflex" unicode="&#x108;" horiz-adv-x="1517" 
d="M702 1546l232 260h215l129 -260h-172l-74 164h-4l-139 -164h-187zM117 606q0 175 71.5 335.5t190 276t278.5 184t332 68.5q59 0 125 -7t143 -27t134 -50t90 -82t20 -118l-37 -178h-186l20 116q10 47 -19 82t-81.5 53t-105.5 26.5t-105 8.5q-136 0 -259 -56.5t-210 -150
t-138.5 -216.5t-51.5 -253q0 -206 118.5 -335t323.5 -129q58 0 119 10t119 29.5t99 54t50 78.5l23 110h188l-33 -168q-12 -63 -56 -114.5t-104 -84t-134 -54.5t-143.5 -31t-135.5 -9q-291 0 -468 175.5t-177 455.5z" />
    <glyph glyph-name="ccircumflex" unicode="&#x109;" horiz-adv-x="1140" 
d="M426 1186l231 260h215l129 -260h-172l-73 164h-4l-140 -164h-186zM57 430q0 166 87.5 311t240.5 232.5t332 87.5q62 0 125.5 -13t124 -39.5t93.5 -76.5t21 -115l-24 -119h-176l14 70q7 40 -23.5 68.5t-77 40.5t-98.5 12q-83 0 -163 -36t-140 -96t-96.5 -142.5
t-36.5 -170.5q0 -136 82.5 -216.5t226.5 -80.5q58 0 116 14t99 34t74 40t50 34l16 14l57 -154q-6 -6 -18.5 -16.5t-54.5 -37t-88.5 -47t-119.5 -37t-149 -16.5q-225 0 -359.5 125.5t-134.5 329.5z" />
    <glyph glyph-name="Cdotaccent" unicode="&#x10a;" horiz-adv-x="1517" 
d="M117 606q0 175 71.5 335.5t190 276t278.5 184t332 68.5q59 0 125 -7t143 -27t134 -50t90 -82t20 -118l-37 -178h-186l20 116q10 47 -19 82t-81.5 53t-105.5 26.5t-105 8.5q-136 0 -259 -56.5t-210 -150t-138.5 -216.5t-51.5 -253q0 -206 118.5 -335t323.5 -129
q58 0 119 10t119 29.5t99 54t50 78.5l23 110h188l-33 -168q-12 -63 -56 -114.5t-104 -84t-134 -54.5t-143.5 -31t-135.5 -9q-291 0 -468 175.5t-177 455.5zM918 1606l38 200h189l-41 -200h-186z" />
    <glyph glyph-name="cdotaccent" unicode="&#x10b;" horiz-adv-x="1140" 
d="M57 430q0 166 87.5 311t240.5 232.5t332 87.5q62 0 125.5 -13t124 -39.5t93.5 -76.5t21 -115l-24 -119h-176l14 70q7 40 -23.5 68.5t-77 40.5t-98.5 12q-83 0 -163 -36t-140 -96t-96.5 -142.5t-36.5 -170.5q0 -136 82.5 -216.5t226.5 -80.5q58 0 116 14t99 34t74 40
t50 34l16 14l57 -154q-6 -6 -18.5 -16.5t-54.5 -37t-88.5 -47t-119.5 -37t-149 -16.5q-225 0 -359.5 125.5t-134.5 329.5zM641 1245l39 201h188l-41 -201h-186z" />
    <glyph glyph-name="Ccaron" unicode="&#x10c;" horiz-adv-x="1517" 
d="M897 1546l-127 260h170l74 -166h4l141 166h187l-232 -260h-217zM117 606q0 175 71.5 335.5t190 276t278.5 184t332 68.5q59 0 125 -7t143 -27t134 -50t90 -82t20 -118l-37 -178h-186l20 116q10 47 -19 82t-81.5 53t-105.5 26.5t-105 8.5q-136 0 -259 -56.5t-210 -150
t-138.5 -216.5t-51.5 -253q0 -206 118.5 -335t323.5 -129q58 0 119 10t119 29.5t99 54t50 78.5l23 110h188l-33 -168q-12 -63 -56 -114.5t-104 -84t-134 -54.5t-143.5 -31t-135.5 -9q-291 0 -468 175.5t-177 455.5z" />
    <glyph glyph-name="ccaron" unicode="&#x10d;" horiz-adv-x="1140" 
d="M621 1186l-127 260h170l73 -166h4l142 166h186l-231 -260h-217zM57 430q0 166 87.5 311t240.5 232.5t332 87.5q62 0 125.5 -13t124 -39.5t93.5 -76.5t21 -115l-24 -119h-176l14 70q7 40 -23.5 68.5t-77 40.5t-98.5 12q-83 0 -163 -36t-140 -96t-96.5 -142.5t-36.5 -170.5
q0 -136 82.5 -216.5t226.5 -80.5q58 0 116 14t99 34t74 40t50 34l16 14l57 -154q-6 -6 -18.5 -16.5t-54.5 -37t-88.5 -47t-119.5 -37t-149 -16.5q-225 0 -359.5 125.5t-134.5 329.5z" />
    <glyph glyph-name="Dcaron" unicode="&#x10e;" horiz-adv-x="1599" 
d="M827 1546l-127 260h170l74 -166h4l142 166h186l-232 -260h-217zM-8 0l31 160h180l219 1128h-180l30 158h598q189 0 326 -47q162 -62 247 -195t85 -332q0 -256 -135 -477.5t-357 -320.5q-163 -74 -381 -74h-663zM408 168h235q182 0 318 65q162 83 260 253.5t98 369.5
q0 288 -215 381q-93 41 -246 41h-233z" />
    <glyph glyph-name="dcaron" unicode="&#x10f;" horiz-adv-x="1310" 
d="M1376 1446h174q4 -20 4 -41q0 -97 -58 -177t-153 -124l-71 74q110 84 110 202q0 32 -6 66zM61 399q0 143 47.5 268.5t126.5 210.5t182.5 134t215.5 49q104 0 185.5 -44.5t115.5 -133.5h4q2 38 10 75l64 334h-172l30 154h371l-221 -1143q-8 -46 -8 -63q0 -51 25 -70.5
t69 -19.5l47 4l-29 -154q-45 -4 -86 -4q-106 0 -164 43.5t-55 142.5h-4q-56 -88 -154 -147.5t-210 -59.5q-185 0 -287.5 114t-102.5 310zM264 414q0 -124 62.5 -195.5t171.5 -71.5q105 0 193.5 70t137 179.5t48.5 228.5q0 115 -58.5 188.5t-173.5 73.5q-68 0 -135 -33
t-122 -91.5t-89.5 -150t-34.5 -198.5z" />
    <glyph glyph-name="Dcroat" unicode="&#x110;" horiz-adv-x="1609" 
d="M-8 0l31 160h180l94 479h-156l33 168h156l94 481h-182l30 158h625q301 0 471 -148t170 -415q0 -180 -63.5 -342t-174.5 -281.5t-271.5 -189.5t-344.5 -70h-692zM410 168h260q142 0 265 54t209 147.5t135.5 222t49.5 274.5q0 199 -117.5 305.5t-326.5 106.5h-258l-92 -471
h315l-33 -168h-315z" />
    <glyph glyph-name="dcroat" unicode="&#x111;" horiz-adv-x="1310" 
d="M61 399q0 143 47.5 268.5t126.5 210.5t182.5 134t215.5 49q104 0 185.5 -44.5t115.5 -133.5h4q2 38 10 75l39 199h-309l24 129h310l30 160h199l-31 -160h156l-27 -129h-153l-166 -854q-8 -46 -8 -63q0 -51 25 -70.5t69 -19.5l47 4l-29 -154q-45 -4 -86 -4
q-106 0 -164 43.5t-55 142.5h-4q-56 -88 -154 -147.5t-210 -59.5q-185 0 -287.5 114t-102.5 310zM264 414q0 -124 62.5 -195.5t171.5 -71.5q105 0 193.5 70t137 179.5t48.5 228.5q0 115 -58.5 188.5t-173.5 73.5q-68 0 -135 -33t-122 -91.5t-89.5 -150t-34.5 -198.5z" />
    <glyph glyph-name="Emacron" unicode="&#x112;" horiz-adv-x="1300" 
d="M-6 0l31 160h180l219 1128h-182l32 158h1047l-66 -336h-178l33 168h-483l-90 -465h512l-35 -168h-510l-94 -477h518l33 174h180l-68 -342h-1079zM604 1606l27 145h520l-27 -145h-520z" />
    <glyph glyph-name="emacron" unicode="&#x113;" horiz-adv-x="1138" 
d="M61 418q0 171 77.5 318t217.5 236t310 89q193 0 293 -104.5t100 -278.5q0 -37 -8.5 -81.5t-16.5 -70.5l-8 -26h-754q-8 -35 -8 -74q0 -124 78 -201.5t217 -77.5q50 0 102.5 12.5t92 29.5t71.5 34.5t49 30.5l17 12l55 -155q-7 -6 -20 -15t-55 -32.5t-86 -41.5t-109 -32.5
t-127 -14.5q-224 0 -356 123t-132 320zM301 627h553q6 34 6 67q0 102 -54.5 155.5t-146.5 53.5q-116 0 -214 -73.5t-144 -202.5zM469 1245l27 146h520l-27 -146h-520z" />
    <glyph glyph-name="Ebreve" unicode="&#x114;" horiz-adv-x="1300" 
d="M-6 0l31 160h180l219 1128h-182l32 158h1047l-66 -336h-178l33 168h-483l-90 -465h512l-35 -168h-510l-94 -477h518l33 174h180l-68 -342h-1079zM868 1538q-118 0 -190.5 67t-50.5 173l6 28h149l-4 -26q-11 -61 17.5 -92t78.5 -31q51 0 94 31.5t54 93.5l4 24h152l-7 -28
q-22 -120 -106 -180t-197 -60z" />
    <glyph glyph-name="ebreve" unicode="&#x115;" horiz-adv-x="1138" 
d="M61 418q0 171 77.5 318t217.5 236t310 89q193 0 293 -104.5t100 -278.5q0 -37 -8.5 -81.5t-16.5 -70.5l-8 -26h-754q-8 -35 -8 -74q0 -124 78 -201.5t217 -77.5q50 0 102.5 12.5t92 29.5t71.5 34.5t49 30.5l17 12l55 -155q-7 -6 -20 -15t-55 -32.5t-86 -41.5t-109 -32.5
t-127 -14.5q-224 0 -356 123t-132 320zM301 627h553q6 34 6 67q0 102 -54.5 155.5t-146.5 53.5q-116 0 -214 -73.5t-144 -202.5zM733 1178q-118 0 -190.5 66.5t-50.5 172.5l6 29h149l-4 -27q-11 -61 17.5 -92t78.5 -31q51 0 94 31.5t54 93.5l4 25h151l-6 -29
q-15 -81 -61 -136t-107.5 -79t-134.5 -24z" />
    <glyph glyph-name="Edotaccent" unicode="&#x116;" horiz-adv-x="1300" 
d="M-6 0l31 160h180l219 1128h-182l32 158h1047l-66 -336h-178l33 168h-483l-90 -465h512l-35 -168h-510l-94 -477h518l33 174h180l-68 -342h-1079zM772 1606l39 200h188l-41 -200h-186z" />
    <glyph glyph-name="edotaccent" unicode="&#x117;" horiz-adv-x="1138" 
d="M61 418q0 171 77.5 318t217.5 236t310 89q193 0 293 -104.5t100 -278.5q0 -37 -8.5 -81.5t-16.5 -70.5l-8 -26h-754q-8 -35 -8 -74q0 -124 78 -201.5t217 -77.5q50 0 102.5 12.5t92 29.5t71.5 34.5t49 30.5l17 12l55 -155q-7 -6 -20 -15t-55 -32.5t-86 -41.5t-109 -32.5
t-127 -14.5q-224 0 -356 123t-132 320zM301 627h553q6 34 6 67q0 102 -54.5 155.5t-146.5 53.5q-116 0 -214 -73.5t-144 -202.5zM637 1245l39 201h188l-41 -201h-186z" />
    <glyph glyph-name="Eogonek" unicode="&#x118;" horiz-adv-x="1300" 
d="M-6 0l31 160h180l219 1128h-182l32 158h1047l-66 -336h-178l33 168h-483l-90 -465h512l-35 -168h-510l-94 -477h518l33 174h180l-68 -342h-12q-23 0 -72.5 -36t-93 -92t-43.5 -101q0 -23 12.5 -40t32 -25.5t36 -12t32.5 -4.5l-64 -140q-32 4 -64.5 14t-68 29.5t-58 54
t-22.5 79.5q0 148 184 274h-878z" />
    <glyph glyph-name="eogonek" unicode="&#x119;" horiz-adv-x="1138" 
d="M61 418q0 171 77 318t216.5 236t309.5 89q194 0 294.5 -104.5t100.5 -278.5q0 -37 -8.5 -81.5t-16.5 -70.5l-8 -26h-754q-8 -35 -8 -74q0 -124 78 -201.5t217 -77.5q50 0 102.5 12.5t92 29.5t71.5 34.5t49 30.5l17 12l55 -155q-82 -58 -201 -105q-60 -27 -129 -97
t-69 -138q0 -30 22 -49.5t44.5 -25.5t45.5 -7l-63 -140q-32 4 -65 14t-69 29.5t-58.5 54t-22.5 79.5q0 134 154 249q-218 6 -346 128.5t-128 314.5zM301 627h553q6 34 6 67q0 102 -54.5 155.5t-146.5 53.5q-116 0 -214 -73.5t-144 -202.5z" />
    <glyph glyph-name="Ecaron" unicode="&#x11a;" horiz-adv-x="1300" 
d="M752 1546l-127 260h170l73 -166h4l142 166h186l-231 -260h-217zM-6 0l31 160h180l219 1128h-182l32 158h1047l-66 -336h-178l33 168h-483l-90 -465h512l-35 -168h-510l-94 -477h518l33 174h180l-68 -342h-1079z" />
    <glyph glyph-name="ecaron" unicode="&#x11b;" horiz-adv-x="1138" 
d="M616 1186l-127 260h170l74 -166h4l142 166h186l-231 -260h-218zM61 418q0 171 77.5 318t217.5 236t310 89q193 0 293 -104.5t100 -278.5q0 -37 -8.5 -81.5t-16.5 -70.5l-8 -26h-754q-8 -35 -8 -74q0 -124 78 -201.5t217 -77.5q50 0 102.5 12.5t92 29.5t71.5 34.5t49 30.5
l17 12l55 -155q-7 -6 -20 -15t-55 -32.5t-86 -41.5t-109 -32.5t-127 -14.5q-224 0 -356 123t-132 320zM301 627h553q6 34 6 67q0 102 -54.5 155.5t-146.5 53.5q-116 0 -214 -73.5t-144 -202.5z" />
    <glyph glyph-name="Gcircumflex" unicode="&#x11c;" horiz-adv-x="1576" 
d="M721 1546l231 260h215l129 -260h-172l-73 164h-4l-140 -164h-186zM115 604q0 174 69.5 333.5t187.5 276.5t282.5 186.5t346.5 69.5q70 0 144.5 -10t149 -32.5t130.5 -54.5t86 -80.5t19 -106.5l-35 -178h-188l20 106q10 47 -19 83.5t-82.5 56.5t-111.5 30t-115 10
q-142 0 -268.5 -57.5t-213.5 -152.5t-138 -218t-51 -252q0 -206 123 -333t346 -127q57 0 120 9.5t126.5 29t109 56.5t55.5 85l39 190h-284l32 160h471l-80 -405q-16 -81 -80 -142.5t-155 -95t-185 -50t-186 -16.5q-304 0 -484.5 173.5t-180.5 455.5z" />
    <glyph glyph-name="gcircumflex" unicode="&#x11d;" horiz-adv-x="1284" 
d="M432 1186l232 260h215l129 -260h-172l-74 164h-4l-140 -164h-186zM88 -195q13 -8 36 -19t95.5 -29.5t145.5 -18.5q331 0 391 328q7 35 14.5 64t11.5 40l4 12h-4q-122 -170 -319 -170q-186 0 -290.5 115.5t-104.5 304.5q0 88 22.5 176.5t69 170t110 144.5t153 100.5
t191.5 37.5q132 0 216.5 -51t103.5 -123h4q-2 14 4 43q19 106 137 106h224l-29 -153h-115q-44 0 -53 -41l-156 -809q-25 -123 -83 -215.5t-137.5 -145t-167.5 -77.5t-185 -25q-210 0 -373 92zM270 446q0 -122 62.5 -192t177.5 -70q87 0 157.5 45.5t113 117.5t65 155
t22.5 164q0 223 -237 223q-111 0 -195 -66t-125 -165.5t-41 -211.5z" />
    <glyph glyph-name="Gbreve" unicode="&#x11e;" horiz-adv-x="1576" 
d="M115 604q0 174 69.5 333.5t187.5 276.5t282.5 186.5t346.5 69.5q70 0 144.5 -10t149 -32.5t130.5 -54.5t86 -80.5t19 -106.5l-35 -178h-188l20 106q10 47 -19 83.5t-82.5 56.5t-111.5 30t-115 10q-142 0 -268.5 -57.5t-213.5 -152.5t-138 -218t-51 -252q0 -206 123 -333
t346 -127q57 0 120 9.5t126.5 29t109 56.5t55.5 85l39 190h-284l32 160h471l-80 -405q-16 -81 -80 -142.5t-155 -95t-185 -50t-186 -16.5q-304 0 -484.5 173.5t-180.5 455.5zM1032 1538q-118 0 -190.5 67t-50.5 173l6 28h149l-4 -26q-11 -61 17.5 -92t78.5 -31q51 0 94 31.5
t54 93.5l4 24h151l-6 -28q-22 -120 -106 -180t-197 -60z" />
    <glyph glyph-name="gbreve" unicode="&#x11f;" horiz-adv-x="1284" 
d="M88 -195q13 -8 36 -19t95.5 -29.5t145.5 -18.5q331 0 391 328q7 35 14.5 64t11.5 40l4 12h-4q-122 -170 -319 -170q-186 0 -290.5 115.5t-104.5 304.5q0 88 22.5 176.5t69 170t110 144.5t153 100.5t191.5 37.5q132 0 216.5 -51t103.5 -123h4q-2 14 4 43q19 106 137 106
h224l-29 -153h-115q-44 0 -53 -41l-156 -809q-25 -123 -83 -215.5t-137.5 -145t-167.5 -77.5t-185 -25q-210 0 -373 92zM270 446q0 -122 62.5 -192t177.5 -70q87 0 157.5 45.5t113 117.5t65 155t22.5 164q0 223 -237 223q-111 0 -195 -66t-125 -165.5t-41 -211.5zM743 1178
q-118 0 -190.5 66.5t-50.5 172.5l6 29h149l-4 -27q-11 -61 18 -92t79 -31q51 0 93.5 31.5t53.5 93.5l4 25h152l-6 -29q-22 -119 -106 -179t-198 -60z" />
    <glyph glyph-name="Gdotaccent" unicode="&#x120;" horiz-adv-x="1576" 
d="M115 604q0 174 69.5 333.5t187.5 276.5t282.5 186.5t346.5 69.5q70 0 144.5 -10t149 -32.5t130.5 -54.5t86 -80.5t19 -106.5l-35 -178h-188l20 106q10 47 -19 83.5t-82.5 56.5t-111.5 30t-115 10q-142 0 -268.5 -57.5t-213.5 -152.5t-138 -218t-51 -252q0 -206 123 -333
t346 -127q57 0 120 9.5t126.5 29t109 56.5t55.5 85l39 190h-284l32 160h471l-80 -405q-16 -81 -80 -142.5t-155 -95t-185 -50t-186 -16.5q-304 0 -484.5 173.5t-180.5 455.5zM936 1606l39 200h188l-41 -200h-186z" />
    <glyph glyph-name="gdotaccent" unicode="&#x121;" horiz-adv-x="1284" 
d="M88 -195q13 -8 36 -19t95.5 -29.5t145.5 -18.5q331 0 391 328q7 35 14.5 64t11.5 40l4 12h-4q-122 -170 -319 -170q-186 0 -290.5 115.5t-104.5 304.5q0 88 22.5 176.5t69 170t110 144.5t153 100.5t191.5 37.5q132 0 216.5 -51t103.5 -123h4q-2 14 4 43q19 106 137 106
h224l-29 -153h-115q-44 0 -53 -41l-156 -809q-25 -123 -83 -215.5t-137.5 -145t-167.5 -77.5t-185 -25q-210 0 -373 92zM270 446q0 -122 62.5 -192t177.5 -70q87 0 157.5 45.5t113 117.5t65 155t22.5 164q0 223 -237 223q-111 0 -195 -66t-125 -165.5t-41 -211.5zM647 1245
l39 201h188l-40 -201h-187z" />
    <glyph glyph-name="Gcommaaccent" unicode="&#x122;" horiz-adv-x="1576" 
d="M596 -119h174q4 -20 4 -41q0 -97 -58 -177t-153 -124l-71 74q110 84 110 203q0 30 -6 65zM115 604q0 174 69.5 333.5t187.5 276.5t282.5 186.5t346.5 69.5q70 0 144.5 -10t149 -32.5t130.5 -54.5t86 -80.5t19 -106.5l-35 -178h-188l20 106q10 47 -19 83.5t-82.5 56.5
t-111.5 30t-115 10q-142 0 -268.5 -57.5t-213.5 -152.5t-138 -218t-51 -252q0 -206 123 -333t346 -127q57 0 120 9.5t126.5 29t109 56.5t55.5 85l39 190h-284l32 160h471l-80 -405q-16 -81 -80 -142.5t-155 -95t-185 -50t-186 -16.5q-304 0 -484.5 173.5t-180.5 455.5z" />
    <glyph glyph-name="gcommaaccent" unicode="&#x123;" horiz-adv-x="1284" 
d="M795 1180h-174q-5 25 -5 41q0 97 58 177t153 124l72 -74q-111 -85 -111 -203q0 -25 7 -65zM88 -195q13 -8 36 -19t95.5 -29.5t145.5 -18.5q331 0 391 328q7 35 14.5 64t11.5 40l4 12h-4q-122 -170 -319 -170q-186 0 -290.5 115.5t-104.5 304.5q0 88 22.5 176.5t69 170
t110 144.5t153 100.5t191.5 37.5q132 0 216.5 -51t103.5 -123h4q-2 14 4 43q19 106 137 106h224l-29 -153h-115q-44 0 -53 -41l-156 -809q-25 -123 -83 -215.5t-137.5 -145t-167.5 -77.5t-185 -25q-210 0 -373 92zM270 446q0 -122 62.5 -192t177.5 -70q87 0 157.5 45.5
t113 117.5t65 155t22.5 164q0 223 -237 223q-111 0 -195 -66t-125 -165.5t-41 -211.5z" />
    <glyph glyph-name="Hcircumflex" unicode="&#x124;" horiz-adv-x="1740" 
d="M758 1546l231 260h215l129 -260h-172l-74 164h-4l-139 -164h-186zM-8 0l31 160h180l219 1128h-180l30 158h568l-31 -158h-180l-94 -481h747l94 481h-182l31 158h569l-31 -158h-182l-221 -1128h182l-31 -160h-569l31 160h182l94 479h-747l-94 -479h182l-31 -160h-567z" />
    <glyph glyph-name="hcircumflex" unicode="&#x125;" horiz-adv-x="1316" 
d="M162 1546l231 260h215l129 -260h-172l-73 164h-5l-139 -164h-186zM59 0l250 1292h-166l29 154h367l-103 -535q-4 -22 -10.5 -45t-11.5 -35l-4 -12h4q11 21 33 49t61.5 62.5t86.5 63t112 48t133 19.5q137 0 213.5 -70.5t76.5 -202.5q0 -69 -45 -291t-45 -257q0 -54 24 -72
t69 -18l49 4l-31 -154q-39 -4 -88 -4q-33 0 -59.5 3t-59.5 15t-55 31.5t-37.5 57t-15.5 87.5q0 48 44 267.5t44 271.5q0 73 -40 111.5t-114 38.5q-152 0 -270.5 -121t-151.5 -293l-92 -465h-197z" />
    <glyph glyph-name="Hbar" unicode="&#x126;" horiz-adv-x="1740" 
d="M-6 0l31 160h180l160 827h-168l22 117h170l35 184h-182l32 158h568l-31 -158h-182l-35 -184h747l35 184h-180l31 158h567l-31 -158h-182l-35 -184h170l-22 -117h-170l-162 -827h182l-33 -160h-567l31 160h182l92 471h-749l-90 -471h180l-31 -160h-565zM528 772h750
l41 215h-750z" />
    <glyph glyph-name="hbar" unicode="&#x127;" horiz-adv-x="1314" 
d="M57 0l226 1157h-148l27 127h145l31 162h199l-31 -162h313l-24 -127h-314l-47 -246q-4 -22 -10.5 -45t-11.5 -35l-4 -12h4q11 21 33 49t61.5 62.5t86.5 63t112 48t133 19.5q137 0 213.5 -70.5t76.5 -202.5q0 -69 -45 -291t-45 -257q0 -54 23.5 -72t68.5 -18l50 4l-31 -154
q-39 -4 -88 -4q-33 0 -59.5 3t-59.5 15t-55 31.5t-37.5 57t-15.5 87.5q0 48 44 267.5t44 271.5q0 73 -40 111.5t-114 38.5q-152 0 -270.5 -121t-151.5 -293l-92 -465h-197z" />
    <glyph glyph-name="Itilde" unicode="&#x128;" horiz-adv-x="786" 
d="M-8 0l31 160h180l219 1128h-180l30 158h568l-31 -158h-182l-219 -1128h182l-31 -160h-567zM240 1548q25 125 87 192.5t152 67.5q39 0 69.5 -14t49 -34t34 -40.5t34.5 -34.5t41 -14q69 0 98 131h149q-22 -124 -84.5 -192t-152.5 -68q-39 0 -69 14t-49 34t-35 40.5
t-34.5 34.5t-40.5 14q-74 0 -100 -131h-149z" />
    <glyph glyph-name="itilde" unicode="&#x129;" horiz-adv-x="653" 
d="M150 195q0 32 10 90l119 598h-175l31 153h371l-144 -733q-8 -46 -8 -63q0 -90 95 -90l47 4l-29 -154q-47 -4 -82 -4q-36 0 -64 3t-62 15t-56 32.5t-37.5 58.5t-15.5 90zM102 1188q25 125 87 192.5t153 67.5q39 0 69.5 -14t48.5 -34t33.5 -40.5t34.5 -34.5t41 -14
q70 0 99 131h149q-22 -124 -84.5 -192t-152.5 -68q-39 0 -69 14t-49 34t-35 40.5t-34.5 34.5t-40.5 14q-74 0 -100 -131h-150z" />
    <glyph glyph-name="Imacron" unicode="&#x12a;" horiz-adv-x="786" 
d="M-8 0l31 160h180l219 1128h-180l30 158h568l-31 -158h-182l-219 -1128h182l-31 -160h-567zM324 1606l26 145h520l-26 -145h-520z" />
    <glyph glyph-name="imacron" unicode="&#x12b;" horiz-adv-x="653" 
d="M150 195q0 32 10 90l119 598h-175l31 153h371l-144 -733q-8 -46 -8 -63q0 -90 95 -90l47 4l-29 -154q-47 -4 -82 -4q-36 0 -64 3t-62 15t-56 32.5t-37.5 58.5t-15.5 90zM186 1245l27 146h520l-26 -146h-521z" />
    <glyph glyph-name="Ibreve" unicode="&#x12c;" horiz-adv-x="786" 
d="M-8 0l31 160h180l219 1128h-180l30 158h568l-31 -158h-182l-219 -1128h182l-31 -160h-567zM588 1538q-118 0 -191 67t-51 173l6 28h150l-4 -26q-11 -61 17.5 -92t78.5 -31q51 0 93.5 31.5t53.5 93.5l4 24h152l-6 -28q-22 -120 -106 -180t-197 -60z" />
    <glyph glyph-name="ibreve" unicode="&#x12d;" horiz-adv-x="653" 
d="M150 195q0 32 10 90l119 598h-175l31 153h371l-144 -733q-8 -46 -8 -63q0 -90 95 -90l47 4l-29 -154q-47 -4 -82 -4q-36 0 -64 3t-62 15t-56 32.5t-37.5 58.5t-15.5 90zM451 1178q-118 0 -191 66.5t-51 172.5l6 29h150l-5 -27q-11 -61 18 -92t79 -31q51 0 93.5 31.5
t53.5 93.5l4 25h152l-6 -29q-15 -81 -61 -136t-107.5 -79t-134.5 -24z" />
    <glyph glyph-name="Iogonek" unicode="&#x12e;" horiz-adv-x="786" 
d="M-8 0l31 160h180l219 1128h-180l30 158h568l-31 -158h-182l-219 -1128h182l-31 -160h-10q-23 0 -73 -36t-94 -92t-44 -101q0 -23 12 -40t31.5 -25.5t35.5 -12t32 -4.5l-64 -140q-32 4 -64.5 14t-68 29.5t-58 54t-22.5 79.5q0 149 186 274h-366z" />
    <glyph glyph-name="iogonek" unicode="&#x12f;" horiz-adv-x="655" 
d="M84 -274q0 151 195 280q-129 33 -129 189q0 20 12 90l117 598h-173l29 153h373l-146 -733q-6 -34 -6 -63q0 -51 24.5 -70.5t68.5 -19.5l49 4l-31 -154q-11 0 -21 -2q-46 -11 -122 -88t-76 -139q0 -23 12.5 -40t32 -25.5t35.5 -12t32 -4.5l-63 -140q-32 4 -64.5 14
t-68 29.5t-58 54t-22.5 79.5zM344 1243l39 203h209l-39 -203h-209z" />
    <glyph glyph-name="Idotaccent" unicode="&#x130;" horiz-adv-x="786" 
d="M-8 0l31 160h180l219 1128h-180l30 158h568l-31 -158h-182l-219 -1128h182l-31 -160h-567zM492 1606l38 200h189l-41 -200h-186z" />
    <glyph glyph-name="dotlessi" unicode="&#x131;" horiz-adv-x="653" 
d="M150 195q0 32 10 90l119 598h-175l31 153h371l-144 -733q-8 -46 -8 -63q0 -90 95 -90l47 4l-29 -154q-47 -4 -82 -4q-36 0 -64 3t-62 15t-56 32.5t-37.5 58.5t-15.5 90z" />
    <glyph glyph-name="IJ" unicode="&#x132;" horiz-adv-x="1505" 
d="M645 -6l33 170q40 -1 77 4.5t80 25t77.5 51t63.5 87t44 129.5l160 827h-191l31 158h569l-30 -158h-175l-157 -811q-24 -123 -69 -213.5t-99 -143t-126 -82.5t-139.5 -38.5t-148.5 -5.5zM-6 0l31 160h180l219 1128h-182l32 158h568l-31 -158h-182l-219 -1128h155l-30 -160
h-541z" />
    <glyph glyph-name="ij" unicode="&#x133;" horiz-adv-x="1230" 
d="M342 1243l41 203h209l-41 -203h-209zM150 195q0 32 10 90l119 598h-175l31 153h371l-144 -733q-8 -46 -8 -63q0 -90 95 -90l47 4l-29 -154q-47 -4 -82 -4q-36 0 -64 3t-62 15t-56 32.5t-37.5 58.5t-15.5 90zM973 1243l39 203h209l-39 -203h-209zM731 -33l176 916h-174
l31 153h373l-207 -1061q-19 -99 -60.5 -174.5t-89 -116.5t-106 -66t-103 -32.5t-88.5 -7.5l-94 4l33 160q16 -2 45 -2q36 0 69.5 7.5t75 29t73.5 70.5t46 120z" />
    <glyph glyph-name="Jcircumflex" unicode="&#x134;" horiz-adv-x="1132" 
d="M674 1546l231 260h215l129 -260h-172l-73 164h-5l-139 -164h-186zM0 317q0 37 7 79.5t13 66.5l7 24h196q-22 -82 -22 -145q0 -184 178 -184q44 0 84.5 14t78.5 42.5t66 80t41 119.5l170 874h-213l31 158h577l-30 -158h-160l-172 -889q-21 -110 -70 -194t-115 -133
t-139.5 -73t-152.5 -24q-75 0 -141 20.5t-119 61t-84 107.5t-31 153z" />
    <glyph glyph-name="jcircumflex" unicode="&#x135;" horiz-adv-x="610" 
d="M115 1186l233 260h215l127 -260h-170l-74 166h-4l-141 -166h-186zM111 -33l176 916h-174l30 153h373l-207 -1061q-16 -83 -47 -149.5t-71 -108.5t-82.5 -71t-89.5 -43t-83.5 -19.5t-72.5 -5.5l-94 4l32 160q16 -2 45 -2q27 0 53 4t61.5 18t63 37t52 66.5t35.5 101.5z" />
    <glyph glyph-name="Kcommaaccent" unicode="&#x136;" horiz-adv-x="1419" 
d="M502 -119h174q4 -20 4 -41q0 -97 -58 -177t-153 -124l-72 74q111 85 111 203q0 30 -6 65zM-8 0l31 160h180l219 1128h-180l30 158h545l-31 -158h-159l-88 -454h176l403 454h-123l31 158h487l-30 -158h-140l-477 -530v-4q33 -20 58 -88l161 -416q17 -50 40 -72t77 -22
l62 4l-31 -160q-32 -4 -98 -4q-60 0 -103 14t-71.5 44t-44.5 59t-33 75l-152 410q-12 36 -35.5 52t-68.5 16h-121l-98 -506h178l-33 -160h-561z" />
    <glyph glyph-name="kcommaaccent" unicode="&#x137;" horiz-adv-x="1144" 
d="M362 -119h175q4 -20 4 -41q0 -97 -58 -177t-153 -124l-72 74q111 85 111 203q0 25 -7 65zM57 0l252 1292h-172l29 154h373l-158 -809h131l264 246h-129l29 153h463l-31 -153h-121l-334 -312v-4q29 -23 56 -82l112 -247q18 -43 42 -64.5t73 -21.5l57 2l-28 -154
q-28 -4 -91 -4q-58 0 -97.5 11.5t-66 41t-39 51t-33.5 69.5q-3 7 -5 11l-115 256q-12 28 -30.5 38.5t-53.5 10.5h-82l-98 -485h-197z" />
    <glyph glyph-name="kgreenlandic" unicode="&#x138;" horiz-adv-x="1200" 
d="M117 0l170 883h-172l30 153h371l-76 -395h138l262 242h-131l30 153h453l-29 -153h-123l-333 -314v-4q34 -21 59 -80l113 -247q14 -30 24.5 -45.5t34 -28t57.5 -12.5l58 2l-31 -154q-28 -4 -84 -4q-47 0 -83 10.5t-58 24t-43 42t-31 48t-27 59.5l-112 256q-13 27 -32.5 37
t-57.5 10h-84l-97 -483h-196z" />
    <glyph glyph-name="Lacute" unicode="&#x139;" horiz-adv-x="1234" 
d="M444 1546l263 260h237l-303 -260h-197zM-4 0l31 160h178l219 1118h-182l32 168h570l-33 -168h-182l-217 -1110h503l48 233h178l-80 -401h-1065z" />
    <glyph glyph-name="lacute" unicode="&#x13a;" horiz-adv-x="604" 
d="M326 1546l262 260h237l-303 -260h-196zM100 201q0 30 11 94l194 997h-174l31 154h370l-217 -1133q-10 -42 -10 -69q0 -52 24 -69t70 -17l50 4l-33 -164q-41 -4 -82 -4q-234 0 -234 207z" />
    <glyph glyph-name="Lcommaaccent" unicode="&#x13b;" horiz-adv-x="1234" 
d="M465 -119h174q4 -20 4 -41q0 -97 -58 -177t-153 -124l-72 74q111 85 111 203q0 30 -6 65zM-4 0l31 160h178l219 1118h-182l32 168h570l-33 -168h-182l-217 -1110h503l48 233h178l-80 -401h-1065z" />
    <glyph glyph-name="lcommaaccent" unicode="&#x13c;" horiz-adv-x="604" 
d="M123 -119h174q4 -20 4 -41q0 -97 -58 -177t-153 -124l-72 74q111 85 111 203q0 30 -6 65zM100 201q0 30 11 94l194 997h-174l31 154h370l-217 -1133q-10 -42 -10 -69q0 -52 24 -69t70 -17l50 4l-33 -164q-41 -4 -82 -4q-234 0 -234 207z" />
    <glyph glyph-name="Lcaron" unicode="&#x13d;" horiz-adv-x="1234" 
d="M465 -119h174q4 -20 4 -41q0 -97 -58 -177t-153 -124l-72 74q111 85 111 203q0 30 -6 65zM-4 0l31 160h178l219 1118h-182l32 168h570l-33 -168h-182l-217 -1110h503l48 233h178l-80 -401h-1065z" />
    <glyph glyph-name="lcaron" unicode="&#x13e;" horiz-adv-x="604" 
d="M672 1444h174q4 -20 4 -41q0 -97 -58 -177t-153 -124l-72 74q111 85 111 202q0 32 -6 66zM100 201q0 30 11 94l194 997h-174l31 154h370l-217 -1133q-10 -42 -10 -69q0 -52 24 -69t70 -17l50 4l-33 -164q-41 -4 -82 -4q-234 0 -234 207z" />
    <glyph glyph-name="Ldot" unicode="&#x13f;" horiz-adv-x="1234" 
d="M-4 0l31 160h178l219 1118h-182l32 168h570l-33 -168h-182l-217 -1110h503l48 233h178l-80 -401h-1065zM748 670l40 215h207l-41 -215h-206z" />
    <glyph glyph-name="ldot" unicode="&#x140;" horiz-adv-x="755" 
d="M100 201q0 30 11 94l194 997h-174l31 154h370l-217 -1133q-10 -42 -10 -69q0 -52 24 -69t70 -17l50 4l-33 -164q-41 -4 -82 -4q-234 0 -234 207zM555 670l41 215h207l-41 -215h-207z" />
    <glyph glyph-name="Lslash" unicode="&#x141;" horiz-adv-x="1232" 
d="M-6 0l31 160h180l78 405l-193 -90l35 180l192 93l105 530h-180l32 168h568l-33 -168h-182l-82 -422l459 217l-35 -182l-459 -217l-100 -506h512l47 233h170l-78 -401h-1067z" />
    <glyph glyph-name="lslash" unicode="&#x142;" horiz-adv-x="602" 
d="M111 291l73 379l-180 -92l33 182l182 92l86 440h-172l31 154h371l-95 -483l207 106l-37 -182l-204 -107l-93 -473q-17 -88 5.5 -118.5t78.5 -30.5l35 2l-33 -164q-30 -4 -65 -4q-279 0 -223 299z" />
    <glyph glyph-name="Nacute" unicode="&#x143;" horiz-adv-x="1720" 
d="M924 1546l262 260h237l-303 -260h-196zM-6 0l31 160h180l219 1128h-182l32 158h377l510 -1047q8 -17 15.5 -42t10.5 -41l3 -17h6q4 68 14 113l172 876h-184l31 158h571l-31 -158h-182l-252 -1288h-196l-512 1047q-8 18 -15.5 43t-10.5 41l-3 16h-6q-4 -68 -14 -113
l-168 -874h184l-31 -160h-569z" />
    <glyph glyph-name="nacute" unicode="&#x144;" horiz-adv-x="1376" 
d="M702 1186l263 260h237l-303 -260h-197zM117 0l164 838q7 45 -37 45h-129l30 153h236q111 0 111 -88q0 -19 -10 -65.5t-21 -73.5h4q11 22 33 50.5t62 65t87.5 66t115.5 50t140 20.5q134 0 210.5 -70.5t76.5 -202.5q0 -69 -45 -291t-45 -257q0 -54 23.5 -72t68.5 -18l49 4
l-31 -154q-41 -4 -88 -4q-33 0 -59.5 3t-59.5 15t-55 31.5t-37.5 57t-15.5 87.5q0 48 44 267.5t44 271.5q0 74 -40 112t-116 38q-149 0 -268.5 -122t-152.5 -292l-91 -465h-198z" />
    <glyph glyph-name="Ncommaaccent" unicode="&#x145;" horiz-adv-x="1720" 
d="M635 -119h174q4 -20 4 -41q0 -97 -58 -177t-153 -124l-72 74q111 85 111 203q0 30 -6 65zM-6 0l31 160h180l219 1128h-182l32 158h377l510 -1047q8 -17 15.5 -42t10.5 -41l3 -17h6q4 68 14 113l172 876h-184l31 158h571l-31 -158h-182l-252 -1288h-196l-512 1047
q-8 18 -15.5 43t-10.5 41l-3 16h-6q-4 -68 -14 -113l-168 -874h184l-31 -160h-569z" />
    <glyph glyph-name="ncommaaccent" unicode="&#x146;" horiz-adv-x="1376" 
d="M541 -119h174q4 -20 4 -41q0 -97 -58 -177t-153 -124l-72 74q111 85 111 203q0 30 -6 65zM117 0l164 838q7 45 -37 45h-129l30 153h236q111 0 111 -88q0 -19 -10 -65.5t-21 -73.5h4q11 22 33 50.5t62 65t87.5 66t115.5 50t140 20.5q134 0 210.5 -70.5t76.5 -202.5
q0 -69 -45 -291t-45 -257q0 -54 23.5 -72t68.5 -18l49 4l-31 -154q-41 -4 -88 -4q-33 0 -59.5 3t-59.5 15t-55 31.5t-37.5 57t-15.5 87.5q0 48 44 267.5t44 271.5q0 74 -40 112t-116 38q-149 0 -268.5 -122t-152.5 -292l-91 -465h-198z" />
    <glyph glyph-name="Ncaron" unicode="&#x147;" horiz-adv-x="1720" 
d="M950 1546l-127 260h170l74 -166h4l141 166h187l-232 -260h-217zM-6 0l31 160h180l219 1128h-182l32 158h377l510 -1047q8 -17 15.5 -42t10.5 -41l3 -17h6q4 68 14 113l172 876h-184l31 158h571l-31 -158h-182l-252 -1288h-196l-512 1047q-8 18 -15.5 43t-10.5 41l-3 16
h-6q-4 -68 -14 -113l-168 -874h184l-31 -160h-569z" />
    <glyph glyph-name="ncaron" unicode="&#x148;" horiz-adv-x="1376" 
d="M729 1186l-127 260h170l74 -166h4l141 166h187l-232 -260h-217zM117 0l164 838q7 45 -37 45h-129l30 153h236q111 0 111 -88q0 -19 -10 -65.5t-21 -73.5h4q11 22 33 50.5t62 65t87.5 66t115.5 50t140 20.5q134 0 210.5 -70.5t76.5 -202.5q0 -69 -45 -291t-45 -257
q0 -54 23.5 -72t68.5 -18l49 4l-31 -154q-41 -4 -88 -4q-33 0 -59.5 3t-59.5 15t-55 31.5t-37.5 57t-15.5 87.5q0 48 44 267.5t44 271.5q0 74 -40 112t-116 38q-149 0 -268.5 -122t-152.5 -292l-91 -465h-198z" />
    <glyph glyph-name="napostrophe" unicode="&#x149;" horiz-adv-x="1376" 
d="M248 1477h174q4 -20 4 -41q0 -97 -58 -177t-153 -124l-72 73q111 85 111 203q0 31 -6 66zM117 0l164 838q7 45 -37 45h-129l30 153h236q111 0 111 -88q0 -19 -10 -65.5t-21 -73.5h4q11 22 33 50.5t62 65t87.5 66t115.5 50t140 20.5q134 0 210.5 -70.5t76.5 -202.5
q0 -69 -45 -291t-45 -257q0 -54 23.5 -72t68.5 -18l49 4l-31 -154q-41 -4 -88 -4q-33 0 -59.5 3t-59.5 15t-55 31.5t-37.5 57t-15.5 87.5q0 48 44 267.5t44 271.5q0 74 -40 112t-116 38q-149 0 -268.5 -122t-152.5 -292l-91 -465h-198z" />
    <glyph glyph-name="Eng" unicode="&#x14a;" horiz-adv-x="1720" 
d="M-6 0l31 160h180l219 1128h-182l32 158h379l508 -1047q8 -17 15.5 -42t10.5 -41l3 -17h6q6 68 14 113l172 876h-184l31 158h571l-31 -158h-182l-235 -1208q-24 -122 -67.5 -213t-97 -145t-125 -86.5t-141.5 -44t-157 -11.5l35 176q279 0 336 248l-508 1043
q-8 18 -15.5 43t-10.5 41l-3 16h-6q-4 -68 -14 -113l-168 -874h184l-31 -160h-569z" />
    <glyph glyph-name="eng" unicode="&#x14b;" horiz-adv-x="1320" 
d="M117 0l164 838q7 45 -37 45h-129l30 153h236q111 0 111 -88q0 -19 -10 -65.5t-21 -73.5h4q11 22 33 50.5t62 65t87.5 66t115.5 50t140 20.5q134 0 210.5 -70.5t76.5 -202.5q0 -49 -31 -208l-117 -611q-16 -83 -47.5 -149.5t-71.5 -108.5t-83 -71t-90 -43t-83.5 -19.5
t-72.5 -5.5l-94 4l32 160q17 -2 46 -2q27 0 53 4t61 18t62.5 37.5t52 67.5t35.5 102l116 598q25 137 25 168q0 74 -40 112t-116 38q-149 0 -268.5 -122t-152.5 -292l-91 -465h-198z" />
    <glyph glyph-name="Omacron" unicode="&#x14c;" horiz-adv-x="1687" 
d="M778 1606l27 145h520l-27 -145h-520zM115 606q0 115 33.5 226.5t92.5 206t141.5 175t179 137t207 88t222.5 31.5q185 0 328.5 -78.5t222 -218t78.5 -317.5q0 -174 -74 -338t-195 -282t-281.5 -189.5t-326.5 -71.5q-185 0 -328.5 81t-221.5 224.5t-78 325.5zM322 614
q0 -201 121.5 -328.5t314.5 -127.5q120 0 238.5 54.5t210 146t148 220t56.5 267.5q0 195 -121.5 319.5t-314.5 124.5q-122 0 -241 -54t-209.5 -143.5t-146.5 -216t-56 -262.5z" />
    <glyph glyph-name="omacron" unicode="&#x14d;" horiz-adv-x="1284" 
d="M508 1245l27 146h520l-27 -146h-520zM59 432q0 173 93 319t243 228t318 82q211 0 344 -126t133 -327q0 -131 -55 -250t-145.5 -202t-209 -132t-243.5 -49q-211 0 -344.5 127.5t-133.5 329.5zM262 440q0 -130 81 -211.5t210 -81.5q107 0 207 58.5t163.5 163.5t63.5 229
q0 129 -81 210t-210 81q-108 0 -208 -58.5t-163 -163t-63 -227.5z" />
    <glyph glyph-name="Obreve" unicode="&#x14e;" horiz-adv-x="1687" 
d="M115 606q0 115 33.5 226.5t92.5 206t141.5 175t179 137t207 88t222.5 31.5q185 0 328.5 -78.5t222 -218t78.5 -317.5q0 -174 -74 -338t-195 -282t-281.5 -189.5t-326.5 -71.5q-185 0 -328.5 81t-221.5 224.5t-78 325.5zM322 614q0 -201 121.5 -328.5t314.5 -127.5
q120 0 238.5 54.5t210 146t148 220t56.5 267.5q0 195 -121.5 319.5t-314.5 124.5q-122 0 -241 -54t-209.5 -143.5t-146.5 -216t-56 -262.5zM1040 1538q-118 0 -190.5 67t-50.5 173l6 28h149l-4 -26q-11 -61 18 -92t79 -31q51 0 93.5 31.5t53.5 93.5l4 24h152l-7 -28
q-22 -120 -106 -180t-197 -60z" />
    <glyph glyph-name="obreve" unicode="&#x14f;" horiz-adv-x="1284" 
d="M59 432q0 173 93 319t243 228t318 82q211 0 344 -126t133 -327q0 -131 -55 -250t-145.5 -202t-209 -132t-243.5 -49q-211 0 -344.5 127.5t-133.5 329.5zM262 440q0 -130 81 -211.5t210 -81.5q107 0 207 58.5t163.5 163.5t63.5 229q0 129 -81 210t-210 81
q-108 0 -208 -58.5t-163 -163t-63 -227.5zM770 1178q-118 0 -191 66.5t-51 172.5l7 29h149l-4 -27q-11 -61 17.5 -92t78.5 -31q51 0 94 31.5t54 93.5l4 25h151l-6 -29q-15 -81 -61 -136t-107.5 -79t-134.5 -24z" />
    <glyph glyph-name="Ohungarumlaut" unicode="&#x150;" horiz-adv-x="1687" 
d="M1067 1546l203 260h221l-248 -260h-176zM748 1546l190 260h195l-197 -260h-188zM115 606q0 115 33.5 226.5t92.5 206t141.5 175t179 137t207 88t222.5 31.5q185 0 328.5 -78.5t222 -218t78.5 -317.5q0 -174 -74 -338t-195 -282t-281.5 -189.5t-326.5 -71.5
q-185 0 -328.5 81t-221.5 224.5t-78 325.5zM322 614q0 -201 121.5 -328.5t314.5 -127.5q120 0 238.5 54.5t210 146t148 220t56.5 267.5q0 195 -121.5 319.5t-314.5 124.5q-122 0 -241 -54t-209.5 -143.5t-146.5 -216t-56 -262.5z" />
    <glyph glyph-name="ohungarumlaut" unicode="&#x151;" horiz-adv-x="1284" 
d="M797 1186l202 260h222l-248 -260h-176zM477 1186l191 260h194l-196 -260h-189zM59 432q0 173 93 319t243 228t318 82q211 0 344 -126t133 -327q0 -131 -55 -250t-145.5 -202t-209 -132t-243.5 -49q-211 0 -344.5 127.5t-133.5 329.5zM262 440q0 -130 81 -211.5t210 -81.5
q107 0 207 58.5t163.5 163.5t63.5 229q0 129 -81 210t-210 81q-108 0 -208 -58.5t-163 -163t-63 -227.5z" />
    <glyph glyph-name="OE" unicode="&#x152;" horiz-adv-x="2002" 
d="M115 598q0 173 72 333.5t190 276.5t276.5 186t325.5 70q64 0 157 -9t132 -9h755l-65 -336h-170l33 168h-486l-92 -467h508l-33 -166h-508l-92 -477h520l33 170h170l-65 -338h-764q-32 0 -117 -9t-137 -9q-289 0 -466 172.5t-177 443.5zM324 598q0 -198 119.5 -321
t322.5 -123q36 0 73.5 4t56.5 8l19 4l213 1108q-59 14 -141 14q-131 0 -253.5 -55.5t-212 -148.5t-143.5 -221.5t-54 -268.5z" />
    <glyph glyph-name="oe" unicode="&#x153;" horiz-adv-x="2052" 
d="M59 432q0 173 91.5 319t239 228t312.5 82q145 0 252 -65.5t162 -180.5h4q79 114 197.5 180t257.5 66q194 0 294.5 -104.5t100.5 -278.5q0 -37 -8 -82t-16 -72l-7 -26h-755q-8 -33 -8 -74q0 -121 78.5 -199t218.5 -78q78 0 160.5 30.5t125.5 60.5l43 30l58 -157
q-7 -6 -20 -15t-55 -32.5t-86 -41.5t-109 -32.5t-128 -14.5q-154 0 -264 66t-162 186h-4q-86 -117 -216.5 -184.5t-268.5 -67.5q-217 0 -352.5 127t-135.5 330zM1214 629h553q7 32 7 65q0 101 -55 155t-146 54q-118 0 -215 -73t-144 -201zM262 440q0 -130 81 -211.5
t210 -81.5q107 0 207 58.5t163.5 163.5t63.5 229q0 129 -81 210t-210 81q-112 0 -211.5 -58.5t-161 -163t-61.5 -227.5z" />
    <glyph glyph-name="Racute" unicode="&#x154;" horiz-adv-x="1441" 
d="M741 1546l263 260h237l-303 -260h-197zM-8 0l31 160h182l219 1128h-182l32 158h637q170 0 258 -45q78 -41 124 -118t46 -187q0 -166 -103 -300t-275 -171v-7q33 -38 49 -77l112 -291q20 -51 42.5 -72.5t74.5 -21.5l59 4l-30 -160q-32 -4 -97 -4q-59 0 -101.5 14.5
t-70.5 44.5t-44 58.5t-33 74.5l-117 314q-18 49 -46 65.5t-83 16.5h-182l-84 -424h176l-31 -160h-563zM524 752h285q131 0 226 89t95 228q0 121 -77 170q-58 39 -185 39h-241z" />
    <glyph glyph-name="racute" unicode="&#x155;" horiz-adv-x="837" 
d="M424 1186l262 260h238l-303 -260h-197zM117 0l162 838q7 45 -37 45h-129l32 153h234q59 0 84.5 -21.5t25.5 -66.5q0 -21 -12 -80.5t-24 -95.5h4q56 118 155.5 197.5t216.5 79.5q32 0 62 -5l-39 -196q-30 6 -55 6q-92 0 -179 -68t-146.5 -174.5t-82.5 -226.5l-74 -385
h-198z" />
    <glyph glyph-name="Rcommaaccent" unicode="&#x156;" horiz-adv-x="1441" 
d="M535 -119h174q4 -20 4 -41q0 -97 -58 -177t-153 -124l-72 74q111 85 111 203q0 30 -6 65zM-8 0l31 160h182l219 1128h-182l32 158h637q170 0 258 -45q78 -41 124 -118t46 -187q0 -166 -103 -300t-275 -171v-7q33 -38 49 -77l112 -291q20 -51 42.5 -72.5t74.5 -21.5l59 4
l-30 -160q-32 -4 -97 -4q-59 0 -101.5 14.5t-70.5 44.5t-44 58.5t-33 74.5l-117 314q-18 49 -46 65.5t-83 16.5h-182l-84 -424h176l-31 -160h-563zM524 752h285q131 0 226 89t95 228q0 121 -77 170q-58 39 -185 39h-241z" />
    <glyph glyph-name="rcommaaccent" unicode="&#x157;" horiz-adv-x="837" 
d="M100 -119h174q5 -25 5 -41q0 -97 -58 -177t-153 -124l-72 74q110 84 110 203q0 30 -6 65zM117 0l162 838q7 45 -37 45h-129l32 153h234q59 0 84.5 -21.5t25.5 -66.5q0 -21 -12 -80.5t-24 -95.5h4q56 118 155.5 197.5t216.5 79.5q32 0 62 -5l-39 -196q-30 6 -55 6
q-92 0 -179 -68t-146.5 -174.5t-82.5 -226.5l-74 -385h-198z" />
    <glyph glyph-name="Rcaron" unicode="&#x158;" horiz-adv-x="1441" 
d="M768 1546l-127 260h170l74 -166h4l141 166h187l-232 -260h-217zM-8 0l31 160h182l219 1128h-182l32 158h637q170 0 258 -45q78 -41 124 -118t46 -187q0 -166 -103 -300t-275 -171v-7q33 -38 49 -77l112 -291q20 -51 42.5 -72.5t74.5 -21.5l59 4l-30 -160q-32 -4 -97 -4
q-59 0 -101.5 14.5t-70.5 44.5t-44 58.5t-33 74.5l-117 314q-18 49 -46 65.5t-83 16.5h-182l-84 -424h176l-31 -160h-563zM524 752h285q131 0 226 89t95 228q0 121 -77 170q-58 39 -185 39h-241z" />
    <glyph glyph-name="rcaron" unicode="&#x159;" horiz-adv-x="837" 
d="M449 1186l-127 260h170l73 -166h4l142 166h186l-231 -260h-217zM117 0l162 838q7 45 -37 45h-129l32 153h234q59 0 84.5 -21.5t25.5 -66.5q0 -21 -12 -80.5t-24 -95.5h4q56 118 155.5 197.5t216.5 79.5q32 0 62 -5l-39 -196q-30 6 -55 6q-92 0 -179 -68t-146.5 -174.5
t-82.5 -226.5l-74 -385h-198z" />
    <glyph glyph-name="Sacute" unicode="&#x15a;" horiz-adv-x="1204" 
d="M647 1546l262 260h238l-303 -260h-197zM59 297l29 143h188l-22 -112q-9 -45 11.5 -79.5t62.5 -53.5t91.5 -28t104.5 -9q143 0 234.5 73.5t91.5 190.5q0 54 -27 96t-71.5 68t-101.5 51.5t-116.5 46t-116.5 52.5t-101.5 69.5t-71.5 98.5t-27 138q0 82 29.5 152t81 120
t121.5 85.5t151 53t168 17.5q54 0 110.5 -8t113.5 -27.5t99 -47.5t63.5 -72.5t10.5 -97.5l-32 -156h-189l19 100q7 35 -11.5 61.5t-54 40.5t-75 20.5t-81.5 6.5q-134 0 -223.5 -64.5t-89.5 -170.5q0 -46 21.5 -82.5t58.5 -61t84.5 -46t100 -41t104.5 -41.5t99.5 -53
t84.5 -69.5t58.5 -96.5t21.5 -130q0 -139 -78 -245t-205 -160t-280 -54q-60 0 -122 9.5t-125.5 33.5t-110 59.5t-70.5 92.5t-11 127z" />
    <glyph glyph-name="sacute" unicode="&#x15b;" horiz-adv-x="995" 
d="M494 1186l262 260h237l-303 -260h-196zM10 231l19 103h174l-13 -68q-7 -32 7 -56.5t38 -38t58.5 -21.5t63 -10.5t57.5 -2.5q101 0 168 41.5t67 110.5q0 40 -27.5 70.5t-71 51t-96.5 40t-106.5 44t-97 55t-71 80t-27.5 113.5q0 101 65 175t163 108.5t212 34.5
q91 0 167 -22.5t122.5 -74.5t31.5 -124l-22 -113h-174l14 74q6 29 -8.5 50t-43 31t-57 14.5t-59.5 4.5q-89 0 -152 -38t-63 -105q0 -40 27.5 -70.5t71.5 -50.5t97 -39t106 -42t97 -52.5t71.5 -77.5t27.5 -111q0 -151 -127.5 -245.5t-333.5 -94.5q-55 0 -110 8.5t-108.5 28.5
t-91.5 48.5t-57 72.5t-8 98z" />
    <glyph glyph-name="Scircumflex" unicode="&#x15c;" horiz-adv-x="1204" 
d="M479 1546l232 260h215l129 -260h-172l-74 164h-4l-139 -164h-187zM59 297l29 143h188l-22 -112q-9 -45 11.5 -79.5t62.5 -53.5t91.5 -28t104.5 -9q143 0 234.5 73.5t91.5 190.5q0 54 -27 96t-71.5 68t-101.5 51.5t-116.5 46t-116.5 52.5t-101.5 69.5t-71.5 98.5t-27 138
q0 82 29.5 152t81 120t121.5 85.5t151 53t168 17.5q54 0 110.5 -8t113.5 -27.5t99 -47.5t63.5 -72.5t10.5 -97.5l-32 -156h-189l19 100q7 35 -11.5 61.5t-54 40.5t-75 20.5t-81.5 6.5q-134 0 -223.5 -64.5t-89.5 -170.5q0 -46 21.5 -82.5t58.5 -61t84.5 -46t100 -41
t104.5 -41.5t99.5 -53t84.5 -69.5t58.5 -96.5t21.5 -130q0 -139 -78 -245t-205 -160t-280 -54q-60 0 -122 9.5t-125.5 33.5t-110 59.5t-70.5 92.5t-11 127z" />
    <glyph glyph-name="scircumflex" unicode="&#x15d;" horiz-adv-x="995" 
d="M326 1186l231 260h215l129 -260h-172l-74 164h-4l-139 -164h-186zM10 231l19 103h174l-13 -68q-7 -32 7 -56.5t38 -38t58.5 -21.5t63 -10.5t57.5 -2.5q101 0 168 41.5t67 110.5q0 40 -27.5 70.5t-71 51t-96.5 40t-106.5 44t-97 55t-71 80t-27.5 113.5q0 101 65 175
t163 108.5t212 34.5q91 0 167 -22.5t122.5 -74.5t31.5 -124l-22 -113h-174l14 74q6 29 -8.5 50t-43 31t-57 14.5t-59.5 4.5q-89 0 -152 -38t-63 -105q0 -40 27.5 -70.5t71.5 -50.5t97 -39t106 -42t97 -52.5t71.5 -77.5t27.5 -111q0 -151 -127.5 -245.5t-333.5 -94.5
q-55 0 -110 8.5t-108.5 28.5t-91.5 48.5t-57 72.5t-8 98z" />
    <glyph glyph-name="Scedilla" unicode="&#x15e;" horiz-adv-x="1204" 
d="M330 -199l82 181q-57 6 -109 20t-103 39t-85.5 59.5t-50.5 85t-5 111.5l29 143h188l-22 -112q-9 -45 11.5 -79.5t62.5 -53.5t91.5 -28t104.5 -9q143 0 234.5 73.5t91.5 190.5q0 54 -27 96t-71.5 68t-101.5 51.5t-116.5 46t-116.5 52.5t-101.5 69.5t-71.5 98.5t-27 138
q0 82 29.5 152t81 120t121.5 85.5t151 53t168 17.5q54 0 110.5 -8t113.5 -27.5t99 -47.5t63.5 -72.5t10.5 -97.5l-32 -156h-189l19 100q7 35 -11.5 61.5t-54 40.5t-75 20.5t-81.5 6.5q-134 0 -223.5 -64.5t-89.5 -170.5q0 -46 21.5 -82.5t58.5 -61t84.5 -46t100 -41
t104.5 -41.5t99.5 -53t84.5 -69.5t58.5 -96.5t21.5 -130q0 -135 -74.5 -239.5t-196.5 -159.5t-270 -60l-39 -90q60 -6 98.5 -43t38.5 -96q0 -49 -24 -87t-63 -59.5t-83 -32.5t-90 -11q-29 0 -57.5 3.5t-42.5 6.5l-14 4l22 108q37 -12 88 -12q44 0 81.5 17.5t37.5 58.5
q0 28 -29.5 43.5t-78.5 15.5h-35z" />
    <glyph glyph-name="scedilla" unicode="&#x15f;" horiz-adv-x="993" 
d="M236 -199l81 179q-66 6 -123 23.5t-104 47t-69 76t-11 104.5l19 103h174l-13 -68q-7 -32 7 -56.5t38 -38t58.5 -21.5t63 -10.5t57.5 -2.5q101 0 168 41.5t67 110.5q0 40 -27.5 70.5t-71 51t-96.5 40t-106.5 44t-97 55t-71 80t-27.5 113.5q0 101 65 175t163 108.5
t212 34.5q91 0 167 -22.5t122.5 -74.5t31.5 -124l-22 -113h-174l14 74q6 29 -8.5 50t-43 31t-57 14.5t-59.5 4.5q-89 0 -152 -38t-63 -105q0 -40 27.5 -70.5t71.5 -50.5t97 -39t106 -42t97 -52.5t71.5 -77.5t27.5 -111q0 -143 -114.5 -236t-303.5 -102l-41 -92
q60 -6 99.5 -43t39.5 -96q0 -64 -42.5 -109t-99 -63t-118.5 -18q-29 0 -57.5 3.5t-42.5 6.5l-14 4l20 108q37 -12 88 -12q45 0 82 17.5t37 58.5q0 28 -29.5 43.5t-77.5 15.5h-36z" />
    <glyph glyph-name="Scaron" unicode="&#x160;" horiz-adv-x="1204" 
d="M674 1546l-127 260h170l74 -166h4l141 166h186l-231 -260h-217zM59 297l29 143h188l-22 -112q-9 -45 11.5 -79.5t62.5 -53.5t91.5 -28t104.5 -9q143 0 234.5 73.5t91.5 190.5q0 54 -27 96t-71.5 68t-101.5 51.5t-116.5 46t-116.5 52.5t-101.5 69.5t-71.5 98.5t-27 138
q0 82 29.5 152t81 120t121.5 85.5t151 53t168 17.5q54 0 110.5 -8t113.5 -27.5t99 -47.5t63.5 -72.5t10.5 -97.5l-32 -156h-189l19 100q7 35 -11.5 61.5t-54 40.5t-75 20.5t-81.5 6.5q-134 0 -223.5 -64.5t-89.5 -170.5q0 -46 21.5 -82.5t58.5 -61t84.5 -46t100 -41
t104.5 -41.5t99.5 -53t84.5 -69.5t58.5 -96.5t21.5 -130q0 -139 -78 -245t-205 -160t-280 -54q-60 0 -122 9.5t-125.5 33.5t-110 59.5t-70.5 92.5t-11 127z" />
    <glyph glyph-name="scaron" unicode="&#x161;" horiz-adv-x="995" 
d="M520 1186l-127 260h170l74 -166h4l141 166h187l-232 -260h-217zM10 231l19 103h174l-13 -68q-7 -32 7 -56.5t38 -38t58.5 -21.5t63 -10.5t57.5 -2.5q101 0 168 41.5t67 110.5q0 40 -27.5 70.5t-71 51t-96.5 40t-106.5 44t-97 55t-71 80t-27.5 113.5q0 101 65 175
t163 108.5t212 34.5q91 0 167 -22.5t122.5 -74.5t31.5 -124l-22 -113h-174l14 74q6 29 -8.5 50t-43 31t-57 14.5t-59.5 4.5q-89 0 -152 -38t-63 -105q0 -40 27.5 -70.5t71.5 -50.5t97 -39t106 -42t97 -52.5t71.5 -77.5t27.5 -111q0 -151 -127.5 -245.5t-333.5 -94.5
q-55 0 -110 8.5t-108.5 28.5t-91.5 48.5t-57 72.5t-8 98z" />
    <glyph glyph-name="Tcommaaccent" unicode="&#x162;" horiz-adv-x="1363" 
d="M276 0l31 160h180l220 1118h-340l-43 -225h-181l78 393h1241l-78 -393h-178l43 225h-338l-219 -1118h182l-30 -160h-234l-49 -115q60 -6 98.5 -43t38.5 -96q0 -49 -24 -87t-63 -59.5t-83 -32.5t-90 -11q-29 0 -57.5 3.5t-42.5 6.5l-14 4l22 108q37 -12 88 -12
q44 0 81.5 17.5t37.5 58.5q0 28 -30 43.5t-79 15.5h-34l90 199h-224z" />
    <glyph glyph-name="tcommaaccent" unicode="&#x163;" horiz-adv-x="735" 
d="M180 -199l109 236q-131 72 -131 258q0 39 10 104l96 484h-174l31 153h178l55 285h193l-55 -285h249l-30 -153h-250l-92 -484q-9 -43 -9 -80q0 -163 170 -163l60 4l-33 -164q-32 -4 -65 -4q-65 0 -109 10l-51 -117q60 -6 98.5 -43t38.5 -96q0 -49 -24 -87t-63 -59.5
t-83 -32.5t-90 -11q-29 0 -58 3.5t-43 6.5l-14 4l23 108q37 -12 88 -12q44 0 81.5 17.5t37.5 58.5q0 28 -30 43.5t-79 15.5h-35z" />
    <glyph glyph-name="Tcaron" unicode="&#x164;" horiz-adv-x="1363" 
d="M758 1546l-127 260h170l73 -166h5l141 166h186l-231 -260h-217zM276 0l31 160h180l220 1118h-340l-43 -225h-181l78 393h1241l-78 -393h-178l43 225h-338l-219 -1118h182l-30 -160h-568z" />
    <glyph glyph-name="tcaron" unicode="&#x165;" horiz-adv-x="731" 
d="M754 1475h174q4 -20 4 -41q0 -97 -58 -177t-153 -124l-72 73q111 85 111 203q0 31 -6 66zM154 295q0 45 12 104l94 484h-174l31 153h178l55 285h193l-56 -285h250l-30 -153h-250l-92 -484q-9 -43 -9 -80q0 -163 172 -163l58 4l-33 -164q-33 -4 -66 -4q-52 0 -96.5 7.5
t-89.5 28.5t-76.5 54t-51 87.5t-19.5 125.5z" />
    <glyph glyph-name="Tbar" unicode="&#x166;" horiz-adv-x="1363" 
d="M276 0l31 160h180l95 481h-369l29 143h368l97 494h-340l-43 -225h-181l78 393h1241l-78 -393h-178l45 225h-340l-96 -494h371l-29 -143h-371l-94 -481h182l-30 -160h-568z" />
    <glyph glyph-name="tbar" unicode="&#x167;" horiz-adv-x="731" 
d="M156 295q0 39 10 104l27 142h-164l28 143h164l41 207h-172l29 145h178l55 285h193l-56 -285h248l-28 -145h-248l-41 -207h237l-28 -143h-236l-26 -142q-9 -43 -9 -80q0 -163 170 -163l58 4l-33 -164q-31 -4 -64 -4q-52 0 -96.5 7.5t-89.5 28.5t-76.5 54t-51 87.5
t-19.5 125.5z" />
    <glyph glyph-name="Utilde" unicode="&#x168;" horiz-adv-x="1640" 
d="M217 399q0 43 21 172l139 717h-180l30 158h568l-31 -158h-182l-140 -719q-18 -106 -18 -147q0 -124 81 -194t226 -70q170 0 285 92q117 97 147 268l152 770h-182l30 158h570l-31 -158h-182l-154 -786q-28 -137 -94 -245t-164 -175q-159 -107 -383 -107
q-225 0 -366.5 113.5t-141.5 310.5zM666 1548q25 125 87 192.5t152 67.5q39 0 69.5 -14t49 -34t34 -40.5t34.5 -34.5t41 -14q69 0 98 131h149q-22 -124 -84.5 -192t-152.5 -68q-39 0 -69 14t-49 34t-35 40.5t-34.5 34.5t-40.5 14q-74 0 -100 -131h-149z" />
    <glyph glyph-name="utilde" unicode="&#x169;" horiz-adv-x="1363" 
d="M152 248q0 65 14 131l96 504h-172l31 153h371l-119 -616q-17 -73 -17 -119q0 -71 36 -108t120 -37q99 0 189 61.5t147 154t76 193.5l61 318h-172l31 153h370l-143 -733q-6 -35 -6 -63q0 -51 24.5 -70.5t67.5 -19.5l49 4l-30 -154q-46 -4 -95 -4q-108 0 -162.5 56.5
t-44.5 170.5h-4q-28 -44 -66 -84t-91 -79t-123.5 -62t-147.5 -23q-128 0 -209 67.5t-81 205.5zM416 1188q25 125 87 192.5t152 67.5q39 0 69.5 -14t49 -34t34 -40.5t34.5 -34.5t41 -14q69 0 98 131h149q-22 -124 -84.5 -192t-152.5 -68q-39 0 -69 14t-48.5 34t-34.5 40.5
t-34.5 34.5t-40.5 14q-40 0 -65 -38.5t-36 -92.5h-149z" />
    <glyph glyph-name="Umacron" unicode="&#x16a;" horiz-adv-x="1640" 
d="M217 399q0 43 21 172l139 717h-180l30 158h568l-31 -158h-182l-140 -719q-18 -106 -18 -147q0 -124 81 -194t226 -70q170 0 285 92q117 97 147 268l152 770h-182l30 158h570l-31 -158h-182l-154 -786q-28 -137 -94 -245t-164 -175q-159 -107 -383 -107
q-225 0 -366.5 113.5t-141.5 310.5zM752 1606l26 145h520l-26 -145h-520z" />
    <glyph glyph-name="umacron" unicode="&#x16b;" horiz-adv-x="1363" 
d="M152 248q0 65 14 131l96 504h-172l31 153h371l-119 -616q-17 -73 -17 -119q0 -71 36 -108t120 -37q99 0 189 61.5t147 154t76 193.5l61 318h-172l31 153h370l-143 -733q-6 -35 -6 -63q0 -51 24.5 -70.5t67.5 -19.5l49 4l-30 -154q-46 -4 -95 -4q-108 0 -162.5 56.5
t-44.5 170.5h-4q-28 -44 -66 -84t-91 -79t-123.5 -62t-147.5 -23q-128 0 -209 67.5t-81 205.5zM500 1245l26 146h521l-27 -146h-520z" />
    <glyph glyph-name="Ubreve" unicode="&#x16c;" horiz-adv-x="1640" 
d="M217 399q0 43 21 172l139 717h-180l30 158h568l-31 -158h-182l-140 -719q-18 -106 -18 -147q0 -124 81 -194t226 -70q170 0 285 92q117 97 147 268l152 770h-182l30 158h570l-31 -158h-182l-154 -786q-28 -137 -94 -245t-164 -175q-159 -107 -383 -107
q-225 0 -366.5 113.5t-141.5 310.5zM1014 1538q-118 0 -191 67t-51 173l6 28h150l-4 -26q-11 -61 17.5 -92t78.5 -31q51 0 93.5 31.5t53.5 93.5l4 24h152l-6 -28q-22 -120 -106 -180t-197 -60z" />
    <glyph glyph-name="ubreve" unicode="&#x16d;" horiz-adv-x="1363" 
d="M152 248q0 65 14 131l96 504h-172l31 153h371l-119 -616q-17 -73 -17 -119q0 -71 36 -108t120 -37q99 0 189 61.5t147 154t76 193.5l61 318h-172l31 153h370l-143 -733q-6 -35 -6 -63q0 -51 24.5 -70.5t67.5 -19.5l49 4l-30 -154q-46 -4 -95 -4q-108 0 -162.5 56.5
t-44.5 170.5h-4q-28 -44 -66 -84t-91 -79t-123.5 -62t-147.5 -23q-128 0 -209 67.5t-81 205.5zM764 1178q-118 0 -191 66.5t-51 172.5l6 29h150l-4 -27q-11 -61 17.5 -92t78.5 -31q51 0 94 31.5t54 93.5l4 25h151l-6 -29q-15 -81 -61 -136t-107.5 -79t-134.5 -24z" />
    <glyph glyph-name="Uring" unicode="&#x16e;" horiz-adv-x="1640" 
d="M1004 1513q-70 0 -118 38t-48 102q0 80 64 132t142 52q72 0 120 -39t48 -104q0 -78 -64 -129.5t-144 -51.5zM1010 1599q38 0 64 27t26 68q0 26 -16 41.5t-44 15.5q-35 0 -62.5 -27.5t-27.5 -68.5q0 -25 16.5 -40.5t43.5 -15.5zM217 399q0 43 21 172l139 717h-180l30 158
h568l-31 -158h-182l-140 -719q-18 -106 -18 -147q0 -124 81 -194t226 -70q170 0 285 92q117 97 147 268l152 770h-182l30 158h570l-31 -158h-182l-154 -786q-28 -137 -94 -245t-164 -175q-159 -107 -383 -107q-225 0 -366.5 113.5t-141.5 310.5z" />
    <glyph glyph-name="uring" unicode="&#x16f;" horiz-adv-x="1363" 
d="M754 1153q-70 0 -118 37.5t-48 101.5q0 80 65 132.5t142 52.5q71 0 119.5 -39t48.5 -105q0 -78 -64.5 -129t-144.5 -51zM760 1239q39 0 64.5 26.5t25.5 67.5q0 27 -16 42.5t-43 15.5q-35 0 -63 -28t-28 -69q0 -25 16 -40t44 -15zM152 248q0 65 14 131l96 504h-172l31 153
h371l-119 -616q-17 -73 -17 -119q0 -71 36 -108t120 -37q99 0 189 61.5t147 154t76 193.5l61 318h-172l31 153h370l-143 -733q-6 -35 -6 -63q0 -51 24.5 -70.5t67.5 -19.5l49 4l-30 -154q-46 -4 -95 -4q-108 0 -162.5 56.5t-44.5 170.5h-4q-28 -44 -66 -84t-91 -79
t-123.5 -62t-147.5 -23q-128 0 -209 67.5t-81 205.5z" />
    <glyph glyph-name="Uhungarumlaut" unicode="&#x170;" horiz-adv-x="1640" 
d="M217 399q0 43 21 172l139 717h-180l30 158h568l-31 -158h-182l-140 -719q-18 -106 -18 -147q0 -124 81 -194t226 -70q170 0 285 92q117 97 147 268l152 770h-182l30 158h570l-31 -158h-182l-154 -786q-28 -137 -94 -245t-164 -175q-159 -107 -383 -107
q-225 0 -366.5 113.5t-141.5 310.5zM1038 1546l203 260h221l-248 -260h-176zM719 1546l190 260h195l-197 -260h-188z" />
    <glyph glyph-name="uhungarumlaut" unicode="&#x171;" horiz-adv-x="1363" 
d="M152 248q0 65 14 131l96 504h-172l31 153h371l-119 -616q-17 -73 -17 -119q0 -71 36 -108t120 -37q99 0 189 61.5t147 154t76 193.5l61 318h-172l31 153h370l-143 -733q-6 -35 -6 -63q0 -51 24.5 -70.5t67.5 -19.5l49 4l-30 -154q-46 -4 -95 -4q-108 0 -162.5 56.5
t-44.5 170.5h-4q-28 -44 -66 -84t-91 -79t-123.5 -62t-147.5 -23q-128 0 -209 67.5t-81 205.5zM788 1186l203 260h221l-247 -260h-177zM469 1186l190 260h195l-197 -260h-188z" />
    <glyph glyph-name="Uogonek" unicode="&#x172;" horiz-adv-x="1640" 
d="M217 408q0 54 12 116l148 764h-180l30 158h568l-31 -158h-182l-150 -774q-8 -39 -8 -86q0 -130 80 -200t225 -70q169 0 285 95t149 265l152 770h-182l30 158h570l-31 -158h-182l-156 -796q-34 -177 -143 -301t-273 -187q-58 -23 -128 -93t-70 -140q0 -30 22 -49.5
t44.5 -25.5t45.5 -7l-63 -140q-32 4 -65 14t-69 29.5t-58.5 54t-22.5 79.5q0 131 153 251q-101 -2 -191 21t-165 72.5t-119.5 136.5t-44.5 201z" />
    <glyph glyph-name="uogonek" unicode="&#x173;" horiz-adv-x="1363" 
d="M791 -274q0 149 192 280q-128 37 -109 217h-4q-28 -44 -66 -84t-91 -79t-123.5 -62t-147.5 -23q-128 0 -209 67.5t-81 205.5q0 65 14 131l96 504h-172l31 153h371l-119 -616q-17 -73 -17 -119q0 -71 36 -108t120 -37q99 0 189 61.5t147 154t76 193.5l61 318h-172l31 153
h370l-143 -733q-6 -35 -6 -63q0 -51 24.5 -70.5t67.5 -19.5l49 4l-30 -154q-11 0 -23 -2q-47 -11 -123 -88t-76 -139q0 -23 12.5 -40t32 -25.5t36 -12t32.5 -4.5l-63 -140q-32 4 -64.5 14t-68 29.5t-58 54t-22.5 79.5z" />
    <glyph glyph-name="Wcircumflex" unicode="&#x174;" horiz-adv-x="2064" 
d="M915 1546l232 260h215l129 -260h-172l-74 164h-4l-139 -164h-187zM375 0l-72 1288h-139l31 158h507l-30 -158h-172l41 -948l-6 -109h8q16 58 41 109l518 1106h174l86 -1106v-109h6q17 58 37 109l410 948h-173l31 158h522l-30 -158h-140l-575 -1288h-233l-82 1026
q-2 27 -1 52.5t3 43.5l2 19h-9q-15 -64 -40 -115l-482 -1026h-233z" />
    <glyph glyph-name="wcircumflex" unicode="&#x175;" horiz-adv-x="1761" 
d="M692 1186l232 260h215l129 -260h-172l-74 164h-4l-139 -164h-187zM301 0l-96 883h-129l30 153h457l-28 -153h-142l60 -602q2 -23 1.5 -44.5t-2.5 -36.5l-1 -16h6q14 54 32 97l377 753h183l77 -753q2 -23 1.5 -44.5t-1.5 -36.5l-2 -16h6q15 54 35 97l295 602h-139l29 153
h471l-31 -153h-129l-438 -883h-224l-81 692q-2 21 -2 45.5t1 38.5l1 15h-7q-14 -52 -37 -99l-352 -692h-221z" />
    <glyph glyph-name="Ycircumflex" unicode="&#x176;" horiz-adv-x="1335" 
d="M264 0l31 160h182l88 452l-274 676h-137l30 158h490l-31 -158h-151l178 -454l18 -62h4q18 31 41 62l359 454h-150l31 158h502l-31 -158h-137l-537 -676l-88 -452h180l-31 -160h-567zM555 1546l231 260h215l129 -260h-172l-73 164h-4l-140 -164h-186z" />
    <glyph glyph-name="ycircumflex" unicode="&#x177;" horiz-adv-x="1212" 
d="M-31 -219q6 -5 16.5 -12.5t46 -20t74.5 -12.5q64 0 122 39.5t98 103.5l61 103l-186 901h-131l30 153h465l-28 -153h-138l111 -617q4 -20 4.5 -42.5t-0.5 -35.5l-2 -12h6q16 45 43 90l348 617h-133l31 153h465l-31 -153h-127l-616 -1047q-156 -266 -396 -266
q-65 0 -121.5 17t-80.5 34l-23 17zM424 1186l231 260h215l129 -260h-172l-73 164h-4l-140 -164h-186z" />
    <glyph glyph-name="Ydieresis" unicode="&#x178;" horiz-adv-x="1335" 
d="M264 0l31 160h182l88 452l-274 676h-137l30 158h490l-31 -158h-151l178 -454l18 -62h4q18 31 41 62l359 454h-150l31 158h502l-31 -158h-137l-537 -676l-88 -452h180l-31 -160h-567zM977 1599l43 207h176l-43 -207h-176zM567 1599l41 207h178l-43 -207h-176z" />
    <glyph glyph-name="Zacute" unicode="&#x179;" horiz-adv-x="1300" 
d="M690 1546l262 260h238l-303 -260h-197zM-2 0l27 135l940 1075q16 18 34.5 35.5t28.5 26.5l10 8v4q-41 -6 -82 -6h-524l-43 -225h-180l78 393h1042l-26 -133l-945 -1077q-16 -18 -34.5 -35.5t-28.5 -26.5l-10 -8v-4q41 6 82 6h555l47 233h178l-80 -401h-1069z" />
    <glyph glyph-name="zacute" unicode="&#x17a;" horiz-adv-x="1085" 
d="M514 1186l262 260h238l-303 -260h-197zM-23 0l25 131l678 672q18 19 39.5 39t34.5 30l12 11v4q-41 -4 -98 -4h-324l-31 -166h-174l64 319h846l-27 -131l-676 -672q-20 -20 -41.5 -39.5t-34 -30t-12.5 -9.5v-4q43 4 100 4h367l33 165h172l-62 -319h-891z" />
    <glyph glyph-name="Zdotaccent" unicode="&#x17b;" horiz-adv-x="1300" 
d="M-2 0l27 135l940 1075q16 18 34.5 35.5t28.5 26.5l10 8v4q-41 -6 -82 -6h-524l-43 -225h-180l78 393h1042l-26 -133l-945 -1077q-16 -18 -34.5 -35.5t-28.5 -26.5l-10 -8v-4q41 6 82 6h555l47 233h178l-80 -401h-1069zM737 1606l39 200h189l-41 -200h-187z" />
    <glyph glyph-name="zdotaccent" unicode="&#x17c;" horiz-adv-x="1085" 
d="M-23 0l25 131l678 672q18 19 39.5 39t34.5 30l12 11v4q-41 -4 -98 -4h-324l-31 -166h-174l64 319h846l-27 -131l-676 -672q-20 -20 -41.5 -39.5t-34 -30t-12.5 -9.5v-4q43 4 100 4h367l33 165h172l-62 -319h-891zM561 1245l39 201h188l-40 -201h-187z" />
    <glyph glyph-name="Zcaron" unicode="&#x17d;" horiz-adv-x="1300" 
d="M717 1546l-127 260h170l74 -166h4l141 166h186l-231 -260h-217zM-2 0l27 135l940 1075q16 18 34.5 35.5t28.5 26.5l10 8v4q-41 -6 -82 -6h-524l-43 -225h-180l78 393h1042l-26 -133l-945 -1077q-16 -18 -34.5 -35.5t-28.5 -26.5l-10 -8v-4q41 6 82 6h555l47 233h178
l-80 -401h-1069z" />
    <glyph glyph-name="zcaron" unicode="&#x17e;" horiz-adv-x="1085" 
d="M541 1186l-127 260h170l73 -166h5l141 166h186l-231 -260h-217zM-23 0l25 131l678 672q18 19 39.5 39t34.5 30l12 11v4q-41 -4 -98 -4h-324l-31 -166h-174l64 319h846l-27 -131l-676 -672q-20 -20 -41.5 -39.5t-34 -30t-12.5 -9.5v-4q43 4 100 4h367l33 165h172l-62 -319
h-891z" />
    <glyph glyph-name="longs" unicode="&#x17f;" horiz-adv-x="610" 
d="M117 0l172 885h-174l30 151h172l11 45q19 97 62 169.5t90.5 111.5t107 62t103 29.5t87.5 6.5q24 0 46.5 -1.5t33.5 -2.5l10 -2l-34 -162q-23 4 -60 4q-206 0 -248 -211l-211 -1085h-198z" />
    <glyph glyph-name="florin" unicode="&#x192;" horiz-adv-x="1056" 
d="M-150 -45q67 -10 130 -10q26 0 52 4t61 18.5t64 37.5t57 66.5t44 100.5l154 545h-168l30 160h183l65 227q26 94 72 163.5t95 107.5t108.5 60.5t103.5 28.5t90 6q39 0 88 -4t78 -8l29 -4l-35 -170q-99 14 -160 14q-36 0 -69.5 -8t-75 -29.5t-76.5 -70t-55 -119.5l-58 -194
h240l-31 -160h-254l-163 -582q-22 -78 -57.5 -139.5t-78 -99.5t-86 -64t-91.5 -38t-83.5 -16.5t-72.5 -4.5t-78 3.5t-64 7.5l-22 3z" />
    <glyph glyph-name="Scommaaccent" unicode="&#x218;" horiz-adv-x="1204" 
d="M369 -119h174q4 -20 4 -41q0 -97 -58 -177t-153 -124l-72 74q111 85 111 203q0 30 -6 65zM59 297l29 143h188l-22 -112q-9 -45 11.5 -79.5t62.5 -53.5t91.5 -28t104.5 -9q143 0 234.5 73.5t91.5 190.5q0 54 -27 96t-71.5 68t-101.5 51.5t-116.5 46t-116.5 52.5
t-101.5 69.5t-71.5 98.5t-27 138q0 82 29.5 152t81 120t121.5 85.5t151 53t168 17.5q54 0 110.5 -8t113.5 -27.5t99 -47.5t63.5 -72.5t10.5 -97.5l-32 -156h-189l19 100q7 35 -11.5 61.5t-54 40.5t-75 20.5t-81.5 6.5q-134 0 -223.5 -64.5t-89.5 -170.5q0 -46 21.5 -82.5
t58.5 -61t84.5 -46t100 -41t104.5 -41.5t99.5 -53t84.5 -69.5t58.5 -96.5t21.5 -130q0 -139 -78 -245t-205 -160t-280 -54q-60 0 -122 9.5t-125.5 33.5t-110 59.5t-70.5 92.5t-11 127z" />
    <glyph glyph-name="scommaaccent" unicode="&#x219;" horiz-adv-x="995" 
d="M268 -119h174q4 -20 4 -41q0 -97 -57.5 -177t-152.5 -124l-72 74q110 84 110 203q0 30 -6 65zM10 231l19 103h174l-13 -68q-7 -32 7 -56.5t38 -38t58.5 -21.5t63 -10.5t57.5 -2.5q101 0 168 41.5t67 110.5q0 40 -27.5 70.5t-71 51t-96.5 40t-106.5 44t-97 55t-71 80
t-27.5 113.5q0 101 65 175t163 108.5t212 34.5q91 0 167 -22.5t122.5 -74.5t31.5 -124l-22 -113h-174l14 74q6 29 -8.5 50t-43 31t-57 14.5t-59.5 4.5q-89 0 -152 -38t-63 -105q0 -40 27.5 -70.5t71.5 -50.5t97 -39t106 -42t97 -52.5t71.5 -77.5t27.5 -111
q0 -151 -127.5 -245.5t-333.5 -94.5q-55 0 -110 8.5t-108.5 28.5t-91.5 48.5t-57 72.5t-8 98z" />
    <glyph glyph-name="uni021A" unicode="&#x21a;" horiz-adv-x="1363" 
d="M446 -119h175q4 -20 4 -41q0 -97 -58 -177t-153 -124l-72 74q111 85 111 203q0 25 -7 65zM276 0l31 160h180l220 1118h-340l-43 -225h-181l78 393h1241l-78 -393h-178l43 225h-338l-219 -1118h182l-30 -160h-568z" />
    <glyph glyph-name="uni021B" unicode="&#x21b;" horiz-adv-x="731" 
d="M215 -119h174q4 -20 4 -41q0 -97 -58 -177t-153 -124l-71 74q110 84 110 203q0 30 -6 65zM154 295q0 45 12 104l94 484h-174l31 153h178l55 285h193l-56 -285h250l-30 -153h-250l-92 -484q-9 -43 -9 -80q0 -163 172 -163l58 4l-33 -164q-33 -4 -66 -4q-52 0 -96.5 7.5
t-89.5 28.5t-76.5 54t-51 87.5t-19.5 125.5z" />
    <glyph glyph-name="circumflex" unicode="&#x2c6;" horiz-adv-x="1021" 
d="M76 1546l231 260h215l129 -260h-172l-73 164h-5l-139 -164h-186z" />
    <glyph glyph-name="caron" unicode="&#x2c7;" horiz-adv-x="1021" 
d="M270 1546l-127 260h170l74 -166h4l141 166h187l-232 -260h-217z" />
    <glyph glyph-name="breve" unicode="&#x2d8;" horiz-adv-x="1021" 
d="M381 1538q-118 0 -191 67t-51 173l6 28h150l-4 -26q-11 -61 17.5 -92t78.5 -31q51 0 94 31.5t54 93.5l4 24h151l-6 -28q-22 -120 -106 -180t-197 -60z" />
    <glyph glyph-name="dotaccent" unicode="&#x2d9;" horiz-adv-x="1024" 
d="M291 1606l39 200h188l-41 -200h-186z" />
    <glyph glyph-name="ring" unicode="&#x2da;" horiz-adv-x="1024" 
d="M375 1513q-70 0 -118 38t-48 102q0 80 64.5 132t142.5 52q72 0 120 -39t48 -104q0 -78 -64.5 -129.5t-144.5 -51.5zM381 1599q38 0 64 27t26 68q0 26 -15.5 41.5t-43.5 15.5q-35 0 -62.5 -27.5t-27.5 -68.5q0 -25 16 -40.5t43 -15.5z" />
    <glyph glyph-name="ogonek" unicode="&#x2db;" horiz-adv-x="1021" 
d="M209 -274q0 171 252 315h131l-6 -41q-23 0 -73 -36t-94 -92t-44 -101q0 -23 12 -40t31 -25.5t35 -12t32 -4.5l-63 -140q-31 4 -63.5 14t-68.5 29.5t-58.5 54t-22.5 79.5z" />
    <glyph glyph-name="tilde" unicode="&#x2dc;" horiz-adv-x="1021" 
d="M35 1548q25 125 87 192.5t152 67.5q39 0 69.5 -14t49 -34t34 -40.5t34.5 -34.5t41 -14q69 0 98 131h150q-22 -124 -85 -192t-153 -68q-39 0 -69 14t-48.5 34t-34.5 40.5t-34.5 34.5t-40.5 14q-40 0 -65 -38.5t-36 -92.5h-149z" />
    <glyph glyph-name="hungarumlaut" unicode="&#x2dd;" horiz-adv-x="1021" 
d="M346 1546l203 260h221l-248 -260h-176zM27 1546l190 260h195l-197 -260h-188z" />
    <glyph glyph-name="uni1E9E" unicode="&#x1e9e;" horiz-adv-x="1482" 
d="M-39 0l31 160h180l168 860q37 189 179 307.5t337 118.5h584l-27 -137l-348 -412l-43 -47v-4q90 -20 162 -62.5t120 -117t48 -168.5q0 -101 -44.5 -194t-123.5 -164t-198 -113.5t-259 -42.5q-93 0 -203 20l33 178q69 -18 162 -18q202 0 312 92.5t110 228.5q0 99 -89.5 158
t-271.5 68l25 120l319 388q12 14 25.5 27t20.5 20l8 6v4q-31 -6 -62 -6h-285q-103 0 -184.5 -71.5t-101.5 -176.5l-199 -1022h-385z" />
    <glyph glyph-name="thinspace" unicode="&#x2009;" horiz-adv-x="544" 
 />
    <glyph glyph-name="endash" unicode="&#x2013;" horiz-adv-x="1464" 
d="M172 504l29 160h1079l-31 -160h-1077z" />
    <glyph glyph-name="emdash" unicode="&#x2014;" horiz-adv-x="1873" 
d="M172 504l29 160h1489l-31 -160h-1487z" />
    <glyph glyph-name="quoteleft" unicode="&#x2018;" horiz-adv-x="485" 
d="M178 1022l232 446h153l-182 -446h-203z" />
    <glyph glyph-name="quoteright" unicode="&#x2019;" horiz-adv-x="475" 
d="M186 1022l183 446h200l-229 -446h-154z" />
    <glyph glyph-name="quotesinglbase" unicode="&#x201a;" horiz-adv-x="528" 
d="M-76 -231l182 446h203l-231 -446h-154z" />
    <glyph glyph-name="quotedblleft" unicode="&#x201c;" horiz-adv-x="786" 
d="M479 1022l232 446h153l-182 -446h-203zM178 1022l232 446h153l-182 -446h-203z" />
    <glyph glyph-name="quotedblright" unicode="&#x201d;" horiz-adv-x="776" 
d="M487 1022l183 446h200l-229 -446h-154zM186 1022l183 446h200l-229 -446h-154z" />
    <glyph glyph-name="quotedblbase" unicode="&#x201e;" horiz-adv-x="829" 
d="M408 215h202l-231 -446h-154zM106 215h203l-231 -446h-154z" />
    <glyph glyph-name="dagger" unicode="&#x2020;" horiz-adv-x="870" 
d="M197 -102l190 981h-246l31 157h246l80 410h190l-78 -410h254l-30 -157h-254l-191 -981h-192z" />
    <glyph glyph-name="daggerdbl" unicode="&#x2021;" horiz-adv-x="892" 
d="M209 -102l86 452h-246l29 160h248l73 369h-247l30 157h248l78 410h192l-79 -410h253l-30 -157h-254l-72 -369h254l-31 -160h-254l-88 -452h-190z" />
    <glyph glyph-name="bullet" unicode="&#x2022;" horiz-adv-x="858" 
d="M424 279q-132 0 -225 92.5t-93 224.5t93 224.5t225 92.5t224.5 -92.5t92.5 -224.5t-92.5 -224.5t-224.5 -92.5z" />
    <glyph glyph-name="ellipsis" unicode="&#x2026;" horiz-adv-x="1585" 
d="M1106 0l41 215h209l-43 -215h-207zM573 0l43 215h207l-41 -215h-209zM43 0l41 215h209l-43 -215h-207z" />
    <glyph glyph-name="perthousand" unicode="&#x2030;" horiz-adv-x="2293" 
d="M489 864q-125 0 -199.5 74t-74.5 195q0 130 108.5 233.5t249.5 103.5q124 0 199.5 -75.5t75.5 -194.5q0 -86 -52 -164t-135 -125t-172 -47zM39 0l1366 1446h205l-1366 -1446h-205zM506 1016q70 0 125 54t55 126q0 55 -35.5 90t-93.5 35q-70 0 -126 -55.5t-56 -128.5
q0 -53 36 -87t95 -34zM1528 244q0 130 108.5 234t249.5 104q124 0 199.5 -76t75.5 -195q0 -86 -52 -164t-135 -125t-172 -47q-124 0 -199 74t-75 195zM799 244q0 130 109 234t249 104q123 0 199 -76t76 -195q0 -86 -52 -164.5t-134.5 -125t-170.5 -46.5q-125 0 -200.5 74
t-75.5 195zM1690 248q0 -53 35.5 -87t93.5 -34q71 0 125.5 53.5t54.5 126.5q0 55 -35.5 90t-93.5 35q-68 0 -124 -56.5t-56 -127.5zM961 248q0 -53 35.5 -87t93.5 -34q71 0 125.5 53.5t54.5 126.5q0 55 -34.5 90t-92.5 35q-69 0 -125.5 -56t-56.5 -128z" />
    <glyph glyph-name="guilsinglleft" unicode="&#x2039;" horiz-adv-x="724" 
d="M344 158l-262 424l391 417h209l-410 -430l260 -411h-188z" />
    <glyph glyph-name="guilsinglright" unicode="&#x203a;" horiz-adv-x="731" 
d="M35 158l409 430l-260 411h189l262 -424l-391 -417h-209z" />
    <glyph glyph-name="fraction" unicode="&#x2044;" horiz-adv-x="305" 
d="M-225 0h-164l969 1446h161z" />
    <glyph glyph-name="zerosuperior" unicode="&#x2070;" horiz-adv-x="827" 
d="M481 846q-146 0 -210 78t-64 221q0 61 9 128t28 140t52 138t76.5 117.5t106.5 83t137 30.5q275 0 275 -301q0 -74 -13 -155.5t-44 -168.5t-76.5 -155t-117.5 -112t-159 -44zM483 987q63 0 113.5 48.5t79 124t43 156t14.5 154.5q0 168 -121 168q-64 0 -114.5 -49
t-78.5 -125t-42.5 -156.5t-14.5 -156.5q0 -164 121 -164z" />
    <glyph glyph-name="foursuperior" unicode="&#x2074;" horiz-adv-x="806" 
d="M520 866l43 224h-424l19 98l520 573h168l-107 -551h125l-22 -120h-127l-43 -224h-152zM322 1210h266l57 299q4 18 10.5 41.5t11.5 37.5l5 14h-6q-27 -45 -60 -80l-284 -308v-4z" />
    <glyph glyph-name="fivesuperior" unicode="&#x2075;" horiz-adv-x="765" 
d="M426 846q-52 0 -101 13.5t-82.5 32t-60 37.5t-38.5 33l-13 13l94 100q3 -4 9.5 -10t27.5 -22t43 -28t55 -22t66 -10q89 0 151 55.5t62 137.5q0 66 -44 106.5t-118 40.5q-39 0 -78 -10.5t-58 -21.5l-19 -11l-80 31l135 450h487l-45 -231h-127l21 108h-234l-51 -180
q-3 -10 -7 -20t-7 -14l-2 -5l4 -2q44 21 112 21q121 0 195 -72.5t74 -183.5q0 -133 -107.5 -234.5t-263.5 -101.5z" />
    <glyph glyph-name="sixsuperior" unicode="&#x2076;" horiz-adv-x="794" 
d="M489 846q-133 0 -211.5 87t-78.5 238q0 70 21.5 152t65 163t102 147t140.5 107.5t172 41.5q54 0 102.5 -12t70.5 -24l22 -11l-66 -125q-55 28 -135 28q-93 0 -169.5 -72.5t-116.5 -183.5h4q33 28 80.5 46t93.5 18q110 0 179 -68.5t69 -177.5q0 -151 -103 -252.5
t-242 -101.5zM496 987q80 0 131 62.5t51 144.5q0 59 -35.5 95t-99.5 36q-73 0 -130 -47.5t-57 -112.5q0 -72 38 -125t102 -53z" />
    <glyph glyph-name="sevensuperior" unicode="&#x2077;" horiz-adv-x="731" 
d="M164 866l512 727q8 11 18 22.5t16 16.5l7 6v4q-28 -4 -55 -4h-269l-20 -108h-127l43 231h624l-18 -104l-561 -791h-170z" />
    <glyph glyph-name="eightsuperior" unicode="&#x2078;" horiz-adv-x="811" 
d="M471 846q-122 0 -209.5 63.5t-87.5 173.5q0 150 195 283q-72 59 -72 145q0 65 29.5 118t77 85.5t105 50t116.5 17.5q116 0 190 -58t74 -153q0 -138 -162 -271q98 -67 98 -167q0 -81 -51.5 -148t-132.5 -103t-170 -36zM621 1358q23 19 45 41.5t46.5 66t24.5 84.5
q0 48 -37.5 73.5t-89.5 25.5q-62 0 -113 -35t-51 -98q0 -20 8 -37.5t17 -29.5t31 -26.5t34 -21t43 -22t42 -21.5zM477 979q71 0 132 43.5t61 107.5q0 25 -10 45.5t-34.5 38.5t-43 28.5t-57.5 29.5t-56 28q-139 -94 -139 -198q0 -56 43.5 -89.5t103.5 -33.5z" />
    <glyph glyph-name="ninesuperior" unicode="&#x2079;" horiz-adv-x="796" 
d="M371 846q-54 0 -103.5 12t-72.5 24l-23 11l70 123q53 -27 133 -27q93 0 170 72.5t117 183.5h-5q-77 -63 -174 -63q-110 0 -178.5 68t-68.5 177q0 152 102.5 253.5t241.5 101.5q133 0 211.5 -87.5t78.5 -238.5q0 -70 -21.5 -152t-65 -163t-102 -147t-140 -107t-170.5 -41z
M526 1303q73 0 130 47t57 112q0 72 -38 125t-102 53q-80 0 -132 -62.5t-52 -145.5q0 -58 36 -93.5t101 -35.5z" />
    <glyph glyph-name="zeroinferior" unicode="&#x2080;" horiz-adv-x="827" 
d="M252 -342q-275 0 -275 299q0 75 12.5 156t43.5 168.5t76 156t117.5 112.5t160.5 44q275 0 275 -301q0 -74 -13 -155.5t-44 -168.5t-76.5 -155t-117.5 -112t-159 -44zM254 -201q63 0 113.5 48.5t79 124.5t43 156.5t14.5 154.5q0 168 -121 168q-64 0 -114.5 -49
t-78.5 -125.5t-42.5 -157t-14.5 -156.5q0 -164 121 -164z" />
    <glyph glyph-name="oneinferior" unicode="&#x2081;" horiz-adv-x="688" 
d="M-102 -322l24 127h211l96 496q3 18 7.5 36.5t7.5 28.5l4 9h-4q-20 -28 -51 -51l-101 -82l-76 102l283 229h137l-149 -768h209l-25 -127h-573z" />
    <glyph glyph-name="twoinferior" unicode="&#x2082;" horiz-adv-x="776" 
d="M-98 -322q2 87 33.5 158.5t80.5 119.5t108 88.5t117.5 73t107 65t78.5 73.5t30 88q0 48 -33.5 78.5t-87.5 30.5q-29 0 -60 -10t-54 -24.5t-42 -29.5t-29 -25l-10 -10l-90 101q5 6 14.5 15t40 33t62.5 42.5t81 33.5t97 15q119 0 194.5 -64.5t75.5 -171.5q0 -65 -26 -119.5
t-69 -93.5t-95.5 -73t-107.5 -64t-102.5 -59t-83.5 -66t-48 -78h326l20 105h129l-45 -232h-612z" />
    <glyph glyph-name="threeinferior" unicode="&#x2083;" horiz-adv-x="770" 
d="M209 -344q-58 0 -110.5 14t-86.5 33.5t-59.5 39.5t-36.5 34l-12 14l100 100q3 -4 8.5 -10t25 -22.5t41 -29t57 -22.5t73.5 -10q76 0 135 54t59 129q0 56 -45.5 87t-109.5 31h-64l-20 74l239 236q11 11 24.5 21.5t21.5 14.5l8 5v6q-29 -6 -62 -6h-200l-21 -109h-129
l45 231h569l-18 -98l-276 -266q34 -7 65.5 -23t61.5 -42t48.5 -67.5t18.5 -92.5q0 -127 -101.5 -226.5t-248.5 -99.5z" />
    <glyph glyph-name="fourinferior" unicode="&#x2084;" horiz-adv-x="806" 
d="M289 -322l43 224h-424l18 98l520 573h168l-106 -550h125l-23 -121h-127l-43 -224h-151zM90 23h266l58 299q4 18 10.5 41t11.5 37l4 14h-6q-26 -45 -59 -80l-285 -307v-4z" />
    <glyph glyph-name="fiveinferior" unicode="&#x2085;" horiz-adv-x="763" 
d="M195 -342q-52 0 -101 13.5t-82.5 32t-60 37.5t-39.5 33l-12 13l94 100q3 -4 9.5 -10t27.5 -22t43 -28t55 -22t66 -10q89 0 151 55.5t62 137.5q0 66 -44 106.5t-118 40.5q-39 0 -78 -10.5t-58 -21.5l-20 -11l-80 31l135 450h488l-45 -231h-127l20 109h-233l-51 -181
q-3 -10 -7 -20t-7 -14l-3 -5l4 -2q45 21 113 21q121 0 194.5 -72.5t73.5 -183.5q0 -133 -107 -234.5t-263 -101.5z" />
    <glyph glyph-name="sixinferior" unicode="&#x2086;" horiz-adv-x="794" 
d="M258 -342q-133 0 -212 87.5t-79 238.5q0 70 21.5 152t65.5 163t102.5 147t140.5 107t172 41q54 0 102.5 -12t70.5 -24l22 -11l-66 -125q-55 29 -135 29q-93 0 -170 -72.5t-117 -183.5h4q33 28 80 45.5t94 17.5q110 0 179 -68.5t69 -177.5q0 -152 -102.5 -253t-241.5 -101
zM264 -201q80 0 131 62.5t51 144.5q0 59 -35.5 95t-99.5 36q-73 0 -129.5 -47.5t-56.5 -112.5q0 -72 37.5 -125t101.5 -53z" />
    <glyph glyph-name="seveninferior" unicode="&#x2087;" horiz-adv-x="733" 
d="M-68 -324l512 727q8 11 18 22.5t16 17.5l7 6v4q-28 -4 -55 -4h-268l-21 -109h-127l43 231h625l-18 -104l-562 -791h-170z" />
    <glyph glyph-name="eightinferior" unicode="&#x2088;" horiz-adv-x="811" 
d="M242 -340q-121 0 -209 64t-88 174q0 149 194 282q-71 58 -71 146q0 85 50.5 148.5t123 92.5t153.5 29q116 0 190 -58t74 -153q0 -138 -161 -270q98 -67 98 -168q0 -81 -51.5 -148t-132.5 -103t-170 -36zM391 172q23 19 45.5 41.5t47 66.5t24.5 85q0 48 -37.5 73t-89.5 25
q-62 0 -113 -35t-51 -98q0 -20 8 -37.5t17 -29t31 -26.5t33.5 -21.5t43 -22.5t41.5 -21zM248 -207q71 0 131.5 44t60.5 108q0 25 -10 45.5t-34 38.5t-42.5 28.5t-57.5 29.5t-56 28q-140 -94 -140 -199q0 -56 44 -89.5t104 -33.5z" />
    <glyph glyph-name="nineinferior" unicode="&#x2089;" horiz-adv-x="796" 
d="M139 -342q-54 0 -103.5 12t-71.5 24l-23 11l69 123q53 -27 133 -27q93 0 170 72.5t117 183.5h-4q-77 -63 -174 -63q-110 0 -179 68.5t-69 177.5q0 152 102.5 253t241.5 101q133 0 212 -87.5t79 -238.5q0 -70 -21.5 -152t-65.5 -163t-102.5 -147t-140 -107t-170.5 -41z
M295 115q73 0 129.5 47t56.5 112q0 72 -37.5 125.5t-101.5 53.5q-80 0 -132 -63t-52 -146q0 -58 36 -93.5t101 -35.5z" />
    <glyph glyph-name="Euro" unicode="&#x20ac;" horiz-adv-x="1236" 
d="M76 512l24 125h113q5 74 29 188h-109l25 127h127q104 231 312.5 374.5t455.5 143.5q59 0 117.5 -8t87.5 -16l28 -8l-80 -168q-75 20 -157 20q-169 0 -313.5 -91.5t-227.5 -246.5h577l-51 -127h-581q-25 -104 -31 -188h543l-52 -125h-479q16 -158 120 -256t284 -98
q45 0 92.5 7t72.5 14l25 7l6 -180q-90 -31 -213 -31q-253 0 -419 147.5t-185 389.5h-141z" />
    <glyph glyph-name="trademark" unicode="&#x2122;" horiz-adv-x="2119" 
d="M1055 545l71 901h144l213 -471q7 -16 13.5 -37.5t9.5 -35.5l3 -13h4q13 49 29 86l213 471h143l70 -901h-156l-40 538l2 62h-5l-194 -434h-125l-195 434h-4l2 -62l-43 -538h-155zM524 545v764h-313v137h780v-137h-313v-764h-154z" />
    <glyph glyph-name="minus" unicode="&#x2212;" horiz-adv-x="1255" 
d="M90 504v160h1059v-160h-1059z" />
    <glyph glyph-name="infinity" unicode="&#x221e;" horiz-adv-x="1021" 
d="M532 342q-154 0 -263 109.5t-109 263.5q0 155 109 262.5t263 107.5q155 0 263 -107.5t108 -262.5q0 -154 -108 -263.5t-263 -109.5z" />
    <glyph glyph-name="approxequal" unicode="&#x2248;" horiz-adv-x="1255" 
d="M193 657l-84 121q60 63 141 106.5t168 43.5q65 0 124 -22.5t96.5 -49.5t87 -49.5t97.5 -22.5q59 0 120 32.5t106 80.5l84 -121q-60 -62 -141.5 -104.5t-168.5 -42.5q-65 0 -124 22.5t-96.5 49t-87 49t-97.5 22.5q-60 0 -119 -33t-106 -82zM193 272l-84 119
q60 63 141 106.5t168 43.5q65 0 124 -22.5t96.5 -49.5t87 -49.5t97.5 -22.5q59 0 120 32.5t106 80.5l84 -121q-60 -62 -141.5 -104.5t-168.5 -42.5q-65 0 -124 22.5t-96.5 49t-87 49t-97.5 22.5q-60 0 -119.5 -32.5t-105.5 -80.5z" />
    <glyph glyph-name="notequal" unicode="&#x2260;" horiz-adv-x="1255" 
d="M244 150l112 159h-225v160h334l162 227h-496v160h604l166 236l105 -72l-117 -164h219v-160h-326l-164 -227h490v-160h-596l-162 -229z" />
    <glyph glyph-name="lessequal" unicode="&#x2264;" horiz-adv-x="1255" 
d="M98 516v135l957 426v-182l-733 -309v-4l733 -310v-182zM102 -195h953v-159h-953v159z" />
    <glyph glyph-name="greaterequal" unicode="&#x2265;" horiz-adv-x="1255" 
d="M199 90v182l731 310v4l-731 309v182l954 -426v-135zM199 -195h952v-159h-952v159z" />
    <glyph glyph-name="commaaccent" horiz-adv-x="686" 
d="M125 -119h174q4 -20 4 -41q0 -97 -58 -177t-153 -124l-72 74q111 85 111 203q0 30 -6 65z" />
    <glyph glyph-name="apple" horiz-adv-x="2314" 
d="M223 -10v311l-258 148v569l258 145v310l543 290l274 -145l271 145l542 -290v-310l254 -145v-569l-254 -148v-311l-542 -289l-271 145l-274 -145zM305 61l488 -258l247 136l242 -136l487 258v285l234 131v510l-234 135v279l-487 258l-242 -131l-247 131l-488 -258v-279
l-233 -135v-510l233 -131v-285zM375 131v248l-203 123v461l203 118v252l440 234l225 -121l220 121l438 -234v-252l205 -118v-461l-205 -123v-248l-438 -233l-220 118l-225 -118zM776 186h162v418h422v141h-422v338h309q29 0 39 -12t10 -41v-67h150v151q0 58 -24.5 83.5
t-86.5 25.5h-678v-140h119v-897z" />
    <glyph glyph-name="zero.tnum" 
d="M68 453q0 83 10 173.5t33.5 190.5t58.5 192.5t88.5 177t119 147t155 99.5t192.5 37q426 0 426 -477q0 -83 -10 -173.5t-33.5 -190.5t-58.5 -192.5t-88.5 -177.5t-119 -147.5t-155 -99.5t-192.5 -37q-426 0 -426 478zM274 457q0 -299 224 -299q93 0 170.5 58.5t127 148.5
t83.5 203.5t48.5 218.5t14.5 198q0 303 -223 303q-89 0 -165 -56t-126.5 -144.5t-86 -200.5t-51.5 -221t-16 -209z" />
    <glyph glyph-name="one.tnum" 
d="M88 0l31 168h319l183 926l22 96h-4q-29 -35 -74 -72l-174 -145l-102 135l416 338h182l-250 -1278h315l-34 -168h-830z" />
    <glyph glyph-name="two.tnum" 
d="M-6 0q2 101 34 190t84.5 156t120.5 127t142.5 109t149 95t142 92t119.5 93.5t82.5 105.5t30.5 122q0 92 -59 146t-160 54q-55 0 -109.5 -19.5t-94 -47.5t-71 -56t-47.5 -47l-16 -20l-135 108q8 11 22.5 28.5t64 62.5t103 79.5t135.5 63t166 28.5q187 0 301.5 -98.5
t114.5 -261.5q0 -99 -44.5 -187t-117 -155t-161 -127.5t-179.5 -115.5t-169 -108.5t-134.5 -117.5t-70.5 -131h573l39 192h178l-72 -360h-962z" />
    <glyph glyph-name="three.tnum" 
d="M6 168l119 139q5 -6 15 -16t42.5 -36t68 -45.5t90 -35.5t110.5 -16q147 0 254.5 94t107.5 229q0 105 -76 162t-198 57l-90 -4l-27 107l430 428q12 12 27 24.5t25 18.5l9 6v4q-44 -6 -73 -6h-389l-37 -184h-178l69 352h883l-29 -141l-471 -463q45 -6 88 -19t89.5 -40
t81 -63.5t57 -94t22.5 -127.5q0 -101 -43 -195.5t-117.5 -167t-183 -116.5t-231.5 -44q-81 0 -156.5 20t-125.5 48.5t-88.5 56.5t-56.5 48z" />
    <glyph glyph-name="four.tnum" 
d="M-16 387l24 127l842 932h240l-177 -895h197l-31 -164h-196l-76 -387h-201l76 387h-698zM246 551h469l110 567q4 22 11.5 49.5t13.5 44.5l6 17h-6q-33 -51 -72 -96l-532 -578v-4z" />
    <glyph glyph-name="five.tnum" 
d="M18 164l119 133q5 -6 13.5 -15t38.5 -33t63 -42.5t85 -33.5t107 -15q99 0 187.5 45t143 125t54.5 176q0 114 -76 180t-202 66q-65 0 -130.5 -17.5t-98.5 -34.5l-33 -18l-115 45l215 721h746l-70 -352h-178l37 184h-392l-98 -320l-28 -81h4q81 41 198 41q190 0 311 -113
t121 -297q0 -144 -82.5 -267.5t-221 -194.5t-298.5 -71q-59 0 -114 10.5t-96 27t-76.5 36.5t-59.5 40.5t-41 37t-25 27.5z" />
    <glyph glyph-name="six.tnum" 
d="M80 502q0 80 17 170t52.5 184t84.5 183t118 167t149.5 137t181.5 93t210 34q79 0 151 -15t104 -31l32 -15l-86 -166q-9 5 -26.5 13t-71 21t-107.5 13q-98 0 -187 -42t-156 -113t-116.5 -156t-79.5 -180h4q57 62 148 99.5t184 37.5q184 0 290.5 -109t106.5 -282
q0 -105 -38.5 -206.5t-106.5 -183t-172 -131t-225 -49.5q-208 0 -334.5 143t-126.5 384zM287 479q0 -82 30.5 -154t92 -119.5t141.5 -47.5q138 0 232 110t94 264q0 106 -64.5 170t-185.5 64q-81 0 -158.5 -35.5t-129.5 -103t-52 -148.5z" />
    <glyph glyph-name="seven.tnum" 
d="M109 0l835 1214q14 19 27.5 35.5t20.5 23.5l7 7v4q-37 -6 -84 -6h-497l-37 -184h-178l69 352h992l-27 -139l-907 -1307h-221z" />
    <glyph glyph-name="eight.tnum" 
d="M37 356q0 252 323 451q-133 98 -133 244q0 78 35 152.5t98 134t160.5 96t212.5 36.5q193 0 304.5 -89t111.5 -240q0 -215 -258 -439q160 -106 160 -266q0 -188 -163 -324.5t-399 -136.5q-202 0 -327 105t-125 276zM750 778q21 17 46 43t63 72t62.5 105.5t24.5 117.5
q0 83 -58.5 130.5t-160.5 47.5q-128 0 -212.5 -70t-84.5 -171q0 -34 14.5 -64.5t33 -51.5t57 -46t63.5 -38t77 -38t75 -37zM248 379q0 -104 71.5 -164.5t182.5 -60.5q130 0 234 77t104 199q0 37 -16 69t-39 54.5t-61.5 47t-71 40t-81.5 39t-79 39.5q-244 -155 -244 -340z
" />
    <glyph glyph-name="nine.tnum" 
d="M43 39l84 164q9 -5 26.5 -12.5t70 -20t104.5 -12.5q98 0 187.5 42t156.5 113t116.5 156t79.5 180h-4q-58 -62 -148.5 -98.5t-185.5 -36.5q-184 0 -290.5 109t-106.5 280q0 104 38.5 205t107 182t172.5 130.5t225 49.5q211 0 337 -141.5t126 -384.5q0 -94 -24.5 -200
t-69.5 -215t-116.5 -208t-159 -176.5t-203 -123.5t-242.5 -46q-77 0 -147.5 16t-102.5 32zM588 684q80 0 158.5 35t132 102t53.5 146q0 128 -72.5 225.5t-189.5 97.5q-140 0 -235 -111t-95 -266q0 -104 64 -166.5t184 -62.5z" />
    <glyph glyph-name="hyphen.case" horiz-adv-x="958" 
d="M178 625l33 176h598l-33 -176h-598z" />
    <glyph glyph-name="parenleft.case" horiz-adv-x="657" 
d="M250 -133q-105 267 -105 549q0 653 422 1151h183q-428 -530 -428 -1155q0 -280 96 -545h-168z" />
    <glyph glyph-name="parenright.case" horiz-adv-x="655" 
d="M-49 -133q426 534 426 1155q0 292 -96 545h168q104 -261 104 -549q0 -651 -422 -1151h-180z" />
    <glyph glyph-name="bracketleft.case" horiz-adv-x="647" 
d="M57 -133l332 1700h338l-29 -150h-166l-270 -1399h166l-31 -151h-340z" />
    <glyph glyph-name="bracketright.case" horiz-adv-x="649" 
d="M-6 18h164l270 1399h-166l31 150h340l-332 -1700h-336z" />
    <glyph glyph-name="braceleft.case" horiz-adv-x="700" 
d="M164 129q0 39 10 104l35 183q6 38 6 61q0 43 -14 75.5t-33.5 48.5t-39.5 26t-34 12l-14 2l35 176q7 1 19 3t44.5 16t60 35.5t55 66.5t38.5 104l37 187q72 366 444 342l-29 -154q-20 0 -45.5 0.5t-56.5 -13.5t-58.5 -35.5t-51.5 -65t-35 -101.5l-43 -223q-11 -57 -38 -104
t-57 -73t-58 -43.5t-47 -23.5l-18 -6v-4q5 -2 13 -6.5t29 -21.5t37 -38.5t29 -59.5t13 -83q0 -27 -6 -61l-43 -222q-8 -36 -8 -71q0 -40 12.5 -69.5t32 -43.5t43 -23t45.5 -8.5t39 0.5l-29 -153q-20 -2 -49 -2q-27 0 -55.5 4.5t-69 21t-71 43.5t-52.5 78.5t-22 118.5z" />
    <glyph glyph-name="braceright.case" horiz-adv-x="700" 
d="M-41 16h46t57 14t58.5 35.5t50.5 64.5t34 101l49 244q11 59 37.5 107t56 74t58 44t46.5 24l19 5v4q-5 2 -13 6t-29 21t-37 38t-29 58.5t-13 81.5q0 26 6 61l39 203q8 54 8 72q0 49 -18.5 81t-49 44.5t-55.5 16t-51 1.5l31 152q27 6 61.5 2.5t70 -10.5t69.5 -28.5
t60.5 -49.5t42.5 -73.5t16 -102.5q0 -45 -13 -105l-30 -164q-7 -40 -7 -59q0 -31 7.5 -57t20 -42.5t27 -29.5t29 -19t27 -10t19.5 -5l8 -1l-35 -176q-7 -1 -19 -3t-44.5 -16t-60 -36t-55 -67t-38.5 -105l-41 -205q-67 -346 -400 -346l-47 4z" />
    <glyph glyph-name="at.case" horiz-adv-x="1581" 
d="M98 600q0 173 74 335t197.5 281t293.5 191t353 72q222 0 335 -98.5t113 -252.5q0 -42 -10 -94l-106 -553h147l-31 -149h-534q-174 0 -276.5 96t-102.5 238q0 84 37 163t102.5 140t163.5 98t211 37h213q2 21 2 37q0 73 -77 123.5t-208 50.5q-138 0 -268 -61t-223 -160.5
t-149 -229.5t-56 -264q0 -208 129 -339.5t350 -131.5l-30 -160q-188 0 -336 78.5t-231 222.5t-83 330zM754 676q0 -86 52.5 -140.5t143.5 -54.5h207l94 486h-202q-118 0 -206.5 -89.5t-88.5 -201.5z" />
    <glyph glyph-name="guillemotleft.case" horiz-adv-x="1155" 
d="M774 281l-262 424l424 417h211l-445 -430l261 -411h-189zM367 281l-263 424l392 417h209l-410 -430l260 -411h-188z" />
    <glyph glyph-name="guillemotright.case" horiz-adv-x="1159" 
d="M487 281l410 430l-262 411h188l264 -424l-391 -417h-209zM43 281l446 430l-262 411h189l264 -424l-424 -417h-213z" />
    <glyph glyph-name="guilsinglleft.case" horiz-adv-x="727" 
d="M367 281l-263 424l392 417h209l-410 -430l260 -411h-188z" />
    <glyph glyph-name="guilsinglright.case" horiz-adv-x="733" 
d="M61 281l410 430l-262 411h188l265 -424l-394 -417h-207z" />
    <glyph glyph-name="endash.case" horiz-adv-x="1449" 
d="M184 627l31 159h1077l-28 -159h-1080z" />
    <glyph glyph-name="emdash.case" horiz-adv-x="1859" 
d="M184 627l31 159h1487l-29 -159h-1489z" />
    <glyph glyph-name="periodcentered.case" horiz-adv-x="561" 
d="M172 600l41 217h207l-41 -217h-207z" />
    <glyph glyph-name="questiondown.case" horiz-adv-x="886" 
d="M543 1245l41 201h207l-41 -201h-207zM12 303q0 74 24 137.5t63.5 110.5t87.5 88.5t98 79t93.5 74.5t75.5 82t42 94l16 80h195l-19 -93q-13 -67 -46 -125t-75 -100.5t-89.5 -81t-92.5 -73.5t-81.5 -71t-58.5 -81t-22 -96q0 -73 54 -120.5t143 -47.5q60 0 122.5 22t95.5 44
l32 22l88 -154q-7 -5 -19 -13t-51 -28.5t-79.5 -36t-99.5 -28.5t-116 -13q-167 0 -274 89t-107 239z" />
    <glyph glyph-name="exclamdown.case" horiz-adv-x="620" 
d="M330 1245l39 201h206l-40 -201h-205zM88 0l219 1049h178l-190 -1049h-207z" />
    <glyph glyph-name="bullet.case" horiz-adv-x="851" 
d="M442 406q-130 0 -222.5 93t-92.5 224q0 132 92 224.5t223 92.5q132 0 225 -92.5t93 -224.5q0 -131 -93 -224t-225 -93z" />
    <glyph glyph-name="zero.p_osf" horiz-adv-x="1232" 
d="M98 420q0 99 25 201t75.5 195.5t120 166.5t166 116.5t205.5 43.5t192.5 -35.5t133 -98t74 -142t24.5 -173.5q0 -99 -24.5 -200.5t-75 -194.5t-120 -165.5t-166 -115.5t-206.5 -43q-111 0 -194.5 35t-132.5 97.5t-73 140.5t-24 172zM301 426q0 -124 56 -201.5t169 -77.5
q87 0 162 51t122.5 131.5t74 174.5t26.5 184q0 80 -22 142t-74 101.5t-129 39.5q-88 0 -163 -52t-122 -133.5t-73.5 -175.5t-26.5 -184z" />
    <glyph glyph-name="one.p_osf" horiz-adv-x="956" 
d="M8 0l33 162h311l121 624l25 121h-4q-38 -30 -91 -59l-202 -109l-68 148l422 231h176l-184 -956h280l-30 -162h-789z" />
    <glyph glyph-name="two.p_osf" horiz-adv-x="1136" 
d="M20 0l27 137q145 85 247 149t205 138t165 135.5t100.5 127t38.5 126.5q0 79 -57.5 119.5t-145.5 40.5q-48 0 -100.5 -16.5t-93 -39.5t-74.5 -46t-52 -39l-18 -17l-86 137q8 8 22.5 21t61.5 45.5t97 58t124 46t146 20.5q178 0 279.5 -83.5t101.5 -223.5q0 -97 -45.5 -186
t-138.5 -173t-203.5 -156.5t-270.5 -160.5v-4q43 6 123 6h465l-33 -162h-885z" />
    <glyph glyph-name="three.p_osf" horiz-adv-x="1069" 
d="M-78 -80l117 129q4 -6 12 -15t36 -33t60.5 -42.5t85 -33.5t109.5 -15q135 0 240.5 86.5t105.5 216.5q0 92 -74.5 146.5t-210.5 54.5l-81 -4l-23 104l403 391q16 16 35 31.5t30 23.5l11 7v4q-45 -6 -104 -6h-326l-33 -172h-170l64 325h833l-24 -129l-457 -434
q44 -6 86.5 -19t88.5 -39t80 -61.5t56.5 -90.5t22.5 -122q0 -130 -73.5 -241.5t-201.5 -177.5t-280 -66q-81 0 -154.5 18.5t-119.5 45.5t-80 54t-49 46z" />
    <glyph glyph-name="four.p_osf" horiz-adv-x="1198" 
d="M-47 74l22 121l813 923h238l-172 -887h209l-33 -157h-207l-59 -312h-195l60 312h-676zM209 231h450l107 541q4 26 13 61t15 57l7 21h-6q-46 -70 -93 -123l-493 -555v-2z" />
    <glyph glyph-name="five.p_osf" horiz-adv-x="1067" 
d="M-72 -76l113 133q5 -5 13.5 -14t37.5 -32t60.5 -40.5t81 -32t100.5 -14.5q66 0 131 21t119.5 59.5t88.5 101.5t34 140q0 105 -77 164t-194 59q-60 0 -123 -15.5t-96 -31.5l-33 -16l-106 40l203 672h718l-63 -325h-174l33 172h-371l-92 -299l-29 -70h4q82 33 193 33
q177 0 293 -98t116 -271q0 -150 -83.5 -268.5t-214 -180t-277.5 -61.5q-75 0 -144.5 18t-115 43.5t-80 51t-50.5 43.5z" />
    <glyph glyph-name="six.p_osf" horiz-adv-x="1214" 
d="M96 467q0 90 23.5 191t67 203.5t113 195.5t154.5 165t198.5 115t238.5 43q77 0 149 -15t105 -31l33 -15l-91 -152q-81 41 -196 41q-97 0 -185.5 -39.5t-154.5 -107t-114.5 -148t-78.5 -170.5h4q59 62 149.5 96.5t186.5 34.5q181 0 289.5 -102.5t108.5 -267.5
q0 -98 -39.5 -192.5t-108.5 -169.5t-172.5 -121t-222.5 -46q-208 0 -332.5 132t-124.5 360zM299 444q0 -116 71 -206.5t191 -90.5q140 0 236 99.5t96 245.5q0 101 -66 160t-188 59q-133 0 -236.5 -78t-103.5 -189z" />
    <glyph glyph-name="seven.p_osf" horiz-adv-x="1073" 
d="M12 -238l795 1133q15 21 29.5 39t21.5 26l8 7v4q-39 -6 -86 -6h-463l-32 -172h-172l63 325h944l-24 -131l-863 -1225h-221z" />
    <glyph glyph-name="eight.p_osf" horiz-adv-x="1202" 
d="M57 340q0 220 300 413q6 4 8 5q-125 92 -125 223q0 74 34 145t94.5 127.5t153.5 91.5t203 35q190 0 301 -82.5t111 -226.5q0 -188 -242 -416q154 -96 154 -243q0 -83 -42.5 -163t-114 -140t-173.5 -97t-213 -37q-201 0 -325 100.5t-124 264.5zM754 733q184 151 184 314
q0 76 -58.5 119.5t-160.5 43.5q-122 0 -202.5 -65t-80.5 -156q0 -24 8 -45.5t19.5 -38.5t33.5 -35t40.5 -30t49.5 -28.5t52.5 -26t58 -26t56.5 -26.5zM260 356q0 -95 71.5 -152t178.5 -57q79 0 155 32t127.5 93t51.5 136q0 31 -15.5 59.5t-36 48.5t-61 44t-69 37t-82.5 37.5
t-80 37.5q-240 -139 -240 -316z" />
    <glyph glyph-name="nine.p_osf" horiz-adv-x="1212" 
d="M96 -51q82 -39 195 -39q97 0 184.5 39.5t153.5 107t114 148t78 170.5h-4q-59 -62 -149.5 -96.5t-186.5 -34.5q-178 0 -285.5 102.5t-107.5 265.5q0 98 39.5 193.5t108 170.5t172 121t221.5 46q207 0 330.5 -132t123.5 -360q0 -90 -23 -191t-66.5 -203.5t-112.5 -195.5
t-154 -165t-198 -115t-238 -43q-76 0 -146.5 15t-102.5 31l-32 15zM539 406q134 0 239 78t105 190q0 74 -29.5 140.5t-91.5 111.5t-144 45q-137 0 -232 -99t-95 -245q0 -102 65 -161.5t183 -59.5z" />
    <glyph glyph-name="zero.t_osf" 
d="M70 420q0 99 25 201t75.5 195.5t120 166.5t166 116.5t205.5 43.5t192.5 -35.5t132.5 -98t73.5 -142t24.5 -173.5q0 -99 -24.5 -200.5t-75 -194.5t-119.5 -165.5t-165.5 -115.5t-206.5 -43q-111 0 -194.5 35t-132.5 97.5t-73 140.5t-24 172zM272 426q0 -123 56.5 -201
t169.5 -78q87 0 162 51t122.5 131.5t74 174.5t26.5 184q0 124 -56 203.5t-170 79.5q-88 0 -163 -52t-122 -133.5t-73.5 -175.5t-26.5 -184z" />
    <glyph glyph-name="one.t_osf" 
d="M117 0l33 162h311l121 624l24 121h-4q-37 -30 -90 -59l-203 -109l-67 148l422 231h176l-185 -956h281l-31 -162h-788z" />
    <glyph glyph-name="two.t_osf" 
d="M39 0l27 137q145 85 247 149t204.5 138t164.5 135.5t100.5 127t38.5 126.5q0 79 -57.5 119.5t-145.5 40.5q-48 0 -100.5 -16.5t-93 -39.5t-74 -46t-51.5 -39l-18 -17l-86 137q8 8 22.5 21t61.5 45.5t96.5 58t123.5 46t146 20.5q178 0 279.5 -83.5t101.5 -223.5
q0 -78 -31.5 -152t-85.5 -138.5t-140 -132t-179.5 -126t-220.5 -127.5v-4q43 6 123 6h464l-32 -162h-885z" />
    <glyph glyph-name="three.t_osf" 
d="M-23 -78l117 129q4 -6 12 -15t36 -33t60.5 -42.5t85 -33.5t109.5 -15q135 0 239.5 86.5t104.5 216.5q0 93 -73.5 147t-208.5 54l-82 -4l-23 104l402 389q16 16 35 31.5t29 23.5l11 7v4q-45 -6 -104 -6h-324l-32 -172h-170l63 325h832l-25 -129l-455 -432q43 -6 85 -19
t88 -39t80 -61.5t56.5 -90.5t22.5 -122q0 -130 -73.5 -241.5t-201 -177.5t-278.5 -66q-81 0 -154.5 18.5t-119.5 45.5t-80 54t-49 46z" />
    <glyph glyph-name="four.t_osf" 
d="M-59 74l22 121l813 923h238l-172 -887h209l-33 -157h-207l-59 -312h-195l59 312h-675zM197 231h450l107 541q4 26 12.5 61t15.5 57l6 21h-6q-45 -70 -92 -123l-493 -555v-2z" />
    <glyph glyph-name="five.t_osf" 
d="M-18 -76l112 133q5 -5 13.5 -14t37.5 -32t60.5 -40.5t81 -32t100.5 -14.5q66 0 131 21t119.5 59.5t88.5 101.5t34 140q0 105 -77 164t-194 59q-60 0 -122.5 -15.5t-95.5 -31.5l-33 -16l-107 40l203 672h719l-64 -325h-174l33 172h-371l-92 -299l-29 -70h4q82 33 193 33
q177 0 293.5 -98t116.5 -271q0 -150 -84 -268.5t-214.5 -180t-277.5 -61.5q-75 0 -144.5 18t-114.5 43.5t-80 51t-50 43.5z" />
    <glyph glyph-name="six.t_osf" 
d="M76 467q0 90 23.5 191t67 203.5t112.5 195.5t154 165t198.5 115t238.5 43q77 0 149 -15t105 -31l33 -15l-90 -152q-82 41 -197 41q-97 0 -185.5 -39.5t-154.5 -107t-114 -148t-78 -170.5h4q59 62 149.5 96.5t186.5 34.5q181 0 289 -102.5t108 -267.5q0 -98 -39.5 -192.5
t-108.5 -169.5t-172.5 -121t-222.5 -46q-207 0 -331.5 132t-124.5 360zM279 444q0 -116 71 -206.5t191 -90.5q140 0 235.5 99.5t95.5 245.5q0 101 -66 160t-188 59q-133 0 -236 -78t-103 -189z" />
    <glyph glyph-name="seven.t_osf" 
d="M63 -238l795 1133q15 21 30 39t22 26l8 7v4q-40 -6 -87 -6h-462l-33 -172h-172l63 325h944l-24 -131l-862 -1225h-222z" />
    <glyph glyph-name="eight.t_osf" 
d="M43 340q0 221 300 413q5 4 7 5q-125 92 -125 223q0 74 34 145t94.5 127.5t154 91.5t203.5 35q190 0 300.5 -82.5t110.5 -226.5q0 -189 -241 -416q153 -96 153 -243q0 -83 -42.5 -163t-114 -140t-173 -97t-212.5 -37q-201 0 -325 100.5t-124 264.5zM739 733q24 19 45 40
t58 64.5t59.5 98.5t22.5 111q0 76 -58.5 119.5t-160.5 43.5q-122 0 -202.5 -65t-80.5 -156q0 -24 8 -45.5t19.5 -38.5t33 -35t40 -30t50 -28.5t52.5 -26t57.5 -26t56.5 -26.5zM246 356q0 -95 71.5 -152t178.5 -57q125 0 229 75t104 186q0 31 -15.5 59.5t-36 48.5t-61 44
t-69 37t-82.5 37.5t-80 37.5q-25 -15 -47.5 -29.5t-60.5 -46.5t-64 -64.5t-46.5 -79.5t-20.5 -96z" />
    <glyph glyph-name="nine.t_osf" 
d="M78 -51q81 -39 194 -39q97 0 184.5 39.5t153.5 107t114.5 148t78.5 170.5h-4q-59 -62 -149.5 -96.5t-186.5 -34.5q-178 0 -285.5 102.5t-107.5 265.5q0 98 39 193.5t108 170.5t172 121t221 46q207 0 331 -132t124 -360q0 -77 -16.5 -162.5t-50.5 -174t-82 -172t-115 -157
t-145 -128.5t-177 -87t-207 -32q-76 0 -146 15t-102 31l-32 15zM520 406q134 0 239 78t105 190q0 74 -29 140.5t-91 111.5t-144 45q-137 0 -232.5 -99t-95.5 -245q0 -102 65 -161.5t183 -59.5z" />
    <glyph glyph-name="dollar.osf" horiz-adv-x="1013" 
d="M-16 186l108 129q5 -6 14.5 -16t42.5 -35.5t68.5 -44.5t91.5 -32.5t113 -10.5q98 0 175 44.5t77 119.5q0 39 -28.5 71.5t-74 57t-100.5 49t-110 53.5t-100.5 64t-74 88.5t-28.5 118.5q0 137 113 233t294 113l37 194h146l-39 -196q82 -11 152.5 -43t100.5 -58l29 -26
l-106 -141q-4 4 -11.5 10.5t-33.5 23t-55.5 29t-75.5 23t-95 10.5q-45 0 -87 -9.5t-79.5 -28.5t-60 -52t-22.5 -76q0 -42 28.5 -75.5t74 -57t100.5 -47t110 -51.5t100.5 -62.5t74 -88.5t28.5 -122q0 -137 -122.5 -236t-297.5 -108l-37 -209h-145l40 215q-64 10 -121.5 32.5
t-95 47t-65.5 47.5t-41 38z" />
    <glyph glyph-name="cent.osf" horiz-adv-x="1089" 
d="M369 -55l34 174q-160 31 -252 142t-92 274q0 220 157 383.5t382 193.5l33 170h149l-35 -170q59 -7 112.5 -26t88 -41t61 -43.5t38.5 -35.5l12 -14l-111 -133q-3 5 -10 13t-31.5 28.5t-53 36t-75 28.5t-98.5 13q-170 0 -293 -115.5t-123 -277.5q0 -115 78.5 -187.5
t210.5 -72.5q50 0 101 13t87.5 31.5t65.5 37.5t44 32l15 13l68 -154q-6 -6 -17.5 -15.5t-50.5 -34.5t-80.5 -44.5t-105 -37t-127.5 -20.5l-33 -161h-149z" />
    <glyph glyph-name="sterling.osf" horiz-adv-x="1202" 
d="M-27 0l33 170h162l63 324h-129l27 139h129l35 180q38 183 179.5 289t334.5 106q62 0 120.5 -12t97.5 -29.5t69.5 -35t44.5 -29.5l14 -12l-111 -136q-4 3 -11 8t-31 18.5t-50.5 23.5t-68.5 18t-86 8q-115 0 -198.5 -64t-104.5 -159l-35 -174h444l-27 -139h-444l-61 -324
h665l-33 -170h-1028z" />
    <glyph glyph-name="yen.osf" horiz-adv-x="1216" 
d="M102 287l27 131h338l8 45l-49 117h-266l24 131h193l-195 475h224l139 -377q13 -36 26.5 -82t20.5 -74l8 -28h4q64 102 121 184l287 377h235l-377 -475h197l-27 -131h-272l-92 -117l-8 -45h342l-25 -131h-342l-55 -287h-201l55 287h-340z" />
    <glyph glyph-name="florin.osf" horiz-adv-x="1171" 
d="M-115 -76q66 -12 129 -12q34 0 68 8t76.5 29.5t78.5 70t56 119.5l135 484h-168l31 159h184l64 232q27 94 73 164.5t93.5 108t106.5 60.5t102.5 29t89.5 6q39 0 87.5 -4.5t77.5 -9.5l29 -4l-35 -168q-98 14 -159 14q-36 0 -69.5 -8t-75.5 -29.5t-77 -70t-55 -119.5
l-57 -201h239l-32 -159h-254l-146 -519q-26 -93 -72 -162.5t-94 -107t-107 -60t-102 -28.5t-88 -6q-37 0 -78 4t-64 8l-22 4z" />
    <glyph glyph-name="Euro.osf" horiz-adv-x="1171" 
d="M47 393l23 117h135q3 69 26 158h-127l23 118h143q39 87 101 161.5t145.5 133.5t194.5 93t237 34q61 0 118 -8t84 -16l26 -8l-72 -156q-72 20 -154 20q-158 0 -276 -70.5t-182 -183.5h514l-50 -118h-522q-25 -70 -28 -158h497l-47 -117h-430q21 -112 111.5 -180t246.5 -68
q44 0 90 7.5t70 14.5l23 7l6 -170q-89 -29 -195 -29q-248 0 -392.5 117.5t-172.5 300.5h-166z" />
    <glyph glyph-name="zero.numerator" horiz-adv-x="823" 
d="M420 530q-275 0 -275 299q0 75 12.5 156t43.5 168.5t76 156t117.5 112.5t160.5 44q274 0 274 -301q0 -75 -13 -156t-44 -168t-76 -155t-117 -112t-159 -44zM422 672q63 0 113.5 48.5t79 124t43 156t14.5 154.5q0 168 -121 168q-64 0 -114.5 -49t-78.5 -125t-42.5 -156.5
t-14.5 -156.5q0 -164 121 -164z" />
    <glyph glyph-name="one.numerator" horiz-adv-x="698" 
d="M76 551l24 127h211l97 496q3 18 7.5 36.5t7.5 27.5l3 9h-4q-20 -28 -51 -51l-101 -82l-75 103l282 229h137l-149 -768h209l-25 -127h-573z" />
    <glyph glyph-name="two.numerator" horiz-adv-x="776" 
d="M72 551q2 87 33.5 158.5t80.5 119.5t108 88.5t117.5 73t107 65t78.5 73.5t30 88t-33.5 77.5t-87.5 30.5q-46 0 -95 -24.5t-75 -48.5l-25 -25l-90 100q5 6 14.5 15t40 33t62.5 42.5t81 33.5t97 15q119 0 194.5 -64t75.5 -171q0 -65 -26 -119.5t-69 -93.5t-95.5 -73
t-107.5 -64t-102.5 -59t-83.5 -66t-48 -78h326l20 104h129l-45 -231h-612z" />
    <glyph glyph-name="three.numerator" horiz-adv-x="770" 
d="M379 530q-58 0 -110.5 14t-86.5 34t-59.5 40t-36.5 34l-12 14l100 100q3 -4 8.5 -10t25 -22.5t41 -29t57 -22.5t73.5 -10q77 0 135.5 53.5t58.5 128.5q0 56 -45.5 87.5t-109.5 31.5h-64l-20 74l239 235q11 11 24.5 21.5t21.5 14.5l8 5v6q-29 -6 -62 -6h-200l-21 -109
h-129l45 232h569l-18 -98l-276 -267q34 -7 65.5 -23t61.5 -42t48.5 -67.5t18.5 -92.5q0 -127 -101.5 -226.5t-248.5 -99.5z" />
    <glyph glyph-name="four.numerator" horiz-adv-x="806" 
d="M459 551l43 223h-424l18 98l520 574h168l-106 -551h125l-23 -121h-127l-43 -223h-151zM260 895h266l58 299q4 18 10.5 41t11.5 37l4 14h-6q-26 -45 -59 -80l-285 -307v-4z" />
    <glyph glyph-name="five.numerator" horiz-adv-x="765" 
d="M365 530q-52 0 -101 13.5t-82.5 32t-60 37.5t-39.5 33l-12 13l94 101q3 -4 9.5 -10t27.5 -22t43 -28t55 -22t66 -10q90 0 151.5 55.5t61.5 136.5q0 67 -44 107.5t-118 40.5q-39 0 -78 -11t-58 -21l-20 -11l-80 30l135 451h488l-45 -232h-127l20 109h-233l-51 -180
q-3 -10 -7 -20t-7 -15l-3 -4l4 -2q45 20 113 20q121 0 194.5 -72.5t73.5 -183.5q0 -133 -107 -234.5t-263 -101.5z" />
    <glyph glyph-name="six.numerator" horiz-adv-x="794" 
d="M428 530q-133 0 -212 87.5t-79 238.5q0 70 21.5 152t65.5 163t102.5 147t140.5 107t172 41q54 0 102.5 -12t70.5 -24l22 -11l-66 -125q-55 29 -135 29q-93 0 -170 -72.5t-117 -183.5h4q33 28 80 45.5t94 17.5q110 0 179 -68t69 -177q0 -152 -102.5 -253.5t-241.5 -101.5z
M434 672q80 0 131 62.5t51 144.5q0 59 -35.5 95t-99.5 36q-73 0 -129.5 -47.5t-56.5 -112.5q0 -72 37.5 -125t101.5 -53z" />
    <glyph glyph-name="seven.numerator" horiz-adv-x="735" 
d="M104 551l512 727q8 11 18 22.5t16 17.5l7 5v4q-28 -4 -55 -4h-268l-21 -109h-127l43 232h625l-18 -105l-562 -790h-170z" />
    <glyph glyph-name="eight.numerator" horiz-adv-x="811" 
d="M410 530q-121 0 -209 64t-88 174q0 150 194 283q-71 58 -71 145q0 85 50.5 148.5t123 92.5t153.5 29q116 0 190 -58t74 -153q0 -138 -161 -270q98 -67 98 -168q0 -81 -51.5 -148t-132.5 -103t-170 -36zM559 1042q23 19 45.5 41.5t47 66.5t24.5 85q0 48 -37.5 73t-89.5 25
q-62 0 -113 -35t-51 -98q0 -20 8 -37.5t17 -29t31 -26.5t33.5 -21.5t43 -22.5t41.5 -21zM416 664q71 0 131.5 43.5t60.5 107.5q0 25 -10 45.5t-34 38.5t-42.5 28.5t-57.5 29.5t-56 28q-140 -94 -140 -199q0 -56 44 -89t104 -33z" />
    <glyph glyph-name="nine.numerator" horiz-adv-x="796" 
d="M309 530q-54 0 -103.5 12t-71.5 24l-23 12l69 122q53 -26 133 -26q93 0 170 72.5t117 183.5h-4q-78 -64 -174 -64q-110 0 -179 68.5t-69 177.5q0 152 102.5 253t241.5 101q133 0 212 -87t79 -238q0 -70 -21.5 -152t-65.5 -163t-102.5 -147.5t-140 -107.5t-170.5 -41z
M465 987q73 0 129.5 47.5t56.5 112.5q0 72 -37.5 125t-101.5 53q-80 0 -132 -63t-52 -146q0 -58 36 -93.5t101 -35.5z" />
    <glyph glyph-name="zero.denominator" horiz-adv-x="827" 
d="M315 -20q-146 0 -210 78t-64 221q0 75 12.5 156t43.5 168t76 155.5t117.5 112.5t160.5 44q274 0 274 -301q0 -74 -13 -155.5t-44 -168t-76.5 -154.5t-117.5 -112t-159 -44zM317 121q63 0 113.5 48.5t79 124t43 156t14.5 154.5q0 168 -121 168q-64 0 -114.5 -49
t-78.5 -125t-42 -156.5t-14 -156.5q0 -164 120 -164z" />
    <glyph glyph-name="one.denominator" horiz-adv-x="688" 
d="M-41 0l25 127h211l96 496q3 18 7.5 36.5t7.5 27.5l3 9h-4q-20 -28 -51 -51l-100 -82l-76 103l282 229h138l-150 -768h209l-25 -127h-573z" />
    <glyph glyph-name="two.denominator" horiz-adv-x="776" 
d="M-37 0q2 87 33.5 158.5t80.5 119.5t108 88.5t117.5 73t107 65t78.5 73.5t30 88t-33.5 77.5t-87.5 30.5q-46 0 -94.5 -24.5t-74.5 -49.5l-25 -24l-90 100q5 6 14.5 15t40 33t62.5 42.5t81 33.5t97 15q119 0 194.5 -64t75.5 -171q0 -65 -26.5 -119.5t-69.5 -93.5t-95.5 -73
t-107.5 -64t-102.5 -59t-83.5 -66t-48 -78h326l21 104h129l-46 -231h-612z" />
    <glyph glyph-name="three.denominator" horiz-adv-x="770" 
d="M272 -20q-58 0 -110.5 14t-86.5 33.5t-59.5 39.5t-37.5 34l-11 14l101 100q3 -4 8.5 -10t24.5 -22.5t41 -29t57 -22.5t73 -10q77 0 136 53.5t59 128.5q0 56 -46 87.5t-110 31.5h-63l-21 74l240 235q11 11 24.5 21.5t20.5 15.5l8 4v6q-28 -6 -61 -6h-201l-20 -108h-129
l45 231h569l-18 -98l-277 -267q34 -7 65.5 -23t62 -42t49 -67.5t18.5 -92.5q0 -127 -102 -226t-249 -99z" />
    <glyph glyph-name="four.denominator" horiz-adv-x="806" 
d="M352 0l43 223h-424l19 99l520 573h168l-107 -551h125l-22 -121h-127l-43 -223h-152zM154 344h266l57 299q4 18 10.5 41t11.5 37l5 14h-6q-27 -45 -60 -80l-284 -307v-4z" />
    <glyph glyph-name="five.denominator" horiz-adv-x="763" 
d="M256 -20q-52 0 -101 13.5t-82.5 32t-60 37.5t-38.5 33l-13 13l94 100q3 -4 9.5 -10t27.5 -22t43 -28t55 -22t66 -10q90 0 151.5 55.5t61.5 136.5q0 67 -44 107.5t-118 40.5q-39 0 -78 -10.5t-58 -21.5l-19 -11l-80 30l135 451h487l-45 -231h-127l21 108h-234l-51 -180
q-3 -10 -7 -20t-7 -14l-2 -5l4 -2q44 20 112 20q121 0 195 -72.5t74 -183.5q0 -133 -107.5 -234t-263.5 -101z" />
    <glyph glyph-name="six.denominator" horiz-adv-x="794" 
d="M322 -20q-133 0 -212 87t-79 238q0 58 15.5 125.5t44.5 135.5t73.5 130.5t98 111.5t124 78t145.5 29q54 0 102.5 -11.5t70.5 -23.5l22 -12l-65 -125q-56 29 -136 29q-93 0 -169.5 -72.5t-116.5 -183.5h4q33 28 80.5 46t93.5 18q110 0 179 -68.5t69 -177.5
q0 -152 -102.5 -253t-241.5 -101zM328 121q80 0 131 62.5t51 144.5q0 59 -35.5 95t-99.5 36q-73 0 -130 -47.5t-57 -112.5q0 -72 38 -125t102 -53z" />
    <glyph glyph-name="seven.denominator" horiz-adv-x="731" 
d="M-4 0l512 727q8 11 18 22.5t16 16.5l7 6v4q-28 -4 -55 -4h-269l-20 -108h-127l43 231h624l-18 -104l-561 -791h-170z" />
    <glyph glyph-name="eight.denominator" horiz-adv-x="811" 
d="M303 -20q-122 0 -209.5 63.5t-87.5 173.5q0 150 195 283q-72 59 -72 145q0 65 29.5 118t77 85t105 49.5t116.5 17.5q117 0 190.5 -58t73.5 -152q0 -138 -162 -271q98 -67 98 -168q0 -81 -51.5 -147.5t-132.5 -102.5t-170 -36zM453 492q23 19 45 41.5t46.5 66t24.5 84.5
q0 48 -37.5 73t-89.5 25q-62 0 -112.5 -35t-50.5 -98q0 -20 8 -37.5t17 -29t30.5 -26t34 -21.5t42.5 -22zM309 113q71 0 132 43.5t61 107.5q0 25 -10 45.5t-34.5 38.5t-43 28.5t-57.5 29.5t-56 28q-139 -94 -139 -198q0 -56 43.5 -89.5t103.5 -33.5z" />
    <glyph glyph-name="nine.denominator" horiz-adv-x="794" 
d="M201 -20q-54 0 -103.5 12t-72.5 24l-23 11l70 123q53 -27 133 -27q93 0 170 72.5t117 183.5h-5q-78 -64 -174 -64q-110 0 -178.5 68.5t-68.5 177.5q0 152 102.5 253t241.5 101q133 0 211.5 -87t78.5 -238q0 -70 -21.5 -152t-65 -163t-102 -147t-140 -107t-170.5 -41z
M356 436q73 0 130 47.5t57 112.5q0 72 -38 125t-102 53q-80 0 -132 -63t-52 -146q0 -58 36 -93.5t101 -35.5z" />
    </font>
</defs>
</svg>
