<?xml version="1.0" standalone="no"?>
<!DOCTYPE svg PUBLIC "-//W3C//DTD SVG 1.1//EN" "http://www.w3.org/Graphics/SVG/1.1/DTD/svg11.dtd" >
<svg xmlns="http://www.w3.org/2000/svg" xmlns:xlink="http://www.w3.org/1999/xlink" version="1.1">
<metadata>
Created by FontForge 20170731 at Mon Sep 20 10:34:34 2021
 By Aleksey,,,
Copyright (c) 2009 by Jos Buivenga. All rights reserved.
</metadata>
<defs>
<font id="MuseoSlab-100Italic" horiz-adv-x="1138" >
  <font-face 
    font-family="Museo Slab 100"
    font-weight="250"
    font-style="italic"
    font-stretch="normal"
    units-per-em="2048"
    panose-1="2 0 0 0 0 0 0 0 0 0"
    ascent="1536"
    descent="-512"
    x-height="1024"
    cap-height="1434"
    bbox="-354 -430 2152 1804"
    underline-thickness="102"
    underline-position="-307"
    unicode-range="U+0020-FB04"
  />
<missing-glyph horiz-adv-x="1044" 
d="M-109 0v1434h1024v-1434h-1024zM403 809l349 522h-697zM813 195v1044l-348 -522zM-6 195l348 522l-348 522v-1044zM55 102h697l-349 523z" />
    <glyph glyph-name="f_f" unicode="ff" horiz-adv-x="1243" 
d="M123 0l182 944h-192l14 80h192l11 45q16 80 45.5 143.5t66 102.5t73.5 65.5t78 38.5t69.5 16.5t56.5 4.5l63 -4l-18 -80q-16 4 -45 4q-30 0 -58 -4.5t-66.5 -22t-70 -47t-61 -85t-45.5 -130.5l-10 -47h522l10 45q16 80 45.5 143.5t66 102.5t73.5 65.5t78 38.5t69.5 16.5
t56.5 4.5l64 -4l-19 -80q-16 4 -45 4q-30 0 -58 -4.5t-66.5 -22t-70 -47t-61 -85t-45.5 -130.5l-10 -47h272l-14 -80h-272l-183 -944h-88l182 944h-522l-182 -944h-88z" />
    <glyph glyph-name="fi" unicode="fi" horiz-adv-x="1142" 
d="M123 0l182 944h-194l14 80h194l11 45q19 95 58 167t80.5 109.5t92.5 60t86 28.5t70 6l63 -4l-18 -80q-16 4 -45 4q-30 0 -58 -4.5t-66.5 -22t-70 -47t-61 -85t-45.5 -130.5l-10 -47h581l-156 -788q-6 -38 -6 -60q0 -33 9 -55t26 -31t31.5 -11.5t36.5 -2.5l55 4l-16 -80
q-44 -4 -64 -4q-26 0 -51 6t-53.5 22t-46 51.5t-17.5 86.5q0 15 8 61l142 721h-494l-182 -944h-86zM938 1284l31 150h110l-30 -150h-111z" />
    <glyph glyph-name="fl" unicode="fl" horiz-adv-x="1157" 
d="M123 0l182 944h-194l14 80h194l9 41q78 393 460 393q76 0 147.5 -10t105.5 -20l34 -11l-227 -1179q-8 -46 -8 -64q0 -33 8.5 -54.5t25.5 -30t31.5 -11t36.5 -2.5l55 4l-16 -80q-34 -4 -63 -4q-26 0 -51 6t-53.5 22t-46 51.5t-17.5 86.5q0 17 8 63l219 1131
q-54 24 -191 24q-49 0 -88.5 -5.5t-87 -24.5t-82.5 -52t-66 -92t-46 -139l-8 -43h272l-14 -80h-273l-182 -944h-88z" />
    <glyph glyph-name="f_f_i" unicode="ffi" horiz-adv-x="1755" 
d="M123 0l182 944h-192l14 80h192l11 45q16 80 45.5 143.5t66 102.5t73.5 65.5t78 38.5t69.5 16.5t56.5 4.5l63 -4l-18 -80q-16 4 -45 4q-30 0 -58 -4.5t-66.5 -22t-70 -47t-61 -85t-45.5 -130.5l-10 -47h522l10 45q16 80 45.5 143.5t66 102.5t73.5 65.5t78 38.5t69.5 16.5
t56.5 4.5l64 -4l-19 -80q-16 4 -45 4q-30 0 -58 -4.5t-66.5 -22t-70 -47t-61 -85t-45.5 -130.5l-10 -47h581l-155 -788q-6 -38 -6 -60q0 -33 8.5 -55t25.5 -31t31.5 -11.5t36.5 -2.5l55 4l-16 -80q-43 -4 -63 -4q-26 0 -51 6t-53.5 22t-46 51.5t-17.5 86.5q0 15 8 61
l141 721h-493l-183 -944h-88l182 944h-522l-182 -944h-88zM1550 1284l31 150h111l-31 -150h-111z" />
    <glyph glyph-name="f_f_l" unicode="ffl" horiz-adv-x="1767" 
d="M123 0l182 944h-192l14 80h192l11 45q16 80 45.5 143.5t66 102.5t73.5 65.5t78 38.5t69.5 16.5t56.5 4.5l63 -4l-18 -80q-16 4 -45 4q-30 0 -58 -4.5t-66.5 -22t-70 -47t-61 -85t-45.5 -130.5l-10 -47h522l8 41q78 393 461 393q76 0 147.5 -10t105.5 -20l34 -11
l-228 -1179q-8 -46 -8 -64q0 -33 8.5 -54.5t25.5 -30t31.5 -11t36.5 -2.5l56 4l-17 -80q-34 -4 -63 -4q-26 0 -51 6t-53.5 22t-46 51.5t-17.5 86.5q0 17 8 63l219 1131q-53 24 -190 24q-49 0 -88.5 -5.5t-87 -24.5t-83 -52t-66.5 -92t-46 -139l-8 -43h272l-14 -80h-272
l-183 -944h-88l182 944h-522l-182 -944h-88z" />
    <glyph glyph-name="f_j" unicode="fj" horiz-adv-x="1107" 
d="M123 0l182 944h-192l14 80h192l11 45q16 80 45.5 143.5t66 102.5t73.5 65.5t78 38.5t69.5 16.5t56.5 4.5l63 -4l-18 -80q-16 4 -45 4q-30 0 -58 -4.5t-66.5 -22t-70 -47t-61 -85t-45.5 -130.5l-10 -47h591l-206 -1065q-19 -97 -55.5 -169.5t-76.5 -111.5t-89 -62
t-84.5 -29.5t-71.5 -6.5l-72 4l16 80q17 -4 46 -4t57.5 5t68 24t71 49t60.5 87t44 132l190 987h-504l-182 -944h-88zM954 1284l29 150h102l-28 -150h-103z" />
    <glyph glyph-name=".notdef" horiz-adv-x="1044" 
d="M-109 0v1434h1024v-1434h-1024zM403 809l349 522h-697zM813 195v1044l-348 -522zM-6 195l348 522l-348 522v-1044zM55 102h697l-349 523z" />
    <glyph glyph-name=".null" horiz-adv-x="0" 
 />
    <glyph glyph-name="nonmarkingreturn" horiz-adv-x="682" 
 />
    <glyph glyph-name="space" unicode=" " horiz-adv-x="512" 
 />
    <glyph glyph-name="exclam" unicode="!" horiz-adv-x="456" 
d="M135 358l211 1076h88l-211 -1076h-88zM49 0l27 125h121l-27 -125h-121z" />
    <glyph glyph-name="quotedbl" unicode="&#x22;" horiz-adv-x="602" 
d="M451 1061l75 391h88l-75 -391h-88zM238 1061l75 391h88l-75 -391h-88z" />
    <glyph glyph-name="numbersign" unicode="#" horiz-adv-x="1492" 
d="M221 0l152 408h-310l31 81h309l168 453h-309l31 82h309l152 410h90l-152 -410h387l152 410h90l-152 -410h304l-31 -82h-303l-168 -453h303l-31 -81h-303l-152 -408h-90l152 408h-387l-152 -408h-90zM494 489h387l168 453h-387z" />
    <glyph glyph-name="dollar" unicode="$" horiz-adv-x="1067" 
d="M27 184l65 60q5 -6 14.5 -16.5t42 -36.5t69.5 -46t95.5 -36.5t120.5 -16.5q103 0 193 38.5t146 110t56 158.5q0 65 -34 117t-88.5 87.5t-120 67.5t-131 66.5t-120 74.5t-88.5 100.5t-34 136.5q0 150 122.5 254.5t326.5 119.5l45 226h88l-43 -226q57 -3 109.5 -17.5
t87 -33t60.5 -36.5t38 -30l12 -12l-60 -69q-4 5 -11.5 12.5t-35 27.5t-60 35.5t-86.5 28t-114 12.5q-169 0 -277 -85t-108 -205q0 -62 34 -112t88.5 -84.5t120.5 -65.5t131.5 -64.5t120 -73t88.5 -99.5t34 -136q0 -158 -127 -275.5t-322 -132.5l-43 -221h-88l43 221
q-71 4 -134 24t-102.5 45t-69 49.5t-41.5 41.5z" />
    <glyph glyph-name="percent" unicode="%" horiz-adv-x="1411" 
d="M457 924q-107 0 -170.5 64t-63.5 171q0 113 96.5 206t217.5 93q105 0 168 -64t63 -167q0 -118 -95.5 -210.5t-215.5 -92.5zM-4 0l1356 1434h116l-1357 -1434h-115zM461 1006q87 0 153 66.5t66 156.5q0 64 -41.5 105.5t-106.5 41.5q-86 0 -153.5 -67.5t-67.5 -155.5
q0 -64 41.5 -105.5t108.5 -41.5zM686 211q0 113 96 206t217 93q105 0 168.5 -64t63.5 -167q0 -118 -95.5 -211t-215.5 -93q-107 0 -170.5 64.5t-63.5 171.5zM774 205q0 -64 41.5 -106t108.5 -42q87 0 153 67t66 157q0 64 -41.5 105.5t-106.5 41.5q-86 0 -153.5 -67.5
t-67.5 -155.5z" />
    <glyph glyph-name="ampersand" unicode="&#x26;" horiz-adv-x="1308" 
d="M78 326q0 154 98 282t256 168v4q-6 2 -16.5 6.5t-37 24.5t-46.5 46t-36.5 74t-16.5 105q0 177 133 299.5t333 122.5q43 0 86.5 -5.5t66.5 -10.5l22 -6l-41 -80q-68 18 -138 18q-149 0 -258.5 -94.5t-109.5 -245.5q0 -43 11 -77t40.5 -68.5t93 -54t156.5 -19.5h334l41 209
h88l-41 -209h198l-16 -82h-199l-45 -229q-104 -529 -542 -529q-193 0 -303.5 97t-110.5 254zM170 340q0 -130 84 -205.5t238 -75.5q367 0 454 445l45 229h-329q-132 0 -242.5 -45.5t-180 -136.5t-69.5 -211z" />
    <glyph glyph-name="quotesingle" unicode="'" horiz-adv-x="389" 
d="M238 1061l75 391h88l-75 -391h-88z" />
    <glyph glyph-name="parenleft" unicode="(" horiz-adv-x="591" 
d="M244 -195q-94 257 -94 539q0 627 411 1141h94q-422 -538 -422 -1143q0 -275 97 -537h-86z" />
    <glyph glyph-name="parenright" unicode=")" horiz-adv-x="595" 
d="M-43 -195q422 538 422 1143q0 278 -96 537h86q94 -257 94 -539q0 -626 -412 -1141h-94z" />
    <glyph glyph-name="asterisk" unicode="*" horiz-adv-x="978" 
d="M313 705l-67 53l254 268v4l-295 94l43 84l295 -110l55 336h96l-76 -336l343 108l12 -86l-342 -100v-4l145 -262l-76 -52l-139 275h-4z" />
    <glyph glyph-name="plus" unicode="+" horiz-adv-x="1228" 
d="M453 0l106 539h-485l14 82h485l107 538h88l-106 -538h483l-15 -82h-483l-106 -539h-88z" />
    <glyph glyph-name="comma" unicode="," horiz-adv-x="497" 
d="M119 125h112l-237 -399h-90z" />
    <glyph glyph-name="hyphen" unicode="-" horiz-adv-x="1079" 
d="M244 539l14 82h565l-14 -82h-565z" />
    <glyph glyph-name="period" unicode="." horiz-adv-x="483" 
d="M70 0l24 129h125l-24 -129h-125z" />
    <glyph glyph-name="slash" unicode="/" horiz-adv-x="823" 
d="M-29 -86l830 1602h96l-829 -1602h-97z" />
    <glyph glyph-name="zero" unicode="0" horiz-adv-x="1267" 
d="M141 428q0 82 10 173t33.5 192t58 195t87 180.5t117 150t152 101.5t187.5 38q385 0 385 -457q0 -83 -10 -173.5t-33 -191t-57 -194t-87 -179.5t-117 -149.5t-152 -101t-189 -37.5q-200 0 -292.5 120t-92.5 333zM231 424q0 -363 297 -363q87 0 162 35t130 93t100 137.5
t74 165.5t48.5 178.5t28 175.5t8.5 158q0 176 -69 272t-226 96q-95 0 -177 -43t-141 -117t-105.5 -168.5t-74 -202t-41.5 -212.5t-14 -205z" />
    <glyph glyph-name="one" unicode="1" horiz-adv-x="874" 
d="M-10 0l14 82h326l223 1143l20 86h-4q-30 -33 -73 -70l-220 -184l-53 65l371 312h88l-264 -1352h317l-16 -82h-729z" />
    <glyph glyph-name="two" unicode="2" horiz-adv-x="1167" 
d="M12 0q3 92 37.5 174t91.5 145t130 120t153 106.5t159.5 97.5t151.5 99.5t127.5 106.5t88 125t32.5 148q0 113 -73 182.5t-205 69.5q-64 0 -128 -21t-110 -51t-82.5 -60.5t-54.5 -51.5l-19 -21l-63 52q8 10 22 26t60.5 56.5t96 72t125 57t150.5 25.5q184 0 278.5 -92
t94.5 -242q0 -84 -30 -158.5t-81 -133t-117.5 -112.5t-142 -101t-151.5 -93t-148.5 -95t-131 -100t-100.5 -115t-56 -134h743l41 207h86l-57 -289h-918z" />
    <glyph glyph-name="three" unicode="3" horiz-adv-x="1136" 
d="M16 174l70 59q5 -7 15 -19t43.5 -42t70.5 -52.5t96 -41.5t121 -19q113 0 216 54t168 151t65 211q0 139 -92.5 210t-235.5 71l-102 -6l-17 65l516 496q9 9 22.5 19t22.5 16l9 6v4q-39 -4 -62 -4h-543l-41 -207h-86l58 289h821l-12 -62l-564 -536q47 1 97 -7.5t105 -33
t97.5 -63t70.5 -102.5t28 -145q0 -137 -73 -254.5t-197.5 -186.5t-268.5 -69q-76 0 -147 20.5t-118 49.5t-83.5 58.5t-53.5 50.5z" />
    <glyph glyph-name="four" unicode="4" horiz-adv-x="1179" 
d="M27 410l12 61l924 963h88l-185 -942h213l-16 -82h-213l-80 -410h-88l80 410h-735zM174 492h604l142 722q3 17 8 37t8 31l4 12h-4q-26 -34 -57 -65l-705 -733v-4z" />
    <glyph glyph-name="five" unicode="5" horiz-adv-x="1128" 
d="M31 162l65 55q4 -6 12.5 -17t38 -38t63.5 -48t89.5 -38t116.5 -17q90 0 177 35.5t152.5 95t105.5 143t40 173.5q0 141 -92 226t-242 85q-75 0 -148.5 -22t-110.5 -44l-36 -22l-63 23l215 682h665l-57 -289h-86l41 207h-500l-133 -424l-31 -88h4q11 7 31.5 17t86.5 27
t134 17q184 0 299 -109.5t115 -283.5q0 -143 -79.5 -266.5t-211 -195t-280.5 -71.5q-76 0 -143.5 19.5t-109 46.5t-72 54.5t-43.5 46.5z" />
    <glyph glyph-name="six" unicode="6" horiz-adv-x="1204" 
d="M131 483q0 72 15.5 157.5t48 179.5t78.5 184.5t111 173t141.5 144.5t174.5 99t205 37q71 0 135.5 -14t93.5 -28l29 -15l-53 -76q-9 5 -26 13.5t-70.5 22t-108.5 13.5q-97 0 -187.5 -38.5t-162 -103t-131.5 -150.5t-101.5 -179t-66.5 -190h4q75 91 188.5 143.5t233.5 52.5
q174 0 278.5 -97.5t104.5 -266.5q0 -103 -37.5 -204.5t-103 -183t-166 -132t-215.5 -50.5q-133 0 -227 66.5t-139.5 179.5t-45.5 262zM223 453q0 -71 20.5 -139.5t59 -126t100.5 -93t138 -35.5q181 0 306.5 141t125.5 345q0 130 -79 205t-216 75q-53 0 -114.5 -17
t-121.5 -50t-109 -77t-79.5 -104t-30.5 -124z" />
    <glyph glyph-name="seven" unicode="7" horiz-adv-x="1075" 
d="M127 0l887 1294l47 58v4q-31 -4 -68 -4h-674l-40 -207h-86l57 289h940l-12 -62l-949 -1372h-102z" />
    <glyph glyph-name="eight" unicode="8" horiz-adv-x="1220" 
d="M92 344q0 81 34 158.5t77 128t99 96.5t83.5 63t46.5 27q-143 97 -143 244q0 74 34 145t95 127t152.5 90.5t197.5 34.5q184 0 281.5 -81.5t97.5 -223.5q0 -67 -27 -138t-62.5 -123.5t-79 -101t-69 -71t-39.5 -33.5q168 -107 168 -260q0 -127 -75.5 -232t-196.5 -162
t-258 -57q-178 0 -297 97t-119 272zM791 729q21 16 44 35.5t65 64t73.5 90t55.5 109t24 125.5q0 101 -78 161t-207 60q-165 0 -275 -92t-110 -219q0 -42 18.5 -79.5t45 -64t73 -55t83 -46t96 -45t92.5 -44.5zM186 344q0 -130 93.5 -207.5t228.5 -77.5q107 0 206 44
t164.5 129.5t65.5 191.5q0 43 -20 81.5t-49.5 65.5t-77 55.5t-89 48t-100.5 47.5t-96 48q-18 -10 -37 -20.5t-53 -34t-63.5 -48.5t-62.5 -61.5t-56 -74.5t-38.5 -87.5t-15.5 -99.5z" />
    <glyph glyph-name="nine" unicode="9" horiz-adv-x="1200" 
d="M90 33l47 76q9 -6 26 -14t70.5 -22t108.5 -14q120 0 229.5 58.5t190.5 155t139 211t90 237.5h-4q-75 -91 -189.5 -144t-234.5 -53q-173 0 -277 98t-104 267q0 103 37.5 204.5t103.5 182.5t166.5 131.5t215.5 50.5q132 0 226.5 -66.5t139.5 -179.5t45 -262
q0 -72 -15.5 -157.5t-48 -179.5t-78.5 -184.5t-111 -173t-141.5 -144.5t-174.5 -99t-205 -37q-71 0 -134 14.5t-90 28.5zM563 608q53 0 115.5 17t123 50.5t110.5 77.5t81 104t31 124q0 56 -12 111.5t-37.5 106.5t-62 90t-88.5 62t-113 23q-182 0 -309.5 -141t-127.5 -344
q0 -130 78 -205.5t211 -75.5z" />
    <glyph glyph-name="colon" unicode=":" horiz-adv-x="626" 
d="M309 895l25 129h125l-25 -129h-125zM135 0l25 129h125l-25 -129h-125z" />
    <glyph glyph-name="semicolon" unicode=";" horiz-adv-x="638" 
d="M319 895l25 129h125l-25 -129h-125zM170 125h125l-238 -399h-90z" />
    <glyph glyph-name="less" unicode="&#x3c;" horiz-adv-x="1228" 
d="M121 543v73l899 404v-98l-772 -340v-4l772 -340v-99z" />
    <glyph glyph-name="equal" unicode="=" horiz-adv-x="1228" 
d="M137 702v82h934v-82h-934zM137 375v82h934v-82h-934z" />
    <glyph glyph-name="greater" unicode="&#x3e;" horiz-adv-x="1228" 
d="M199 139v99l772 340v4l-772 340v98l899 -404v-73z" />
    <glyph glyph-name="question" unicode="?" horiz-adv-x="921" 
d="M287 358l18 91q15 71 50.5 133t80 107.5t95.5 87.5t99 82t87 82.5t62.5 97.5t23.5 118q0 95 -67 155t-183 60q-68 0 -138 -21.5t-105 -42.5l-36 -22l-34 76q6 4 16.5 10.5t44.5 23t69.5 29t86.5 23t100 10.5q157 0 248.5 -82t91.5 -215q0 -74 -24.5 -138t-65 -111.5
t-89.5 -90t-101 -83t-97 -81.5t-80 -94.5t-47 -113.5l-18 -91h-88zM203 0l26 125h121l-26 -125h-121z" />
    <glyph glyph-name="at" unicode="@" horiz-adv-x="1550" 
d="M80 365q0 173 74 335.5t195.5 281.5t284.5 191t333 72q194 0 292.5 -86t98.5 -219q0 -38 -6 -68l-135 -694h143l-17 -82h-526q-152 0 -247 94.5t-95 237.5q0 90 40 176t106.5 150t157 102.5t186.5 38.5h299q4 28 4 51q0 91 -77.5 154t-234.5 63q-153 0 -298 -66
t-251 -174.5t-170.5 -255.5t-64.5 -302q0 -236 142 -383.5t374 -147.5l-16 -84q-126 0 -235.5 46t-188 126.5t-123.5 195t-45 247.5zM567 434q0 -113 72 -184.5t188 -71.5h297l123 635h-293q-98 0 -187.5 -53t-144.5 -141.5t-55 -184.5z" />
    <glyph glyph-name="A" unicode="A" horiz-adv-x="1452" 
d="M-96 0l16 82h152l770 1352h94l242 -1352h153l-16 -82h-418l16 82h174l-73 414h-608l-236 -414h174l-16 -82h-424zM453 578h546l-118 669l-9 78h-4q-14 -41 -34 -78z" />
    <glyph glyph-name="B" unicode="B" horiz-adv-x="1359" 
d="M-4 0l16 82h193l248 1270h-195l16 82h629q136 0 227 -52q56 -32 88.5 -100.5t32.5 -155.5q0 -131 -71 -227t-185 -141v-4q81 -29 130 -103t49 -186q0 -133 -67 -243t-173 -167q-102 -55 -250 -55h-688zM432 795h389q139 0 238.5 92t99.5 241q0 127 -88 183
q-65 41 -168 41h-362zM293 82h379q135 0 229 55q78 46 129 134.5t51 189.5q0 120 -70 186t-192 66h-403z" />
    <glyph glyph-name="C" unicode="C" horiz-adv-x="1525" 
d="M137 594q0 141 47 274t130 238.5t191 185.5t236.5 123t259.5 43q45 0 94.5 -5t110.5 -15.5t112.5 -32t94 -51t62 -76t8.5 -102.5l-27 -138h-90l23 123q11 57 -25 101t-101 67t-132 34t-132 11q-148 0 -289 -61t-246.5 -164t-170 -246.5t-64.5 -300.5q0 -242 143.5 -392.5
t377.5 -150.5q68 0 145 13t152 38.5t129 69.5t65 99l23 112h90l-27 -133q-15 -72 -77 -129t-148.5 -89t-176.5 -48.5t-173 -16.5q-186 0 -326.5 79t-214.5 219t-74 321z" />
    <glyph glyph-name="D" unicode="D" horiz-adv-x="1587" 
d="M-4 0l16 82h193l248 1270h-195l16 82h586q188 0 322 -50q152 -61 231.5 -190t79.5 -322q0 -163 -55.5 -317t-160 -276.5t-241.5 -190.5q-177 -88 -415 -88h-625zM291 82h311q223 0 383 78q187 94 301.5 286.5t114.5 417.5q0 164 -65.5 275.5t-188.5 163.5
q-118 49 -297 49h-309z" />
    <glyph glyph-name="E" unicode="E" horiz-adv-x="1263" 
d="M-4 0l16 82h193l248 1270h-195l16 82h990l-54 -267h-86l37 185h-620l-115 -588h571l-16 -82h-571l-117 -600h661l39 197h86l-55 -279h-1028z" />
    <glyph glyph-name="F" unicode="F" horiz-adv-x="1146" 
d="M-4 0l16 82h193l248 1270h-195l16 82h938l-55 -277h-86l39 195h-569l-117 -598h549l-17 -82h-548l-115 -590h205l-17 -82h-485z" />
    <glyph glyph-name="G" unicode="G" horiz-adv-x="1579" 
d="M137 590q0 173 69 333t185 277.5t277 187.5t338 70q93 0 186 -19t170 -53.5t119.5 -89.5t29.5 -120l-26 -138h-90l20 109q11 57 -24.5 102.5t-100 71.5t-137.5 39.5t-145 13.5q-156 0 -300 -63t-249 -168.5t-167.5 -248.5t-62.5 -296q0 -240 151 -389.5t394 -149.5
q53 0 113.5 7t127.5 25t122.5 44t96 67.5t50.5 92.5l51 256h-317l16 82h406l-70 -354q-16 -81 -80.5 -142.5t-155 -95t-182 -50t-178.5 -16.5q-293 0 -465 169t-172 446z" />
    <glyph glyph-name="H" unicode="H" horiz-adv-x="1699" 
d="M-4 0l16 82h193l248 1270h-195l16 82h478l-17 -82h-194l-115 -592h909l115 592h-195l17 82h477l-16 -82h-195l-248 -1270h195l-17 -82h-477l17 82h194l117 596h-909l-117 -596h194l-16 -82h-475z" />
    <glyph glyph-name="I" unicode="I" horiz-adv-x="702" 
d="M-4 0l16 82h193l248 1270h-195l16 82h478l-17 -82h-194l-248 -1270h194l-16 -82h-475z" />
    <glyph glyph-name="J" unicode="J" horiz-adv-x="1091" 
d="M12 285q0 32 6 69.5t12 59.5l5 22h88q-21 -76 -21 -137q0 -240 238 -240q56 0 109 17.5t104.5 54t90.5 103.5t56 157l185 961h-228l17 82h489l-16 -82h-174l-189 -973q-21 -110 -68.5 -191t-110 -126t-128.5 -66t-137 -21q-67 0 -124 17.5t-104 53t-73.5 97t-26.5 142.5z
" />
    <glyph glyph-name="K" unicode="K" horiz-adv-x="1325" 
d="M-4 0l16 82h193l248 1270h-195l16 82h478l-17 -82h-194l-109 -557h221l496 557h-139l16 82h408l-17 -82h-151l-535 -594v-4q20 -13 45 -72l211 -512q9 -22 17 -35.5t22 -28t35.5 -21.5t50.5 -7l57 4l-16 -82q-30 -4 -59 -4q-46 0 -78.5 11.5t-56 38t-37.5 52t-33 72.5
l-193 475q-14 36 -37.5 52t-68.5 16h-174l-123 -631h194l-16 -82h-475z" />
    <glyph glyph-name="L" unicode="L" horiz-adv-x="1181" 
d="M-4 0l16 82h193l248 1270h-195l16 82h478l-17 -82h-194l-248 -1270h639l49 246h86l-66 -328h-1005z" />
    <glyph glyph-name="M" unicode="M" horiz-adv-x="1904" 
d="M-39 0l16 82h193l348 1270h-196l16 82h285l266 -996l14 -67h4q16 30 39 67l656 996h292l-16 -82h-197l-147 -1270h195l-17 -82h-477l16 82h195l129 1110l18 86h-4q-25 -53 -43 -80l-610 -922h-90l-254 922l-10 80h-4q-7 -55 -15 -86l-305 -1110h195l-17 -82h-475z" />
    <glyph glyph-name="N" unicode="N" horiz-adv-x="1687" 
d="M-4 0l16 82h193l248 1270h-195l16 82h273l651 -1231q6 -12 13 -29.5t11 -29.5l3 -11h4q2 49 10 80l223 1139h-194l16 82h477l-16 -82h-195l-264 -1352h-80l-653 1233q-6 12 -12.5 29.5t-9.5 29.5l-3 11h-4q-2 -49 -10 -80l-221 -1141h194l-16 -82h-475z" />
    <glyph glyph-name="O" unicode="O" horiz-adv-x="1697" 
d="M135 590q0 115 34 227.5t94 207t143.5 175.5t180 137.5t206 88.5t219.5 32q266 0 433 -168t167 -430q0 -175 -75 -339.5t-196.5 -283.5t-281.5 -190.5t-324 -71.5q-175 0 -312.5 79t-212.5 219t-75 317zM227 590q0 -233 144.5 -382t373.5 -149q142 0 283 64.5t249 171
t175.5 255.5t67.5 308q0 226 -145 371t-374 145q-145 0 -286 -63t-248 -167.5t-173.5 -250.5t-66.5 -303z" />
    <glyph glyph-name="P" unicode="P" horiz-adv-x="1302" 
d="M-4 0l16 82h193l248 1270h-195l16 82h639q130 0 201 -29q88 -34 139.5 -112.5t51.5 -198.5q0 -150 -78.5 -275.5t-210.5 -183.5q-93 -41 -230 -41h-393l-100 -512h194l-16 -82h-475zM410 676h368q114 0 199 35q104 45 169.5 146.5t65.5 227.5q0 179 -129 236
q-73 31 -186 31h-356z" />
    <glyph glyph-name="Q" unicode="Q" horiz-adv-x="1697" 
d="M135 590q0 172 74.5 333.5t194.5 278t278 186.5t319 70q270 0 440.5 -168t170.5 -430q0 -185 -80.5 -354.5t-218.5 -296.5l141 -186l-61 -54l-144 189q-112 -87 -242 -135t-262 -48q-270 0 -440 172.5t-170 442.5zM227 590q0 -233 144.5 -382t373.5 -149q243 0 455 166
l-180 238l61 53l181 -240q119 114 188.5 266t69.5 316q0 226 -145 371t-374 145q-145 0 -286 -63t-248 -167.5t-173.5 -250.5t-66.5 -303z" />
    <glyph glyph-name="R" unicode="R" horiz-adv-x="1386" 
d="M-4 0l16 82h193l248 1270h-195l16 82h594q180 0 273 -54q137 -80 137 -270q0 -184 -123 -315t-305 -152v-4q21 -33 29 -51l165 -418q18 -46 43.5 -69t81.5 -23l58 4l-17 -82q-30 -4 -61 -4q-45 0 -77.5 11.5t-55.5 38.5t-36.5 52.5t-31.5 71.5l-147 371q-24 58 -56 76
t-96 18h-248l-108 -553h194l-16 -82h-475zM418 717h379q155 0 272 111t117 274q0 147 -103 207q-74 43 -231 43h-311z" />
    <glyph glyph-name="S" unicode="S" horiz-adv-x="1148" 
d="M78 254l24 129h91l-25 -123q-10 -52 14 -92t71.5 -63t105 -34.5t122.5 -11.5q167 0 286.5 94.5t119.5 249.5q0 78 -35.5 135t-92.5 90t-126 60t-137.5 55.5t-125.5 65t-92.5 99.5t-35.5 149q0 120 70.5 213t184.5 140.5t248 47.5q87 0 171.5 -24t141 -76t42.5 -119
l-27 -129h-90l21 107q8 42 -15.5 74t-68 49.5t-92.5 25.5t-97 8q-161 0 -277 -88.5t-116 -224.5q0 -70 35.5 -121.5t92.5 -82t126 -56.5t137.5 -56t125.5 -69t92.5 -105.5t35.5 -156.5q0 -127 -70.5 -228t-187.5 -156t-256 -55q-54 0 -109.5 8t-112.5 29t-98 51.5t-62 80
t-9 110.5z" />
    <glyph glyph-name="T" unicode="T" horiz-adv-x="1316" 
d="M297 0l16 82h195l248 1270h-459l-47 -242h-86l63 324h1178l-64 -324h-86l48 242h-459l-248 -1270h195l-17 -82h-477z" />
    <glyph glyph-name="U" unicode="U" horiz-adv-x="1613" 
d="M238 373q0 26 2.5 55.5t5.5 47.5t7.5 41t4.5 26l158 809h-195l17 82h477l-17 -82h-194l-158 -811q-18 -87 -18 -158q0 -149 98.5 -236.5t273.5 -87.5q196 0 330 101q157 117 201 342l168 850h-195l17 82h477l-17 -82h-194l-172 -871q-26 -131 -89.5 -233.5t-156.5 -165.5
q-159 -107 -373 -107q-209 0 -333.5 110t-124.5 288z" />
    <glyph glyph-name="V" unicode="V" horiz-adv-x="1423" 
d="M543 0l-221 1352h-154l16 82h416l-16 -82h-170l188 -1174l6 -78h6q17 41 35 78l647 1174h-170l17 82h422l-17 -82h-153l-750 -1352h-102z" />
    <glyph glyph-name="W" unicode="W" horiz-adv-x="2023" 
d="M414 0l-82 1352h-152l17 82h413l-16 -82h-172l63 -1162l-2 -77h6q17 40 35 77l598 1244h97l114 -1244l2 -77h6q15 40 31 77l514 1162h-172l17 82h421l-16 -82h-151l-611 -1352h-110l-113 1227q-2 16 -2 35.5t1 31.5l1 11h-6q-13 -41 -29 -78l-592 -1227h-110z" />
    <glyph glyph-name="X" unicode="X" horiz-adv-x="1280" 
d="M-68 0l17 82h149l508 643l-256 627h-141l16 82h410l-17 -82h-174l213 -523l19 -51h4q12 24 35 51l407 523h-166l17 82h422l-17 -82h-149l-516 -654l254 -616h149l-16 -82h-410l17 82h165l-210 512l-19 51h-4q-15 -24 -35 -51l-399 -512h166l-17 -82h-422z" />
    <glyph glyph-name="Y" unicode="Y" horiz-adv-x="1302" 
d="M295 0l16 82h195l106 541l-299 729h-145l16 82h414l-16 -82h-170l237 -588l17 -51h4q21 28 39 51l469 588h-170l16 82h420l-17 -82h-145l-582 -729l-106 -541h194l-16 -82h-477z" />
    <glyph glyph-name="Z" unicode="Z" horiz-adv-x="1259" 
d="M8 0l15 70l1056 1214q16 18 33.5 35t27.5 25l9 8v4q-37 -4 -78 -4h-704l-48 -242h-86l64 324h983l-14 -70l-1059 -1214q-16 -18 -33.5 -35t-27.5 -25l-9 -8v-4q37 4 78 4h733l49 246h86l-65 -328h-1010z" />
    <glyph glyph-name="bracketleft" unicode="[" horiz-adv-x="575" 
d="M68 -195l325 1680h221l-16 -82h-133l-293 -1516h133l-16 -82h-221z" />
    <glyph glyph-name="backslash" unicode="\" horiz-adv-x="808" 
d="M485 -86l-204 1602h86l204 -1602h-86z" />
    <glyph glyph-name="bracketright" unicode="]" horiz-adv-x="573" 
d="M-6 -113h133l293 1516h-133l16 82h221l-325 -1680h-222z" />
    <glyph glyph-name="asciicircum" unicode="^" horiz-adv-x="1228" 
d="M39 516l403 918h66l403 -918h-94l-342 795l-342 -795h-94z" />
    <glyph glyph-name="underscore" unicode="_" horiz-adv-x="1099" 
d="M-76 0h1016l-14 -82h-1016z" />
    <glyph glyph-name="grave" unicode="`" horiz-adv-x="1042" 
d="M434 1536l-168 227h127l148 -227h-107z" />
    <glyph glyph-name="a" unicode="a" horiz-adv-x="1095" 
d="M16 227q0 70 24.5 128t65 98t98 71.5t119 50t133 30t134.5 16t129 4.5h80q18 90 18 131q0 99 -51.5 154t-177.5 55q-50 0 -100 -10t-86 -24.5t-65 -29.5t-43 -25l-15 -10l-37 78q6 4 17 11t47.5 25.5t75.5 32t98 25t118 11.5q309 0 309 -277q0 -65 -55 -311t-55 -285
q0 -33 8.5 -55t25.5 -31t31.5 -11.5t36.5 -2.5l55 4l-16 -80q-44 -4 -64 -4q-92 0 -135 56.5t-26 156.5h-4q2 0 -14 -24t-49.5 -58.5t-78.5 -69t-111 -58.5t-137 -24q-130 0 -216.5 68t-86.5 184zM106 240q0 -79 56.5 -132t167.5 -53q103 0 198.5 68.5t157 167t86.5 203.5
l12 51h-65q-613 0 -613 -305z" />
    <glyph glyph-name="b" unicode="b" horiz-adv-x="1204" 
d="M80 0l262 1354h-195l17 80h280l-100 -523q-4 -21 -11.5 -44.5t-12.5 -36.5l-5 -13h4q58 102 166 167t230 65q178 0 275 -108t97 -296q0 -144 -47 -270.5t-124 -213t-178 -136.5t-208 -50q-123 0 -211 60.5t-118 171.5h-4q-1 -48 -11 -101l-20 -106h-86zM250 377
q0 -140 70 -229t210 -89q83 0 165.5 40.5t150 113t109.5 184.5t42 244q0 151 -75 237.5t-207 86.5q-84 0 -159.5 -34.5t-130.5 -93t-95 -134t-60 -159.5t-20 -167z" />
    <glyph glyph-name="c" unicode="c" horiz-adv-x="1116" 
d="M80 418q0 132 55 251t144.5 201t205.5 130.5t236 48.5q53 0 109 -12t109 -35.5t82 -66.5t19 -97l-18 -101h-86l14 80q6 39 -16 69t-61.5 46.5t-82.5 24.5t-85 8q-94 0 -189 -41.5t-172 -111.5t-125.5 -173t-48.5 -217q0 -170 102.5 -266.5t264.5 -96.5q62 0 122.5 15
t103 37t76 44t49.5 37l17 15l33 -78q-6 -6 -18 -16.5t-52 -37t-84 -47t-112.5 -37t-139.5 -16.5q-200 0 -326 118.5t-126 324.5z" />
    <glyph glyph-name="d" unicode="d" horiz-adv-x="1249" 
d="M82 379q0 144 47 270.5t124 213t178 136.5t208 50q122 0 211 -60.5t119 -171.5h4q2 47 10 94l86 443h-195l17 80h280l-233 -1198q-6 -38 -6 -60q0 -33 8.5 -55t25.5 -31t31.5 -11.5t36.5 -2.5l56 4l-17 -80q-43 -4 -63 -4q-92 0 -136.5 57.5t-21.5 151.5h-4
q-57 -96 -160.5 -163t-230.5 -67q-181 0 -278 107.5t-97 296.5zM172 383q0 -151 76 -237.5t209 -86.5q84 0 159.5 35.5t129.5 95t94 135.5t60 159t20 163q0 139 -71 228.5t-210 89.5q-83 0 -165.5 -41t-150 -113.5t-109.5 -184.5t-42 -243z" />
    <glyph glyph-name="e" unicode="e" horiz-adv-x="1126" 
d="M80 403q0 122 45.5 239t123.5 207t192 145t241 55q174 0 262 -99t88 -264q0 -34 -6.5 -74t-13.5 -63l-6 -23h-822q-12 -51 -12 -112q0 -155 93.5 -255t266.5 -100q55 0 110 13.5t95 32.5t72 37.5t49 31.5l16 14l33 -77q-7 -6 -19.5 -15t-52.5 -32.5t-82 -41.5
t-103.5 -32.5t-121.5 -14.5q-199 0 -323.5 116t-124.5 312zM205 606h727q8 39 8 86q0 137 -73 207t-191 70q-96 0 -186.5 -40t-167 -123.5t-117.5 -199.5z" />
    <glyph glyph-name="f" unicode="f" horiz-adv-x="632" 
d="M123 0l182 944h-192l14 80h192l11 45q16 80 45.5 143.5t66 102.5t73.5 65.5t78 38.5t69.5 16.5t56.5 4.5l63 -4l-18 -80q-16 4 -45 4q-30 0 -58 -4.5t-66.5 -22t-70 -47t-61 -85t-45.5 -130.5l-10 -47h272l-14 -80h-273l-182 -944h-88z" />
    <glyph glyph-name="g" unicode="g" horiz-adv-x="1224" 
d="M70 -279q13 -8 37 -19t94 -29.5t135 -18.5q86 0 159 21t138 66.5t109.5 127t62.5 194.5q7 44 16.5 80.5t14.5 50.5l6 15h-4q-131 -209 -365 -209q-178 0 -282.5 108t-104.5 293q0 87 22 177.5t67.5 175t108 150t150.5 105.5t189 40q79 0 145 -17.5t120 -64.5t73 -119h4
q-4 14 2 51q12 68 44.5 96.5t98.5 28.5h152l-15 -80h-139q-46 0 -55 -45l-174 -903q-18 -91 -56.5 -164t-89.5 -121.5t-115 -80.5t-131.5 -46t-140.5 -14q-179 0 -326 80zM176 403q0 -150 79.5 -234.5t219.5 -84.5q87 0 161 38t124 100t85.5 141.5t51.5 162.5t16 164
q0 144 -77 209.5t-209 65.5q-104 0 -191.5 -50t-143 -131t-86 -180t-30.5 -201z" />
    <glyph glyph-name="h" unicode="h" horiz-adv-x="1255" 
d="M80 0l262 1354h-184l16 80h270l-110 -580q-4 -21 -11 -44.5t-11 -36.5l-5 -13h4q17 34 46 71t73.5 76.5t96 70.5t119 51t136.5 20q137 0 209 -67t72 -191q0 -68 -51 -323.5t-51 -291.5q0 -35 8.5 -56.5t26 -30.5t31 -11t36.5 -2l55 4l-16 -80q-44 -4 -64 -4
q-26 0 -51 6.5t-53.5 22t-46 49.5t-17.5 82q0 37 51.5 292.5t51.5 323.5q0 96 -52 144.5t-141 48.5q-123 0 -235 -67.5t-186.5 -178t-100.5 -240.5l-92 -479h-86z" />
    <glyph glyph-name="i" unicode="i" horiz-adv-x="557" 
d="M348 1284l31 150h110l-30 -150h-111zM145 162q0 9 9 61l141 721h-195l17 80h280l-155 -788q-6 -38 -6 -60q0 -33 8.5 -55t25.5 -31t31.5 -11.5t36.5 -2.5l55 4l-16 -80q-44 -4 -64 -4q-26 0 -51 6t-53.5 22t-46 51.5t-17.5 86.5z" />
    <glyph glyph-name="j" unicode="j" horiz-adv-x="522" 
d="M358 1284l29 150h111l-29 -150h-111zM115 -43l190 987h-194l16 80h281l-207 -1065q-19 -97 -55.5 -169.5t-76.5 -111.5t-89 -62t-84.5 -29.5t-71.5 -6.5l-72 4l17 80q16 -4 45 -4t57.5 5t68 24t71 49t60.5 87t44 132z" />
    <glyph glyph-name="k" unicode="k" horiz-adv-x="1048" 
d="M78 0l266 1354h-194l16 80h280l-159 -813h151l353 323h-150l16 80h404l-17 -80h-135l-393 -362v-4q24 -17 49 -70l154 -340q11 -24 18 -36t21.5 -27.5t35.5 -22t50 -6.5l57 4l-16 -80q-31 -4 -60 -4q-43 0 -74 11.5t-55 39t-37.5 52t-35.5 71.5l-150 326q-13 28 -33 36.5
t-63 8.5h-105l-108 -541h-86z" />
    <glyph glyph-name="l" unicode="l" horiz-adv-x="524" 
d="M117 162q0 17 8 63l219 1129h-194l16 80h280l-231 -1196q-8 -46 -8 -64q0 -33 8.5 -54.5t25.5 -30t31.5 -11t36.5 -2.5l56 4l-17 -80q-34 -4 -63 -4q-26 0 -51 6t-53.5 22t-46 51.5t-17.5 86.5z" />
    <glyph glyph-name="m" unicode="m" horiz-adv-x="1988" 
d="M123 0l174 899q7 45 -37 45h-149l16 80h162q56 0 78 -20t22 -62q0 -20 -13.5 -85t-27.5 -97h4q64 123 190.5 206t260.5 83q146 0 207 -70.5t61 -208.5h4q64 121 186 200t255 79q138 0 210 -69t72 -192q0 -65 -51 -320.5t-51 -291.5q0 -35 8.5 -56.5t26 -30.5t31 -11
t36.5 -2l55 4l-16 -80q-43 -4 -63 -4q-26 0 -51 6.5t-53.5 22t-46 49.5t-17.5 82q0 38 51 293.5t51 318.5q0 96 -47 148.5t-158 52.5q-87 0 -169.5 -43t-143 -111.5t-102.5 -150.5t-58 -164l-96 -500h-86l119 618q18 95 18 156q0 92 -44.5 143.5t-152.5 51.5
q-86 0 -169 -41.5t-145.5 -108.5t-107 -151t-61.5 -170l-96 -498h-86z" />
    <glyph glyph-name="n" unicode="n" horiz-adv-x="1298" 
d="M123 0l174 899q7 45 -37 45h-149l16 80h162q56 0 78 -20t22 -62q0 -20 -13.5 -85t-27.5 -97h4q22 45 63 92t100 93t142.5 75t173.5 29q134 0 204.5 -66.5t70.5 -189.5q0 -68 -51 -324.5t-51 -292.5q0 -35 8.5 -56.5t26 -30.5t31 -11t36.5 -2l55 4l-16 -80q-44 -4 -64 -4
q-26 0 -51 6.5t-53.5 22t-46 49.5t-17.5 82q0 37 51.5 292.5t51.5 323.5q0 97 -51 145t-146 48q-89 0 -176 -39.5t-155.5 -105.5t-118.5 -155.5t-68 -185.5l-92 -479h-86z" />
    <glyph glyph-name="o" unicode="o" horiz-adv-x="1273" 
d="M80 420q0 127 53.5 244.5t141 201t204 133.5t238.5 50q197 0 319.5 -123.5t122.5 -315.5q0 -129 -54 -247.5t-142 -202.5t-204 -134.5t-237 -50.5q-197 0 -319.5 125t-122.5 320zM170 422q0 -159 101 -261t261 -102q99 0 196 43.5t172.5 116.5t122 176t46.5 213
q0 156 -101 256.5t-261 100.5q-136 0 -259.5 -72.5t-200.5 -199t-77 -271.5z" />
    <glyph glyph-name="p" unicode="p" horiz-adv-x="1249" 
d="M41 -410l256 1309q7 45 -37 45h-149l16 80h162q56 0 78 -20.5t22 -61.5q0 -34 -29 -123h5q58 99 159.5 164.5t233.5 65.5q179 0 277 -108t98 -296q0 -144 -46.5 -270.5t-123.5 -213t-177 -136.5t-206 -50q-124 0 -214 59.5t-120 172.5h-4q-3 -48 -13 -101l-102 -516h-86z
M295 383q0 -140 72 -232t208 -92q83 0 165.5 40.5t150 113t109.5 184.5t42 244q0 151 -75.5 237.5t-208.5 86.5q-103 0 -192.5 -53.5t-147.5 -138t-90.5 -187t-32.5 -203.5z" />
    <glyph glyph-name="q" unicode="q" horiz-adv-x="1204" 
d="M82 377q0 145 47 272t124.5 213.5t179 136.5t208.5 50q122 0 210 -60t118 -170h4q2 35 10 82l23 123h86l-265 -1356h195l-16 -78h-281l102 516q4 24 11.5 49t12.5 39l5 13h-4q-59 -100 -159.5 -166t-235.5 -66q-179 0 -277 107.5t-98 294.5zM172 383q0 -151 76.5 -237.5
t208.5 -86.5q84 0 159.5 35.5t130 95t95 135.5t60.5 159t20 163q0 139 -71 228.5t-210 89.5q-83 0 -166 -41t-150.5 -113.5t-110 -184.5t-42.5 -243z" />
    <glyph glyph-name="r" unicode="r" horiz-adv-x="729" 
d="M123 0l174 899q7 45 -37 45h-149l16 80h162q56 0 78 -20t22 -62q0 -20 -16 -90.5t-29 -106.5h4q60 123 159 205t222 82q27 0 62 -6l-19 -86q-32 4 -45 4q-72 0 -138 -37.5t-114 -96.5t-88 -134.5t-64.5 -146.5t-37.5 -138l-76 -391h-86z" />
    <glyph glyph-name="s" unicode="s" horiz-adv-x="946" 
d="M27 207l18 98h86l-16 -88q-8 -39 9 -69t46.5 -46t71 -26.5t75 -13.5t66.5 -3q76 0 144 23.5t114.5 73t46.5 114.5q0 44 -22 79t-58 57.5t-82 45t-94 40t-94 42.5t-82 52.5t-58 71t-22 96.5q0 132 117 213.5t274 81.5q131 0 217.5 -54t67.5 -145l-23 -109h-86l21 99
q7 35 -11.5 61t-54.5 39t-73.5 19t-77.5 6q-107 0 -194 -54t-87 -147q0 -42 22 -76.5t58 -56.5t82 -44t94 -39t94 -41.5t82 -52t58 -70t22 -95.5q0 -134 -112 -224t-299 -90q-93 0 -173.5 23.5t-131 78t-35.5 130.5z" />
    <glyph glyph-name="t" unicode="t" horiz-adv-x="636" 
d="M170 272q0 52 12 119l107 553h-195l17 80h194l55 285h86l-55 -285h268l-16 -80h-268l-109 -567q-10 -49 -10 -101q0 -204 182 -204l60 4l-17 -80q-16 -4 -43 -4q-268 0 -268 280z" />
    <glyph glyph-name="u" unicode="u" horiz-adv-x="1300" 
d="M164 233q0 60 16 142l109 569h-193l15 80h280l-119 -614q-20 -98 -20 -164q0 -90 45 -138.5t156 -48.5q121 0 232 73t182 184t94 233l75 395h-192l14 80h281l-154 -788q-6 -38 -6 -60q0 -33 8.5 -55t25.5 -31t31.5 -11.5t36.5 -2.5l56 4l-17 -80q-43 -4 -63 -4
q-57 0 -96 21t-54 56.5t-17 81t15 93.5h-4q-18 -32 -44 -65t-69.5 -71.5t-93 -68t-117 -49t-139.5 -19.5q-57 0 -105 14t-86.5 43.5t-60.5 80.5t-22 120z" />
    <glyph glyph-name="v" unicode="v" horiz-adv-x="1126" 
d="M406 0l-181 944h-139l14 80h389l-14 -80h-162l144 -766l6 -65h4q13 34 31 65l442 766h-162l15 80h397l-14 -80h-140l-549 -944h-81z" />
    <glyph glyph-name="w" unicode="w" horiz-adv-x="1732" 
d="M354 0l-131 944h-135l14 80h390l-15 -80h-166l99 -772l2 -66h4q12 35 28 66l453 848h94l121 -848l4 -66h4q11 35 27 66l401 772h-166l15 80h397l-14 -80h-135l-500 -944h-86l-125 842l-6 67h-4q-15 -36 -31 -67l-453 -842h-86z" />
    <glyph glyph-name="x" unicode="x" horiz-adv-x="1083" 
d="M-63 0l14 80h162l364 459l-147 366q-9 24 -18.5 31.5t-32.5 7.5h-148l14 80h168q36 0 53 -15.5t33 -56.5l121 -299l19 -51h4q12 24 37 53l290 369h232l-15 -80h-178l-336 -416l148 -360q20 -48 47.5 -70t89.5 -22l72 4l-17 -80q-36 -4 -71 -4q-50 0 -85 12t-59 39
t-38 52.5t-31 70.5l-97 246l-18 51h-4q-14 -22 -37 -53l-323 -414h-213z" />
    <glyph glyph-name="y" unicode="y" horiz-adv-x="1150" 
d="M-45 -305q6 -5 16 -12t41 -19t62 -12q126 0 239 184l103 168l-191 940h-139l16 80h392l-17 -80h-162l154 -780q3 -14 4 -28.5t1 -21.5l-1 -8h4q13 27 31 58l457 780h-162l16 80h400l-17 -80h-141l-688 -1159q-128 -215 -303 -215q-48 0 -89 14t-58 28l-17 13z" />
    <glyph glyph-name="z" unicode="z" horiz-adv-x="1038" 
d="M-20 0l12 70l766 780q90 94 96 94v4q-34 -4 -102 -4h-467l-37 -194h-84l53 274h776l-14 -70l-768 -780q-23 -23 -46 -45.5t-37.5 -36t-14.5 -12.5v-4q36 4 104 4h524l39 194h84l-53 -274h-831z" />
    <glyph glyph-name="braceleft" unicode="{" horiz-adv-x="624" 
d="M158 57q0 44 14 123l37 193q6 38 6 65q0 44 -13.5 78.5t-33 52.5t-39.5 29.5t-33 14.5l-14 3l16 82q7 1 19.5 4t45.5 19t60.5 40t55.5 72t40 109l33 166q15 74 39 134t49.5 98t59 66.5t61 42.5t61 22.5t54 10t45.5 1.5l-14 -80q-21 0 -42 -3t-57.5 -19.5t-65.5 -45.5
t-58 -87t-44 -138l-37 -190q-12 -61 -38.5 -110.5t-55.5 -76.5t-56 -45t-45 -24l-18 -5v-4q5 -2 13 -7t28 -23t35.5 -39t28 -57t12.5 -76q0 -28 -6 -58l-43 -217q-12 -61 -12 -106q0 -50 13 -87t31 -55.5t43 -29t42.5 -13t36.5 -2.5l-17 -80q-6 -2 -18 -2q-19 0 -42 4
t-56 20t-58.5 41.5t-44 74.5t-18.5 114z" />
    <glyph glyph-name="bar" unicode="|" horiz-adv-x="624" 
d="M276 -317v1925h89v-1925h-89z" />
    <glyph glyph-name="braceright" unicode="}" horiz-adv-x="626" 
d="M-78 -197l15 82q23 0 43.5 3t57 19.5t65 45.5t57 87t43.5 138l41 215q12 64 38.5 115t55.5 78t56 45t45 23l18 5v5q-5 2 -12.5 7t-27.5 22t-35 37.5t-27.5 55.5t-12.5 74q0 28 6 58l37 192q12 62 12 107q0 50 -13.5 86.5t-31 55t-43 29.5t-42.5 13t-36 2l17 80
q22 2 47.5 -0.5t61 -17t62.5 -40t46.5 -76t19.5 -118.5q0 -44 -14 -123l-33 -168q-6 -38 -6 -66q0 -44 13.5 -78.5t33 -52.5t39.5 -29.5t34 -14.5l13 -3l-16 -82q-7 -1 -19.5 -4t-45.5 -19t-60.5 -39.5t-55.5 -71.5t-40 -109l-37 -191q-20 -102 -58 -177t-76.5 -113t-87 -59
t-81 -25.5t-66.5 -2.5z" />
    <glyph glyph-name="asciitilde" unicode="~" horiz-adv-x="1202" 
d="M152 436q0 152 64 223.5t171 71.5q54 0 98.5 -16.5t72 -41.5t56.5 -54.5t53 -54.5t61 -41.5t81 -16.5q39 0 68.5 16.5t45 39.5t25.5 55t12.5 56.5t2.5 49.5h81q0 -152 -64 -223.5t-171 -71.5q-54 0 -98.5 16.5t-72 41.5t-56.5 54.5t-53 54.5t-61 41.5t-81 16.5
q-39 0 -68.5 -16.5t-45 -39.5t-25.5 -55t-12.5 -56.5t-2.5 -49.5h-81z" />
    <glyph glyph-name="uni00A0" unicode="&#xa0;" horiz-adv-x="587" 
 />
    <glyph glyph-name="exclamdown" unicode="&#xa1;" horiz-adv-x="436" 
d="M215 899l27 125h120l-26 -125h-121zM-23 -410l211 1076h88l-210 -1076h-89z" />
    <glyph glyph-name="cent" unicode="&#xa2;" horiz-adv-x="1116" 
d="M416 -27l33 174q-157 19 -245.5 128.5t-88.5 293.5q0 94 22.5 191.5t69.5 189.5t112 165t156.5 119.5t196.5 51.5l33 172h88l-35 -174q77 -9 138 -42t94 -73.5t54.5 -79.5t27.5 -65l7 -27l-82 -32q-2 10 -6 26t-25 56.5t-50 72t-85 57t-126 25.5q-114 0 -209 -52
t-157 -140t-96 -202t-34 -239q0 -154 76 -246t231 -92q68 0 132.5 24.5t107 59.5t75.5 70t49 59l15 25l80 -33q-3 -6 -9 -16t-27 -39t-45 -55.5t-63 -59.5t-80.5 -57.5t-98 -42.5t-115.5 -21l-33 -172h-88z" />
    <glyph glyph-name="sterling" unicode="&#xa3;" horiz-adv-x="1234" 
d="M-14 0l16 82h184l117 600h-135l16 82h133l68 342q28 147 157 249.5t298 102.5q55 0 105.5 -11t84 -26.5t59 -31t37.5 -26.5l11 -11l-68 -62q-3 3 -9.5 8.5t-28.5 20t-47 25t-64 19.5t-80 9q-147 0 -246.5 -82.5t-122.5 -202.5l-63 -323h405l-16 -82h-406l-117 -600h668
l49 246h86l-63 -328h-1028z" />
    <glyph glyph-name="yen" unicode="&#xa5;" horiz-adv-x="1265" 
d="M463 0l90 455h-334l14 82h334l19 86l-41 98h-275l17 82h225l-256 631h96l226 -566l61 -161h4q62 87 117 159l448 568h109l-502 -631h221l-16 -82h-270l-76 -98l-19 -86h328l-14 -82h-328l-90 -455h-88z" />
    <glyph glyph-name="section" unicode="&#xa7;" horiz-adv-x="778" 
d="M193 127l53 969q8 155 110.5 258.5t261.5 103.5q54 0 101.5 -17t68.5 -35l21 -17l-61 -62q-6 5 -16.5 13t-45 21t-70.5 13q-119 0 -196.5 -78.5t-83.5 -195.5l-57 -973h-86zM-2 -57l61 61q6 -5 16 -13t44.5 -21t70.5 -13q119 0 197 78.5t84 195.5l57 973h86l-53 -968
q-8 -155 -111 -259t-262 -104q-54 0 -101.5 17.5t-68.5 35.5z" />
    <glyph glyph-name="dieresis" unicode="&#xa8;" horiz-adv-x="1042" 
d="M518 1614l31 149h110l-30 -149h-111zM174 1614l31 149h110l-30 -149h-111z" />
    <glyph glyph-name="copyright" unicode="&#xa9;" horiz-adv-x="1689" 
d="M143 717q0 152 57 289.5t153.5 236.5t230 157t280.5 58q150 0 285 -58t232.5 -157t154.5 -236t57 -290t-57 -291t-154.5 -236.5t-232.5 -156.5t-285 -58q-197 0 -362.5 98t-262 269t-96.5 375zM236 717q0 -183 82.5 -333.5t227 -236.5t318.5 -86q177 0 323.5 86
t230 236.5t83.5 333.5q0 136 -49.5 257.5t-134 208.5t-202.5 138t-251 51q-131 0 -247.5 -51t-200 -138t-132 -208.5t-48.5 -257.5zM449 715q0 82 28.5 158.5t81.5 138t139 98.5t191 37q60 0 116 -18.5t94 -45t67.5 -53t43.5 -44.5l13 -19l-68 -60q-4 6 -11.5 16.5
t-33.5 36.5t-54.5 46t-73.5 36.5t-91 16.5q-165 0 -257.5 -101.5t-92.5 -240.5q0 -65 22.5 -125.5t64.5 -109t110.5 -78t152.5 -29.5q48 0 92.5 15.5t74.5 37.5t53 44.5t33 37.5l11 16l68 -59q-5 -7 -14.5 -19.5t-42 -43.5t-68.5 -54.5t-93 -43t-116 -19.5
q-106 0 -191.5 36.5t-139 97.5t-81.5 136.5t-28 157.5z" />
    <glyph glyph-name="ordfeminine" unicode="&#xaa;" horiz-adv-x="884" 
d="M449 782q-75 0 -135 43t-60 125q0 50 19 90t47 65.5t70 44.5t79.5 28t84 14.5t73.5 6.5t59 1h43l2 10q15 80 -15.5 124t-107.5 44q-44 0 -91 -15t-72 -29l-25 -15l-35 65q11 8 31 19.5t79 31t115 19.5q207 0 207 -184q0 -37 -10 -82l-78 -393h-80l21 104h-4
q-3 -5 -9.5 -13t-28 -28t-45 -35.5t-60 -28t-74.5 -12.5zM465 858q59 0 115 46t90 106.5t45 115.5h-27q-346 0 -346 -170q0 -43 31 -70.5t92 -27.5zM168 539l14 75h518l-14 -75h-518z" />
    <glyph glyph-name="guillemotleft" unicode="&#xab;" horiz-adv-x="1005" 
d="M684 158l-262 426l418 415h116l-432 -426l258 -415h-98zM367 158l-263 426l394 415h116l-407 -426l258 -415h-98z" />
    <glyph glyph-name="logicalnot" unicode="&#xac;" horiz-adv-x="1296" 
d="M184 702v82h934v-448h-86v366h-848z" />
    <glyph glyph-name="uni00AD" unicode="&#xad;" horiz-adv-x="1079" 
d="M244 539l14 82h565l-14 -82h-565z" />
    <glyph glyph-name="registered" unicode="&#xae;" horiz-adv-x="1689" 
d="M143 717q0 152 57 289.5t153.5 236.5t230 157t280.5 58q150 0 285 -58t232.5 -157t154.5 -236t57 -290t-57 -291t-154.5 -236.5t-232.5 -156.5t-285 -58q-197 0 -362.5 98t-262 269t-96.5 375zM236 717q0 -183 82.5 -333.5t227 -236.5t318.5 -86q177 0 323.5 86
t230 236.5t83.5 333.5q0 136 -49.5 257.5t-134 208.5t-202.5 138t-251 51q-131 0 -247.5 -51t-200 -138t-132 -208.5t-48.5 -257.5zM627 307v819h272q105 0 171.5 -65.5t66.5 -171.5q0 -87 -45.5 -145t-112.5 -74v-4q9 -10 27 -45l161 -314h-100l-174 342h-176v-342h-90z
M717 727h172q71 0 113 43.5t42 118.5q0 73 -42 114t-113 41h-172v-317z" />
    <glyph glyph-name="macron" unicode="&#xaf;" horiz-adv-x="1042" 
d="M164 1610l14 82h490l-15 -82h-489z" />
    <glyph glyph-name="degree" unicode="&#xb0;" horiz-adv-x="761" 
d="M453 920q-104 0 -169 64.5t-65 164.5q0 119 96 212t217 93q102 0 167 -65t65 -164q0 -120 -97 -212.5t-214 -92.5zM457 1001q87 0 153 67t66 157q0 64 -41.5 105.5t-106.5 41.5q-87 0 -154 -67t-67 -156q0 -64 41 -106t109 -42z" />
    <glyph glyph-name="plusminus" unicode="&#xb1;" horiz-adv-x="1228" 
d="M82 539v82h485v538h88v-538h484v-82h-484v-539h-88v539h-485zM123 -231h975v-82h-975v82z" />
    <glyph glyph-name="twosuperior" unicode="&#xb2;" horiz-adv-x="729" 
d="M137 866q2 79 35.5 145t85 112t113.5 86.5t123 77.5t111.5 75t82 88t31.5 109q0 62 -42 102.5t-114 40.5q-52 0 -105.5 -26t-80.5 -52l-27 -25l-43 58l13 13t35 28.5t55.5 36t71 28.5t83.5 13q115 0 174.5 -59.5t59.5 -153.5q0 -68 -27.5 -124.5t-72 -96.5t-99.5 -76
t-113.5 -70t-109.5 -69.5t-91 -83.5t-55 -103h394l22 117h78l-37 -191h-551z" />
    <glyph glyph-name="threesuperior" unicode="&#xb3;" horiz-adv-x="741" 
d="M426 846q-52 0 -100.5 13.5t-80.5 33t-57.5 39.5t-37.5 34l-11 13l62 49q3 -4 9.5 -11.5t28 -26t46 -33t63.5 -26t80 -11.5q93 0 167.5 71t74.5 172q0 73 -56 116.5t-131 43.5h-65l-15 49l285 273q12 11 24 20.5t18 13.5l7 4v5q-22 -7 -55 -7h-279l-22 -116h-78l37 190
h520l-10 -53l-322 -309q33 -3 67.5 -15t71 -37t60 -71t23.5 -107q0 -125 -97 -221t-227 -96z" />
    <glyph glyph-name="acute" unicode="&#xb4;" horiz-adv-x="1042" 
d="M225 1536l238 227h139l-258 -227h-119z" />
    <glyph glyph-name="mu" unicode="&#xb5;" horiz-adv-x="1179" 
d="M125 -68l-68 -342h-86l279 1434h86l-119 -614q-18 -89 -18 -160q0 -91 45 -141t157 -50q93 0 181.5 43t155 112.5t113.5 157t64 177.5l93 475h86l-199 -1024h-86l33 170l26 94h-4q-23 -44 -63 -90t-99 -93t-142 -76.5t-173 -29.5q-172 0 -240 109h-4q-10 -109 -18 -152z
" />
    <glyph glyph-name="mu" unicode="&#x3bc;" horiz-adv-x="1179" 
d="M125 -68l-68 -342h-86l279 1434h86l-119 -614q-18 -89 -18 -160q0 -91 45 -141t157 -50q93 0 181.5 43t155 112.5t113.5 157t64 177.5l93 475h86l-199 -1024h-86l33 170l26 94h-4q-23 -44 -63 -90t-99 -93t-142 -76.5t-173 -29.5q-172 0 -240 109h-4q-10 -109 -18 -152z
" />
    <glyph glyph-name="paragraph" unicode="&#xb6;" horiz-adv-x="1136" 
d="M451 -102l114 596q-165 0 -286 116t-121 289q0 141 82.5 266t213.5 197t271 72h451l-15 -82h-342l-282 -1454h-86zM664 -102l256 1325h86l-256 -1325h-86z" />
    <glyph glyph-name="periodcentered" unicode="&#xb7;" horiz-adv-x="573" 
d="M207 520l24 129h125l-24 -129h-125z" />
    <glyph glyph-name="cedilla" unicode="&#xb8;" horiz-adv-x="1042" 
d="M305 -188l92 225l64 -10l-2 -17l-51 -133q51 -8 84.5 -42t33.5 -89q0 -54 -34 -93t-80.5 -55t-96.5 -16q-27 0 -51.5 2.5t-35.5 5.5l-11 2l16 76q33 -10 80 -10q50 0 88.5 20.5t38.5 67.5q0 30 -28.5 48t-81.5 18h-25z" />
    <glyph glyph-name="onesuperior" unicode="&#xb9;" horiz-adv-x="626" 
d="M131 866l14 74h217l121 629l19 76h-4q-21 -27 -56 -56l-125 -104l-45 59l250 211h78l-160 -815h211l-14 -74h-506z" />
    <glyph glyph-name="ordmasculine" unicode="&#xba;" horiz-adv-x="985" 
d="M530 784q-126 0 -202 77.5t-76 199.5q0 159 120.5 277t276.5 118q126 0 203.5 -78t77.5 -198q0 -161 -122.5 -278.5t-277.5 -117.5zM539 860q119 0 215 94t96 224q0 89 -58.5 145.5t-150.5 56.5q-121 0 -215 -92.5t-94 -220.5q0 -92 57.5 -149.5t149.5 -57.5zM180 539
l15 75h602l-15 -75h-602z" />
    <glyph glyph-name="guillemotright" unicode="&#xbb;" horiz-adv-x="1007" 
d="M385 158l408 426l-258 415h98l262 -426l-393 -415h-117zM43 158l432 426l-258 415h98l263 -426l-418 -415h-117z" />
    <glyph glyph-name="onequarter" unicode="&#xbc;" horiz-adv-x="1882" 
d="M512 0h-96l966 1434h95zM115 545l14 73h217l121 629l18 76h-4q-20 -26 -55 -55l-125 -105l-45 60l250 211h78l-160 -816h211l-14 -73h-506zM1460 0l49 248h-440l10 53l570 588h63l-110 -567h139l-15 -74h-139l-49 -248h-78zM1192 322h332l69 358q3 16 8.5 37t10.5 34
l4 13h-4q-27 -37 -60 -70l-360 -368v-4z" />
    <glyph glyph-name="onehalf" unicode="&#xbd;" horiz-adv-x="1835" 
d="M496 0h-97l967 1434h94zM98 545l15 73h217l121 629l18 76h-4q-20 -26 -55 -55l-125 -105l-45 60l249 211h78l-159 -816h210l-14 -73h-506zM1063 0q2 79 35.5 145t85 112t113.5 86.5t123 77t111.5 74.5t82 88t31.5 109q0 62 -42 103t-114 41q-52 0 -105.5 -26t-80.5 -52
l-27 -25l-43 58l13 13t35 28t55.5 35.5t71 28.5t83.5 13q115 0 174 -59.5t59 -153.5q0 -68 -27 -124t-72 -96.5t-100 -76t-113 -69.5t-109 -69.5t-91 -83.5t-55 -103h393l23 116h78l-37 -190h-551z" />
    <glyph glyph-name="threequarters" unicode="&#xbe;" horiz-adv-x="1923" 
d="M545 0h-96l966 1434h94zM1493 0l49 248h-440l10 53l569 588h64l-111 -567h140l-15 -74h-139l-49 -248h-78zM1225 322h331l70 358q3 16 8.5 37t9.5 34l5 13h-4q-27 -37 -60 -70l-360 -368v-4zM408 524q-52 0 -100.5 13.5t-80.5 33t-57.5 39.5t-37.5 34l-11 13l61 50
q3 -4 9.5 -11.5t28.5 -26.5t46.5 -33t63.5 -26t80 -12q92 0 166.5 71.5t74.5 172.5q0 73 -55.5 116t-130.5 43h-66l-14 50l285 272q12 11 24.5 21t18.5 14l6 4v4q-22 -6 -55 -6h-279l-23 -117h-77l37 191h520l-11 -54l-321 -309q25 -2 52 -9.5t58 -24.5t55 -41.5t40 -64.5
t16 -89q0 -125 -96.5 -221.5t-226.5 -96.5z" />
    <glyph glyph-name="questiondown" unicode="&#xbf;" horiz-adv-x="911" 
d="M532 899l27 125h121l-27 -125h-121zM-14 -133q0 74 24.5 138t64.5 111.5t89 90.5t101 83.5t97 81.5t79.5 94.5t47.5 113.5l19 86h88l-18 -86q-15 -71 -51 -133t-81 -107.5t-96 -88t-98.5 -82.5t-86 -82.5t-62 -97.5t-23.5 -118q0 -95 67 -155t183 -60q68 0 137.5 21.5
t104.5 42.5l36 22l35 -76q-6 -4 -16.5 -10.5t-44.5 -23t-69.5 -29t-86.5 -23t-100 -10.5q-157 0 -248.5 82t-91.5 215z" />
    <glyph glyph-name="Agrave" unicode="&#xc0;" horiz-adv-x="1452" 
d="M-96 0l16 82h152l770 1352h94l242 -1352h153l-16 -82h-418l16 82h174l-73 414h-608l-236 -414h174l-16 -82h-424zM453 578h546l-118 669l-9 78h-4q-14 -41 -34 -78zM877 1536l-168 227h127l147 -227h-106z" />
    <glyph glyph-name="Aacute" unicode="&#xc1;" horiz-adv-x="1452" 
d="M-96 0l16 82h152l770 1352h94l242 -1352h153l-16 -82h-418l16 82h174l-73 414h-608l-236 -414h174l-16 -82h-424zM453 578h546l-118 669l-9 78h-4q-14 -41 -34 -78zM827 1536l238 227h139l-258 -227h-119z" />
    <glyph glyph-name="Acircumflex" unicode="&#xc2;" horiz-adv-x="1452" 
d="M-96 0l16 82h152l770 1352h94l242 -1352h153l-16 -82h-418l16 82h174l-73 414h-608l-236 -414h174l-16 -82h-424zM453 578h546l-118 669l-9 78h-4q-14 -41 -34 -78zM678 1536l209 227h123l118 -227h-102l-82 164h-4l-147 -164h-115z" />
    <glyph glyph-name="Atilde" unicode="&#xc3;" horiz-adv-x="1452" 
d="M-96 0l16 82h152l770 1352h94l242 -1352h153l-16 -82h-418l16 82h174l-73 414h-608l-236 -414h174l-16 -82h-424zM453 578h546l-118 669l-9 78h-4q-14 -41 -34 -78zM623 1542q20 108 71 164.5t127 56.5q38 0 67 -15t46.5 -36.5t32.5 -43.5t34.5 -37t42.5 -15
q73 0 107 141h90q-20 -107 -72 -164t-127 -57q-38 0 -67 15t-46.5 37t-32.5 43.5t-34.5 36.5t-42.5 15q-76 0 -106 -141h-90z" />
    <glyph glyph-name="Adieresis" unicode="&#xc4;" horiz-adv-x="1452" 
d="M-96 0l16 82h152l770 1352h94l242 -1352h153l-16 -82h-418l16 82h174l-73 414h-608l-236 -414h174l-16 -82h-424zM453 578h546l-118 669l-9 78h-4q-14 -41 -34 -78zM1042 1614l31 149h111l-31 -149h-111zM698 1614l31 149h111l-31 -149h-111z" />
    <glyph glyph-name="Aring" unicode="&#xc5;" horiz-adv-x="1452" 
d="M-96 0l16 82h152l770 1352h94l242 -1352h153l-16 -82h-418l16 82h174l-73 414h-608l-236 -414h174l-16 -82h-424zM453 578h546l-118 669l-9 78h-4q-14 -41 -34 -78zM913 1501q-60 0 -98.5 37t-38.5 94q0 69 55 120.5t121 51.5q62 0 101 -36.5t39 -94.5q0 -69 -54 -120.5
t-125 -51.5zM918 1577q41 0 66.5 27t25.5 69q0 27 -16.5 42.5t-45.5 15.5q-35 0 -62.5 -28t-27.5 -69q0 -26 16 -41.5t44 -15.5z" />
    <glyph glyph-name="AE" unicode="&#xc6;" horiz-adv-x="1857" 
d="M-88 0l16 82h138l768 1270h-166l16 82h1174l-54 -267h-86l37 185h-620l-115 -588h571l-16 -82h-571l-117 -600h661l37 186h86l-53 -268h-1020l16 82h185l116 600h-391l-362 -600h166l-17 -82h-399zM575 764h357l115 588h-115z" />
    <glyph glyph-name="Ccedilla" unicode="&#xc7;" horiz-adv-x="1525" 
d="M606 -188l68 168q-249 25 -393 192t-144 422q0 141 47 274t130 238.5t191 185.5t236.5 123t259.5 43q45 0 94.5 -5t110.5 -15.5t112.5 -32t94 -51t62 -76t8.5 -102.5l-27 -138h-90l23 123q11 57 -25 101t-101 67t-132 34t-132 11q-148 0 -289 -61t-246.5 -164
t-170 -246.5t-64.5 -300.5q0 -242 143.5 -392.5t377.5 -150.5q68 0 145 13t152 38.5t129 69.5t65 99l23 112h90l-27 -133q-15 -72 -77 -129t-148.5 -89t-176.5 -48.5t-173 -16.5h-7l-36 -98q51 -8 84.5 -42t33.5 -89q0 -54 -34 -93t-80.5 -55t-96.5 -16q-27 0 -51.5 2.5
t-35.5 5.5l-11 2l17 76q32 -10 79 -10q50 0 88.5 20.5t38.5 67.5q0 30 -28.5 48t-81.5 18h-25z" />
    <glyph glyph-name="Egrave" unicode="&#xc8;" horiz-adv-x="1263" 
d="M-4 0l16 82h193l248 1270h-195l16 82h990l-54 -267h-86l37 185h-620l-115 -588h571l-16 -82h-571l-117 -600h661l39 197h86l-55 -279h-1028zM788 1536l-167 227h127l147 -227h-107z" />
    <glyph glyph-name="Eacute" unicode="&#xc9;" horiz-adv-x="1263" 
d="M-4 0l16 82h193l248 1270h-195l16 82h990l-54 -267h-86l37 185h-620l-115 -588h571l-16 -82h-571l-117 -600h661l39 197h86l-55 -279h-1028zM739 1536l238 227h139l-258 -227h-119z" />
    <glyph glyph-name="Ecircumflex" unicode="&#xca;" horiz-adv-x="1263" 
d="M-4 0l16 82h193l248 1270h-195l16 82h990l-54 -267h-86l37 185h-620l-115 -588h571l-16 -82h-571l-117 -600h661l39 197h86l-55 -279h-1028zM590 1536l209 227h123l118 -227h-102l-82 164h-4l-147 -164h-115z" />
    <glyph glyph-name="Edieresis" unicode="&#xcb;" horiz-adv-x="1263" 
d="M-4 0l16 82h193l248 1270h-195l16 82h990l-54 -267h-86l37 185h-620l-115 -588h571l-16 -82h-571l-117 -600h661l39 197h86l-55 -279h-1028zM954 1614l31 149h111l-31 -149h-111zM610 1614l31 149h111l-31 -149h-111z" />
    <glyph glyph-name="Igrave" unicode="&#xcc;" horiz-adv-x="702" 
d="M-4 0l16 82h193l248 1270h-195l16 82h478l-17 -82h-194l-248 -1270h194l-16 -82h-475zM496 1536l-168 227h127l147 -227h-106z" />
    <glyph glyph-name="Iacute" unicode="&#xcd;" horiz-adv-x="702" 
d="M-4 0l16 82h193l248 1270h-195l16 82h478l-17 -82h-194l-248 -1270h194l-16 -82h-475zM446 1536l238 227h139l-258 -227h-119z" />
    <glyph glyph-name="Icircumflex" unicode="&#xce;" horiz-adv-x="702" 
d="M-4 0l16 82h193l248 1270h-195l16 82h478l-17 -82h-194l-248 -1270h194l-16 -82h-475zM297 1536l209 227h123l119 -227h-103l-82 164h-4l-147 -164h-115z" />
    <glyph glyph-name="Idieresis" unicode="&#xcf;" horiz-adv-x="702" 
d="M-4 0l16 82h193l248 1270h-195l16 82h478l-17 -82h-194l-248 -1270h194l-16 -82h-475zM662 1614l30 149h111l-31 -149h-110zM317 1614l31 149h111l-31 -149h-111z" />
    <glyph glyph-name="Eth" unicode="&#xd0;" horiz-adv-x="1605" 
d="M-4 0l16 82h193l117 600h-164l16 82h164l115 588h-195l16 82h625q287 0 449.5 -145t162.5 -408q0 -180 -63 -341.5t-174 -280.5t-271 -189t-344 -70h-663zM293 82h348q165 0 309.5 61t247 166.5t162 253t59.5 314.5q0 228 -140.5 351.5t-389.5 123.5h-346l-117 -588h375
l-17 -82h-374z" />
    <glyph glyph-name="Ntilde" unicode="&#xd1;" horiz-adv-x="1687" 
d="M-4 0l16 82h193l248 1270h-195l16 82h273l651 -1231q6 -12 13 -29.5t11 -29.5l3 -11h4q2 49 10 80l223 1139h-194l16 82h477l-16 -82h-195l-264 -1352h-80l-653 1233q-6 12 -12.5 29.5t-9.5 29.5l-3 11h-4q-2 -49 -10 -80l-221 -1141h194l-16 -82h-475zM750 1542
q20 108 71 164.5t127 56.5q38 0 67 -15t46.5 -36.5t32.5 -43.5t34.5 -37t42.5 -15q73 0 107 141h90q-20 -107 -72 -164t-127 -57q-38 0 -67 15t-46.5 37t-32.5 43.5t-34.5 36.5t-42.5 15q-76 0 -106 -141h-90z" />
    <glyph glyph-name="Ograve" unicode="&#xd2;" horiz-adv-x="1697" 
d="M135 590q0 115 34 227.5t94 207t143.5 175.5t180 137.5t206 88.5t219.5 32q266 0 433 -168t167 -430q0 -175 -75 -339.5t-196.5 -283.5t-281.5 -190.5t-324 -71.5q-175 0 -312.5 79t-212.5 219t-75 317zM227 590q0 -233 144.5 -382t373.5 -149q142 0 283 64.5t249 171
t175.5 255.5t67.5 308q0 226 -145 371t-374 145q-145 0 -286 -63t-248 -167.5t-173.5 -250.5t-66.5 -303zM999 1536l-168 227h127l148 -227h-107z" />
    <glyph glyph-name="Oacute" unicode="&#xd3;" horiz-adv-x="1697" 
d="M135 590q0 115 34 227.5t94 207t143.5 175.5t180 137.5t206 88.5t219.5 32q266 0 433 -168t167 -430q0 -175 -75 -339.5t-196.5 -283.5t-281.5 -190.5t-324 -71.5q-175 0 -312.5 79t-212.5 219t-75 317zM227 590q0 -233 144.5 -382t373.5 -149q142 0 283 64.5t249 171
t175.5 255.5t67.5 308q0 226 -145 371t-374 145q-145 0 -286 -63t-248 -167.5t-173.5 -250.5t-66.5 -303zM950 1536l238 227h139l-258 -227h-119z" />
    <glyph glyph-name="Ocircumflex" unicode="&#xd4;" horiz-adv-x="1697" 
d="M135 590q0 115 34 227.5t94 207t143.5 175.5t180 137.5t206 88.5t219.5 32q266 0 433 -168t167 -430q0 -175 -75 -339.5t-196.5 -283.5t-281.5 -190.5t-324 -71.5q-175 0 -312.5 79t-212.5 219t-75 317zM227 590q0 -233 144.5 -382t373.5 -149q142 0 283 64.5t249 171
t175.5 255.5t67.5 308q0 226 -145 371t-374 145q-145 0 -286 -63t-248 -167.5t-173.5 -250.5t-66.5 -303zM801 1536l209 227h123l118 -227h-102l-82 164h-4l-148 -164h-114z" />
    <glyph glyph-name="Otilde" unicode="&#xd5;" horiz-adv-x="1697" 
d="M135 590q0 115 34 227.5t94 207t143.5 175.5t180 137.5t206 88.5t219.5 32q266 0 433 -168t167 -430q0 -175 -75 -339.5t-196.5 -283.5t-281.5 -190.5t-324 -71.5q-175 0 -312.5 79t-212.5 219t-75 317zM227 590q0 -233 144.5 -382t373.5 -149q142 0 283 64.5t249 171
t175.5 255.5t67.5 308q0 226 -145 371t-374 145q-145 0 -286 -63t-248 -167.5t-173.5 -250.5t-66.5 -303zM745 1542q20 108 71.5 164.5t127.5 56.5q38 0 67 -15t46.5 -36.5t32.5 -43.5t34.5 -37t42.5 -15q73 0 107 141h90q-20 -107 -72 -164t-127 -57q-38 0 -67 15t-46.5 37
t-32.5 43.5t-34.5 36.5t-42.5 15q-76 0 -106 -141h-91z" />
    <glyph glyph-name="Odieresis" unicode="&#xd6;" horiz-adv-x="1697" 
d="M135 590q0 115 34 227.5t94 207t143.5 175.5t180 137.5t206 88.5t219.5 32q266 0 433 -168t167 -430q0 -175 -75 -339.5t-196.5 -283.5t-281.5 -190.5t-324 -71.5q-175 0 -312.5 79t-212.5 219t-75 317zM227 590q0 -233 144.5 -382t373.5 -149q142 0 283 64.5t249 171
t175.5 255.5t67.5 308q0 226 -145 371t-374 145q-145 0 -286 -63t-248 -167.5t-173.5 -250.5t-66.5 -303zM1165 1614l31 149h111l-31 -149h-111zM821 1614l31 149h111l-31 -149h-111z" />
    <glyph glyph-name="multiply" unicode="&#xd7;" horiz-adv-x="1228" 
d="M96 57l459 523l-459 522l58 57l456 -518l457 518l57 -57l-460 -522l460 -523l-57 -57l-457 518l-456 -518z" />
    <glyph glyph-name="Oslash" unicode="&#xd8;" horiz-adv-x="1695" 
d="M164 6l135 148q-164 172 -164 436q0 172 74.5 333.5t194.5 278t278 186.5t319 70q224 0 381 -119l131 144l66 -56l-131 -143q78 -81 121 -190t43 -234q0 -175 -75 -339.5t-195.5 -283.5t-278.5 -190.5t-318 -71.5q-228 0 -383 121l-131 -143zM360 219l963 1055
q-137 100 -322 100q-145 0 -286 -63t-248 -167.5t-173.5 -250.5t-66.5 -303q0 -226 133 -371zM422 162q134 -103 323 -103q142 0 283 64.5t249 171t175.5 255.5t67.5 308q0 215 -134 359z" />
    <glyph glyph-name="Ugrave" unicode="&#xd9;" horiz-adv-x="1613" 
d="M238 373q0 26 2.5 55.5t5.5 47.5t7.5 41t4.5 26l158 809h-195l17 82h477l-17 -82h-194l-158 -811q-18 -87 -18 -158q0 -149 98.5 -236.5t273.5 -87.5q196 0 330 101q157 117 201 342l168 850h-195l17 82h477l-17 -82h-194l-172 -871q-26 -131 -89.5 -233.5t-156.5 -165.5
q-159 -107 -373 -107q-209 0 -333.5 110t-124.5 288zM952 1536l-168 227h127l148 -227h-107z" />
    <glyph glyph-name="Uacute" unicode="&#xda;" horiz-adv-x="1613" 
d="M238 373q0 26 2.5 55.5t5.5 47.5t7.5 41t4.5 26l158 809h-195l17 82h477l-17 -82h-194l-158 -811q-18 -87 -18 -158q0 -149 98.5 -236.5t273.5 -87.5q196 0 330 101q157 117 201 342l168 850h-195l17 82h477l-17 -82h-194l-172 -871q-26 -131 -89.5 -233.5t-156.5 -165.5
q-159 -107 -373 -107q-209 0 -333.5 110t-124.5 288zM903 1536l238 227h139l-258 -227h-119z" />
    <glyph glyph-name="Ucircumflex" unicode="&#xdb;" horiz-adv-x="1613" 
d="M238 373q0 26 2.5 55.5t5.5 47.5t7.5 41t4.5 26l158 809h-195l17 82h477l-17 -82h-194l-158 -811q-18 -87 -18 -158q0 -149 98.5 -236.5t273.5 -87.5q196 0 330 101q157 117 201 342l168 850h-195l17 82h477l-17 -82h-194l-172 -871q-26 -131 -89.5 -233.5t-156.5 -165.5
q-159 -107 -373 -107q-209 0 -333.5 110t-124.5 288zM754 1536l209 227h122l119 -227h-102l-82 164h-4l-148 -164h-114z" />
    <glyph glyph-name="Udieresis" unicode="&#xdc;" horiz-adv-x="1613" 
d="M238 373q0 26 2.5 55.5t5.5 47.5t7.5 41t4.5 26l158 809h-195l17 82h477l-17 -82h-194l-158 -811q-18 -87 -18 -158q0 -149 98.5 -236.5t273.5 -87.5q196 0 330 101q157 117 201 342l168 850h-195l17 82h477l-17 -82h-194l-172 -871q-26 -131 -89.5 -233.5t-156.5 -165.5
q-159 -107 -373 -107q-209 0 -333.5 110t-124.5 288zM1118 1614l31 149h111l-31 -149h-111zM774 1614l31 149h110l-30 -149h-111z" />
    <glyph glyph-name="Yacute" unicode="&#xdd;" horiz-adv-x="1302" 
d="M295 0l16 82h195l106 541l-299 729h-145l16 82h414l-16 -82h-170l237 -588l17 -51h4q21 28 39 51l469 588h-170l16 82h420l-17 -82h-145l-582 -729l-106 -541h194l-16 -82h-477zM748 1536l237 227h139l-258 -227h-118z" />
    <glyph glyph-name="Thorn" unicode="&#xde;" horiz-adv-x="1302" 
d="M-4 0l16 82h193l248 1270h-195l16 82h478l-17 -82h-194l-37 -185h373q170 0 272 -92.5t102 -253.5q0 -109 -43.5 -203t-115.5 -156.5t-164.5 -98t-190.5 -35.5h-395l-49 -246h194l-16 -82h-475zM356 410h379q114 0 209.5 49t155 146t59.5 224q0 123 -78 189.5t-215 66.5
h-379z" />
    <glyph glyph-name="germandbls" unicode="&#xdf;" horiz-adv-x="1161" 
d="M80 0l213 1104q22 110 92 192.5t159 122t183 39.5q144 0 222.5 -71.5t78.5 -178.5q0 -58 -25 -110t-62 -87.5t-81 -71.5t-81 -64.5t-62 -64.5t-25 -73q0 -27 19 -55t49 -53t66.5 -52t73 -57.5t66.5 -63.5t49 -75.5t19 -89.5q0 -82 -49.5 -153t-130.5 -111.5t-172 -40.5
q-89 0 -170 17.5t-118 35.5l-36 18l19 90q13 -9 38 -21.5t104 -34t161 -21.5q62 0 119.5 22t100 74.5t42.5 124.5q0 51 -35.5 98.5t-86 85.5l-101 76t-86 85.5t-35.5 98.5q0 48 25 92.5t62.5 76.5t81.5 68.5t81.5 68t62.5 74.5t25 89q0 69 -53.5 119.5t-155.5 50.5
q-75 0 -147.5 -33t-128.5 -101t-74 -157l-211 -1083h-86z" />
    <glyph glyph-name="agrave" unicode="&#xe0;" horiz-adv-x="1095" 
d="M16 227q0 70 24.5 128t65 98t98 71.5t119 50t133 30t134.5 16t129 4.5h80q18 90 18 131q0 99 -51.5 154t-177.5 55q-50 0 -100 -10t-86 -24.5t-65 -29.5t-43 -25l-15 -10l-37 78q6 4 17 11t47.5 25.5t75.5 32t98 25t118 11.5q309 0 309 -277q0 -65 -55 -311t-55 -285
q0 -33 8.5 -55t25.5 -31t31.5 -11.5t36.5 -2.5l55 4l-16 -80q-44 -4 -64 -4q-92 0 -135 56.5t-26 156.5h-4q2 0 -14 -24t-49.5 -58.5t-78.5 -69t-111 -58.5t-137 -24q-130 0 -216.5 68t-86.5 184zM106 240q0 -79 56.5 -132t167.5 -53q103 0 198.5 68.5t157 167t86.5 203.5
l12 51h-65q-613 0 -613 -305zM608 1206l-168 228h127l148 -228h-107z" />
    <glyph glyph-name="aacute" unicode="&#xe1;" horiz-adv-x="1095" 
d="M16 227q0 70 24.5 128t65 98t98 71.5t119 50t133 30t134.5 16t129 4.5h80q18 90 18 131q0 99 -51.5 154t-177.5 55q-50 0 -100 -10t-86 -24.5t-65 -29.5t-43 -25l-15 -10l-37 78q6 4 17 11t47.5 25.5t75.5 32t98 25t118 11.5q309 0 309 -277q0 -65 -55 -311t-55 -285
q0 -33 8.5 -55t25.5 -31t31.5 -11.5t36.5 -2.5l55 4l-16 -80q-44 -4 -64 -4q-92 0 -135 56.5t-26 156.5h-4q2 0 -14 -24t-49.5 -58.5t-78.5 -69t-111 -58.5t-137 -24q-130 0 -216.5 68t-86.5 184zM106 240q0 -79 56.5 -132t167.5 -53q103 0 198.5 68.5t157 167t86.5 203.5
l12 51h-65q-613 0 -613 -305zM559 1206l238 228h139l-258 -228h-119z" />
    <glyph glyph-name="acircumflex" unicode="&#xe2;" horiz-adv-x="1095" 
d="M16 227q0 70 24.5 128t65 98t98 71.5t119 50t133 30t134.5 16t129 4.5h80q18 90 18 131q0 99 -51.5 154t-177.5 55q-50 0 -100 -10t-86 -24.5t-65 -29.5t-43 -25l-15 -10l-37 78q6 4 17 11t47.5 25.5t75.5 32t98 25t118 11.5q309 0 309 -277q0 -65 -55 -311t-55 -285
q0 -33 8.5 -55t25.5 -31t31.5 -11.5t36.5 -2.5l55 4l-16 -80q-44 -4 -64 -4q-92 0 -135 56.5t-26 156.5h-4q2 0 -14 -24t-49.5 -58.5t-78.5 -69t-111 -58.5t-137 -24q-130 0 -216.5 68t-86.5 184zM106 240q0 -79 56.5 -132t167.5 -53q103 0 198.5 68.5t157 167t86.5 203.5
l12 51h-65q-613 0 -613 -305zM410 1206l208 228h123l119 -228h-102l-82 164h-4l-148 -164h-114z" />
    <glyph glyph-name="atilde" unicode="&#xe3;" horiz-adv-x="1095" 
d="M16 227q0 70 24.5 128t65 98t98 71.5t119 50t133 30t134.5 16t129 4.5h80q18 90 18 131q0 99 -51.5 154t-177.5 55q-50 0 -100 -10t-86 -24.5t-65 -29.5t-43 -25l-15 -10l-37 78q6 4 17 11t47.5 25.5t75.5 32t98 25t118 11.5q309 0 309 -277q0 -65 -55 -311t-55 -285
q0 -33 8.5 -55t25.5 -31t31.5 -11.5t36.5 -2.5l55 4l-16 -80q-44 -4 -64 -4q-92 0 -135 56.5t-26 156.5h-4q2 0 -14 -24t-49.5 -58.5t-78.5 -69t-111 -58.5t-137 -24q-130 0 -216.5 68t-86.5 184zM106 240q0 -79 56.5 -132t167.5 -53q103 0 198.5 68.5t157 167t86.5 203.5
l12 51h-65q-613 0 -613 -305zM354 1212q20 108 71.5 165t127.5 57q38 0 67 -15t46.5 -37t32.5 -44t34.5 -37t42.5 -15q73 0 107 141h90q-20 -107 -72 -164t-127 -57q-38 0 -67 15t-46.5 37t-32.5 44t-34.5 37t-42.5 15q-77 0 -107 -142h-90z" />
    <glyph glyph-name="adieresis" unicode="&#xe4;" horiz-adv-x="1095" 
d="M16 227q0 70 24.5 128t65 98t98 71.5t119 50t133 30t134.5 16t129 4.5h80q18 90 18 131q0 99 -51.5 154t-177.5 55q-50 0 -100 -10t-86 -24.5t-65 -29.5t-43 -25l-15 -10l-37 78q6 4 17 11t47.5 25.5t75.5 32t98 25t118 11.5q309 0 309 -277q0 -65 -55 -311t-55 -285
q0 -33 8.5 -55t25.5 -31t31.5 -11.5t36.5 -2.5l55 4l-16 -80q-44 -4 -64 -4q-92 0 -135 56.5t-26 156.5h-4q2 0 -14 -24t-49.5 -58.5t-78.5 -69t-111 -58.5t-137 -24q-130 0 -216.5 68t-86.5 184zM106 240q0 -79 56.5 -132t167.5 -53q103 0 198.5 68.5t157 167t86.5 203.5
l12 51h-65q-613 0 -613 -305zM774 1284l31 150h110l-30 -150h-111zM430 1284l31 150h110l-30 -150h-111z" />
    <glyph glyph-name="aring" unicode="&#xe5;" horiz-adv-x="1095" 
d="M16 227q0 70 24.5 128t65 98t98 71.5t119 50t133 30t134.5 16t129 4.5h80q18 90 18 131q0 99 -51.5 154t-177.5 55q-50 0 -100 -10t-86 -24.5t-65 -29.5t-43 -25l-15 -10l-37 78q6 4 17 11t47.5 25.5t75.5 32t98 25t118 11.5q309 0 309 -277q0 -65 -55 -311t-55 -285
q0 -33 8.5 -55t25.5 -31t31.5 -11.5t36.5 -2.5l55 4l-16 -80q-44 -4 -64 -4q-92 0 -135 56.5t-26 156.5h-4q2 0 -14 -24t-49.5 -58.5t-78.5 -69t-111 -58.5t-137 -24q-130 0 -216.5 68t-86.5 184zM106 240q0 -79 56.5 -132t167.5 -53q103 0 198.5 68.5t157 167t86.5 203.5
l12 51h-65q-613 0 -613 -305zM645 1171q-60 0 -98.5 37.5t-38.5 94.5q0 69 55 120.5t121 51.5q62 0 100.5 -37t38.5 -95q0 -69 -53.5 -120.5t-124.5 -51.5zM649 1247q41 0 66.5 27t25.5 69q0 27 -16 42.5t-45 15.5q-35 0 -62.5 -27.5t-27.5 -68.5q0 -27 16 -42.5t43 -15.5z
" />
    <glyph glyph-name="ae" unicode="&#xe6;" horiz-adv-x="1783" 
d="M20 231q0 70 22.5 127t59 96t90 68.5t109 46.5t122 27.5t122.5 14t117 3.5h131q18 103 18 144q0 103 -57 155t-183 52q-45 0 -93 -10t-83.5 -24.5t-64.5 -29.5t-44 -25l-16 -10l-37 78l16.5 11t46 25.5t72.5 32t92.5 25t110.5 11.5q161 0 238.5 -60.5t83.5 -161.5h4
q81 110 194.5 166t241.5 56q176 0 267.5 -98.5t91.5 -266.5q0 -29 -6 -66.5t-12 -59.5l-7 -23h-805q-12 -54 -12 -115q0 -167 87 -264t253 -97q55 0 111 13.5t96 32.5t72 37.5t49 31.5l16 14l33 -77q-7 -6 -19 -15t-51.5 -32.5t-81 -41.5t-102 -32.5t-119.5 -14.5
q-167 0 -278.5 82.5t-139.5 223.5h-4q-9 -22 -28 -53.5t-59.5 -77.5t-89 -83.5t-121.5 -64.5t-152 -27q-130 0 -216 67.5t-86 188.5zM887 614h706q6 45 6 82q0 137 -75 205t-191 68q-146 0 -266 -91.5t-180 -263.5zM113 238q0 -79 57.5 -131t165.5 -52q80 0 154.5 39
t129 103t93 139.5t55.5 152.5l10 46h-141q-524 0 -524 -297z" />
    <glyph glyph-name="ccedilla" unicode="&#xe7;" horiz-adv-x="1116" 
d="M389 -188l68 170q-170 21 -273.5 135.5t-103.5 300.5q0 132 55 251t144.5 201t205.5 130.5t236 48.5q53 0 109 -12t109 -35.5t82 -66.5t19 -97l-18 -101h-86l14 80q6 39 -16 69t-61.5 46.5t-82.5 24.5t-85 8q-94 0 -189 -41.5t-172 -111.5t-125.5 -173t-48.5 -217
q0 -170 102.5 -266.5t264.5 -96.5q62 0 122.5 15t103 37t76 44t49.5 37l17 15l33 -78q-6 -6 -18 -16.5t-52 -37t-84 -47t-112.5 -37t-139.5 -16.5h-4l-36 -98q51 -8 84.5 -42t33.5 -89q0 -54 -34 -93t-80.5 -55t-96.5 -16q-27 0 -51.5 2.5t-35.5 5.5l-11 2l16 76
q33 -10 80 -10q50 0 88.5 20.5t38.5 67.5q0 30 -28.5 48t-81.5 18h-25z" />
    <glyph glyph-name="egrave" unicode="&#xe8;" horiz-adv-x="1126" 
d="M80 403q0 122 45.5 239t123.5 207t192 145t241 55q174 0 262 -99t88 -264q0 -34 -6.5 -74t-13.5 -63l-6 -23h-822q-12 -51 -12 -112q0 -155 93.5 -255t266.5 -100q55 0 110 13.5t95 32.5t72 37.5t49 31.5l16 14l33 -77q-7 -6 -19.5 -15t-52.5 -32.5t-82 -41.5
t-103.5 -32.5t-121.5 -14.5q-199 0 -323.5 116t-124.5 312zM205 606h727q8 39 8 86q0 137 -73 207t-191 70q-96 0 -186.5 -40t-167 -123.5t-117.5 -199.5zM694 1206l-168 228h127l148 -228h-107z" />
    <glyph glyph-name="eacute" unicode="&#xe9;" horiz-adv-x="1126" 
d="M80 403q0 122 45.5 239t123.5 207t192 145t241 55q174 0 262 -99t88 -264q0 -34 -6.5 -74t-13.5 -63l-6 -23h-822q-12 -51 -12 -112q0 -155 93.5 -255t266.5 -100q55 0 110 13.5t95 32.5t72 37.5t49 31.5l16 14l33 -77q-7 -6 -19.5 -15t-52.5 -32.5t-82 -41.5
t-103.5 -32.5t-121.5 -14.5q-199 0 -323.5 116t-124.5 312zM205 606h727q8 39 8 86q0 137 -73 207t-191 70q-96 0 -186.5 -40t-167 -123.5t-117.5 -199.5zM645 1206l238 228h139l-258 -228h-119z" />
    <glyph glyph-name="ecircumflex" unicode="&#xea;" horiz-adv-x="1126" 
d="M80 403q0 122 45.5 239t123.5 207t192 145t241 55q174 0 262 -99t88 -264q0 -34 -6.5 -74t-13.5 -63l-6 -23h-822q-12 -51 -12 -112q0 -155 93.5 -255t266.5 -100q55 0 110 13.5t95 32.5t72 37.5t49 31.5l16 14l33 -77q-7 -6 -19.5 -15t-52.5 -32.5t-82 -41.5
t-103.5 -32.5t-121.5 -14.5q-199 0 -323.5 116t-124.5 312zM205 606h727q8 39 8 86q0 137 -73 207t-191 70q-96 0 -186.5 -40t-167 -123.5t-117.5 -199.5zM496 1206l209 228h122l119 -228h-102l-82 164h-4l-148 -164h-114z" />
    <glyph glyph-name="edieresis" unicode="&#xeb;" horiz-adv-x="1126" 
d="M80 403q0 122 45.5 239t123.5 207t192 145t241 55q174 0 262 -99t88 -264q0 -34 -6.5 -74t-13.5 -63l-6 -23h-822q-12 -51 -12 -112q0 -155 93.5 -255t266.5 -100q55 0 110 13.5t95 32.5t72 37.5t49 31.5l16 14l33 -77q-7 -6 -19.5 -15t-52.5 -32.5t-82 -41.5
t-103.5 -32.5t-121.5 -14.5q-199 0 -323.5 116t-124.5 312zM205 606h727q8 39 8 86q0 137 -73 207t-191 70q-96 0 -186.5 -40t-167 -123.5t-117.5 -199.5zM860 1284l31 150h110l-30 -150h-111zM516 1284l31 150h110l-30 -150h-111z" />
    <glyph glyph-name="igrave" unicode="&#xec;" horiz-adv-x="557" 
d="M145 162q0 9 9 61l141 721h-195l17 80h280l-155 -788q-6 -38 -6 -60q0 -33 8.5 -55t25.5 -31t31.5 -11.5t36.5 -2.5l55 4l-16 -80q-44 -4 -64 -4q-26 0 -51 6t-53.5 22t-46 51.5t-17.5 86.5zM356 1206l-168 228h127l148 -228h-107z" />
    <glyph glyph-name="iacute" unicode="&#xed;" horiz-adv-x="557" 
d="M145 162q0 9 9 61l141 721h-195l17 80h280l-155 -788q-6 -38 -6 -60q0 -33 8.5 -55t25.5 -31t31.5 -11.5t36.5 -2.5l55 4l-16 -80q-44 -4 -64 -4q-26 0 -51 6t-53.5 22t-46 51.5t-17.5 86.5zM307 1206l238 228h139l-258 -228h-119z" />
    <glyph glyph-name="icircumflex" unicode="&#xee;" horiz-adv-x="557" 
d="M145 162q0 9 9 61l141 721h-195l17 80h280l-155 -788q-6 -38 -6 -60q0 -33 8.5 -55t25.5 -31t31.5 -11.5t36.5 -2.5l55 4l-16 -80q-44 -4 -64 -4q-26 0 -51 6t-53.5 22t-46 51.5t-17.5 86.5zM158 1206l209 228h122l119 -228h-102l-82 164h-4l-148 -164h-114z" />
    <glyph glyph-name="idieresis" unicode="&#xef;" horiz-adv-x="557" 
d="M145 162q0 9 9 61l141 721h-195l17 80h280l-155 -788q-6 -38 -6 -60q0 -33 8.5 -55t25.5 -31t31.5 -11.5t36.5 -2.5l55 4l-16 -80q-44 -4 -64 -4q-26 0 -51 6t-53.5 22t-46 51.5t-17.5 86.5zM498 1284l30 150h111l-31 -150h-110zM203 1284l30 150h111l-31 -150h-110z" />
    <glyph glyph-name="eth" unicode="&#xf0;" horiz-adv-x="1210" 
d="M78 375q0 104 39.5 207t111 187t184 136.5t246.5 52.5q67 0 124.5 -14.5t92.5 -35t60.5 -41.5t35.5 -35l11 -15h4q-35 240 -209 381l-383 -164l-20 76l330 141q-122 72 -293 121l37 72q210 -57 346 -154l284 121l23 -76l-238 -100q217 -194 217 -510q0 -74 -15.5 -155.5
t-46 -166.5t-81.5 -161t-116 -136t-155 -95.5t-194 -35.5q-97 0 -173.5 32.5t-124 88t-72.5 127t-25 152.5zM168 379q0 -137 80 -229.5t225 -92.5q87 0 167.5 35.5t139.5 93.5t103.5 130.5t67 148t22.5 143.5q0 120 -85 194.5t-231 74.5q-97 0 -187.5 -40t-156.5 -107
t-105.5 -159t-39.5 -192z" />
    <glyph glyph-name="ntilde" unicode="&#xf1;" horiz-adv-x="1298" 
d="M123 0l174 899q7 45 -37 45h-149l16 80h162q56 0 78 -20t22 -62q0 -20 -13.5 -85t-27.5 -97h4q22 45 63 92t100 93t142.5 75t173.5 29q134 0 204.5 -66.5t70.5 -189.5q0 -68 -51 -324.5t-51 -292.5q0 -35 8.5 -56.5t26 -30.5t31 -11t36.5 -2l55 4l-16 -80q-44 -4 -64 -4
q-26 0 -51 6.5t-53.5 22t-46 49.5t-17.5 82q0 37 51.5 292.5t51.5 323.5q0 97 -51 145t-146 48q-89 0 -176 -39.5t-155.5 -105.5t-118.5 -155.5t-68 -185.5l-92 -479h-86zM514 1212q20 108 71.5 165t127.5 57q38 0 67 -15t46.5 -37t32.5 -44t34.5 -37t42.5 -15q72 0 106 141
h91q-20 -107 -72 -164t-127 -57q-38 0 -67 15t-46.5 37t-32.5 44t-34.5 37t-42.5 15q-77 0 -107 -142h-90z" />
    <glyph glyph-name="ograve" unicode="&#xf2;" horiz-adv-x="1273" 
d="M80 420q0 127 53.5 244.5t141 201t204 133.5t238.5 50q197 0 319.5 -123.5t122.5 -315.5q0 -129 -54 -247.5t-142 -202.5t-204 -134.5t-237 -50.5q-197 0 -319.5 125t-122.5 320zM170 422q0 -159 101 -261t261 -102q99 0 196 43.5t172.5 116.5t122 176t46.5 213
q0 156 -101 256.5t-261 100.5q-136 0 -259.5 -72.5t-200.5 -199t-77 -271.5zM723 1206l-168 228h127l147 -228h-106z" />
    <glyph glyph-name="oacute" unicode="&#xf3;" horiz-adv-x="1273" 
d="M80 420q0 127 53.5 244.5t141 201t204 133.5t238.5 50q197 0 319.5 -123.5t122.5 -315.5q0 -129 -54 -247.5t-142 -202.5t-204 -134.5t-237 -50.5q-197 0 -319.5 125t-122.5 320zM170 422q0 -159 101 -261t261 -102q99 0 196 43.5t172.5 116.5t122 176t46.5 213
q0 156 -101 256.5t-261 100.5q-136 0 -259.5 -72.5t-200.5 -199t-77 -271.5zM674 1206l237 228h140l-258 -228h-119z" />
    <glyph glyph-name="ocircumflex" unicode="&#xf4;" horiz-adv-x="1273" 
d="M80 420q0 127 53.5 244.5t141 201t204 133.5t238.5 50q197 0 319.5 -123.5t122.5 -315.5q0 -129 -54 -247.5t-142 -202.5t-204 -134.5t-237 -50.5q-197 0 -319.5 125t-122.5 320zM170 422q0 -159 101 -261t261 -102q99 0 196 43.5t172.5 116.5t122 176t46.5 213
q0 156 -101 256.5t-261 100.5q-136 0 -259.5 -72.5t-200.5 -199t-77 -271.5zM524 1206l209 228h123l119 -228h-103l-81 164h-5l-147 -164h-115z" />
    <glyph glyph-name="otilde" unicode="&#xf5;" horiz-adv-x="1273" 
d="M80 420q0 127 53.5 244.5t141 201t204 133.5t238.5 50q197 0 319.5 -123.5t122.5 -315.5q0 -129 -54 -247.5t-142 -202.5t-204 -134.5t-237 -50.5q-197 0 -319.5 125t-122.5 320zM170 422q0 -159 101 -261t261 -102q99 0 196 43.5t172.5 116.5t122 176t46.5 213
q0 156 -101 256.5t-261 100.5q-136 0 -259.5 -72.5t-200.5 -199t-77 -271.5zM469 1212q20 108 71.5 165t127.5 57q38 0 67 -15t46.5 -37t32.5 -44t34.5 -37t42.5 -15q72 0 106 141h90q-20 -107 -72 -164t-126 -57q-38 0 -67 15t-46.5 37t-32.5 44t-34.5 37t-42.5 15
q-77 0 -107 -142h-90z" />
    <glyph glyph-name="odieresis" unicode="&#xf6;" horiz-adv-x="1273" 
d="M80 420q0 127 53.5 244.5t141 201t204 133.5t238.5 50q197 0 319.5 -123.5t122.5 -315.5q0 -129 -54 -247.5t-142 -202.5t-204 -134.5t-237 -50.5q-197 0 -319.5 125t-122.5 320zM170 422q0 -159 101 -261t261 -102q99 0 196 43.5t172.5 116.5t122 176t46.5 213
q0 156 -101 256.5t-261 100.5q-136 0 -259.5 -72.5t-200.5 -199t-77 -271.5zM889 1284l31 150h110l-31 -150h-110zM545 1284l30 150h111l-31 -150h-110z" />
    <glyph glyph-name="divide" unicode="&#xf7;" horiz-adv-x="1228" 
d="M549 883v121h117v-121h-117zM121 539v82h975v-82h-975zM549 156v120h117v-120h-117z" />
    <glyph glyph-name="oslash" unicode="&#xf8;" horiz-adv-x="1273" 
d="M106 -4l99 106q-125 128 -125 318q0 127 53.5 244.5t140 201t201 133.5t232.5 50q161 0 284 -86l103 112l55 -53l-105 -115q115 -129 115 -297q0 -128 -54 -247t-141 -203t-201 -134.5t-231 -50.5q-154 0 -270 76l-100 -108zM264 168l666 729q-98 68 -223 68
q-136 0 -259.5 -72.5t-200.5 -199t-77 -271.5q0 -150 94 -254zM322 117q94 -58 210 -58q99 0 196 43.5t172.5 116.5t122 176t46.5 213q0 131 -86 234z" />
    <glyph glyph-name="ugrave" unicode="&#xf9;" horiz-adv-x="1300" 
d="M164 233q0 60 16 142l109 569h-193l15 80h280l-119 -614q-20 -98 -20 -164q0 -90 45 -138.5t156 -48.5q121 0 232 73t182 184t94 233l75 395h-192l14 80h281l-154 -788q-6 -38 -6 -60q0 -33 8.5 -55t25.5 -31t31.5 -11.5t36.5 -2.5l56 4l-17 -80q-43 -4 -63 -4
q-57 0 -96 21t-54 56.5t-17 81t15 93.5h-4q-18 -32 -44 -65t-69.5 -71.5t-93 -68t-117 -49t-139.5 -19.5q-57 0 -105 14t-86.5 43.5t-60.5 80.5t-22 120zM692 1206l-168 228h127l148 -228h-107z" />
    <glyph glyph-name="uacute" unicode="&#xfa;" horiz-adv-x="1300" 
d="M164 233q0 60 16 142l109 569h-193l15 80h280l-119 -614q-20 -98 -20 -164q0 -90 45 -138.5t156 -48.5q121 0 232 73t182 184t94 233l75 395h-192l14 80h281l-154 -788q-6 -38 -6 -60q0 -33 8.5 -55t25.5 -31t31.5 -11.5t36.5 -2.5l56 4l-17 -80q-43 -4 -63 -4
q-57 0 -96 21t-54 56.5t-17 81t15 93.5h-4q-18 -32 -44 -65t-69.5 -71.5t-93 -68t-117 -49t-139.5 -19.5q-57 0 -105 14t-86.5 43.5t-60.5 80.5t-22 120zM643 1206l238 228h139l-258 -228h-119z" />
    <glyph glyph-name="ucircumflex" unicode="&#xfb;" horiz-adv-x="1300" 
d="M164 233q0 60 16 142l109 569h-193l15 80h280l-119 -614q-20 -98 -20 -164q0 -90 45 -138.5t156 -48.5q121 0 232 73t182 184t94 233l75 395h-192l14 80h281l-154 -788q-6 -38 -6 -60q0 -33 8.5 -55t25.5 -31t31.5 -11.5t36.5 -2.5l56 4l-17 -80q-43 -4 -63 -4
q-57 0 -96 21t-54 56.5t-17 81t15 93.5h-4q-18 -32 -44 -65t-69.5 -71.5t-93 -68t-117 -49t-139.5 -19.5q-57 0 -105 14t-86.5 43.5t-60.5 80.5t-22 120zM494 1206l208 228h123l119 -228h-102l-82 164h-4l-148 -164h-114z" />
    <glyph glyph-name="udieresis" unicode="&#xfc;" horiz-adv-x="1300" 
d="M164 233q0 60 16 142l109 569h-193l15 80h280l-119 -614q-20 -98 -20 -164q0 -90 45 -138.5t156 -48.5q121 0 232 73t182 184t94 233l75 395h-192l14 80h281l-154 -788q-6 -38 -6 -60q0 -33 8.5 -55t25.5 -31t31.5 -11.5t36.5 -2.5l56 4l-17 -80q-43 -4 -63 -4
q-57 0 -96 21t-54 56.5t-17 81t15 93.5h-4q-18 -32 -44 -65t-69.5 -71.5t-93 -68t-117 -49t-139.5 -19.5q-57 0 -105 14t-86.5 43.5t-60.5 80.5t-22 120zM858 1284l31 150h110l-30 -150h-111zM514 1284l31 150h110l-30 -150h-111z" />
    <glyph glyph-name="yacute" unicode="&#xfd;" horiz-adv-x="1150" 
d="M-45 -305q6 -5 16 -12t41 -19t62 -12q126 0 239 184l103 168l-191 940h-139l16 80h392l-17 -80h-162l154 -780q3 -14 4 -28.5t1 -21.5l-1 -8h4q13 27 31 58l457 780h-162l16 80h400l-17 -80h-141l-688 -1159q-128 -215 -303 -215q-48 0 -89 14t-58 28l-17 13zM623 1206
l237 228h139l-258 -228h-118z" />
    <glyph glyph-name="thorn" unicode="&#xfe;" horiz-adv-x="1208" 
d="M2 -410l340 1764h-184l16 80h270l-100 -523q-4 -21 -10 -44t-10 -35l-5 -13h5q55 97 157.5 163.5t235.5 66.5q179 0 277 -108t98 -296q0 -144 -46.5 -270.5t-123.5 -213t-177 -136.5t-206 -50q-124 0 -214 59.5t-120 172.5h-4q-3 -48 -13 -101l-102 -516h-84zM254 383
q0 -140 72.5 -232t208.5 -92q83 0 165 40.5t149 113t108.5 184.5t41.5 244q0 151 -75 237.5t-207 86.5q-103 0 -192.5 -53.5t-147.5 -138t-90.5 -187t-32.5 -203.5z" />
    <glyph glyph-name="ydieresis" unicode="&#xff;" horiz-adv-x="1150" 
d="M-45 -305q6 -5 16 -12t41 -19t62 -12q126 0 239 184l103 168l-191 940h-139l16 80h392l-17 -80h-162l154 -780q3 -14 4 -28.5t1 -21.5l-1 -8h4q13 27 31 58l457 780h-162l16 80h400l-17 -80h-141l-688 -1159q-128 -215 -303 -215q-48 0 -89 14t-58 28l-17 13zM838 1284
l30 150h111l-31 -150h-110zM494 1284l30 150h111l-31 -150h-110z" />
    <glyph glyph-name="Amacron" unicode="&#x100;" horiz-adv-x="1452" 
d="M-96 0l16 82h152l770 1352h94l242 -1352h153l-16 -82h-418l16 82h174l-73 414h-608l-236 -414h174l-16 -82h-424zM453 578h546l-118 669l-9 78h-4q-14 -41 -34 -78zM680 1610l14 82h490l-15 -82h-489z" />
    <glyph glyph-name="amacron" unicode="&#x101;" horiz-adv-x="1095" 
d="M16 227q0 70 24.5 128t65 98t98 71.5t119 50t133 30t134.5 16t129 4.5h80q18 90 18 131q0 99 -51.5 154t-177.5 55q-50 0 -100 -10t-86 -24.5t-65 -29.5t-43 -25l-15 -10l-37 78q6 4 17 11t47.5 25.5t75.5 32t98 25t118 11.5q309 0 309 -277q0 -65 -55 -311t-55 -285
q0 -33 8.5 -55t25.5 -31t31.5 -11.5t36.5 -2.5l55 4l-16 -80q-44 -4 -64 -4q-92 0 -135 56.5t-26 156.5h-4q2 0 -14 -24t-49.5 -58.5t-78.5 -69t-111 -58.5t-137 -24q-130 0 -216.5 68t-86.5 184zM106 240q0 -79 56.5 -132t167.5 -53q103 0 198.5 68.5t157 167t86.5 203.5
l12 51h-65q-613 0 -613 -305zM412 1280l14 82h489l-14 -82h-489z" />
    <glyph glyph-name="Abreve" unicode="&#x102;" horiz-adv-x="1452" 
d="M-96 0l16 82h152l770 1352h94l242 -1352h153l-16 -82h-418l16 82h174l-73 414h-608l-236 -414h174l-16 -82h-424zM453 578h546l-118 669l-9 78h-4q-14 -41 -34 -78zM913 1530q-85 0 -140 56t-36 145l6 32h86l-6 -28q-11 -64 17.5 -95.5t83.5 -31.5q54 0 96 32t53 97l6 26
h86l-6 -32q-18 -102 -86.5 -151.5t-159.5 -49.5z" />
    <glyph glyph-name="abreve" unicode="&#x103;" horiz-adv-x="1095" 
d="M16 227q0 70 24.5 128t65 98t98 71.5t119 50t133 30t134.5 16t129 4.5h80q18 90 18 131q0 99 -51.5 154t-177.5 55q-50 0 -100 -10t-86 -24.5t-65 -29.5t-43 -25l-15 -10l-37 78q6 4 17 11t47.5 25.5t75.5 32t98 25t118 11.5q309 0 309 -277q0 -65 -55 -311t-55 -285
q0 -33 8.5 -55t25.5 -31t31.5 -11.5t36.5 -2.5l55 4l-16 -80q-44 -4 -64 -4q-92 0 -135 56.5t-26 156.5h-4q2 0 -14 -24t-49.5 -58.5t-78.5 -69t-111 -58.5t-137 -24q-130 0 -216.5 68t-86.5 184zM106 240q0 -79 56.5 -132t167.5 -53q103 0 198.5 68.5t157 167t86.5 203.5
l12 51h-65q-613 0 -613 -305zM645 1200q-85 0 -140 56t-36 145l6 33h86l-6 -29q-11 -64 17 -95.5t83 -31.5q54 0 96.5 32t53.5 97l6 27h86l-6 -33q-18 -102 -86.5 -151.5t-159.5 -49.5z" />
    <glyph glyph-name="Aogonek" unicode="&#x104;" horiz-adv-x="1452" 
d="M991 -256q0 137 180 256h-274l16 82h174l-73 414h-608l-236 -414h174l-16 -82h-424l16 82h152l770 1352h94l242 -1352h153l-16 -82h-10q-16 0 -68.5 -36.5t-103 -96.5t-50.5 -109q0 -40 30 -64.5t59 -29.5l30 -4l-37 -78q-7 1 -19 3.5t-42 14t-52.5 27.5t-41.5 47t-19 70
zM453 578h546l-118 669l-9 78h-4q-14 -41 -34 -78z" />
    <glyph glyph-name="aogonek" unicode="&#x105;" horiz-adv-x="1095" 
d="M618 -256q0 140 189 260q-59 19 -83 72.5t-11 132.5h-4q2 0 -14 -24t-49.5 -58.5t-78.5 -69t-111 -58.5t-137 -24q-130 0 -216.5 68t-86.5 184q0 70 24.5 128t65 98t98 71.5t119 50t133 30t134.5 16t129 4.5h80q18 90 18 131q0 99 -51.5 154t-177.5 55q-50 0 -100 -10
t-86 -24.5t-65 -29.5t-43 -25l-15 -10l-37 78q6 4 17 11t47.5 25.5t75.5 32t98 25t118 11.5q309 0 309 -277q0 -65 -55 -311t-55 -285q0 -33 8.5 -55t25.5 -31t31.5 -11.5t36.5 -2.5l55 4l-16 -80q-8 0 -14 -2q-26 -10 -74 -45.5t-93.5 -92t-45.5 -102.5q0 -25 12 -44.5
t29.5 -29t35 -15.5t29.5 -7l12 -2l-36 -78q-7 1 -19 3.5t-42 14t-53 27.5t-42 47t-19 70zM106 240q0 -79 56.5 -132t167.5 -53q103 0 198.5 68.5t157 167t86.5 203.5l12 51h-65q-613 0 -613 -305z" />
    <glyph glyph-name="Cacute" unicode="&#x106;" horiz-adv-x="1525" 
d="M137 594q0 141 47 274t130 238.5t191 185.5t236.5 123t259.5 43q45 0 94.5 -5t110.5 -15.5t112.5 -32t94 -51t62 -76t8.5 -102.5l-27 -138h-90l23 123q11 57 -25 101t-101 67t-132 34t-132 11q-148 0 -289 -61t-246.5 -164t-170 -246.5t-64.5 -300.5q0 -242 143.5 -392.5
t377.5 -150.5q68 0 145 13t152 38.5t129 69.5t65 99l23 112h90l-27 -133q-15 -72 -77 -129t-148.5 -89t-176.5 -48.5t-173 -16.5q-186 0 -326.5 79t-214.5 219t-74 321zM920 1536l237 227h139l-258 -227h-118z" />
    <glyph glyph-name="cacute" unicode="&#x107;" horiz-adv-x="1116" 
d="M80 418q0 132 55 251t144.5 201t205.5 130.5t236 48.5q53 0 109 -12t109 -35.5t82 -66.5t19 -97l-18 -101h-86l14 80q6 39 -16 69t-61.5 46.5t-82.5 24.5t-85 8q-94 0 -189 -41.5t-172 -111.5t-125.5 -173t-48.5 -217q0 -170 102.5 -266.5t264.5 -96.5q62 0 122.5 15
t103 37t76 44t49.5 37l17 15l33 -78q-6 -6 -18 -16.5t-52 -37t-84 -47t-112.5 -37t-139.5 -16.5q-200 0 -326 118.5t-126 324.5zM645 1206l238 228h139l-258 -228h-119z" />
    <glyph glyph-name="Ccircumflex" unicode="&#x108;" horiz-adv-x="1525" 
d="M137 594q0 141 47 274t130 238.5t191 185.5t236.5 123t259.5 43q45 0 94.5 -5t110.5 -15.5t112.5 -32t94 -51t62 -76t8.5 -102.5l-27 -138h-90l23 123q11 57 -25 101t-101 67t-132 34t-132 11q-148 0 -289 -61t-246.5 -164t-170 -246.5t-64.5 -300.5q0 -242 143.5 -392.5
t377.5 -150.5q68 0 145 13t152 38.5t129 69.5t65 99l23 112h90l-27 -133q-15 -72 -77 -129t-148.5 -89t-176.5 -48.5t-173 -16.5q-186 0 -326.5 79t-214.5 219t-74 321zM770 1536l209 227h123l119 -227h-103l-82 164h-4l-147 -164h-115z" />
    <glyph glyph-name="ccircumflex" unicode="&#x109;" horiz-adv-x="1116" 
d="M80 418q0 132 55 251t144.5 201t205.5 130.5t236 48.5q53 0 109 -12t109 -35.5t82 -66.5t19 -97l-18 -101h-86l14 80q6 39 -16 69t-61.5 46.5t-82.5 24.5t-85 8q-94 0 -189 -41.5t-172 -111.5t-125.5 -173t-48.5 -217q0 -170 102.5 -266.5t264.5 -96.5q62 0 122.5 15
t103 37t76 44t49.5 37l17 15l33 -78q-6 -6 -18 -16.5t-52 -37t-84 -47t-112.5 -37t-139.5 -16.5q-200 0 -326 118.5t-126 324.5zM496 1206l209 228h122l119 -228h-102l-82 164h-4l-148 -164h-114z" />
    <glyph glyph-name="Cdotaccent" unicode="&#x10a;" horiz-adv-x="1525" 
d="M137 594q0 141 47 274t130 238.5t191 185.5t236.5 123t259.5 43q45 0 94.5 -5t110.5 -15.5t112.5 -32t94 -51t62 -76t8.5 -102.5l-27 -138h-90l23 123q11 57 -25 101t-101 67t-132 34t-132 11q-148 0 -289 -61t-246.5 -164t-170 -246.5t-64.5 -300.5q0 -242 143.5 -392.5
t377.5 -150.5q68 0 145 13t152 38.5t129 69.5t65 99l23 112h90l-27 -133q-15 -72 -77 -129t-148.5 -89t-176.5 -48.5t-173 -16.5q-186 0 -326.5 79t-214.5 219t-74 321zM963 1614l28 149h111l-29 -149h-110z" />
    <glyph glyph-name="cdotaccent" unicode="&#x10b;" horiz-adv-x="1116" 
d="M80 418q0 132 55 251t144.5 201t205.5 130.5t236 48.5q53 0 109 -12t109 -35.5t82 -66.5t19 -97l-18 -101h-86l14 80q6 39 -16 69t-61.5 46.5t-82.5 24.5t-85 8q-94 0 -189 -41.5t-172 -111.5t-125.5 -173t-48.5 -217q0 -170 102.5 -266.5t264.5 -96.5q62 0 122.5 15
t103 37t76 44t49.5 37l17 15l33 -78q-6 -6 -18 -16.5t-52 -37t-84 -47t-112.5 -37t-139.5 -16.5q-200 0 -326 118.5t-126 324.5zM688 1284l29 150h110l-28 -150h-111z" />
    <glyph glyph-name="Ccaron" unicode="&#x10c;" horiz-adv-x="1525" 
d="M137 594q0 141 47 274t130 238.5t191 185.5t236.5 123t259.5 43q45 0 94.5 -5t110.5 -15.5t112.5 -32t94 -51t62 -76t8.5 -102.5l-27 -138h-90l23 123q11 57 -25 101t-101 67t-132 34t-132 11q-148 0 -289 -61t-246.5 -164t-170 -246.5t-64.5 -300.5q0 -242 143.5 -392.5
t377.5 -150.5q68 0 145 13t152 38.5t129 69.5t65 99l23 112h90l-27 -133q-15 -72 -77 -129t-148.5 -89t-176.5 -48.5t-173 -16.5q-186 0 -326.5 79t-214.5 219t-74 321zM946 1536l-119 227h103l82 -164h4l147 164h115l-209 -227h-123z" />
    <glyph glyph-name="ccaron" unicode="&#x10d;" horiz-adv-x="1116" 
d="M80 418q0 132 55 251t144.5 201t205.5 130.5t236 48.5q53 0 109 -12t109 -35.5t82 -66.5t19 -97l-18 -101h-86l14 80q6 39 -16 69t-61.5 46.5t-82.5 24.5t-85 8q-94 0 -189 -41.5t-172 -111.5t-125.5 -173t-48.5 -217q0 -170 102.5 -266.5t264.5 -96.5q62 0 122.5 15
t103 37t76 44t49.5 37l17 15l33 -78q-6 -6 -18 -16.5t-52 -37t-84 -47t-112.5 -37t-139.5 -16.5q-200 0 -326 118.5t-126 324.5zM672 1206l-119 228h102l82 -164h4l148 164h115l-209 -228h-123z" />
    <glyph glyph-name="Dcaron" unicode="&#x10e;" horiz-adv-x="1587" 
d="M-4 0l16 82h193l248 1270h-195l16 82h586q188 0 322 -50q152 -61 231.5 -190t79.5 -322q0 -163 -55.5 -317t-160 -276.5t-241.5 -190.5q-177 -88 -415 -88h-625zM291 82h311q223 0 383 78q187 94 301.5 286.5t114.5 417.5q0 164 -65.5 275.5t-188.5 163.5
q-118 49 -297 49h-309zM844 1536l-119 227h102l82 -164h4l148 164h115l-209 -227h-123z" />
    <glyph glyph-name="dcaron" unicode="&#x10f;" horiz-adv-x="1249" 
d="M82 379q0 144 47 270.5t124 213t178 136.5t208 50q122 0 211 -60.5t119 -171.5h4q2 47 10 94l86 443h-195l17 80h280l-233 -1198q-6 -38 -6 -60q0 -33 8.5 -55t25.5 -31t31.5 -11.5t36.5 -2.5l56 4l-17 -80q-43 -4 -63 -4q-92 0 -136.5 57.5t-21.5 151.5h-4
q-57 -96 -160.5 -163t-230.5 -67q-181 0 -278 107.5t-97 296.5zM172 383q0 -151 76 -237.5t209 -86.5q84 0 159.5 35.5t129.5 95t94 135.5t60 159t20 163q0 139 -71 228.5t-210 89.5q-83 0 -165.5 -41t-150 -113.5t-109.5 -184.5t-42 -243zM1307 1434h94q4 -20 4 -43
q0 -67 -37 -134t-104 -116l-47 47q96 92 96 190q0 26 -6 56z" />
    <glyph glyph-name="Dcroat" unicode="&#x110;" horiz-adv-x="1605" 
d="M-4 0l16 82h193l117 600h-164l16 82h164l115 588h-195l16 82h625q287 0 449.5 -145t162.5 -408q0 -180 -63 -341.5t-174 -280.5t-271 -189t-344 -70h-663zM293 82h348q165 0 309.5 61t247 166.5t162 253t59.5 314.5q0 228 -140.5 351.5t-389.5 123.5h-346l-117 -588h375
l-17 -82h-374z" />
    <glyph glyph-name="dcroat" unicode="&#x111;" horiz-adv-x="1249" 
d="M82 379q0 144 47 270.5t124 213t178 136.5t208 50q122 0 211 -60.5t119 -171.5h4q2 47 10 94l49 254h-313l16 82h314l36 187h86l-36 -187h170l-17 -82h-170l-180 -929q-6 -38 -6 -60q0 -33 8.5 -55t25.5 -31t31.5 -11.5t36.5 -2.5l56 4l-17 -80q-43 -4 -63 -4
q-92 0 -136.5 57.5t-21.5 151.5h-4q-57 -96 -160.5 -163t-230.5 -67q-181 0 -278 107.5t-97 296.5zM172 383q0 -151 76 -237.5t209 -86.5q84 0 159.5 35.5t129.5 95t94 135.5t60 159t20 163q0 139 -71 228.5t-210 89.5q-83 0 -165.5 -41t-150 -113.5t-109.5 -184.5t-42 -243
z" />
    <glyph glyph-name="Emacron" unicode="&#x112;" horiz-adv-x="1263" 
d="M-4 0l16 82h193l248 1270h-195l16 82h990l-54 -267h-86l37 185h-620l-115 -588h571l-16 -82h-571l-117 -600h661l39 197h86l-55 -279h-1028zM592 1610l14 82h490l-15 -82h-489z" />
    <glyph glyph-name="emacron" unicode="&#x113;" horiz-adv-x="1126" 
d="M80 403q0 122 45.5 239t123.5 207t192 145t241 55q174 0 262 -99t88 -264q0 -34 -6.5 -74t-13.5 -63l-6 -23h-822q-12 -51 -12 -112q0 -155 93.5 -255t266.5 -100q55 0 110 13.5t95 32.5t72 37.5t49 31.5l16 14l33 -77q-7 -6 -19.5 -15t-52.5 -32.5t-82 -41.5
t-103.5 -32.5t-121.5 -14.5q-199 0 -323.5 116t-124.5 312zM205 606h727q8 39 8 86q0 137 -73 207t-191 70q-96 0 -186.5 -40t-167 -123.5t-117.5 -199.5zM498 1280l14 82h489l-14 -82h-489z" />
    <glyph glyph-name="Ebreve" unicode="&#x114;" horiz-adv-x="1263" 
d="M-4 0l16 82h193l248 1270h-195l16 82h990l-54 -267h-86l37 185h-620l-115 -588h571l-16 -82h-571l-117 -600h661l39 197h86l-55 -279h-1028zM825 1530q-85 0 -140 56t-36 145l6 32h86l-6 -28q-11 -64 17.5 -95.5t83.5 -31.5q54 0 96 32t53 97l6 26h86l-6 -32
q-18 -102 -86.5 -151.5t-159.5 -49.5z" />
    <glyph glyph-name="ebreve" unicode="&#x115;" horiz-adv-x="1126" 
d="M80 403q0 122 45.5 239t123.5 207t192 145t241 55q174 0 262 -99t88 -264q0 -34 -6.5 -74t-13.5 -63l-6 -23h-822q-12 -51 -12 -112q0 -155 93.5 -255t266.5 -100q55 0 110 13.5t95 32.5t72 37.5t49 31.5l16 14l33 -77q-7 -6 -19.5 -15t-52.5 -32.5t-82 -41.5
t-103.5 -32.5t-121.5 -14.5q-199 0 -323.5 116t-124.5 312zM205 606h727q8 39 8 86q0 137 -73 207t-191 70q-96 0 -186.5 -40t-167 -123.5t-117.5 -199.5zM731 1200q-85 0 -140 56t-36 145l6 33h86l-6 -29q-11 -64 17 -95.5t83 -31.5q54 0 96.5 32t53.5 97l6 27h86l-6 -33
q-18 -102 -86.5 -151.5t-159.5 -49.5z" />
    <glyph glyph-name="Edotaccent" unicode="&#x116;" horiz-adv-x="1263" 
d="M-4 0l16 82h193l248 1270h-195l16 82h990l-54 -267h-86l37 185h-620l-115 -588h571l-16 -82h-571l-117 -600h661l39 197h86l-55 -279h-1028zM782 1614l29 149h111l-29 -149h-111z" />
    <glyph glyph-name="edotaccent" unicode="&#x117;" horiz-adv-x="1126" 
d="M80 403q0 122 45.5 239t123.5 207t192 145t241 55q174 0 262 -99t88 -264q0 -34 -6.5 -74t-13.5 -63l-6 -23h-822q-12 -51 -12 -112q0 -155 93.5 -255t266.5 -100q55 0 110 13.5t95 32.5t72 37.5t49 31.5l16 14l33 -77q-7 -6 -19.5 -15t-52.5 -32.5t-82 -41.5
t-103.5 -32.5t-121.5 -14.5q-199 0 -323.5 116t-124.5 312zM205 606h727q8 39 8 86q0 137 -73 207t-191 70q-96 0 -186.5 -40t-167 -123.5t-117.5 -199.5zM688 1284l29 150h110l-28 -150h-111z" />
    <glyph glyph-name="Eogonek" unicode="&#x118;" horiz-adv-x="1263" 
d="M-4 0l16 82h193l248 1270h-195l16 82h990l-54 -267h-86l37 185h-620l-115 -588h571l-16 -82h-571l-117 -600h661l39 197h86l-55 -279h-10q-16 0 -68 -36.5t-102.5 -96.5t-50.5 -109q0 -25 12 -44.5t29.5 -29t35 -15.5t29.5 -7l12 -2l-37 -78q-7 1 -19 3.5t-42 14
t-52.5 27.5t-41.5 47t-19 70q0 136 181 256h-885z" />
    <glyph glyph-name="eogonek" unicode="&#x119;" horiz-adv-x="1128" 
d="M82 403q0 122 45 239t122.5 207t190 145t238.5 55q177 0 266.5 -99t89.5 -264q0 -34 -6.5 -74t-13.5 -63l-6 -23h-822q-12 -51 -12 -112q0 -155 94 -255t267 -100q55 0 110 13.5t95 32.5t72 37.5t48 31.5l17 14l32 -77q-79 -60 -194 -109q-16 -7 -39.5 -21t-54.5 -38.5
t-57 -52t-44 -63t-18 -69.5q0 -40 30 -64.5t60 -29.5l29 -4l-37 -78q-7 1 -19 3.5t-42 14t-52.5 27.5t-41.5 47t-19 70q0 121 145 231q-211 -5 -342 113t-131 315zM207 606h727q8 39 8 86q0 137 -73 207t-191 70q-96 0 -186.5 -40t-167 -123.5t-117.5 -199.5z" />
    <glyph glyph-name="Ecaron" unicode="&#x11a;" horiz-adv-x="1263" 
d="M-4 0l16 82h193l248 1270h-195l16 82h990l-54 -267h-86l37 185h-620l-115 -588h571l-16 -82h-571l-117 -600h661l39 197h86l-55 -279h-1028zM766 1536l-119 227h103l81 -164h5l147 164h115l-209 -227h-123z" />
    <glyph glyph-name="ecaron" unicode="&#x11b;" horiz-adv-x="1126" 
d="M80 403q0 122 45.5 239t123.5 207t192 145t241 55q174 0 262 -99t88 -264q0 -34 -6.5 -74t-13.5 -63l-6 -23h-822q-12 -51 -12 -112q0 -155 93.5 -255t266.5 -100q55 0 110 13.5t95 32.5t72 37.5t49 31.5l16 14l33 -77q-7 -6 -19.5 -15t-52.5 -32.5t-82 -41.5
t-103.5 -32.5t-121.5 -14.5q-199 0 -323.5 116t-124.5 312zM205 606h727q8 39 8 86q0 137 -73 207t-191 70q-96 0 -186.5 -40t-167 -123.5t-117.5 -199.5zM672 1206l-119 228h102l82 -164h4l148 164h115l-209 -228h-123z" />
    <glyph glyph-name="Gcircumflex" unicode="&#x11c;" horiz-adv-x="1579" 
d="M137 590q0 173 69 333t185 277.5t277 187.5t338 70q93 0 186 -19t170 -53.5t119.5 -89.5t29.5 -120l-26 -138h-90l20 109q11 57 -24.5 102.5t-100 71.5t-137.5 39.5t-145 13.5q-156 0 -300 -63t-249 -168.5t-167.5 -248.5t-62.5 -296q0 -240 151 -389.5t394 -149.5
q53 0 113.5 7t127.5 25t122.5 44t96 67.5t50.5 92.5l51 256h-317l16 82h406l-70 -354q-16 -81 -80.5 -142.5t-155 -95t-182 -50t-178.5 -16.5q-293 0 -465 169t-172 446zM793 1536l208 227h123l119 -227h-102l-82 164h-4l-148 -164h-114z" />
    <glyph glyph-name="gcircumflex" unicode="&#x11d;" horiz-adv-x="1224" 
d="M70 -279q13 -8 37 -19t94 -29.5t135 -18.5q86 0 159 21t138 66.5t109.5 127t62.5 194.5q7 44 16.5 80.5t14.5 50.5l6 15h-4q-131 -209 -365 -209q-178 0 -282.5 108t-104.5 293q0 87 22 177.5t67.5 175t108 150t150.5 105.5t189 40q79 0 145 -17.5t120 -64.5t73 -119h4
q-4 14 2 51q12 68 44.5 96.5t98.5 28.5h152l-15 -80h-139q-46 0 -55 -45l-174 -903q-18 -91 -56.5 -164t-89.5 -121.5t-115 -80.5t-131.5 -46t-140.5 -14q-179 0 -326 80zM176 403q0 -150 79.5 -234.5t219.5 -84.5q87 0 161 38t124 100t85.5 141.5t51.5 162.5t16 164
q0 144 -77 209.5t-209 65.5q-104 0 -191.5 -50t-143 -131t-86 -180t-30.5 -201zM481 1206l209 228h123l119 -228h-103l-81 164h-5l-147 -164h-115z" />
    <glyph glyph-name="Gbreve" unicode="&#x11e;" horiz-adv-x="1579" 
d="M137 590q0 173 69 333t185 277.5t277 187.5t338 70q93 0 186 -19t170 -53.5t119.5 -89.5t29.5 -120l-26 -138h-90l20 109q11 57 -24.5 102.5t-100 71.5t-137.5 39.5t-145 13.5q-156 0 -300 -63t-249 -168.5t-167.5 -248.5t-62.5 -296q0 -240 151 -389.5t394 -149.5
q53 0 113.5 7t127.5 25t122.5 44t96 67.5t50.5 92.5l51 256h-317l16 82h406l-70 -354q-16 -81 -80.5 -142.5t-155 -95t-182 -50t-178.5 -16.5q-293 0 -465 169t-172 446zM1028 1530q-85 0 -140 56t-36 145l6 32h86l-6 -28q-11 -64 17 -95.5t83 -31.5q54 0 96.5 32t53.5 97
l6 26h86l-6 -32q-18 -102 -86.5 -151.5t-159.5 -49.5z" />
    <glyph glyph-name="gbreve" unicode="&#x11f;" horiz-adv-x="1224" 
d="M70 -279q13 -8 37 -19t94 -29.5t135 -18.5q86 0 159 21t138 66.5t109.5 127t62.5 194.5q7 44 16.5 80.5t14.5 50.5l6 15h-4q-131 -209 -365 -209q-178 0 -282.5 108t-104.5 293q0 87 22 177.5t67.5 175t108 150t150.5 105.5t189 40q79 0 145 -17.5t120 -64.5t73 -119h4
q-4 14 2 51q12 68 44.5 96.5t98.5 28.5h152l-15 -80h-139q-46 0 -55 -45l-174 -903q-18 -91 -56.5 -164t-89.5 -121.5t-115 -80.5t-131.5 -46t-140.5 -14q-179 0 -326 80zM176 403q0 -150 79.5 -234.5t219.5 -84.5q87 0 161 38t124 100t85.5 141.5t51.5 162.5t16 164
q0 144 -77 209.5t-209 65.5q-104 0 -191.5 -50t-143 -131t-86 -180t-30.5 -201zM717 1200q-85 0 -140 56t-36 145l6 33h86l-6 -29q-11 -64 17 -95.5t83 -31.5q54 0 96.5 32t53.5 97l6 27h86l-6 -33q-18 -102 -86.5 -151.5t-159.5 -49.5z" />
    <glyph glyph-name="Gdotaccent" unicode="&#x120;" horiz-adv-x="1579" 
d="M137 590q0 173 69 333t185 277.5t277 187.5t338 70q93 0 186 -19t170 -53.5t119.5 -89.5t29.5 -120l-26 -138h-90l20 109q11 57 -24.5 102.5t-100 71.5t-137.5 39.5t-145 13.5q-156 0 -300 -63t-249 -168.5t-167.5 -248.5t-62.5 -296q0 -240 151 -389.5t394 -149.5
q53 0 113.5 7t127.5 25t122.5 44t96 67.5t50.5 92.5l51 256h-317l16 82h406l-70 -354q-16 -81 -80.5 -142.5t-155 -95t-182 -50t-178.5 -16.5q-293 0 -465 169t-172 446zM985 1614l29 149h110l-28 -149h-111z" />
    <glyph glyph-name="gdotaccent" unicode="&#x121;" horiz-adv-x="1224" 
d="M70 -279q13 -8 37 -19t94 -29.5t135 -18.5q86 0 159 21t138 66.5t109.5 127t62.5 194.5q7 44 16.5 80.5t14.5 50.5l6 15h-4q-131 -209 -365 -209q-178 0 -282.5 108t-104.5 293q0 87 22 177.5t67.5 175t108 150t150.5 105.5t189 40q79 0 145 -17.5t120 -64.5t73 -119h4
q-4 14 2 51q12 68 44.5 96.5t98.5 28.5h152l-15 -80h-139q-46 0 -55 -45l-174 -903q-18 -91 -56.5 -164t-89.5 -121.5t-115 -80.5t-131.5 -46t-140.5 -14q-179 0 -326 80zM176 403q0 -150 79.5 -234.5t219.5 -84.5q87 0 161 38t124 100t85.5 141.5t51.5 162.5t16 164
q0 144 -77 209.5t-209 65.5q-104 0 -191.5 -50t-143 -131t-86 -180t-30.5 -201zM674 1284l28 150h111l-29 -150h-110z" />
    <glyph glyph-name="Gcommaaccent" unicode="&#x122;" horiz-adv-x="1579" 
d="M137 590q0 173 69 333t185 277.5t277 187.5t338 70q93 0 186 -19t170 -53.5t119.5 -89.5t29.5 -120l-26 -138h-90l20 109q11 57 -24.5 102.5t-100 71.5t-137.5 39.5t-145 13.5q-156 0 -300 -63t-249 -168.5t-167.5 -248.5t-62.5 -296q0 -240 151 -389.5t394 -149.5
q53 0 113.5 7t127.5 25t122.5 44t96 67.5t50.5 92.5l51 256h-317l16 82h406l-70 -354q-16 -81 -80.5 -142.5t-155 -95t-182 -50t-178.5 -16.5q-293 0 -465 169t-172 446zM635 -135h94q4 -20 4 -43q0 -67 -37 -134t-104 -116l-47 47q96 92 96 191q0 25 -6 55z" />
    <glyph glyph-name="gcommaaccent" unicode="&#x123;" horiz-adv-x="1224" 
d="M70 -279q13 -8 37 -19t94 -29.5t135 -18.5q86 0 159 21t138 66.5t109.5 127t62.5 194.5q7 44 16.5 80.5t14.5 50.5l6 15h-4q-131 -209 -365 -209q-178 0 -282.5 108t-104.5 293q0 87 22 177.5t67.5 175t108 150t150.5 105.5t189 40q79 0 145 -17.5t120 -64.5t73 -119h4
q-4 14 2 51q12 68 44.5 96.5t98.5 28.5h152l-15 -80h-139q-46 0 -55 -45l-174 -903q-18 -91 -56.5 -164t-89.5 -121.5t-115 -80.5t-131.5 -46t-140.5 -14q-179 0 -326 80zM176 403q0 -150 79.5 -234.5t219.5 -84.5q87 0 161 38t124 100t85.5 141.5t51.5 162.5t16 164
q0 144 -77 209.5t-209 65.5q-104 0 -191.5 -50t-143 -131t-86 -180t-30.5 -201zM739 1184h-94q-4 20 -4 43q0 67 37 134t104 116l47 -47q-96 -92 -96 -191q0 -25 6 -55z" />
    <glyph glyph-name="Hcircumflex" unicode="&#x124;" horiz-adv-x="1699" 
d="M-4 0l16 82h193l248 1270h-195l16 82h478l-17 -82h-194l-115 -592h909l115 592h-195l17 82h477l-16 -82h-195l-248 -1270h195l-17 -82h-477l17 82h194l117 596h-909l-117 -596h194l-16 -82h-475zM801 1536l209 227h123l118 -227h-102l-82 164h-4l-148 -164h-114z" />
    <glyph glyph-name="hcircumflex" unicode="&#x125;" horiz-adv-x="1255" 
d="M80 0l262 1354h-184l16 80h270l-110 -580q-4 -21 -11 -44.5t-11 -36.5l-5 -13h4q17 34 46 71t73.5 76.5t96 70.5t119 51t136.5 20q137 0 209 -67t72 -191q0 -68 -51 -323.5t-51 -291.5q0 -35 8.5 -56.5t26 -30.5t31 -11t36.5 -2l55 4l-16 -80q-44 -4 -64 -4
q-26 0 -51 6.5t-53.5 22t-46 49.5t-17.5 82q0 37 51.5 292.5t51.5 323.5q0 96 -52 144.5t-141 48.5q-123 0 -235 -67.5t-186.5 -178t-100.5 -240.5l-92 -479h-86zM190 1536l209 227h123l119 -227h-102l-82 164h-4l-148 -164h-115z" />
    <glyph glyph-name="Hbar" unicode="&#x126;" horiz-adv-x="1699" 
d="M-2 0l16 82h193l186 956h-174l17 82h174l45 232h-195l16 82h478l-17 -82h-194l-45 -232h909l45 232h-195l17 82h477l-16 -82h-195l-45 -232h174l-16 -82h-174l-187 -956h195l-17 -82h-477l17 82h194l117 596h-909l-117 -596h194l-16 -82h-475zM428 760h909l54 278h-910z
" />
    <glyph glyph-name="hbar" unicode="&#x127;" horiz-adv-x="1255" 
d="M80 0l227 1165h-166l17 82h166l36 187h86l-36 -187h313l-16 -82h-314l-59 -311q-4 -21 -11 -44.5t-11 -36.5l-5 -13h4q17 34 46 71t73.5 76.5t96 70.5t119 51t136.5 20q137 0 209 -67t72 -191q0 -68 -51 -323.5t-51 -291.5q0 -35 8.5 -56.5t26 -30.5t31 -11t36.5 -2l55 4
l-16 -80q-44 -4 -64 -4q-26 0 -51 6.5t-53.5 22t-46 49.5t-17.5 82q0 37 51.5 292.5t51.5 323.5q0 96 -52 144.5t-141 48.5q-123 0 -235 -67.5t-186.5 -178t-100.5 -240.5l-92 -479h-86z" />
    <glyph glyph-name="Itilde" unicode="&#x128;" horiz-adv-x="702" 
d="M-4 0l16 82h193l248 1270h-195l16 82h478l-17 -82h-194l-248 -1270h194l-16 -82h-475zM242 1542q20 108 71 164.5t127 56.5q38 0 67 -15t47 -36.5t33 -43.5t34.5 -37t42.5 -15q72 0 106 141h90q-20 -107 -72 -164t-126 -57q-38 0 -67 15t-47 37t-33 43.5t-34.5 36.5
t-42.5 15q-76 0 -106 -141h-90z" />
    <glyph glyph-name="itilde" unicode="&#x129;" horiz-adv-x="557" 
d="M145 162q0 9 9 61l141 721h-195l17 80h280l-155 -788q-6 -38 -6 -60q0 -33 8.5 -55t25.5 -31t31.5 -11.5t36.5 -2.5l55 4l-16 -80q-44 -4 -64 -4q-26 0 -51 6t-53.5 22t-46 51.5t-17.5 86.5zM102 1212q20 108 71.5 165t127.5 57q38 0 67 -15t46.5 -37t32.5 -44t34.5 -37
t42.5 -15q73 0 107 141h90q-20 -107 -72 -164t-127 -57q-38 0 -67 15t-46.5 37t-32.5 44t-34.5 37t-42.5 15q-76 0 -106 -142h-91z" />
    <glyph glyph-name="Imacron" unicode="&#x12a;" horiz-adv-x="702" 
d="M-4 0l16 82h193l248 1270h-195l16 82h478l-17 -82h-194l-248 -1270h194l-16 -82h-475zM299 1610l14 82h490l-15 -82h-489z" />
    <glyph glyph-name="imacron" unicode="&#x12b;" horiz-adv-x="557" 
d="M145 162q0 9 9 61l141 721h-195l17 80h280l-155 -788q-6 -38 -6 -60q0 -33 8.5 -55t25.5 -31t31.5 -11.5t36.5 -2.5l55 4l-16 -80q-44 -4 -64 -4q-26 0 -51 6t-53.5 22t-46 51.5t-17.5 86.5zM160 1280l14 82h490l-15 -82h-489z" />
    <glyph glyph-name="Ibreve" unicode="&#x12c;" horiz-adv-x="702" 
d="M-4 0l16 82h193l248 1270h-195l16 82h478l-17 -82h-194l-248 -1270h194l-16 -82h-475zM532 1530q-85 0 -140 56t-36 145l6 32h87l-7 -28q-11 -64 17.5 -95.5t83.5 -31.5q54 0 96 32t53 97l6 26h86l-6 -32q-18 -102 -86.5 -151.5t-159.5 -49.5z" />
    <glyph glyph-name="ibreve" unicode="&#x12d;" horiz-adv-x="557" 
d="M145 162q0 9 9 61l141 721h-195l17 80h280l-155 -788q-6 -38 -6 -60q0 -33 8.5 -55t25.5 -31t31.5 -11.5t36.5 -2.5l55 4l-16 -80q-44 -4 -64 -4q-26 0 -51 6t-53.5 22t-46 51.5t-17.5 86.5zM393 1200q-85 0 -140 56t-36 145l6 33h86l-6 -29q-11 -64 17 -95.5t83 -31.5
q54 0 96.5 32t53.5 97l6 27h86l-6 -33q-18 -102 -86.5 -151.5t-159.5 -49.5z" />
    <glyph glyph-name="Iogonek" unicode="&#x12e;" horiz-adv-x="702" 
d="M-4 0l16 82h193l248 1270h-195l16 82h478l-17 -82h-194l-248 -1270h194l-16 -82h-10q-16 0 -68 -36.5t-102.5 -96.5t-50.5 -109q0 -25 12 -44.5t29.5 -29t35 -15.5t29.5 -7l12 -2l-36 -78q-7 1 -19 3.5t-42 14t-53 27.5t-42 47t-19 70q0 136 181 256h-332z" />
    <glyph glyph-name="iogonek" unicode="&#x12f;" horiz-adv-x="557" 
d="M57 -256q0 135 189 262q-101 33 -101 156q0 9 9 61l141 721h-195l17 80h280l-155 -788q-6 -38 -6 -60q0 -33 8.5 -55t25.5 -31t31.5 -11.5t36.5 -2.5l55 4l-16 -80q-9 0 -15 -2q-26 -10 -74 -45.5t-93 -92t-45 -102.5q0 -25 12 -44.5t29.5 -29t35 -15.5t29.5 -7l12 -2
l-37 -78q-7 1 -19 3.5t-42 14t-52.5 27.5t-41.5 47t-19 70zM348 1284l31 150h110l-30 -150h-111z" />
    <glyph glyph-name="Idotaccent" unicode="&#x130;" horiz-adv-x="702" 
d="M-4 0l16 82h193l248 1270h-195l16 82h478l-17 -82h-194l-248 -1270h194l-16 -82h-475zM489 1614l29 149h111l-29 -149h-111z" />
    <glyph glyph-name="dotlessi" unicode="&#x131;" horiz-adv-x="557" 
d="M145 162q0 9 9 61l141 721h-195l17 80h280l-155 -788q-6 -38 -6 -60q0 -33 8.5 -55t25.5 -31t31.5 -11.5t36.5 -2.5l55 4l-16 -80q-44 -4 -64 -4q-26 0 -51 6t-53.5 22t-46 51.5t-17.5 86.5z" />
    <glyph glyph-name="IJ" unicode="&#x132;" horiz-adv-x="1372" 
d="M569 -10l17 86q48 0 89 7t89.5 30.5t86 62t71 108t51.5 162.5l176 906h-195l17 82h477l-16 -82h-195l-176 -906q-19 -97 -49 -172t-69 -124t-80.5 -81.5t-93.5 -49t-98 -23t-102 -6.5zM-2 0l16 82h193l246 1270h-195l16 82h478l-17 -82h-194l-246 -1270h176l-16 -82h-457
z" />
    <glyph glyph-name="ij" unicode="&#x133;" horiz-adv-x="1079" 
d="M348 1284l31 150h110l-30 -150h-111zM145 162q0 9 9 61l141 721h-195l17 80h280l-155 -788q-6 -38 -6 -60q0 -33 8.5 -55t25.5 -31t31.5 -11.5t36.5 -2.5l55 4l-16 -80q-44 -4 -64 -4q-26 0 -51 6t-53.5 22t-46 51.5t-17.5 86.5zM915 1284l29 150h111l-29 -150h-111z
M672 -43l190 987h-194l16 80h281l-207 -1065q-19 -97 -55.5 -169.5t-76.5 -111.5t-89 -62t-84.5 -29.5t-71.5 -6.5l-72 4l17 80q16 -4 45 -4t57.5 5t68 24t71 49t60.5 87t44 132z" />
    <glyph glyph-name="Jcircumflex" unicode="&#x134;" horiz-adv-x="1091" 
d="M12 285q0 32 6 69.5t12 59.5l5 22h88q-21 -76 -21 -137q0 -240 238 -240q56 0 109 17.5t104.5 54t90.5 103.5t56 157l185 961h-228l17 82h489l-16 -82h-174l-189 -973q-21 -110 -68.5 -191t-110 -126t-128.5 -66t-137 -21q-67 0 -124 17.5t-104 53t-73.5 97t-26.5 142.5z
M733 1536l209 227h123l119 -227h-103l-82 164h-4l-147 -164h-115z" />
    <glyph glyph-name="jcircumflex" unicode="&#x135;" horiz-adv-x="522" 
d="M127 1206l209 228h123l119 -228h-103l-82 164h-4l-147 -164h-115zM115 -43l190 987h-194l16 80h281l-207 -1065q-19 -97 -55.5 -169.5t-76.5 -111.5t-89 -62t-84.5 -29.5t-71.5 -6.5l-72 4l17 80q16 -4 45 -4t57.5 5t68 24t71 49t60.5 87t44 132z" />
    <glyph glyph-name="Kcommaaccent" unicode="&#x136;" horiz-adv-x="1325" 
d="M-4 0l16 82h193l248 1270h-195l16 82h478l-17 -82h-194l-109 -557h221l496 557h-139l16 82h408l-17 -82h-151l-535 -594v-4q20 -13 45 -72l211 -512q9 -22 17 -35.5t22 -28t35.5 -21.5t50.5 -7l57 4l-16 -82q-30 -4 -59 -4q-46 0 -78.5 11.5t-56 38t-37.5 52t-33 72.5
l-193 475q-14 36 -37.5 52t-68.5 16h-174l-123 -631h194l-16 -82h-475zM489 -135h95q4 -20 4 -43q0 -67 -37.5 -134t-104.5 -116l-47 47q97 93 97 191q0 20 -7 55z" />
    <glyph glyph-name="kcommaaccent" unicode="&#x137;" horiz-adv-x="1048" 
d="M78 0l266 1354h-194l16 80h280l-159 -813h151l353 323h-150l16 80h404l-17 -80h-135l-393 -362v-4q24 -17 49 -70l154 -340q11 -24 18 -36t21.5 -27.5t35.5 -22t50 -6.5l57 4l-16 -80q-31 -4 -60 -4q-43 0 -74 11.5t-55 39t-37.5 52t-35.5 71.5l-150 326q-13 28 -33 36.5
t-63 8.5h-105l-108 -541h-86zM358 -135h95q4 -20 4 -43q0 -67 -37.5 -134t-104.5 -116l-47 47q97 93 97 191q0 20 -7 55z" />
    <glyph glyph-name="kgreenlandic" unicode="&#x138;" horiz-adv-x="1093" 
d="M123 0l184 944h-194l16 80h281l-78 -403h151l353 323h-150l16 80h404l-16 -80h-136l-393 -362v-4q24 -17 49 -70l154 -340q11 -24 18 -36t21.5 -27.5t35.5 -22t50 -6.5l57 4l-16 -80q-31 -4 -60 -4q-43 0 -74 11.5t-55 39t-37.5 52t-35.5 71.5l-150 326
q-13 28 -32.5 36.5t-63.5 8.5h-105l-108 -541h-86z" />
    <glyph glyph-name="Lacute" unicode="&#x139;" horiz-adv-x="1181" 
d="M-4 0l16 82h193l248 1270h-195l16 82h478l-17 -82h-194l-248 -1270h639l49 246h86l-66 -328h-1005zM446 1536l238 227h139l-258 -227h-119z" />
    <glyph glyph-name="lacute" unicode="&#x13a;" horiz-adv-x="524" 
d="M117 162q0 17 8 63l219 1129h-194l16 80h280l-231 -1196q-8 -46 -8 -64q0 -33 8.5 -54.5t25.5 -30t31.5 -11t36.5 -2.5l56 4l-17 -80q-34 -4 -63 -4q-26 0 -51 6t-53.5 22t-46 51.5t-17.5 86.5zM342 1536l238 227h139l-258 -227h-119z" />
    <glyph glyph-name="Lcommaaccent" unicode="&#x13b;" horiz-adv-x="1181" 
d="M-4 0l16 82h193l248 1270h-195l16 82h478l-17 -82h-194l-248 -1270h639l49 246h86l-66 -328h-1005zM479 -135h94q5 -25 5 -43q0 -67 -37.5 -134t-104.5 -116l-47 47q96 92 96 191q0 25 -6 55z" />
    <glyph glyph-name="lcommaaccent" unicode="&#x13c;" horiz-adv-x="524" 
d="M117 162q0 17 8 63l219 1129h-194l16 80h280l-231 -1196q-8 -46 -8 -64q0 -33 8.5 -54.5t25.5 -30t31.5 -11t36.5 -2.5l56 4l-17 -80q-34 -4 -63 -4q-26 0 -51 6t-53.5 22t-46 51.5t-17.5 86.5zM129 -135h94q4 -20 4 -43q0 -67 -37 -134t-104 -116l-47 47q96 92 96 191
q0 25 -6 55z" />
    <glyph glyph-name="Lcaron" unicode="&#x13d;" horiz-adv-x="1181" 
d="M-4 0l16 82h193l248 1270h-195l16 82h478l-17 -82h-194l-248 -1270h639l49 246h86l-66 -328h-1005zM479 -135h94q5 -25 5 -43q0 -67 -37.5 -134t-104.5 -116l-47 47q96 92 96 191q0 25 -6 55z" />
    <glyph glyph-name="lcaron" unicode="&#x13e;" horiz-adv-x="524" 
d="M117 162q0 17 8 63l219 1129h-194l16 80h280l-231 -1196q-8 -46 -8 -64q0 -33 8.5 -54.5t25.5 -30t31.5 -11t36.5 -2.5l56 4l-17 -80q-34 -4 -63 -4q-26 0 -51 6t-53.5 22t-46 51.5t-17.5 86.5zM584 1434h94q4 -20 4 -43q0 -67 -37 -134t-104 -116l-47 47q96 92 96 190
q0 26 -6 56z" />
    <glyph glyph-name="Ldot" unicode="&#x13f;" horiz-adv-x="1181" 
d="M-4 0l16 82h193l248 1270h-195l16 82h478l-17 -82h-194l-248 -1270h639l49 246h86l-66 -328h-1005zM680 684l25 129h124l-24 -129h-125z" />
    <glyph glyph-name="ldot" unicode="&#x140;" horiz-adv-x="540" 
d="M117 162q0 17 8 63l219 1129h-194l16 80h280l-231 -1196q-8 -46 -8 -64q0 -33 8.5 -54.5t25.5 -30t31.5 -11t36.5 -2.5l56 4l-17 -80q-34 -4 -63 -4q-26 0 -51 6t-53.5 22t-46 51.5t-17.5 86.5zM475 684l25 129h125l-25 -129h-125z" />
    <glyph glyph-name="Lslash" unicode="&#x141;" horiz-adv-x="1183" 
d="M-2 0l16 82h193l108 559l-202 -94l20 96l201 94l121 615h-195l16 82h478l-17 -82h-194l-111 -570l520 246l-18 -98l-520 -244l-119 -604h639l49 246h86l-65 -328h-1006z" />
    <glyph glyph-name="lslash" unicode="&#x142;" horiz-adv-x="524" 
d="M125 219l111 565l-199 -102l16 96l201 105l92 471h-194l16 80h281l-99 -502l211 110l-20 -98l-209 -108l-117 -603q-11 -42 -7 -71t11 -46.5t23.5 -26.5t30 -12t32.5 -3l31 2l-17 -80q-18 -4 -36 -4q-17 0 -35 3t-41 12t-39.5 24.5t-32 41t-16.5 61.5t6 85z" />
    <glyph glyph-name="Nacute" unicode="&#x143;" horiz-adv-x="1687" 
d="M-4 0l16 82h193l248 1270h-195l16 82h273l651 -1231q6 -12 13 -29.5t11 -29.5l3 -11h4q2 49 10 80l223 1139h-194l16 82h477l-16 -82h-195l-264 -1352h-80l-653 1233q-6 12 -12.5 29.5t-9.5 29.5l-3 11h-4q-2 -49 -10 -80l-221 -1141h194l-16 -82h-475zM954 1536l238 227
h139l-258 -227h-119z" />
    <glyph glyph-name="nacute" unicode="&#x144;" horiz-adv-x="1298" 
d="M123 0l174 899q7 45 -37 45h-149l16 80h162q56 0 78 -20t22 -62q0 -20 -13.5 -85t-27.5 -97h4q22 45 63 92t100 93t142.5 75t173.5 29q134 0 204.5 -66.5t70.5 -189.5q0 -68 -51 -324.5t-51 -292.5q0 -35 8.5 -56.5t26 -30.5t31 -11t36.5 -2l55 4l-16 -80q-44 -4 -64 -4
q-26 0 -51 6.5t-53.5 22t-46 49.5t-17.5 82q0 37 51.5 292.5t51.5 323.5q0 97 -51 145t-146 48q-89 0 -176 -39.5t-155.5 -105.5t-118.5 -155.5t-68 -185.5l-92 -479h-86zM719 1206l237 228h140l-258 -228h-119z" />
    <glyph glyph-name="Ncommaaccent" unicode="&#x145;" horiz-adv-x="1687" 
d="M-4 0l16 82h193l248 1270h-195l16 82h273l651 -1231q6 -12 13 -29.5t11 -29.5l3 -11h4q2 49 10 80l223 1139h-194l16 82h477l-16 -82h-195l-264 -1352h-80l-653 1233q-6 12 -12.5 29.5t-9.5 29.5l-3 11h-4q-2 -49 -10 -80l-221 -1141h194l-16 -82h-475zM655 -135h95
q4 -20 4 -43q0 -67 -37.5 -134t-104.5 -116l-47 47q97 93 97 191q0 20 -7 55z" />
    <glyph glyph-name="ncommaaccent" unicode="&#x146;" horiz-adv-x="1298" 
d="M123 0l174 899q7 45 -37 45h-149l16 80h162q56 0 78 -20t22 -62q0 -20 -13.5 -85t-27.5 -97h4q22 45 63 92t100 93t142.5 75t173.5 29q134 0 204.5 -66.5t70.5 -189.5q0 -68 -51 -324.5t-51 -292.5q0 -35 8.5 -56.5t26 -30.5t31 -11t36.5 -2l55 4l-16 -80q-44 -4 -64 -4
q-26 0 -51 6.5t-53.5 22t-46 49.5t-17.5 82q0 37 51.5 292.5t51.5 323.5q0 97 -51 145t-146 48q-89 0 -176 -39.5t-155.5 -105.5t-118.5 -155.5t-68 -185.5l-92 -479h-86zM518 -135h94q4 -20 4 -43q0 -67 -37 -134t-104 -116l-47 47q96 92 96 191q0 25 -6 55z" />
    <glyph glyph-name="Ncaron" unicode="&#x147;" horiz-adv-x="1687" 
d="M-4 0l16 82h193l248 1270h-195l16 82h273l651 -1231q6 -12 13 -29.5t11 -29.5l3 -11h4q2 49 10 80l223 1139h-194l16 82h477l-16 -82h-195l-264 -1352h-80l-653 1233q-6 12 -12.5 29.5t-9.5 29.5l-3 11h-4q-2 -49 -10 -80l-221 -1141h194l-16 -82h-475zM981 1536
l-119 227h103l82 -164h4l147 164h115l-209 -227h-123z" />
    <glyph glyph-name="ncaron" unicode="&#x148;" horiz-adv-x="1298" 
d="M123 0l174 899q7 45 -37 45h-149l16 80h162q56 0 78 -20t22 -62q0 -20 -13.5 -85t-27.5 -97h4q22 45 63 92t100 93t142.5 75t173.5 29q134 0 204.5 -66.5t70.5 -189.5q0 -68 -51 -324.5t-51 -292.5q0 -35 8.5 -56.5t26 -30.5t31 -11t36.5 -2l55 4l-16 -80q-44 -4 -64 -4
q-26 0 -51 6.5t-53.5 22t-46 49.5t-17.5 82q0 37 51.5 292.5t51.5 323.5q0 97 -51 145t-146 48q-89 0 -176 -39.5t-155.5 -105.5t-118.5 -155.5t-68 -185.5l-92 -479h-86zM745 1206l-118 228h102l82 -164h4l148 164h114l-209 -228h-123z" />
    <glyph glyph-name="napostrophe" unicode="&#x149;" horiz-adv-x="1298" 
d="M123 0l174 899q7 45 -37 45h-149l16 80h162q56 0 78 -20t22 -62q0 -20 -13.5 -85t-27.5 -97h4q22 45 63 92t100 93t142.5 75t173.5 29q134 0 204.5 -66.5t70.5 -189.5q0 -68 -51 -324.5t-51 -292.5q0 -35 8.5 -56.5t26 -30.5t31 -11t36.5 -2l55 4l-16 -80q-44 -4 -64 -4
q-26 0 -51 6.5t-53.5 22t-46 49.5t-17.5 82q0 37 51.5 292.5t51.5 323.5q0 97 -51 145t-146 48q-89 0 -176 -39.5t-155.5 -105.5t-118.5 -155.5t-68 -185.5l-92 -479h-86zM283 1434h94q4 -20 4 -43q0 -67 -37 -134t-104 -116l-47 47q96 92 96 190q0 26 -6 56z" />
    <glyph glyph-name="Eng" unicode="&#x14a;" horiz-adv-x="1687" 
d="M-4 0l16 82h193l248 1270h-195l16 82h275l649 -1231q6 -12 13 -29.5t11 -29.5l3 -11h4q4 49 10 80l223 1139h-194l16 82h477l-16 -82h-195l-258 -1315q-22 -112 -60.5 -195.5t-84 -133t-105.5 -79t-115.5 -39.5t-123.5 -10l16 84q302 0 381 344l-647 1225
q-6 12 -12.5 29.5t-9.5 29.5l-3 11h-4q-4 -49 -10 -80l-221 -1141h194l-16 -82h-475z" />
    <glyph glyph-name="eng" unicode="&#x14b;" horiz-adv-x="1255" 
d="M123 0l174 899q7 45 -37 45h-149l16 80h162q56 0 78 -20t22 -62q0 -20 -13.5 -85t-27.5 -97h4q22 45 63 92t100 93t142.5 75t173.5 29q134 0 204.5 -66.5t70.5 -189.5q0 -62 -16 -144l-136 -700q-19 -97 -55.5 -169.5t-76 -111.5t-88.5 -62t-84.5 -29.5t-71.5 -6.5l-72 4
l16 80q16 -4 45 -4t57.5 5t68 24t71 49t60.5 87t44 132l129 671q19 101 19 154q0 97 -51 145t-146 48q-89 0 -176 -39.5t-155.5 -105.5t-118.5 -155.5t-68 -185.5l-92 -479h-86z" />
    <glyph glyph-name="Omacron" unicode="&#x14c;" horiz-adv-x="1697" 
d="M135 590q0 115 34 227.5t94 207t143.5 175.5t180 137.5t206 88.5t219.5 32q266 0 433 -168t167 -430q0 -175 -75 -339.5t-196.5 -283.5t-281.5 -190.5t-324 -71.5q-175 0 -312.5 79t-212.5 219t-75 317zM227 590q0 -233 144.5 -382t373.5 -149q142 0 283 64.5t249 171
t175.5 255.5t67.5 308q0 226 -145 371t-374 145q-145 0 -286 -63t-248 -167.5t-173.5 -250.5t-66.5 -303zM803 1610l14 82h490l-15 -82h-489z" />
    <glyph glyph-name="omacron" unicode="&#x14d;" horiz-adv-x="1273" 
d="M80 420q0 127 53.5 244.5t141 201t204 133.5t238.5 50q197 0 319.5 -123.5t122.5 -315.5q0 -129 -54 -247.5t-142 -202.5t-204 -134.5t-237 -50.5q-197 0 -319.5 125t-122.5 320zM170 422q0 -159 101 -261t261 -102q99 0 196 43.5t172.5 116.5t122 176t46.5 213
q0 156 -101 256.5t-261 100.5q-136 0 -259.5 -72.5t-200.5 -199t-77 -271.5zM526 1280l15 82h489l-14 -82h-490z" />
    <glyph glyph-name="Obreve" unicode="&#x14e;" horiz-adv-x="1697" 
d="M135 590q0 115 34 227.5t94 207t143.5 175.5t180 137.5t206 88.5t219.5 32q266 0 433 -168t167 -430q0 -175 -75 -339.5t-196.5 -283.5t-281.5 -190.5t-324 -71.5q-175 0 -312.5 79t-212.5 219t-75 317zM227 590q0 -233 144.5 -382t373.5 -149q142 0 283 64.5t249 171
t175.5 255.5t67.5 308q0 226 -145 371t-374 145q-145 0 -286 -63t-248 -167.5t-173.5 -250.5t-66.5 -303zM1036 1530q-85 0 -140 56t-36 145l6 32h86l-6 -28q-11 -64 17.5 -95.5t83.5 -31.5q54 0 96 32t53 97l6 26h86l-6 -32q-18 -102 -86.5 -151.5t-159.5 -49.5z" />
    <glyph glyph-name="obreve" unicode="&#x14f;" horiz-adv-x="1273" 
d="M80 420q0 127 53.5 244.5t141 201t204 133.5t238.5 50q197 0 319.5 -123.5t122.5 -315.5q0 -129 -54 -247.5t-142 -202.5t-204 -134.5t-237 -50.5q-197 0 -319.5 125t-122.5 320zM170 422q0 -159 101 -261t261 -102q99 0 196 43.5t172.5 116.5t122 176t46.5 213
q0 156 -101 256.5t-261 100.5q-136 0 -259.5 -72.5t-200.5 -199t-77 -271.5zM760 1200q-85 0 -140 56t-36 145l6 33h86l-6 -29q-11 -64 17 -95.5t83 -31.5q54 0 96.5 32t53.5 97l6 27h86l-6 -33q-18 -102 -86.5 -151.5t-159.5 -49.5z" />
    <glyph glyph-name="Ohungarumlaut" unicode="&#x150;" horiz-adv-x="1697" 
d="M135 590q0 115 34 227.5t94 207t143.5 175.5t180 137.5t206 88.5t219.5 32q266 0 433 -168t167 -430q0 -175 -75 -339.5t-196.5 -283.5t-281.5 -190.5t-324 -71.5q-175 0 -312.5 79t-212.5 219t-75 317zM227 590q0 -233 144.5 -382t373.5 -149q142 0 283 64.5t249 171
t175.5 255.5t67.5 308q0 226 -145 371t-374 145q-145 0 -286 -63t-248 -167.5t-173.5 -250.5t-66.5 -303zM1069 1536l182 227h131l-206 -227h-107zM825 1536l172 227h119l-178 -227h-113z" />
    <glyph glyph-name="ohungarumlaut" unicode="&#x151;" horiz-adv-x="1273" 
d="M80 420q0 127 53.5 244.5t141 201t204 133.5t238.5 50q197 0 319.5 -123.5t122.5 -315.5q0 -129 -54 -247.5t-142 -202.5t-204 -134.5t-237 -50.5q-197 0 -319.5 125t-122.5 320zM170 422q0 -159 101 -261t261 -102q99 0 196 43.5t172.5 116.5t122 176t46.5 213
q0 156 -101 256.5t-261 100.5q-136 0 -259.5 -72.5t-200.5 -199t-77 -271.5zM793 1206l182 228h131l-207 -228h-106zM549 1206l172 228h119l-178 -228h-113z" />
    <glyph glyph-name="OE" unicode="&#x152;" horiz-adv-x="1949" 
d="M135 578q0 174 70 336t186 280t274 189t328 71q38 0 132 -10t124 -10h701l-54 -267h-86l37 185h-620l-115 -588h571l-16 -82h-571l-117 -600h661l37 186h86l-53 -268h-719q-27 0 -115.5 -10t-125.5 -10q-140 0 -256 44.5t-194.5 124t-121.5 189.5t-43 240zM227 567
q0 -225 139 -364.5t379 -139.5q34 0 70.5 4.5t56.5 8.5l19 4l248 1274q-66 16 -142 16q-156 0 -298.5 -64.5t-246 -172.5t-164.5 -256.5t-61 -309.5z" />
    <glyph glyph-name="oe" unicode="&#x153;" horiz-adv-x="2097" 
d="M80 420q0 127 54.5 244.5t142.5 201t203 133.5t233 50q162 0 273.5 -84t152.5 -224h4q80 139 212 223.5t292 84.5q177 0 266.5 -99t89.5 -264q0 -34 -6.5 -74t-13.5 -63l-7 -23h-821q-12 -51 -12 -112q0 -155 93.5 -255t266.5 -100q55 0 110 13.5t95 32.5t72 37.5
t48 31.5l17 14l33 -77q-7 -6 -19 -15t-51.5 -32.5t-81 -41.5t-102.5 -32.5t-121 -14.5q-167 0 -284 82.5t-154 227.5h-4q-87 -140 -233 -225t-302 -85q-200 0 -323 124.5t-123 320.5zM1176 606h727q8 39 8 86q0 137 -73 207t-191 70q-96 0 -186.5 -40t-167 -123.5
t-117.5 -199.5zM170 422q0 -159 101 -261t261 -102q99 0 196 43.5t172.5 116.5t122 176t46.5 213q0 156 -101 256.5t-261 100.5q-136 0 -259.5 -72.5t-200.5 -199t-77 -271.5z" />
    <glyph glyph-name="Racute" unicode="&#x154;" horiz-adv-x="1386" 
d="M-4 0l16 82h193l248 1270h-195l16 82h594q180 0 273 -54q137 -80 137 -270q0 -184 -123 -315t-305 -152v-4q21 -33 29 -51l165 -418q18 -46 43.5 -69t81.5 -23l58 4l-17 -82q-30 -4 -61 -4q-45 0 -77.5 11.5t-55.5 38.5t-36.5 52.5t-31.5 71.5l-147 371q-24 58 -56 76
t-96 18h-248l-108 -553h194l-16 -82h-475zM418 717h379q155 0 272 111t117 274q0 147 -103 207q-74 43 -231 43h-311zM758 1536l237 227h140l-258 -227h-119z" />
    <glyph glyph-name="racute" unicode="&#x155;" horiz-adv-x="729" 
d="M123 0l174 899q7 45 -37 45h-149l16 80h162q56 0 78 -20t22 -62q0 -20 -16 -90.5t-29 -106.5h4q60 123 159 205t222 82q27 0 62 -6l-19 -86q-32 4 -45 4q-72 0 -138 -37.5t-114 -96.5t-88 -134.5t-64.5 -146.5t-37.5 -138l-76 -391h-86zM414 1206l237 228h140l-259 -228
h-118z" />
    <glyph glyph-name="Rcommaaccent" unicode="&#x156;" horiz-adv-x="1386" 
d="M-4 0l16 82h193l248 1270h-195l16 82h594q180 0 273 -54q137 -80 137 -270q0 -184 -123 -315t-305 -152v-4q21 -33 29 -51l165 -418q18 -46 43.5 -69t81.5 -23l58 4l-17 -82q-30 -4 -61 -4q-45 0 -77.5 11.5t-55.5 38.5t-36.5 52.5t-31.5 71.5l-147 371q-24 58 -56 76
t-96 18h-248l-108 -553h194l-16 -82h-475zM418 717h379q155 0 272 111t117 274q0 147 -103 207q-74 43 -231 43h-311zM537 -135h94q4 -20 4 -43q0 -67 -37 -134t-104 -116l-48 47q97 93 97 191q0 25 -6 55z" />
    <glyph glyph-name="rcommaaccent" unicode="&#x157;" horiz-adv-x="729" 
d="M123 0l174 899q7 45 -37 45h-149l16 80h162q56 0 78 -20t22 -62q0 -20 -16 -90.5t-29 -106.5h4q60 123 159 205t222 82q27 0 62 -6l-19 -86q-32 4 -45 4q-72 0 -138 -37.5t-114 -96.5t-88 -134.5t-64.5 -146.5t-37.5 -138l-76 -391h-86zM90 -135h94q4 -20 4 -43
q0 -67 -37 -134t-104 -116l-47 47q96 92 96 191q0 25 -6 55z" />
    <glyph glyph-name="Rcaron" unicode="&#x158;" horiz-adv-x="1386" 
d="M-4 0l16 82h193l248 1270h-195l16 82h594q180 0 273 -54q137 -80 137 -270q0 -184 -123 -315t-305 -152v-4q21 -33 29 -51l165 -418q18 -46 43.5 -69t81.5 -23l58 4l-17 -82q-30 -4 -61 -4q-45 0 -77.5 11.5t-55.5 38.5t-36.5 52.5t-31.5 71.5l-147 371q-24 58 -56 76
t-96 18h-248l-108 -553h194l-16 -82h-475zM418 717h379q155 0 272 111t117 274q0 147 -103 207q-74 43 -231 43h-311zM784 1536l-118 227h102l82 -164h4l147 164h115l-209 -227h-123z" />
    <glyph glyph-name="rcaron" unicode="&#x159;" horiz-adv-x="729" 
d="M123 0l174 899q7 45 -37 45h-149l16 80h162q56 0 78 -20t22 -62q0 -20 -16 -90.5t-29 -106.5h4q60 123 159 205t222 82q27 0 62 -6l-19 -86q-32 4 -45 4q-72 0 -138 -37.5t-114 -96.5t-88 -134.5t-64.5 -146.5t-37.5 -138l-76 -391h-86zM440 1206l-118 228h102l82 -164h4
l147 164h115l-209 -228h-123z" />
    <glyph glyph-name="Sacute" unicode="&#x15a;" horiz-adv-x="1148" 
d="M78 254l24 129h91l-25 -123q-10 -52 14 -92t71.5 -63t105 -34.5t122.5 -11.5q167 0 286.5 94.5t119.5 249.5q0 78 -35.5 135t-92.5 90t-126 60t-137.5 55.5t-125.5 65t-92.5 99.5t-35.5 149q0 120 70.5 213t184.5 140.5t248 47.5q87 0 171.5 -24t141 -76t42.5 -119
l-27 -129h-90l21 107q8 42 -15.5 74t-68 49.5t-92.5 25.5t-97 8q-161 0 -277 -88.5t-116 -224.5q0 -70 35.5 -121.5t92.5 -82t126 -56.5t137.5 -56t125.5 -69t92.5 -105.5t35.5 -156.5q0 -127 -70.5 -228t-187.5 -156t-256 -55q-54 0 -109.5 8t-112.5 29t-98 51.5t-62 80
t-9 110.5zM662 1536l237 227h139l-258 -227h-118z" />
    <glyph glyph-name="sacute" unicode="&#x15b;" horiz-adv-x="946" 
d="M27 207l18 98h86l-16 -88q-8 -39 9 -69t46.5 -46t71 -26.5t75 -13.5t66.5 -3q76 0 144 23.5t114.5 73t46.5 114.5q0 44 -22 79t-58 57.5t-82 45t-94 40t-94 42.5t-82 52.5t-58 71t-22 96.5q0 132 117 213.5t274 81.5q131 0 217.5 -54t67.5 -145l-23 -109h-86l21 99
q7 35 -11.5 61t-54.5 39t-73.5 19t-77.5 6q-107 0 -194 -54t-87 -147q0 -42 22 -76.5t58 -56.5t82 -44t94 -39t94 -41.5t82 -52t58 -70t22 -95.5q0 -134 -112 -224t-299 -90q-93 0 -173.5 23.5t-131 78t-35.5 130.5zM524 1206l238 228h139l-258 -228h-119z" />
    <glyph glyph-name="Scircumflex" unicode="&#x15c;" horiz-adv-x="1148" 
d="M78 254l24 129h91l-25 -123q-10 -52 14 -92t71.5 -63t105 -34.5t122.5 -11.5q167 0 286.5 94.5t119.5 249.5q0 78 -35.5 135t-92.5 90t-126 60t-137.5 55.5t-125.5 65t-92.5 99.5t-35.5 149q0 120 70.5 213t184.5 140.5t248 47.5q87 0 171.5 -24t141 -76t42.5 -119
l-27 -129h-90l21 107q8 42 -15.5 74t-68 49.5t-92.5 25.5t-97 8q-161 0 -277 -88.5t-116 -224.5q0 -70 35.5 -121.5t92.5 -82t126 -56.5t137.5 -56t125.5 -69t92.5 -105.5t35.5 -156.5q0 -127 -70.5 -228t-187.5 -156t-256 -55q-54 0 -109.5 8t-112.5 29t-98 51.5t-62 80
t-9 110.5zM512 1536l209 227h123l119 -227h-103l-82 164h-4l-147 -164h-115z" />
    <glyph glyph-name="scircumflex" unicode="&#x15d;" horiz-adv-x="946" 
d="M27 207l18 98h86l-16 -88q-8 -39 9 -69t46.5 -46t71 -26.5t75 -13.5t66.5 -3q76 0 144 23.5t114.5 73t46.5 114.5q0 44 -22 79t-58 57.5t-82 45t-94 40t-94 42.5t-82 52.5t-58 71t-22 96.5q0 132 117 213.5t274 81.5q131 0 217.5 -54t67.5 -145l-23 -109h-86l21 99
q7 35 -11.5 61t-54.5 39t-73.5 19t-77.5 6q-107 0 -194 -54t-87 -147q0 -42 22 -76.5t58 -56.5t82 -44t94 -39t94 -41.5t82 -52t58 -70t22 -95.5q0 -134 -112 -224t-299 -90q-93 0 -173.5 23.5t-131 78t-35.5 130.5zM375 1206l209 228h123l118 -228h-102l-82 164h-4
l-148 -164h-114z" />
    <glyph glyph-name="Scedilla" unicode="&#x15e;" horiz-adv-x="1148" 
d="M336 -188l67 168q-52 4 -100 15.5t-95 33t-79 51.5t-47 75t-4 99l24 129h91l-25 -123q-10 -52 14 -92t71.5 -63t105 -34.5t122.5 -11.5q167 0 286.5 94.5t119.5 249.5q0 78 -35.5 135t-92.5 90t-126 60t-137.5 55.5t-125.5 65t-92.5 99.5t-35.5 149q0 120 70.5 213
t184.5 140.5t248 47.5q87 0 171.5 -24t141 -76t42.5 -119l-27 -129h-90l21 107q8 42 -15.5 74t-68 49.5t-92.5 25.5t-97 8q-161 0 -277 -88.5t-116 -224.5q0 -70 35.5 -121.5t92.5 -82t126 -56.5t137.5 -56t125.5 -69t92.5 -105.5t35.5 -156.5q0 -126 -69.5 -226.5
t-185 -155.5t-253.5 -57l-37 -98q51 -8 85 -42t34 -89q0 -54 -34 -93t-80.5 -55t-96.5 -16q-27 0 -51.5 2.5t-35.5 5.5l-11 2l16 76q33 -10 80 -10q50 0 88.5 20.5t38.5 67.5q0 30 -29 48t-82 18h-24z" />
    <glyph glyph-name="scedilla" unicode="&#x15f;" horiz-adv-x="946" 
d="M244 -188l67 165q-62 5 -116 22t-96 44.5t-62 69.5t-10 94l18 98h86l-16 -88q-8 -39 9 -69t46.5 -46t71 -26.5t75 -13.5t66.5 -3q76 0 144 23.5t114.5 73t46.5 114.5q0 44 -22 79t-58 57.5t-82 45t-94 40t-94 42.5t-82 52.5t-58 71t-22 96.5q0 132 117 213.5t274 81.5
q131 0 217.5 -54t67.5 -145l-23 -109h-86l21 99q7 35 -11.5 61t-54.5 39t-73.5 19t-77.5 6q-107 0 -194 -54t-87 -147q0 -42 22 -76.5t58 -56.5t82 -44t94 -39t94 -41.5t82 -52t58 -70t22 -95.5q0 -131 -107.5 -220.5t-287.5 -93.5l-37 -98q51 -8 85 -42t34 -89
q0 -54 -34 -93t-80.5 -55t-96.5 -16q-27 0 -51.5 2.5t-35.5 5.5l-11 2l16 76q33 -10 80 -10q50 0 88.5 20.5t38.5 67.5q0 30 -29 48t-82 18h-24z" />
    <glyph glyph-name="Scaron" unicode="&#x160;" horiz-adv-x="1148" 
d="M78 254l24 129h91l-25 -123q-10 -52 14 -92t71.5 -63t105 -34.5t122.5 -11.5q167 0 286.5 94.5t119.5 249.5q0 78 -35.5 135t-92.5 90t-126 60t-137.5 55.5t-125.5 65t-92.5 99.5t-35.5 149q0 120 70.5 213t184.5 140.5t248 47.5q87 0 171.5 -24t141 -76t42.5 -119
l-27 -129h-90l21 107q8 42 -15.5 74t-68 49.5t-92.5 25.5t-97 8q-161 0 -277 -88.5t-116 -224.5q0 -70 35.5 -121.5t92.5 -82t126 -56.5t137.5 -56t125.5 -69t92.5 -105.5t35.5 -156.5q0 -127 -70.5 -228t-187.5 -156t-256 -55q-54 0 -109.5 8t-112.5 29t-98 51.5t-62 80
t-9 110.5zM688 1536l-119 227h103l82 -164h4l147 164h115l-209 -227h-123z" />
    <glyph glyph-name="scaron" unicode="&#x161;" horiz-adv-x="946" 
d="M27 207l18 98h86l-16 -88q-8 -39 9 -69t46.5 -46t71 -26.5t75 -13.5t66.5 -3q76 0 144 23.5t114.5 73t46.5 114.5q0 44 -22 79t-58 57.5t-82 45t-94 40t-94 42.5t-82 52.5t-58 71t-22 96.5q0 132 117 213.5t274 81.5q131 0 217.5 -54t67.5 -145l-23 -109h-86l21 99
q7 35 -11.5 61t-54.5 39t-73.5 19t-77.5 6q-107 0 -194 -54t-87 -147q0 -42 22 -76.5t58 -56.5t82 -44t94 -39t94 -41.5t82 -52t58 -70t22 -95.5q0 -134 -112 -224t-299 -90q-93 0 -173.5 23.5t-131 78t-35.5 130.5zM551 1206l-119 228h103l81 -164h5l147 164h115l-209 -228
h-123z" />
    <glyph glyph-name="Tcommaaccent" unicode="&#x162;" horiz-adv-x="1316" 
d="M297 0l16 82h195l248 1270h-459l-47 -242h-86l63 324h1178l-64 -324h-86l48 242h-459l-248 -1270h195l-17 -82h-203l-47 -123q51 -8 85 -42t34 -89q0 -54 -34 -93t-80.5 -55t-96.5 -16q-27 0 -51.5 2.5t-35.5 5.5l-11 2l16 76q33 -10 80 -10q50 0 88.5 20.5t38.5 67.5
q0 30 -29 48t-82 18h-24l76 188h-201z" />
    <glyph glyph-name="tcommaaccent" unicode="&#x163;" horiz-adv-x="636" 
d="M180 -188l90 221q-100 68 -100 239q0 52 12 119l107 553h-195l17 80h194l55 285h86l-55 -285h268l-16 -80h-268l-109 -567q-10 -49 -10 -101q0 -204 182 -204l60 4l-17 -80q-16 -4 -43 -4q-62 0 -106 12l-49 -127q51 -8 84.5 -42t33.5 -89q0 -54 -34 -93t-80.5 -55
t-96.5 -16q-27 0 -51.5 2.5t-35.5 5.5l-11 2l17 76q32 -10 79 -10q50 0 88.5 20.5t38.5 67.5q0 30 -28.5 48t-81.5 18h-25z" />
    <glyph glyph-name="Tcaron" unicode="&#x164;" horiz-adv-x="1316" 
d="M297 0l16 82h195l248 1270h-459l-47 -242h-86l63 324h1178l-64 -324h-86l48 242h-459l-248 -1270h195l-17 -82h-477zM778 1536l-119 227h103l82 -164h4l147 164h115l-209 -227h-123z" />
    <glyph glyph-name="tcaron" unicode="&#x165;" horiz-adv-x="636" 
d="M170 272q0 52 12 119l107 553h-195l17 80h194l55 285h86l-55 -285h268l-16 -80h-268l-109 -567q-10 -49 -10 -101q0 -204 182 -204l60 4l-17 -80q-16 -4 -43 -4q-268 0 -268 280zM659 1434h95q4 -20 4 -43q0 -67 -37.5 -134t-104.5 -116l-47 47q97 93 97 190q0 21 -7 56z
" />
    <glyph glyph-name="Tbar" unicode="&#x166;" horiz-adv-x="1316" 
d="M297 0l16 82h195l119 608h-394l17 82h393l113 580h-459l-47 -242h-86l63 324h1178l-64 -324h-86l48 242h-459l-113 -580h397l-16 -82h-397l-119 -608h195l-17 -82h-477z" />
    <glyph glyph-name="tbar" unicode="&#x167;" horiz-adv-x="636" 
d="M172 272q0 52 12 119l41 213h-182l14 82h183l51 258h-195l17 80h194l55 285h87l-56 -285h269l-17 -80h-268l-51 -258h258l-17 -82h-256l-43 -227q-10 -49 -10 -101q0 -204 182 -204l60 4l-17 -80q-16 -4 -43 -4q-268 0 -268 280z" />
    <glyph glyph-name="Utilde" unicode="&#x168;" horiz-adv-x="1613" 
d="M238 373q0 26 2.5 55.5t5.5 47.5t7.5 41t4.5 26l158 809h-195l17 82h477l-17 -82h-194l-158 -811q-18 -87 -18 -158q0 -149 98.5 -236.5t273.5 -87.5q196 0 330 101q157 117 201 342l168 850h-195l17 82h477l-17 -82h-194l-172 -871q-26 -131 -89.5 -233.5t-156.5 -165.5
q-159 -107 -373 -107q-209 0 -333.5 110t-124.5 288zM698 1542q20 108 71.5 164.5t127.5 56.5q38 0 67 -15t46.5 -36.5t32.5 -43.5t34.5 -37t42.5 -15q73 0 107 141h90q-20 -107 -72 -164t-127 -57q-38 0 -67 15t-46.5 37t-32.5 43.5t-34.5 36.5t-42.5 15q-77 0 -107 -141
h-90z" />
    <glyph glyph-name="utilde" unicode="&#x169;" horiz-adv-x="1300" 
d="M164 233q0 60 16 142l109 569h-193l15 80h280l-119 -614q-20 -98 -20 -164q0 -90 45 -138.5t156 -48.5q121 0 232 73t182 184t94 233l75 395h-192l14 80h281l-154 -788q-6 -38 -6 -60q0 -33 8.5 -55t25.5 -31t31.5 -11.5t36.5 -2.5l56 4l-17 -80q-43 -4 -63 -4
q-57 0 -96 21t-54 56.5t-17 81t15 93.5h-4q-18 -32 -44 -65t-69.5 -71.5t-93 -68t-117 -49t-139.5 -19.5q-57 0 -105 14t-86.5 43.5t-60.5 80.5t-22 120zM438 1212q20 108 71.5 165t127.5 57q38 0 67 -15t46.5 -37t32.5 -44t34.5 -37t42.5 -15q73 0 107 141h90
q-20 -107 -72 -164t-127 -57q-38 0 -67 15t-46.5 37t-32.5 44t-34.5 37t-42.5 15q-77 0 -107 -142h-90z" />
    <glyph glyph-name="Umacron" unicode="&#x16a;" horiz-adv-x="1613" 
d="M238 373q0 26 2.5 55.5t5.5 47.5t7.5 41t4.5 26l158 809h-195l17 82h477l-17 -82h-194l-158 -811q-18 -87 -18 -158q0 -149 98.5 -236.5t273.5 -87.5q196 0 330 101q157 117 201 342l168 850h-195l17 82h477l-17 -82h-194l-172 -871q-26 -131 -89.5 -233.5t-156.5 -165.5
q-159 -107 -373 -107q-209 0 -333.5 110t-124.5 288zM756 1610l14 82h490l-15 -82h-489z" />
    <glyph glyph-name="umacron" unicode="&#x16b;" horiz-adv-x="1300" 
d="M164 233q0 60 16 142l109 569h-193l15 80h280l-119 -614q-20 -98 -20 -164q0 -90 45 -138.5t156 -48.5q121 0 232 73t182 184t94 233l75 395h-192l14 80h281l-154 -788q-6 -38 -6 -60q0 -33 8.5 -55t25.5 -31t31.5 -11.5t36.5 -2.5l56 4l-17 -80q-43 -4 -63 -4
q-57 0 -96 21t-54 56.5t-17 81t15 93.5h-4q-18 -32 -44 -65t-69.5 -71.5t-93 -68t-117 -49t-139.5 -19.5q-57 0 -105 14t-86.5 43.5t-60.5 80.5t-22 120zM496 1280l14 82h489l-14 -82h-489z" />
    <glyph glyph-name="Ubreve" unicode="&#x16c;" horiz-adv-x="1613" 
d="M238 373q0 26 2.5 55.5t5.5 47.5t7.5 41t4.5 26l158 809h-195l17 82h477l-17 -82h-194l-158 -811q-18 -87 -18 -158q0 -149 98.5 -236.5t273.5 -87.5q196 0 330 101q157 117 201 342l168 850h-195l17 82h477l-17 -82h-194l-172 -871q-26 -131 -89.5 -233.5t-156.5 -165.5
q-159 -107 -373 -107q-209 0 -333.5 110t-124.5 288zM989 1530q-85 0 -140 56t-36 145l6 32h86l-6 -28q-11 -64 17 -95.5t83 -31.5q54 0 96.5 32t53.5 97l6 26h86l-6 -32q-18 -102 -86.5 -151.5t-159.5 -49.5z" />
    <glyph glyph-name="ubreve" unicode="&#x16d;" horiz-adv-x="1300" 
d="M164 233q0 60 16 142l109 569h-193l15 80h280l-119 -614q-20 -98 -20 -164q0 -90 45 -138.5t156 -48.5q121 0 232 73t182 184t94 233l75 395h-192l14 80h281l-154 -788q-6 -38 -6 -60q0 -33 8.5 -55t25.5 -31t31.5 -11.5t36.5 -2.5l56 4l-17 -80q-43 -4 -63 -4
q-57 0 -96 21t-54 56.5t-17 81t15 93.5h-4q-18 -32 -44 -65t-69.5 -71.5t-93 -68t-117 -49t-139.5 -19.5q-57 0 -105 14t-86.5 43.5t-60.5 80.5t-22 120zM729 1200q-85 0 -140 56t-36 145l6 33h86l-6 -29q-11 -64 17 -95.5t83 -31.5q54 0 96.5 32t53.5 97l6 27h86l-6 -33
q-18 -102 -86.5 -151.5t-159.5 -49.5z" />
    <glyph glyph-name="Uring" unicode="&#x16e;" horiz-adv-x="1613" 
d="M238 373q0 26 2.5 55.5t5.5 47.5t7.5 41t4.5 26l158 809h-195l17 82h477l-17 -82h-194l-158 -811q-18 -87 -18 -158q0 -149 98.5 -236.5t273.5 -87.5q196 0 330 101q157 117 201 342l168 850h-195l17 82h477l-17 -82h-194l-172 -871q-26 -131 -89.5 -233.5t-156.5 -165.5
q-159 -107 -373 -107q-209 0 -333.5 110t-124.5 288zM989 1501q-60 0 -98.5 37t-38.5 94q0 69 55 120.5t121 51.5q62 0 100.5 -36.5t38.5 -94.5q0 -69 -53.5 -120.5t-124.5 -51.5zM993 1577q41 0 66.5 27t25.5 69q0 27 -16 42.5t-45 15.5q-35 0 -62.5 -28t-27.5 -69
q0 -26 15.5 -41.5t43.5 -15.5z" />
    <glyph glyph-name="uring" unicode="&#x16f;" horiz-adv-x="1300" 
d="M164 233q0 60 16 142l109 569h-193l15 80h280l-119 -614q-20 -98 -20 -164q0 -90 45 -138.5t156 -48.5q121 0 232 73t182 184t94 233l75 395h-192l14 80h281l-154 -788q-6 -38 -6 -60q0 -33 8.5 -55t25.5 -31t31.5 -11.5t36.5 -2.5l56 4l-17 -80q-43 -4 -63 -4
q-57 0 -96 21t-54 56.5t-17 81t15 93.5h-4q-18 -32 -44 -65t-69.5 -71.5t-93 -68t-117 -49t-139.5 -19.5q-57 0 -105 14t-86.5 43.5t-60.5 80.5t-22 120zM729 1171q-60 0 -98.5 37.5t-38.5 94.5q0 69 55 120.5t121 51.5q62 0 100.5 -37t38.5 -95q0 -69 -53.5 -120.5
t-124.5 -51.5zM733 1247q41 0 66.5 27t25.5 69q0 27 -16 42.5t-45 15.5q-35 0 -62.5 -27.5t-27.5 -68.5q0 -27 16 -42.5t43 -15.5z" />
    <glyph glyph-name="Uhungarumlaut" unicode="&#x170;" horiz-adv-x="1613" 
d="M238 373q0 26 2.5 55.5t5.5 47.5t7.5 41t4.5 26l158 809h-195l17 82h477l-17 -82h-194l-158 -811q-18 -87 -18 -158q0 -149 98.5 -236.5t273.5 -87.5q196 0 330 101q157 117 201 342l168 850h-195l17 82h477l-17 -82h-194l-172 -871q-26 -131 -89.5 -233.5t-156.5 -165.5
q-159 -107 -373 -107q-209 0 -333.5 110t-124.5 288zM1022 1536l182 227h131l-207 -227h-106zM778 1536l172 227h119l-178 -227h-113z" />
    <glyph glyph-name="uhungarumlaut" unicode="&#x171;" horiz-adv-x="1300" 
d="M164 233q0 60 16 142l109 569h-193l15 80h280l-119 -614q-20 -98 -20 -164q0 -90 45 -138.5t156 -48.5q121 0 232 73t182 184t94 233l75 395h-192l14 80h281l-154 -788q-6 -38 -6 -60q0 -33 8.5 -55t25.5 -31t31.5 -11.5t36.5 -2.5l56 4l-17 -80q-43 -4 -63 -4
q-57 0 -96 21t-54 56.5t-17 81t15 93.5h-4q-18 -32 -44 -65t-69.5 -71.5t-93 -68t-117 -49t-139.5 -19.5q-57 0 -105 14t-86.5 43.5t-60.5 80.5t-22 120zM762 1206l182 228h131l-207 -228h-106zM518 1206l172 228h119l-178 -228h-113z" />
    <glyph glyph-name="Uogonek" unicode="&#x172;" horiz-adv-x="1613" 
d="M238 383q0 55 12 117l166 852h-195l17 82h477l-17 -82h-194l-166 -854q-10 -46 -10 -107q0 -157 97.5 -244.5t274.5 -87.5q202 0 346 118.5t185 324.5l168 850h-195l17 82h477l-17 -82h-194l-172 -871q-34 -174 -137.5 -294.5t-257.5 -180.5q-13 -5 -36.5 -18.5
t-56 -38.5t-60.5 -53t-47.5 -65t-19.5 -73q0 -40 30 -64.5t60 -29.5l29 -4l-37 -78q-7 1 -19 3.5t-42 14t-52.5 27.5t-41.5 47t-19 70q0 124 148 233q-74 -6 -145 3t-139 37.5t-119.5 74.5t-83 121t-31.5 170z" />
    <glyph glyph-name="uogonek" unicode="&#x173;" horiz-adv-x="1300" 
d="M797 -256q0 136 188 262q-69 22 -88.5 93t8.5 149h-4q-18 -32 -44 -65t-69.5 -71.5t-93 -68t-117 -49t-139.5 -19.5q-57 0 -105 14t-86.5 43.5t-60.5 80.5t-22 120q0 60 16 142l109 569h-193l15 80h280l-119 -614q-20 -98 -20 -164q0 -90 45 -138.5t156 -48.5
q121 0 232 73t182 184t94 233l75 395h-192l14 80h281l-154 -788q-6 -38 -6 -60q0 -33 8.5 -55t25.5 -31t31.5 -11.5t36.5 -2.5l56 4l-17 -80q-10 0 -18 -2q-50 -17 -131.5 -95.5t-81.5 -144.5q0 -25 12.5 -44.5t29.5 -29t34.5 -15.5t30.5 -7l12 -2l-37 -78q-7 1 -19 3.5
t-42 14t-52.5 27.5t-41.5 47t-19 70z" />
    <glyph glyph-name="Wcircumflex" unicode="&#x174;" horiz-adv-x="2023" 
d="M414 0l-82 1352h-152l17 82h413l-16 -82h-172l63 -1162l-2 -77h6q17 40 35 77l598 1244h97l114 -1244l2 -77h6q15 40 31 77l514 1162h-172l17 82h421l-16 -82h-151l-611 -1352h-110l-113 1227q-2 16 -2 35.5t1 31.5l1 11h-6q-13 -41 -29 -78l-592 -1227h-110zM965 1536
l209 227h122l119 -227h-102l-82 164h-4l-148 -164h-114z" />
    <glyph glyph-name="wcircumflex" unicode="&#x175;" horiz-adv-x="1732" 
d="M354 0l-131 944h-135l14 80h390l-15 -80h-166l99 -772l2 -66h4q12 35 28 66l453 848h94l121 -848l4 -66h4q11 35 27 66l401 772h-166l15 80h397l-14 -80h-135l-500 -944h-86l-125 842l-6 67h-4q-15 -36 -31 -67l-453 -842h-86zM750 1206l208 228h123l119 -228h-102
l-82 164h-4l-148 -164h-114z" />
    <glyph glyph-name="Ycircumflex" unicode="&#x176;" horiz-adv-x="1302" 
d="M295 0l16 82h195l106 541l-299 729h-145l16 82h414l-16 -82h-170l237 -588l17 -51h4q21 28 39 51l469 588h-170l16 82h420l-17 -82h-145l-582 -729l-106 -541h194l-16 -82h-477zM598 1536l209 227h123l119 -227h-103l-82 164h-4l-147 -164h-115z" />
    <glyph glyph-name="ycircumflex" unicode="&#x177;" horiz-adv-x="1150" 
d="M-45 -305q6 -5 16 -12t41 -19t62 -12q126 0 239 184l103 168l-191 940h-139l16 80h392l-17 -80h-162l154 -780q3 -14 4 -28.5t1 -21.5l-1 -8h4q13 27 31 58l457 780h-162l16 80h400l-17 -80h-141l-688 -1159q-128 -215 -303 -215q-48 0 -89 14t-58 28l-17 13zM473 1206
l209 228h123l119 -228h-103l-82 164h-4l-147 -164h-115z" />
    <glyph glyph-name="Ydieresis" unicode="&#x178;" horiz-adv-x="1302" 
d="M295 0l16 82h195l106 541l-299 729h-145l16 82h414l-16 -82h-170l237 -588l17 -51h4q21 28 39 51l469 588h-170l16 82h420l-17 -82h-145l-582 -729l-106 -541h194l-16 -82h-477zM963 1614l30 149h111l-31 -149h-110zM618 1614l31 149h111l-31 -149h-111z" />
    <glyph glyph-name="Zacute" unicode="&#x179;" horiz-adv-x="1259" 
d="M8 0l15 70l1056 1214q16 18 33.5 35t27.5 25l9 8v4q-37 -4 -78 -4h-704l-48 -242h-86l64 324h983l-14 -70l-1059 -1214q-16 -18 -33.5 -35t-27.5 -25l-9 -8v-4q37 4 78 4h733l49 246h86l-65 -328h-1010zM717 1536l237 227h140l-258 -227h-119z" />
    <glyph glyph-name="zacute" unicode="&#x17a;" horiz-adv-x="1038" 
d="M-20 0l12 70l766 780q90 94 96 94v4q-34 -4 -102 -4h-467l-37 -194h-84l53 274h776l-14 -70l-768 -780q-23 -23 -46 -45.5t-37.5 -36t-14.5 -12.5v-4q36 4 104 4h524l39 194h84l-53 -274h-831zM545 1206l237 228h140l-258 -228h-119z" />
    <glyph glyph-name="Zdotaccent" unicode="&#x17b;" horiz-adv-x="1259" 
d="M8 0l15 70l1056 1214q16 18 33.5 35t27.5 25l9 8v4q-37 -4 -78 -4h-704l-48 -242h-86l64 324h983l-14 -70l-1059 -1214q-16 -18 -33.5 -35t-27.5 -25l-9 -8v-4q37 4 78 4h733l49 246h86l-65 -328h-1010zM760 1614l28 149h111l-29 -149h-110z" />
    <glyph glyph-name="zdotaccent" unicode="&#x17c;" horiz-adv-x="1038" 
d="M-20 0l12 70l766 780q90 94 96 94v4q-34 -4 -102 -4h-467l-37 -194h-84l53 274h776l-14 -70l-768 -780q-23 -23 -46 -45.5t-37.5 -36t-14.5 -12.5v-4q36 4 104 4h524l39 194h84l-53 -274h-831zM588 1284l28 150h111l-29 -150h-110z" />
    <glyph glyph-name="Zcaron" unicode="&#x17d;" horiz-adv-x="1259" 
d="M8 0l15 70l1056 1214q16 18 33.5 35t27.5 25l9 8v4q-37 -4 -78 -4h-704l-48 -242h-86l64 324h983l-14 -70l-1059 -1214q-16 -18 -33.5 -35t-27.5 -25l-9 -8v-4q37 4 78 4h733l49 246h86l-65 -328h-1010zM743 1536l-118 227h102l82 -164h4l148 164h114l-209 -227h-123z
" />
    <glyph glyph-name="zcaron" unicode="&#x17e;" horiz-adv-x="1038" 
d="M-20 0l12 70l766 780q90 94 96 94v4q-34 -4 -102 -4h-467l-37 -194h-84l53 274h776l-14 -70l-768 -780q-23 -23 -46 -45.5t-37.5 -36t-14.5 -12.5v-4q36 4 104 4h524l39 194h84l-53 -274h-831zM571 1206l-118 228h102l82 -164h4l147 164h115l-209 -228h-123z" />
    <glyph glyph-name="longs" unicode="&#x17f;" horiz-adv-x="520" 
d="M123 0l182 946h-194l14 78h194l11 45q19 95 58 167t80.5 109.5t92.5 60t86 28.5t70 6l63 -4l-18 -80q-16 4 -45 4q-30 0 -58 -4.5t-68 -22t-71 -46.5t-60 -85t-44 -131l-207 -1071h-86z" />
    <glyph glyph-name="florin" unicode="&#x192;" horiz-adv-x="909" 
d="M-262 -117q53 -10 123 -10q29 0 58 5t69.5 23.5t74.5 49.5t67.5 87.5t55.5 131.5l172 604h-196l14 78h203l70 242q26 93 68.5 163t85 107t94 59.5t87 28.5t72.5 6q44 0 89.5 -4t68.5 -8l24 -4l-14 -78q-84 14 -166 14q-31 0 -60 -5t-69 -23.5t-73.5 -49.5t-67.5 -87.5
t-56 -131.5l-67 -229h272l-14 -78h-279l-178 -622q-27 -92 -69 -161t-84.5 -105.5t-93 -59t-85.5 -28t-71 -5.5q-38 0 -73.5 3t-51.5 6l-17 3z" />
    <glyph glyph-name="Scommaaccent" unicode="&#x218;" horiz-adv-x="1148" 
d="M78 254l24 129h91l-25 -123q-10 -52 14 -92t71.5 -63t105 -34.5t122.5 -11.5q167 0 286.5 94.5t119.5 249.5q0 78 -35.5 135t-92.5 90t-126 60t-137.5 55.5t-125.5 65t-92.5 99.5t-35.5 149q0 120 70.5 213t184.5 140.5t248 47.5q87 0 171.5 -24t141 -76t42.5 -119
l-27 -129h-90l21 107q8 42 -15.5 74t-68 49.5t-92.5 25.5t-97 8q-161 0 -277 -88.5t-116 -224.5q0 -70 35.5 -121.5t92.5 -82t126 -56.5t137.5 -56t125.5 -69t92.5 -105.5t35.5 -156.5q0 -127 -70.5 -228t-187.5 -156t-256 -55q-54 0 -109.5 8t-112.5 29t-98 51.5t-62 80
t-9 110.5zM377 -135h94q4 -20 4 -43q0 -67 -37 -134t-104 -116l-47 47q96 92 96 191q0 25 -6 55z" />
    <glyph glyph-name="scommaaccent" unicode="&#x219;" horiz-adv-x="946" 
d="M27 207l18 98h86l-16 -88q-8 -39 9 -69t46.5 -46t71 -26.5t75 -13.5t66.5 -3q76 0 144 23.5t114.5 73t46.5 114.5q0 44 -22 79t-58 57.5t-82 45t-94 40t-94 42.5t-82 52.5t-58 71t-22 96.5q0 132 117 213.5t274 81.5q131 0 217.5 -54t67.5 -145l-23 -109h-86l21 99
q7 35 -11.5 61t-54.5 39t-73.5 19t-77.5 6q-107 0 -194 -54t-87 -147q0 -42 22 -76.5t58 -56.5t82 -44t94 -39t94 -41.5t82 -52t58 -70t22 -95.5q0 -134 -112 -224t-299 -90q-93 0 -173.5 23.5t-131 78t-35.5 130.5zM274 -135h95q4 -20 4 -43q0 -67 -37.5 -134t-104.5 -116
l-47 47q97 93 97 191q0 20 -7 55z" />
    <glyph glyph-name="uni021A" unicode="&#x21a;" horiz-adv-x="1316" 
d="M297 0l16 82h195l248 1270h-459l-47 -242h-86l63 324h1178l-64 -324h-86l48 242h-459l-248 -1270h195l-17 -82h-477zM459 -135h94q4 -20 4 -43q0 -67 -37 -134t-104 -116l-47 47q96 92 96 191q0 25 -6 55z" />
    <glyph glyph-name="uni021B" unicode="&#x21b;" horiz-adv-x="636" 
d="M170 272q0 52 12 119l107 553h-195l17 80h194l55 285h86l-55 -285h268l-16 -80h-268l-109 -567q-10 -49 -10 -101q0 -204 182 -204l60 4l-17 -80q-16 -4 -43 -4q-268 0 -268 280zM221 -135h94q4 -20 4 -43q0 -67 -37 -134t-104 -116l-47 47q96 92 96 191q0 25 -6 55z" />
    <glyph glyph-name="circumflex" unicode="&#x2c6;" horiz-adv-x="1040" 
d="M154 1536l208 227h123l119 -227h-102l-82 164h-4l-148 -164h-114z" />
    <glyph glyph-name="caron" unicode="&#x2c7;" horiz-adv-x="1040" 
d="M330 1536l-119 227h102l82 -164h4l148 164h115l-209 -227h-123z" />
    <glyph glyph-name="breve" unicode="&#x2d8;" horiz-adv-x="1044" 
d="M387 1530q-85 0 -140 56t-36 145l6 32h86l-6 -28q-11 -64 17 -95.5t83 -31.5q54 0 96.5 32t53.5 97l6 26h86l-6 -32q-18 -102 -86.5 -151.5t-159.5 -49.5z" />
    <glyph glyph-name="dotaccent" unicode="&#x2d9;" horiz-adv-x="1044" 
d="M348 1614l29 149h110l-28 -149h-111z" />
    <glyph glyph-name="ring" unicode="&#x2da;" horiz-adv-x="1044" 
d="M389 1501q-60 0 -98.5 37t-38.5 94q0 69 55 120.5t121 51.5q62 0 100.5 -36.5t38.5 -94.5q0 -69 -53.5 -120.5t-124.5 -51.5zM393 1577q41 0 66.5 27t25.5 69q0 27 -16 42.5t-45 15.5q-35 0 -62.5 -28t-27.5 -69q0 -26 15.5 -41.5t43.5 -15.5z" />
    <glyph glyph-name="ogonek" unicode="&#x2db;" horiz-adv-x="1042" 
d="M254 -256q0 47 20 91t57.5 81t73.5 63.5t84 55.5h84l-6 -35q-16 0 -68 -36.5t-102.5 -96.5t-50.5 -109q0 -40 30 -64.5t60 -29.5l29 -4l-37 -78q-7 1 -19 3.5t-42 14t-52.5 27.5t-41.5 47t-19 70z" />
    <glyph glyph-name="tilde" unicode="&#x2dc;" horiz-adv-x="1042" 
d="M98 1542q20 108 71.5 164.5t127.5 56.5q38 0 67 -15t46.5 -36.5t32.5 -43.5t34.5 -37t42.5 -15q73 0 107 141h90q-20 -107 -72 -164t-127 -57q-38 0 -67 15t-46.5 37t-32.5 43.5t-34.5 36.5t-42.5 15q-77 0 -107 -141h-90z" />
    <glyph glyph-name="hungarumlaut" unicode="&#x2dd;" horiz-adv-x="1042" 
d="M375 1536l182 227h131l-207 -227h-106zM131 1536l172 227h119l-178 -227h-113z" />
    <glyph glyph-name="uni1E9E" unicode="&#x1e9e;" horiz-adv-x="1417" 
d="M-29 0l17 82h192l193 993q30 156 148.5 257.5t279.5 101.5h553l-13 -62l-407 -485l-33 -37v-4q68 -9 129 -32t117 -62t89.5 -103t33.5 -145q0 -112 -47.5 -208.5t-130 -163.5t-198 -105.5t-247.5 -38.5q-52 0 -100 5t-70 10l-22 5l16 86q71 -20 180 -20q148 0 266.5 50.5
t188.5 148t70 227.5q0 244 -400 280l10 54l400 477l39 41l2 4q-26 -4 -49 -4h-377q-123 0 -220.5 -80t-119.5 -197l-209 -1075h-281z" />
    <glyph glyph-name="thinspace" unicode="&#x2009;" horiz-adv-x="587" 
 />
    <glyph glyph-name="endash" unicode="&#x2013;" horiz-adv-x="1488" 
d="M244 539l14 82h975l-14 -82h-975z" />
    <glyph glyph-name="emdash" unicode="&#x2014;" horiz-adv-x="1898" 
d="M244 539l14 82h1384l-14 -82h-1384z" />
    <glyph glyph-name="quoteleft" unicode="&#x2018;" horiz-adv-x="430" 
d="M209 1059l192 391h84l-161 -391h-115z" />
    <glyph glyph-name="quoteright" unicode="&#x2019;" horiz-adv-x="421" 
d="M213 1059l162 391h114l-192 -391h-84z" />
    <glyph glyph-name="quotesinglbase" unicode="&#x201a;" horiz-adv-x="491" 
d="M-51 -266l162 391h114l-192 -391h-84z" />
    <glyph glyph-name="quotedblleft" unicode="&#x201c;" horiz-adv-x="655" 
d="M434 1059l193 391h84l-162 -391h-115zM209 1059l192 391h84l-161 -391h-115z" />
    <glyph glyph-name="quotedblright" unicode="&#x201d;" horiz-adv-x="647" 
d="M438 1059l162 391h115l-193 -391h-84zM213 1059l162 391h114l-192 -391h-84z" />
    <glyph glyph-name="quotedblbase" unicode="&#x201e;" horiz-adv-x="716" 
d="M336 125h115l-193 -391h-84zM111 125h114l-192 -391h-84z" />
    <glyph glyph-name="dagger" unicode="&#x2020;" horiz-adv-x="770" 
d="M201 -102l202 1044h-233l16 82h234l78 410h86l-78 -410h244l-17 -82h-244l-202 -1044h-86z" />
    <glyph glyph-name="daggerdbl" unicode="&#x2021;" horiz-adv-x="790" 
d="M211 -102l92 483h-233l16 82h233l95 479h-234l17 82h233l78 410h86l-78 -410h244l-17 -82h-243l-94 -479h243l-16 -82h-244l-92 -483h-86z" />
    <glyph glyph-name="bullet" unicode="&#x2022;" horiz-adv-x="808" 
d="M401 326q-113 0 -191.5 79t-78.5 191t78.5 191t191.5 79t192 -79t79 -191t-79 -191t-192 -79z" />
    <glyph glyph-name="ellipsis" unicode="&#x2026;" horiz-adv-x="1357" 
d="M942 0l27 129h125l-27 -129h-125zM506 0l26 129h125l-26 -129h-125zM70 0l26 129h125l-26 -129h-125z" />
    <glyph glyph-name="perthousand" unicode="&#x2030;" horiz-adv-x="2058" 
d="M475 924q-107 0 -168 63.5t-61 171.5q0 113 98 206t219 93q105 0 166.5 -63.5t61.5 -167.5q0 -118 -97.5 -210.5t-218.5 -92.5zM18 0l1356 1434h117l-1358 -1434h-115zM483 1006q87 0 153 66.5t66 156.5q0 64 -41 105.5t-106 41.5q-86 0 -153.5 -67.5t-67.5 -155.5
q0 -64 41 -105.5t108 -41.5zM1366 211q0 113 98 206t219 93q105 0 166.5 -63.5t61.5 -167.5q0 -118 -97.5 -211t-218.5 -93q-106 0 -167.5 64t-61.5 172zM709 211q0 113 98 206t219 93q105 0 166 -63.5t61 -167.5q0 -118 -97 -211t-218 -93q-106 0 -167.5 64t-61.5 172z
M1454 205q0 -64 41.5 -106t108.5 -42q87 0 153 67t66 157q0 64 -41.5 105.5t-106.5 41.5q-86 0 -153.5 -67.5t-67.5 -155.5zM797 205q0 -64 41 -106t108 -42q87 0 153 67t66 157q0 64 -41 105.5t-106 41.5q-86 0 -153.5 -67.5t-67.5 -155.5z" />
    <glyph glyph-name="guilsinglleft" unicode="&#x2039;" horiz-adv-x="673" 
d="M367 158l-263 426l394 415h116l-407 -426l258 -415h-98z" />
    <glyph glyph-name="guilsinglright" unicode="&#x203a;" horiz-adv-x="677" 
d="M55 158l408 426l-258 415h98l262 -426l-393 -415h-117z" />
    <glyph glyph-name="fraction" unicode="&#x2044;" horiz-adv-x="305" 
d="M-258 0h-96l966 1434h95z" />
    <glyph glyph-name="zerosuperior" unicode="&#x2070;" horiz-adv-x="815" 
d="M465 846q-130 0 -187 73t-57 209q0 58 9 124t27 141t50.5 141.5t75.5 121.5t106 87.5t138 32.5q130 0 186.5 -75.5t56.5 -213.5q0 -71 -12 -150.5t-42 -168.5t-74.5 -159.5t-116.5 -116.5t-160 -46zM469 920q70 0 127 40t92 101.5t59.5 139.5t34 149t9.5 135
q0 217 -168 217q-70 0 -127.5 -40.5t-92.5 -103t-59 -141.5t-33.5 -150.5t-9.5 -136.5q0 -210 168 -210z" />
    <glyph glyph-name="foursuperior" unicode="&#x2074;" horiz-adv-x="765" 
d="M541 866l49 248h-440l10 53l569 588h64l-111 -567h139l-14 -74h-139l-50 -248h-77zM272 1188h332l70 358q3 16 8.5 37t9.5 34l4 13h-4q-26 -36 -59 -69l-361 -369v-4z" />
    <glyph glyph-name="fivesuperior" unicode="&#x2075;" horiz-adv-x="739" 
d="M420 846q-49 0 -95.5 13.5t-77 32t-54.5 37.5t-35 33l-11 13l60 49q3 -4 9.5 -11t28 -25t44.5 -32t59.5 -25t73.5 -11q105 0 181.5 74.5t76.5 176.5q0 85 -54 138t-139 53q-43 0 -87 -14t-66 -28l-23 -13l-49 20l137 428h428l-36 -190h-78l22 116h-284l-70 -229l-19 -45
h5q49 27 129 27q117 0 190.5 -72.5t73.5 -185.5q0 -134 -100.5 -232t-239.5 -98z" />
    <glyph glyph-name="sixsuperior" unicode="&#x2076;" horiz-adv-x="778" 
d="M471 846q-126 0 -192 85t-66 226q0 65 19.5 144.5t61 163.5t97 153t135.5 113.5t170 44.5q47 0 89.5 -11t61.5 -21l19 -11l-43 -62q-53 31 -131 31q-83 0 -159 -53.5t-127 -134t-82 -177.5h4q44 44 110.5 71.5t132.5 27.5q105 0 169.5 -63t64.5 -171q0 -85 -30.5 -154.5
t-79 -112.5t-107 -66t-117.5 -23zM471 920q111 0 182.5 83t71.5 197q0 74 -46.5 118t-123.5 44q-91 0 -176.5 -65t-85.5 -148q0 -57 18.5 -108t60.5 -86t99 -35z" />
    <glyph glyph-name="sevensuperior" unicode="&#x2077;" horiz-adv-x="694" 
d="M193 866l536 774q7 10 16.5 20.5t14.5 15.5l6 5v5q-22 -5 -47 -5h-359l-22 -116h-78l37 190h577l-10 -53l-581 -836h-90z" />
    <glyph glyph-name="eightsuperior" unicode="&#x2078;" horiz-adv-x="788" 
d="M459 846q-114 0 -191.5 60.5t-77.5 170.5q0 55 23.5 106.5t62 90t65 59.5t54.5 39q-80 63 -80 150q0 80 47.5 139.5t114.5 87t139 27.5q103 0 172.5 -51.5t69.5 -143.5q0 -39 -15 -80.5t-35 -72.5t-46.5 -61.5t-42.5 -45.5t-31 -27q103 -70 103 -168q0 -110 -99 -195
t-233 -85zM625 1331q19 14 40.5 34t49 52.5t45.5 75t18 84.5q0 60 -48 92.5t-116 32.5q-51 0 -99.5 -18.5t-84 -60t-35.5 -97.5q0 -24 10.5 -46t23.5 -36.5t41 -32.5t45.5 -27t55.5 -27t54 -26zM459 920q93 0 172.5 59t79.5 143q0 31 -14 56.5t-43.5 47t-55.5 36t-71 36
t-68 33.5q-28 -15 -53.5 -33.5t-59.5 -50t-55 -75.5t-21 -93q0 -72 56 -115.5t133 -43.5z" />
    <glyph glyph-name="ninesuperior" unicode="&#x2079;" horiz-adv-x="776" 
d="M360 846q-47 0 -91 11t-65 21l-20 11l47 61q51 -30 129 -30q83 0 159 53t127.5 133.5t82.5 177.5h-4q-43 -43 -110 -70.5t-134 -27.5q-105 0 -169 62.5t-64 170.5q0 85 30.5 155t79 113t107 66t117.5 23q126 0 192 -85.5t66 -226.5q0 -53 -14.5 -118.5t-41 -134.5
t-69 -134.5t-93.5 -117t-119.5 -82.5t-142.5 -31zM498 1260q91 0 176.5 65t85.5 148q0 57 -18.5 108t-60.5 86t-99 35q-111 0 -182.5 -83.5t-71.5 -197.5q0 -74 46.5 -117.5t123.5 -43.5z" />
    <glyph glyph-name="zeroinferior" unicode="&#x2080;" horiz-adv-x="819" 
d="M236 -342q-130 0 -187 73.5t-57 209.5q0 71 12 151.5t41.5 170.5t74 161t116.5 117.5t161 46.5q244 0 244 -289q0 -71 -12 -150.5t-42 -168.5t-74.5 -159.5t-116.5 -116.5t-160 -46zM240 -268q70 0 127 40t92 101.5t59 139.5t33.5 149t9.5 135q0 217 -168 217
q-59 0 -109 -28t-84 -76t-59.5 -106.5t-40 -124.5t-21.5 -124.5t-7 -111.5q0 -211 168 -211z" />
    <glyph glyph-name="oneinferior" unicode="&#x2081;" horiz-adv-x="622" 
d="M-100 -322l14 74h217l121 629l18 76h-4q-20 -27 -55 -56l-125 -104l-45 59l250 211h78l-160 -815h211l-14 -74h-506z" />
    <glyph glyph-name="twoinferior" unicode="&#x2082;" horiz-adv-x="729" 
d="M-94 -322q2 79 35.5 145t85 112t113 86.5t122.5 77.5t111.5 75t82 88t31.5 109q0 62 -41.5 102.5t-113.5 40.5q-52 0 -105 -25.5t-81 -50.5l-27 -26l-43 57l13 13t35 28.5t55.5 36t71 28.5t83.5 13q115 0 174 -59.5t59 -153.5q0 -60 -21.5 -111t-56.5 -87.5t-81.5 -71.5
t-95.5 -62.5t-99 -60t-92 -63.5t-75 -74.5t-46 -92.5h393l23 117h78l-37 -191h-551z" />
    <glyph glyph-name="threeinferior" unicode="&#x2083;" horiz-adv-x="743" 
d="M197 -344q-52 0 -100.5 13.5t-80.5 33t-57.5 39.5t-36.5 34l-12 13l61 49q3 -4 9.5 -11.5t28.5 -26t46.5 -33t63.5 -26t80 -11.5q93 0 167 71t74 172q0 73 -55.5 116.5t-130.5 43.5h-66l-14 49l285 273q12 11 24.5 21t18.5 14l6 4v4q-22 -6 -55 -6h-279l-22 -117h-78
l37 190h520l-10 -53l-322 -309q25 -2 52 -9.5t58 -25t55 -42t40 -64.5t16 -89q0 -125 -96.5 -221t-226.5 -96z" />
    <glyph glyph-name="fourinferior" unicode="&#x2084;" horiz-adv-x="768" 
d="M311 -322l49 248h-440l10 54l570 587h63l-110 -567h139l-14 -74h-140l-49 -248h-78zM43 0h332l69 358q3 16 8.5 37t9.5 34l5 13h-4q-27 -36 -60 -69l-360 -369v-4z" />
    <glyph glyph-name="fiveinferior" unicode="&#x2085;" horiz-adv-x="737" 
d="M186 -342q-49 0 -95.5 13.5t-77 32t-54 37.5t-34.5 33l-11 13l59 49q3 -4 9.5 -11t28 -25t44.5 -32t59.5 -25t73.5 -11q105 0 181.5 75t76.5 177q0 85 -53.5 137.5t-138.5 52.5q-43 0 -87 -14t-67 -28l-22 -13l-49 20l137 428h428l-37 -190h-78l23 117h-285l-70 -230
l-18 -45h4q49 27 129 27q117 0 190.5 -72.5t73.5 -185.5q0 -134 -100.5 -232t-239.5 -98z" />
    <glyph glyph-name="sixinferior" unicode="&#x2086;" horiz-adv-x="776" 
d="M240 -342q-126 0 -192 85t-66 226q0 65 19.5 144.5t61 163.5t97 153t135.5 113.5t170 44.5q47 0 89.5 -11t61.5 -21l19 -11l-43 -62q-53 31 -131 31q-83 0 -159 -53t-127.5 -133.5t-82.5 -177.5h4q43 43 110 70.5t134 27.5q105 0 169 -63t64 -171q0 -85 -30 -154.5
t-79 -112.5t-107 -66t-117 -23zM240 -268q111 0 182.5 83t71.5 197q0 74 -46.5 118t-123.5 44q-91 0 -177 -65t-86 -148q0 -90 47 -159.5t132 -69.5z" />
    <glyph glyph-name="seveninferior" unicode="&#x2087;" horiz-adv-x="694" 
d="M-41 -324l537 775q7 10 16 20.5t14 15.5l6 5v4q-22 -4 -47 -4h-358l-23 -117h-77l36 190h578l-10 -53l-582 -836h-90z" />
    <glyph glyph-name="eightinferior" unicode="&#x2088;" horiz-adv-x="788" 
d="M227 -340q-114 0 -191 60.5t-77 170.5q0 55 23.5 106.5t62 90t65 59.5t54.5 39q-80 63 -80 150q0 80 47.5 139.5t114.5 87t139 27.5q103 0 172.5 -51.5t69.5 -143.5q0 -48 -20.5 -97.5t-53.5 -89t-54.5 -61.5t-41.5 -38q102 -70 102 -168q0 -110 -99 -195.5t-233 -85.5z
M393 145q19 14 40.5 34t49.5 52.5t46 75t18 84.5q0 60 -48 92.5t-116 32.5q-51 0 -99.5 -18.5t-84 -60t-35.5 -97.5q0 -24 10.5 -46t23.5 -36.5t41 -32.5t45 -27t55.5 -27t53.5 -26zM227 -266q93 0 172.5 59.5t79.5 143.5q0 31 -14 56.5t-43.5 47t-55.5 35.5t-71 35.5
t-68 33.5q-188 -103 -188 -251q0 -72 55.5 -116t132.5 -44z" />
    <glyph glyph-name="nineinferior" unicode="&#x2089;" horiz-adv-x="776" 
d="M131 -342q-47 0 -91 11t-64 21l-21 11l47 61q51 -30 129 -30q83 0 159 53t127.5 133.5t82.5 177.5h-4q-43 -43 -110 -70.5t-134 -27.5q-105 0 -169.5 62.5t-64.5 170.5q0 85 30.5 155t79 113t107 66t117.5 23q126 0 192 -85.5t66 -226.5q0 -65 -19.5 -144.5t-60.5 -163
t-96.5 -153t-135 -113.5t-167.5 -44zM268 72q91 0 176.5 65t85.5 148q0 57 -18.5 108t-60.5 86t-99 35q-111 0 -182.5 -83.5t-71.5 -197.5q0 -74 46.5 -117.5t123.5 -43.5z" />
    <glyph glyph-name="Euro" unicode="&#x20ac;" horiz-adv-x="1222" 
d="M98 539l15 82h112q5 96 35 223h-110l14 82h125q102 236 315 384t459 148q50 0 98 -6t71 -12l23 -6l-36 -82q-70 20 -158 20q-213 0 -397 -123.5t-279 -322.5h672l-31 -82h-672q-31 -118 -39 -223h629l-29 -82h-602q2 -99 33.5 -184.5t91 -151.5t154 -104t213.5 -38
q46 0 92.5 6.5t70.5 13.5l23 7l8 -86q-85 -27 -196 -27q-261 0 -420.5 156.5t-161.5 407.5h-123z" />
    <glyph glyph-name="trademark" unicode="&#x2122;" horiz-adv-x="2082" 
d="M1040 541l72 893h72l258 -553q8 -18 15 -38.5t10 -32.5l3 -11h5q10 41 28 82l258 553h72l72 -893h-78l-58 671q-1 16 0 29t2 21l1 8h-5l-260 -561h-69l-260 561h-4l2 -58l-58 -671h-78zM547 541v815h-328v78h737v-78h-329v-815h-80z" />
    <glyph glyph-name="minus" unicode="&#x2212;" horiz-adv-x="1228" 
d="M98 539v82h1016v-82h-1016z" />
    <glyph glyph-name="infinity" unicode="&#x221e;" horiz-adv-x="954" 
d="M496 377q-140 0 -239 99.5t-99 238.5t99 237.5t239 98.5q139 0 237 -98t98 -238t-98 -239t-237 -99z" />
    <glyph glyph-name="approxequal" unicode="&#x2248;" horiz-adv-x="1228" 
d="M168 657l-51 62q53 55 130 95t159 40q65 0 124 -22.5t96.5 -49t87 -49t97.5 -22.5q63 0 126.5 33t111.5 81l51 -61q-53 -55 -130 -95t-159 -40q-65 0 -124 22.5t-96.5 49t-87 49t-97.5 22.5q-63 0 -126.5 -33.5t-111.5 -81.5zM168 330l-51 61q53 55 130 95t159 40
q65 0 124 -22.5t96.5 -49t87 -49t97.5 -22.5q63 0 126.5 33.5t111.5 81.5l51 -62q-53 -55 -130 -95t-159 -40q-65 0 -124 22.5t-96.5 49t-87 49t-97.5 22.5q-63 0 -126.5 -33t-111.5 -81z" />
    <glyph glyph-name="notequal" unicode="&#x2260;" horiz-adv-x="1228" 
d="M260 188l139 187h-258v82h320l186 245h-506v82h568l184 244l68 -51l-146 -193h260v-82h-321l-187 -245h508v-82h-569l-178 -238z" />
    <glyph glyph-name="lessequal" unicode="&#x2264;" horiz-adv-x="1228" 
d="M115 543v73l899 404v-98l-772 -340v-4l772 -340v-99zM115 -231h899v-82h-899v82z" />
    <glyph glyph-name="greaterequal" unicode="&#x2265;" horiz-adv-x="1228" 
d="M205 139v99l772 340v4l-772 340v98l899 -404v-73zM203 -231h899v-82h-899v82z" />
    <glyph glyph-name="commaaccent" horiz-adv-x="686" 
d="M139 -135h94q5 -25 5 -43q0 -67 -37.5 -134t-104.5 -116l-47 47q96 92 96 191q0 25 -6 55z" />
    <glyph glyph-name="apple" horiz-adv-x="2314" 
d="M225 -10v311l-258 148v569l258 145v310l543 290l274 -145l271 145l542 -290v-310l254 -145v-569l-254 -148v-311l-542 -289l-271 145l-274 -145zM307 61l488 -258l247 136l242 -136l488 258v285l233 131v510l-233 135v279l-488 258l-242 -131l-247 131l-488 -258v-279
l-233 -135v-510l233 -131v-285zM377 131v248l-203 123v461l203 118v252l440 234l225 -121l220 121l438 -234v-252l205 -118v-461l-205 -123v-248l-438 -233l-220 118l-225 -118zM797 186h88v467h467v82h-467v393h407q35 0 47.5 -13t12.5 -46v-86h86v111q0 61 -27 88.5
t-92 27.5h-655v-82h133v-942z" />
    <glyph glyph-name="zero.tnum" 
d="M76 428q0 82 10 173t33.5 192t58 195t87 180.5t117 150t152 101.5t187.5 38q385 0 385 -457q0 -83 -10 -173.5t-33 -191t-57 -194t-87 -179.5t-117 -149.5t-152 -101t-189 -37.5q-200 0 -292.5 120t-92.5 333zM166 424q0 -363 297 -363q87 0 162 35t130 93t100 137.5
t74 165.5t48.5 178.5t28 175.5t8.5 158q0 176 -69 272t-226 96q-95 0 -177 -43t-141 -117t-105.5 -168.5t-74 -202t-41.5 -212.5t-14 -205z" />
    <glyph glyph-name="one.tnum" 
d="M121 0l14 82h326l223 1143l21 86h-5q-30 -33 -73 -70l-219 -184l-54 65l371 312h88l-264 -1352h317l-16 -82h-729z" />
    <glyph glyph-name="two.tnum" 
d="M-2 0q3 92 37.5 174t91.5 145t130 120t153 106.5t159.5 97.5t151.5 99.5t127.5 106.5t88 125t32.5 148q0 113 -73.5 182.5t-205.5 69.5q-64 0 -128 -21t-110 -51t-82 -60.5t-54 -51.5l-19 -21l-64 52q8 10 22 26t60.5 56.5t96.5 72t125.5 57t150.5 25.5q184 0 278.5 -92
t94.5 -242q0 -84 -30 -158.5t-81 -133t-118 -112.5t-142 -101t-151.5 -93t-149 -95t-131 -100t-100.5 -115t-56 -134h744l41 207h86l-58 -289h-917z" />
    <glyph glyph-name="three.tnum" 
d="M16 174l70 59q5 -7 15 -19t43.5 -42t70.5 -52.5t96 -41.5t121 -19q113 0 216 54t168 151t65 211q0 139 -92.5 210t-235.5 71l-102 -6l-17 65l516 496q9 9 22.5 19t22.5 16l9 6v4q-39 -4 -62 -4h-543l-41 -207h-86l58 289h821l-12 -62l-564 -536q47 1 97 -7.5t105 -33
t97.5 -63t70.5 -102.5t28 -145q0 -137 -73 -254.5t-197.5 -186.5t-268.5 -69q-76 0 -147 20.5t-118 49.5t-83.5 58.5t-53.5 50.5z" />
    <glyph glyph-name="four.tnum" 
d="M6 410l12 61l924 963h88l-184 -942h213l-17 -82h-213l-79 -410h-88l79 410h-735zM154 492h604l141 722q3 17 8 37t9 31l4 12h-5q-26 -34 -57 -65l-704 -733v-4z" />
    <glyph glyph-name="five.tnum" 
d="M35 162l65 55q4 -6 12.5 -17t38 -38t63.5 -48t89.5 -38t116.5 -17q90 0 177 35.5t152.5 95t105.5 143t40 173.5q0 141 -92 226t-242 85q-75 0 -148.5 -22t-110.5 -44l-36 -22l-63 23l215 682h665l-57 -289h-86l41 207h-500l-133 -424l-31 -88h5q11 7 31.5 17t86 27
t133.5 17q184 0 299 -109.5t115 -283.5q0 -143 -79.5 -266.5t-211 -195t-280.5 -71.5q-76 0 -143.5 19.5t-109 46.5t-72 54.5t-43.5 46.5z" />
    <glyph glyph-name="six.tnum" 
d="M98 483q0 72 15.5 157.5t48 179.5t78.5 184.5t111 173t141.5 144.5t174.5 99t205 37q71 0 135.5 -14t93.5 -28l29 -15l-53 -76q-9 5 -26 13.5t-70.5 22t-108.5 13.5q-97 0 -187.5 -38.5t-162 -103t-131.5 -150.5t-101.5 -179t-66.5 -190h4q75 91 188.5 143.5t233.5 52.5
q174 0 278.5 -97.5t104.5 -266.5q0 -103 -37.5 -204.5t-103 -183t-166 -132t-215.5 -50.5q-133 0 -227 66.5t-139.5 179.5t-45.5 262zM190 453q0 -71 20.5 -139.5t59 -126t100.5 -93t138 -35.5q181 0 306.5 141t125.5 345q0 130 -79 205t-216 75q-53 0 -114.5 -17
t-121.5 -50t-109 -77t-79.5 -104t-30.5 -124z" />
    <glyph glyph-name="seven.tnum" 
d="M158 0l886 1294q12 16 24 30.5t18 21.5l6 6v4q-31 -4 -68 -4h-674l-41 -207h-86l58 289h940l-13 -62l-948 -1372h-102z" />
    <glyph glyph-name="eight.tnum" 
d="M51 344q0 81 34 158.5t77 128t99 96.5t83.5 63t46.5 27q-143 97 -143 244q0 74 34 145t95 127t152.5 90.5t197.5 34.5q184 0 281.5 -81.5t97.5 -223.5q0 -67 -27 -138t-62.5 -123.5t-79 -101t-69 -71t-39.5 -33.5q168 -107 168 -260q0 -127 -75.5 -232t-196.5 -162
t-258 -57q-178 0 -297 97t-119 272zM750 729q21 16 44 35.5t65 64t73.5 90t55.5 109t24 125.5q0 101 -78 161t-207 60q-165 0 -275 -92t-110 -219q0 -42 18.5 -79.5t45 -64t73 -55t83 -46t96 -45t92.5 -44.5zM145 344q0 -130 93.5 -207.5t228.5 -77.5q107 0 206 44
t164.5 129.5t65.5 191.5q0 43 -20 81.5t-49.5 65.5t-77 55.5t-89 48t-100.5 47.5t-96 48q-18 -10 -37 -20.5t-53 -34t-63.5 -48.5t-62.5 -61.5t-56 -74.5t-38.5 -87.5t-15.5 -99.5z" />
    <glyph glyph-name="nine.tnum" 
d="M57 33l47 76q9 -6 26 -14t70.5 -22t108.5 -14q120 0 229.5 58.5t190.5 155t139 211t90 237.5h-4q-75 -91 -189.5 -144t-234.5 -53q-173 0 -276.5 98t-103.5 267q0 103 37.5 204.5t103.5 182.5t166 131.5t215 50.5q132 0 226.5 -66.5t139.5 -179.5t45 -262
q0 -72 -15.5 -157.5t-48 -179.5t-78.5 -184.5t-111 -173t-141.5 -144.5t-174.5 -99t-205 -37q-71 0 -134 14.5t-91 28.5zM530 608q53 0 115.5 17t123 50.5t110.5 77.5t81 104t31 124q0 56 -12 111.5t-37.5 106.5t-62 90t-88.5 62t-113 23q-119 0 -219.5 -64t-158.5 -175.5
t-58 -245.5q0 -130 78 -205.5t210 -75.5z" />
    <glyph glyph-name="hyphen.case" horiz-adv-x="1056" 
d="M252 674l14 82h565l-14 -82h-565z" />
    <glyph glyph-name="parenleft.case" horiz-adv-x="593" 
d="M256 -133q-94 257 -94 539q0 626 411 1140h95q-422 -538 -422 -1143q0 -277 96 -536h-86z" />
    <glyph glyph-name="parenright.case" horiz-adv-x="595" 
d="M-31 -133q422 538 422 1143q0 277 -96 536h86q94 -257 94 -538q0 -626 -412 -1141h-94z" />
    <glyph glyph-name="bracketleft.case" horiz-adv-x="577" 
d="M80 -133l326 1679h221l-17 -82h-133l-293 -1515h133l-16 -82h-221z" />
    <glyph glyph-name="bracketright.case" horiz-adv-x="573" 
d="M8 -51h131l293 1515h-133l16 82h222l-326 -1679h-219z" />
    <glyph glyph-name="braceleft.case" horiz-adv-x="624" 
d="M172 121q0 44 14 123l37 192q6 37 6 66q0 44 -13.5 78.5t-33 52.5t-39.5 29.5t-33 14.5l-14 3l17 82q7 1 19.5 4t45.5 19t60.5 40t55.5 72t40 109l33 165q20 102 58 176.5t76 111.5t87.5 58t79.5 25t67 4l-14 -80q-22 0 -42 -3t-56.5 -19.5t-65.5 -45t-58 -86.5t-44 -138
l-37 -191q-12 -61 -38.5 -110.5t-55.5 -76t-56 -44.5t-45 -24l-18 -5v-4q5 -2 13 -7t28 -23t35.5 -39.5t28 -57.5t12.5 -76q0 -22 -7 -57l-43 -217q-12 -62 -12 -107q0 -186 166 -186l-16 -80q-7 -2 -19 -2q-19 0 -42 4t-56 20t-58.5 41.5t-44 74.5t-18.5 114z" />
    <glyph glyph-name="braceright.case" horiz-adv-x="626" 
d="M-51 -53q22 -1 43.5 2t57 19.5t64.5 45.5t57.5 87.5t43.5 138.5l41 215q12 64 38.5 115t55.5 78t56 45t45 23l18 5v4q-5 2 -12.5 7t-27.5 22.5t-35 38t-27.5 55.5t-12.5 74q0 27 6 57l37 192q13 67 13 107q0 50 -13.5 86.5t-31 55t-43 29.5t-42.5 13t-36 2l16 80
q22 2 48 -0.5t61 -17t62.5 -40t47 -76t19.5 -118.5q0 -39 -15 -123l-32 -168q-7 -44 -7 -65q0 -44 14 -78.5t33.5 -52.5t39 -29.5t33.5 -14.5l14 -3l-17 -82q-7 -1 -19.5 -4t-45.5 -19t-60.5 -40t-55.5 -72t-40 -109l-37 -190q-15 -74 -38.5 -134t-49.5 -98.5t-58 -67
t-59 -43t-58 -22.5t-49.5 -10t-39.5 -2l-17 2z" />
    <glyph glyph-name="at.case" horiz-adv-x="1511" 
d="M117 584q0 173 74 335.5t195.5 281.5t284.5 191t333 72q194 0 292.5 -86t98.5 -219q0 -37 -6 -67l-136 -695h144l-17 -82h-526q-152 0 -247 94.5t-95 237.5q0 121 67 229t180.5 173t241.5 65h299q5 28 5 51q0 91 -77.5 154t-234.5 63q-153 0 -298 -66t-251 -174.5
t-170.5 -255.5t-64.5 -302q0 -236 142 -383.5t374 -147.5l-16 -84q-126 0 -235.5 46t-188 126.5t-123.5 195t-45 247.5zM604 653q0 -113 72 -184.5t188 -71.5h297l123 635h-293q-98 0 -187.5 -53t-144.5 -141.5t-55 -184.5z" />
    <glyph glyph-name="guillemotleft.case" horiz-adv-x="1009" 
d="M709 281l-263 426l418 415h117l-432 -426l258 -415h-98zM391 281l-262 426l393 415h117l-408 -426l258 -415h-98z" />
    <glyph glyph-name="guillemotright.case" horiz-adv-x="1011" 
d="M412 281l407 426l-258 415h98l263 -426l-394 -415h-116zM70 281l432 426l-258 415h98l262 -426l-418 -415h-116z" />
    <glyph glyph-name="guilsinglleft.case" horiz-adv-x="679" 
d="M391 281l-262 426l393 415h117l-408 -426l258 -415h-98z" />
    <glyph glyph-name="guilsinglright.case" horiz-adv-x="681" 
d="M82 281l407 426l-258 415h99l262 -426l-393 -415h-117z" />
    <glyph glyph-name="endash.case" horiz-adv-x="1468" 
d="M252 662l14 81h975l-14 -81h-975z" />
    <glyph glyph-name="emdash.case" horiz-adv-x="1878" 
d="M252 662l14 81h1385l-15 -81h-1384z" />
    <glyph glyph-name="periodcentered.case" horiz-adv-x="552" 
d="M217 645l25 129h125l-25 -129h-125z" />
    <glyph glyph-name="questiondown.case" horiz-adv-x="917" 
d="M614 1309l27 125h121l-27 -125h-121zM66 272q0 74 24.5 138t64.5 111.5t89 90.5t101 83.5t97 81.5t79.5 94.5t47.5 113.5l19 90h88l-19 -90q-15 -71 -51 -133t-81 -107.5t-95.5 -88t-98 -82.5t-86 -82.5t-62 -97.5t-23.5 -118q0 -95 67 -155t183 -60q68 0 137.5 21.5
t104.5 43.5l36 21l35 -75q-6 -4 -16.5 -10.5t-44.5 -23t-69.5 -29.5t-86.5 -23.5t-100 -10.5q-157 0 -248.5 82t-91.5 215z" />
    <glyph glyph-name="exclamdown.case" horiz-adv-x="559" 
d="M356 1309l27 125h121l-27 -125h-121zM119 0l211 1075h88l-211 -1075h-88z" />
    <glyph glyph-name="bullet.case" horiz-adv-x="806" 
d="M422 449q-112 0 -191 78.5t-79 191.5t79 191.5t191 78.5t191 -78.5t79 -191.5t-79 -191.5t-191 -78.5z" />
    <glyph glyph-name="zero.p_osf" horiz-adv-x="1228" 
d="M119 412q0 124 42.5 250.5t116.5 231t187 170.5t242 66q96 0 170.5 -35t120.5 -96.5t69 -140t23 -170.5q0 -97 -25.5 -197.5t-76.5 -192.5t-120 -164.5t-163.5 -115.5t-200.5 -43q-97 0 -172.5 34.5t-121 95.5t-68.5 138.5t-23 168.5zM211 418q0 -101 30.5 -180
t99.5 -129t169 -50q87 0 165.5 38t136.5 101.5t101 144t64.5 168.5t21.5 173q0 158 -75.5 260.5t-223.5 102.5q-87 0 -166 -38.5t-136.5 -102.5t-100.5 -145t-64.5 -169.5t-21.5 -173.5z" />
    <glyph glyph-name="one.p_osf" horiz-adv-x="876" 
d="M18 0l17 80h325l160 827l21 99h-4q-38 -25 -91 -54l-262 -143l-30 72l405 225h86l-199 -1026h287l-16 -80h-699z" />
    <glyph glyph-name="two.p_osf" horiz-adv-x="1093" 
d="M25 0l12 66q237 141 387 242t254 195.5t147 175t43 167.5q0 98 -74 149.5t-190 51.5q-55 0 -112.5 -17.5t-100 -42t-77 -49t-52.5 -42.5l-18 -17l-47 67q7 7 21 19.5t58 44.5t89.5 56t112 44t130.5 20q95 0 166 -24t110.5 -65t58 -89t18.5 -102q0 -99 -43.5 -189
t-140.5 -183.5t-234 -187.5t-342 -210v-4q38 4 110 4h557l-14 -80h-829z" />
    <glyph glyph-name="three.p_osf" horiz-adv-x="1038" 
d="M-70 -76l70 56q4 -6 11.5 -17t36.5 -38t63 -48t91.5 -38t121.5 -17q57 0 116.5 17t115 50.5t99 79.5t69.5 109t26 133q0 116 -92.5 184t-260.5 68l-84 -4l-10 69l473 437q16 16 35 31t30 22l11 8v4q-39 -4 -111 -4h-444l-37 -195h-84l53 275h779l-11 -57l-555 -502
q46 0 94.5 -8t105 -31t99.5 -58t72 -95.5t29 -137.5q0 -137 -77 -249t-196 -171t-250 -59q-79 0 -148 19t-111 46.5t-73 55t-44 46.5z" />
    <glyph glyph-name="four.p_osf" horiz-adv-x="1153" 
d="M-37 84l12 59l899 963h78l-182 -942h231l-16 -80h-231l-62 -322h-86l62 322h-705zM109 164h575l129 665q4 25 12 57.5t13 51.5l6 20h-4q-48 -63 -95 -112l-636 -680v-2z" />
    <glyph glyph-name="five.p_osf" horiz-adv-x="1048" 
d="M-53 -68l63 60q4 -6 12.5 -16t38 -35.5t62 -45t85 -35.5t107.5 -16q80 0 161 28t149.5 78.5t111.5 131.5t43 178q0 128 -93 199t-228 71q-70 0 -143.5 -19t-111.5 -39l-38 -19l-62 20l205 633h654l-54 -275h-84l37 195h-489l-123 -381l-31 -82h4q12 6 34.5 14.5t87 22.5
t124.5 14q172 0 287.5 -91.5t115.5 -258.5q0 -113 -48.5 -209.5t-127.5 -160t-178.5 -99t-202.5 -35.5q-71 0 -135 17.5t-105 43t-71 51t-44 42.5z" />
    <glyph glyph-name="six.p_osf" horiz-adv-x="1187" 
d="M115 446q0 71 15.5 153.5t48 171t78 174t110 162.5t139.5 135t171.5 92t201.5 34q71 0 135.5 -14t93.5 -28l29 -13l-54 -72q-9 5 -26 12t-70 19t-108 12q-120 0 -229 -54t-189 -144.5t-137 -199.5t-88 -229h4q78 91 190.5 141t235.5 50q175 0 280 -92t105 -252
q0 -133 -68 -254t-191 -198t-270 -77q-196 0 -301.5 130.5t-105.5 340.5zM205 422q0 -66 20.5 -129.5t59.5 -116t101.5 -85t139.5 -32.5q182 0 307 128t125 315q0 123 -81 192.5t-222 69.5q-103 0 -207 -46.5t-173.5 -127t-69.5 -168.5z" />
    <glyph glyph-name="seven.p_osf" horiz-adv-x="1036" 
d="M61 -238l842 1207q12 16 23.5 30.5t17.5 20.5l6 6v4q-30 -4 -67 -4h-627l-37 -195h-84l53 275h887l-10 -57l-899 -1287h-105z" />
    <glyph glyph-name="eight.p_osf" horiz-adv-x="1181" 
d="M80 324q0 75 31 146.5t72.5 119t93.5 90t82 60.5t51 28q-144 98 -144 231q0 68 33.5 134t92.5 119t148.5 85.5t192.5 32.5q177 0 274 -77.5t97 -209.5q0 -63 -26 -130t-58 -113.5t-77 -94.5t-65 -65t-40 -33q166 -101 166 -248q0 -113 -74.5 -212t-194 -155.5
t-250.5 -56.5q-109 0 -199.5 39.5t-148 120.5t-57.5 189zM762 688q22 16 42 32.5t61.5 58.5t70.5 83.5t52.5 100.5t23.5 116q0 97 -76.5 152t-204.5 55q-158 0 -265.5 -84t-107.5 -201q0 -40 18.5 -75t44 -59t72 -51.5t81.5 -43.5t95.5 -42.5t92.5 -41.5zM172 324
q0 -121 91.5 -193t223.5 -72q96 0 192.5 42t164 121t67.5 173q0 41 -19.5 77.5t-47.5 62.5t-75.5 54t-86 45.5t-99 44.5t-94.5 44q-29 -15 -57.5 -32t-79 -56t-87.5 -80.5t-65 -103.5t-28 -127z" />
    <glyph glyph-name="nine.p_osf" horiz-adv-x="1173" 
d="M72 -135q9 -5 26 -12t70 -19t108 -12q120 0 229 54t189 144.5t137.5 199.5t88.5 229h-5q-78 -91 -190.5 -141t-235.5 -50q-175 0 -280 92t-105 252q0 133 68 254t191 197.5t270 76.5q196 0 301.5 -130.5t105.5 -340.5q0 -83 -22 -181t-63 -201.5t-107.5 -199.5t-148 -172
t-191.5 -121.5t-232 -45.5q-71 0 -134 14t-90 28l-27 13zM494 342q103 0 208.5 46t176.5 127t71 169q0 66 -20.5 129.5t-59.5 116t-101.5 85t-139.5 32.5q-182 0 -307 -128t-125 -315q0 -122 80 -192t217 -70z" />
    <glyph glyph-name="zero.t_osf" 
d="M74 412q0 124 42.5 250.5t116.5 231t187 170.5t242 66q96 0 170.5 -35t120 -96.5t68.5 -140t23 -170.5q0 -97 -25.5 -197.5t-76 -192.5t-119.5 -164.5t-163.5 -115.5t-200.5 -43q-97 0 -172.5 34.5t-121 95.5t-68.5 138.5t-23 168.5zM166 418q0 -101 30.5 -180t99.5 -129
t169 -50q87 0 165.5 38t136.5 101.5t101 144t64.5 168.5t21.5 173q0 158 -75.5 260.5t-223.5 102.5q-87 0 -166 -38.5t-136.5 -102.5t-100.5 -145t-64.5 -169.5t-21.5 -173.5z" />
    <glyph glyph-name="one.t_osf" 
d="M150 0l16 80h326l159 827l21 99h-4q-37 -25 -90 -54l-263 -143l-30 72l405 225h86l-198 -1026h286l-16 -80h-698z" />
    <glyph glyph-name="two.t_osf" 
d="M47 0l12 66q238 141 387.5 242t254 195.5t147.5 175t43 167.5q0 98 -74 149.5t-190 51.5q-55 0 -112.5 -17.5t-100 -42t-77.5 -49t-53 -42.5l-18 -17l-47 67q8 7 21.5 19.5t58 44.5t90 56t112 44t130.5 20q95 0 165.5 -24t110 -65t58 -89t18.5 -102q0 -99 -43.5 -189
t-140.5 -183.5t-234 -187.5t-342 -210v-4q39 4 111 4h557l-14 -80h-830z" />
    <glyph glyph-name="three.t_osf" 
d="M-20 -76l69 56q4 -6 11.5 -17t36.5 -38t63 -48t91.5 -38t121.5 -17q57 0 116.5 17t115 50.5t99 79.5t69.5 109t26 133q0 116 -92.5 184t-260.5 68l-84 -4l-10 69l473 437q16 16 35 31t30 22l11 8v4q-38 -4 -110 -4h-445l-37 -195h-84l54 275h778l-10 -57l-555 -502
q46 0 94.5 -8t104.5 -31t99 -58t72 -95.5t29 -137.5q0 -103 -45 -194.5t-118.5 -152.5t-167.5 -96.5t-191 -35.5q-79 0 -148 19t-111 46.5t-73 55t-44 46.5z" />
    <glyph glyph-name="four.t_osf" 
d="M-45 84l12 59l899 963h78l-182 -942h231l-16 -80h-232l-61 -322h-86l61 322h-704zM100 164h576l129 665q4 25 12 57.5t13 51.5l6 20h-5q-47 -63 -94 -112l-637 -680v-2z" />
    <glyph glyph-name="five.t_osf" 
d="M-8 -68l63 60q4 -6 12.5 -16t38 -35.5t62 -45t85 -35.5t107.5 -16q80 0 161 28t149.5 78.5t111.5 131.5t43 178q0 128 -93 199t-228 71q-70 0 -143.5 -19t-111.5 -39l-38 -19l-61 20l204 633h654l-54 -275h-84l37 195h-489l-123 -381l-31 -82h4q12 6 34.5 14.5t87 22.5
t124.5 14q172 0 288 -91.5t116 -258.5q0 -113 -48.5 -209.5t-128 -160t-179 -99t-202.5 -35.5q-71 0 -135 17.5t-105 43t-71 51t-43 42.5z" />
    <glyph glyph-name="six.t_osf" 
d="M88 446q0 71 15.5 153.5t48 171t78 174t110 162.5t139.5 135t171.5 92t201.5 34q71 0 135.5 -14t93.5 -28l29 -13l-53 -72q-9 5 -26 12t-70.5 19t-108.5 12q-120 0 -229 -54t-189 -144.5t-137 -199.5t-88 -229h4q78 91 190.5 141t235.5 50q175 0 280 -92t105 -252
q0 -99 -40.5 -194.5t-109.5 -169.5t-168.5 -119.5t-209.5 -45.5q-196 0 -302 130.5t-106 340.5zM178 422q0 -66 21 -129.5t59.5 -116t101.5 -85t140 -32.5q182 0 307 128t125 315q0 123 -81 192.5t-222 69.5q-103 0 -207.5 -46.5t-174 -127t-69.5 -168.5z" />
    <glyph glyph-name="seven.t_osf" 
d="M113 -238l841 1207q12 16 24 30.5t18 20.5l5 6v4q-30 -4 -67 -4h-627l-37 -195h-84l54 275h886l-10 -57l-899 -1287h-104z" />
    <glyph glyph-name="eight.t_osf" 
d="M57 324q0 75 31 146.5t72.5 119t93.5 90t82 60.5t51 28q-143 97 -143 231q0 68 33.5 134t92.5 119t148.5 85.5t192.5 32.5q177 0 273.5 -77.5t96.5 -209.5q0 -63 -26 -130t-58 -113.5t-77 -94.5t-65 -65t-40 -33q166 -101 166 -248q0 -85 -44 -164t-115.5 -135.5
t-166 -90.5t-192.5 -34q-109 0 -200 39.5t-148.5 120.5t-57.5 189zM739 688q22 16 42 32.5t61.5 58.5t70.5 83.5t52.5 100.5t23.5 116q0 97 -76 152t-204 55q-158 0 -265.5 -84t-107.5 -201q0 -40 18.5 -75t43.5 -59t71.5 -51.5t81.5 -43.5t95.5 -42.5t92.5 -41.5zM150 324
q0 -121 91.5 -193t223.5 -72q96 0 192.5 42t164 121t67.5 173q0 41 -19.5 77.5t-47.5 62.5t-75.5 54t-86 45.5t-99 44.5t-94.5 44q-29 -15 -57.5 -32t-79 -56t-87.5 -80.5t-65 -103.5t-28 -127z" />
    <glyph glyph-name="nine.t_osf" 
d="M53 -135q9 -5 26 -12t70.5 -19t108.5 -12q120 0 229 54t189 144.5t137 199.5t88 229h-4q-78 -91 -190.5 -141t-235.5 -50q-175 0 -280 92t-105 252q0 99 40.5 194.5t109.5 169.5t168.5 119t209.5 45q196 0 302 -130.5t106 -340.5q0 -83 -22 -181t-63 -201.5
t-107.5 -199.5t-148 -172t-191.5 -121.5t-232 -45.5q-71 0 -134 14t-90 28l-28 13zM475 342q103 0 209 46t177 127t71 169q0 66 -21 129.5t-59.5 116t-101.5 85t-140 32.5q-182 0 -307 -128t-125 -315q0 -122 80 -192t217 -70z" />
    <glyph glyph-name="dollar.osf" horiz-adv-x="958" 
d="M-8 182l55 54q5 -7 14 -19t42 -41t70 -50.5t97 -36.5t125 -9q79 0 152.5 26t124.5 81.5t51 129.5q0 46 -23.5 84t-61.5 63.5t-87 51t-100.5 46t-100.5 49t-87 60t-61.5 80t-23.5 107.5q0 137 114 227t279 99l37 184h88l-37 -186q77 -8 144 -38.5t95 -56.5l28 -26l-64 -62
q-4 4 -10.5 11t-31.5 25.5t-54 32t-77 25t-101 11.5q-44 0 -87.5 -8.5t-86 -27.5t-74.5 -46t-52 -68t-20 -90q0 -57 30 -100.5t78 -72t106 -53.5t116.5 -52t106.5 -60.5t78 -86.5t30 -122q0 -82 -52 -154.5t-148 -118t-212 -46.5l-39 -211h-88l41 217q-63 9 -119.5 30.5
t-92 46t-62 47.5t-37.5 38z" />
    <glyph glyph-name="cent.osf" horiz-adv-x="1064" 
d="M403 -51l35 172q-166 19 -266 125.5t-100 275.5q0 120 47.5 226t126.5 179.5t178.5 119.5t204.5 55l35 176h88l-37 -176q62 -5 117 -23.5t89.5 -41t60.5 -44.5t37 -37l11 -14l-55 -65q-4 6 -11 15.5t-33.5 34t-58.5 43.5t-86.5 34.5t-115.5 15.5q-92 0 -182.5 -36.5
t-162.5 -100t-116.5 -158t-44.5 -201.5q0 -147 96.5 -235t249.5 -88q60 0 119 15t100.5 36.5t74.5 43.5t50 37l16 15l35 -76q-6 -6 -17.5 -16t-50 -35.5t-80 -46t-104.5 -38t-127 -19.5l-34 -168h-89z" />
    <glyph glyph-name="sterling.osf" horiz-adv-x="1163" 
d="M-20 0l12 80h184l84 428h-143l14 80h143l48 241q32 166 162.5 267.5t306.5 101.5q56 0 109 -11t88 -26.5t62 -31t40 -26.5l12 -11l-58 -64q-4 3 -11.5 9t-33 21t-53.5 26t-71.5 20.5t-88.5 9.5q-151 0 -252 -83t-126 -204l-48 -239h498l-14 -80h-498l-84 -428h719
l-14 -80h-987z" />
    <glyph glyph-name="yen.osf" horiz-adv-x="1126" 
d="M119 322l16 81h344l13 66l-43 98h-283l16 82h234l-223 529h96l196 -476l60 -155h4q62 85 117 155l381 476h104l-426 -529h227l-16 -82h-279l-77 -98l-13 -66h338l-16 -81h-338l-62 -322h-88l62 322h-344z" />
    <glyph glyph-name="florin.osf" horiz-adv-x="1132" 
d="M-182 -172q53 -10 123 -10q29 0 58 5t69.5 23.5t74.5 49.5t67.5 87.5t55.5 131.5l160 563h-197l15 78h205l69 250q26 93 68.5 163t85.5 107t94.5 59.5t87 28.5t72.5 6q44 0 89.5 -4t68.5 -8l24 -4l-14 -78q-84 14 -166 14q-31 0 -60 -5t-69 -23.5t-73.5 -49.5
t-67.5 -87.5t-56 -131.5l-67 -237h270l-14 -78h-279l-166 -582q-27 -92 -69.5 -161t-84.5 -105.5t-92.5 -58.5t-85.5 -27.5t-71 -5.5q-38 0 -73.5 3t-51.5 6l-17 3z" />
    <glyph glyph-name="Euro.osf" horiz-adv-x="1165" 
d="M55 406l17 81h137q5 86 33 191h-129l16 82h139q39 90 101 166.5t147.5 138.5t200.5 97.5t246 35.5q49 0 98.5 -7t74.5 -15l25 -7l-39 -77q-77 20 -161 20q-212 0 -365 -99t-229 -253h616l-35 -82h-614q-29 -97 -35 -191h584l-35 -81h-547q14 -151 130.5 -248t326.5 -97
q46 0 92 6.5t69 13.5l23 7l8 -86q-85 -27 -194 -27q-128 0 -230.5 34.5t-168 94.5t-102.5 136.5t-44 165.5h-156z" />
    <glyph glyph-name="zero.numerator" horiz-adv-x="817" 
d="M403 524q-130 0 -186.5 73.5t-56.5 209.5q0 71 12 151.5t41.5 170.5t74 161t116.5 117.5t161 46.5q244 0 244 -289q0 -58 -9 -123.5t-27.5 -139t-51 -140t-75.5 -120.5t-106 -86t-137 -32zM408 598q70 0 127 40t92 101.5t59 139.5t33.5 149t9.5 135q0 217 -168 217
q-59 0 -109 -28t-84 -76t-59.5 -106.5t-40 -124.5t-21.5 -124.5t-7 -111.5q0 -211 168 -211z" />
    <glyph glyph-name="one.numerator" horiz-adv-x="622" 
d="M68 545l14 73h217l121 629l18 76h-4q-20 -26 -55 -55l-125 -105l-45 60l250 211h78l-160 -816h211l-15 -73h-505z" />
    <glyph glyph-name="two.numerator" horiz-adv-x="729" 
d="M74 545q2 79 35.5 145t85 112t113 86.5t122.5 77t111.5 74.5t82 88t31.5 109q0 62 -41.5 102.5t-113.5 40.5q-52 0 -105 -25.5t-81 -50.5l-27 -26l-43 57l13 13t35 28.5t55.5 36t71 28.5t83.5 13q115 0 174 -59.5t59 -153.5q0 -60 -21.5 -111t-56.5 -87.5t-81.5 -71.5
t-95.5 -62.5t-99 -60t-92 -63.5t-75 -74.5t-46 -92.5h393l23 117h78l-37 -190h-551z" />
    <glyph glyph-name="three.numerator" horiz-adv-x="739" 
d="M362 524q-52 0 -100 13.5t-80.5 33t-57.5 39.5t-36 34l-12 13l61 50q3 -4 9.5 -11.5t28.5 -26.5t46.5 -33t63.5 -26t80 -12q92 0 166.5 71.5t74.5 172.5q0 73 -55.5 116t-130.5 43h-66l-14 50l285 272q12 11 24.5 21t18.5 14l6 4v4q-23 -6 -56 -6h-278l-23 -117h-77
l36 191h521l-11 -54l-321 -309q25 -2 52 -9.5t58 -24.5t55 -41.5t40 -64.5t16 -89q0 -125 -97 -221.5t-227 -96.5z" />
    <glyph glyph-name="four.numerator" horiz-adv-x="768" 
d="M479 545l49 248h-440l10 53l570 588h63l-110 -568h139l-15 -73h-139l-49 -248h-78zM211 866h332l69 359q3 16 8.5 37t9.5 34l5 13h-4q-27 -37 -60 -70l-360 -369v-4z" />
    <glyph glyph-name="five.numerator" horiz-adv-x="739" 
d="M356 524q-49 0 -95.5 13.5t-77 32t-54 37.5t-34.5 33l-11 13l59 49q3 -4 9.5 -11t28 -25t44.5 -32t59.5 -25t73.5 -11q105 0 181.5 75t76.5 177q0 85 -53.5 137.5t-138.5 52.5q-43 0 -87 -14t-67 -28l-22 -13l-49 21l137 428h428l-37 -191h-78l23 117h-285l-70 -230
l-18 -45h4q49 27 129 27q117 0 190.5 -72.5t73.5 -185.5q0 -134 -100.5 -232t-239.5 -98z" />
    <glyph glyph-name="six.numerator" horiz-adv-x="776" 
d="M408 524q-126 0 -192 85.5t-66 226.5q0 65 19.5 144.5t61 163.5t97 153t135.5 113t170 44q47 0 89.5 -11t61.5 -21l19 -11l-43 -61q-53 30 -131 30q-83 0 -159 -53t-127.5 -133.5t-82.5 -177.5h4q43 43 110 70.5t134 27.5q105 0 169 -62.5t64 -170.5q0 -85 -30 -155
t-79 -113t-107 -66t-117 -23zM408 598q111 0 182.5 83.5t71.5 197.5q0 74 -46.5 117.5t-123.5 43.5q-91 0 -177 -65t-86 -148q0 -90 47 -159.5t132 -69.5z" />
    <glyph glyph-name="seven.numerator" horiz-adv-x="694" 
d="M129 545l537 774q7 10 16 20.5t14 15.5l6 5v4q-22 -4 -47 -4h-358l-23 -117h-77l36 191h578l-10 -54l-582 -835h-90z" />
    <glyph glyph-name="eight.numerator" horiz-adv-x="788" 
d="M395 522q-114 0 -191 61t-77 171q0 55 23.5 106.5t62 90t65 59.5t54.5 39q-80 63 -80 149q0 80 47.5 139.5t114.5 87t139 27.5q103 0 172.5 -51.5t69.5 -143.5q0 -48 -20.5 -97.5t-53.5 -89t-54.5 -61.5t-41.5 -38q102 -70 102 -168q0 -110 -99 -195.5t-233 -85.5z
M561 1008q20 14 41 33.5t49 52.5t46 75t18 84q0 60 -48 92.5t-116 32.5q-51 0 -99.5 -18.5t-84 -60t-35.5 -97.5q0 -24 10.5 -45.5t23.5 -36.5t40.5 -32.5t45.5 -26.5t55.5 -27t53.5 -26zM395 596q93 0 172.5 59.5t79.5 143.5q0 31 -14 56.5t-43.5 47t-55.5 36t-71 36
t-68 33.5q-21 -11 -40.5 -24t-48 -37.5t-49 -50.5t-35.5 -63.5t-15 -76.5q0 -72 55.5 -116t132.5 -44z" />
    <glyph glyph-name="nine.numerator" horiz-adv-x="776" 
d="M299 524q-47 0 -91 11t-64 21l-21 11l47 62q51 -31 129 -31q83 0 159 53.5t127.5 134t82.5 177.5h-4q-44 -44 -111 -71.5t-133 -27.5q-105 0 -169.5 63t-64.5 171q0 85 30.5 154.5t79 112.5t107 66t117.5 23q126 0 192 -85t66 -226q0 -65 -19.5 -144.5t-60.5 -163.5
t-96.5 -153t-135 -113.5t-167.5 -44.5zM436 938q91 0 176.5 65t85.5 148q0 57 -18.5 108t-60.5 86t-99 35q-111 0 -182.5 -83t-71.5 -197q0 -74 46.5 -118t123.5 -44z" />
    <glyph glyph-name="zero.denominator" horiz-adv-x="817" 
d="M297 -20q-130 0 -187 73t-57 209q0 71 12 151.5t42 170.5t74.5 161t116.5 117.5t161 46.5q130 0 186.5 -75t56.5 -213q0 -71 -12 -150.5t-42 -168.5t-74.5 -159.5t-116.5 -116.5t-160 -46zM301 53q70 0 127 40t92 101.5t59.5 139.5t34 149t9.5 135q0 218 -168 218
q-70 0 -127.5 -40.5t-92.5 -103t-59 -141.5t-33.5 -150.5t-9.5 -136.5q0 -211 168 -211z" />
    <glyph glyph-name="one.denominator" horiz-adv-x="626" 
d="M-37 0l14 74h218l120 628l19 76h-4q-21 -26 -56 -55l-124 -105l-46 60l250 211h78l-160 -815h211l-14 -74h-506z" />
    <glyph glyph-name="two.denominator" horiz-adv-x="727" 
d="M-33 0q2 79 35.5 145t85 112t113.5 86.5t123 77t111.5 74.5t82 88t31.5 109q0 62 -42 103t-114 41q-52 0 -105 -26t-80 -52l-28 -25l-43 58l13 13t35 28t55.5 35.5t71 28.5t83.5 13q115 0 174.5 -59.5t59.5 -153.5q0 -68 -27.5 -124t-72 -96.5t-99.5 -76t-113.5 -69.5
t-109.5 -69.5t-91 -83.5t-55 -103h394l22 116h78l-37 -190h-551z" />
    <glyph glyph-name="three.denominator" horiz-adv-x="741" 
d="M258 -20q-52 0 -100.5 13.5t-80.5 33t-57.5 39.5t-37.5 34l-11 13l62 49q3 -4 9.5 -11.5t28 -26.5t46 -33t63.5 -26t80 -12q93 0 167.5 71.5t74.5 172.5q0 73 -56 116.5t-131 43.5h-65l-14 49l284 272q12 11 24.5 21t18.5 14l6 4v4q-22 -6 -55 -6h-278l-23 -117h-78
l37 191h520l-10 -53l-322 -310q33 -3 67.5 -15t71 -36.5t60 -70.5t23.5 -107q0 -125 -97 -221t-227 -96z" />
    <glyph glyph-name="four.denominator" horiz-adv-x="765" 
d="M373 0l49 248h-440l10 53l569 588h64l-111 -567h139l-14 -74h-139l-49 -248h-78zM104 322h332l70 358q3 16 8.5 37t9.5 34l4 13h-4q-26 -37 -59 -70l-361 -368v-4z" />
    <glyph glyph-name="five.denominator" horiz-adv-x="741" 
d="M252 -20q-49 0 -95.5 13.5t-77 32t-54 37.5t-34.5 33l-11 13l59 49q3 -4 9.5 -11t28 -25.5t44.5 -32t59.5 -25t73.5 -11.5q105 0 181.5 75t76.5 177q0 85 -54 138t-139 53q-43 0 -87 -14t-66 -28l-23 -14l-49 21l137 428h428l-36 -191h-78l22 117h-284l-70 -229l-18 -45
h4q49 26 129 26q117 0 190.5 -72.5t73.5 -185.5q0 -134 -100.5 -231.5t-239.5 -97.5z" />
    <glyph glyph-name="six.denominator" horiz-adv-x="776" 
d="M301 -20q-126 0 -192 85t-66 226q0 65 19.5 144.5t61 163.5t97 153t135.5 113t170 44q47 0 89.5 -10.5t61.5 -21.5l19 -11l-43 -61q-53 31 -131 31q-83 0 -159 -53.5t-127 -134t-82 -177.5h4q43 43 109.5 70.5t133.5 27.5q105 0 169.5 -62.5t64.5 -170.5
q0 -85 -30.5 -154.5t-79 -112.5t-107 -66t-117.5 -23zM301 53q111 0 182.5 83.5t71.5 197.5q0 74 -46.5 118t-123.5 44q-91 0 -176.5 -65t-85.5 -148q0 -57 18.5 -108t60.5 -86.5t99 -35.5z" />
    <glyph glyph-name="seven.denominator" horiz-adv-x="694" 
d="M23 0l536 774q7 10 16.5 20.5t14.5 15.5l6 5v4q-22 -4 -47 -4h-359l-22 -117h-78l37 191h578l-11 -53l-581 -836h-90z" />
    <glyph glyph-name="eight.denominator" horiz-adv-x="786" 
d="M289 -20q-114 0 -191.5 60.5t-77.5 170.5q0 55 23.5 106.5t62 90t65 59.5t54.5 39q-80 63 -80 149q0 80 47.5 139.5t114.5 87t139 27.5q103 0 172.5 -51t69.5 -143q0 -39 -15 -80.5t-35 -72.5t-46.5 -61.5t-42.5 -45.5t-31 -27q103 -70 103 -168q0 -110 -99 -195
t-233 -85zM455 465q19 14 40.5 34t49 52.5t45.5 75t18 84.5q0 60 -48 92.5t-116 32.5q-51 0 -99.5 -18.5t-84 -60.5t-35.5 -98q0 -24 10.5 -45.5t24 -36.5t41 -32.5t45.5 -26.5t55 -27t54 -26zM289 53q93 0 172.5 59.5t79.5 143.5q0 31 -14 56.5t-43.5 47t-55.5 36t-71 36
t-68 33.5q-28 -15 -53.5 -33.5t-59.5 -50t-55 -75.5t-21 -93q0 -72 56 -116t133 -44z" />
    <glyph glyph-name="nine.denominator" horiz-adv-x="776" 
d="M193 -20q-47 0 -91.5 10.5t-65.5 21.5l-20 11l47 61q52 -31 130 -31q83 0 159 53.5t127 134t82 177.5h-4q-44 -44 -111 -71.5t-133 -27.5q-105 0 -169 63t-64 171q0 85 30.5 154.5t79 112.5t107 66t117.5 23q126 0 192 -85t66 -226q0 -65 -19.5 -144.5t-60.5 -163
t-96.5 -153t-135 -113.5t-167.5 -44zM330 393q91 0 176.5 65t85.5 148q0 57 -18.5 108t-60.5 86.5t-99 35.5q-111 0 -182.5 -83.5t-71.5 -197.5q0 -75 46.5 -118.5t123.5 -43.5z" />
    </font>
</defs>
</svg>
