<?xml version="1.0" standalone="no"?>
<!DOCTYPE svg PUBLIC "-//W3C//DTD SVG 1.1//EN" "http://www.w3.org/Graphics/SVG/1.1/DTD/svg11.dtd" >
<svg xmlns="http://www.w3.org/2000/svg" xmlns:xlink="http://www.w3.org/1999/xlink" version="1.1">
<metadata>
Created by FontForge 20170731 at Mon Sep 20 10:34:37 2021
 By Aleksey,,,
Copyright (c) 2009 by Jos Buivenga. All rights reserved. TK-rip
</metadata>
<defs>
<font id="MuseoSlab-1000" horiz-adv-x="1255" >
  <font-face 
    font-family="Museo Slab 1000"
    font-weight="400"
    font-stretch="normal"
    units-per-em="2048"
    panose-1="2 0 0 0 0 0 0 0 0 0"
    ascent="1536"
    descent="-512"
    x-height="1063"
    cap-height="1473"
    bbox="-283 -530 2679 1935"
    underline-thickness="102"
    underline-position="-307"
    unicode-range="U+0020-FB04"
  />
<missing-glyph horiz-adv-x="1044" 
d="M10 0v1434h1024v-1434h-1024zM522 809l348 522h-696zM584 717l348 -522v1044zM113 195l348 522l-348 522v-1044zM174 102h696l-348 523z" />
    <glyph glyph-name="f_f" unicode="ff" horiz-adv-x="1691" 
d="M76 0v303h119v457h-129v303h129v39q0 73 19 133t50 100.5t75.5 71.5t89 49t97 29t94.5 14.5t85 3.5q52 0 102 -4l39 -6v-330l-31 4q-36 4 -74 4q-64 0 -91 -14.5t-27 -44.5v-49h391v39q0 73 19 133t50 100.5t75.5 71.5t89 49t97 29t94.5 14.5t85 3.5q52 0 102 -4l39 -6
v-330l-31 4q-36 4 -73 4q-64 0 -91.5 -14.5t-27.5 -44.5v-49h203v-303h-203v-457h139v-303h-686v303h119v457h-391v-457h139v-303h-686z" />
    <glyph glyph-name="fi" unicode="fi" horiz-adv-x="1607" 
d="M76 0v303h119v457h-129v303h129v39q0 73 19 133t50 100.5t75.5 71.5t89 49t97 29t94.5 14.5t85 3.5q52 0 102 -4l39 -6v-330l-31 4q-36 4 -74 4q-64 0 -91 -14.5t-27 -44.5v-49h819v-760h119v-303h-666v303h119v457h-391v-457h139v-303h-686zM1022 1161v312h412v-312
h-412z" />
    <glyph glyph-name="fl" unicode="fl" horiz-adv-x="1603" 
d="M76 0v303h119v457h-129v303h129v18q0 116 51.5 203t143 138t208 75.5t256.5 24.5q179 0 393 -37q87 -14 170 -37v-991q0 -78 18 -103.5t72 -25.5q8 0 17 1t12 1h12v-336l-32 -4q-23 -2 -93 -2q-48 0 -86 3t-84.5 14t-82 30t-70.5 52.5t-58 79.5t-37 114t-14 153v756
l-51 8q-41 8 -113 8q-103 0 -153.5 -31.5t-50.5 -82.5v-29h202v-303h-202v-457h139v-303h-686z" />
    <glyph glyph-name="f_f_i" unicode="ffi" horiz-adv-x="2426" 
d="M76 0v303h119v457h-129v303h129v39q0 73 19 133t50 100.5t75.5 71.5t89 49t97 29t94.5 14.5t85 3.5q52 0 102 -4l39 -6v-330l-31 4q-36 4 -74 4q-64 0 -91 -14.5t-27 -44.5v-49h391v39q0 73 19 133t50 100.5t75.5 71.5t89 49t97 29t94.5 14.5t85 3.5q52 0 102 -4l39 -6
v-330l-31 4q-36 4 -73 4q-64 0 -91.5 -14.5t-27.5 -44.5v-49h819v-760h119v-303h-666v303h119v457h-391v-457h139v-303h-686v303h119v457h-391v-457h139v-303h-686zM1841 1161v312h412v-312h-412z" />
    <glyph glyph-name="f_f_l" unicode="ffl" horiz-adv-x="2422" 
d="M76 0v303h119v457h-129v303h129v39q0 73 19 133t50 100.5t75.5 71.5t89 49t97 29t94.5 14.5t85 3.5q52 0 102 -4l39 -6v-330l-31 4q-36 4 -74 4q-64 0 -91 -14.5t-27 -44.5v-49h391v18q0 116 51.5 203t143 138t208 75.5t256.5 24.5q179 0 393 -37q87 -14 170 -37v-991
q0 -78 18.5 -103.5t72.5 -25.5q5 0 14.5 1t13.5 1h12v-336l-32 -4q-23 -2 -92 -2q-48 0 -86 3t-84.5 14t-82 30t-71 52.5t-58.5 79.5t-37 114t-14 153v756l-51 8q-41 8 -112 8q-103 0 -154 -31.5t-51 -82.5v-29h203v-303h-203v-457h139v-303h-686v303h119v457h-391v-457h139
v-303h-686z" />
    <glyph glyph-name="f_j" unicode="fj" horiz-adv-x="1566" 
d="M76 0v303h119v457h-129v303h129v39q0 73 19 133t50 100.5t75.5 71.5t89 49t97 29t94.5 14.5t85 3.5q52 0 102 -4l39 -6v-330l-31 4q-36 4 -74 4q-64 0 -91 -14.5t-27 -44.5v-49h821v-1073q0 -74 -21 -135.5t-55 -104t-81.5 -75t-96 -51.5t-103.5 -31.5t-99 -16.5t-87 -4
q-58 0 -76 2l-28 4v332q2 -2 12 -2h33q29 0 55.5 4t55.5 14t46 32t17 54v748h-393v-457h139v-303h-686zM1024 1161v312h412v-312h-412z" />
    <glyph glyph-name=".notdef" horiz-adv-x="1044" 
d="M10 0v1434h1024v-1434h-1024zM522 809l348 522h-696zM584 717l348 -522v1044zM113 195l348 522l-348 522v-1044zM174 102h696l-348 523z" />
    <glyph glyph-name=".null" horiz-adv-x="0" 
 />
    <glyph glyph-name="nonmarkingreturn" horiz-adv-x="682" 
 />
    <glyph glyph-name="space" unicode=" " horiz-adv-x="512" 
 />
    <glyph glyph-name="exclam" unicode="!" horiz-adv-x="659" 
d="M150 479l-41 994h444l-43 -994h-360zM139 0v356h379v-356h-379z" />
    <glyph glyph-name="quotedbl" unicode="&#x22;" horiz-adv-x="917" 
d="M530 967v540h295v-540h-295zM92 967v540h293v-540h-293z" />
    <glyph glyph-name="numbersign" unicode="#" horiz-adv-x="1449" 
d="M186 0l62 358h-180l49 291h178l22 123h-174l50 291h174l71 410h324l-72 -410h176l72 410h326l-72 -410h190l-47 -291h-190l-23 -123h185l-50 -291h-184l-61 -358h-326l62 358h-177l-61 -358h-324zM621 649h176l22 123h-176z" />
    <glyph glyph-name="dollar" unicode="$" horiz-adv-x="1234" 
d="M63 223l213 303q37 -27 115 -73q133 -76 225 -76q49 0 85 17t36 50q0 29 -35.5 54t-92.5 46.5t-126 46t-137.5 60.5t-125.5 82t-92.5 118.5t-35.5 162.5q0 167 109.5 283.5t285.5 154.5v223h261v-215q168 -21 290 -96q61 -38 95 -72l-168 -327q-55 39 -105 65
q-126 66 -225 66q-45 0 -79 -15t-34 -49q0 -30 27.5 -55t73 -42t103.5 -38.5t118.5 -42.5t118.5 -55.5t103.5 -75.5t73 -105t27.5 -143q0 -107 -47.5 -202.5t-144.5 -165.5t-227 -91v-217h-261v217q-174 29 -315 121q-62 39 -109 86z" />
    <glyph glyph-name="percent" unicode="%" horiz-adv-x="1867" 
d="M467 743q-166 0 -281.5 109.5t-115.5 267.5q0 155 116 266t281 111t282 -111.5t117 -265.5q0 -158 -116.5 -267.5t-282.5 -109.5zM174 0l1143 1473h366l-1142 -1473h-367zM467 1034q39 0 66.5 25t27.5 63q0 35 -27.5 59.5t-66.5 24.5q-37 0 -65.5 -24.5t-28.5 -59.5
q0 -37 28 -62.5t66 -25.5zM1006 350q0 155 116.5 267t282.5 112q164 0 280.5 -112.5t116.5 -266.5q0 -155 -116.5 -265t-280.5 -110q-167 0 -283 109.5t-116 265.5zM1309 354q0 -38 28.5 -63t67.5 -25q38 0 66 25.5t28 62.5q0 35 -28.5 59.5t-65.5 24.5q-39 0 -67.5 -24.5
t-28.5 -59.5z" />
    <glyph glyph-name="ampersand" unicode="&#x26;" horiz-adv-x="1456" 
d="M57 424q0 121 67.5 212.5t180.5 137.5v4q-55 28 -94 70q-94 98 -94 252q0 86 30.5 155t81 113.5t119.5 74t140.5 42t148.5 12.5q76 0 162 -12l67 -12l-96 -336l-18 4q-14 2 -45 2q-70 0 -112 -29.5t-42 -89.5q0 -53 30 -84t64 -31h178v185h424v-185h178v-342h-178v-131
q0 -89 -40.5 -171.5t-115 -147.5t-190.5 -103.5t-256 -38.5q-134 0 -246.5 36t-187 97.5t-115.5 143t-41 172.5zM498 469q0 -55 41.5 -84t111.5 -29q80 0 127 33.5t47 73.5v104h-207q-26 0 -50 -6t-47 -29.5t-23 -62.5z" />
    <glyph glyph-name="quotesingle" unicode="'" horiz-adv-x="485" 
d="M92 967v540h301v-540h-301z" />
    <glyph glyph-name="parenleft" unicode="(" horiz-adv-x="755" 
d="M700 -195h-346q-260 403 -260 912q0 432 260 833h346q-231 -384 -231 -831q0 -460 231 -914z" />
    <glyph glyph-name="parenright" unicode=")" horiz-adv-x="757" 
d="M401 -195h-346q232 444 232 914q0 450 -232 831h346q263 -406 263 -833q0 -505 -263 -912z" />
    <glyph glyph-name="asterisk" unicode="*" horiz-adv-x="1036" 
d="M422 612l-297 217l139 144v4l-198 33l112 350l178 -88l-24 201h368l-28 -201l182 90l115 -348l-203 -35v-4l145 -144l-299 -217l-94 179h-4z" />
    <glyph glyph-name="plus" unicode="+" horiz-adv-x="1306" 
d="M86 432v316h401v434h332v-434h402v-316h-402v-432h-332v432h-401z" />
    <glyph glyph-name="comma" unicode="," horiz-adv-x="636" 
d="M-2 -238l166 637h399l-258 -637h-307z" />
    <glyph glyph-name="hyphen" unicode="-" horiz-adv-x="915" 
d="M125 406v368h666v-368h-666z" />
    <glyph glyph-name="period" unicode="." horiz-adv-x="610" 
d="M109 0v391h393v-391h-393z" />
    <glyph glyph-name="slash" unicode="/" horiz-adv-x="1007" 
d="M66 -86l526 1628h350l-526 -1628h-350z" />
    <glyph glyph-name="zero" unicode="0" horiz-adv-x="1294" 
d="M647 -25q-126 0 -224 39.5t-162.5 108t-106 166.5t-59 208.5t-17.5 241.5t17.5 240.5t59 207t106 165t162.5 106.5t224 39t224 -39t162.5 -106.5t106.5 -165t59.5 -207t17.5 -240.5t-17.5 -241.5t-59.5 -208.5t-106.5 -166.5t-162.5 -108t-224 -39.5zM647 356
q125 0 125 383q0 377 -125 377t-125 -377q0 -383 125 -383z" />
    <glyph glyph-name="one" unicode="1" horiz-adv-x="1167" 
d="M98 0v342h308v485q0 17 1 45t1 39v39h-5q-6 -16 -14 -26q-25 -34 -39 -47l-65 -56l-246 264l418 388h370v-1131h312v-342h-1041z" />
    <glyph glyph-name="two" unicode="2" horiz-adv-x="1267" 
d="M1176 0h-1090q-20 94 -20 180q0 113 34.5 209t90 163t122.5 123.5t134 99t122.5 79.5t90 76t34.5 78q0 37 -10.5 60.5t-29.5 33t-33.5 12t-34.5 2.5q-68 0 -146 -78q-30 -30 -59 -80l-299 205q44 96 119 168q174 166 426 166q71 0 142 -15.5t140.5 -51t122.5 -87t86 -132
t33 -177.5q0 -84 -32.5 -158.5t-85 -129t-116.5 -103t-128.5 -87.5t-118 -73.5t-89 -70.5t-38.5 -70h286v166h347v-508z" />
    <glyph glyph-name="three" unicode="3" horiz-adv-x="1226" 
d="M92 1012v461h1006v-306l-236 -301q145 -39 219 -141.5t74 -232.5q0 -78 -20.5 -151t-65.5 -140t-111 -117t-164.5 -79.5t-218.5 -29.5q-203 0 -385 97q-74 39 -129 94l193 307q38 -32 86 -57q106 -60 201 -60q85 0 126.5 33t41.5 82q0 52 -46.5 85.5t-144.5 33.5
q-6 0 -14.5 -0.5t-23.5 -1.5t-27 -2l-88 190l210 279q11 14 52 55l24 23v4q-23 0 -33 -2q-45 -5 -67 -5h-113v-118h-346z" />
    <glyph glyph-name="four" unicode="4" horiz-adv-x="1316" 
d="M35 340v258l516 875h534v-803h164v-330h-164v-340h-426v340h-624zM598 975l-164 -301v-4h225v288q0 58 9 111l8 59h-8l-21 -49q-40 -89 -49 -104z" />
    <glyph glyph-name="five" unicode="5" horiz-adv-x="1239" 
d="M57 162l183 317q45 -36 94 -61q114 -62 215 -62q77 0 127.5 33.5t50.5 97.5q0 129 -201 129q-77 0 -143 -20q-32 -11 -47 -23l-225 84l53 816h911v-461h-348v118h-209l-10 -126q0 -6 -1 -13t-2.5 -15t-2.5 -13l-4 -21h4q19 6 30 8q34 6 111 6q249 0 388.5 -132
t139.5 -337q0 -222 -162.5 -367t-428.5 -145q-201 0 -383 95q-87 44 -140 92z" />
    <glyph glyph-name="six" unicode="6" horiz-adv-x="1290" 
d="M684 -25q-94 0 -181.5 25t-166.5 79.5t-138 134t-93.5 196t-34.5 256.5q0 171 49 320.5t140.5 264t234 180.5t317.5 66q122 0 240 -33q50 -14 90 -32l-107 -357q-28 12 -61 21q-78 20 -152 20q-198 0 -266 -153h4l49 12q62 12 127 12q114 0 211 -45.5t158.5 -118
t96 -160.5t34.5 -176q0 -94 -37.5 -184.5t-106 -164t-175 -118.5t-232.5 -45zM502 565q0 -81 55 -145t123 -64q54 0 88.5 33.5t34.5 87.5q0 25 -10 51.5t-32 53.5t-64.5 44t-98.5 17q-54 0 -75 -17t-21 -61z" />
    <glyph glyph-name="seven" unicode="7" horiz-adv-x="1183" 
d="M113 0l522 1034q28 55 45 74l18 25v4q-20 0 -32 -2q-58 -5 -84 -5h-152v-118h-369v461h1098v-302l-598 -1171h-448z" />
    <glyph glyph-name="eight" unicode="8" horiz-adv-x="1269" 
d="M66 422q0 60 22 119.5t57.5 106t64.5 77t58 53.5q-72 60 -108.5 126t-36.5 157q0 82 31 158t90.5 139t158.5 101t224 38q108 0 204 -28.5t169.5 -80.5t116 -132.5t42.5 -178.5q0 -170 -145 -334q186 -123 186 -315q0 -83 -35 -161.5t-102 -144.5t-179 -106.5t-253 -40.5
q-140 0 -252 40.5t-178 106.5t-100.5 143t-34.5 157zM506 1059q0 -57 52.5 -96.5t156.5 -79.5q53 87 53 159q0 52 -37 83.5t-102 31.5q-63 0 -93 -27t-30 -71zM459 455q0 -61 46.5 -103.5t117.5 -42.5q78 0 120.5 33.5t42.5 93.5q0 16 -6 30t-21.5 28t-28 24t-41.5 24.5
t-44 21.5t-54 24t-54 24q-31 -29 -54.5 -70.5t-23.5 -86.5z" />
    <glyph glyph-name="nine" unicode="9" horiz-adv-x="1282" 
d="M598 1497q94 0 181 -25t166.5 -79.5t138.5 -133.5t93.5 -195.5t34.5 -256.5q0 -171 -49 -320.5t-140.5 -264t-234 -181t-317.5 -66.5q-122 0 -240 33q-44 13 -90 33l107 356q22 -10 61 -20q82 -21 152 -21q204 0 274 170h-4q-44 -11 -53 -14q-66 -16 -131 -16
q-112 0 -207 44t-155.5 115t-94 157t-33.5 173q0 94 37 184.5t104 164t171.5 118.5t228.5 45zM780 913q0 80 -55.5 141.5t-122.5 61.5q-54 0 -88.5 -33.5t-34.5 -87.5q0 -25 10 -51.5t32 -53.5t64.5 -44t98.5 -17q53 0 74.5 19.5t21.5 64.5z" />
    <glyph glyph-name="colon" unicode=":" horiz-adv-x="731" 
d="M168 670v393h395v-393h-395zM168 0v395h395v-395h-395z" />
    <glyph glyph-name="semicolon" unicode=";" horiz-adv-x="698" 
d="M229 670v393h379v-393h-379zM72 -238l143 637h403l-237 -637h-309z" />
    <glyph glyph-name="less" unicode="&#x3c;" horiz-adv-x="1306" 
d="M96 463v258l1069 471v-350l-649 -250v-4l649 -246v-352z" />
    <glyph glyph-name="equal" unicode="=" horiz-adv-x="1306" 
d="M121 686v318h1065v-318h-1065zM121 176v318h1065v-318h-1065z" />
    <glyph glyph-name="greater" unicode="&#x3e;" horiz-adv-x="1306" 
d="M139 -10v352l649 246v4l-649 250v350l1069 -471v-258z" />
    <glyph glyph-name="question" unicode="?" horiz-adv-x="1093" 
d="M262 479v105q0 72 32 132t77 100t90.5 74.5t77.5 71.5t32 76q0 41 -27 61.5t-71 20.5q-64 0 -129 -43q-30 -21 -57 -45l-234 285q56 57 119 94q160 94 336 94q73 0 144 -15.5t137.5 -49.5t116.5 -82t80 -118.5t30 -154.5q0 -66 -19 -124t-49.5 -99t-67.5 -77t-74 -65
t-67.5 -55.5t-49.5 -56.5t-19 -61v-68h-408zM276 0v356h379v-356h-379z" />
    <glyph glyph-name="at" unicode="@" horiz-adv-x="1769" 
d="M63 489q0 163 62 305t172.5 246t272.5 164t354 60q159 0 280 -41.5t193.5 -115t108.5 -166.5t36 -204v-336h154v-276h-590q-119 0 -214 32t-152 84.5t-87 116t-30 131.5q0 67 29 128t85 111.5t151.5 81t217.5 30.5h45q0 27 -20.5 46.5t-54.5 29t-68 14t-70 4.5
q-108 0 -197 -39t-145 -103t-86.5 -144t-30.5 -165q0 -86 30.5 -163t88.5 -139.5t153 -99t214 -36.5v-315q-210 0 -382 58.5t-285 160.5t-174 240.5t-61 299.5zM981 502q0 -101 119 -101h51v199h-47q-123 0 -123 -98z" />
    <glyph glyph-name="A" unicode="A" horiz-adv-x="1511" 
d="M20 0v315h111l371 1158h506l370 -1158h113v-315h-666v315h115l-29 136h-313l-29 -136h115v-315h-664zM664 741h180l-47 203q-10 38 -27 139q-8 40 -10 58h-10l-9 -58q-11 -73 -28 -139z" />
    <glyph glyph-name="B" unicode="B" horiz-adv-x="1476" 
d="M98 0v315h156v842h-156v316h697q75 0 109.5 -1t79.5 -6.5t85 -17.5q132 -42 208.5 -136.5t76.5 -226.5q0 -96 -44 -181t-128 -132v-4q67 -20 114 -56t71.5 -82.5t35 -93t10.5 -98.5q0 -168 -102 -277.5t-252 -144.5q-80 -16 -219 -16h-742zM696 926h119q51 0 75.5 28.5
t24.5 73.5q0 47 -26 74.5t-80 27.5h-113v-204zM696 342h158q59 0 89 35t30 92q0 113 -115 113h-162v-240z" />
    <glyph glyph-name="C" unicode="C" horiz-adv-x="1536" 
d="M55 737q0 218 104 392.5t282 271t393 96.5q61 0 133 -7.5t159 -28.5t156 -52t115.5 -85t46.5 -122v-258h-391v113q0 71 -199 71q-159 0 -250.5 -91.5t-91.5 -272.5q0 -206 101 -313t266 -107q34 0 64 3t59.5 10.5t47 22.5t17.5 36v112h393v-262q0 -65 -45 -117.5
t-112.5 -84t-153.5 -52.5t-161.5 -29t-143.5 -8q-223 0 -404 100t-283 274.5t-102 387.5z" />
    <glyph glyph-name="D" unicode="D" horiz-adv-x="1624" 
d="M98 0v315h156v842h-156v316h658q202 0 299 -29q229 -64 368.5 -249.5t139.5 -457.5q0 -244 -116.5 -424.5t-316.5 -259.5q-149 -53 -370 -53h-662zM696 342h54q131 0 213 43q69 47 106 137t37 213q0 140 -49 232.5t-133 132.5q-63 30 -174 30h-54v-788z" />
    <glyph glyph-name="E" unicode="E" horiz-adv-x="1376" 
d="M98 0v315h156v842h-156v316h1168v-478h-369v135h-201v-217h389v-344h-389v-227h222v131h368v-473h-1188z" />
    <glyph glyph-name="F" unicode="F" horiz-adv-x="1275" 
d="M98 0v315h156v842h-156v316h1135v-476h-369v107h-168v-242h398v-342h-398v-205h178v-315h-776z" />
    <glyph glyph-name="G" unicode="G" horiz-adv-x="1576" 
d="M55 750q0 219 102.5 389.5t284.5 264t412 93.5q104 0 209 -19t194 -54t145 -91t56 -123v-266h-393v107q0 77 -182 77q-184 0 -277.5 -86.5t-93.5 -273.5q0 -192 101.5 -308t297.5 -116q72 0 129.5 17t57.5 55v57h-213v315h606v-524q0 -62 -47 -113.5t-118.5 -83
t-160.5 -53.5t-168.5 -30.5t-148.5 -8.5q-168 0 -315 58.5t-252 160.5t-165.5 246t-60.5 310z" />
    <glyph glyph-name="H" unicode="H" horiz-adv-x="1812" 
d="M98 0v315h156v842h-156v316h754v-316h-156v-256h420v256h-155v316h753v-316h-155v-842h155v-315h-753v315h155v242h-420v-242h156v-315h-754z" />
    <glyph glyph-name="I" unicode="I" horiz-adv-x="950" 
d="M98 0v315h156v842h-156v316h754v-316h-156v-842h156v-315h-754z" />
    <glyph glyph-name="J" unicode="J" horiz-adv-x="1214" 
d="M18 442v148h420v-115q0 -25 0.5 -39t4.5 -31.5t11.5 -26.5t22 -15.5t35.5 -6.5q44 0 57 27.5t13 91.5v682h-172v316h749v-316h-135v-688q0 -119 -43.5 -215t-116.5 -155.5t-163 -91.5t-187 -32q-77 0 -148.5 17.5t-135 54.5t-110.5 91t-74.5 132t-27.5 172z" />
    <glyph glyph-name="K" unicode="K" horiz-adv-x="1585" 
d="M98 0v315h156v842h-156v316h670v-316h-72v-242h95l167 242h-90v316h645v-316h-114l-283 -373v-4q23 -10 43 -30q53 -48 84 -117l123 -273q20 -45 84 -45h61v-315h-299q-89 0 -135.5 26t-72.5 83l-193 421q-11 25 -32.5 33t-65.5 8h-17v-256h133v-315h-731z" />
    <glyph glyph-name="L" unicode="L" horiz-adv-x="1331" 
d="M100 0v315h156v815h-156v343h754v-343h-156v-788h228v207h368v-549h-1194z" />
    <glyph glyph-name="M" unicode="M" horiz-adv-x="2054" 
d="M72 0v315h151l72 842h-156v316h674l168 -652q6 -23 12 -48t11 -51.5t8 -37.5q9 -30 12 -57h4q3 27 12 57q16 72 33 137l168 652h674v-316h-156l72 -842h151v-315h-704v315h121l-21 430q-4 68 4 119l7 66h-9q-9 -46 -14 -62l-29 -114l-127 -490h-366l-127 490l-31 116
q-8 28 -12 60h-8l6 -66q4 -81 2 -119l-19 -430h121v-315h-704z" />
    <glyph glyph-name="N" unicode="N" horiz-adv-x="1777" 
d="M98 0v315h156v842h-156v316h607l339 -654q3 -5 48 -112l20 -58h10l-6 66q-8 52 -8 119v323h-166v316h764v-316h-156v-1157h-446l-344 649q-12 23 -47 111l-21 59h-10l8 -65q6 -39 6 -121v-318h166v-315h-764z" />
    <glyph glyph-name="O" unicode="O" horiz-adv-x="1675" 
d="M55 745q0 156 58.5 294.5t160.5 239.5t248.5 159.5t315.5 58.5t315.5 -58.5t248.5 -159.5t160 -239.5t58 -294.5q0 -214 -99 -390t-278.5 -278t-404.5 -102q-169 0 -315.5 60t-248.5 163t-160.5 245t-58.5 302zM512 745q0 -164 95.5 -276.5t230.5 -112.5t230 112.5
t95 276.5q0 158 -95 264.5t-230 106.5t-230.5 -106.5t-95.5 -264.5z" />
    <glyph glyph-name="P" unicode="P" horiz-adv-x="1425" 
d="M98 0v315h156v842h-156v316h756q56 0 86.5 -1t76.5 -8.5t81 -21.5q137 -50 219 -181.5t82 -302.5q0 -168 -81 -303t-216 -184q-89 -31 -236 -31h-170v-125h156v-315h-754zM696 782h105q68 0 112 33q54 41 54 141q0 55 -11.5 87t-40.5 55q-38 32 -108 32h-111v-348z" />
    <glyph glyph-name="Q" unicode="Q" horiz-adv-x="1695" 
d="M55 741q0 158 58 297.5t160.5 240.5t251.5 159.5t323 58.5q222 0 399 -90t279 -256t102 -379q0 -127 -36.5 -231.5t-110.5 -204.5l151 -111l-243 -274l-146 133q-169 -109 -399 -109q-172 0 -320 59.5t-250.5 162t-160.5 243.5t-58 301zM512 741q0 -163 98 -274t238 -111
q49 0 70 6l20 7l-184 157l233 269l178 -172q9 23 11 36q8 31 8 93q0 152 -97.5 258t-238.5 106q-142 0 -239 -106t-97 -269z" />
    <glyph glyph-name="R" unicode="R" horiz-adv-x="1554" 
d="M696 823h109q56 0 92 23q64 40 64 137q0 72 -43 109.5t-146 37.5h-76v-307zM1395 1022q0 -128 -55.5 -232.5t-155.5 -173.5v-4q26 -11 41 -22q45 -31 63 -76l70 -152q21 -47 92 -47h53v-315h-297q-85 0 -132 25.5t-77 83.5l-168 337q-15 32 -34 44t-70 12h-29v-187h133
v-315h-731v315h156v842h-156v316h678q212 0 307 -27q143 -42 227.5 -154t84.5 -270z" />
    <glyph glyph-name="S" unicode="S" horiz-adv-x="1298" 
d="M68 543h393v-92q0 -45 49 -70t125 -25q71 0 112 22.5t41 59.5q0 25 -16 45t-50.5 37.5t-65 29.5t-84 30t-83.5 30q-72 29 -119 52t-102.5 61.5t-87.5 80.5t-54 105.5t-22 141.5q0 102 32.5 181t85.5 128t127.5 81t150.5 44t162 12q101 0 193 -18.5t167 -54.5t119.5 -94.5
t44.5 -131.5v-229h-391v78q0 69 -133 69q-113 0 -113 -65q0 -26 16 -48t49.5 -40t66 -31t83.5 -31q8 -3 12 -4q59 -19 98.5 -34t91.5 -38.5t86.5 -46.5t72 -57t59 -71.5t35.5 -88t14 -108.5q0 -104 -35 -187.5t-93 -137t-137 -89t-161 -50t-172 -14.5q-112 0 -213 25
t-180.5 71t-126.5 119.5t-47 163.5v189z" />
    <glyph glyph-name="T" unicode="T" horiz-adv-x="1456" 
d="M352 0v315h156v815h-96v-196h-369v539h1370v-539h-366v196h-97v-815h156v-315h-754z" />
    <glyph glyph-name="U" unicode="U" horiz-adv-x="1701" 
d="M207 569v588h-154v316h748v-316h-152v-590q0 -71 29 -127q24 -39 70 -61.5t106 -22.5q113 0 168 80q31 47 31 131v590h-152v316h750v-316h-156v-588q0 -113 -35 -218t-96 -177q-87 -99 -223.5 -149t-288.5 -50q-159 0 -291 50t-219 141q-135 141 -135 403z" />
    <glyph glyph-name="V" unicode="V" horiz-adv-x="1521" 
d="M535 0l-400 1157h-115v316h691v-316h-117l131 -500q9 -26 25 -120l6 -62h10l6 62q16 94 25 120l131 500h-117v316h690v-316h-115l-399 -1157h-452z" />
    <glyph glyph-name="W" unicode="W" horiz-adv-x="2158" 
d="M33 1157v316h710v-316h-168l93 -510q4 -22 8.5 -62t7.5 -55q4 -36 4 -57h8l6 57l21 117l188 826h334l191 -826q6 -24 12.5 -68t7.5 -49l6 -57h8l5 57q2 36 14 117l94 510h-170v316h713v-316h-115l-276 -1157h-484l-141 621q-6 30 -20 122l-7 62h-8l-8 -62
q-17 -108 -20 -122l-142 -621h-483l-275 1157h-114z" />
    <glyph glyph-name="X" unicode="X" horiz-adv-x="1515" 
d="M63 0v315h107l356 441l-333 401h-119v316h659v-316h-94l92 -110q20 -23 37 -52l14 -22h4q10 15 15 20q3 5 37 54l88 110h-92v316h618v-316h-106l-353 -430l344 -412h111v-315h-662v315h105l-103 123q-7 12 -19.5 28.5t-16.5 22.5l-15 23h-4l-14 -20q-20 -33 -37 -54
l-92 -123h98v-315h-625z" />
    <glyph glyph-name="Y" unicode="Y" horiz-adv-x="1394" 
d="M319 0v315h156v279l-336 563h-119v316h627v-316h-80l95 -184q5 -9 26 -58l8 -20h4l9 20q22 52 26 58l94 184h-79v316h624v-316h-119l-337 -563v-279h155v-315h-754z" />
    <glyph glyph-name="Z" unicode="Z" horiz-adv-x="1376" 
d="M94 0v268l578 795q14 20 45 51l22 19v4q-18 0 -28 -2q-45 -5 -62 -5h-180v-196h-369v539h1164v-263l-582 -800q-5 -8 -11.5 -16t-11 -12.5t-12 -11.5t-10.5 -10l-23 -20v-4l31 4q18 2 60 2h217v207h368v-549h-1196z" />
    <glyph glyph-name="bracketleft" unicode="[" horiz-adv-x="788" 
d="M154 -195v1745h581v-290h-229v-1164h229v-291h-581z" />
    <glyph glyph-name="backslash" unicode="\" horiz-adv-x="1007" 
d="M590 -86l-524 1628h350l526 -1628h-352z" />
    <glyph glyph-name="bracketright" unicode="]" horiz-adv-x="788" 
d="M53 96h230v1164h-230v290h582v-1745h-582v291z" />
    <glyph glyph-name="asciicircum" unicode="^" horiz-adv-x="1306" 
d="M109 487l417 986h262l420 -986h-352l-199 566l-196 -566h-352z" />
    <glyph glyph-name="underscore" unicode="_" horiz-adv-x="1226" 
d="M-25 0h1276v-315h-1276v315z" />
    <glyph glyph-name="grave" unicode="`" horiz-adv-x="976" 
d="M479 1565l-321 329h411l234 -329h-324z" />
    <glyph glyph-name="a" unicode="a" horiz-adv-x="1216" 
d="M35 295q0 63 22 115t57.5 87.5t84.5 62.5t98 42.5t104 25t96.5 12.5t80.5 3h61v47q0 34 -33.5 51t-81.5 17q-86 0 -194 -49q-17 -7 -94 -52l-144 287q47 33 131 72q153 71 352 71q235 0 363.5 -115t128.5 -329v-295q0 -45 45 -45h66v-303h-351q-72 0 -109.5 41.5
t-37.5 89.5v2q0 3 1 6t1 6v5h-4q-26 -45 -68 -84q-92 -84 -233 -84q-143 0 -242.5 88t-99.5 225zM446 336q0 -35 20.5 -55.5t51.5 -20.5q47 0 87 42t40 110v41h-24q-89 0 -132 -35t-43 -82z" />
    <glyph glyph-name="b" unicode="b" horiz-adv-x="1347" 
d="M131 0v1169h-129v304h557v-394q0 -51 -2 -67q-2 -10 -2 -25h4q52 41 72 51q92 49 190 49q217 0 351.5 -155t134.5 -402q0 -249 -142 -402t-360 -153q-125 0 -211 62q-42 30 -62 59h-4q2 -8 2 -22v-41v-33h-399zM547 522q0 -79 43 -137.5t123 -58.5q70 0 117 51.5
t47 144.5q0 94 -45.5 151.5t-120.5 57.5q-69 0 -116.5 -53.5t-47.5 -155.5z" />
    <glyph glyph-name="c" unicode="c" horiz-adv-x="1173" 
d="M35 528q0 112 42.5 214t118.5 178.5t187.5 121.5t241.5 45q94 0 179 -16t157 -48t114.5 -88t42.5 -130v-189h-358v60q0 59 -117 59q-98 0 -139 -53t-41 -137q0 -116 60 -167.5t159 -51.5q176 0 311 108l140 -297q-174 -162 -480 -162q-120 0 -230.5 37.5t-197 106
t-138.5 175t-52 234.5z" />
    <glyph glyph-name="d" unicode="d" horiz-adv-x="1388" 
d="M41 532q0 253 137 404t365 151q112 0 188 -45q35 -21 55 -47h5q0 10 -3 19q-2 14 -2 45v110h-129v304h557v-1125q0 -45 46 -45h65v-303h-352q-72 0 -110 33.5t-38 72.5q0 27 2 33t2 15h-4q-23 -47 -67 -88q-95 -91 -246 -91q-213 0 -342 153t-129 404zM469 530
q0 -92 45.5 -148t118.5 -56q69 0 117.5 50.5t48.5 147.5q0 90 -42 148.5t-120 58.5q-71 0 -119.5 -53.5t-48.5 -147.5z" />
    <glyph glyph-name="e" unicode="e" horiz-adv-x="1157" 
d="M37 541q0 108 37.5 206.5t106.5 174t176 120.5t237 45q159 0 277.5 -66.5t178.5 -180t60 -256.5q0 -34 -4 -80l-4 -37h-635q41 -141 201 -141q86 0 198 47q45 19 92 45l150 -293q-49 -36 -127 -74q-160 -76 -346 -76q-119 0 -219 32t-169 86.5t-117 127.5t-70.5 154
t-22.5 166zM475 651h197q0 150 -92 150q-30 0 -50.5 -14.5t-31 -40.5t-15 -44t-7.5 -43q-1 -5 -1 -8z" />
    <glyph glyph-name="f" unicode="f" horiz-adv-x="872" 
d="M76 0v303h119v457h-129v303h129v39q0 73 19 133t50 100.5t75.5 71.5t89 49t97 29t94.5 14.5t85 3.5q52 0 102 -4l39 -6v-330l-31 4q-36 4 -74 4q-64 0 -91 -14.5t-27 -44.5v-49h202v-303h-202v-457h139v-303h-686z" />
    <glyph glyph-name="g" unicode="g" horiz-adv-x="1368" 
d="M145 -332l117 307q38 -17 88 -32q113 -33 215 -33q205 0 205 174q0 27 2 41q2 6 2 22h-4q-94 -108 -246 -108q-120 0 -214.5 46.5t-151 123t-86 169t-29.5 191.5t29 189.5t85.5 165t151.5 119t215 44.5q53 0 106 -12.5t107 -47t82 -85.5h4q-2 6 -2 25q0 46 32 71t87 25
h367v-303h-66q-19 0 -32 -10t-13 -27v-602q0 -118 -37 -213t-97.5 -157t-143 -103.5t-170 -59.5t-181.5 -18q-107 0 -224.5 28.5t-197.5 69.5zM629 391q63 0 107 38t44 136q0 53 -13.5 88.5t-39 52t-51.5 23t-60 6.5q-71 0 -108 -42.5t-37 -106.5q0 -81 37 -138t121 -57z
" />
    <glyph glyph-name="h" unicode="h" horiz-adv-x="1445" 
d="M59 0v303h119v866h-129v304h557v-453q0 -52 -2 -68l-4 -24h4q101 159 311 159q55 0 105 -10.5t100 -38.5t86.5 -71t59 -113t22.5 -160v-391h119v-303h-547v610q0 52 -18.5 72t-61.5 20q-48 0 -83 -20.5t-54 -56.5t-28 -77t-9 -89v-156h119v-303h-666z" />
    <glyph glyph-name="i" unicode="i" horiz-adv-x="800" 
d="M203 1161v312h411v-312h-411zM76 0v303h119v457h-129v303h557v-760h118v-303h-665z" />
    <glyph glyph-name="j" unicode="j" horiz-adv-x="739" 
d="M188 1161v312h412v-312h-412zM-39 -422v332q2 -2 12 -2h33q29 0 55.5 4t55.5 14t46 32t17 54v748h-131v303h559v-1073q0 -86 -27 -155t-74 -113t-102 -75t-119 -46.5t-116.5 -22t-103.5 -6.5q-58 0 -76 2z" />
    <glyph glyph-name="k" unicode="k" horiz-adv-x="1368" 
d="M59 0v303h119v866h-129v304h557v-797h127l66 84h-105v303h606v-303h-124l-150 -187v-4q18 -7 31 -20q39 -35 59 -78l70 -135q20 -33 71 -33h46v-303h-308q-55 0 -86.5 14t-54.5 58l-154 295q-9 21 -19.5 26.5t-27.5 5.5h-47v-96h66v-303h-613z" />
    <glyph glyph-name="l" unicode="l" horiz-adv-x="729" 
d="M115 434v735h-129v304h557v-1016q0 -79 17.5 -104t74.5 -25q4 0 12 1t12 1h13v-336l-33 -4q-23 -2 -82 -2q-50 0 -90 3t-88 14t-83.5 30t-71 52.5t-58.5 79.5t-37 114t-14 153z" />
    <glyph glyph-name="m" unicode="m" horiz-adv-x="2013" 
d="M76 0v303h119v414q0 43 -45 43h-84v303h380q75 0 115.5 -33.5t40.5 -95.5q0 -23 -2 -29q-2 -4 -2 -10h4q34 53 84 96q108 96 236 96q186 0 262 -186h4q42 84 131.5 135t202.5 51q66 0 122 -19.5t104.5 -62.5t76.5 -122.5t28 -188.5v-391h121v-303h-547v623q0 39 -13.5 58
t-51.5 19t-63.5 -19.5t-38 -58.5t-17 -82t-4.5 -104v-133h119v-303h-547v623q0 40 -15.5 58.5t-52.5 18.5q-28 0 -49.5 -11t-34 -34t-20.5 -46.5t-11 -62t-4 -65t-1 -69.5v-109h118v-303h-665z" />
    <glyph glyph-name="n" unicode="n" horiz-adv-x="1464" 
d="M623 459v-156h118v-303h-665v303h119v412q0 45 -45 45h-84v303h383q74 0 113.5 -33.5t39.5 -91.5q0 -33 -2 -39t-2 -14h4q24 52 74 102q108 100 270 100q57 0 106 -10.5t97 -38.5t81.5 -71t54 -113t20.5 -160v-391h118v-303h-546v606q0 53 -19.5 74.5t-62.5 21.5
q-89 0 -130.5 -70.5t-41.5 -172.5z" />
    <glyph glyph-name="o" unicode="o" horiz-adv-x="1302" 
d="M35 526q0 165 82.5 294t222 198t309.5 69q172 0 312.5 -69t223.5 -198t83 -294q0 -123 -48.5 -227.5t-132 -174.5t-196 -109.5t-240.5 -39.5q-171 0 -310.5 66.5t-222.5 193.5t-83 291zM467 526q0 -94 53 -146t131 -52t131.5 52t53.5 146q0 96 -54 152.5t-131 56.5
t-130.5 -56.5t-53.5 -152.5z" />
    <glyph glyph-name="p" unicode="p" horiz-adv-x="1396" 
d="M63 -106h119v821q0 45 -45 45h-84v303h369q139 0 139 -100q0 -13 -2 -21h4q29 39 76 74q93 71 242 71q206 0 340.5 -154.5t134.5 -397.5q0 -248 -141.5 -404t-348.5 -156q-108 0 -192 45q-38 21 -66 43h-4q0 -12 2 -20q2 -14 2 -59v-90h121v-304h-666v304zM596 530
q0 -85 42 -144.5t120 -59.5q75 0 121.5 51.5t46.5 146.5q0 92 -45.5 149.5t-118.5 57.5q-69 0 -117.5 -52t-48.5 -149z" />
    <glyph glyph-name="q" unicode="q" horiz-adv-x="1345" 
d="M41 535q0 248 135 400t350 152q138 0 224 -57q41 -24 65 -59h4q0 8 -2 14q-2 8 -2 37v41h399v-1169h119v-304h-665v304h118v100q0 49 2 65q3 15 3 25h-5q-33 -36 -65 -53q-97 -56 -209 -56q-204 0 -337.5 156.5t-133.5 403.5zM469 530q0 -92 46 -148t120 -56
q70 0 117 51.5t47 146.5q0 87 -42 146t-120 59q-75 0 -121.5 -52t-46.5 -147z" />
    <glyph glyph-name="r" unicode="r" horiz-adv-x="1015" 
d="M66 0v303h137v412q0 45 -45 45h-84v303h381q77 0 117 -33t40 -108v-52q0 -26 -2 -32t-2 -13h4q33 107 129 182.5t209 75.5h25q8 0 12 -2v-419l-20 4q-14 2 -58 2q-142 0 -210 -63.5t-68 -203.5v-98h137v-303h-702z" />
    <glyph glyph-name="s" unicode="s" horiz-adv-x="1069" 
d="M43 236v155h354v-47q0 -51 107 -51q56 0 77 12t21 35q0 13 -5.5 22t-22.5 17t-33 13t-54 16.5t-67 21.5q-59 19 -100.5 36.5t-90.5 46.5t-79.5 62t-51 82.5t-20.5 108.5q0 73 31 130.5t79.5 92.5t113.5 58t127 31.5t126 8.5q74 0 146 -12.5t139 -39t108 -75t41 -112.5
v-152h-354v37q0 37 -64 37q-69 0 -69 -43q0 -18 12 -31.5t39.5 -24.5t43.5 -15.5t53 -13.5l12 -3q57 -14 102 -28.5t96.5 -41t85.5 -59t57 -82t23 -109.5q0 -86 -44 -153.5t-116.5 -108t-159.5 -61.5t-180 -21q-81 0 -163.5 16t-155 46.5t-118.5 82.5t-46 116z" />
    <glyph glyph-name="t" unicode="t" horiz-adv-x="878" 
d="M166 393v367h-129v303h143v285h414v-285h209v-303h-209v-320q0 -31 17.5 -52.5t46.5 -31.5t55.5 -14t54.5 -4h47v-342l-31 -4q-18 -2 -77 -2q-45 0 -89 3.5t-99.5 14.5t-103 29t-94.5 49t-80.5 72t-54 101.5t-20.5 133.5z" />
    <glyph glyph-name="u" unicode="u" horiz-adv-x="1445" 
d="M840 606v154h-129v303h557v-713q0 -45 45 -45h78v-305h-377q-154 0 -154 131q0 25 2 35q2 6 2 16h-4q-20 -55 -67 -102q-105 -105 -271 -105q-70 0 -129.5 19.5t-112 62.5t-82.5 122.5t-30 189.5v391h-129v303h557v-619q0 -53 18 -74.5t60 -21.5q80 0 123 74.5t43 183.5z
" />
    <glyph glyph-name="v" unicode="v" horiz-adv-x="1314" 
d="M16 760v303h590v-303h-59l74 -277q13 -49 24 -108q4 -17 8 -51h9q4 34 8 51q11 59 24 108l74 277h-59v303h589v-303h-112l-275 -760h-508l-274 760h-113z" />
    <glyph glyph-name="w" unicode="w" horiz-adv-x="1812" 
d="M27 760v303h606v-303h-94l36 -256q3 -17 6.5 -54t6.5 -53l6 -53h8l6 53q3 17 9 55t8 52l112 559h336l113 -559q4 -19 9 -56.5t7 -50.5l6 -53h11l6 53q3 16 5 53t5 54l37 256h-94v303h608v-303h-117l-170 -760h-498l-71 412q-14 91 -15 106l-4 51h-10l-4 -51
q-4 -55 -14 -106l-72 -412h-498l-170 760h-116z" />
    <glyph glyph-name="x" unicode="x" horiz-adv-x="1202" 
d="M66 0v303h127l184 229l-178 228h-138v303h410l96 -174q8 -13 20 -37t15 -29q4 -6 14 -32h5l16 32q4 7 14.5 30t18.5 36l100 174h367v-303h-111l-174 -217l197 -240h84v-303h-355l-119 188q-17 28 -34 66q-5 9 -15 33h-4q-12 -29 -14 -33q-3 -5 -15 -29t-20 -37l-108 -188
h-383z" />
    <glyph glyph-name="y" unicode="y" horiz-adv-x="1314" 
d="M4 -340l127 299q25 -17 47 -25q53 -24 139 -24q54 0 100.5 17t57.5 46l-346 787h-113v303h613v-303h-70l82 -287q6 -16 10 -33.5t8 -41.5t5 -31q4 -36 4 -52h8l10 52q14 75 27 106l75 287h-61v303h571v-303h-100l-305 -819q-141 -371 -551 -371q-131 0 -246 45
q-49 20 -92 45z" />
    <glyph glyph-name="z" unicode="z" horiz-adv-x="1150" 
d="M76 258l454 442q30 31 48 43l20 17v4q-21 0 -33 -2q-23 -2 -65 -2h-74v-109h-354v412h981v-260l-443 -441q-46 -41 -49 -43l-20 -16v-4q22 0 34 2q23 2 66 2h96v109h355v-412h-1016v258z" />
    <glyph glyph-name="braceleft" unicode="{" horiz-adv-x="823" 
d="M215 113v202q0 118 -86 164q-37 21 -88 21v368q51 0 88 21q86 46 86 170v184q0 67 21 121t58 87.5t80 56.5t96 34.5t96.5 16t90.5 4.5q58 0 76 -2q10 -2 31 -2v-302q-10 0 -19 3q-6 2 -43 2q-54 0 -95.5 -15t-41.5 -45v-254q0 -131 -86 -209q-41 -38 -88 -51v-4
q54 -15 88 -47q86 -78 86 -211v-270q0 -32 41 -47t96 -15q37 0 43 2t19 2v-301q-21 0 -31 -2q-18 -2 -76 -2q-46 0 -90 5t-97 16.5t-96 35t-80 57.5t-58 87t-21 119z" />
    <glyph glyph-name="bar" unicode="|" horiz-adv-x="649" 
d="M150 -344v1997h350v-1997h-350z" />
    <glyph glyph-name="braceright" unicode="}" horiz-adv-x="823" 
d="M59 -203v301q13 0 19 -2q10 -2 43 -2q55 0 96 15t41 47v270q0 131 88 211q34 31 86 47v4q-46 14 -86 51q-88 80 -88 209v254q0 30 -41.5 45t-95.5 15q-33 0 -43 -2q-9 -3 -19 -3v302q21 0 31 2q18 2 76 2q47 0 90.5 -4.5t96.5 -16t96 -34.5t80 -56.5t58 -87.5t21 -121
v-184q0 -123 88 -170q37 -21 86 -21v-368q-48 0 -86 -21q-88 -47 -88 -164v-202q0 -66 -21 -119t-58 -87t-80 -57.5t-96 -35t-97 -16.5t-90 -5q-58 0 -76 2q-10 2 -31 2z" />
    <glyph glyph-name="asciitilde" unicode="~" horiz-adv-x="1308" 
d="M410 379h-328q0 219 95 333.5t274 114.5q64 0 114.5 -15t81.5 -36.5t56 -43.5t51.5 -37t54.5 -15q39 0 68.5 31.5t29.5 107.5h324q0 -219 -94.5 -333.5t-272.5 -114.5q-76 0 -135.5 23t-90 50.5t-65.5 50.5t-67 23q-39 0 -67.5 -30t-28.5 -109z" />
    <glyph glyph-name="uni00A0" unicode="&#xa0;" horiz-adv-x="446" 
 />
    <glyph glyph-name="exclamdown" unicode="&#xa1;" horiz-adv-x="649" 
d="M135 705v356h379v-356h-379zM102 -410l41 992h363l41 -992h-445z" />
    <glyph glyph-name="cent" unicode="&#xa2;" horiz-adv-x="1234" 
d="M500 -25v181q-86 25 -164.5 78t-140 126.5t-98 172t-36.5 204.5q0 105 36.5 203t98 172t140 128t164.5 79v176h264v-176q143 -38 251 -135t148 -234l-379 -147q-12 50 -50.5 90.5t-96.5 40.5q-63 0 -105.5 -52.5t-42.5 -148.5q0 -97 41 -144.5t103 -47.5q58 0 97 38
t54 93l379 -148q-16 -52 -49.5 -108.5t-82.5 -111.5t-119.5 -95.5t-147.5 -52.5v-181h-264z" />
    <glyph glyph-name="sterling" unicode="&#xa3;" horiz-adv-x="1325" 
d="M78 0v330h158v264h-154v268h154v170q0 207 148 336t378 129q159 0 311 -86q71 -40 117 -88l-221 -285q-28 25 -58 43q-62 41 -137 41q-36 0 -66 -27t-30 -73v-160h293v-268h-293v-252h215v166h369v-508h-1184z" />
    <glyph glyph-name="yen" unicode="&#xa5;" horiz-adv-x="1396" 
d="M141 311v228h334v49l-45 102h-289v228h178l-253 555h477l65 -220q40 -131 62 -219q8 -29 26 -102h4q12 50 27 102q28 108 61 219l66 220h477l-258 -555h182v-228h-290l-47 -102v-49h337v-228h-337v-311h-443v311h-334z" />
    <glyph glyph-name="section" unicode="&#xa7;" horiz-adv-x="1191" 
d="M66 55l165 283q44 -41 93 -66q112 -65 225 -65q90 0 142 40t52 142q0 71 -33 173t-141 376h318q121 -340 150.5 -442t29.5 -187q0 -194 -130.5 -315t-383.5 -121q-206 0 -363 90q-75 43 -124 92zM1126 1315l-165 -283q-47 43 -91 66q-112 65 -227 65q-90 0 -142 -40
t-52 -142q0 -68 32.5 -168.5t141.5 -380.5h-318q-139 405 -157 472q-23 84 -23 157q0 194 130.5 315t383.5 121q205 0 362 -90q78 -45 125 -92z" />
    <glyph glyph-name="dieresis" unicode="&#xa8;" horiz-adv-x="978" 
d="M602 1569v325h301v-325h-301zM78 1569v325h299v-325h-299z" />
    <glyph glyph-name="copyright" unicode="&#xa9;" horiz-adv-x="1611" 
d="M68 733q0 154 58.5 294t157.5 240.5t234.5 160t284.5 59.5q153 0 290.5 -59.5t236.5 -160.5t157.5 -240.5t58.5 -293.5t-58.5 -294.5t-157.5 -242t-237 -161.5t-290 -60q-148 0 -284 60t-235 161.5t-157.5 242t-58.5 294.5zM299 733q0 -150 66 -275.5t182 -198.5t256 -73
q107 0 202.5 43t164 116.5t108 174.5t39.5 213q0 150 -67.5 274.5t-185.5 196.5t-261 72q-140 0 -256 -72t-182 -197t-66 -274zM455 727q0 161 104.5 272t247.5 111q169 0 266 -117q45 -54 66 -119l-205 -79q-10 30 -25 51q-35 49 -94 49q-49 0 -85 -47.5t-36 -120.5
q0 -82 32.5 -125t88.5 -43q57 0 94 51q16 23 25 49l205 -79q-20 -62 -66 -117q-99 -119 -266 -119q-143 0 -247.5 111t-104.5 272z" />
    <glyph glyph-name="ordfeminine" unicode="&#xaa;" horiz-adv-x="854" 
d="M293 784q-83 0 -142 57.5t-59 149.5q0 49 18.5 87t51 61t67 38t78 22t73 9t60.5 2h21v29q0 47 -76 47q-55 0 -113 -26l-53 -27l-86 178q49 30 78 41q91 41 213 41q160 0 240.5 -76t80.5 -209v-407h-260v92h-4q-16 -32 -43 -53q-64 -56 -145 -56zM389 965q27 0 47.5 21.5
t20.5 51.5v35h-19q-106 0 -106 -59q0 -49 57 -49zM100 551v180h654v-180h-654z" />
    <glyph glyph-name="guillemotleft" unicode="&#xab;" horiz-adv-x="1421" 
d="M633 578l336 421h383l-336 -421l336 -420h-383zM381 158l-336 420l336 421h381l-336 -421l336 -420h-381z" />
    <glyph glyph-name="logicalnot" unicode="&#xac;" horiz-adv-x="1263" 
d="M51 686v318h1065v-752h-330v434h-735z" />
    <glyph glyph-name="uni00AD" unicode="&#xad;" horiz-adv-x="915" 
d="M125 406v368h666v-368h-666z" />
    <glyph glyph-name="registered" unicode="&#xae;" horiz-adv-x="1611" 
d="M68 733q0 154 58.5 294t157.5 240.5t234.5 160t284.5 59.5q153 0 290.5 -59.5t236.5 -160.5t157.5 -240.5t58.5 -293.5t-58.5 -294.5t-157.5 -242t-237 -161.5t-290 -60q-148 0 -284 60t-235 161.5t-157.5 242t-58.5 294.5zM299 733q0 -150 66 -275.5t182 -198.5t256 -73
q107 0 202.5 43t164 116.5t108 174.5t39.5 213q0 150 -67.5 274.5t-185.5 196.5t-261 72q-140 0 -256 -72t-182 -197t-66 -274zM537 383v711h333q117 0 183.5 -63.5t66.5 -172.5q0 -41 -13 -75.5t-33.5 -55.5t-38.5 -33.5t-34 -17.5v-4l7 -8q10 -10 20 -33l129 -248h-242
l-100 242h-57v-242h-221zM758 772h55q82 0 82 86q0 84 -78 84h-59v-170z" />
    <glyph glyph-name="macron" unicode="&#xaf;" horiz-adv-x="978" 
d="M199 1599v271h583v-271h-583z" />
    <glyph glyph-name="degree" unicode="&#xb0;" horiz-adv-x="882" 
d="M442 754q-168 0 -283.5 108t-115.5 266q0 155 116.5 266t282.5 111q164 0 281 -111.5t117 -265.5q0 -157 -116.5 -265.5t-281.5 -108.5zM442 1042q37 0 66 26t29 62q0 35 -29 61t-66 26q-38 0 -66 -26t-28 -61q0 -37 28 -62.5t66 -25.5z" />
    <glyph glyph-name="plusminus" unicode="&#xb1;" horiz-adv-x="1306" 
d="M86 432v316h401v434h332v-434h402v-316h-402v-432h-332v432h-401zM100 -119h1106v-311h-1106v311z" />
    <glyph glyph-name="twosuperior" unicode="&#xb2;" horiz-adv-x="845" 
d="M49 981q0 72 22.5 133t58.5 102t79.5 75t87 57.5t79.5 44t58.5 41t22.5 41.5q0 38 -62 38q-49 0 -96 -43q-29 -29 -41 -45l-203 170q36 56 90 101q126 98 285 98q140 0 238 -74t98 -209q0 -75 -39.5 -135t-97 -96.5t-115 -65.5t-100.5 -56.5t-47 -55.5h178v80h233v-316
h-715l-6 43q-8 33 -8 72z" />
    <glyph glyph-name="threesuperior" unicode="&#xb3;" horiz-adv-x="823" 
d="M66 1458v316h667v-193l-166 -188q201 -51 201 -219q0 -61 -23 -118t-66.5 -105t-117 -76.5t-164.5 -28.5q-139 0 -256 72q-49 28 -84 69l144 207q29 -29 47 -41q55 -41 127 -41q84 0 84 53q0 24 -27 32.5t-76 8.5h-63l-35 135l135 158q5 7 33 35q6 6 18 14v8l-24 -4
q-28 -4 -49 -4h-74v-90h-231z" />
    <glyph glyph-name="acute" unicode="&#xb4;" horiz-adv-x="976" 
d="M176 1565l232 329h411l-321 -329h-322z" />
    <glyph glyph-name="mu" unicode="&#xb5;" horiz-adv-x="1331" 
d="M117 -410v1473h426v-619q0 -27 6.5 -44.5t19 -25t23.5 -10t26 -2.5q88 0 129 66t41 176v459h426v-1063h-409v84q0 19 2 29q2 6 2 18h-6q-26 -43 -68 -78q-94 -78 -235 -78h-43q8 -48 10 -69q8 -55 8 -137v-179h-358z" />
    <glyph glyph-name="mu" unicode="&#x3bc;" horiz-adv-x="1331" 
d="M117 -410v1473h426v-619q0 -27 6.5 -44.5t19 -25t23.5 -10t26 -2.5q88 0 129 66t41 176v459h426v-1063h-409v84q0 19 2 29q2 6 2 18h-6q-26 -43 -68 -78q-94 -78 -235 -78h-43q8 -48 10 -69q8 -55 8 -137v-179h-358z" />
    <glyph glyph-name="paragraph" unicode="&#xb6;" horiz-adv-x="1425" 
d="M518 -102v596q-198 0 -335.5 142t-137.5 349q0 213 141.5 350.5t372.5 137.5h772v-369h-524v-1206h-289zM934 -102v1112h291v-1112h-291z" />
    <glyph glyph-name="periodcentered" unicode="&#xb7;" horiz-adv-x="624" 
d="M123 414v391h379v-391h-379z" />
    <glyph glyph-name="cedilla" unicode="&#xb8;" horiz-adv-x="976" 
d="M289 -219l100 282l168 -40v-15l-43 -104q91 -5 151 -53t60 -134q0 -72 -48.5 -122t-116 -70.5t-146.5 -20.5q-50 0 -107 11q-31 8 -49 10v174q19 -8 31 -10q24 -8 73 -8q36 0 66.5 10.5t30.5 36.5q0 53 -113 53h-57z" />
    <glyph glyph-name="onesuperior" unicode="&#xb9;" horiz-adv-x="815" 
d="M76 866v236h200v223q0 20 5 45l4 16h-11l-6 -12q-2 -4 -20 -22l-47 -37l-172 190l293 269h260v-672h204v-236h-710z" />
    <glyph glyph-name="ordmasculine" unicode="&#xba;" horiz-adv-x="933" 
d="M465 791q-160 0 -271.5 96.5t-111.5 253.5t111 254.5t270 97.5q165 0 277 -97t112 -255q0 -157 -111.5 -253.5t-275.5 -96.5zM465 1038q41 0 68.5 26t27.5 77q0 48 -28 77t-68 29q-38 0 -66 -29t-28 -77q0 -51 27 -77t67 -26zM106 551v180h717v-180h-717z" />
    <glyph glyph-name="guillemotright" unicode="&#xbb;" horiz-adv-x="1421" 
d="M657 158l336 420l-336 421h383l336 -421l-336 -420h-383zM70 158l336 420l-336 421h383l335 -421l-335 -420h-383z" />
    <glyph glyph-name="onequarter" unicode="&#xbc;" horiz-adv-x="2168" 
d="M1696 0v172h-393v193l321 542h375v-516h100v-219h-100v-172h-303zM1548 391h148v193q0 41 6 71l6 37h-10l-10 -35q-9 -34 -29 -67l-111 -195v-4zM608 0l688 1473h285l-688 -1473h-285zM113 565v236h200v223q0 25 4 45l5 16h-11l-6 -12q-2 -4 -20 -22l-47 -37l-172 190
l292 269h260v-672h205v-236h-710z" />
    <glyph glyph-name="onehalf" unicode="&#xbd;" horiz-adv-x="2154" 
d="M1348 115q0 72 22.5 133t58.5 102t79.5 74.5t86.5 57.5t79 44t58.5 40.5t22.5 41.5q0 39 -61 39q-50 0 -97 -43q-29 -29 -41 -45l-202 170q35 54 90 100q127 99 285 99q140 0 237.5 -74t97.5 -209q0 -75 -39.5 -135t-97 -96.5t-115 -65.5t-100.5 -56.5t-47 -55.5h178v79
h234v-315h-715l-6 43q-8 33 -8 72zM610 0l688 1473h285l-688 -1473h-285zM102 565v236h201v223q0 25 4 45l4 16h-10l-6 -12q-1 -2 -21 -22l-47 -37l-172 190l293 269h260v-672h205v-236h-711z" />
    <glyph glyph-name="threequarters" unicode="&#xbe;" horiz-adv-x="2142" 
d="M1681 0v172h-393v193l322 542h375v-516h100v-219h-100v-172h-304zM1534 391h147v193q0 36 7 71l6 37h-11l-10 -35q-10 -37 -28 -67l-111 -195v-4zM82 1157v316h668v-193l-166 -188q200 -51 200 -220q0 -61 -22.5 -118t-66.5 -104.5t-116.5 -76t-164.5 -28.5
q-140 0 -256 71q-47 27 -84 70l143 207q29 -29 47 -41q55 -41 127 -41q84 0 84 53q0 24 -26.5 32.5t-75.5 8.5h-64l-35 135l136 158q8 10 32 35q4 4 19 14v8l-25 -4q-28 -4 -49 -4h-74v-90h-231zM594 0l688 1473h285l-688 -1473h-285z" />
    <glyph glyph-name="questiondown" unicode="&#xbf;" horiz-adv-x="1091" 
d="M436 707v356h379v-356h-379zM76 -10q0 66 19 123.5t49.5 98.5t67.5 77.5t74 65.5t67.5 56t49.5 57t19 60v58h407v-94q0 -73 -32 -133.5t-77.5 -100.5t-90.5 -74t-77 -70.5t-32 -74.5t26 -61t72 -23q59 0 127 45q37 26 56 45l237 -287q-58 -58 -118 -94q-160 -94 -336 -94
q-73 0 -144 15.5t-137.5 49.5t-116.5 82t-80 118.5t-30 154.5z" />
    <glyph glyph-name="Agrave" unicode="&#xc0;" horiz-adv-x="1507" 
d="M18 0v315h111l371 1158h506l370 -1158h113v-315h-666v315h115l-29 136h-313l-29 -136h115v-315h-664zM662 741h180l-47 203q-10 38 -27 139q-8 40 -10 58h-10l-9 -58q-11 -73 -28 -139zM621 1565l-322 329h412l233 -329h-323z" />
    <glyph glyph-name="Aacute" unicode="&#xc1;" horiz-adv-x="1511" 
d="M20 0v315h111l371 1158h506l370 -1158h113v-315h-666v315h115l-29 136h-313l-29 -136h115v-315h-664zM664 741h180l-47 203q-10 38 -27 139q-8 40 -10 58h-10l-9 -58q-11 -73 -28 -139zM557 1565l231 329h412l-321 -329h-322z" />
    <glyph glyph-name="Acircumflex" unicode="&#xc2;" horiz-adv-x="1511" 
d="M20 0v315h111l371 1158h506l370 -1158h113v-315h-666v315h115l-29 136h-313l-29 -136h115v-315h-664zM664 741h180l-47 203q-10 38 -27 139q-8 40 -10 58h-10l-9 -58q-11 -73 -28 -139zM334 1565l213 329h405l213 -329h-321l-92 170h-4l-93 -170h-321z" />
    <glyph glyph-name="Atilde" unicode="&#xc3;" horiz-adv-x="1511" 
d="M20 0v315h111l371 1158h506l370 -1158h113v-315h-666v315h115l-29 136h-313l-29 -136h115v-315h-664zM664 741h180l-47 203q-10 38 -27 139q-8 40 -10 58h-10l-9 -58q-11 -73 -28 -139zM575 1563h-268q0 166 70.5 252t200.5 86q58 0 102.5 -18t66.5 -39.5t50.5 -39.5
t56.5 -18q72 0 72 108h266q0 -166 -69.5 -252t-198.5 -86q-59 0 -104.5 18.5t-67.5 40t-49.5 40t-55.5 18.5q-34 0 -53 -24t-19 -86z" />
    <glyph glyph-name="Adieresis" unicode="&#xc4;" horiz-adv-x="1511" 
d="M20 0v315h111l371 1158h506l370 -1158h113v-315h-666v315h115l-29 136h-313l-29 -136h115v-315h-664zM664 741h180l-47 203q-10 38 -27 139q-8 40 -10 58h-10l-9 -58q-11 -73 -28 -139zM862 1569v325h301v-325h-301zM338 1569v325h299v-325h-299z" />
    <glyph glyph-name="Aring" unicode="&#xc5;" horiz-adv-x="1511" 
d="M20 0v315h111l371 1158h506l370 -1158h113v-315h-666v315h115l-29 136h-313l-29 -136h115v-315h-664zM664 741h180l-47 203q-10 38 -27 139q-8 40 -10 58h-10l-9 -58q-11 -73 -28 -139zM750 1538q-66 0 -123.5 19.5t-98.5 65.5t-41 112q0 67 41 114t98.5 66.5t123.5 19.5
q67 0 125.5 -19.5t100.5 -66.5t42 -114q0 -66 -42 -112t-100.5 -65.5t-125.5 -19.5zM750 1657q35 0 57 21.5t22 56.5q0 37 -21.5 58.5t-57.5 21.5q-33 0 -53.5 -22t-20.5 -58t19.5 -57t54.5 -21z" />
    <glyph glyph-name="AE" unicode="&#xc6;" horiz-adv-x="2091" 
d="M18 0v315h103l354 842h-137v316h1640v-478h-342v135h-211v-217h375v-344h-375v-227h232v135h342v-477h-1178v315h162v263h-330l-96 -263h131v-315h-670zM778 897h205v233h-117z" />
    <glyph glyph-name="Ccedilla" unicode="&#xc7;" horiz-adv-x="1536" 
d="M635 -219l72 205q-190 29 -338 133.5t-231 265.5t-83 352q0 218 104 392.5t282 271t393 96.5q61 0 133 -7.5t159 -28.5t156 -52t115.5 -85t46.5 -122v-258h-391v113q0 71 -199 71q-159 0 -250.5 -91.5t-91.5 -272.5q0 -206 101 -313t266 -107q25 0 51 2.5t60 8.5t55.5 22
t21.5 39v112h393v-262q0 -62 -39.5 -112t-99.5 -81t-139.5 -53t-150 -32t-140.5 -13l-29 -71q88 -5 148.5 -53t60.5 -134q0 -72 -48.5 -122t-116 -70.5t-146.5 -20.5q-50 0 -107 11q-31 8 -49 10v174q19 -8 31 -10q24 -8 74 -8q36 0 66 10.5t30 36.5q0 53 -113 53h-57z" />
    <glyph glyph-name="Egrave" unicode="&#xc8;" horiz-adv-x="1376" 
d="M98 0v315h156v842h-156v316h1168v-478h-369v135h-201v-217h389v-344h-389v-227h222v131h368v-473h-1188zM590 1565l-322 329h412l233 -329h-323z" />
    <glyph glyph-name="Eacute" unicode="&#xc9;" horiz-adv-x="1376" 
d="M524 1565l232 329h411l-321 -329h-322zM98 0v315h156v842h-156v316h1168v-478h-369v135h-201v-217h389v-344h-389v-227h222v131h368v-473h-1188z" />
    <glyph glyph-name="Ecircumflex" unicode="&#xca;" horiz-adv-x="1376" 
d="M301 1565l213 329h406l213 -329h-322l-92 170h-4l-92 -170h-322zM98 0v315h156v842h-156v316h1168v-478h-369v135h-201v-217h389v-344h-389v-227h222v131h368v-473h-1188z" />
    <glyph glyph-name="Edieresis" unicode="&#xcb;" horiz-adv-x="1376" 
d="M831 1569v325h302v-325h-302zM307 1569v325h299v-325h-299zM98 0v315h156v842h-156v316h1168v-478h-369v135h-201v-217h389v-344h-389v-227h222v131h368v-473h-1188z" />
    <glyph glyph-name="Igrave" unicode="&#xcc;" horiz-adv-x="950" 
d="M98 0v315h156v842h-156v316h754v-316h-156v-842h156v-315h-754zM348 1565l-321 329h411l234 -329h-324z" />
    <glyph glyph-name="Iacute" unicode="&#xcd;" horiz-adv-x="950" 
d="M98 0v315h156v842h-156v316h754v-316h-156v-842h156v-315h-754zM283 1565l231 329h412l-322 -329h-321z" />
    <glyph glyph-name="Icircumflex" unicode="&#xce;" horiz-adv-x="950" 
d="M98 0v315h156v842h-156v316h754v-316h-156v-842h156v-315h-754zM61 1565l213 329h406l213 -329h-322l-92 170h-4l-92 -170h-322z" />
    <glyph glyph-name="Idieresis" unicode="&#xcf;" horiz-adv-x="950" 
d="M98 0v315h156v842h-156v316h754v-316h-156v-842h156v-315h-754zM590 1569v325h301v-325h-301zM66 1569v325h299v-325h-299z" />
    <glyph glyph-name="Eth" unicode="&#xd0;" horiz-adv-x="1634" 
d="M98 0v315h156v240h-137v342h137v260h-156v316h701q359 0 565.5 -194t206.5 -540q0 -343 -207.5 -541t-564.5 -198h-701zM696 342h88q157 0 243.5 101.5t86.5 295.5q0 192 -88.5 291.5t-241.5 99.5h-88v-233h195v-342h-195v-213z" />
    <glyph glyph-name="Ntilde" unicode="&#xd1;" horiz-adv-x="1777" 
d="M98 0v315h156v842h-156v316h607l339 -654q3 -5 48 -112l20 -58h10l-6 66q-8 52 -8 119v323h-166v316h764v-316h-156v-1157h-446l-344 649q-12 23 -47 111l-21 59h-10l8 -65q6 -39 6 -121v-318h166v-315h-764zM721 1563h-268q0 166 70 252t200 86q58 0 102.5 -18
t66.5 -39.5t50.5 -39.5t56.5 -18q72 0 72 108h266q0 -166 -69.5 -252t-198.5 -86q-59 0 -104 18.5t-67 40t-49.5 40t-55.5 18.5q-34 0 -53 -24t-19 -86z" />
    <glyph glyph-name="Ograve" unicode="&#xd2;" horiz-adv-x="1675" 
d="M55 745q0 156 58.5 294.5t160.5 239.5t248.5 159.5t315.5 58.5t315.5 -58.5t248.5 -159.5t160 -239.5t58 -294.5q0 -214 -99 -390t-278.5 -278t-404.5 -102q-169 0 -315.5 60t-248.5 163t-160.5 245t-58.5 302zM512 745q0 -164 95.5 -276.5t230.5 -112.5t230 112.5
t95 276.5q0 158 -95 264.5t-230 106.5t-230.5 -106.5t-95.5 -264.5zM711 1565l-322 329h412l233 -329h-323z" />
    <glyph glyph-name="Oacute" unicode="&#xd3;" horiz-adv-x="1675" 
d="M645 1565l232 329h411l-321 -329h-322zM55 745q0 156 58.5 294.5t160.5 239.5t248.5 159.5t315.5 58.5t315.5 -58.5t248.5 -159.5t160 -239.5t58 -294.5q0 -214 -99 -390t-278.5 -278t-404.5 -102q-169 0 -315.5 60t-248.5 163t-160.5 245t-58.5 302zM512 745
q0 -164 95.5 -276.5t230.5 -112.5t230 112.5t95 276.5q0 158 -95 264.5t-230 106.5t-230.5 -106.5t-95.5 -264.5z" />
    <glyph glyph-name="Ocircumflex" unicode="&#xd4;" horiz-adv-x="1675" 
d="M422 1565l213 329h405l213 -329h-321l-92 170h-4l-93 -170h-321zM55 745q0 156 58.5 294.5t160.5 239.5t248.5 159.5t315.5 58.5t315.5 -58.5t248.5 -159.5t160 -239.5t58 -294.5q0 -214 -99 -390t-278.5 -278t-404.5 -102q-169 0 -315.5 60t-248.5 163t-160.5 245
t-58.5 302zM512 745q0 -164 95.5 -276.5t230.5 -112.5t230 112.5t95 276.5q0 158 -95 264.5t-230 106.5t-230.5 -106.5t-95.5 -264.5z" />
    <glyph glyph-name="Otilde" unicode="&#xd5;" horiz-adv-x="1675" 
d="M55 745q0 156 58.5 294.5t160.5 239.5t248.5 159.5t315.5 58.5t315.5 -58.5t248.5 -159.5t160 -239.5t58 -294.5q0 -214 -99 -390t-278.5 -278t-404.5 -102q-169 0 -315.5 60t-248.5 163t-160.5 245t-58.5 302zM512 745q0 -164 95.5 -276.5t230.5 -112.5t230 112.5
t95 276.5q0 158 -95 264.5t-230 106.5t-230.5 -106.5t-95.5 -264.5zM664 1563h-269q0 166 70.5 252t200.5 86q58 0 102.5 -18t66.5 -39.5t50.5 -39.5t56.5 -18q72 0 72 108h266q0 -166 -69.5 -252t-198.5 -86q-59 0 -104.5 18.5t-67.5 40t-49.5 40t-55.5 18.5
q-34 0 -52.5 -24t-18.5 -86z" />
    <glyph glyph-name="Odieresis" unicode="&#xd6;" horiz-adv-x="1675" 
d="M950 1569v325h301v-325h-301zM426 1569v325h299v-325h-299zM55 745q0 156 58.5 294.5t160.5 239.5t248.5 159.5t315.5 58.5t315.5 -58.5t248.5 -159.5t160 -239.5t58 -294.5q0 -214 -99 -390t-278.5 -278t-404.5 -102q-169 0 -315.5 60t-248.5 163t-160.5 245t-58.5 302z
M512 745q0 -164 95.5 -276.5t230.5 -112.5t230 112.5t95 276.5q0 158 -95 264.5t-230 106.5t-230.5 -106.5t-95.5 -264.5z" />
    <glyph glyph-name="multiply" unicode="&#xd7;" horiz-adv-x="1306" 
d="M84 223l350 367l-350 368l225 224l342 -359l344 359l226 -224l-353 -368l353 -367l-226 -223l-344 358l-342 -358z" />
    <glyph glyph-name="Oslash" unicode="&#xd8;" horiz-adv-x="1675" 
d="M1427 1423l-73 -102q127 -106 196.5 -254t69.5 -322q0 -214 -99 -390t-278.5 -278t-404.5 -102q-207 0 -392 95l-94 -129l-141 100l94 129q-119 105 -184.5 254t-65.5 321q0 156 58.5 294.5t160.5 239.5t248.5 159.5t315.5 58.5q198 0 368 -82l78 107zM1163 745
q0 124 -65 224l-412 -570q75 -43 152 -43q135 0 230 112.5t95 276.5zM512 745q0 -122 53 -217l404 557q-71 31 -131 31q-135 0 -230.5 -106.5t-95.5 -264.5z" />
    <glyph glyph-name="Ugrave" unicode="&#xd9;" horiz-adv-x="1701" 
d="M207 569v588h-154v316h748v-316h-152v-590q0 -71 29 -127q24 -39 70 -61.5t106 -22.5q113 0 168 80q31 47 31 131v590h-152v316h750v-316h-156v-588q0 -113 -35 -218t-96 -177q-87 -99 -223.5 -149t-288.5 -50q-159 0 -291 50t-219 141q-135 141 -135 403zM723 1565
l-322 329h412l234 -329h-324z" />
    <glyph glyph-name="Uacute" unicode="&#xda;" horiz-adv-x="1701" 
d="M659 1565l232 329h412l-322 -329h-322zM207 569v588h-154v316h748v-316h-152v-590q0 -71 29 -127q24 -39 70 -61.5t106 -22.5q113 0 168 80q31 47 31 131v590h-152v316h750v-316h-156v-588q0 -113 -35 -218t-96 -177q-87 -99 -223.5 -149t-288.5 -50q-159 0 -291 50
t-219 141q-135 141 -135 403z" />
    <glyph glyph-name="Ucircumflex" unicode="&#xdb;" horiz-adv-x="1701" 
d="M436 1565l213 329h406l213 -329h-322l-92 170h-4l-92 -170h-322zM207 569v588h-154v316h748v-316h-152v-590q0 -71 29 -127q24 -39 70 -61.5t106 -22.5q113 0 168 80q31 47 31 131v590h-152v316h750v-316h-156v-588q0 -113 -35 -218t-96 -177q-87 -99 -223.5 -149
t-288.5 -50q-159 0 -291 50t-219 141q-135 141 -135 403z" />
    <glyph glyph-name="Udieresis" unicode="&#xdc;" horiz-adv-x="1701" 
d="M965 1569v325h301v-325h-301zM440 1569v325h299v-325h-299zM207 569v588h-154v316h748v-316h-152v-590q0 -71 29 -127q24 -39 70 -61.5t106 -22.5q113 0 168 80q31 47 31 131v590h-152v316h750v-316h-156v-588q0 -113 -35 -218t-96 -177q-87 -99 -223.5 -149t-288.5 -50
q-159 0 -291 50t-219 141q-135 141 -135 403z" />
    <glyph glyph-name="Yacute" unicode="&#xdd;" horiz-adv-x="1394" 
d="M319 0v315h156v279l-336 563h-119v316h627v-316h-80l95 -184q5 -9 26 -58l8 -20h4l9 20q22 52 26 58l94 184h-79v316h624v-316h-119l-337 -563v-279h155v-315h-754zM510 1565l231 329h412l-322 -329h-321z" />
    <glyph glyph-name="Thorn" unicode="&#xde;" horiz-adv-x="1396" 
d="M98 0v315h156v842h-156v316h754v-316h-166v-90h260q218 0 330.5 -86.5t112.5 -239.5q0 -158 -112.5 -250t-328.5 -92h-262v-84h166v-315h-754zM686 666h139q72 0 98.5 18t26.5 53q0 32 -24.5 48t-91.5 16h-148v-135z" />
    <glyph glyph-name="germandbls" unicode="&#xdf;" horiz-adv-x="1398" 
d="M59 0v303h119v774q0 101 48 183t126.5 132.5t173 77.5t193.5 27q139 0 259 -49.5t195.5 -145t75.5 -217.5q0 -59 -18.5 -108.5t-41 -76.5t-41 -58.5t-18.5 -59.5q0 -31 24 -60.5t58 -59t68 -66.5t58 -97.5t24 -136.5q0 -122 -58.5 -208.5t-157 -127t-228.5 -40.5
q-70 0 -158 18q-45 12 -55 16v345l53 -13q72 -14 100 -14q78 0 78 45q0 22 -24.5 48t-59 55t-69 64t-59 88t-24.5 114q0 55 19 104t41.5 77.5t41.5 64t19 67.5q0 80 -108 80q-107 0 -107 -98v-1047h-547z" />
    <glyph glyph-name="agrave" unicode="&#xe0;" horiz-adv-x="1216" 
d="M35 295q0 63 22 115t57.5 87.5t84.5 62.5t98 42.5t104 25t96.5 12.5t80.5 3h61v47q0 34 -33.5 51t-81.5 17q-86 0 -194 -49q-17 -7 -94 -52l-144 287q47 33 131 72q153 71 352 71q235 0 363.5 -115t128.5 -329v-295q0 -45 45 -45h66v-303h-351q-72 0 -109.5 41.5
t-37.5 89.5v2q0 3 1 6t1 6v5h-4q-26 -45 -68 -84q-92 -84 -233 -84q-143 0 -242.5 88t-99.5 225zM446 336q0 -35 20.5 -55.5t51.5 -20.5q47 0 87 42t40 110v41h-24q-89 0 -132 -35t-43 -82zM455 1143l-322 330h412l233 -330h-323z" />
    <glyph glyph-name="aacute" unicode="&#xe1;" horiz-adv-x="1216" 
d="M35 295q0 63 22 115t57.5 87.5t84.5 62.5t98 42.5t104 25t96.5 12.5t80.5 3h61v47q0 34 -33.5 51t-81.5 17q-86 0 -194 -49q-17 -7 -94 -52l-144 287q47 33 131 72q153 71 352 71q235 0 363.5 -115t128.5 -329v-295q0 -45 45 -45h66v-303h-351q-72 0 -109.5 41.5
t-37.5 89.5v2q0 3 1 6t1 6v5h-4q-26 -45 -68 -84q-92 -84 -233 -84q-143 0 -242.5 88t-99.5 225zM446 336q0 -35 20.5 -55.5t51.5 -20.5q47 0 87 42t40 110v41h-24q-89 0 -132 -35t-43 -82zM389 1143l232 330h411l-321 -330h-322z" />
    <glyph glyph-name="acircumflex" unicode="&#xe2;" horiz-adv-x="1216" 
d="M35 295q0 63 22 115t57.5 87.5t84.5 62.5t98 42.5t104 25t96.5 12.5t80.5 3h61v47q0 34 -33.5 51t-81.5 17q-86 0 -194 -49q-17 -7 -94 -52l-144 287q47 33 131 72q153 71 352 71q235 0 363.5 -115t128.5 -329v-295q0 -45 45 -45h66v-303h-351q-72 0 -109.5 41.5
t-37.5 89.5v2q0 3 1 6t1 6v5h-4q-26 -45 -68 -84q-92 -84 -233 -84q-143 0 -242.5 88t-99.5 225zM446 336q0 -35 20.5 -55.5t51.5 -20.5q47 0 87 42t40 110v41h-24q-89 0 -132 -35t-43 -82zM168 1143l213 330h405l213 -330h-321l-92 170h-4l-93 -170h-321z" />
    <glyph glyph-name="atilde" unicode="&#xe3;" horiz-adv-x="1216" 
d="M35 295q0 63 22 115t57.5 87.5t84.5 62.5t98 42.5t104 25t96.5 12.5t80.5 3h61v47q0 34 -33.5 51t-81.5 17q-86 0 -194 -49q-17 -7 -94 -52l-144 287q47 33 131 72q153 71 352 71q235 0 363.5 -115t128.5 -329v-295q0 -45 45 -45h66v-303h-351q-72 0 -109.5 41.5
t-37.5 89.5v2q0 3 1 6t1 6v5h-4q-26 -45 -68 -84q-92 -84 -233 -84q-143 0 -242.5 88t-99.5 225zM446 336q0 -35 20.5 -55.5t51.5 -20.5q47 0 87 42t40 110v41h-24q-89 0 -132 -35t-43 -82zM410 1141h-269q0 166 70.5 252t200.5 86q58 0 102.5 -18t66.5 -39.5t50.5 -39.5
t56.5 -18q72 0 72 109h266q0 -166 -69.5 -252t-198.5 -86q-48 0 -86.5 12t-62 29t-43 34t-41 29t-44.5 12q-34 0 -52.5 -24t-18.5 -86z" />
    <glyph glyph-name="adieresis" unicode="&#xe4;" horiz-adv-x="1216" 
d="M35 295q0 63 22 115t57.5 87.5t84.5 62.5t98 42.5t104 25t96.5 12.5t80.5 3h61v47q0 34 -33.5 51t-81.5 17q-86 0 -194 -49q-17 -7 -94 -52l-144 287q47 33 131 72q153 71 352 71q235 0 363.5 -115t128.5 -329v-295q0 -45 45 -45h66v-303h-351q-72 0 -109.5 41.5
t-37.5 89.5v2q0 3 1 6t1 6v5h-4q-26 -45 -68 -84q-92 -84 -233 -84q-143 0 -242.5 88t-99.5 225zM446 336q0 -35 20.5 -55.5t51.5 -20.5q47 0 87 42t40 110v41h-24q-89 0 -132 -35t-43 -82zM696 1147v326h301v-326h-301zM172 1147v326h299v-326h-299z" />
    <glyph glyph-name="aring" unicode="&#xe5;" horiz-adv-x="1216" 
d="M35 295q0 63 22 115t57.5 87.5t84.5 62.5t98 42.5t104 25t96.5 12.5t80.5 3h61v47q0 34 -33.5 51t-81.5 17q-86 0 -194 -49q-17 -7 -94 -52l-144 287q47 33 131 72q153 71 352 71q235 0 363.5 -115t128.5 -329v-295q0 -45 45 -45h66v-303h-351q-72 0 -109.5 41.5
t-37.5 89.5v2q0 3 1 6t1 6v5h-4q-26 -45 -68 -84q-92 -84 -233 -84q-143 0 -242.5 88t-99.5 225zM446 336q0 -35 20.5 -55.5t51.5 -20.5q47 0 87 42t40 110v41h-24q-89 0 -132 -35t-43 -82zM582 1116q-66 0 -123.5 19.5t-98.5 65.5t-41 112q0 67 41 114t98.5 66.5
t123.5 19.5q67 0 125.5 -19.5t100.5 -66.5t42 -114q0 -66 -42 -112t-100.5 -65.5t-125.5 -19.5zM582 1235q35 0 57.5 21.5t22.5 56.5q0 36 -22 58t-58 22q-33 0 -53.5 -22t-20.5 -58t19.5 -57t54.5 -21z" />
    <glyph glyph-name="ae" unicode="&#xe6;" horiz-adv-x="1732" 
d="M35 303q0 66 25.5 119.5t65 88t97 60.5t111 40t116.5 22t105 10t86 2v35q0 34 -14.5 52t-31 22t-42.5 4q-101 0 -217 -49q-34 -14 -96 -52l-144 287q46 32 135 72q160 71 359 71q178 0 293 -88h4q133 88 282 88q152 0 271 -68.5t182.5 -186t63.5 -261.5q0 -21 -5 -79
l-6 -33h-635q41 -144 207 -144q85 0 195 50q37 16 88 47l153 -279q-51 -42 -124 -78q-168 -80 -355 -80q-137 0 -232.5 38.5t-174.5 111.5h-4q-36 -36 -97 -74q-123 -76 -276 -76q-170 0 -277.5 92.5t-107.5 235.5zM451 336q0 -35 20 -55.5t51 -20.5q47 0 87 42t40 110v41
h-24q-89 0 -131.5 -34.5t-42.5 -82.5zM1057 651h196q0 150 -92 150q-13 0 -24.5 -3.5t-20 -8t-16.5 -13.5t-13 -16t-9.5 -19t-7 -19t-5.5 -21t-3.5 -18.5t-2.5 -17.5t-2 -14z" />
    <glyph glyph-name="ccedilla" unicode="&#xe7;" horiz-adv-x="1173" 
d="M414 -219l73 211q-95 23 -175.5 69.5t-143 113t-98 157.5t-35.5 196q0 112 42.5 214t118.5 178.5t187.5 121.5t241.5 45q94 0 179 -16t157 -48t114.5 -88t42.5 -130v-189h-358v60q0 59 -117 59q-101 0 -140.5 -50.5t-39.5 -139.5q0 -116 60 -167.5t159 -51.5
q176 0 311 108l140 -297q-93 -86 -216.5 -124t-246.5 -38l-29 -71q91 -5 150 -53t59 -134q0 -72 -47.5 -122t-115.5 -70.5t-148 -20.5q-48 0 -105 11q-31 8 -49 10v174q14 -7 29 -10q24 -8 75 -8q36 0 66.5 10.5t30.5 36.5q0 53 -113 53h-59z" />
    <glyph glyph-name="egrave" unicode="&#xe8;" horiz-adv-x="1157" 
d="M37 541q0 108 37.5 206.5t106.5 174t176 120.5t237 45q159 0 277.5 -66.5t178.5 -180t60 -256.5q0 -34 -4 -80l-4 -37h-635q41 -141 201 -141q86 0 198 47q45 19 92 45l150 -293q-49 -36 -127 -74q-160 -76 -346 -76q-119 0 -219 32t-169 86.5t-117 127.5t-70.5 154
t-22.5 166zM475 651h197q0 150 -92 150q-30 0 -50.5 -14.5t-31 -40.5t-15 -44t-7.5 -43q-1 -5 -1 -8zM465 1143l-322 330h412l233 -330h-323z" />
    <glyph glyph-name="eacute" unicode="&#xe9;" horiz-adv-x="1157" 
d="M399 1143l232 330h411l-321 -330h-322zM37 541q0 108 37.5 206.5t106.5 174t176 120.5t237 45q159 0 277.5 -66.5t178.5 -180t60 -256.5q0 -34 -4 -80l-4 -37h-635q41 -141 201 -141q86 0 198 47q45 19 92 45l150 -293q-49 -36 -127 -74q-160 -76 -346 -76
q-119 0 -219 32t-169 86.5t-117 127.5t-70.5 154t-22.5 166zM475 651h197q0 150 -92 150q-30 0 -50.5 -14.5t-31 -40.5t-15 -44t-7.5 -43q-1 -5 -1 -8z" />
    <glyph glyph-name="ecircumflex" unicode="&#xea;" horiz-adv-x="1157" 
d="M176 1143l213 330h406l213 -330h-322l-92 170h-4l-92 -170h-322zM37 541q0 108 37.5 206.5t106.5 174t176 120.5t237 45q159 0 277.5 -66.5t178.5 -180t60 -256.5q0 -34 -4 -80l-4 -37h-635q41 -141 201 -141q86 0 198 47q45 19 92 45l150 -293q-49 -36 -127 -74
q-160 -76 -346 -76q-119 0 -219 32t-169 86.5t-117 127.5t-70.5 154t-22.5 166zM475 651h197q0 150 -92 150q-30 0 -50.5 -14.5t-31 -40.5t-15 -44t-7.5 -43q-1 -5 -1 -8z" />
    <glyph glyph-name="edieresis" unicode="&#xeb;" horiz-adv-x="1157" 
d="M707 1147v326h301v-326h-301zM182 1147v326h299v-326h-299zM37 541q0 108 37.5 206.5t106.5 174t176 120.5t237 45q159 0 277.5 -66.5t178.5 -180t60 -256.5q0 -34 -4 -80l-4 -37h-635q41 -141 201 -141q86 0 198 47q45 19 92 45l150 -293q-49 -36 -127 -74
q-160 -76 -346 -76q-119 0 -219 32t-169 86.5t-117 127.5t-70.5 154t-22.5 166zM475 651h197q0 150 -92 150q-30 0 -50.5 -14.5t-31 -40.5t-15 -44t-7.5 -43q-1 -5 -1 -8z" />
    <glyph glyph-name="igrave" unicode="&#xec;" horiz-adv-x="806" 
d="M76 0v303h125v457h-138v303h566v-760h125v-303h-678zM283 1143l-322 330h412l233 -330h-323z" />
    <glyph glyph-name="iacute" unicode="&#xed;" horiz-adv-x="806" 
d="M217 1143l232 330h411l-321 -330h-322zM76 0v303h125v457h-138v303h566v-760h125v-303h-678z" />
    <glyph glyph-name="icircumflex" unicode="&#xee;" horiz-adv-x="806" 
d="M-4 1143l213 330h405l213 -330h-321l-92 170h-4l-93 -170h-321zM76 0v303h125v457h-138v303h566v-760h125v-303h-678z" />
    <glyph glyph-name="idieresis" unicode="&#xef;" horiz-adv-x="806" 
d="M494 1147v326h301v-326h-301zM31 1147v326h299v-326h-299zM76 0v303h125v457h-138v303h566v-760h125v-303h-678z" />
    <glyph glyph-name="eth" unicode="&#xf0;" horiz-adv-x="1224" 
d="M47 485q0 123 56.5 228.5t160.5 170t232 64.5q59 0 90 -8q8 -1 21.5 -4.5t15.5 -3.5l2 4q-16 24 -59.5 57t-76.5 49l-391 -153l11 174l190 74q-40 19 -102 38.5t-93 24.5l117 330q143 -29 285 -84.5t250 -122.5l317 133l-10 -176l-168 -70q122 -125 190 -284.5t68 -335.5
q0 -90 -18.5 -175t-60.5 -166t-104.5 -141t-157.5 -96.5t-212 -36.5q-105 0 -195.5 28.5t-155 78t-111 114.5t-69 138.5t-22.5 150.5zM477 473q0 -37 9 -67.5t36 -54t70 -23.5q69 0 100 50t31 120q0 129 -115 129q-131 0 -131 -154z" />
    <glyph glyph-name="ntilde" unicode="&#xf1;" horiz-adv-x="1464" 
d="M623 459v-156h118v-303h-665v303h119v412q0 45 -45 45h-84v303h383q74 0 113.5 -33.5t39.5 -91.5q0 -33 -2 -39t-2 -14h4q24 52 74 102q108 100 270 100q57 0 106 -10.5t97 -38.5t81.5 -71t54 -113t20.5 -160v-391h118v-303h-546v606q0 53 -19.5 74.5t-62.5 21.5
q-89 0 -130.5 -70.5t-41.5 -172.5zM580 1141h-269q0 166 70.5 252t200.5 86q58 0 102.5 -18t66.5 -39.5t50.5 -39.5t56.5 -18q72 0 72 109h266q0 -166 -69.5 -252t-198.5 -86q-48 0 -86.5 12t-62 29t-43 34t-41 29t-44.5 12q-34 0 -52.5 -24t-18.5 -86z" />
    <glyph glyph-name="ograve" unicode="&#xf2;" horiz-adv-x="1302" 
d="M35 526q0 165 82.5 294t222 198t309.5 69q172 0 312.5 -69t223.5 -198t83 -294q0 -123 -48.5 -227.5t-132 -174.5t-196 -109.5t-240.5 -39.5q-171 0 -310.5 66.5t-222.5 193.5t-83 291zM467 526q0 -94 53 -146t131 -52t131.5 52t53.5 146q0 96 -54 152.5t-131 56.5
t-130.5 -56.5t-53.5 -152.5zM522 1143l-321 330h411l234 -330h-324z" />
    <glyph glyph-name="oacute" unicode="&#xf3;" horiz-adv-x="1302" 
d="M459 1143l231 330h412l-322 -330h-321zM35 526q0 165 82.5 294t222 198t309.5 69q172 0 312.5 -69t223.5 -198t83 -294q0 -123 -48.5 -227.5t-132 -174.5t-196 -109.5t-240.5 -39.5q-171 0 -310.5 66.5t-222.5 193.5t-83 291zM467 526q0 -94 53 -146t131 -52t131.5 52
t53.5 146q0 96 -54 152.5t-131 56.5t-130.5 -56.5t-53.5 -152.5z" />
    <glyph glyph-name="ocircumflex" unicode="&#xf4;" horiz-adv-x="1302" 
d="M236 1143l213 330h405l213 -330h-322l-92 170h-4l-92 -170h-321zM35 526q0 165 82.5 294t222 198t309.5 69q172 0 312.5 -69t223.5 -198t83 -294q0 -123 -48.5 -227.5t-132 -174.5t-196 -109.5t-240.5 -39.5q-171 0 -310.5 66.5t-222.5 193.5t-83 291zM467 526
q0 -94 53 -146t131 -52t131.5 52t53.5 146q0 96 -54 152.5t-131 56.5t-130.5 -56.5t-53.5 -152.5z" />
    <glyph glyph-name="otilde" unicode="&#xf5;" horiz-adv-x="1302" 
d="M35 526q0 165 82.5 294t222 198t309.5 69q172 0 312.5 -69t223.5 -198t83 -294q0 -123 -48.5 -227.5t-132 -174.5t-196 -109.5t-240.5 -39.5q-171 0 -310.5 66.5t-222.5 193.5t-83 291zM467 526q0 -94 53 -146t131 -52t131.5 52t53.5 146q0 96 -54 152.5t-131 56.5
t-130.5 -56.5t-53.5 -152.5zM477 1141h-268q0 166 70 252t200 86q58 0 102.5 -18t67 -39.5t51 -39.5t56.5 -18q71 0 71 109h267q0 -166 -70 -252t-199 -86q-48 0 -86.5 12t-62 29t-43 34t-40.5 29t-44 12q-34 0 -53 -24t-19 -86z" />
    <glyph glyph-name="odieresis" unicode="&#xf6;" horiz-adv-x="1302" 
d="M764 1147v326h301v-326h-301zM240 1147v326h299v-326h-299zM35 526q0 165 82.5 294t222 198t309.5 69q172 0 312.5 -69t223.5 -198t83 -294q0 -123 -48.5 -227.5t-132 -174.5t-196 -109.5t-240.5 -39.5q-171 0 -310.5 66.5t-222.5 193.5t-83 291zM467 526q0 -94 53 -146
t131 -52t131.5 52t53.5 146q0 96 -54 152.5t-131 56.5t-130.5 -56.5t-53.5 -152.5z" />
    <glyph glyph-name="divide" unicode="&#xf7;" horiz-adv-x="1306" 
d="M477 905v320h348v-320h-348zM74 432v316h1157v-316h-1157zM477 -43v319h348v-319h-348z" />
    <glyph glyph-name="oslash" unicode="&#xf8;" horiz-adv-x="1304" 
d="M37 526q0 165 82.5 294t222 198t309.5 69q154 0 287 -59l88 121l113 -74l-82 -114q101 -76 157 -186.5t56 -248.5q0 -123 -48.5 -227.5t-132 -174.5t-196 -109.5t-240.5 -39.5q-140 0 -272 50l-90 -125l-113 77l82 113q-106 73 -164.5 185t-58.5 251zM469 526
q0 -64 27 -110l221 307q-30 12 -64 12q-77 0 -130.5 -56.5t-53.5 -152.5zM838 526q0 56 -21 103l-213 -295q21 -6 49 -6q78 0 131.5 52t53.5 146z" />
    <glyph glyph-name="ugrave" unicode="&#xf9;" horiz-adv-x="1445" 
d="M840 606v154h-129v303h557v-713q0 -45 45 -45h78v-305h-377q-154 0 -154 131q0 25 2 35q2 6 2 16h-4q-20 -55 -67 -102q-105 -105 -271 -105q-70 0 -129.5 19.5t-112 62.5t-82.5 122.5t-30 189.5v391h-129v303h557v-619q0 -53 18 -74.5t60 -21.5q80 0 123 74.5t43 183.5z
M553 1143l-322 330h412l234 -330h-324z" />
    <glyph glyph-name="uacute" unicode="&#xfa;" horiz-adv-x="1445" 
d="M487 1143l232 330h411l-321 -330h-322zM840 606v154h-129v303h557v-713q0 -45 45 -45h78v-305h-377q-154 0 -154 131q0 25 2 35q2 6 2 16h-4q-20 -55 -67 -102q-105 -105 -271 -105q-70 0 -129.5 19.5t-112 62.5t-82.5 122.5t-30 189.5v391h-129v303h557v-619
q0 -53 18 -74.5t60 -21.5q80 0 123 74.5t43 183.5z" />
    <glyph glyph-name="ucircumflex" unicode="&#xfb;" horiz-adv-x="1445" 
d="M266 1143l213 330h406l213 -330h-322l-92 170h-4l-92 -170h-322zM840 606v154h-129v303h557v-713q0 -45 45 -45h78v-305h-377q-154 0 -154 131q0 25 2 35q2 6 2 16h-4q-20 -55 -67 -102q-105 -105 -271 -105q-70 0 -129.5 19.5t-112 62.5t-82.5 122.5t-30 189.5v391h-129
v303h557v-619q0 -53 18 -74.5t60 -21.5q80 0 123 74.5t43 183.5z" />
    <glyph glyph-name="udieresis" unicode="&#xfc;" horiz-adv-x="1445" 
d="M795 1147v326h301v-326h-301zM270 1147v326h299v-326h-299zM840 606v154h-129v303h557v-713q0 -45 45 -45h78v-305h-377q-154 0 -154 131q0 25 2 35q2 6 2 16h-4q-20 -55 -67 -102q-105 -105 -271 -105q-70 0 -129.5 19.5t-112 62.5t-82.5 122.5t-30 189.5v391h-129v303
h557v-619q0 -53 18 -74.5t60 -21.5q80 0 123 74.5t43 183.5z" />
    <glyph glyph-name="yacute" unicode="&#xfd;" horiz-adv-x="1314" 
d="M4 -340l127 299q25 -17 47 -25q53 -24 139 -24q54 0 100.5 17t57.5 46l-346 787h-113v303h613v-303h-70l82 -287q6 -16 10 -33.5t8 -41.5t5 -31q4 -36 4 -52h8l10 52q14 75 27 106l75 287h-61v303h571v-303h-100l-305 -819q-141 -371 -551 -371q-131 0 -246 45
q-49 20 -92 45zM469 1143l231 330h412l-321 -330h-322z" />
    <glyph glyph-name="thorn" unicode="&#xfe;" horiz-adv-x="1341" 
d="M-2 1169v304h561v-383q0 -52 -2 -68q-2 -10 -2 -27h4q22 24 62 47q80 45 188 45q144 0 258 -74.5t175 -200.5t61 -280q0 -153 -59.5 -279t-172.5 -202t-258 -76q-125 0 -195 39q-38 18 -59 39h-4q0 -14 2 -24q2 -16 2 -66v-69h119v-304h-666v304h119v1275h-133zM547 526
q0 -106 43 -152t106 -46q91 0 134.5 61t43.5 146q0 84 -41.5 142t-127.5 58q-158 0 -158 -209z" />
    <glyph glyph-name="ydieresis" unicode="&#xff;" horiz-adv-x="1314" 
d="M4 -340l127 299q25 -17 47 -25q53 -24 139 -24q54 0 100.5 17t57.5 46l-346 787h-113v303h613v-303h-70l82 -287q6 -16 10 -33.5t8 -41.5t5 -31q4 -36 4 -52h8l10 52q14 75 27 106l75 287h-61v303h571v-303h-100l-305 -819q-141 -371 -551 -371q-131 0 -246 45
q-49 20 -92 45zM776 1147v326h301v-326h-301zM252 1147v326h299v-326h-299z" />
    <glyph glyph-name="Amacron" unicode="&#x100;" horiz-adv-x="1511" 
d="M20 0v315h111l371 1158h506l370 -1158h113v-315h-666v315h115l-29 136h-313l-29 -136h115v-315h-664zM664 741h180l-47 203q-10 38 -27 139q-8 40 -10 58h-10l-9 -58q-11 -73 -28 -139zM459 1599v271h583v-271h-583z" />
    <glyph glyph-name="amacron" unicode="&#x101;" horiz-adv-x="1216" 
d="M35 295q0 63 22 115t57.5 87.5t84.5 62.5t98 42.5t104 25t96.5 12.5t80.5 3h61v47q0 34 -33.5 51t-81.5 17q-86 0 -194 -49q-17 -7 -94 -52l-144 287q47 33 131 72q153 71 352 71q235 0 363.5 -115t128.5 -329v-295q0 -45 45 -45h66v-303h-351q-72 0 -109.5 41.5
t-37.5 89.5v2q0 3 1 6t1 6v5h-4q-26 -45 -68 -84q-92 -84 -233 -84q-143 0 -242.5 88t-99.5 225zM446 336q0 -35 20.5 -55.5t51.5 -20.5q47 0 87 42t40 110v41h-24q-89 0 -132 -35t-43 -82zM293 1178v270h584v-270h-584z" />
    <glyph glyph-name="Abreve" unicode="&#x102;" horiz-adv-x="1511" 
d="M20 0v315h111l371 1158h506l370 -1158h113v-315h-666v315h115l-29 136h-313l-29 -136h115v-315h-664zM664 741h180l-47 203q-10 38 -27 139q-8 40 -10 58h-10l-9 -58q-11 -73 -28 -139zM750 1552q-167 0 -281.5 88t-114.5 236v18h281v-22q0 -55 36 -86t79 -31
q46 0 81 30.5t35 86.5v22h281v-18q0 -148 -115 -236t-282 -88z" />
    <glyph glyph-name="abreve" unicode="&#x103;" horiz-adv-x="1216" 
d="M35 295q0 63 22 115t57.5 87.5t84.5 62.5t98 42.5t104 25t96.5 12.5t80.5 3h61v47q0 34 -33.5 51t-81.5 17q-86 0 -194 -49q-17 -7 -94 -52l-144 287q47 33 131 72q153 71 352 71q235 0 363.5 -115t128.5 -329v-295q0 -45 45 -45h66v-303h-351q-72 0 -109.5 41.5
t-37.5 89.5v2q0 3 1 6t1 6v5h-4q-26 -45 -68 -84q-92 -84 -233 -84q-143 0 -242.5 88t-99.5 225zM446 336q0 -35 20.5 -55.5t51.5 -20.5q47 0 87 42t40 110v41h-24q-89 0 -132 -35t-43 -82zM582 1130q-167 0 -281.5 88t-114.5 236v19h281v-23q0 -55 36 -86t79 -31
q46 0 81 30.5t35 86.5v23h281v-19q0 -148 -115 -236t-282 -88z" />
    <glyph glyph-name="Aogonek" unicode="&#x104;" horiz-adv-x="1511" 
d="M1038 -264q0 67 34.5 137t103.5 127h-351v315h115l-29 136h-313l-29 -136h115v-315h-664v315h111l371 1158h506l370 -1158h113v-315h-10q-52 0 -101 -59.5t-49 -114.5q0 -14 3.5 -25t14 -23t34 -20t59.5 -10l-66 -264q-175 16 -256.5 83.5t-81.5 168.5zM664 741h180
l-47 203q-10 38 -27 139q-8 40 -10 58h-10l-9 -58q-11 -73 -28 -139z" />
    <glyph glyph-name="aogonek" unicode="&#x105;" horiz-adv-x="1218" 
d="M37 293q0 63 22 115.5t57.5 88t84.5 63t98 42.5t104 25t96.5 13t80.5 3h61v47q0 34 -33.5 51t-81.5 17q-86 0 -194 -49q-17 -7 -94 -52l-144 287q47 33 131 72q153 71 353 71q234 0 362.5 -115t128.5 -329v-295q0 -45 45 -45h66v-303h-9q-53 0 -101 -59.5t-48 -116.5
q0 -69 111 -76l-68 -264q-336 37 -336 254q0 67 33.5 137.5t101.5 124.5h-33q-77 0 -113 35t-36 76v2q0 4 1 12t1 12v13h-4q-27 -49 -74 -87q-104 -88 -235 -88q-140 0 -237 89t-97 229zM449 336q0 -35 20 -55.5t51 -20.5q47 0 87 42t40 110v41h-24q-89 0 -131.5 -34.5
t-42.5 -82.5z" />
    <glyph glyph-name="Cacute" unicode="&#x106;" horiz-adv-x="1536" 
d="M625 1565l231 329h412l-322 -329h-321zM55 737q0 218 104 392.5t282 271t393 96.5q61 0 133 -7.5t159 -28.5t156 -52t115.5 -85t46.5 -122v-258h-391v113q0 71 -199 71q-159 0 -250.5 -91.5t-91.5 -272.5q0 -206 101 -313t266 -107q34 0 64 3t59.5 10.5t47 22.5t17.5 36
v112h393v-262q0 -65 -45 -117.5t-112.5 -84t-153.5 -52.5t-161.5 -29t-143.5 -8q-223 0 -404 100t-283 274.5t-102 387.5z" />
    <glyph glyph-name="cacute" unicode="&#x107;" horiz-adv-x="1173" 
d="M408 1143l231 330h412l-322 -330h-321zM35 528q0 112 42.5 214t118.5 178.5t187.5 121.5t241.5 45q94 0 179 -16t157 -48t114.5 -88t42.5 -130v-189h-358v60q0 59 -117 59q-98 0 -139 -53t-41 -137q0 -116 60 -167.5t159 -51.5q176 0 311 108l140 -297
q-174 -162 -480 -162q-120 0 -230.5 37.5t-197 106t-138.5 175t-52 234.5z" />
    <glyph glyph-name="Ccircumflex" unicode="&#x108;" horiz-adv-x="1536" 
d="M401 1565l213 329h406l213 -329h-322l-92 170h-4l-92 -170h-322zM55 737q0 218 104 392.5t282 271t393 96.5q61 0 133 -7.5t159 -28.5t156 -52t115.5 -85t46.5 -122v-258h-391v113q0 71 -199 71q-159 0 -250.5 -91.5t-91.5 -272.5q0 -206 101 -313t266 -107q34 0 64 3
t59.5 10.5t47 22.5t17.5 36v112h393v-262q0 -65 -45 -117.5t-112.5 -84t-153.5 -52.5t-161.5 -29t-143.5 -8q-223 0 -404 100t-283 274.5t-102 387.5z" />
    <glyph glyph-name="ccircumflex" unicode="&#x109;" horiz-adv-x="1173" 
d="M186 1143l213 330h406l213 -330h-322l-92 170h-4l-92 -170h-322zM35 528q0 112 42.5 214t118.5 178.5t187.5 121.5t241.5 45q94 0 179 -16t157 -48t114.5 -88t42.5 -130v-189h-358v60q0 59 -117 59q-98 0 -139 -53t-41 -137q0 -116 60 -167.5t159 -51.5q176 0 311 108
l140 -297q-174 -162 -480 -162q-120 0 -230.5 37.5t-197 106t-138.5 175t-52 234.5z" />
    <glyph glyph-name="Cdotaccent" unicode="&#x10a;" horiz-adv-x="1536" 
d="M55 737q0 218 104 392.5t282 271t393 96.5q61 0 133 -7.5t159 -28.5t156 -52t115.5 -85t46.5 -122v-258h-391v113q0 71 -199 71q-159 0 -250.5 -91.5t-91.5 -272.5q0 -206 101 -313t266 -107q34 0 64 3t59.5 10.5t47 22.5t17.5 36v112h393v-262q0 -65 -45 -117.5
t-112.5 -84t-153.5 -52.5t-161.5 -29t-143.5 -8q-223 0 -404 100t-283 274.5t-102 387.5zM647 1591v303h344v-303h-344z" />
    <glyph glyph-name="cdotaccent" unicode="&#x10b;" horiz-adv-x="1173" 
d="M35 528q0 112 42.5 214t118.5 178.5t187.5 121.5t241.5 45q94 0 179 -16t157 -48t114.5 -88t42.5 -130v-189h-358v60q0 59 -117 59q-98 0 -139 -53t-41 -137q0 -116 60 -167.5t159 -51.5q176 0 311 108l140 -297q-174 -162 -480 -162q-120 0 -230.5 37.5t-197 106
t-138.5 175t-52 234.5zM430 1169v304h344v-304h-344z" />
    <glyph glyph-name="Ccaron" unicode="&#x10c;" horiz-adv-x="1536" 
d="M614 1565l-213 329h322l92 -170h4l92 170h322l-213 -329h-406zM55 737q0 218 104 392.5t282 271t393 96.5q61 0 133 -7.5t159 -28.5t156 -52t115.5 -85t46.5 -122v-258h-391v113q0 71 -199 71q-159 0 -250.5 -91.5t-91.5 -272.5q0 -206 101 -313t266 -107q34 0 64 3
t59.5 10.5t47 22.5t17.5 36v112h393v-262q0 -65 -45 -117.5t-112.5 -84t-153.5 -52.5t-161.5 -29t-143.5 -8q-223 0 -404 100t-283 274.5t-102 387.5z" />
    <glyph glyph-name="ccaron" unicode="&#x10d;" horiz-adv-x="1173" 
d="M399 1143l-213 330h322l92 -170h4l92 170h322l-213 -330h-406zM35 528q0 112 42.5 214t118.5 178.5t187.5 121.5t241.5 45q94 0 179 -16t157 -48t114.5 -88t42.5 -130v-189h-358v60q0 59 -117 59q-98 0 -139 -53t-41 -137q0 -116 60 -167.5t159 -51.5q176 0 311 108
l140 -297q-174 -162 -480 -162q-120 0 -230.5 37.5t-197 106t-138.5 175t-52 234.5z" />
    <glyph glyph-name="Dcaron" unicode="&#x10e;" horiz-adv-x="1624" 
d="M602 1565l-213 329h322l92 -170h4l92 170h322l-213 -329h-406zM98 0v315h156v842h-156v316h658q202 0 299 -29q229 -64 368.5 -249.5t139.5 -457.5q0 -244 -116.5 -424.5t-316.5 -259.5q-149 -53 -370 -53h-662zM696 342h54q131 0 213 43q69 47 106 137t37 213
q0 140 -49 232.5t-133 132.5q-63 30 -174 30h-54v-788z" />
    <glyph glyph-name="dcaron" unicode="&#x10f;" horiz-adv-x="1392" 
d="M1346 1473h337q17 -57 17 -121q0 -128 -77 -211.5t-202 -114.5l-143 129q98 68 98 174q0 67 -30 144zM41 532q0 253 137 404t365 151q112 0 188 -45q35 -21 55 -47h5q0 10 -3 19q-2 14 -2 45v110h-129v304h557v-1125q0 -45 46 -45h65v-303h-352q-72 0 -110 33.5t-38 72.5
q0 27 2 33t2 15h-4q-23 -47 -67 -88q-95 -91 -246 -91q-213 0 -342 153t-129 404zM469 530q0 -92 45.5 -148t118.5 -56q69 0 117.5 50.5t48.5 147.5q0 90 -42 148.5t-120 58.5q-71 0 -119.5 -53.5t-48.5 -147.5z" />
    <glyph glyph-name="Dcroat" unicode="&#x110;" horiz-adv-x="1634" 
d="M98 0v315h156v240h-137v342h137v260h-156v316h701q359 0 565.5 -194t206.5 -540q0 -343 -207.5 -541t-564.5 -198h-701zM696 342h88q157 0 243.5 101.5t86.5 295.5q0 192 -88.5 291.5t-241.5 99.5h-88v-233h195v-342h-195v-213z" />
    <glyph glyph-name="dcroat" unicode="&#x111;" horiz-adv-x="1376" 
d="M43 535q0 253 137 404t365 151q112 0 188 -35q32 -14 55 -37h5q0 12 -2 18q-3 21 -3 45v58h-296v225h296v109h429v-109h124v-225h-124v-791q0 -43 45 -43h65v-303h-352q-72 0 -110 34t-38 73q0 16 2 18t2 8h-4q-24 -44 -67 -78q-101 -80 -246 -80q-213 0 -342 153.5
t-129 404.5zM471 532q0 -92 45.5 -148t118.5 -56q69 0 117.5 50.5t48.5 147.5q0 90 -42 148.5t-120 58.5q-71 0 -119.5 -53.5t-48.5 -147.5z" />
    <glyph glyph-name="Emacron" unicode="&#x112;" horiz-adv-x="1376" 
d="M98 0v315h156v842h-156v316h1168v-478h-369v135h-201v-217h389v-344h-389v-227h222v131h368v-473h-1188zM428 1599v271h584v-271h-584z" />
    <glyph glyph-name="emacron" unicode="&#x113;" horiz-adv-x="1157" 
d="M37 541q0 108 37.5 206.5t106.5 174t176 120.5t237 45q159 0 277.5 -66.5t178.5 -180t60 -256.5q0 -34 -4 -80l-4 -37h-635q41 -141 201 -141q86 0 198 47q45 19 92 45l150 -293q-49 -36 -127 -74q-160 -76 -346 -76q-119 0 -219 32t-169 86.5t-117 127.5t-70.5 154
t-22.5 166zM475 651h197q0 150 -92 150q-30 0 -50.5 -14.5t-31 -40.5t-15 -44t-7.5 -43q-1 -5 -1 -8zM303 1178v270h584v-270h-584z" />
    <glyph glyph-name="Ebreve" unicode="&#x114;" horiz-adv-x="1376" 
d="M98 0v315h156v842h-156v316h1168v-478h-369v135h-201v-217h389v-344h-389v-227h222v131h368v-473h-1188zM717 1552q-108 0 -197 37.5t-143.5 112.5t-54.5 174v18h280v-22q0 -55 36 -86t79 -31q46 0 81.5 30.5t35.5 86.5v22h280v-18q0 -148 -115 -236t-282 -88z" />
    <glyph glyph-name="ebreve" unicode="&#x115;" horiz-adv-x="1157" 
d="M37 541q0 108 37.5 206.5t106.5 174t176 120.5t237 45q159 0 277.5 -66.5t178.5 -180t60 -256.5q0 -34 -4 -80l-4 -37h-635q41 -141 201 -141q86 0 198 47q45 19 92 45l150 -293q-49 -36 -127 -74q-160 -76 -346 -76q-119 0 -219 32t-169 86.5t-117 127.5t-70.5 154
t-22.5 166zM475 651h197q0 150 -92 150q-30 0 -50.5 -14.5t-31 -40.5t-15 -44t-7.5 -43q-1 -5 -1 -8zM592 1130q-108 0 -197 37.5t-143.5 112.5t-54.5 174v19h280v-23q0 -55 36 -86t79 -31q46 0 81.5 30.5t35.5 86.5v23h280v-19q0 -148 -115 -236t-282 -88z" />
    <glyph glyph-name="Edotaccent" unicode="&#x116;" horiz-adv-x="1376" 
d="M98 0v315h156v842h-156v316h1168v-478h-369v135h-201v-217h389v-344h-389v-227h222v131h368v-473h-1188zM547 1591v303h344v-303h-344z" />
    <glyph glyph-name="edotaccent" unicode="&#x117;" horiz-adv-x="1157" 
d="M37 541q0 108 37.5 206.5t106.5 174t176 120.5t237 45q159 0 277.5 -66.5t178.5 -180t60 -256.5q0 -34 -4 -80l-4 -37h-635q41 -141 201 -141q86 0 198 47q45 19 92 45l150 -293q-49 -36 -127 -74q-160 -76 -346 -76q-119 0 -219 32t-169 86.5t-117 127.5t-70.5 154
t-22.5 166zM475 651h197q0 150 -92 150q-30 0 -50.5 -14.5t-31 -40.5t-15 -44t-7.5 -43q-1 -5 -1 -8zM422 1169v304h344v-304h-344z" />
    <glyph glyph-name="Eogonek" unicode="&#x118;" horiz-adv-x="1376" 
d="M98 0v315h156v842h-156v316h1168v-478h-369v135h-201v-217h389v-344h-389v-227h222v131h368v-473h-22q-52 0 -101 -59.5t-49 -114.5q0 -14 3.5 -25t14 -23t34 -20t59.5 -10l-68 -264q-174 18 -255 84.5t-81 163.5q0 156 135 268h-858z" />
    <glyph glyph-name="eogonek" unicode="&#x119;" horiz-adv-x="1157" 
d="M598 1087q241 0 376.5 -144t135.5 -378q0 -13 -4 -59l-4 -39h-635q41 -141 199 -141q88 0 200 47q45 19 92 45l150 -293q-31 -22 -47 -31q-85 -49 -125 -69q-27 -15 -56.5 -39.5t-59 -69t-29.5 -88.5q0 -14 3 -24.5t13 -23.5t34.5 -21.5t61.5 -10.5l-65 -264
q-174 16 -256 83.5t-82 164.5q0 137 112 243q-140 4 -253 53.5t-181.5 129t-104.5 175.5t-36 199q0 114 37.5 214.5t107.5 176.5t177.5 120t238.5 44zM475 651h197q0 150 -92 150q-30 0 -50.5 -14.5t-31 -40.5t-15 -44t-7.5 -43q-1 -5 -1 -8z" />
    <glyph glyph-name="Ecaron" unicode="&#x11a;" horiz-adv-x="1376" 
d="M514 1565l-213 329h322l92 -170h4l92 170h322l-213 -329h-406zM98 0v315h156v842h-156v316h1168v-478h-369v135h-201v-217h389v-344h-389v-227h222v131h368v-473h-1188z" />
    <glyph glyph-name="ecaron" unicode="&#x11b;" horiz-adv-x="1157" 
d="M389 1143l-213 330h322l92 -170h4l92 170h322l-213 -330h-406zM37 541q0 108 37.5 206.5t106.5 174t176 120.5t237 45q159 0 277.5 -66.5t178.5 -180t60 -256.5q0 -34 -4 -80l-4 -37h-635q41 -141 201 -141q86 0 198 47q45 19 92 45l150 -293q-49 -36 -127 -74
q-160 -76 -346 -76q-119 0 -219 32t-169 86.5t-117 127.5t-70.5 154t-22.5 166zM475 651h197q0 150 -92 150q-30 0 -50.5 -14.5t-31 -40.5t-15 -44t-7.5 -43q-1 -5 -1 -8z" />
    <glyph glyph-name="Gcircumflex" unicode="&#x11c;" horiz-adv-x="1576" 
d="M401 1565l213 329h406l213 -329h-322l-92 170h-4l-92 -170h-322zM55 750q0 219 102.5 389.5t284.5 264t412 93.5q104 0 209 -19t194 -54t145 -91t56 -123v-266h-393v107q0 77 -182 77q-184 0 -277.5 -86.5t-93.5 -273.5q0 -192 101.5 -308t297.5 -116q72 0 129.5 17
t57.5 55v57h-213v315h606v-524q0 -62 -47 -113.5t-118.5 -83t-160.5 -53.5t-168.5 -30.5t-148.5 -8.5q-168 0 -315 58.5t-252 160.5t-165.5 246t-60.5 310z" />
    <glyph glyph-name="gcircumflex" unicode="&#x11d;" horiz-adv-x="1368" 
d="M242 1143l213 330h405l213 -330h-321l-93 170h-4l-92 -170h-321zM145 -332l117 307q38 -17 88 -32q113 -33 215 -33q205 0 205 174q0 27 2 41q2 6 2 22h-4q-94 -108 -246 -108q-120 0 -214.5 46.5t-151 123t-86 169t-29.5 191.5t29 189.5t85.5 165t151.5 119t215 44.5
q53 0 106 -12.5t107 -47t82 -85.5h4q-2 6 -2 25q0 46 32 71t87 25h367v-303h-66q-19 0 -32 -10t-13 -27v-602q0 -118 -37 -213t-97.5 -157t-143 -103.5t-170 -59.5t-181.5 -18q-107 0 -224.5 28.5t-197.5 69.5zM629 391q63 0 107 38t44 136q0 53 -13.5 88.5t-39 52t-51.5 23
t-60 6.5q-71 0 -108 -42.5t-37 -106.5q0 -81 37 -138t121 -57z" />
    <glyph glyph-name="Gbreve" unicode="&#x11e;" horiz-adv-x="1576" 
d="M55 750q0 219 102.5 389.5t284.5 264t412 93.5q104 0 209 -19t194 -54t145 -91t56 -123v-266h-393v107q0 77 -182 77q-184 0 -277.5 -86.5t-93.5 -273.5q0 -192 101.5 -308t297.5 -116q72 0 129.5 17t57.5 55v57h-213v315h606v-524q0 -62 -47 -113.5t-118.5 -83
t-160.5 -53.5t-168.5 -30.5t-148.5 -8.5q-168 0 -315 58.5t-252 160.5t-165.5 246t-60.5 310zM815 1552q-108 0 -197 37.5t-143.5 112.5t-54.5 174v18h280v-22q0 -55 36 -86t79 -31q46 0 81.5 30.5t35.5 86.5v22h280v-18q0 -148 -115 -236t-282 -88z" />
    <glyph glyph-name="gbreve" unicode="&#x11f;" horiz-adv-x="1368" 
d="M145 -332l117 307q38 -17 88 -32q113 -33 215 -33q205 0 205 174q0 27 2 41q2 6 2 22h-4q-94 -108 -246 -108q-120 0 -214.5 46.5t-151 123t-86 169t-29.5 191.5t29 189.5t85.5 165t151.5 119t215 44.5q53 0 106 -12.5t107 -47t82 -85.5h4q-2 6 -2 25q0 46 32 71t87 25
h367v-303h-66q-19 0 -32 -10t-13 -27v-602q0 -118 -37 -213t-97.5 -157t-143 -103.5t-170 -59.5t-181.5 -18q-107 0 -224.5 28.5t-197.5 69.5zM629 391q63 0 107 38t44 136q0 53 -13.5 88.5t-39 52t-51.5 23t-60 6.5q-71 0 -108 -42.5t-37 -106.5q0 -81 37 -138t121 -57z
M655 1130q-108 0 -197 37.5t-143.5 112.5t-54.5 174v19h281v-23q0 -56 35.5 -86.5t78.5 -30.5q46 0 81.5 30.5t35.5 86.5v23h281v-19q0 -148 -115.5 -236t-282.5 -88z" />
    <glyph glyph-name="Gdotaccent" unicode="&#x120;" horiz-adv-x="1576" 
d="M55 750q0 219 102.5 389.5t284.5 264t412 93.5q104 0 209 -19t194 -54t145 -91t56 -123v-266h-393v107q0 77 -182 77q-184 0 -277.5 -86.5t-93.5 -273.5q0 -192 101.5 -308t297.5 -116q72 0 129.5 17t57.5 55v57h-213v315h606v-524q0 -62 -47 -113.5t-118.5 -83
t-160.5 -53.5t-168.5 -30.5t-148.5 -8.5q-168 0 -315 58.5t-252 160.5t-165.5 246t-60.5 310zM645 1591v303h344v-303h-344z" />
    <glyph glyph-name="gdotaccent" unicode="&#x121;" horiz-adv-x="1368" 
d="M145 -332l117 307q38 -17 88 -32q113 -33 215 -33q205 0 205 174q0 27 2 41q2 6 2 22h-4q-94 -108 -246 -108q-120 0 -214.5 46.5t-151 123t-86 169t-29.5 191.5t29 189.5t85.5 165t151.5 119t215 44.5q53 0 106 -12.5t107 -47t82 -85.5h4q-2 6 -2 25q0 46 32 71t87 25
h367v-303h-66q-19 0 -32 -10t-13 -27v-602q0 -118 -37 -213t-97.5 -157t-143 -103.5t-170 -59.5t-181.5 -18q-107 0 -224.5 28.5t-197.5 69.5zM629 391q63 0 107 38t44 136q0 53 -13.5 88.5t-39 52t-51.5 23t-60 6.5q-71 0 -108 -42.5t-37 -106.5q0 -81 37 -138t121 -57z
M485 1169v304h344v-304h-344z" />
    <glyph glyph-name="Gcommaaccent" unicode="&#x122;" horiz-adv-x="1576" 
d="M651 -84h338q17 -57 17 -121q0 -128 -77 -211t-202 -114l-143 129q98 68 98 174q0 64 -31 143zM55 750q0 219 102.5 389.5t284.5 264t412 93.5q104 0 209 -19t194 -54t145 -91t56 -123v-266h-393v107q0 77 -182 77q-184 0 -277.5 -86.5t-93.5 -273.5q0 -192 101.5 -308
t297.5 -116q72 0 129.5 17t57.5 55v57h-213v315h606v-524q0 -62 -47 -113.5t-118.5 -83t-160.5 -53.5t-168.5 -30.5t-148.5 -8.5q-168 0 -315 58.5t-252 160.5t-165.5 246t-60.5 310z" />
    <glyph glyph-name="gcommaaccent" unicode="&#x123;" horiz-adv-x="1368" 
d="M797 1167h-338q-17 57 -17 121q0 128 77 211.5t202 114.5l143 -129q-98 -68 -98 -174q0 -65 31 -144zM145 -332l117 307q38 -17 88 -32q113 -33 215 -33q205 0 205 174q0 27 2 41q2 6 2 22h-4q-94 -108 -246 -108q-120 0 -214.5 46.5t-151 123t-86 169t-29.5 191.5
t29 189.5t85.5 165t151.5 119t215 44.5q53 0 106 -12.5t107 -47t82 -85.5h4q-2 6 -2 25q0 46 32 71t87 25h367v-303h-66q-19 0 -32 -10t-13 -27v-602q0 -118 -37 -213t-97.5 -157t-143 -103.5t-170 -59.5t-181.5 -18q-107 0 -224.5 28.5t-197.5 69.5zM629 391q63 0 107 38
t44 136q0 53 -13.5 88.5t-39 52t-51.5 23t-60 6.5q-71 0 -108 -42.5t-37 -106.5q0 -81 37 -138t121 -57z" />
    <glyph glyph-name="Hcircumflex" unicode="&#x124;" horiz-adv-x="1812" 
d="M492 1565l213 329h405l213 -329h-322l-92 170h-4l-92 -170h-321zM98 0v315h156v842h-156v316h754v-316h-156v-256h420v256h-155v316h753v-316h-155v-842h155v-315h-753v315h155v242h-420v-242h156v-315h-754z" />
    <glyph glyph-name="hcircumflex" unicode="&#x125;" horiz-adv-x="1445" 
d="M-25 1565l213 329h406l213 -329h-322l-92 170h-4l-92 -170h-322zM59 0v303h119v866h-129v304h557v-453q0 -52 -2 -68l-4 -24h4q101 159 311 159q55 0 105 -10.5t100 -38.5t86.5 -71t59 -113t22.5 -160v-391h119v-303h-547v610q0 52 -18.5 72t-61.5 20q-48 0 -83 -20.5
t-54 -56.5t-28 -77t-9 -89v-156h119v-303h-666z" />
    <glyph glyph-name="Hbar" unicode="&#x126;" horiz-adv-x="1812" 
d="M92 885v186h162v86h-156v316h754v-316h-156v-86h420v86h-155v316h753v-316h-155v-86h161v-186h-161v-570h155v-315h-753v315h155v217h-420v-217h156v-315h-754v315h156v570h-162zM696 797h420v88h-420v-88z" />
    <glyph glyph-name="hbar" unicode="&#x127;" horiz-adv-x="1445" 
d="M725 0h-666v303h119v836h-147v223h147v111h428v-111h316v-223h-316v-115q0 -52 -2 -68l-4 -24h4q90 155 297 155q77 0 141.5 -18.5t122 -60.5t90.5 -122t33 -192v-391h119v-303h-547v610q0 52 -18.5 72t-61.5 20q-48 0 -83 -20.5t-54 -56.5t-28 -77t-9 -89v-156h119v-303
z" />
    <glyph glyph-name="Itilde" unicode="&#x128;" horiz-adv-x="950" 
d="M98 0v315h156v842h-156v316h754v-316h-156v-842h156v-315h-754zM303 1563h-268q0 166 70 252t200 86q58 0 102.5 -18t67 -39.5t51 -39.5t56.5 -18q33 0 52 23.5t19 84.5h267q0 -166 -70 -252t-199 -86q-59 0 -104 18.5t-67 40t-49.5 40t-55.5 18.5q-34 0 -53 -24t-19 -86
z" />
    <glyph glyph-name="itilde" unicode="&#x129;" horiz-adv-x="806" 
d="M76 0v303h125v457h-138v303h566v-760h125v-303h-678zM238 1141h-269q0 166 70.5 252t200.5 86q58 0 102.5 -18t66.5 -39.5t50.5 -39.5t56.5 -18q72 0 72 109h266q0 -166 -69.5 -252t-198.5 -86q-48 0 -86.5 12t-62 29t-43 34t-41 29t-44.5 12q-34 0 -52.5 -24t-18.5 -86z
" />
    <glyph glyph-name="Imacron" unicode="&#x12a;" horiz-adv-x="950" 
d="M98 0v315h156v842h-156v316h754v-316h-156v-842h156v-315h-754zM186 1599v271h584v-271h-584z" />
    <glyph glyph-name="imacron" unicode="&#x12b;" horiz-adv-x="806" 
d="M76 0v303h125v457h-138v303h566v-760h125v-303h-678zM121 1178v270h584v-270h-584z" />
    <glyph glyph-name="Ibreve" unicode="&#x12c;" horiz-adv-x="950" 
d="M98 0v315h156v842h-156v316h754v-316h-156v-842h156v-315h-754zM475 1552q-108 0 -197 37.5t-143.5 112.5t-54.5 174v18h280v-22q0 -55 36 -86t79 -31q46 0 81.5 30.5t35.5 86.5v22h280v-18q0 -148 -115 -236t-282 -88z" />
    <glyph glyph-name="ibreve" unicode="&#x12d;" horiz-adv-x="806" 
d="M76 0v303h125v457h-138v303h566v-760h125v-303h-678zM410 1130q-167 0 -281.5 88t-114.5 236v19h281v-23q0 -55 36 -86t79 -31q46 0 81 30.5t35 86.5v23h281v-19q0 -148 -115 -236t-282 -88z" />
    <glyph glyph-name="Iogonek" unicode="&#x12e;" horiz-adv-x="950" 
d="M98 0v315h156v842h-156v316h754v-316h-156v-842h156v-315h-27q-52 0 -100.5 -59.5t-48.5 -114.5q0 -14 3.5 -25t13.5 -23t33.5 -20t59.5 -10l-67 -264q-174 18 -255 84.5t-81 163.5q0 156 135 268h-420z" />
    <glyph glyph-name="iogonek" unicode="&#x12f;" horiz-adv-x="800" 
d="M76 0v303h119v457h-129v303h557v-760h118v-303h-26q-52 0 -101 -59.5t-49 -114.5q0 -14 3.5 -25t14 -23t34 -20t59.5 -10l-68 -264q-174 16 -256 83.5t-82 164.5q0 153 138 268h-332zM203 1161v312h411v-312h-411z" />
    <glyph glyph-name="Idotaccent" unicode="&#x130;" horiz-adv-x="950" 
d="M98 0v315h156v842h-156v316h754v-316h-156v-842h156v-315h-754zM305 1591v303h344v-303h-344z" />
    <glyph glyph-name="dotlessi" unicode="&#x131;" horiz-adv-x="806" 
d="M76 0v303h125v457h-138v303h566v-760h125v-303h-678z" />
    <glyph glyph-name="IJ" unicode="&#x132;" horiz-adv-x="1757" 
d="M98 0v315h154v842h-156v316h754v-316h-156v-842h115v-315h-711zM911 0v342q30 -4 65.5 2.5t70.5 23t58 49t23 75.5v665h-182v316h754v-316h-129v-618q0 -129 -38.5 -229.5t-101.5 -161.5t-150 -98t-178.5 -47.5t-191.5 -2.5z" />
    <glyph glyph-name="ij" unicode="&#x133;" horiz-adv-x="1495" 
d="M203 1161v312h411v-312h-411zM76 0v303h119v457h-129v303h557v-760h118v-303h-665zM944 1161v312h412v-312h-412zM717 -422v332q2 -2 12 -2h33q29 0 55.5 4t55.5 14t46 32t17 54v748h-131v303h559v-1073q0 -74 -21 -135.5t-55 -104t-81.5 -75t-96 -51.5t-103.5 -31.5
t-99 -16.5t-87 -4q-58 0 -76 2z" />
    <glyph glyph-name="Jcircumflex" unicode="&#x134;" horiz-adv-x="1214" 
d="M381 1565l213 329h405l213 -329h-321l-92 170h-4l-93 -170h-321zM18 442v148h420v-115q0 -25 0.5 -39t4.5 -31.5t11.5 -26.5t22 -15.5t35.5 -6.5q44 0 57 27.5t13 91.5v682h-172v316h749v-316h-135v-688q0 -119 -43.5 -215t-116.5 -155.5t-163 -91.5t-187 -32
q-77 0 -148.5 17.5t-135 54.5t-110.5 91t-74.5 132t-27.5 172z" />
    <glyph glyph-name="jcircumflex" unicode="&#x135;" horiz-adv-x="739" 
d="M-55 1143l215 330h403l213 -330h-321l-93 170h-4l-90 -170h-323zM-39 -422v332q2 -2 12 -2h33q29 0 55.5 4t55.5 14t46 32t17 54v748h-131v303h559v-1073q0 -86 -27 -155t-74 -113t-102 -75t-119 -46.5t-116.5 -22t-103.5 -6.5q-58 0 -76 2z" />
    <glyph glyph-name="Kcommaaccent" unicode="&#x136;" horiz-adv-x="1585" 
d="M664 -84h337q17 -57 17 -121q0 -128 -77 -211t-202 -114l-143 129q98 68 98 174q0 67 -30 143zM98 0v315h156v842h-156v316h670v-316h-72v-242h95l167 242h-90v316h645v-316h-114l-283 -373v-4q23 -10 43 -30q53 -48 84 -117l123 -273q20 -45 84 -45h61v-315h-299
q-89 0 -135.5 26t-72.5 83l-193 421q-11 25 -32.5 33t-65.5 8h-17v-256h133v-315h-731z" />
    <glyph glyph-name="kcommaaccent" unicode="&#x137;" horiz-adv-x="1368" 
d="M543 -84h338q16 -54 16 -121q0 -128 -77 -211t-202 -114l-143 129q98 68 98 174q0 67 -30 143zM59 0v303h119v866h-129v304h557v-797h127l66 84h-105v303h606v-303h-124l-150 -187v-4q18 -7 31 -20q39 -35 59 -78l70 -135q20 -33 71 -33h46v-303h-308q-55 0 -86.5 14
t-54.5 58l-154 295q-9 21 -19.5 26.5t-27.5 5.5h-47v-96h66v-303h-613z" />
    <glyph glyph-name="kgreenlandic" unicode="&#x138;" horiz-adv-x="1357" 
d="M76 0v303h119v457h-129v303h557v-369h120l50 66h-82v303h571v-303h-111l-147 -187v-4l33 -28q43 -43 63 -82l62 -123q17 -33 71 -33h45v-303h-307q-55 0 -86.5 14t-54.5 58l-137 266q-12 25 -23.5 33t-34.5 8h-32v-76h47v-303h-594z" />
    <glyph glyph-name="Lacute" unicode="&#x139;" horiz-adv-x="1331" 
d="M274 1565l232 329h412l-322 -329h-322zM100 0v315h156v815h-156v343h754v-343h-156v-788h228v207h368v-549h-1194z" />
    <glyph glyph-name="lacute" unicode="&#x13a;" horiz-adv-x="729" 
d="M133 1565l232 329h411l-321 -329h-322zM115 434v735h-129v304h557v-1016q0 -79 17.5 -104t74.5 -25q4 0 12 1t12 1h13v-336l-33 -4q-23 -2 -82 -2q-50 0 -90 3t-88 14t-83.5 30t-71 52.5t-58.5 79.5t-37 114t-14 153z" />
    <glyph glyph-name="Lcommaaccent" unicode="&#x13b;" horiz-adv-x="1331" 
d="M563 -84h338q17 -57 17 -121q0 -128 -77 -211t-202 -114l-143 129q98 68 98 174q0 64 -31 143zM100 0v315h156v815h-156v343h754v-343h-156v-788h228v207h368v-549h-1194z" />
    <glyph glyph-name="lcommaaccent" unicode="&#x13c;" horiz-adv-x="729" 
d="M250 -84h338q16 -54 16 -121q0 -128 -76.5 -211t-201.5 -114l-144 129q99 68 99 174q0 64 -31 143zM115 434v735h-129v304h557v-1016q0 -79 17.5 -104t74.5 -25q4 0 12 1t12 1h13v-336l-33 -4q-23 -2 -82 -2q-50 0 -90 3t-88 14t-83.5 30t-71 52.5t-58.5 79.5t-37 114
t-14 153z" />
    <glyph glyph-name="Lcaron" unicode="&#x13d;" horiz-adv-x="1331" 
d="M563 -84h338q17 -57 17 -121q0 -128 -77 -211t-202 -114l-143 129q98 68 98 174q0 64 -31 143zM100 0v315h156v815h-156v343h754v-343h-156v-788h228v207h368v-549h-1194z" />
    <glyph glyph-name="lcaron" unicode="&#x13e;" horiz-adv-x="772" 
d="M705 1468h337q17 -57 17 -120q0 -128 -77 -211.5t-202 -114.5l-143 129q98 68 98 174q0 66 -30 143zM115 434v735h-129v304h557v-1016q0 -79 17.5 -104t74.5 -25q4 0 12 1t12 1h13v-336l-33 -4q-23 -2 -82 -2q-50 0 -90 3t-88 14t-83.5 30t-71 52.5t-58.5 79.5t-37 114
t-14 153z" />
    <glyph glyph-name="Ldot" unicode="&#x13f;" horiz-adv-x="1331" 
d="M100 0v315h156v815h-156v343h754v-343h-156v-788h228v207h368v-549h-1194zM866 635v391h379v-391h-379z" />
    <glyph glyph-name="ldot" unicode="&#x140;" horiz-adv-x="1140" 
d="M115 434v735h-129v304h557v-1016q0 -79 17.5 -104t74.5 -25q4 0 12 1t12 1h13v-336l-33 -4q-23 -2 -82 -2q-50 0 -90 3t-88 14t-83.5 30t-71 52.5t-58.5 79.5t-37 114t-14 153zM709 639v391h378v-391h-378z" />
    <glyph glyph-name="Lslash" unicode="&#x141;" horiz-adv-x="1329" 
d="M98 0v315h156v117l-158 -84v334l158 84v364h-156v343h754v-343h-156v-126l299 161v-331l-299 -164v-328h254v207h342v-549h-1194z" />
    <glyph glyph-name="lslash" unicode="&#x142;" horiz-adv-x="784" 
d="M14 367v354l133 70v378h-131v304h557v-451l181 98v-352l-181 -98v-205q0 -79 18.5 -104t74.5 -25q5 0 13.5 1t12.5 1h13v-344l-35 -4q-23 -2 -80 -2q-51 0 -90.5 3t-87.5 14t-84 30t-71.5 52.5t-58.5 79.5t-37 114t-14 153v4z" />
    <glyph glyph-name="Nacute" unicode="&#x143;" horiz-adv-x="1777" 
d="M700 1565l232 329h411l-321 -329h-322zM98 0v315h156v842h-156v316h607l339 -654q3 -5 48 -112l20 -58h10l-6 66q-8 52 -8 119v323h-166v316h764v-316h-156v-1157h-446l-344 649q-12 23 -47 111l-21 59h-10l8 -65q6 -39 6 -121v-318h166v-315h-764z" />
    <glyph glyph-name="nacute" unicode="&#x144;" horiz-adv-x="1464" 
d="M559 1143l232 330h411l-321 -330h-322zM623 459v-156h118v-303h-665v303h119v412q0 45 -45 45h-84v303h383q74 0 113.5 -33.5t39.5 -91.5q0 -33 -2 -39t-2 -14h4q24 52 74 102q108 100 270 100q57 0 106 -10.5t97 -38.5t81.5 -71t54 -113t20.5 -160v-391h118v-303h-546
v606q0 53 -19.5 74.5t-62.5 21.5q-89 0 -130.5 -70.5t-41.5 -172.5z" />
    <glyph glyph-name="Ncommaaccent" unicode="&#x145;" horiz-adv-x="1777" 
d="M727 -84h338q16 -54 16 -121q0 -128 -76.5 -211t-201.5 -114l-144 129q99 68 99 174q0 64 -31 143zM98 0v315h156v842h-156v316h607l339 -654q3 -5 48 -112l20 -58h10l-6 66q-8 52 -8 119v323h-166v316h764v-316h-156v-1157h-446l-344 649q-12 23 -47 111l-21 59h-10
l8 -65q6 -39 6 -121v-318h166v-315h-764z" />
    <glyph glyph-name="ncommaaccent" unicode="&#x146;" horiz-adv-x="1464" 
d="M584 -84h338q16 -54 16 -121q0 -128 -77 -211t-202 -114l-143 129q98 68 98 174q0 67 -30 143zM623 459v-156h118v-303h-665v303h119v412q0 45 -45 45h-84v303h383q74 0 113.5 -33.5t39.5 -91.5q0 -33 -2 -39t-2 -14h4q24 52 74 102q108 100 270 100q57 0 106 -10.5
t97 -38.5t81.5 -71t54 -113t20.5 -160v-391h118v-303h-546v606q0 53 -19.5 74.5t-62.5 21.5q-89 0 -130.5 -70.5t-41.5 -172.5z" />
    <glyph glyph-name="Ncaron" unicode="&#x147;" horiz-adv-x="1777" 
d="M692 1565l-213 329h322l92 -170h4l92 170h322l-213 -329h-406zM98 0v315h156v842h-156v316h607l339 -654q3 -5 48 -112l20 -58h10l-6 66q-8 52 -8 119v323h-166v316h764v-316h-156v-1157h-446l-344 649q-12 23 -47 111l-21 59h-10l8 -65q6 -39 6 -121v-318h166v-315h-764
z" />
    <glyph glyph-name="ncaron" unicode="&#x148;" horiz-adv-x="1464" 
d="M551 1143l-213 330h321l93 -170h4l92 170h321l-213 -330h-405zM623 459v-156h118v-303h-665v303h119v412q0 45 -45 45h-84v303h383q74 0 113.5 -33.5t39.5 -91.5q0 -33 -2 -39t-2 -14h4q24 52 74 102q108 100 270 100q57 0 106 -10.5t97 -38.5t81.5 -71t54 -113
t20.5 -160v-391h118v-303h-546v606q0 53 -19.5 74.5t-62.5 21.5q-89 0 -130.5 -70.5t-41.5 -172.5z" />
    <glyph glyph-name="napostrophe" unicode="&#x149;" horiz-adv-x="1464" 
d="M-39 1563h338q16 -54 16 -121q0 -128 -76.5 -211.5t-201.5 -114.5l-143 129q98 68 98 174q0 65 -31 144zM623 459v-156h118v-303h-665v303h119v412q0 45 -45 45h-84v303h383q74 0 113.5 -33.5t39.5 -91.5q0 -33 -2 -39t-2 -14h4q24 52 74 102q108 100 270 100
q57 0 106 -10.5t97 -38.5t81.5 -71t54 -113t20.5 -160v-391h118v-303h-546v606q0 53 -19.5 74.5t-62.5 21.5q-89 0 -130.5 -70.5t-41.5 -172.5z" />
    <glyph glyph-name="Eng" unicode="&#x14a;" horiz-adv-x="1777" 
d="M911 -80h33q143 0 170 70l-354 659q-12 23 -47 111l-21 59h-10l8 -65q6 -39 6 -121v-318h166v-315h-764v315h156v842h-156v316h604l342 -654q3 -5 48 -112l20 -58h10l-6 66q-8 52 -8 119v323h-166v316h764v-316h-156v-1177q0 -74 -21 -135.5t-55 -102.5t-82.5 -72
t-96.5 -48.5t-104.5 -28t-99.5 -14t-87 -3.5q-58 0 -76 2l-29 4v340q2 -2 12 -2z" />
    <glyph glyph-name="eng" unicode="&#x14b;" horiz-adv-x="1415" 
d="M76 0v303h119v412q0 45 -45 45h-84v303h383q73 0 113 -33t40 -88q0 -37 -2 -43t-2 -14h4q22 54 70 102q100 100 272 100q57 0 107 -10.5t97.5 -38.5t81.5 -71t54.5 -113t20.5 -160v-714q0 -74 -21 -135.5t-54.5 -102.5t-81.5 -72t-96 -48.5t-104 -28t-99 -14t-87 -3.5
q-58 0 -76 2l-29 4v340q2 -2 13 -2h32q30 0 56 3.5t55 12.5t46.5 28.5t17.5 47.5v600q0 51 -23.5 70.5t-69.5 19.5q-58 0 -96 -41.5t-51.5 -96.5t-13.5 -122v-139h118v-303h-665z" />
    <glyph glyph-name="Omacron" unicode="&#x14c;" horiz-adv-x="1675" 
d="M547 1599v271h583v-271h-583zM55 745q0 156 58.5 294.5t160.5 239.5t248.5 159.5t315.5 58.5t315.5 -58.5t248.5 -159.5t160 -239.5t58 -294.5q0 -214 -99 -390t-278.5 -278t-404.5 -102q-169 0 -315.5 60t-248.5 163t-160.5 245t-58.5 302zM512 745q0 -164 95.5 -276.5
t230.5 -112.5t230 112.5t95 276.5q0 158 -95 264.5t-230 106.5t-230.5 -106.5t-95.5 -264.5z" />
    <glyph glyph-name="omacron" unicode="&#x14d;" horiz-adv-x="1302" 
d="M360 1178v270h584v-270h-584zM35 526q0 165 82.5 294t222 198t309.5 69q172 0 312.5 -69t223.5 -198t83 -294q0 -123 -48.5 -227.5t-132 -174.5t-196 -109.5t-240.5 -39.5q-171 0 -310.5 66.5t-222.5 193.5t-83 291zM467 526q0 -94 53 -146t131 -52t131.5 52t53.5 146
q0 96 -54 152.5t-131 56.5t-130.5 -56.5t-53.5 -152.5z" />
    <glyph glyph-name="Obreve" unicode="&#x14e;" horiz-adv-x="1675" 
d="M55 745q0 156 58.5 294.5t160.5 239.5t248.5 159.5t315.5 58.5t315.5 -58.5t248.5 -159.5t160 -239.5t58 -294.5q0 -214 -99 -390t-278.5 -278t-404.5 -102q-169 0 -315.5 60t-248.5 163t-160.5 245t-58.5 302zM512 745q0 -164 95.5 -276.5t230.5 -112.5t230 112.5
t95 276.5q0 158 -95 264.5t-230 106.5t-230.5 -106.5t-95.5 -264.5zM838 1552q-167 0 -281.5 88t-114.5 236v18h281v-22q0 -55 36 -86t79 -31q46 0 81 30.5t35 86.5v22h281v-18q0 -148 -115 -236t-282 -88z" />
    <glyph glyph-name="obreve" unicode="&#x14f;" horiz-adv-x="1302" 
d="M35 526q0 165 82.5 294t222 198t309.5 69q172 0 312.5 -69t223.5 -198t83 -294q0 -123 -48.5 -227.5t-132 -174.5t-196 -109.5t-240.5 -39.5q-171 0 -310.5 66.5t-222.5 193.5t-83 291zM467 526q0 -94 53 -146t131 -52t131.5 52t53.5 146q0 96 -54 152.5t-131 56.5
t-130.5 -56.5t-53.5 -152.5zM649 1130q-108 0 -197 37.5t-143.5 112.5t-54.5 174v19h281v-23q0 -56 35.5 -86.5t78.5 -30.5q46 0 81.5 30.5t35.5 86.5v23h281v-19q0 -148 -115.5 -236t-282.5 -88z" />
    <glyph glyph-name="Ohungarumlaut" unicode="&#x150;" horiz-adv-x="1675" 
d="M895 1565l174 329h391l-262 -329h-303zM418 1565l164 329h331l-170 -329h-325zM55 745q0 156 58.5 294.5t160.5 239.5t248.5 159.5t315.5 58.5t315.5 -58.5t248.5 -159.5t160 -239.5t58 -294.5q0 -214 -99 -390t-278.5 -278t-404.5 -102q-169 0 -315.5 60t-248.5 163
t-160.5 245t-58.5 302zM512 745q0 -164 95.5 -276.5t230.5 -112.5t230 112.5t95 276.5q0 158 -95 264.5t-230 106.5t-230.5 -106.5t-95.5 -264.5z" />
    <glyph glyph-name="ohungarumlaut" unicode="&#x151;" horiz-adv-x="1302" 
d="M709 1143l174 330h391l-262 -330h-303zM231 1143l164 330h332l-170 -330h-326zM35 526q0 165 82.5 294t222 198t309.5 69q172 0 312.5 -69t223.5 -198t83 -294q0 -123 -48.5 -227.5t-132 -174.5t-196 -109.5t-240.5 -39.5q-171 0 -310.5 66.5t-222.5 193.5t-83 291z
M467 526q0 -94 53 -146t131 -52t131.5 52t53.5 146q0 96 -54 152.5t-131 56.5t-130.5 -56.5t-53.5 -152.5z" />
    <glyph glyph-name="OE" unicode="&#x152;" horiz-adv-x="2115" 
d="M51 739q0 155 65 294.5t174 239t257.5 158t308.5 58.5q86 0 162 -8t117 -8h868v-478h-342v135h-213v-221h375v-340h-375v-227h233v135h342v-477h-888q-41 0 -117 -7t-162 -7q-160 0 -308.5 59t-257.5 159.5t-174 240.5t-65 294zM498 739q0 -164 106 -282.5t252 -118.5
q70 0 111 6l39 6v772l-39 8q-47 7 -111 7q-147 0 -252.5 -117t-105.5 -281z" />
    <glyph glyph-name="oe" unicode="&#x153;" horiz-adv-x="1957" 
d="M465 528q0 -93 54 -146.5t132 -53.5q77 0 131 54t54 144q0 95 -53.5 152t-131.5 57q-77 0 -131.5 -56t-54.5 -151zM1430 -25q-78 0 -138.5 10.5t-110.5 35.5t-73 40.5t-70 51.5h-4q-47 -34 -77 -53t-79 -42t-107.5 -33t-131.5 -10q-168 0 -305 68t-217 195.5t-80 289.5
q0 164 79.5 292.5t215 197.5t303.5 69q72 0 129 -9t104.5 -28.5t78.5 -37.5t77 -49h4q50 41 88.5 63.5t112.5 41.5t170 19q241 0 376.5 -144t135.5 -378q0 -13 -4 -59l-4 -39h-635q41 -141 198 -141q89 0 201 47q45 19 92 45l150 -293q-45 -35 -125 -74q-160 -76 -354 -76z
M1276 651h197q0 150 -93 150q-13 0 -24.5 -3.5t-20 -8t-16.5 -13.5t-13 -16t-9.5 -19t-7 -19t-5.5 -21t-3.5 -18.5t-2.5 -17.5t-2 -14z" />
    <glyph glyph-name="Racute" unicode="&#x154;" horiz-adv-x="1554" 
d="M551 1565l231 329h412l-322 -329h-321zM696 823h109q56 0 92 23q64 40 64 137q0 72 -43 109.5t-146 37.5h-76v-307zM1395 1022q0 -128 -55.5 -232.5t-155.5 -173.5v-4q26 -11 41 -22q45 -31 63 -76l70 -152q21 -47 92 -47h53v-315h-297q-85 0 -132 25.5t-77 83.5
l-168 337q-15 32 -34 44t-70 12h-29v-187h133v-315h-731v315h156v842h-156v316h678q212 0 307 -27q143 -42 227.5 -154t84.5 -270z" />
    <glyph glyph-name="racute" unicode="&#x155;" horiz-adv-x="1015" 
d="M383 1143l231 330h412l-321 -330h-322zM66 0v303h137v412q0 45 -45 45h-84v303h381q77 0 117 -33t40 -108v-52q0 -26 -2 -32t-2 -13h4q33 107 129 182.5t209 75.5h25q8 0 12 -2v-419l-20 4q-14 2 -58 2q-142 0 -210 -63.5t-68 -203.5v-98h137v-303h-702z" />
    <glyph glyph-name="Rcommaaccent" unicode="&#x156;" horiz-adv-x="1554" 
d="M664 -84h337q17 -57 17 -121q0 -128 -77 -211t-202 -114l-143 129q98 68 98 174q0 67 -30 143zM696 823h109q56 0 92 23q64 40 64 137q0 72 -43 109.5t-146 37.5h-76v-307zM1395 1022q0 -128 -55.5 -232.5t-155.5 -173.5v-4q26 -11 41 -22q45 -31 63 -76l70 -152
q21 -47 92 -47h53v-315h-297q-85 0 -132 25.5t-77 83.5l-168 337q-15 32 -34 44t-70 12h-29v-187h133v-315h-731v315h156v842h-156v316h678q212 0 307 -27q143 -42 227.5 -154t84.5 -270z" />
    <glyph glyph-name="rcommaaccent" unicode="&#x157;" horiz-adv-x="1015" 
d="M248 -84h338q16 -54 16 -121q0 -128 -76.5 -211t-201.5 -114l-144 129q99 68 99 174q0 64 -31 143zM66 0v303h137v412q0 45 -45 45h-84v303h381q77 0 117 -33t40 -108v-52q0 -26 -2 -32t-2 -13h4q33 107 129 182.5t209 75.5h25q8 0 12 -2v-419l-20 4q-14 2 -58 2
q-142 0 -210 -63.5t-68 -203.5v-98h137v-303h-702z" />
    <glyph glyph-name="Rcaron" unicode="&#x158;" horiz-adv-x="1554" 
d="M543 1565l-213 329h321l92 -170h5l92 170h321l-213 -329h-405zM696 823h109q56 0 92 23q64 40 64 137q0 72 -43 109.5t-146 37.5h-76v-307zM1395 1022q0 -128 -55.5 -232.5t-155.5 -173.5v-4q26 -11 41 -22q45 -31 63 -76l70 -152q21 -47 92 -47h53v-315h-297
q-85 0 -132 25.5t-77 83.5l-168 337q-15 32 -34 44t-70 12h-29v-187h133v-315h-731v315h156v842h-156v316h678q212 0 307 -27q143 -42 227.5 -154t84.5 -270z" />
    <glyph glyph-name="rcaron" unicode="&#x159;" horiz-adv-x="1015" 
d="M373 1143l-213 330h321l92 -170h5l92 170h321l-213 -330h-405zM66 0v303h137v412q0 45 -45 45h-84v303h381q77 0 117 -33t40 -108v-52q0 -26 -2 -32t-2 -13h4q33 107 129 182.5t209 75.5h25q8 0 12 -2v-419l-20 4q-14 2 -58 2q-142 0 -210 -63.5t-68 -203.5v-98h137v-303
h-702z" />
    <glyph glyph-name="Sacute" unicode="&#x15a;" horiz-adv-x="1298" 
d="M453 1565l231 329h412l-322 -329h-321zM68 543h393v-92q0 -45 49 -70t125 -25q71 0 112 22.5t41 59.5q0 25 -16 45t-50.5 37.5t-65 29.5t-84 30t-83.5 30q-72 29 -119 52t-102.5 61.5t-87.5 80.5t-54 105.5t-22 141.5q0 102 32.5 181t85.5 128t127.5 81t150.5 44t162 12
q101 0 193 -18.5t167 -54.5t119.5 -94.5t44.5 -131.5v-229h-391v78q0 69 -133 69q-113 0 -113 -65q0 -26 16 -48t49.5 -40t66 -31t83.5 -31q8 -3 12 -4q59 -19 98.5 -34t91.5 -38.5t86.5 -46.5t72 -57t59 -71.5t35.5 -88t14 -108.5q0 -104 -35 -187.5t-93 -137t-137 -89
t-161 -50t-172 -14.5q-112 0 -213 25t-180.5 71t-126.5 119.5t-47 163.5v189z" />
    <glyph glyph-name="sacute" unicode="&#x15b;" horiz-adv-x="1069" 
d="M344 1143l231 330h412l-321 -330h-322zM43 236v155h354v-47q0 -51 107 -51q56 0 77 12t21 35q0 13 -5.5 22t-22.5 17t-33 13t-54 16.5t-67 21.5q-59 19 -100.5 36.5t-90.5 46.5t-79.5 62t-51 82.5t-20.5 108.5q0 73 31 130.5t79.5 92.5t113.5 58t127 31.5t126 8.5
q74 0 146 -12.5t139 -39t108 -75t41 -112.5v-152h-354v37q0 37 -64 37q-69 0 -69 -43q0 -18 12 -31.5t39.5 -24.5t43.5 -15.5t53 -13.5l12 -3q57 -14 102 -28.5t96.5 -41t85.5 -59t57 -82t23 -109.5q0 -86 -44 -153.5t-116.5 -108t-159.5 -61.5t-180 -21q-81 0 -163.5 16
t-155 46.5t-118.5 82.5t-46 116z" />
    <glyph glyph-name="Scircumflex" unicode="&#x15c;" horiz-adv-x="1298" 
d="M231 1565l213 329h406l213 -329h-322l-92 170h-4l-92 -170h-322zM68 543h393v-92q0 -45 49 -70t125 -25q71 0 112 22.5t41 59.5q0 25 -16 45t-50.5 37.5t-65 29.5t-84 30t-83.5 30q-72 29 -119 52t-102.5 61.5t-87.5 80.5t-54 105.5t-22 141.5q0 102 32.5 181t85.5 128
t127.5 81t150.5 44t162 12q101 0 193 -18.5t167 -54.5t119.5 -94.5t44.5 -131.5v-229h-391v78q0 69 -133 69q-113 0 -113 -65q0 -26 16 -48t49.5 -40t66 -31t83.5 -31q8 -3 12 -4q59 -19 98.5 -34t91.5 -38.5t86.5 -46.5t72 -57t59 -71.5t35.5 -88t14 -108.5
q0 -104 -35 -187.5t-93 -137t-137 -89t-161 -50t-172 -14.5q-112 0 -213 25t-180.5 71t-126.5 119.5t-47 163.5v189z" />
    <glyph glyph-name="scircumflex" unicode="&#x15d;" horiz-adv-x="1069" 
d="M123 1143l213 330h405l213 -330h-321l-92 170h-4l-93 -170h-321zM43 236v155h354v-47q0 -51 107 -51q56 0 77 12t21 35q0 13 -5.5 22t-22.5 17t-33 13t-54 16.5t-67 21.5q-59 19 -100.5 36.5t-90.5 46.5t-79.5 62t-51 82.5t-20.5 108.5q0 73 31 130.5t79.5 92.5t113.5 58
t127 31.5t126 8.5q74 0 146 -12.5t139 -39t108 -75t41 -112.5v-152h-354v37q0 37 -64 37q-69 0 -69 -43q0 -18 12 -31.5t39.5 -24.5t43.5 -15.5t53 -13.5l12 -3q57 -14 102 -28.5t96.5 -41t85.5 -59t57 -82t23 -109.5q0 -86 -44 -153.5t-116.5 -108t-159.5 -61.5t-180 -21
q-81 0 -163.5 16t-155 46.5t-118.5 82.5t-46 116z" />
    <glyph glyph-name="Scedilla" unicode="&#x15e;" horiz-adv-x="1298" 
d="M473 -219l70 199q-203 18 -339 117t-136 257v187h393v-90q0 -45 49 -70t125 -25q71 0 112 22.5t41 59.5q0 25 -16 45.5t-50 36.5t-65.5 27.5t-83.5 29t-84 29.5q-60 24 -100 43t-89 48t-80.5 61t-60 74.5t-42 97.5t-13.5 121q0 102 32.5 181t85.5 128t127.5 81t150.5 44
t162 12q101 0 193 -18.5t167 -54.5t119.5 -94.5t44.5 -131.5v-229h-391v78q0 69 -133 69q-113 0 -113 -65q0 -26 16 -48t49.5 -40t66 -31t83.5 -31q8 -3 12 -4q59 -19 98.5 -34t91.5 -38.5t86.5 -46.5t72 -57t59 -71.5t35.5 -88t14 -108.5q0 -93 -28.5 -169t-75.5 -128
t-113 -89.5t-137 -57.5t-150 -27l-31 -78q91 -5 151 -53t60 -134q0 -72 -48.5 -122t-116 -70.5t-146.5 -20.5q-49 0 -106 11q-30 7 -50 10v174q19 -8 31 -10q24 -8 74 -8q36 0 66 10.5t30 36.5q0 53 -113 53h-57z" />
    <glyph glyph-name="scedilla" unicode="&#x15f;" horiz-adv-x="1069" 
d="M371 -219l69 199q-101 9 -188 37.5t-148 86t-61 132.5v155h354v-47q0 -51 107 -51q56 0 77 12t21 35q0 13 -5.5 22t-22.5 17t-33 13t-54 16.5t-67 21.5q-59 19 -100.5 36.5t-90.5 46.5t-79.5 62t-51 82.5t-20.5 108.5q0 73 31 130.5t79.5 92.5t113.5 58t127 31.5t126 8.5
q74 0 146 -12.5t139 -39t108 -75t41 -112.5v-152h-354v37q0 37 -64 37q-69 0 -69 -43q0 -18 12 -31.5t39.5 -24.5t43.5 -15.5t53 -13.5l12 -3q60 -16 102 -30t95.5 -40.5t86.5 -58t56.5 -81t23.5 -110.5q0 -74 -33 -135.5t-90 -102t-127 -65.5t-149 -34l-31 -78
q91 -5 151 -53t60 -134q0 -72 -48.5 -122t-116 -70.5t-146.5 -20.5q-50 0 -107 11q-31 8 -49 10v174q19 -8 31 -10q24 -8 73 -8q36 0 66.5 10.5t30.5 36.5q0 53 -113 53h-57z" />
    <glyph glyph-name="Scaron" unicode="&#x160;" horiz-adv-x="1298" 
d="M444 1565l-213 329h322l92 -170h4l92 170h322l-213 -329h-406zM68 543h393v-92q0 -45 49 -70t125 -25q71 0 112 22.5t41 59.5q0 25 -16 45t-50.5 37.5t-65 29.5t-84 30t-83.5 30q-72 29 -119 52t-102.5 61.5t-87.5 80.5t-54 105.5t-22 141.5q0 102 32.5 181t85.5 128
t127.5 81t150.5 44t162 12q101 0 193 -18.5t167 -54.5t119.5 -94.5t44.5 -131.5v-229h-391v78q0 69 -133 69q-113 0 -113 -65q0 -26 16 -48t49.5 -40t66 -31t83.5 -31q8 -3 12 -4q59 -19 98.5 -34t91.5 -38.5t86.5 -46.5t72 -57t59 -71.5t35.5 -88t14 -108.5
q0 -104 -35 -187.5t-93 -137t-137 -89t-161 -50t-172 -14.5q-112 0 -213 25t-180.5 71t-126.5 119.5t-47 163.5v189z" />
    <glyph glyph-name="scaron" unicode="&#x161;" horiz-adv-x="1069" 
d="M336 1143l-213 330h321l93 -170h4l92 170h321l-213 -330h-405zM43 236v155h354v-47q0 -51 107 -51q56 0 77 12t21 35q0 13 -5.5 22t-22.5 17t-33 13t-54 16.5t-67 21.5q-59 19 -100.5 36.5t-90.5 46.5t-79.5 62t-51 82.5t-20.5 108.5q0 73 31 130.5t79.5 92.5t113.5 58
t127 31.5t126 8.5q74 0 146 -12.5t139 -39t108 -75t41 -112.5v-152h-354v37q0 37 -64 37q-69 0 -69 -43q0 -18 12 -31.5t39.5 -24.5t43.5 -15.5t53 -13.5l12 -3q57 -14 102 -28.5t96.5 -41t85.5 -59t57 -82t23 -109.5q0 -86 -44 -153.5t-116.5 -108t-159.5 -61.5t-180 -21
q-81 0 -163.5 16t-155 46.5t-118.5 82.5t-46 116z" />
    <glyph glyph-name="Tcommaaccent" unicode="&#x162;" horiz-adv-x="1456" 
d="M352 0v315h156v815h-96v-196h-369v539h1370v-539h-366v196h-97v-815h156v-315h-293l-39 -96q91 -5 151 -53t60 -134q0 -72 -48.5 -122t-116 -70.5t-146.5 -20.5q-50 0 -107 11q-31 8 -49 10v174q19 -8 31 -10q24 -8 74 -8q36 0 66 10.5t30 36.5q0 53 -113 53h-57l78 219
h-275z" />
    <glyph glyph-name="tcommaaccent" unicode="&#x163;" horiz-adv-x="880" 
d="M242 -219l106 289q-180 106 -180 323v367h-129v303h143v285h414v-285h209v-303h-209v-320q0 -31 17.5 -52.5t46.5 -31.5t55.5 -14t54.5 -4h47v-342l-31 -4q-18 -2 -77 -2q-106 0 -199 18l-43 -104q91 -5 151 -53t60 -134q0 -72 -48.5 -122t-116 -70.5t-146.5 -20.5
q-50 0 -107 11q-31 8 -49 10v174q19 -8 31 -10q24 -8 73 -8q36 0 66.5 10.5t30.5 36.5q0 53 -113 53h-57z" />
    <glyph glyph-name="Tcaron" unicode="&#x164;" horiz-adv-x="1456" 
d="M524 1565l-213 329h322l92 -170h4l92 170h322l-213 -329h-406zM352 0v315h156v815h-96v-196h-369v539h1370v-539h-366v196h-97v-815h156v-315h-754z" />
    <glyph glyph-name="tcaron" unicode="&#x165;" horiz-adv-x="878" 
d="M756 1561h338q16 -54 16 -121q0 -128 -77 -211.5t-202 -114.5l-143 129q98 68 98 174q0 67 -30 144zM166 393v367h-129v303h143v285h414v-285h209v-303h-209v-320q0 -31 17.5 -52.5t46.5 -31.5t55.5 -14t54.5 -4h47v-342l-31 -4q-18 -2 -77 -2q-45 0 -89 3.5t-99.5 14.5
t-103 29t-94.5 49t-80.5 72t-54 101.5t-20.5 133.5z" />
    <glyph glyph-name="Tbar" unicode="&#x166;" horiz-adv-x="1456" 
d="M193 539v270h315v321h-96v-196h-369v539h1370v-539h-366v196h-97v-321h316v-270h-316v-224h156v-315h-754v315h156v224h-315z" />
    <glyph glyph-name="tbar" unicode="&#x167;" horiz-adv-x="878" 
d="M37 422v258h129v104h-129v279h143v285h414v-285h209v-279h-209v-104h197v-258h-201q4 -29 22.5 -47.5t49.5 -25.5t53 -9t53 -2h47v-342l-31 -4q-18 -2 -77 -2q-45 0 -89 3.5t-99.5 14.5t-103 29t-94.5 49t-80.5 72t-54 101.5t-20.5 133.5v29h-129z" />
    <glyph glyph-name="Utilde" unicode="&#x168;" horiz-adv-x="1701" 
d="M207 569v588h-154v316h748v-316h-152v-590q0 -71 29 -127q24 -39 70 -61.5t106 -22.5q113 0 168 80q31 47 31 131v590h-152v316h750v-316h-156v-588q0 -113 -35 -218t-96 -177q-87 -99 -223.5 -149t-288.5 -50q-159 0 -291 50t-219 141q-135 141 -135 403zM678 1563h-268
q0 166 70 252t200 86q58 0 102.5 -18t66.5 -39.5t50.5 -39.5t56.5 -18q72 0 72 108h266q0 -166 -69.5 -252t-198.5 -86q-59 0 -104 18.5t-67 40t-49.5 40t-55.5 18.5q-34 0 -53 -24t-19 -86z" />
    <glyph glyph-name="utilde" unicode="&#x169;" horiz-adv-x="1445" 
d="M840 606v154h-129v303h557v-713q0 -45 45 -45h78v-305h-377q-154 0 -154 131q0 25 2 35q2 6 2 16h-4q-20 -55 -67 -102q-105 -105 -271 -105q-70 0 -129.5 19.5t-112 62.5t-82.5 122.5t-30 189.5v391h-129v303h557v-619q0 -53 18 -74.5t60 -21.5q80 0 123 74.5t43 183.5z
M508 1141h-268q0 166 70 252t200 86q58 0 102.5 -18t66.5 -39.5t50.5 -39.5t56.5 -18q72 0 72 109h266q0 -166 -69.5 -252t-198.5 -86q-48 0 -86.5 12t-62 29t-43 34t-40.5 29t-44 12q-34 0 -53 -24t-19 -86z" />
    <glyph glyph-name="Umacron" unicode="&#x16a;" horiz-adv-x="1701" 
d="M207 569v588h-154v316h748v-316h-152v-590q0 -71 29 -127q24 -39 70 -61.5t106 -22.5q113 0 168 80q31 47 31 131v590h-152v316h750v-316h-156v-588q0 -113 -35 -218t-96 -177q-87 -99 -223.5 -149t-288.5 -50q-159 0 -291 50t-219 141q-135 141 -135 403zM561 1599v271
h584v-271h-584z" />
    <glyph glyph-name="umacron" unicode="&#x16b;" horiz-adv-x="1445" 
d="M840 606v154h-129v303h557v-713q0 -45 45 -45h78v-305h-377q-154 0 -154 131q0 25 2 35q2 6 2 16h-4q-20 -55 -67 -102q-105 -105 -271 -105q-70 0 -129.5 19.5t-112 62.5t-82.5 122.5t-30 189.5v391h-129v303h557v-619q0 -53 18 -74.5t60 -21.5q80 0 123 74.5t43 183.5z
M391 1178v270h584v-270h-584z" />
    <glyph glyph-name="Ubreve" unicode="&#x16c;" horiz-adv-x="1701" 
d="M207 569v588h-154v316h748v-316h-152v-590q0 -71 29 -127q24 -39 70 -61.5t106 -22.5q113 0 168 80q31 47 31 131v590h-152v316h750v-316h-156v-588q0 -113 -35 -218t-96 -177q-87 -99 -223.5 -149t-288.5 -50q-159 0 -291 50t-219 141q-135 141 -135 403zM850 1552
q-108 0 -197 37.5t-143.5 112.5t-54.5 174v18h280v-22q0 -55 36 -86t79 -31q46 0 81.5 30.5t35.5 86.5v22h280v-18q0 -148 -115 -236t-282 -88z" />
    <glyph glyph-name="ubreve" unicode="&#x16d;" horiz-adv-x="1445" 
d="M840 606v154h-129v303h557v-713q0 -45 45 -45h78v-305h-377q-154 0 -154 131q0 25 2 35q2 6 2 16h-4q-20 -55 -67 -102q-105 -105 -271 -105q-70 0 -129.5 19.5t-112 62.5t-82.5 122.5t-30 189.5v391h-129v303h557v-619q0 -53 18 -74.5t60 -21.5q80 0 123 74.5t43 183.5z
M680 1130q-108 0 -197 37.5t-143.5 112.5t-54.5 174v19h280v-23q0 -55 36 -86t79 -31q46 0 81.5 30.5t35.5 86.5v23h280v-19q0 -148 -115 -236t-282 -88z" />
    <glyph glyph-name="Uring" unicode="&#x16e;" horiz-adv-x="1701" 
d="M850 1538q-66 0 -123 19.5t-98 65.5t-41 112q0 67 41 114t98 66.5t123 19.5q67 0 125.5 -19.5t100.5 -66.5t42 -114q0 -66 -42 -112t-100.5 -65.5t-125.5 -19.5zM850 1657q35 0 57.5 21.5t22.5 56.5q0 36 -22 58t-58 22q-33 0 -53.5 -22t-20.5 -58t19.5 -57t54.5 -21z
M207 569v588h-154v316h748v-316h-152v-590q0 -71 29 -127q24 -39 70 -61.5t106 -22.5q113 0 168 80q31 47 31 131v590h-152v316h750v-316h-156v-588q0 -113 -35 -218t-96 -177q-87 -99 -223.5 -149t-288.5 -50q-159 0 -291 50t-219 141q-135 141 -135 403z" />
    <glyph glyph-name="uring" unicode="&#x16f;" horiz-adv-x="1445" 
d="M680 1116q-66 0 -123 19.5t-98 65.5t-41 112q0 67 41 114t98 66.5t123 19.5q67 0 125.5 -19.5t100.5 -66.5t42 -114q0 -66 -42 -112t-100.5 -65.5t-125.5 -19.5zM680 1235q35 0 57.5 21.5t22.5 56.5q0 36 -22 58t-58 22q-33 0 -53.5 -22t-20.5 -58t19.5 -57t54.5 -21z
M840 606v154h-129v303h557v-713q0 -45 45 -45h78v-305h-377q-154 0 -154 131q0 25 2 35q2 6 2 16h-4q-20 -55 -67 -102q-105 -105 -271 -105q-70 0 -129.5 19.5t-112 62.5t-82.5 122.5t-30 189.5v391h-129v303h557v-619q0 -53 18 -74.5t60 -21.5q80 0 123 74.5t43 183.5z
" />
    <glyph glyph-name="Uhungarumlaut" unicode="&#x170;" horiz-adv-x="1701" 
d="M207 569v588h-154v316h748v-316h-152v-590q0 -71 29 -127q24 -39 70 -61.5t106 -22.5q113 0 168 80q31 47 31 131v590h-152v316h750v-316h-156v-588q0 -113 -35 -218t-96 -177q-87 -99 -223.5 -149t-288.5 -50q-159 0 -291 50t-219 141q-135 141 -135 403zM909 1565
l174 329h392l-263 -329h-303zM432 1565l164 329h332l-170 -329h-326z" />
    <glyph glyph-name="uhungarumlaut" unicode="&#x171;" horiz-adv-x="1445" 
d="M840 606v154h-129v303h557v-713q0 -45 45 -45h78v-305h-377q-154 0 -154 131q0 25 2 35q2 6 2 16h-4q-20 -55 -67 -102q-105 -105 -271 -105q-70 0 -129.5 19.5t-112 62.5t-82.5 122.5t-30 189.5v391h-129v303h557v-619q0 -53 18 -74.5t60 -21.5q80 0 123 74.5t43 183.5z
M737 1143l174 330h392l-263 -330h-303zM260 1143l164 330h332l-170 -330h-326z" />
    <glyph glyph-name="Uogonek" unicode="&#x172;" horiz-adv-x="1701" 
d="M207 551v606h-156v316h754v-316h-156v-606q0 -96 53 -145.5t148 -49.5t148 48.5t53 144.5v608h-156v316h754v-316h-156v-606q0 -175 -89.5 -307.5t-248.5 -214.5q-16 -9 -31 -19.5t-38 -30.5t-39.5 -41t-28.5 -50.5t-12 -59.5q0 -35 22 -55t90 -25l-65 -264
q-174 16 -256 83.5t-82 164.5q0 135 112 241q-146 4 -264.5 50t-195.5 124t-118.5 181.5t-41.5 222.5z" />
    <glyph glyph-name="uogonek" unicode="&#x173;" horiz-adv-x="1445" 
d="M596 1063v-619q0 -53 18 -74.5t60 -21.5q80 0 123 74.5t43 183.5v154h-129v303h557v-713q0 -45 45 -45h78v-305h-7q-52 0 -100.5 -59.5t-48.5 -114.5q0 -14 3.5 -25t14 -23t34 -20t59.5 -10l-68 -264q-174 18 -255 84.5t-81 163.5q0 156 137 268h-63q-76 0 -116 32.5
t-40 88.5v41q0 3 1 5t1 5v6h-4q-25 -51 -74 -100q-111 -103 -260 -103q-71 0 -131.5 19.5t-112.5 62.5t-82 122.5t-30 189.5v391h-129v303h557z" />
    <glyph glyph-name="Wcircumflex" unicode="&#x174;" horiz-adv-x="2158" 
d="M664 1565l213 329h405l213 -329h-321l-93 170h-4l-92 -170h-321zM33 1157v316h710v-316h-168l93 -510q4 -22 8.5 -62t7.5 -55q4 -36 4 -57h8l6 57l21 117l188 826h334l191 -826q6 -24 12.5 -68t7.5 -49l6 -57h8l5 57q2 36 14 117l94 510h-170v316h713v-316h-115
l-276 -1157h-484l-141 621q-6 30 -20 122l-7 62h-8l-8 -62q-17 -108 -20 -122l-142 -621h-483l-275 1157h-114z" />
    <glyph glyph-name="wcircumflex" unicode="&#x175;" horiz-adv-x="1812" 
d="M487 1143l213 330h406l213 -330h-322l-92 170h-4l-92 -170h-322zM27 760v303h606v-303h-94l36 -256q3 -17 6.5 -54t6.5 -53l6 -53h8l6 53q3 17 9 55t8 52l112 559h336l113 -559q4 -19 9 -56.5t7 -50.5l6 -53h11l6 53q3 16 5 53t5 54l37 256h-94v303h608v-303h-117
l-170 -760h-498l-71 412q-14 91 -15 106l-4 51h-10l-4 -51q-4 -55 -14 -106l-72 -412h-498l-170 760h-116z" />
    <glyph glyph-name="Ycircumflex" unicode="&#x176;" horiz-adv-x="1394" 
d="M319 0v315h156v279l-336 563h-119v316h627v-316h-80l95 -184q5 -9 26 -58l8 -20h4l9 20q22 52 26 58l94 184h-79v316h624v-316h-119l-337 -563v-279h155v-315h-754zM287 1565l213 329h405l213 -329h-321l-92 170h-5l-92 -170h-321z" />
    <glyph glyph-name="ycircumflex" unicode="&#x177;" horiz-adv-x="1314" 
d="M4 -340l127 299q25 -17 47 -25q53 -24 139 -24q54 0 100.5 17t57.5 46l-346 787h-113v303h613v-303h-70l82 -287q6 -16 10 -33.5t8 -41.5t5 -31q4 -36 4 -52h8l10 52q14 75 27 106l75 287h-61v303h571v-303h-100l-305 -819q-141 -371 -551 -371q-131 0 -246 45
q-49 20 -92 45zM248 1143l213 330h405l213 -330h-321l-92 170h-4l-93 -170h-321z" />
    <glyph glyph-name="Ydieresis" unicode="&#x178;" horiz-adv-x="1394" 
d="M319 0v315h156v279l-336 563h-119v316h627v-316h-80l95 -184q5 -9 26 -58l8 -20h4l9 20q22 52 26 58l94 184h-79v316h624v-316h-119l-337 -563v-279h155v-315h-754zM817 1569v325h301v-325h-301zM293 1569v325h299v-325h-299z" />
    <glyph glyph-name="Zacute" unicode="&#x179;" horiz-adv-x="1376" 
d="M506 1565l231 329h412l-322 -329h-321zM94 0v268l578 795q14 20 45 51l22 19v4q-18 0 -28 -2q-45 -5 -62 -5h-180v-196h-369v539h1164v-263l-582 -800q-5 -8 -11.5 -16t-11 -12.5t-12 -11.5t-10.5 -10l-23 -20v-4l31 4q18 2 60 2h217v207h368v-549h-1196z" />
    <glyph glyph-name="zacute" unicode="&#x17a;" horiz-adv-x="1150" 
d="M369 1143l231 330h412l-322 -330h-321zM76 258l454 442q30 31 48 43l20 17v4q-21 0 -33 -2q-23 -2 -65 -2h-74v-109h-354v412h981v-260l-443 -441q-46 -41 -49 -43l-20 -16v-4q22 0 34 2q23 2 66 2h96v109h355v-412h-1016v258z" />
    <glyph glyph-name="Zdotaccent" unicode="&#x17b;" horiz-adv-x="1376" 
d="M94 0v268l578 795q14 20 45 51l22 19v4q-18 0 -28 -2q-45 -5 -62 -5h-180v-196h-369v539h1164v-263l-582 -800q-5 -8 -11.5 -16t-11 -12.5t-12 -11.5t-10.5 -10l-23 -20v-4l31 4q18 2 60 2h217v207h368v-549h-1196zM528 1591v303h344v-303h-344z" />
    <glyph glyph-name="zdotaccent" unicode="&#x17c;" horiz-adv-x="1150" 
d="M76 258l454 442q30 31 48 43l20 17v4q-21 0 -33 -2q-23 -2 -65 -2h-74v-109h-354v412h981v-260l-443 -441q-46 -41 -49 -43l-20 -16v-4q22 0 34 2q23 2 66 2h96v109h355v-412h-1016v258zM391 1169v304h344v-304h-344z" />
    <glyph glyph-name="Zcaron" unicode="&#x17d;" horiz-adv-x="1376" 
d="M496 1565l-213 329h321l92 -170h4l93 170h321l-213 -329h-405zM94 0v268l578 795q14 20 45 51l22 19v4q-18 0 -28 -2q-45 -5 -62 -5h-180v-196h-369v539h1164v-263l-582 -800q-5 -8 -11.5 -16t-11 -12.5t-12 -11.5t-10.5 -10l-23 -20v-4l31 4q18 2 60 2h217v207h368v-549
h-1196z" />
    <glyph glyph-name="zcaron" unicode="&#x17e;" horiz-adv-x="1150" 
d="M358 1143l-213 330h322l92 -170h4l92 170h322l-213 -330h-406zM76 258l454 442q30 31 48 43l20 17v4q-21 0 -33 -2q-23 -2 -65 -2h-74v-109h-354v412h981v-260l-443 -441q-46 -41 -49 -43l-20 -16v-4q22 0 34 2q23 2 66 2h96v109h355v-412h-1016v258z" />
    <glyph glyph-name="longs" unicode="&#x17f;" horiz-adv-x="815" 
d="M629 1112v-809h143v-303h-696v303h125v457h-135v303h135v39q0 73 19 133t50 100.5t75.5 71.5t89 49t97 29t94.5 14.5t85 3.5q52 0 102 -4l39 -6v-330l-31 4q-36 4 -73 4q-64 0 -91.5 -14.5t-27.5 -44.5z" />
    <glyph glyph-name="florin" unicode="&#x192;" horiz-adv-x="1140" 
d="M-14 -254v358l53 -6q41 -8 104 -8q73 0 113.5 25t46.5 88l33 395h-109v330h140l16 172q7 72 32 131.5t60.5 99.5t82.5 71t93.5 48.5t98 28.5t91.5 14.5t79 3.5q84 0 139 -8l67 -8v-359l-53 8q-36 7 -106 7q-74 0 -115.5 -25t-48.5 -88l-10 -96h174v-330h-203l-41 -473
q-7 -72 -32 -131.5t-60.5 -99.5t-82.5 -71t-93 -48.5t-98 -28.5t-91.5 -14.5t-77.5 -3.5q-85 0 -137 8q-27 2 -65 10z" />
    <glyph glyph-name="Scommaaccent" unicode="&#x218;" horiz-adv-x="1298" 
d="M483 -84h338q17 -57 17 -121q0 -128 -77 -211t-202 -114l-143 129q98 68 98 174q0 64 -31 143zM68 543h393v-92q0 -45 49 -70t125 -25q71 0 112 22.5t41 59.5q0 25 -16 45t-50.5 37.5t-65 29.5t-84 30t-83.5 30q-72 29 -119 52t-102.5 61.5t-87.5 80.5t-54 105.5
t-22 141.5q0 102 32.5 181t85.5 128t127.5 81t150.5 44t162 12q101 0 193 -18.5t167 -54.5t119.5 -94.5t44.5 -131.5v-229h-391v78q0 69 -133 69q-113 0 -113 -65q0 -26 16 -48t49.5 -40t66 -31t83.5 -31q8 -3 12 -4q59 -19 98.5 -34t91.5 -38.5t86.5 -46.5t72 -57t59 -71.5
t35.5 -88t14 -108.5q0 -104 -35 -187.5t-93 -137t-137 -89t-161 -50t-172 -14.5q-112 0 -213 25t-180.5 71t-126.5 119.5t-47 163.5v189z" />
    <glyph glyph-name="scommaaccent" unicode="&#x219;" horiz-adv-x="1069" 
d="M383 -84h338q16 -54 16 -121q0 -128 -76.5 -211t-201.5 -114l-144 129q99 68 99 174q0 64 -31 143zM43 236v155h354v-47q0 -51 107 -51q56 0 77 12t21 35q0 13 -5.5 22t-22.5 17t-33 13t-54 16.5t-67 21.5q-59 19 -100.5 36.5t-90.5 46.5t-79.5 62t-51 82.5t-20.5 108.5
q0 73 31 130.5t79.5 92.5t113.5 58t127 31.5t126 8.5q74 0 146 -12.5t139 -39t108 -75t41 -112.5v-152h-354v37q0 37 -64 37q-69 0 -69 -43q0 -18 12 -31.5t39.5 -24.5t43.5 -15.5t53 -13.5l12 -3q57 -14 102 -28.5t96.5 -41t85.5 -59t57 -82t23 -109.5q0 -86 -44 -153.5
t-116.5 -108t-159.5 -61.5t-180 -21q-81 0 -163.5 16t-155 46.5t-118.5 82.5t-46 116z" />
    <glyph glyph-name="uni021A" unicode="&#x21a;" horiz-adv-x="1456" 
d="M561 -84h338q16 -54 16 -121q0 -128 -76.5 -211t-201.5 -114l-143 129q98 68 98 174q0 64 -31 143zM352 0v315h156v815h-96v-196h-369v539h1370v-539h-366v196h-97v-815h156v-315h-754z" />
    <glyph glyph-name="uni021B" unicode="&#x21b;" horiz-adv-x="878" 
d="M317 -84h338q17 -57 17 -121q0 -128 -77 -211t-202 -114l-143 129q98 68 98 174q0 64 -31 143zM166 393v367h-129v303h143v285h414v-285h209v-303h-209v-320q0 -31 17.5 -52.5t46.5 -31.5t55.5 -14t54.5 -4h47v-342l-31 -4q-18 -2 -77 -2q-45 0 -89 3.5t-99.5 14.5
t-103 29t-94.5 49t-80.5 72t-54 101.5t-20.5 133.5z" />
    <glyph glyph-name="circumflex" unicode="&#x2c6;" horiz-adv-x="983" 
d="M76 1565l213 329h405l213 -329h-321l-92 170h-5l-92 -170h-321z" />
    <glyph glyph-name="caron" unicode="&#x2c7;" horiz-adv-x="983" 
d="M289 1565l-213 329h321l92 -170h5l92 170h321l-213 -329h-405z" />
    <glyph glyph-name="breve" unicode="&#x2d8;" horiz-adv-x="976" 
d="M487 1552q-108 0 -197 37.5t-143.5 112.5t-54.5 174v18h281v-22q0 -56 35.5 -86.5t78.5 -30.5q46 0 81.5 30.5t35.5 86.5v22h281v-18q0 -148 -115.5 -236t-282.5 -88z" />
    <glyph glyph-name="dotaccent" unicode="&#x2d9;" horiz-adv-x="978" 
d="M317 1591v303h345v-303h-345z" />
    <glyph glyph-name="ring" unicode="&#x2da;" horiz-adv-x="978" 
d="M487 1538q-66 0 -123 19.5t-98 65.5t-41 112q0 67 41 114t98 66.5t123 19.5q67 0 125.5 -19.5t101 -66.5t42.5 -114q0 -50 -24 -89t-64 -62t-86 -34.5t-95 -11.5zM487 1657q35 0 57.5 21.5t22.5 56.5q0 36 -22 58t-58 22q-33 0 -53 -22t-20 -58t19 -57t54 -21z" />
    <glyph glyph-name="ogonek" unicode="&#x2db;" horiz-adv-x="983" 
d="M238 -268q0 57 18.5 110.5t69 110t129.5 98.5h229v-51q-50 0 -102 -63.5t-52 -120.5q0 -1 -0.5 -7.5t0 -8.5t2 -9t4.5 -10t8 -8.5t13.5 -8.5t20 -7t27.5 -6t36 -3l-66 -264q-174 16 -255.5 83.5t-81.5 164.5z" />
    <glyph glyph-name="tilde" unicode="&#x2dc;" horiz-adv-x="978" 
d="M315 1563h-268q0 166 70 252t200 86q58 0 102.5 -18t67 -39.5t51 -39.5t56.5 -18q72 0 72 108h266q0 -166 -69.5 -252t-198.5 -86q-59 0 -104.5 18.5t-67.5 40t-49.5 40t-55.5 18.5q-34 0 -53 -24t-19 -86z" />
    <glyph glyph-name="hungarumlaut" unicode="&#x2dd;" horiz-adv-x="978" 
d="M446 1565l175 329h391l-262 -329h-304zM-31 1565l164 329h332l-170 -329h-326z" />
    <glyph glyph-name="uni1E9E" unicode="&#x1e9e;" horiz-adv-x="1601" 
d="M55 0v315h158v590q0 259 159 413.5t425 154.5h647v-295l-158 -236q-20 -32 -37 -49l-20 -25v-4q85 -27 149 -77t99 -110t52 -119t17 -116q0 -62 -18.5 -124t-61.5 -124.5t-106 -110t-160.5 -77t-216.5 -29.5q-89 0 -201 21v364l43 -8q45 -10 90 -10q99 0 143 32t44 77
q0 117 -291 135v237l135 205q19 31 41 53q10 13 23 23v4q-17 0 -27 -2q-32 -4 -61 -4h-125q-69 0 -105.5 -49t-36.5 -140v-915h-600z" />
    <glyph glyph-name="thinspace" unicode="&#x2009;" horiz-adv-x="446" 
 />
    <glyph glyph-name="endash" unicode="&#x2013;" horiz-adv-x="1538" 
d="M125 432v316h1288v-316h-1288z" />
    <glyph glyph-name="emdash" unicode="&#x2014;" horiz-adv-x="1947" 
d="M125 432v316h1698v-316h-1698z" />
    <glyph glyph-name="quoteleft" unicode="&#x2018;" horiz-adv-x="569" 
d="M51 928l205 579h283l-121 -579h-367z" />
    <glyph glyph-name="quoteright" unicode="&#x2019;" horiz-adv-x="552" 
d="M63 928l121 579h369l-207 -579h-283z" />
    <glyph glyph-name="quotesinglbase" unicode="&#x201a;" horiz-adv-x="581" 
d="M31 -182l121 581h354l-205 -581h-270z" />
    <glyph glyph-name="quotedblleft" unicode="&#x201c;" horiz-adv-x="1032" 
d="M512 928l205 579h284l-120 -579h-369zM51 928l205 579h287l-121 -579h-371z" />
    <glyph glyph-name="quotedblright" unicode="&#x201d;" horiz-adv-x="1015" 
d="M524 928l121 579h371l-207 -579h-285zM63 928l121 579h371l-205 -579h-287z" />
    <glyph glyph-name="quotedblbase" unicode="&#x201e;" horiz-adv-x="1026" 
d="M475 -182l121 581h354l-205 -581h-270zM31 -182l121 581h354l-205 -581h-270z" />
    <glyph glyph-name="dagger" unicode="&#x2020;" horiz-adv-x="1091" 
d="M344 -102v850h-276v315h276v410h406v-410h274v-315h-274v-850h-406z" />
    <glyph glyph-name="daggerdbl" unicode="&#x2021;" horiz-adv-x="1099" 
d="M72 287v317h274v144h-274v315h274v410h406v-410h276v-315h-276v-144h276v-317h-276v-389h-406v389h-274z" />
    <glyph glyph-name="bullet" unicode="&#x2022;" horiz-adv-x="964" 
d="M481 184q-171 0 -290 120.5t-119 291.5t119 291.5t290 120.5q170 0 291 -121t121 -291t-121 -291t-291 -121z" />
    <glyph glyph-name="ellipsis" unicode="&#x2026;" horiz-adv-x="2043" 
d="M1559 0v391h376v-391h-376zM834 0v391h376v-391h-376zM109 0v391h376v-391h-376z" />
    <glyph glyph-name="perthousand" unicode="&#x2030;" horiz-adv-x="2736" 
d="M475 743q-167 0 -283 109.5t-116 267.5q0 155 116.5 266t282.5 111q165 0 282 -111.5t117 -265.5q0 -158 -116.5 -267.5t-282.5 -109.5zM182 0l1143 1473h367l-1143 -1473h-367zM475 1034q39 0 66.5 25t27.5 63q0 35 -27.5 59.5t-66.5 24.5q-37 0 -65.5 -24.5
t-28.5 -59.5q0 -37 28 -62.5t66 -25.5zM1882 350q0 155 116.5 267t282.5 112q164 0 281 -112.5t117 -266.5q0 -155 -117 -265t-281 -110q-167 0 -283 109.5t-116 265.5zM1014 350q0 155 116.5 267t282.5 112q164 0 280.5 -112.5t116.5 -266.5q0 -155 -116.5 -265
t-280.5 -110q-167 0 -283 109.5t-116 265.5zM2187 354q0 -38 27.5 -63t66.5 -25q38 0 66.5 25.5t28.5 62.5q0 35 -29 59.5t-66 24.5q-39 0 -66.5 -24.5t-27.5 -59.5zM1317 354q0 -38 28.5 -63t67.5 -25q38 0 66 25.5t28 62.5q0 35 -28.5 59.5t-65.5 24.5q-39 0 -67.5 -24.5
t-28.5 -59.5z" />
    <glyph glyph-name="guilsinglleft" unicode="&#x2039;" horiz-adv-x="831" 
d="M381 158l-336 420l336 421h381l-336 -421l336 -420h-381z" />
    <glyph glyph-name="guilsinglright" unicode="&#x203a;" horiz-adv-x="833" 
d="M70 158l336 420l-336 421h383l335 -421l-335 -420h-383z" />
    <glyph glyph-name="fraction" unicode="&#x2044;" horiz-adv-x="399" 
d="M-283 0l689 1473h284l-688 -1473h-285z" />
    <glyph glyph-name="zerosuperior" unicode="&#x2070;" horiz-adv-x="839" 
d="M420 846q-99 0 -171 37t-112.5 104t-59 149.5t-18.5 184.5q0 473 361 473q98 0 169.5 -36t112 -102t59.5 -149t19 -186q0 -102 -19 -184.5t-59.5 -149.5t-112 -104t-169.5 -37zM420 1124q72 0 72 197q0 190 -72 190t-72 -190q0 -197 72 -197z" />
    <glyph glyph-name="foursuperior" unicode="&#x2074;" horiz-adv-x="880" 
d="M424 866v172h-393v193l321 543h375v-517h100v-219h-100v-172h-303zM276 1257h148v193q0 42 6 72l6 37h-10l-10 -35q-9 -36 -29 -68l-111 -194v-5z" />
    <glyph glyph-name="fivesuperior" unicode="&#x2075;" horiz-adv-x="825" 
d="M391 846q-138 0 -254 57q-52 24 -98 58l131 196q28 -19 61 -33q78 -32 131 -32q42 0 70.5 17t28.5 52q0 70 -107 70q-44 0 -82 -10q-3 -1 -14.5 -5.5t-17.5 -5.5l-156 68l39 496h608v-316h-231v90h-150l-6 -108q0 -17 -2 -23l-4 -12l4 -2l31 10q33 10 78 10
q146 0 232.5 -71t86.5 -185q0 -56 -23 -111t-67.5 -103t-119.5 -77.5t-169 -29.5z" />
    <glyph glyph-name="sixsuperior" unicode="&#x2076;" horiz-adv-x="825" 
d="M442 846q-57 0 -111.5 14.5t-106 48t-90 82.5t-62 123.5t-23.5 165.5q0 77 19 151.5t58 140t92.5 115t126.5 78.5t157 29q93 0 166 -25q29 -7 63 -26l-67 -244l-50 17q-62 16 -92 16q-23 0 -36 -1.5t-33.5 -8.5t-36 -25.5t-25.5 -48.5q36 8 78 8q131 0 219 -81.5
t88 -213.5q0 -56 -21.5 -110.5t-62 -101t-106 -75t-144.5 -28.5zM442 1081q66 0 66 78q0 43 -26 77t-79 34q-65 0 -65 -51q0 -63 31.5 -100.5t72.5 -37.5z" />
    <glyph glyph-name="sevensuperior" unicode="&#x2077;" horiz-adv-x="800" 
d="M76 866l344 631q9 20 22 37l13 14v11l-23 -5q-42 -6 -45 -6h-102v-90h-232v316h721v-207l-381 -701h-317z" />
    <glyph glyph-name="eightsuperior" unicode="&#x2078;" horiz-adv-x="843" 
d="M426 846q-96 0 -180.5 32t-139.5 96.5t-55 147.5q0 123 129 230q-44 42 -65 79t-21 93q0 87 49 150t122 91.5t157 28.5q86 0 164 -30t130 -91.5t52 -140.5q0 -24 -5.5 -48t-12.5 -41t-20.5 -39t-21 -31.5t-23.5 -29.5t-19 -24q59 -41 90.5 -85.5t31.5 -111.5
q0 -68 -32 -122t-84.5 -87t-115.5 -50t-130 -17zM459 1407q9 9 22 31q21 38 21 65q0 32 -24.5 49t-53.5 17q-23 0 -40 -15.5t-17 -44.5q0 -65 92 -102zM416 1071q30 0 57 16t27 48q0 33 -35.5 59.5t-102.5 56.5q-40 -47 -40 -96q0 -39 28 -61.5t66 -22.5z" />
    <glyph glyph-name="ninesuperior" unicode="&#x2079;" horiz-adv-x="825" 
d="M383 1794q57 0 111.5 -14.5t106 -48t90 -82.5t62 -123.5t23.5 -165.5q0 -97 -31 -188.5t-87 -164.5t-143 -117t-191 -44q-90 0 -166 26q-33 8 -64 25l68 244l49 -17q62 -16 92 -16q17 0 27.5 0.5t29 5t30.5 12.5t24.5 25t19.5 41q-36 -8 -78 -8q-131 0 -219 81.5
t-88 213.5q0 56 21.5 110.5t62 101t106 75t144.5 28.5zM383 1559q-66 0 -66 -78q0 -43 26 -77t79 -34q65 0 65 51q0 63 -31.5 100.5t-72.5 37.5z" />
    <glyph glyph-name="zeroinferior" unicode="&#x2080;" horiz-adv-x="839" 
d="M420 -342q-100 0 -171.5 36.5t-112 103t-59 149t-18.5 186.5q0 473 361 473q98 0 169.5 -36t112 -102t59.5 -149t19 -186t-19 -186t-59.5 -149.5t-112 -103t-169.5 -36.5zM420 -63q72 0 72 196q0 191 -72 191t-72 -191q0 -196 72 -196z" />
    <glyph glyph-name="oneinferior" unicode="&#x2081;" horiz-adv-x="815" 
d="M76 -322v236h200v223q0 20 5 45l4 17h-11l-6 -13q-2 -4 -20 -22l-47 -37l-172 190l293 269h260v-672h204v-236h-710z" />
    <glyph glyph-name="twoinferior" unicode="&#x2082;" horiz-adv-x="845" 
d="M49 -207q0 72 22.5 133t58.5 102t79.5 75t87 57.5t79.5 44t58.5 41t22.5 41.5q0 39 -62 39q-49 0 -96 -43q-29 -29 -41 -45l-203 170q35 54 90 100q126 98 285 98q140 0 238 -73.5t98 -208.5q0 -55 -21 -101.5t-55.5 -79.5t-75.5 -60.5t-83 -49t-77.5 -40t-59.5 -39
t-27 -40.5h178v80h233v-316h-715l-6 43q-8 33 -8 72z" />
    <glyph glyph-name="threeinferior" unicode="&#x2083;" horiz-adv-x="823" 
d="M66 270v316h667v-193l-166 -188q201 -51 201 -219q0 -61 -23 -118t-66.5 -105t-117 -76.5t-164.5 -28.5q-142 0 -256 70q-46 26 -84 71l144 207q29 -29 47 -41q55 -41 127 -41q84 0 84 53q0 24 -27 32.5t-76 8.5h-63l-35 136l135 157q5 7 33 35q6 6 18 14v9l-24 -4
q-35 -5 -49 -5h-74v-90h-231z" />
    <glyph glyph-name="fourinferior" unicode="&#x2084;" horiz-adv-x="880" 
d="M424 -322v172h-393v193l321 543h375v-516h100v-220h-100v-172h-303zM276 70h148v192q0 42 6 72l6 37h-10l-10 -35q-9 -36 -29 -68l-111 -194v-4z" />
    <glyph glyph-name="fiveinferior" unicode="&#x2085;" horiz-adv-x="825" 
d="M391 -342q-138 0 -254 57q-52 24 -98 58l131 196q24 -16 61 -32q80 -33 131 -33q42 0 70.5 17t28.5 52q0 70 -107 70q-44 0 -82 -10q-27 -9 -32 -10l-156 67l39 496h608v-316h-231v90h-150l-6 -108q0 -17 -2 -23l-4 -12l4 -2l31 10q37 11 78 11q146 0 232.5 -71
t86.5 -185q0 -56 -23 -111t-67.5 -103t-119.5 -78t-169 -30z" />
    <glyph glyph-name="sixinferior" unicode="&#x2086;" horiz-adv-x="825" 
d="M442 -342q-57 0 -111.5 14.5t-106 48t-90 82.5t-62 123.5t-23.5 165.5q0 77 19 151.5t58 140t92.5 115t126.5 78.5t157 29q96 0 166 -24q25 -6 63 -27l-67 -244l-50 17q-62 16 -92 16q-23 0 -36 -1.5t-33.5 -8.5t-36 -25.5t-25.5 -48.5q36 8 78 8q131 0 219 -81.5
t88 -213.5q0 -56 -21.5 -110.5t-62 -101t-106 -75t-144.5 -28.5zM442 -106q66 0 66 77q0 43 -26 77t-79 34q-65 0 -65 -51q0 -63 31.5 -100t72.5 -37z" />
    <glyph glyph-name="seveninferior" unicode="&#x2087;" horiz-adv-x="800" 
d="M76 -322l344 631q9 20 22 37l13 14v11l-23 -4q-2 0 -18.5 -3.5t-26.5 -3.5h-102v-90h-232v316h721v-207l-381 -701h-317z" />
    <glyph glyph-name="eightinferior" unicode="&#x2088;" horiz-adv-x="843" 
d="M426 -342q-96 0 -180.5 31.5t-139.5 96t-55 148.5q0 123 129 230q-44 42 -65 79t-21 93q0 87 49 150t122 91.5t157 28.5q86 0 164 -30t130 -91.5t52 -140.5q0 -24 -5.5 -48t-12.5 -41t-20.5 -39t-21 -31.5t-23.5 -29.5t-19 -24q59 -41 90.5 -85.5t31.5 -111.5
q0 -68 -32 -122t-84.5 -87t-115.5 -50t-130 -17zM459 219q9 9 22 31q21 38 21 65q0 32 -24.5 49t-53.5 17q-23 0 -40 -15t-17 -44q0 -66 92 -103zM416 -117q30 0 57 16t27 48q0 33 -35.5 59.5t-102.5 56.5q-40 -47 -40 -96q0 -39 28 -61.5t66 -22.5z" />
    <glyph glyph-name="nineinferior" unicode="&#x2089;" horiz-adv-x="825" 
d="M383 606q57 0 111.5 -14.5t106 -48t90 -82.5t62 -123.5t23.5 -165.5q0 -97 -31 -188.5t-87 -164.5t-143 -117t-191 -44q-93 0 -166 25q-30 7 -64 26l68 244l49 -16q66 -17 92 -17q17 0 27.5 0.5t29 5t30.5 12.5t24.5 25t19.5 41q-36 -8 -78 -8q-131 0 -219 81.5
t-88 213.5q0 56 21.5 110.5t62 101t106 75t144.5 28.5zM383 371q-66 0 -66 -78q0 -43 26 -77t79 -34q65 0 65 51q0 63 -31.5 100.5t-72.5 37.5z" />
    <glyph glyph-name="Euro" unicode="&#x20ac;" horiz-adv-x="1277" 
d="M72 459v213h114q-4 78 -2 116h-112v216h153q75 218 269.5 355.5t443.5 137.5q94 0 176 -14l80 -17l-100 -362q-16 6 -52 14q-62 12 -118 12q-85 0 -142.5 -31t-99.5 -95h385l-49 -216h-385q-3 -55 6 -116h358l-49 -213h-235q80 -109 235 -109q65 0 139 19l64 18l66 -367
q-42 -14 -78 -22q-81 -23 -203 -23q-254 0 -440 132.5t-265 351.5h-159z" />
    <glyph glyph-name="trademark" unicode="&#x2122;" horiz-adv-x="2000" 
d="M915 549l72 915h242l149 -358q3 -6 6 -16t7 -22.5t6 -18.5q3 -7 8 -33h4q5 26 8 33q2 6 6 18.5t7 22.5t6 16l149 358h242l67 -915h-260l-20 356v45q0 15 2 21h-4l-105 -256h-200l-105 256h-4q2 -6 2 -21v-45l-24 -356h-261zM332 549v692h-291v223h836v-223h-287v-692
h-258z" />
    <glyph glyph-name="minus" unicode="&#x2212;" horiz-adv-x="1306" 
d="M80 432v316h1147v-316h-1147z" />
    <glyph glyph-name="infinity" unicode="&#x221e;" horiz-adv-x="1042" 
d="M522 270q-184 0 -314 130t-130 315q0 184 129.5 313t314.5 129t314 -129t129 -313q0 -185 -129.5 -315t-313.5 -130z" />
    <glyph glyph-name="approxequal" unicode="&#x2248;" horiz-adv-x="1306" 
d="M250 659l-152 242q174 174 353 174q65 0 124 -22.5t96 -49t86.5 -49t98.5 -22.5q54 0 108.5 30.5t92.5 79.5l149 -241q-174 -174 -350 -174q-65 0 -124 22.5t-96 49t-86.5 49t-98.5 22.5q-102 0 -201 -111zM250 154l-152 239q174 174 353 174q65 0 124 -22.5t96 -49
t86.5 -49t98.5 -22.5q53 0 107.5 32t93.5 79l149 -242q-174 -174 -350 -174q-65 0 -124 22.5t-96 49t-86.5 49t-98.5 22.5q-104 0 -201 -108z" />
    <glyph glyph-name="notequal" unicode="&#x2260;" horiz-adv-x="1306" 
d="M217 72l62 104h-160v318h358l117 192h-475v318h678l129 215l180 -115l-59 -100h137v-318h-338l-115 -192h453v-318h-654l-129 -213z" />
    <glyph glyph-name="lessequal" unicode="&#x2264;" horiz-adv-x="1306" 
d="M98 463v258l1069 471v-350l-649 -250v-4l649 -246v-352zM106 -119h1061v-311h-1061v311z" />
    <glyph glyph-name="greaterequal" unicode="&#x2265;" horiz-adv-x="1306" 
d="M139 -10v352l649 246v4l-649 250v350l1069 -471v-258zM143 -119h1059v-311h-1059v311z" />
    <glyph glyph-name="CR" horiz-adv-x="512" 
 />
    <glyph glyph-name="commaaccent" horiz-adv-x="686" 
d="M199 -84h338q16 -54 16 -121q0 -128 -77 -211t-202 -114l-143 129q98 68 98 174q0 67 -30 143z" />
    <glyph glyph-name="apple" horiz-adv-x="2314" 
d="M344 -10v311l-258 148v569l258 145v310l543 290l274 -145l271 145l542 -290v-310l254 -145v-569l-254 -148v-311l-542 -289l-271 145l-274 -145zM426 61l487 -258l248 136l242 -136l487 258v285l234 131v510l-234 135v279l-487 258l-242 -131l-248 131l-487 -258v-279
l-233 -135v-510l233 -131v-285zM496 131v248l-203 123v461l203 118v252l440 234l225 -121l219 121l439 -234v-252l204 -118v-461l-204 -123v-248l-439 -233l-219 118l-225 -118zM860 186h314v318h331v260h-331v227h100q35 0 35 -35v-36h276v237q0 49 -19 70.5t-71 21.5h-723
v-258h88v-805z" />
    <glyph glyph-name="zero.tnum" 
d="M627 -25q-126 0 -224 39.5t-162.5 108t-106.5 166.5t-59.5 208.5t-17.5 241.5t17.5 240.5t59.5 207t106.5 165t162.5 106.5t224 39t224 -39t162.5 -106.5t106 -165t59 -207t17.5 -240.5t-17.5 -241.5t-59 -208.5t-106 -166.5t-162.5 -108t-224 -39.5zM627 356
q125 0 125 383q0 377 -125 377t-125 -377q0 -383 125 -383z" />
    <glyph glyph-name="one.tnum" 
d="M141 0v342h308v485q0 17 1 45t1 39v39h-5q-6 -16 -14 -26q-25 -34 -39 -47l-65 -56l-246 264l418 388h370v-1131h312v-342h-1041z" />
    <glyph glyph-name="two.tnum" 
d="M1169 0h-1089q-21 99 -21 180q0 113 34.5 209t90 163t123 123.5t134.5 99t122.5 79.5t90 76t34.5 78q0 37 -10.5 60.5t-29.5 33t-33.5 12t-34.5 2.5q-68 0 -146 -78q-30 -30 -59 -80l-299 205q44 96 119 168q174 166 426 166q71 0 142 -15.5t140.5 -51t122.5 -87t86 -132
t33 -177.5q0 -84 -32.5 -158.5t-85 -129t-116.5 -103t-128.5 -87.5t-118 -73.5t-89 -70.5t-38.5 -70h286v166h346v-508z" />
    <glyph glyph-name="three.tnum" 
d="M106 1012v461h1006v-306l-235 -301q145 -39 218.5 -141.5t73.5 -232.5q0 -78 -20 -151t-65.5 -140t-111.5 -117t-164 -79.5t-218 -29.5q-203 0 -385 97q-74 39 -129 94l192 307q38 -32 86 -57q106 -60 201 -60q85 0 126.5 33t41.5 82q0 52 -46.5 85.5t-144.5 33.5
q-6 0 -14.5 -0.5t-23.5 -1.5t-27 -2l-88 190l211 279q14 18 51 55l25 23v4q-23 0 -33 -2q-45 -5 -68 -5h-112v-118h-347z" />
    <glyph glyph-name="four.tnum" 
d="M4 340v258l516 875h535v-803h164v-330h-164v-340h-426v340h-625zM567 975l-164 -301v-4h226v288q0 64 8 111l8 59h-8l-21 -49q-40 -89 -49 -104z" />
    <glyph glyph-name="five.tnum" 
d="M66 162l182 317q45 -36 94 -61q114 -62 215 -62q77 0 127.5 33.5t50.5 97.5q0 129 -200 129q-78 0 -144 -20q-32 -11 -47 -23l-225 84l53 816h911v-461h-348v118h-209l-10 -126q0 -6 -1 -13t-2.5 -15t-2.5 -13l-4 -21h4q19 6 31 8q35 6 110 6q126 0 227.5 -36.5
t166.5 -100t100 -148.5t35 -184q0 -222 -163 -367t-429 -145q-201 0 -383 95q-84 43 -139 92z" />
    <glyph glyph-name="six.tnum" 
d="M666 -25q-94 0 -181.5 25t-167 79.5t-138 134t-93.5 196t-35 256.5q0 136 30.5 259.5t92.5 228t149.5 181t208 119.5t261.5 43q121 0 239 -33q50 -14 90 -32l-106 -357q-26 12 -62 21q-78 20 -151 20q-198 0 -266 -153h4l49 12q62 12 127 12q114 0 211 -45.5t158.5 -118
t96 -160.5t34.5 -176q0 -94 -37.5 -184.5t-106 -164t-175 -118.5t-232.5 -45zM483 565q0 -81 55.5 -145t123.5 -64q54 0 88 33.5t34 87.5q0 25 -10 51.5t-31.5 53.5t-64 44t-98.5 17q-54 0 -75.5 -17t-21.5 -61z" />
    <glyph glyph-name="seven.tnum" 
d="M147 0l523 1034q28 55 45 74l18 25v4q-21 0 -33 -2q-58 -5 -84 -5h-151v-118h-369v461h1098v-302l-598 -1171h-449z" />
    <glyph glyph-name="eight.tnum" 
d="M57 422q0 60 22 119.5t57.5 106t65 76.5t58.5 54q-72 60 -108.5 126t-36.5 157q0 65 18.5 126.5t59 118t98.5 99t142.5 67.5t184.5 25q146 0 265.5 -48t193.5 -145t74 -227q0 -170 -145 -334q186 -123 186 -315q0 -83 -35 -161.5t-102 -144.5t-179 -106.5t-253 -40.5
q-140 0 -252 40.5t-178.5 106.5t-101 143t-34.5 157zM498 1059q0 -57 52.5 -96.5t156.5 -79.5q53 87 53 159q0 52 -37 83.5t-102 31.5q-63 0 -93 -27t-30 -71zM451 455q0 -61 46 -103.5t117 -42.5q78 0 121 33.5t43 93.5q0 16 -6 30t-21.5 28t-28.5 24t-41.5 24.5t-44.5 22
t-54 24t-54 23.5q-30 -28 -53.5 -70t-23.5 -87z" />
    <glyph glyph-name="nine.tnum" 
d="M584 1497q94 0 181 -25t166.5 -79.5t138.5 -133.5t93.5 -195.5t34.5 -256.5q0 -171 -49 -320.5t-140.5 -264t-234 -181t-317.5 -66.5q-122 0 -240 33q-44 13 -90 33l106 356q21 -9 62 -20q82 -21 151 -21q205 0 275 170h-4q-44 -11 -53 -14q-66 -16 -132 -16
q-112 0 -207 44t-155 115t-93.5 157t-33.5 173q0 94 37 184.5t104 164t171.5 118.5t228.5 45zM766 913q0 80 -55.5 141.5t-122.5 61.5q-54 0 -88.5 -33.5t-34.5 -87.5q0 -25 10 -51.5t32 -53.5t64.5 -44t98.5 -17q53 0 74.5 19.5t21.5 64.5z" />
    <glyph glyph-name="hyphen.case" horiz-adv-x="903" 
d="M119 524v369h665v-369h-665z" />
    <glyph glyph-name="parenleft.case" horiz-adv-x="757" 
d="M702 -133h-346q-262 406 -262 911q0 430 262 834h346q-231 -379 -231 -832q0 -470 231 -913z" />
    <glyph glyph-name="parenright.case" horiz-adv-x="755" 
d="M401 -133h-346q232 456 232 913q0 451 -232 832h346q261 -403 261 -834q0 -507 -261 -911z" />
    <glyph glyph-name="bracketleft.case" horiz-adv-x="788" 
d="M154 -133v1745h581v-291h-229v-1163h229v-291h-581z" />
    <glyph glyph-name="bracketright.case" horiz-adv-x="786" 
d="M53 158h230v1163h-230v291h580v-1745h-580v291z" />
    <glyph glyph-name="braceleft.case" horiz-adv-x="823" 
d="M215 174v203q0 118 -86 164q-36 20 -88 20v369q52 0 88 20q86 46 86 170v185q0 80 31 140.5t76.5 93.5t109 53t115.5 26t110 6t76 -2q10 -2 31 -2v-301q-13 0 -19 2t-43 2q-70 0 -103.5 -19.5t-33.5 -70.5v-223q0 -131 -86 -209q-41 -38 -88 -51v-5q54 -15 88 -47
q86 -78 86 -211v-239q0 -52 33.5 -72t103.5 -20q37 0 43 2t19 2v-301q-21 0 -31 -2q-18 -2 -76 -2q-39 0 -76.5 3t-82.5 12t-84 23.5t-76.5 39.5t-64 57t-42.5 79.5t-16 104.5z" />
    <glyph glyph-name="braceright.case" horiz-adv-x="825" 
d="M610 377v-203q0 -57 -16 -104.5t-42.5 -79.5t-64 -57t-76.5 -39.5t-84 -23.5t-82.5 -12t-76.5 -3q-58 0 -76 2q-10 2 -31 2v301q13 0 19 -2q10 -2 43 -2q70 0 103.5 20t33.5 72v239q0 131 88 211q34 31 86 47v5q-46 14 -86 51q-88 80 -88 209v223q0 51 -33 70.5
t-104 19.5q-33 0 -43 -2q-6 -2 -19 -2v301q21 0 31 2q18 2 76 2t110 -6t115.5 -26t109 -53t76.5 -93.5t31 -140.5v-185q0 -123 88 -170q36 -20 86 -20v-369q-50 0 -86 -20q-88 -47 -88 -164z" />
    <glyph glyph-name="at.case" horiz-adv-x="1695" 
d="M35 731q0 163 61.5 305t172 245.5t272.5 163.5t354 60q159 0 280 -41.5t193.5 -114.5t108.5 -166t36 -204v-336h154v-276h-590q-119 0 -214 32t-152 84.5t-87 116t-30 131.5q0 67 29 128t85 111.5t151.5 80.5t217.5 30h45q0 27 -20.5 46.5t-54.5 29.5t-68 14.5t-70 4.5
q-108 0 -197 -39t-145 -103t-86 -144t-30 -165q0 -86 30 -163t88 -139.5t153 -99t214 -36.5v-316q-210 0 -381.5 58.5t-284.5 161t-174 241t-61 299.5zM952 743q0 -100 119 -100h51v199h-47q-123 0 -123 -99z" />
    <glyph glyph-name="guillemotleft.case" horiz-adv-x="1425" 
d="M969 281l-336 419l336 422h383l-336 -422l336 -419h-383zM381 281l-336 419l336 422h381l-336 -422l336 -419h-381z" />
    <glyph glyph-name="guillemotright.case" horiz-adv-x="1425" 
d="M662 281l335 419l-335 422h382l336 -422l-336 -419h-382zM74 281l336 419l-336 422h383l336 -422l-336 -419h-383z" />
    <glyph glyph-name="guilsinglleft.case" horiz-adv-x="835" 
d="M381 281l-336 419l336 422h381l-336 -422l336 -419h-381z" />
    <glyph glyph-name="guilsinglright.case" horiz-adv-x="837" 
d="M74 281l336 419l-336 422h383l336 -422l-336 -419h-383z" />
    <glyph glyph-name="endash.case" horiz-adv-x="1533" 
d="M123 555v315h1288v-315h-1288z" />
    <glyph glyph-name="emdash.case" horiz-adv-x="1943" 
d="M123 555v315h1698v-315h-1698z" />
    <glyph glyph-name="periodcentered.case" horiz-adv-x="616" 
d="M119 508v395h379v-395h-379z" />
    <glyph glyph-name="questiondown.case" horiz-adv-x="972" 
d="M377 1116v357h379v-357h-379zM18 395q0 90 35.5 164.5t86 122.5t101 88.5t86 81.5t35.5 82v61h408v-98q0 -61 -23 -114t-57 -88t-74.5 -69.5t-74.5 -60.5t-57 -58.5t-23 -66.5q0 -40 25.5 -60t68.5 -20q61 0 131 46q33 23 55 45l238 -287q-57 -56 -119 -94
q-162 -95 -336 -95q-74 0 -145 16t-136.5 50t-115.5 82t-79.5 118.5t-29.5 153.5z" />
    <glyph glyph-name="exclamdown.case" horiz-adv-x="718" 
d="M170 1116v357h379v-357h-379zM137 0l41 995h363l41 -995h-445z" />
    <glyph glyph-name="bullet.case" horiz-adv-x="966" 
d="M483 322q-172 0 -291.5 118.5t-119.5 290.5t119.5 292t291.5 120t291 -120t119 -292t-119 -290.5t-291 -118.5z" />
    <glyph glyph-name="zero.p_osf" horiz-adv-x="1222" 
d="M74 575q0 92 18 175.5t59 161t101.5 134t153 90t206.5 33.5t206 -33.5t152.5 -90.5t101.5 -135t59 -163t18 -178q0 -94 -18 -178.5t-59 -161.5t-102 -132.5t-152.5 -88.5t-205.5 -33t-206.5 33.5t-153 90.5t-101.5 135t-59 163t-18 178zM498 571q0 -52 4.5 -91t15.5 -76
t35 -56.5t59 -19.5q29 0 50 14t32.5 35t18 54.5t8.5 64.5t2 73q0 53 -4 92t-14.5 77t-34 58.5t-58.5 20.5t-59 -20.5t-35 -58t-15.5 -77t-4.5 -90.5z" />
    <glyph glyph-name="one.p_osf" horiz-adv-x="1097" 
d="M100 0v330h283v221q0 34 4 100q2 18 2 58h-4q-1 -1 -8 -9t-12 -12q-17 -17 -60 -41l-78 -41l-196 291l405 248h359v-815h272v-330h-967z" />
    <glyph glyph-name="two.p_osf" horiz-adv-x="1191" 
d="M111 0v283q31 17 58 32t82.5 49t100.5 64.5t98.5 73t89.5 80t60.5 79.5t24.5 78q0 37 -25.5 57.5t-69.5 20.5q-86 0 -180 -67q-39 -27 -80 -68l-207 258q51 56 140 115q180 114 381 114q63 0 125 -10.5t126 -37.5t112.5 -67.5t79 -105t30.5 -145.5q0 -79 -30 -151.5
t-71.5 -121.5t-98.5 -92.5t-98.5 -66.5t-84.5 -41v-13l37 7q37 6 110 6h289v-330h-999z" />
    <glyph glyph-name="three.p_osf" horiz-adv-x="1136" 
d="M39 -84l180 289q44 -37 84 -58q94 -57 189 -57q80 0 116.5 32t36.5 79q0 49 -45.5 80.5t-142.5 31.5h-37q-15 0 -23 -2l-61 176l192 279q8 10 17.5 20t21 20.5t15.5 14.5l24 23v4q-21 0 -33 -2q-46 -4 -67 -4h-119v-131h-319v434h940v-277l-211 -301q128 -37 202 -133
t74 -211q0 -72 -18.5 -139.5t-61 -131t-105 -110.5t-156.5 -75.5t-208 -28.5q-208 0 -362 88q-78 45 -123 90z" />
    <glyph glyph-name="four.p_osf" horiz-adv-x="1280" 
d="M29 49v248l477 848h559v-778h158v-318h-158v-287h-418v287h-618zM410 367h237v311q0 52 10 110l9 60h-11l-20 -49l-49 -105z" />
    <glyph glyph-name="five.p_osf" horiz-adv-x="1130" 
d="M35 -90l170 295q36 -36 78 -62q100 -63 194 -63q78 0 129 36t51 101q0 63 -50 96t-132 33q-68 0 -127 -18l-53 -19l-211 80l53 756h854v-434h-334v131h-178l-8 -127q0 -8 -3 -22t-3 -17l-4 -23h4l31 6q35 7 98 7q117 0 212 -36t155.5 -97.5t93 -141.5t32.5 -170
q0 -209 -157 -349t-404 -140q-193 0 -358 88q-80 42 -133 90z" />
    <glyph glyph-name="six.p_osf" horiz-adv-x="1239" 
d="M63 625q0 125 27.5 239t86 213.5t142.5 172.5t202.5 115t260.5 42q128 0 242 -31q48 -14 92 -30l-110 -326q-20 10 -58 20q-82 21 -145 21q-192 0 -283 -162h4q48 12 54 14q62 15 133 15q109 0 200.5 -42t150.5 -110t91.5 -151.5t32.5 -169.5q0 -68 -20 -135t-62 -129.5
t-101.5 -110.5t-145.5 -76.5t-187 -28.5q-89 0 -173.5 21.5t-164 71.5t-138.5 123.5t-95 185t-36 248.5zM479 524q0 -72 55.5 -136t131.5 -64q53 0 81.5 35t28.5 94q0 66 -42.5 110.5t-141.5 44.5q-57 0 -85 -17t-28 -67z" />
    <glyph glyph-name="seven.p_osf" horiz-adv-x="1140" 
d="M100 -238l506 983q28 55 45 74l19 25v4q-21 0 -33 -2q-46 -4 -84 -4h-150v-131h-356v434h1069v-285l-571 -1098h-445z" />
    <glyph glyph-name="eight.p_osf" horiz-adv-x="1236" 
d="M57 395q0 54 16.5 101.5t50 91t62 72t74.5 69.5q-135 101 -135 264q0 79 30 151t88.5 131.5t154 94.5t216.5 35q105 0 199.5 -27t166.5 -76.5t114.5 -125.5t42.5 -168q0 -51 -12.5 -99.5t-37 -93t-39.5 -67t-42 -58.5q168 -102 168 -284q0 -63 -21 -124t-66.5 -117
t-109.5 -98t-157 -67t-202 -25q-112 0 -206.5 25.5t-158.5 67.5t-109.5 97t-66 113t-20.5 117zM492 977q0 -20 6.5 -37.5t23.5 -33.5t30.5 -26.5t45.5 -26t48.5 -22.5t58.5 -24q49 81 49 154q0 52 -37.5 83t-102.5 31q-63 0 -92.5 -27t-29.5 -71zM444 444q0 -61 46.5 -103
t117.5 -42q78 0 121 33.5t43 93.5q0 19 -10 36t-23.5 29t-40.5 27t-48 24t-60.5 26t-63.5 28q-82 -77 -82 -152z" />
    <glyph glyph-name="nine.p_osf" horiz-adv-x="1245" 
d="M1178 520q0 -125 -27.5 -239t-86 -213.5t-142.5 -172.5t-202.5 -115t-260.5 -42q-126 0 -240 31q-57 16 -94 30l111 326q31 -14 59 -21q78 -20 143 -20q192 0 283 162h-4q-32 -8 -53 -15q-58 -14 -134 -14q-109 0 -200.5 42t-150.5 110t-91.5 151.5t-32.5 169.5
q0 85 32.5 168.5t94 153.5t163 113.5t226.5 43.5q89 0 173.5 -21.5t164 -71t138.5 -123t95 -185t36 -248.5zM762 621q0 72 -55.5 136t-131.5 64q-53 0 -81.5 -35t-28.5 -94q0 -66 42.5 -110.5t141.5 -44.5q57 0 85 17t28 67z" />
    <glyph glyph-name="zero.t_osf" 
d="M90 575q0 92 18 175.5t59 161t102 134t153.5 90t206.5 33.5t205.5 -33.5t152.5 -90.5t101.5 -135t58.5 -163t18 -178q0 -119 -29.5 -221.5t-91 -188t-168 -135t-247.5 -49.5q-114 0 -206.5 33.5t-153.5 90.5t-102 135t-59 163t-18 178zM514 571q0 -52 4.5 -91t16 -75.5
t35.5 -56.5t59 -20q36 0 59 19t33.5 56.5t14 74.5t3.5 91q0 53 -3.5 91.5t-14.5 77.5t-34 59t-58 20t-59 -20.5t-35.5 -58t-16 -77t-4.5 -90.5z" />
    <glyph glyph-name="one.t_osf" 
d="M178 0v330h283v221q0 34 4 100q2 18 2 58h-4q-2 -2 -6 -6.5t-7.5 -8t-7.5 -6.5q-18 -18 -59 -41l-78 -41l-196 291l405 248h358v-815h273v-330h-967z" />
    <glyph glyph-name="two.t_osf" 
d="M141 0v283q31 17 58 32t82.5 49t100.5 64.5t98.5 73t89.5 80t60.5 79.5t24.5 78q0 38 -25 58t-69 20q-86 0 -180 -67q-39 -27 -80 -68l-207 258q52 58 139 115q180 114 381 114q63 0 125 -10.5t126 -37.5t112.5 -67.5t79 -105t30.5 -145.5q0 -79 -30 -151.5t-71.5 -121.5
t-98.5 -92.5t-98 -66.5t-84 -41v-13l36 7q37 6 111 6h289v-330h-1000z" />
    <glyph glyph-name="three.t_osf" 
d="M100 -78l179 287q54 -40 83 -55q95 -58 189 -58q79 0 115 31t36 78q0 49 -44.5 80.5t-141.5 31.5h-37q-14 0 -22 -2l-62 177l193 276q14 18 51 55l25 23v4q-23 0 -33 -2q-36 -4 -66 -4h-119v-131h-317v432h934v-275l-209 -299q127 -37 200.5 -132.5t73.5 -211.5
q0 -71 -18.5 -138t-60.5 -130t-103.5 -110t-154.5 -75t-207 -28q-207 0 -361 88q-76 44 -123 88z" />
    <glyph glyph-name="four.t_osf" 
d="M16 49v248l478 848h559v-778h157v-318h-157v-287h-418v287h-619zM397 367h238v311q0 52 10 110l8 60h-10l-20 -49l-50 -105z" />
    <glyph glyph-name="five.t_osf" 
d="M96 -90l170 295q36 -36 78 -62q100 -63 195 -63q78 0 129 36t51 101q0 63 -50 96t-132 33q-68 0 -127 -18l-54 -19l-211 80l54 756h854v-434h-334v131h-178l-9 -127q0 -8 -3 -22t-3 -17l-4 -23h4l31 6q35 7 98 7q117 0 212.5 -36t156 -97.5t93 -141.5t32.5 -170
q0 -209 -157 -349t-404 -140q-194 0 -359 88q-80 42 -133 90z" />
    <glyph glyph-name="six.t_osf" 
d="M72 625q0 125 27.5 239t86 213.5t142.5 172.5t202.5 115t260.5 42q127 0 241 -31q48 -14 92 -30l-110 -326q-20 10 -58 20q-82 21 -145 21q-192 0 -283 -162h4q48 12 54 14q62 15 133 15q109 0 200.5 -42t150.5 -110t91.5 -151.5t32.5 -169.5q0 -68 -20 -135t-62 -129.5
t-101.5 -110.5t-145.5 -76.5t-187 -28.5q-89 0 -173.5 21.5t-164 71.5t-138.5 123.5t-94.5 185t-35.5 248.5zM487 524q0 -72 55.5 -136t131.5 -64q53 0 81.5 35t28.5 94q0 66 -42.5 110.5t-141.5 44.5q-57 0 -85 -17t-28 -67z" />
    <glyph glyph-name="seven.t_osf" 
d="M158 -238l506 983q28 55 45 74l18 25v4q-21 0 -33 -2q-46 -4 -84 -4h-149v-131h-357v434h1070v-285l-572 -1098h-444z" />
    <glyph glyph-name="eight.t_osf" 
d="M66 395q0 43 12.5 84.5t29.5 72.5t47 66t53.5 57t59.5 54q-135 101 -135 264q0 79 30.5 151t88.5 131.5t154 94.5t217 35q142 0 259 -45.5t190 -137.5t73 -214q0 -51 -12.5 -99.5t-37 -93t-39.5 -67t-42 -58.5q168 -102 168 -284q0 -80 -34.5 -155t-100.5 -137.5
t-175 -100.5t-245 -38q-112 0 -206.5 25.5t-158.5 67.5t-109.5 97t-66 113t-20.5 117zM500 977q0 -20 6.5 -37.5t23.5 -33.5t30.5 -26.5t45.5 -26t48.5 -22.5t58.5 -24q49 81 49 154q0 52 -37 83t-102 31q-63 0 -93 -27t-30 -71zM453 444q0 -61 46 -103t117 -42
q78 0 121 33.5t43 93.5q0 19 -10 36t-23 29t-40.5 27t-48 24t-60 26t-63.5 28q-82 -77 -82 -152z" />
    <glyph glyph-name="nine.t_osf" 
d="M1182 520q0 -125 -27.5 -239t-86 -213.5t-142.5 -172.5t-202.5 -115t-260.5 -42q-126 0 -240 31q-57 16 -94 30l111 326q31 -14 59 -21q78 -20 143 -20q192 0 283 162h-4q-32 -8 -53 -15q-58 -14 -133 -14q-109 0 -201 42t-151 109.5t-91.5 151.5t-32.5 170
q0 85 32.5 168.5t94 153.5t163 113.5t226.5 43.5q89 0 173.5 -21.5t164 -71t138.5 -123t95 -185t36 -248.5zM766 621q0 72 -55 136t-131 64q-53 0 -82 -35.5t-29 -93.5q0 -66 42.5 -110.5t141.5 -44.5q57 0 85 17t28 67z" />
    <glyph glyph-name="dollar.osf" horiz-adv-x="1146" 
d="M61 139l168 289q61 -31 105 -49q123 -49 221 -49q47 0 75 11.5t34 22t6 21.5q0 17 -32 31t-83 26.5t-113 28.5t-124 44t-113 66.5t-83 102.5t-32 145q0 145 96 235.5t267 129.5v215h260v-207q162 -20 250 -57q49 -18 84 -39l-132 -309q-41 21 -90 39q-91 38 -217 38
q-112 0 -112 -45q0 -23 32 -40t83 -31t112.5 -29.5t123.5 -41.5t113 -61.5t83 -95t32 -135.5q0 -138 -94 -243t-264 -142v-213h-260v205q-165 24 -293 82q-56 26 -103 55z" />
    <glyph glyph-name="cent.osf" horiz-adv-x="1138" 
d="M53 614q0 111 41.5 211t132 181t217.5 116v168h273v-155q138 -18 252 -93q60 -40 90 -67l-191 -287q-22 22 -55 45q-68 45 -147 45q-53 0 -92.5 -17t-59 -43.5t-28.5 -52t-9 -49.5q0 -25 9.5 -51t30 -52t59.5 -43t90 -17q79 0 147 45q33 23 55 45l191 -287
q-32 -32 -90 -70q-107 -71 -252 -90v-159h-273v172q-189 52 -290 193t-101 312z" />
    <glyph glyph-name="sterling.osf" horiz-adv-x="1257" 
d="M76 0v356h119v107h-101v260h101v43q0 136 74 242.5t198.5 163.5t275.5 57q164 0 308 -64q55 -23 116 -63l-174 -309q-69 31 -78 34q-91 35 -157 35q-45 0 -88 -26.5t-43 -67.5v-45h334v-260h-334v-107h557v-356h-1108z" />
    <glyph glyph-name="yen.osf" horiz-adv-x="1415" 
d="M160 606v228h106l-203 370h480l69 -178q25 -54 62 -164q9 -23 26 -82h5q17 59 26 82q29 85 62 164l69 178h481l-204 -370h129v-228h-260l-95 -162h355v-227h-350v-217h-433v217h-325v227h329l-94 162h-235z" />
    <glyph glyph-name="florin.osf" horiz-adv-x="1267" 
d="M51 -242v359q7 -1 53 -11q58 -10 103 -10q157 0 166 113l24 299h-112v332h139l18 170q8 72 33.5 131.5t60.5 99.5t81.5 71t92 48.5t97 28.5t91 14.5t79.5 3.5q84 0 139 -8l68 -8v-361q-16 2 -47 10q-57 11 -107 11q-162 0 -174 -113l-10 -98h176v-332h-205l-31 -371
q-6 -72 -30 -131.5t-59 -99.5t-82.5 -71t-94 -48.5t-99.5 -28.5t-94.5 -14.5t-82.5 -3.5q-88 0 -135 8q-24 2 -58 10z" />
    <glyph glyph-name="Euro.osf" horiz-adv-x="1181" 
d="M70 399v158h131q-2 16 -2 92h-129v158h163q69 197 231 309.5t410 112.5q78 0 156 -12l62 -13l-91 -327l-40 8q-33 8 -97 8q-148 0 -200 -86h327l-37 -158h-327q-6 -70 2 -92h309l-31 -158h-225q34 -41 89.5 -60.5t109.5 -19.5q63 0 125 15q9 3 53 14l59 -334
q-32 -11 -69 -20q-82 -19 -175 -19q-244 0 -406 113t-230 311h-168z" />
    <glyph glyph-name="zero.numerator" horiz-adv-x="839" 
d="M420 545q-99 0 -171 37t-112.5 104t-59 149.5t-18.5 184.5q0 473 361 473q98 0 169.5 -36t112 -102t59.5 -149t19 -186q0 -102 -19 -184.5t-59.5 -149.5t-112 -104t-169.5 -37zM420 823q72 0 72 197q0 190 -72 190t-72 -190q0 -197 72 -197z" />
    <glyph glyph-name="one.numerator" horiz-adv-x="817" 
d="M78 565v236h201v223q0 25 4 45l4 16h-11l-6 -12q-2 -4 -20 -22l-47 -37l-172 190l293 269h260v-672h204v-236h-710z" />
    <glyph glyph-name="two.numerator" horiz-adv-x="847" 
d="M51 680q0 73 22.5 134t58.5 102t79.5 74t87 57t79.5 44t58.5 40.5t22.5 42.5q0 38 -62 38q-49 0 -96 -43q-29 -29 -41 -45l-203 170q36 56 90 101q126 98 285 98q140 0 238 -74t98 -209q0 -75 -39.5 -135t-97 -96.5t-115 -65.5t-100.5 -56.5t-47 -55.5h178v80h233v-316
h-714l-7 43q-8 33 -8 72z" />
    <glyph glyph-name="three.numerator" horiz-adv-x="827" 
d="M70 1157v316h667v-193l-166 -188q201 -51 201 -220q0 -61 -23 -118t-67 -104.5t-116.5 -76t-164.5 -28.5q-140 0 -256 71q-47 27 -84 70l144 207q29 -29 47 -41q55 -41 127 -41q84 0 84 53q0 24 -27 32.5t-76 8.5h-63l-35 135l135 158q5 7 33 35q4 4 19 14v8l-25 -4
q-28 -4 -49 -4h-74v-90h-231z" />
    <glyph glyph-name="four.numerator" horiz-adv-x="882" 
d="M426 565v172h-393v193l321 543h375v-517h100v-219h-100v-172h-303zM279 956h147v193q0 42 6 72l6 36h-10l-10 -34q-9 -36 -29 -68l-110 -194v-5z" />
    <glyph glyph-name="five.numerator" horiz-adv-x="825" 
d="M391 545q-138 0 -254 57q-55 25 -98 57l131 197q28 -19 61 -33q78 -32 131 -32q42 0 70.5 17t28.5 52q0 70 -107 70q-44 0 -82 -10q-3 -1 -14.5 -5.5t-17.5 -5.5l-156 68l39 496h608v-316h-231v90h-150l-6 -108q0 -17 -2 -23l-4 -12l4 -2l31 10q33 10 78 10
q146 0 232.5 -71t86.5 -185q0 -56 -23 -111t-67.5 -103t-119.5 -77.5t-169 -29.5z" />
    <glyph glyph-name="six.numerator" horiz-adv-x="823" 
d="M442 545q-57 0 -111.5 14.5t-106 48t-90 82.5t-62 123.5t-23.5 165.5q0 77 19 151.5t58 140t92.5 115t126.5 78.5t157 29q93 0 166 -25q29 -7 63 -26l-67 -244l-50 16q-66 17 -92 17q-23 0 -36 -1.5t-33.5 -8.5t-36 -25.5t-25.5 -48.5q36 8 78 8q131 0 219 -81.5
t88 -213.5q0 -56 -21.5 -110.5t-62 -101t-106 -75t-144.5 -28.5zM442 780q66 0 66 78q0 43 -26 77t-79 34q-65 0 -65 -51q0 -63 31.5 -100.5t72.5 -37.5z" />
    <glyph glyph-name="seven.numerator" horiz-adv-x="800" 
d="M76 565l344 631q9 20 22 37l13 14v10l-23 -4q-42 -6 -45 -6h-102v-90h-232v316h721v-207l-381 -701h-317z" />
    <glyph glyph-name="eight.numerator" horiz-adv-x="845" 
d="M426 545q-96 0 -180.5 32t-139.5 96.5t-55 147.5q0 123 129 230q-44 42 -65 79t-21 93q0 87 49 150t122 91.5t157 28.5q86 0 164 -30t130 -91.5t52 -140.5q0 -24 -5.5 -48t-12.5 -41t-20.5 -39t-21 -31.5t-23.5 -29.5t-19 -24q59 -41 90.5 -85.5t31.5 -111.5
q0 -68 -32 -122t-84.5 -87t-115.5 -50t-130 -17zM459 1106q9 8 22 31q21 38 21 65q0 32 -24.5 49t-53.5 17q-23 0 -40 -15.5t-17 -44.5q0 -65 92 -102zM416 770q30 0 57 16t27 48q0 33 -35.5 59.5t-102.5 56.5q-40 -47 -40 -96q0 -39 28 -61.5t66 -22.5z" />
    <glyph glyph-name="nine.numerator" horiz-adv-x="823" 
d="M381 1493q57 0 111.5 -14.5t106 -48t90 -82.5t62 -123.5t23.5 -165.5q0 -97 -31 -188.5t-87 -164.5t-143 -117t-191 -44q-90 0 -166 26q-33 8 -64 25l68 244l49 -17q62 -16 92 -16q17 0 27.5 0.5t29 5t30.5 12.5t24.5 25t19.5 41q-36 -8 -78 -8q-131 0 -219 81.5
t-88 213.5q0 56 21.5 110.5t62 101t106 75t144.5 28.5zM381 1257q-66 0 -66 -77q0 -43 26 -77t79 -34q65 0 65 51q0 63 -31.5 100t-72.5 37z" />
    <glyph glyph-name="zero.denominator" horiz-adv-x="839" 
d="M420 -20q-99 0 -171 37t-112.5 104t-59 149.5t-18.5 184.5q0 473 361 473q98 0 169.5 -36t112 -102t59.5 -149t19 -186q0 -102 -19 -184.5t-59.5 -149.5t-112 -104t-169.5 -37zM420 258q72 0 72 197q0 190 -72 190t-72 -190q0 -197 72 -197z" />
    <glyph glyph-name="one.denominator" horiz-adv-x="817" 
d="M78 0v236h201v223q0 25 4 45l4 16h-11l-6 -12q-3 -6 -20 -23l-47 -36l-172 190l293 268h260v-671h204v-236h-710z" />
    <glyph glyph-name="two.denominator" horiz-adv-x="845" 
d="M49 115q0 72 22.5 133t58.5 102t79.5 74.5t87 57.5t79.5 44t58.5 40.5t22.5 41.5q0 39 -62 39q-49 0 -96 -43q-29 -29 -41 -45l-203 170q35 54 90 100q127 99 285 99q140 0 238 -74t98 -209q0 -75 -39.5 -135t-97 -96.5t-115 -65.5t-100.5 -56.5t-47 -55.5h178v79h233
v-315h-715l-6 43q-8 33 -8 72z" />
    <glyph glyph-name="three.denominator" horiz-adv-x="821" 
d="M63 592v315h668v-192l-166 -189q201 -51 201 -219q0 -61 -23 -118t-67 -104.5t-116.5 -76t-164.5 -28.5q-140 0 -256 71q-47 27 -84 70l144 207q29 -29 47 -41q55 -41 127 -41q84 0 84 53q0 24 -27 32.5t-76 8.5h-63l-35 135l135 158q5 7 33 35q6 6 18 14v8l-24 -4
q-28 -4 -49 -4h-74v-90h-232z" />
    <glyph glyph-name="four.denominator" horiz-adv-x="882" 
d="M426 0v172h-393v193l321 542h375v-516h100v-219h-100v-172h-303zM279 391h147v193q0 41 6 71l6 37h-10l-10 -35q-9 -34 -29 -67l-110 -195v-4z" />
    <glyph glyph-name="five.denominator" horiz-adv-x="825" 
d="M391 -20q-138 0 -254 57q-55 25 -98 57l131 197q28 -19 61 -33q80 -33 131 -33q41 0 70 17t29 53q0 70 -107 70q-40 0 -82 -11q-27 -9 -32 -10l-156 68l39 495h608v-315h-231v90h-150l-6 -109q0 -16 -2 -22l-4 -12l4 -2l31 10q33 10 78 10q146 0 232.5 -71t86.5 -185
q0 -56 -23 -111t-67.5 -103t-119.5 -77.5t-169 -29.5z" />
    <glyph glyph-name="six.denominator" horiz-adv-x="823" 
d="M442 -20q-57 0 -111.5 14.5t-106 48t-90 82.5t-62 123.5t-23.5 165.5q0 77 19 151.5t58 140t92.5 115t126.5 78.5t157 29q93 0 166 -25q29 -7 63 -26l-67 -244l-50 16q-66 17 -92 17q-23 0 -36 -1.5t-33.5 -8.5t-36 -25.5t-25.5 -48.5q36 8 78 8q131 0 219 -81.5
t88 -213.5q0 -56 -21.5 -110.5t-62 -101t-106 -75t-144.5 -28.5zM442 215q66 0 66 78q0 43 -26 76.5t-79 33.5q-65 0 -65 -51q0 -63 31.5 -100t72.5 -37z" />
    <glyph glyph-name="seven.denominator" horiz-adv-x="798" 
d="M76 0l344 631q9 20 22 37l13 14v10l-23 -4q-42 -6 -45 -6h-102v-90h-232v315h721v-207l-381 -700h-317z" />
    <glyph glyph-name="eight.denominator" horiz-adv-x="843" 
d="M426 -20q-96 0 -180.5 32t-139.5 96.5t-55 147.5q0 122 129 229q-44 42 -65 79t-21 93q0 87 49 150t122 92t157 29q86 0 164 -30t130 -91.5t52 -140.5q0 -24 -5.5 -48t-12.5 -41t-20.5 -39t-21 -31.5t-23.5 -29.5t-19 -24q59 -41 90.5 -85.5t31.5 -111.5q0 -68 -32 -122
t-84.5 -87t-115.5 -50t-130 -17zM459 541q10 10 22 30q21 38 21 66q0 32 -24.5 48.5t-53.5 16.5q-23 0 -40 -15t-17 -44q0 -65 92 -102zM416 205q31 0 57.5 15.5t26.5 47.5q0 33 -36 60t-102 57q-40 -47 -40 -96q0 -39 28 -61.5t66 -22.5z" />
    <glyph glyph-name="nine.denominator" horiz-adv-x="823" 
d="M381 928q57 0 111.5 -14.5t106 -48t90 -82.5t62 -123.5t23.5 -165.5q0 -97 -31 -188.5t-87 -164.5t-143 -117t-191 -44q-90 0 -166 26q-33 8 -64 25l68 243l49 -16q62 -16 92 -16q17 0 27.5 0.5t29 5t30.5 12.5t24.5 25t19.5 41q-40 -9 -78 -9q-131 0 -219 81.5
t-88 213.5q0 56 21.5 111t62 101.5t106 75t144.5 28.5zM381 692q-66 0 -66 -78q0 -43 26 -76.5t79 -33.5q65 0 65 51q0 63 -31.5 100t-72.5 37z" />
    </font>
</defs>
</svg>
