<?xml version="1.0" standalone="no"?>
<!DOCTYPE svg PUBLIC "-//W3C//DTD SVG 1.1//EN" "http://www.w3.org/Graphics/SVG/1.1/DTD/svg11.dtd" >
<svg xmlns="http://www.w3.org/2000/svg" xmlns:xlink="http://www.w3.org/1999/xlink" version="1.1">
<metadata>
Created by FontForge 20170731 at Mon Sep 20 10:34:36 2021
 By Aleksey,,,
Copyright (c) 2009 by Jos Buivenga. All rights reserved.
</metadata>
<defs>
<font id="MuseoSlab-1000Italic" horiz-adv-x="1306" >
  <font-face 
    font-family="Museo Slab 1000"
    font-weight="900"
    font-style="italic"
    font-stretch="normal"
    units-per-em="2048"
    panose-1="2 0 0 0 0 0 0 0 0 0"
    ascent="1536"
    descent="-512"
    x-height="1063"
    cap-height="1473"
    bbox="-293 -530 2814 1901"
    underline-thickness="102"
    underline-position="-307"
    unicode-range="U+0020-FB04"
  />
<missing-glyph horiz-adv-x="1044" 
d="M-109 0v1434h1024v-1434h-1024zM403 809l349 522h-697zM813 195v1044l-348 -522zM-6 195l348 522l-348 522v-1044zM55 102h697l-349 523z" />
    <glyph glyph-name="f_f" unicode="ff" horiz-adv-x="1632" 
d="M186 0l148 760h-129l59 303h129l8 43q16 84 53.5 150t88.5 108t106.5 71t119 43t114 19.5t102.5 5.5q36 0 71 -2.5t52 -4.5l16 -3l-67 -330q-46 8 -99 8q-63 0 -94 -17.5t-39 -57.5l-6 -33h361l8 43q16 84 53.5 150t88.5 108t106.5 71t119 43t114 19.5t102.5 5.5
q36 0 71 -2.5t51 -4.5l17 -3l-68 -330q-45 8 -98 8q-63 0 -94 -17.5t-39 -57.5l-6 -33h200l-57 -303h-203l-147 -760h-428l149 760h-358l-150 -760h-426z" />
    <glyph glyph-name="fi" unicode="fi" horiz-adv-x="1550" 
d="M186 0l148 760h-129l59 303h129l8 43q16 84 53.5 150t88.5 108t106.5 71t119 43t114 19.5t102.5 5.5q36 0 71 -2.5t52 -4.5l16 -3l-67 -330q-46 8 -99 8q-63 0 -94 -17.5t-39 -57.5l-6 -33h766l-123 -625q-8 -36 -8 -69q0 -66 74 -66h35l-60 -303q-51 -6 -117 -6
q-49 0 -81.5 1.5t-75 7t-71 16t-58.5 30t-47.5 47t-29 68.5t-11.5 94q0 64 18 150l70 352h-338l-150 -760h-426zM1186 1161l59 312h412l-60 -312h-411z" />
    <glyph glyph-name="fl" unicode="fl" horiz-adv-x="1572" 
d="M186 0l148 760h-129l59 303h129l6 24q24 113 88.5 198.5t159.5 136t209.5 75.5t247.5 25q134 0 272.5 -20.5t210.5 -41.5l72 -20l-186 -971q-13 -50 -13 -84q0 -30 16 -44.5t58 -14.5l41 2l-68 -334q-50 -6 -116 -6q-64 0 -112.5 5.5t-99.5 24t-84 50t-54 86t-21 129.5
q0 68 14 151l150 762q-70 10 -133 10q-100 0 -158 -34t-68 -82l-6 -27h203l-57 -303h-203l-150 -760h-426z" />
    <glyph glyph-name="f_f_i" unicode="ffi" horiz-adv-x="2334" 
d="M186 0l148 760h-129l59 303h129l8 43q16 84 53.5 150t88.5 108t106.5 71t119 43t114 19.5t102.5 5.5q36 0 71 -2.5t52 -4.5l16 -3l-67 -330q-46 8 -99 8q-63 0 -94 -17.5t-39 -57.5l-6 -33h361l8 43q16 84 53.5 150t88.5 108t106.5 71t119 43t114 19.5t102.5 5.5
q36 0 71 -2.5t51 -4.5l17 -3l-68 -330q-45 8 -98 8q-63 0 -94 -17.5t-39 -57.5l-6 -33h764l-123 -625q-9 -40 -9 -69q0 -66 74 -66h35l-59 -303q-49 -6 -117 -6q-49 0 -81.5 1.5t-75.5 7t-71 16t-58.5 30t-48 47t-29 68.5t-11.5 94q0 42 19 150l69 352h-338l-147 -760h-428
l149 760h-358l-150 -760h-426zM1970 1161l60 312h411l-59 -312h-412z" />
    <glyph glyph-name="f_f_l" unicode="ffl" horiz-adv-x="2355" 
d="M186 0l148 760h-129l59 303h129l8 43q16 84 53.5 150t88.5 108t106.5 71t119 43t114 19.5t102.5 5.5q36 0 71 -2.5t52 -4.5l16 -3l-67 -330q-46 8 -99 8q-63 0 -94 -17.5t-39 -57.5l-6 -33h359l6 24q24 114 88.5 199t159.5 135.5t209.5 75.5t248.5 25q133 0 271.5 -20.5
t210.5 -41.5l73 -20l-188 -971q-12 -47 -12 -84q0 -30 15.5 -44.5t57.5 -14.5l41 2l-65 -334q-53 -6 -119 -6q-64 0 -112.5 5.5t-99.5 24t-84 50t-54 86t-21 129.5q0 67 17 151l147 762q-67 10 -133 10q-100 0 -157.5 -34t-67.5 -82l-4 -27h200l-57 -303h-203l-147 -760
h-428l149 760h-358l-150 -760h-426z" />
    <glyph glyph-name="f_j" unicode="fj" horiz-adv-x="1505" 
d="M186 0l148 760h-129l59 303h129l8 43q16 84 53.5 150t88.5 108t106.5 71t119 43t114 19.5t102.5 5.5q36 0 71 -2.5t52 -4.5l16 -3l-67 -330q-46 8 -99 8q-63 0 -94 -17.5t-39 -57.5l-6 -33h768l-205 -1055q-21 -103 -73 -183.5t-115.5 -127t-140.5 -76t-139.5 -39.5
t-120.5 -10q-38 0 -73 1.5t-51 2.5l-16 2l62 324q20 -2 45 -2q176 0 192 92l150 768h-340l-150 -760h-426zM1188 1161l59 312h412l-60 -312h-411z" />
    <glyph glyph-name=".notdef" horiz-adv-x="1044" 
d="M-109 0v1434h1024v-1434h-1024zM403 809l349 522h-697zM813 195v1044l-348 -522zM-6 195l348 522l-348 522v-1044zM55 102h697l-349 523z" />
    <glyph glyph-name=".null" horiz-adv-x="0" 
 />
    <glyph glyph-name="nonmarkingreturn" horiz-adv-x="682" 
 />
    <glyph glyph-name="space" unicode=" " horiz-adv-x="512" 
 />
    <glyph glyph-name="exclam" unicode="!" horiz-adv-x="667" 
d="M246 479l149 994h447l-236 -994h-360zM150 0l67 356h379l-70 -356h-376z" />
    <glyph glyph-name="quotedbl" unicode="&#x22;" horiz-adv-x="923" 
d="M721 967l106 540h293l-106 -540h-293zM281 967l106 540h295l-107 -540h-294z" />
    <glyph glyph-name="numbersign" unicode="#" horiz-adv-x="1447" 
d="M176 0l131 358h-168l101 291h172l47 123h-166l104 291h166l152 410h332l-152 -410h176l152 410h331l-151 -410h184l-104 -291h-183l-49 -123h179l-103 -291h-178l-131 -358h-332l129 358h-176l-129 -358h-334zM743 649h177l49 123h-176z" />
    <glyph glyph-name="dollar" unicode="$" horiz-adv-x="1226" 
d="M117 221l229 279q6 -5 16 -13.5t43 -29.5t68 -37t87 -29.5t102 -13.5q63 0 106 20.5t43 59.5q0 26 -22.5 49.5t-60 41t-85 40t-96.5 45t-96.5 57.5t-85 75t-60 99.5t-22.5 130.5q0 129 72 234t181 163t232 70l35 213h260l-35 -223q68 -13 129 -34.5t99 -42.5t66 -40
t40 -31l12 -12l-211 -297q-18 11 -48 28t-112.5 45t-150.5 28q-56 0 -97.5 -19t-41.5 -61q0 -33 29.5 -60.5t76.5 -50t103.5 -47t113 -57.5t103.5 -74.5t76.5 -105.5t29.5 -144q0 -188 -145.5 -322t-370.5 -147l-29 -209h-260l35 228q-72 16 -135.5 42t-102.5 51.5
t-67.5 48.5t-40.5 37z" />
    <glyph glyph-name="percent" unicode="%" horiz-adv-x="1933" 
d="M655 743q-161 0 -263.5 96t-102.5 242q0 79 37.5 156t98 133.5t142 91.5t164.5 35q160 0 264.5 -100t104.5 -248q0 -105 -65.5 -200t-168.5 -150.5t-211 -55.5zM221 0l1387 1473h383l-1387 -1473h-383zM688 1034q38 0 70.5 29.5t32.5 69.5q0 33 -24.5 53t-66.5 20
q-40 0 -71 -28t-31 -72q0 -32 24.5 -52t65.5 -20zM1122 313q0 106 62.5 203t165 155t213.5 58q161 0 265.5 -100t104.5 -248q0 -106 -65 -201t-167.5 -150t-211.5 -55q-162 0 -264.5 95.5t-102.5 242.5zM1432 338q0 -33 24 -52.5t66 -19.5q38 0 69 29.5t31 69.5
q0 32 -24 52.5t-66 20.5q-39 0 -69.5 -28t-30.5 -72z" />
    <glyph glyph-name="ampersand" unicode="&#x26;" horiz-adv-x="1421" 
d="M139 395q0 136 87.5 239t222.5 148v4q-5 2 -13 6t-28.5 23t-36 43.5t-28.5 71t-13 102.5q0 97 36 177.5t94 132.5t133 88t150.5 51.5t149.5 15.5q60 0 120 -10.5t90 -21.5l30 -11l-156 -317q-28 6 -57 6q-63 0 -112.5 -34t-49.5 -101q0 -46 22 -72.5t51 -26.5h136l37 185
h423l-34 -185h176l-68 -342h-178l-20 -131q-35 -221 -197 -341t-412 -120q-129 0 -235 33.5t-175 91t-107 133.5t-38 162zM594 455q0 -49 31.5 -75t85.5 -26q68 0 116.5 36t55.5 73l18 104h-166q-20 0 -41 -4.5t-45 -15.5t-39.5 -35t-15.5 -57z" />
    <glyph glyph-name="quotesingle" unicode="'" horiz-adv-x="493" 
d="M281 967l106 540h303l-106 -540h-303z" />
    <glyph glyph-name="parenleft" unicode="(" horiz-adv-x="770" 
d="M342 -195q-129 282 -129 574q0 340 104 628t342 543h357q-218 -266 -326 -567t-108 -614q0 -310 92 -564h-332z" />
    <glyph glyph-name="parenright" unicode=")" horiz-adv-x="772" 
d="M20 -195q217 267 326 568.5t109 613.5q0 298 -95 563h334q129 -282 129 -573q0 -341 -104 -629.5t-342 -542.5h-357z" />
    <glyph glyph-name="asterisk" unicode="*" horiz-adv-x="1042" 
d="M545 612l-269 222l173 151l2 4l-185 29l180 342l162 -88l13 201h370l-67 -201l198 90l49 -356l-221 -37l-2 -4l115 -138l-322 -217l-65 183h-4z" />
    <glyph glyph-name="plus" unicode="+" 
d="M489 0l82 432h-401l61 316h402l84 434h330l-84 -434h403l-61 -316h-404l-82 -432h-330z" />
    <glyph glyph-name="comma" unicode="," horiz-adv-x="657" 
d="M248 399h409l-383 -637h-311z" />
    <glyph glyph-name="hyphen" unicode="-" horiz-adv-x="921" 
d="M205 406l71 368h666l-72 -368h-665z" />
    <glyph glyph-name="period" unicode="." horiz-adv-x="616" 
d="M115 0l73 391h394l-74 -391h-393z" />
    <glyph glyph-name="slash" unicode="/" horiz-adv-x="1032" 
d="M51 -86l838 1628h375l-840 -1628h-373z" />
    <glyph glyph-name="zero" unicode="0" horiz-adv-x="1316" 
d="M209 504q0 84 10.5 173t34.5 187t60 187.5t91.5 171.5t123.5 142.5t161.5 96t200.5 35.5q512 0 512 -522q0 -83 -10.5 -172.5t-35.5 -188t-61.5 -189t-92 -173.5t-124 -144t-161 -97t-199.5 -36q-510 0 -510 529zM655 526q0 -170 74 -170q63 0 117 108.5t81 243.5t27 240
q0 168 -75 168q-52 0 -96.5 -66.5t-71 -162.5t-41.5 -193t-15 -168z" />
    <glyph glyph-name="one" unicode="1" horiz-adv-x="1173" 
d="M113 0l63 342h309l95 483l26 121h-4q-27 -43 -74 -80l-82 -61l-200 276l508 392h368l-217 -1131h312l-70 -342h-1034z" />
    <glyph glyph-name="two" unicode="2" horiz-adv-x="1261" 
d="M113 0q-1 118 25 220.5t70.5 177.5t102.5 139t121.5 110.5t128 87t122.5 75t102.5 67.5t71 70.5t26.5 78.5q0 48 -30 69t-69 21q-34 0 -69 -16.5t-61 -39.5t-47.5 -46t-32.5 -40l-11 -16l-284 226q4 7 12.5 18t36.5 43.5t60 62t83 65.5t105 62t126 44t146 18
q69 0 139 -16t135.5 -50.5t116 -82.5t81 -116.5t30.5 -148.5q0 -86 -38 -166t-99 -141t-135 -116t-149 -99t-138 -82t-105 -73t-47 -64h248l33 166h348l-99 -508h-1056z" />
    <glyph glyph-name="three" unicode="3" horiz-adv-x="1230" 
d="M104 158l222 303q5 -4 14.5 -11t40 -25.5t61.5 -32t76 -25t88 -11.5q87 0 139 39.5t52 89.5q0 43 -43.5 74t-120.5 31l-70 -4l-49 190l268 293q19 21 39 37t31 22l10 5v4q-57 -7 -104 -7h-105l-20 -118h-348l88 461h1005l-57 -306l-313 -333q10 -3 26.5 -10t58.5 -34
t74.5 -60.5t59 -93.5t26.5 -130q0 -68 -26.5 -140.5t-81 -142.5t-130 -125t-182.5 -89t-229 -34q-92 0 -177 19t-141.5 45.5t-99.5 53.5t-62 46z" />
    <glyph glyph-name="four" unicode="4" horiz-adv-x="1320" 
d="M106 340l46 258l675 875h547l-155 -803h163l-63 -330h-164l-65 -340h-428l67 340h-623zM578 670h215l57 293q5 30 17.5 72.5t22.5 70.5l9 27h-8q-49 -80 -100 -154l-213 -305v-4z" />
    <glyph glyph-name="five" unicode="5" horiz-adv-x="1241" 
d="M100 170l230 289q5 -4 15 -11t41 -25t62.5 -31.5t76.5 -24.5t87 -11q86 0 143.5 37.5t57.5 106.5q0 112 -170 112q-46 0 -93.5 -8.5t-71.5 -17.5l-25 -8l-222 94l218 801h905l-90 -461h-346l24 118h-209l-37 -120l-26 -76h4q72 14 123 14q130 0 235 -50t169.5 -152
t64.5 -240q0 -147 -89 -269t-241.5 -192t-333.5 -70q-90 0 -175 20t-141.5 48.5t-100.5 57.5t-65 49z" />
    <glyph glyph-name="six" unicode="6" 
d="M190 547q0 135 40 271t119 257.5t186 216t251 150t304 55.5q94 0 179.5 -18.5t124.5 -36.5l38 -19l-154 -346q-86 39 -215 39q-109 0 -186.5 -35.5t-128.5 -117.5h4q59 24 159 24q106 0 189.5 -38t134 -101.5t76.5 -141.5t26 -163q0 -107 -40.5 -208.5t-113.5 -181.5
t-185.5 -129t-245.5 -49q-111 0 -210 34.5t-179 102t-126.5 179.5t-46.5 256zM618 539q0 -91 45.5 -137t112.5 -46q60 0 95.5 49t35.5 105q0 137 -172 137q-63 0 -90 -27t-27 -81z" />
    <glyph glyph-name="seven" unicode="7" horiz-adv-x="1193" 
d="M106 0l730 1049q18 24 36.5 45t27.5 30l9 9v4q-48 -7 -116 -7h-138l-24 -118h-367l90 461h1096l-59 -302l-824 -1171h-461z" />
    <glyph glyph-name="eight" unicode="8" horiz-adv-x="1284" 
d="M150 389q0 109 67.5 203t216.5 194q-106 98 -106 244q0 85 35.5 166.5t101.5 149.5t172 109.5t235 41.5q141 0 255.5 -46.5t182.5 -134.5t68 -202q0 -60 -19 -116t-55.5 -104.5t-63 -76.5t-68.5 -68l-5 -5t-5 -4.5t-5 -4.5q64 -47 101.5 -119t37.5 -157
q0 -68 -23.5 -135.5t-74 -130.5t-120.5 -111.5t-171 -77.5t-219 -29q-128 0 -232.5 34.5t-170 93t-100.5 132t-35 154.5zM889 868q28 24 58 75.5t30 111.5q0 44 -31 69t-90 25q-66 0 -101.5 -34t-35.5 -83q0 -50 44.5 -89t125.5 -75zM547 442q0 -52 43 -87.5t110 -35.5
q78 0 129.5 39.5t51.5 104.5q0 30 -32 59.5t-69.5 49t-107.5 51.5q-48 -29 -86.5 -77.5t-38.5 -103.5z" />
    <glyph glyph-name="nine" unicode="9" horiz-adv-x="1298" 
d="M1395 926q0 -112 -29 -226.5t-82 -220t-133 -197.5t-177.5 -160t-220.5 -107.5t-257 -39.5q-94 0 -179.5 18.5t-124.5 36.5l-38 19l153 346q86 -39 215 -39q231 0 328 168h-4q-72 -28 -172 -28q-104 0 -185.5 37t-130.5 99t-74.5 138t-25.5 160q0 85 25 167.5t74.5 154.5
t117.5 127t161 86.5t198 31.5q111 0 210 -34.5t178.5 -101.5t126 -179t46.5 -256zM967 938q0 91 -45 134.5t-113 43.5q-60 0 -95.5 -48.5t-35.5 -104.5q0 -138 172 -138q117 0 117 113z" />
    <glyph glyph-name="colon" unicode=":" horiz-adv-x="735" 
d="M303 672l76 391h393l-76 -391h-393zM170 0l78 391h393l-78 -391h-393z" />
    <glyph glyph-name="semicolon" unicode=";" horiz-adv-x="710" 
d="M362 672l78 391h377l-76 -391h-379zM23 -238l282 637h410l-381 -637h-311z" />
    <glyph glyph-name="less" unicode="&#x3c;" 
d="M186 463v258l1069 471v-350l-651 -250v-4l651 -246v-352z" />
    <glyph glyph-name="equal" unicode="=" 
d="M236 686v318h1064v-318h-1064zM236 176v318h1064v-318h-1064z" />
    <glyph glyph-name="greater" unicode="&#x3e;" 
d="M281 -10v352l651 246v4l-651 250v350l1069 -471v-258z" />
    <glyph glyph-name="question" unicode="?" horiz-adv-x="1112" 
d="M373 479l18 105q13 78 59 143t101.5 106.5t109.5 77t90.5 70.5t36.5 70q0 30 -26.5 49.5t-61.5 19.5q-43 0 -91 -22.5t-75 -45.5l-26 -22l-197 311q8 7 23 18t63.5 39t99.5 50t126.5 39.5t148.5 17.5q88 0 169.5 -25t148.5 -71.5t107 -122.5t40 -170q0 -73 -23 -137.5
t-60 -110.5t-82 -85.5t-91 -70.5t-85.5 -57.5t-67 -54t-33.5 -53.5l-15 -68h-407zM295 0l70 356h378l-69 -356h-379z" />
    <glyph glyph-name="at" unicode="@" horiz-adv-x="1783" 
d="M156 389q0 173 74 333t202 279.5t311.5 191t391.5 71.5q143 0 253 -33.5t177.5 -94t101 -139.5t33.5 -174q0 -43 -17 -149l-49 -273h154l-55 -276h-555q-113 0 -201 28t-141.5 75.5t-81 107t-27.5 127.5q0 56 18 108t60.5 101.5t106 86t161 59t217.5 22.5h35
q5 29 -13.5 49.5t-52.5 29.5t-63 12t-59 3q-108 0 -201 -33t-157.5 -88t-110.5 -126t-68 -146.5t-22 -149.5q0 -73 24 -135.5t71.5 -111.5t126.5 -77t183 -28l-59 -309q-228 0 -402 80t-270 230t-96 349zM1087 487q0 -86 103 -86h53l35 199h-47q-74 0 -109 -32t-35 -81z" />
    <glyph glyph-name="A" unicode="A" horiz-adv-x="1511" 
d="M23 0l59 315h111l595 1158h506l146 -1158h110l-59 -315h-653l61 315h115l-2 136h-314l-55 -136h115l-64 -315h-671zM819 741h178l-6 203q-2 47 -2 96.5t1 75.5l1 25h-10q-25 -91 -72 -197z" />
    <glyph glyph-name="B" unicode="B" horiz-adv-x="1488" 
d="M102 0l62 315h153l164 842h-155l61 316h639q257 0 395 -92.5t138 -270.5q0 -94 -58.5 -187.5t-161.5 -148.5v-4q93 -36 135 -112.5t42 -168.5q0 -97 -34.5 -178t-94 -138t-140 -96.5t-171 -58t-187.5 -18.5h-787zM879 926h106q61 0 98 39.5t37 85.5q0 34 -22 56.5
t-62 22.5h-121zM764 342h160q62 0 107.5 39.5t45.5 105.5q0 36 -25.5 65.5t-72.5 29.5h-168z" />
    <glyph glyph-name="C" unicode="C" horiz-adv-x="1505" 
d="M197 633q0 174 69 332.5t186.5 275.5t284.5 186.5t353 69.5q68 0 143.5 -8.5t158.5 -29.5t146 -52t98.5 -82.5t22.5 -114.5l-51 -266h-387l18 103q17 81 -158 81q-87 0 -160.5 -31t-121.5 -80.5t-82 -113t-49 -127t-15 -123.5q0 -63 15.5 -117t47.5 -98t88 -69t132 -25
q77 0 121.5 17t52.5 63l20 104h392l-43 -239q-13 -72 -58.5 -128.5t-105.5 -90.5t-135 -56t-142 -30.5t-133 -8.5q-205 0 -366.5 83t-251.5 233t-90 342z" />
    <glyph glyph-name="D" unicode="D" horiz-adv-x="1624" 
d="M102 0l62 315h153l162 842h-153l61 316h633q327 0 510.5 -154.5t183.5 -431.5q0 -183 -63.5 -346t-175 -282.5t-272.5 -189t-347 -69.5h-754zM766 342h84q127 0 224.5 69.5t147.5 183.5t50 251q0 138 -70.5 211t-200.5 73h-86z" />
    <glyph glyph-name="E" unicode="E" horiz-adv-x="1380" 
d="M102 0l62 315h153l164 842h-155l61 316h1165l-92 -478h-366l26 135h-202l-41 -217h389l-68 -344h-389l-45 -227h221l27 131h366l-90 -473h-1186z" />
    <glyph glyph-name="F" unicode="F" horiz-adv-x="1284" 
d="M102 0l62 315h153l164 842h-155l61 316h1133l-93 -476h-366l20 107h-168l-47 -242h400l-70 -342h-397l-39 -205h178l-61 -315h-775z" />
    <glyph glyph-name="G" unicode="G" horiz-adv-x="1574" 
d="M193 631q0 177 72 337t194.5 276t293 184.5t359.5 68.5q53 0 112.5 -5t131.5 -16.5t134 -33.5t112.5 -52.5t74.5 -77t13 -102.5l-54 -266h-387l21 107q3 18 -3 32t-22 22t-31.5 13t-39.5 7t-37.5 2.5t-32.5 0.5q-92 0 -169.5 -30.5t-129 -80t-88 -113.5t-52.5 -129
t-16 -128q0 -66 12.5 -116t45 -94.5t97.5 -68.5t161 -24q198 0 213 72l12 57h-217l63 315h606l-100 -507q-16 -81 -80 -143t-155.5 -96t-190.5 -50.5t-201 -16.5q-213 0 -377.5 83.5t-254.5 232.5t-90 340z" />
    <glyph glyph-name="H" unicode="H" horiz-adv-x="1816" 
d="M102 0l62 315h153l162 842h-153l61 316h754l-62 -316h-155l-50 -256h420l49 256h-155l61 316h754l-61 -316h-156l-164 -842h156l-62 -315h-753l61 315h156l47 242h-420l-47 -242h155l-61 -315h-752z" />
    <glyph glyph-name="I" unicode="I" horiz-adv-x="956" 
d="M102 0l62 315h153l162 842h-153l61 316h754l-62 -316h-157l-162 -842h155l-61 -315h-752z" />
    <glyph glyph-name="J" unicode="J" horiz-adv-x="1218" 
d="M98 385q0 46 9 97.5t17 79.5l9 28h416q-27 -95 -27 -156q0 -78 58 -78q69 0 88 105l139 696h-184l61 316h760l-60 -316h-135l-139 -713q-43 -221 -195 -345t-350 -124q-91 0 -174.5 27.5t-149 78t-104.5 129.5t-39 175z" />
    <glyph glyph-name="K" unicode="K" horiz-adv-x="1585" 
d="M102 0l62 315h153l162 842h-153l61 316h670l-60 -316h-75l-45 -242h84l215 242h-80l61 316h639l-61 -316h-115l-356 -399v-4q6 -4 15.5 -13t30.5 -40.5t31 -67.5l62 -217q19 -63 36.5 -84t63.5 -21l68 4l-58 -315q-49 -6 -176 -6q-286 0 -346 233l-69 277q-16 67 -99 67
h-14l-49 -256h133l-62 -315h-729z" />
    <glyph glyph-name="L" unicode="L" horiz-adv-x="1329" 
d="M104 0l60 315h153l160 815h-155l65 343h754l-66 -343h-157l-152 -788h227l41 207h367l-107 -549h-1190z" />
    <glyph glyph-name="M" unicode="M" horiz-adv-x="2052" 
d="M82 0l59 315h150l221 842h-150l62 316h659l43 -652l9 -196h4q33 87 82 196l290 652h689l-62 -316h-149l-107 -842h152l-62 -315h-696l61 315h121l62 430q4 31 16 77.5t22 77.5l9 30h-8q-41 -102 -78 -176l-221 -490h-367l-31 490q-4 32 -6 76t-2 72v28h-8
q-13 -115 -29 -185l-102 -430h121l-62 -315h-692z" />
    <glyph glyph-name="N" unicode="N" horiz-adv-x="1779" 
d="M102 0l62 315h153l164 842h-155l61 316h592l221 -670q11 -32 20 -73t12 -66l3 -25h10q9 102 23 178l67 340h-166l60 316h764l-60 -316h-155l-226 -1157h-436l-227 668q-10 30 -19 70t-12 64l-4 25h-10q-7 -100 -21 -176l-63 -336h166l-62 -315h-762z" />
    <glyph glyph-name="O" unicode="O" horiz-adv-x="1671" 
d="M197 639q0 170 71 328.5t189.5 274.5t280.5 185.5t337 69.5q202 0 359.5 -83.5t244 -231t86.5 -334.5q0 -139 -46.5 -272t-130 -240.5t-193 -189t-242 -126.5t-270.5 -45q-306 0 -496 186.5t-190 477.5zM641 666q0 -139 74 -224.5t194 -85.5q74 0 148 36t132 96t94 147.5
t36 183.5q0 134 -75.5 215.5t-196.5 81.5q-76 0 -149.5 -35t-130.5 -94t-91.5 -143.5t-34.5 -177.5z" />
    <glyph glyph-name="P" unicode="P" horiz-adv-x="1427" 
d="M98 0l62 315h155l164 842h-155l61 316h750q200 0 327 -122.5t127 -324.5q0 -158 -77 -293t-210 -214t-290 -79h-230l-24 -125h157l-61 -315h-756zM848 782h121q83 0 132.5 63t49.5 154q0 60 -27 95.5t-82 35.5h-127z" />
    <glyph glyph-name="Q" unicode="Q" horiz-adv-x="1667" 
d="M195 639q0 170 71 329t187.5 274.5t274 185t323.5 69.5q160 0 294 -48.5t225.5 -134.5t142 -206t50.5 -260q0 -297 -209 -537l119 -108l-270 -252l-115 131q-85 -54 -173 -80.5t-210 -26.5q-161 0 -294.5 49.5t-224.5 137.5t-141 210.5t-50 266.5zM639 666
q0 -139 75.5 -224.5t194.5 -85.5q35 0 63 5t39 11l11 5l-158 170l264 246l156 -170q33 73 33 196q0 134 -75 215.5t-195 81.5q-77 0 -151 -35t-130.5 -94t-91.5 -143.5t-35 -177.5z" />
    <glyph glyph-name="R" unicode="R" horiz-adv-x="1531" 
d="M98 0l62 315h155l164 842h-155l61 316h752q89 0 165.5 -24t138.5 -72t98 -128.5t36 -185.5q0 -47 -7 -95t-26.5 -105.5t-49.5 -107t-80.5 -95t-115.5 -74.5v-6q8 -7 19.5 -18.5t36 -47t34.5 -70.5l9 -28q19 -63 36 -84t62 -21l63 4l-59 -315q-88 -6 -168 -6
q-70 0 -126.5 14.5t-92 37t-62.5 55t-40.5 61.5t-24.5 65l-63 213q-10 32 -26 47t-50 15h-47l-37 -187h129l-60 -315h-731zM856 823h92q82 0 136.5 49t54.5 132q0 57 -28 91.5t-79 34.5h-117z" />
    <glyph glyph-name="S" unicode="S" horiz-adv-x="1325" 
d="M182 557h393l-18 -94q-21 -107 182 -107q84 0 125 33.5t41 79.5q0 26 -33.5 48t-87 40.5t-118.5 40.5t-130 56t-118.5 79t-87 117t-33.5 162q0 101 35 183.5t95 138t142.5 93t174.5 54t194 16.5q51 0 103.5 -5t115.5 -17.5t114.5 -37t92.5 -59t58 -88.5t3 -121l-43 -211
h-391l19 93q7 38 -26.5 51.5t-96.5 13.5q-78 0 -114 -23.5t-36 -62.5q0 -34 33.5 -59.5t87.5 -44.5t119 -40t130.5 -53.5t119.5 -75.5t87.5 -114.5t33.5 -163.5q0 -100 -35.5 -183.5t-97.5 -142t-146.5 -99t-182 -60t-204.5 -19.5q-58 0 -120 9.5t-127.5 28.5t-121 52
t-97.5 76.5t-59.5 106.5t-4.5 137z" />
    <glyph glyph-name="T" unicode="T" horiz-adv-x="1460" 
d="M350 0l62 315h155l158 815h-98l-37 -196h-367l105 539h1370l-105 -539h-368l37 196h-95l-157 -815h155l-61 -315h-754z" />
    <glyph glyph-name="U" unicode="U" horiz-adv-x="1703" 
d="M305 457q0 57 12 118l113 582h-156l62 316h749l-61 -316h-152l-116 -608q-4 -28 -4 -43q0 -150 170 -150q201 0 237 193l117 608h-152l60 316h749l-59 -316h-156l-119 -616q-50 -263 -228 -414.5t-451 -151.5q-100 0 -190 17.5t-168 55.5t-135 93.5t-89.5 136.5
t-32.5 179z" />
    <glyph glyph-name="V" unicode="V" horiz-adv-x="1523" 
d="M537 0l-175 1157h-114l61 316h676l-61 -316h-115l35 -500q3 -43 2 -83.5t-4 -69.5l-2 -29h8q26 98 65 182l228 500h-115l61 316h701l-62 -316h-114l-625 -1157h-450z" />
    <glyph glyph-name="W" unicode="W" horiz-adv-x="2162" 
d="M426 0l-51 1157h-115l59 316h701l-59 -316h-170l-7 -510q0 -36 -3 -79.5t-6 -69.5l-3 -25h8q21 92 58 174l350 826h334l28 -826q2 -43 1 -81.5t-4 -65.5l-3 -27h10q19 92 52 174l192 510h-168l60 316h725l-62 -316h-115l-501 -1157h-482l-22 621q-2 36 0.5 82t6.5 74
l3 28h-8q-29 -104 -66 -184l-260 -621h-483z" />
    <glyph glyph-name="X" unicode="X" horiz-adv-x="1517" 
d="M68 0l61 315h109l444 457l-248 385h-131l62 316h645l-62 -316h-96l70 -110q11 -17 21.5 -35.5t14.5 -28.5l5 -10h4q24 31 63 74l105 110h-86l61 316h627l-62 -316h-108l-434 -446l253 -396h123l-59 -315h-647l61 315h105l-78 117q-11 16 -22 36t-16 32l-5 12h-4
q-31 -41 -68 -80l-106 -117h92l-62 -315h-632z" />
    <glyph glyph-name="Y" unicode="Y" horiz-adv-x="1396" 
d="M322 0l59 315h156l55 279l-227 563h-119l61 316h611l-60 -316h-82l58 -184l20 -78h4q16 31 49 78l129 184h-80l60 316h645l-62 -316h-118l-447 -563l-55 -279h156l-60 -315h-753z" />
    <glyph glyph-name="Z" unicode="Z" horiz-adv-x="1382" 
d="M98 0l52 268l714 795q16 18 36.5 35.5t33.5 25.5l12 9v4q-49 -7 -90 -7h-166l-39 -196h-366l104 539h1163l-51 -263l-719 -800q-16 -18 -37 -35.5t-34 -26.5l-13 -8v-4q52 6 93 6h200l41 207h367l-107 -549h-1194z" />
    <glyph glyph-name="bracketleft" unicode="[" horiz-adv-x="798" 
d="M121 -195l342 1745h579l-57 -290h-229l-226 -1164h230l-60 -291h-579z" />
    <glyph glyph-name="backslash" unicode="\" horiz-adv-x="1001" 
d="M582 -86l-213 1628h336l213 -1628h-336z" />
    <glyph glyph-name="bracketright" unicode="]" horiz-adv-x="796" 
d="M76 96h229l225 1164h-229l59 290h580l-340 -1745h-580z" />
    <glyph glyph-name="asciicircum" unicode="^" 
d="M-10 487l418 986h262l420 -986h-353l-198 566l-197 -566h-352z" />
    <glyph glyph-name="underscore" unicode="_" horiz-adv-x="1228" 
d="M-25 0h1276l-59 -315h-1274z" />
    <glyph glyph-name="grave" unicode="`" horiz-adv-x="976" 
d="M514 1894l168 -329h-305l-258 329h395z" />
    <glyph glyph-name="a" unicode="a" horiz-adv-x="1216" 
d="M92 250q0 87 45.5 157t116 113t162.5 71.5t179 40t171 11.5q10 37 10 64q0 53 -104 53q-57 0 -135 -24t-127 -48l-50 -24l-81 303q10 5 27.5 13t71.5 28.5t108 36.5t129.5 29t142.5 13q56 0 111.5 -8t116.5 -31.5t106.5 -59.5t75.5 -97.5t30 -140.5q0 -66 -30.5 -201.5
t-30.5 -179.5q0 -66 73 -66l35 2l-59 -305q-21 -6 -152 -6q-9 0 -32.5 -0.5t-35.5 -0.5t-35.5 1.5t-38 4t-36 8t-35.5 13.5t-31.5 20t-29.5 28t-23.5 38t-19.5 48h-4q-5 -7 -14.5 -18.5t-42 -41t-68 -52.5t-91 -41.5t-112.5 -18.5q-120 0 -206.5 72t-86.5 196zM502 326
q0 -33 19 -49.5t44 -16.5q47 0 90.5 44t63.5 112l10 37h-33q-21 0 -50 -5.5t-63.5 -18.5t-57.5 -40t-23 -63z" />
    <glyph glyph-name="b" unicode="b" horiz-adv-x="1353" 
d="M135 0l225 1169h-129l60 304h555l-76 -383l-22 -95h4q49 44 118 68t134 24q194 0 304.5 -128t110.5 -345q0 -138 -50 -259.5t-132 -203.5t-187 -129t-214 -47q-82 0 -159.5 28.5t-127.5 92.5h-4q0 -20 -4 -47l-9 -49h-397zM645 473q0 -64 33.5 -105.5t99.5 -41.5
q78 0 143.5 70.5t65.5 185.5q0 68 -36 108.5t-97 40.5q-25 0 -58 -14.5t-68 -42.5t-59 -81t-24 -120z" />
    <glyph glyph-name="c" unicode="c" horiz-adv-x="1196" 
d="M135 457q0 86 28 174t86.5 170t139.5 145.5t195.5 102t246.5 38.5q64 0 127.5 -8.5t130 -30.5t114 -55.5t72 -89t11.5 -125.5l-31 -162h-360l12 52q7 29 -18 48t-84 19q-58 0 -105 -24t-75 -61t-43 -79t-15 -82q0 -30 8 -55.5t28 -51.5t60.5 -41t98.5 -15q50 0 102 11.5
t91 28t70.5 33t48.5 27.5l16 12l104 -309q-7 -6 -20 -16.5t-58.5 -37t-96.5 -47t-133 -37t-169 -16.5q-143 0 -256 39.5t-183 107.5t-106.5 153.5t-36.5 181.5z" />
    <glyph glyph-name="d" unicode="d" horiz-adv-x="1409" 
d="M141 451q0 138 49 258t131 202t192 129t230 47q53 0 97.5 -9.5t70 -22.5t43.5 -26t24 -23l7 -9h4q2 27 6 43l25 129h-127l57 304h557l-200 -1035q0 -1 -2.5 -11.5t-4.5 -26t-2 -29.5q0 -68 70 -68l39 2l-57 -305q-84 -10 -166 -10q-267 0 -305 166h-5
q-129 -181 -335 -181q-175 0 -286.5 130t-111.5 346zM573 485q0 -74 33.5 -116.5t87.5 -42.5q30 0 66.5 15t71.5 43t58 77t23 108q0 72 -31.5 117t-93.5 45q-80 0 -147.5 -69t-67.5 -177z" />
    <glyph glyph-name="e" unicode="e" horiz-adv-x="1165" 
d="M143 477q0 166 80.5 306t224 222t318.5 82q217 0 341 -116.5t124 -298.5q0 -50 -10.5 -101.5t-20.5 -77.5l-10 -26h-621q-1 -72 43.5 -106.5t118.5 -34.5q67 0 144 25t121 50l44 25l107 -313q-7 -6 -21 -15t-60 -33t-96 -42t-128 -33t-158 -15q-134 0 -239 39.5
t-170 108.5t-98.5 159t-33.5 195zM608 651h205q4 37 4 60q0 90 -76 90q-94 0 -133 -150z" />
    <glyph glyph-name="f" unicode="f" horiz-adv-x="847" 
d="M186 0l148 760h-129l59 303h129l8 43q16 84 53.5 150t88.5 108t106.5 71t119 43t114 19.5t102.5 5.5q36 0 71 -2.5t52 -4.5l16 -3l-67 -330q-46 8 -99 8q-63 0 -94 -17.5t-39 -57.5l-6 -33h203l-57 -303h-203l-150 -760h-426z" />
    <glyph glyph-name="g" unicode="g" horiz-adv-x="1372" 
d="M252 -23q4 -3 12 -7.5t35.5 -16t58.5 -20.5t82.5 -16t106.5 -7q96 0 153.5 36.5t79.5 123.5l25 84h-2q-106 -115 -236 -115q-106 0 -187 36.5t-130 100t-73.5 144t-24.5 174.5q0 89 24 175.5t73 162t116 132.5t159 90t197 33q61 0 112.5 -14.5t81 -35.5t50.5 -41.5
t29 -35.5l7 -14h5q0 50 42.5 83.5t92.5 33.5h370l-61 -303h-61q-44 0 -50 -37l-122 -612q-23 -116 -73.5 -209.5t-115 -154.5t-144.5 -101.5t-160.5 -58t-164.5 -17.5q-94 0 -176.5 12t-133 29t-88.5 34.5t-53 29.5l-16 12zM582 530q0 -61 29 -100t96 -39q82 0 136 71
t54 152q0 70 -37.5 95.5t-99.5 25.5q-82 0 -130 -56t-48 -149z" />
    <glyph glyph-name="h" unicode="h" horiz-adv-x="1413" 
d="M135 0l225 1169h-129l60 304h559l-94 -469q-4 -23 -11 -45t-11 -33l-5 -11h4q5 7 15 18.5t44 41t71.5 52.5t96.5 41.5t121 18.5q84 0 152.5 -31.5t113 -101.5t44.5 -168q0 -76 -34 -229.5t-34 -185.5q0 -68 72 -68l37 2l-58 -305q-37 -6 -139 -6q-41 0 -70.5 1.5
t-68.5 7.5t-66.5 16t-56.5 29.5t-47 47t-29.5 68t-11.5 92.5q0 80 30.5 222.5t30.5 164.5q0 59 -74 59q-86 0 -143.5 -75.5t-79.5 -188.5l-86 -438h-428z" />
    <glyph glyph-name="i" unicode="i" horiz-adv-x="784" 
d="M406 1161l59 312h414l-60 -312h-413zM233 258q0 60 19 150l67 352h-129l58 303h557l-121 -625q-8 -36 -8 -69q0 -66 74 -66l32 2l-57 -305q-51 -6 -119 -6q-49 0 -81.5 1.5t-75 7t-70.5 16t-58 30t-47.5 47t-29 68.5t-11.5 94z" />
    <glyph glyph-name="j" unicode="j" horiz-adv-x="745" 
d="M418 1161l61 312h412l-60 -312h-413zM-53 -98q20 -2 45 -2q176 0 192 92l148 768h-131l57 303h559l-203 -1055q-17 -87 -56 -157.5t-91 -116.5t-109.5 -79.5t-120.5 -50.5t-114.5 -24.5t-99.5 -7.5q-37 0 -72 1.5t-51 2.5l-17 2z" />
    <glyph glyph-name="k" unicode="k" horiz-adv-x="1294" 
d="M135 0l223 1169h-129l58 304h557l-154 -801h96l95 88h-105l58 303h581l-59 -303h-90l-213 -209v-4q30 -33 63 -103l29 -67q29 -72 98 -72l57 2l-57 -307q-43 -6 -149 -6q-38 0 -71 3.5t-58 8t-47.5 15t-37 17.5t-29.5 23l-22.5 24t-18 28.5t-14 28t-12.5 30.5t-12 29
l-41 114q-21 60 -61 60h-39l-72 -375h-424z" />
    <glyph glyph-name="l" unicode="l" horiz-adv-x="737" 
d="M186 283q0 62 15 151l143 735h-129l59 304h555l-190 -1004q-12 -47 -12 -84q0 -30 15.5 -44.5t57.5 -14.5l41 2l-67 -334q-51 -6 -117 -6q-64 0 -112.5 5.5t-99.5 24t-84 50t-54 86t-21 129.5z" />
    <glyph glyph-name="m" unicode="m" horiz-adv-x="2009" 
d="M186 0l140 717q8 43 -37 43h-84l57 303h381q67 0 101 -26t34 -70q0 -15 -3 -32.5t-6 -27.5l-3 -10h4q6 8 17 20.5t46.5 45.5t72 58t90 45.5t104.5 20.5q84 0 154 -51.5t92 -154.5h4q137 206 342 206q124 0 208.5 -77.5t84.5 -221.5q0 -78 -34 -230.5t-34 -184.5
q0 -70 72 -70l36 2l-57 -305q-37 -6 -137 -6q-40 0 -69.5 1.5t-69 7t-67 16t-57 29.5t-48 46t-30 67t-11.5 91q0 80 32.5 229t32.5 176q0 21 -9.5 32t-35.5 11q-130 0 -186 -280l-84 -420h-428l125 627q10 34 1 53.5t-42 19.5q-34 0 -62.5 -18t-48 -45.5t-36.5 -70.5
t-27 -82t-21 -91l-78 -393h-426z" />
    <glyph glyph-name="n" unicode="n" horiz-adv-x="1464" 
d="M186 0l140 715q4 21 -6 33t-31 12h-84l57 303h383q64 0 98.5 -26t34.5 -74q0 -16 -3.5 -35.5t-6.5 -31.5l-4 -11h4q5 8 14.5 21.5t42.5 48.5t71 61.5t100.5 48.5t129.5 22q137 0 225.5 -78t88.5 -229q0 -73 -33 -224t-33 -187q0 -66 74 -66l35 2l-60 -305q-35 -6 -141 -6
q-41 0 -70.5 1.5t-68.5 7.5t-66.5 16.5t-56 30t-46 47.5t-29 69.5t-11.5 93.5q0 75 30.5 218.5t30.5 162.5q0 17 -4 28.5t-21 22t-48 10.5q-86 0 -142 -74.5t-80 -189.5l-88 -438h-426z" />
    <glyph glyph-name="o" unicode="o" 
d="M137 457q0 137 58 256.5t153.5 200.5t220 127t256.5 46q157 0 282 -58t197 -169t72 -256q0 -137 -58 -256.5t-154 -200t-220.5 -126.5t-257.5 -46q-156 0 -280 58t-196.5 168.5t-72.5 255.5zM569 477q0 -72 41 -110.5t107 -38.5q89 0 158 67t69 183q0 74 -40.5 115.5
t-104.5 41.5q-85 0 -157.5 -71.5t-72.5 -186.5z" />
    <glyph glyph-name="p" unicode="p" horiz-adv-x="1404" 
d="M111 -410l215 1125q6 45 -35 45h-84l57 303h371q66 0 95.5 -22t29.5 -54q0 -15 -3 -28.5t-6 -20.5l-3 -6h4q58 77 138 116t165 39q192 0 303.5 -128t111.5 -345q0 -138 -50 -259.5t-132 -203.5t-187 -129t-214 -47q-144 0 -260 101h-4q-3 -37 -13 -90l-71 -396h-428z
M698 475q0 -67 33 -108t100 -41q79 0 144 70.5t65 185.5q0 68 -35 108.5t-96 40.5q-26 0 -59.5 -14t-68.5 -42t-59 -80.5t-24 -119.5z" />
    <glyph glyph-name="q" unicode="q" horiz-adv-x="1355" 
d="M141 451q0 138 49.5 258.5t132 202.5t191 128.5t225.5 46.5q58 0 107.5 -11.5t78.5 -28.5t50 -34t29 -29l8 -11h4q2 51 12 90h399l-227 -1176h129l-57 -297h-557l78 406l20 88h-4l-11.5 -11.5t-34 -26.5t-55.5 -33t-75.5 -26t-95.5 -12q-174 0 -285 130.5t-111 345.5z
M573 485q0 -74 33.5 -116.5t87.5 -42.5q31 0 67 14.5t71 42.5t58 77t23 109q0 71 -32.5 116.5t-92.5 45.5q-81 0 -148 -69t-67 -177z" />
    <glyph glyph-name="r" unicode="r" horiz-adv-x="999" 
d="M188 0l138 715q4 18 -4.5 31.5t-32.5 13.5h-84l61 303h379q135 0 135 -100q0 -60 -24 -134h4q57 114 157 184t220 70l45 -2l-82 -419q-18 6 -86 6q-272 0 -328 -295l-70 -373h-428z" />
    <glyph glyph-name="s" unicode="s" horiz-adv-x="1087" 
d="M98 283l23 108h354l-4 -24q-7 -40 23 -57t88 -17q108 0 108 45q0 21 -26 38t-67 31t-90.5 30.5t-99.5 41t-91 56.5t-67 83t-26 115q0 88 46.5 157.5t124 111.5t170 63.5t192.5 21.5q81 0 154.5 -14t137.5 -43.5t96 -84t19 -126.5l-22 -123h-355l5 27q4 28 -13.5 37.5
t-52.5 9.5q-90 0 -90 -45q0 -26 35 -45.5t87.5 -32.5t114 -35.5t114 -51t87.5 -83t35 -127.5q0 -108 -74 -194.5t-199 -133.5t-276 -47q-65 0 -129.5 8.5t-131.5 30.5t-114.5 55.5t-72.5 89t-13 124.5z" />
    <glyph glyph-name="t" unicode="t" horiz-adv-x="876" 
d="M315 760h-129l58 303h145l55 285h408l-55 -285h211l-58 -303h-211l-55 -291q-8 -40 -8 -66q0 -75 147 -75l56 4l-66 -336q-63 -6 -108 -6q-213 0 -341 89.5t-128 246.5q0 40 12 98z" />
    <glyph glyph-name="u" unicode="u" horiz-adv-x="1460" 
d="M236 276q0 59 12 121l71 363h-131l62 303h557l-115 -586q-10 -40 -10 -67q0 -31 13.5 -46.5t49.5 -15.5q74 0 137 77t81 173l30 162h-131l62 303h557l-123 -625q-8 -40 -8 -71t17 -48.5t65 -17.5l26 2l-57 -303q-5 -2 -84.5 -5t-128.5 -3q-53 0 -89.5 6.5t-74 26
t-62 61.5t-36.5 107h-4q-144 -218 -365 -218q-138 0 -229.5 77.5t-91.5 223.5z" />
    <glyph glyph-name="v" unicode="v" horiz-adv-x="1316" 
d="M403 0l-124 760h-115l61 303h580l-62 -303h-59l21 -277q3 -33 3.5 -72.5t-0.5 -62.5l-1 -24h8q26 83 61 159l127 277h-59l61 303h602l-59 -303h-115l-420 -760h-510z" />
    <glyph glyph-name="w" unicode="w" horiz-adv-x="1820" 
d="M317 0l-22 760h-117l62 303h594l-60 -303h-94l-14 -256l-13 -160h9q24 88 53 160l225 559h336v-559l-6 -160h8q24 88 47 160l88 256h-94l61 303h619l-62 -303h-116l-318 -760h-497l8 412q1 34 4 73t6 61l2 23h-10q-20 -79 -49 -157l-152 -412h-498z" />
    <glyph glyph-name="x" unicode="x" horiz-adv-x="1189" 
d="M68 0l59 303h104l242 238l-117 184q-10 20 -26 27.5t-47 7.5h-72l61 303h246q65 0 94.5 -15t53.5 -67l47 -104q8 -19 15.5 -43.5t11.5 -39.5l3 -14h5q30 51 63 94l152 189h364l-61 -303h-84l-252 -250l94 -133q35 -47 50.5 -60.5t43.5 -13.5h66l-58 -303q-45 -6 -122 -6
q-72 0 -120 9.5t-80.5 33.5t-49.5 47.5t-41 67.5l-17 30q-9 17 -17.5 41.5t-12.5 40.5l-4 15h-5q-28 -58 -63 -99l-143 -180h-383z" />
    <glyph glyph-name="y" unicode="y" horiz-adv-x="1329" 
d="M121 -45q6 -5 18 -12.5t58 -20t102 -12.5q114 0 162 53l-185 797h-112l57 303h602l-59 -303h-70l27 -287q3 -38 2 -73t-3 -60l-3 -25h10q31 84 66 158l131 287h-62l58 303h583l-57 -303h-100l-465 -819q-62 -109 -133 -184t-147.5 -114.5t-149.5 -56t-158 -16.5
q-62 0 -121.5 9.5t-99.5 23.5t-71 28t-45 23l-15 10z" />
    <glyph glyph-name="z" unicode="z" horiz-adv-x="1155" 
d="M82 0l49 258l535 451q17 15 35 27.5t27 17.5l9 6v4q-59 -4 -92 -4h-74l-20 -109h-354l82 412h987l-52 -260l-526 -449q-16 -15 -33.5 -27.5t-26.5 -18.5l-10 -5v-4q60 4 93 4h86l20 109h354l-81 -412h-1008z" />
    <glyph glyph-name="braceleft" unicode="{" horiz-adv-x="831" 
d="M629 -207q-68 0 -128.5 12.5t-114.5 39t-88.5 68.5t-50 101.5t0.5 137.5l31 163q6 24 6 52q0 38 -15 65.5t-36 40t-42 19.5t-36 8h-15l72 368q7 0 19 0.5t43.5 10t58 27t53 57.5t37.5 96l43 223q14 72 54.5 126.5t98.5 86.5t131.5 51t153.5 19.5t164 -6.5l-57 -302
q-69 18 -136 -4t-77 -73l-56 -271q-10 -48 -36.5 -89t-58 -65.5t-61 -42t-49.5 -24.5l-20 -6v-4q5 -1 14 -4.5t32 -19.5t40.5 -38t32 -64t14.5 -95q0 -39 -8 -80l-39 -197q-11 -60 34.5 -76.5t147.5 -5.5l-57 -301q-55 -4 -100 -4z" />
    <glyph glyph-name="bar" unicode="|" horiz-adv-x="780" 
d="M340 -344v1997h350v-1997h-350z" />
    <glyph glyph-name="braceright" unicode="}" horiz-adv-x="833" 
d="M25 -203l59 301q96 -14 149 7.5t66 84.5l55 269q10 48 37 89t58 64.5t61 40t50 23.5l20 6v4q-5 1 -14.5 4.5t-32.5 19.5t-40.5 38.5t-32 65.5t-14.5 97q0 48 25 165.5t25 127.5q0 31 -33 46t-75 13.5t-81 -6.5l60 302q64 6 130.5 3.5t130.5 -25t114 -55.5t81 -88t31 -122
q0 -40 -20.5 -141t-20.5 -130q0 -39 14.5 -67t35.5 -40t42.5 -19t36.5 -7h14l-69 -368q-7 0 -19 -0.5t-44 -10.5t-58.5 -28t-53 -58t-36.5 -96l-47 -233q-18 -89 -76 -151t-140 -90.5t-183 -39t-205 3.5z" />
    <glyph glyph-name="asciitilde" unicode="~" horiz-adv-x="1280" 
d="M182 379q0 217 96 332.5t271 115.5q63 0 114 -15t82.5 -36.5t57 -43.5t51.5 -37t53 -15q41 0 70 30.5t29 108.5h325q0 -217 -95 -332.5t-271 -115.5q-62 0 -112.5 15t-82.5 37t-58 43.5t-52.5 36.5t-53.5 15q-39 0 -67.5 -31t-28.5 -108h-328z" />
    <glyph glyph-name="uni00A0" unicode="&#xa0;" horiz-adv-x="458" 
 />
    <glyph glyph-name="exclamdown" unicode="&#xa1;" horiz-adv-x="657" 
d="M274 707l68 356h379l-68 -356h-379zM29 -410l233 996h363l-152 -996h-444z" />
    <glyph glyph-name="cent" unicode="&#xa2;" horiz-adv-x="1277" 
d="M516 -25l39 193q-154 57 -245 189t-91 319q0 114 36.5 215t94.5 173t132.5 127.5t149 87t146.5 44.5l33 172h262l-35 -190q77 -25 137.5 -71t92 -94t52 -92.5t26.5 -73.5l6 -28l-381 -137q-1 5 -2.5 13.5t-9.5 30t-20.5 38t-36 30t-54.5 13.5q-75 0 -139 -68.5
t-64 -177.5q0 -68 36.5 -107.5t92.5 -39.5q37 0 69 12.5t52 30.5t34.5 35.5t20.5 30.5l6 12l359 -152q-3 -7 -9 -19t-27.5 -47.5t-47.5 -68t-69.5 -73.5t-91.5 -72.5t-116 -57t-141 -33.5l-33 -164h-264z" />
    <glyph glyph-name="sterling" unicode="&#xa3;" horiz-adv-x="1329" 
d="M88 0l62 330h155l53 264h-155l53 268h154l39 195q39 196 194 318t358 122q80 0 155 -21t124 -51.5t86.5 -60.5t54.5 -51l17 -21l-258 -260q-10 10 -26.5 25t-62.5 40t-85 25q-42 0 -78.5 -26.5t-44.5 -73.5l-31 -160h293l-53 -268h-291l-53 -264h213l36 178h367l-96 -508
h-1180z" />
    <glyph glyph-name="yen" unicode="&#xa5;" horiz-adv-x="1396" 
d="M471 0l61 311h-333l43 228h333l11 49l-29 102h-287l45 228h179l-148 555h453l30 -220l37 -321h4q72 167 146 323l104 218h492l-365 -555h183l-46 -228h-290l-66 -102l-10 -49h338l-43 -228h-338l-62 -311h-442z" />
    <glyph glyph-name="section" unicode="&#xa7;" horiz-adv-x="1171" 
d="M80 68l207 239q4 -4 12.5 -10.5t37.5 -23.5t61 -30t82 -23.5t102 -10.5q233 0 233 246q0 27 -2.5 58t-6 56.5t-12 73t-14.5 77.5t-20 101.5t-23 116.5h305q76 -332 76 -510q0 -115 -34 -214.5t-99 -176t-168.5 -120.5t-234.5 -44q-89 0 -173.5 20t-141.5 48.5t-101 57.5
t-65 49zM1356 1303l-207 -240q-4 4 -12.5 10.5t-37.5 23.5t-61 30t-82 23.5t-102 10.5q-233 0 -233 -246q0 -24 1.5 -47t5.5 -53.5t7 -53t11.5 -67t13.5 -71t18 -90t20 -101.5h-305q-76 332 -76 510q0 115 34 214.5t99.5 176t169 120.5t234.5 44q89 0 173.5 -20t141.5 -48.5
t101 -57t65 -48.5z" />
    <glyph glyph-name="dieresis" unicode="&#xa8;" horiz-adv-x="978" 
d="M461 1569l63 325h301l-63 -325h-301zM-66 1569l66 325h299l-63 -325h-302z" />
    <glyph glyph-name="copyright" unicode="&#xa9;" horiz-adv-x="1648" 
d="M227 733q0 154 58.5 293.5t157 240.5t234.5 160.5t286 59.5q153 0 290.5 -59.5t236.5 -160.5t157.5 -240.5t58.5 -293.5t-58.5 -294.5t-157.5 -242t-237 -161.5t-290 -60q-150 0 -286 60t-234.5 161.5t-157 242t-58.5 294.5zM459 733q0 -150 66 -276t182 -198.5
t256 -72.5q143 0 261 72.5t185.5 198t67.5 276.5q0 150 -67.5 274.5t-185.5 196.5t-261 72q-140 0 -256 -72t-182 -197t-66 -274zM614 727q0 161 105 272t248 111q74 0 135.5 -24.5t96.5 -59t58.5 -69t32.5 -59.5l8 -24l-204 -79q-1 4 -3.5 11t-12.5 24t-22 30t-34 24
t-47 11q-48 0 -84.5 -48t-36.5 -120q0 -81 33.5 -124.5t87.5 -43.5q40 0 69.5 25t39.5 50l10 25l204 -79q-3 -10 -9 -25.5t-31.5 -56.5t-59 -72t-95.5 -56.5t-136 -25.5q-143 0 -248 111t-105 272z" />
    <glyph glyph-name="ordfeminine" unicode="&#xaa;" horiz-adv-x="860" 
d="M467 784q-79 0 -131.5 46t-52.5 120q0 51 16.5 92.5t42 68t62.5 46t70.5 29.5t74 16t65.5 7t52 1h30l6 29q10 47 -65 47q-36 0 -80 -12t-70 -24l-26 -11l-60 186q15 8 42 19t109.5 30t162.5 19q136 0 204 -57t68 -160q0 -30 -6 -68l-78 -407h-260l16 92h-4
q-3 -4 -8 -11.5t-23 -26.5t-38 -33t-52.5 -26t-66.5 -12zM578 965q27 0 51 21.5t30 51.5l7 35h-19q-119 0 -119 -72q0 -36 50 -36zM209 551l35 180h653l-35 -180h-653z" />
    <glyph glyph-name="guillemotleft" unicode="&#xab;" horiz-adv-x="1456" 
d="M1018 158l-266 417l440 424h403l-473 -438l269 -403h-373zM428 158l-268 417l391 424h395l-416 -438l269 -403h-371z" />
    <glyph glyph-name="logicalnot" unicode="&#xac;" horiz-adv-x="1361" 
d="M252 686v318h1063v-752h-328v434h-735z" />
    <glyph glyph-name="uni00AD" unicode="&#xad;" horiz-adv-x="921" 
d="M205 406l71 368h666l-72 -368h-665z" />
    <glyph glyph-name="registered" unicode="&#xae;" horiz-adv-x="1648" 
d="M227 733q0 154 58.5 293.5t157 240.5t234.5 160.5t286 59.5q153 0 290.5 -59.5t236.5 -160.5t157.5 -240.5t58.5 -293.5t-58.5 -294.5t-157.5 -242t-237 -161.5t-290 -60q-150 0 -286 60t-234.5 161.5t-157 242t-58.5 294.5zM459 733q0 -150 66 -276t182 -198.5
t256 -72.5q143 0 261 72.5t185.5 198t67.5 276.5q0 150 -67.5 274.5t-185.5 196.5t-261 72q-140 0 -256 -72t-182 -197t-66 -274zM696 383v711h334q115 0 182.5 -64t67.5 -172q0 -76 -40.5 -123.5t-78.5 -58.5v-4q9 -6 27 -41l129 -248h-242l-100 242h-57v-242h-222z
M918 772h55q40 0 61 22.5t21 63.5q0 84 -78 84h-59v-170z" />
    <glyph glyph-name="macron" unicode="&#xaf;" horiz-adv-x="978" 
d="M66 1599l53 271h583l-55 -271h-581z" />
    <glyph glyph-name="degree" unicode="&#xb0;" horiz-adv-x="888" 
d="M633 754q-165 0 -270 96.5t-105 243.5q0 105 61 200.5t159 153t202 57.5q165 0 272 -98.5t107 -245.5q0 -107 -62.5 -202t-160.5 -150t-203 -55zM651 1042q36 0 69.5 28.5t33.5 62.5q0 38 -26 61t-66 23q-39 0 -70 -31t-31 -66t25 -56.5t65 -21.5z" />
    <glyph glyph-name="plusminus" unicode="&#xb1;" 
d="M201 432v316h403v434h330v-434h401v-316h-401v-432h-330v432h-403zM217 -119h1104v-311h-1104v311z" />
    <glyph glyph-name="twosuperior" unicode="&#xb2;" horiz-adv-x="870" 
d="M244 866q0 77 17 144t46 114.5t66.5 88t79.5 68.5t83.5 51t79 41t66.5 34t46 33.5t17 36.5q0 36 -53 36q-35 0 -75.5 -20.5t-63.5 -40.5l-23 -20l-178 180q7 7 19 19.5t52.5 44t83.5 55.5t107 43.5t127 19.5q56 0 111 -15.5t104 -46t79 -83.5t30 -121q0 -57 -24.5 -106.5
t-64 -85t-87.5 -66t-95.5 -53t-87.5 -42t-65 -38t-25 -35.5h199l14 80h211l-59 -316h-737z" />
    <glyph glyph-name="threesuperior" unicode="&#xb3;" horiz-adv-x="831" 
d="M594 846q-71 0 -132 14.5t-98.5 35t-64.5 41.5t-38 35l-11 15l178 205q2 -3 6.5 -7.5t20 -16t33 -20.5t45.5 -16.5t59 -7.5q44 0 69 17t25 43q0 35 -92 35h-59l-13 122l162 158q9 11 23 23.5t24 19.5l10 6v8q-40 -8 -73 -8h-90l-19 -90h-211l62 316h667l-35 -193
l-206 -188q75 -30 120 -85.5t45 -121.5q0 -60 -29 -120t-79.5 -109t-129 -80t-169.5 -31z" />
    <glyph glyph-name="acute" unicode="&#xb4;" horiz-adv-x="976" 
d="M29 1565l295 329h428l-385 -329h-338z" />
    <glyph glyph-name="mu" unicode="&#xb5;" horiz-adv-x="1335" 
d="M434 -231l-35 -179h-358l285 1473h428l-119 -604q-2 -14 -2 -35q0 -36 16 -49t47 -13q75 0 133 68.5t76 167.5l90 465h428l-206 -1063h-412l4 20q4 24 11 51.5t12 42.5l4 15h-5q-45 -68 -130.5 -111t-172.5 -43h-71h-4q-1 -114 -19 -206z" />
    <glyph glyph-name="mu" unicode="&#x3bc;" horiz-adv-x="1335" 
d="M434 -231l-35 -179h-358l285 1473h428l-119 -604q-2 -14 -2 -35q0 -36 16 -49t47 -13q75 0 133 68.5t76 167.5l90 465h428l-206 -1063h-412l4 20q4 24 11 51.5t12 42.5l4 15h-5q-45 -68 -130.5 -111t-172.5 -43h-71h-4q-1 -114 -19 -206z" />
    <glyph glyph-name="paragraph" unicode="&#xb6;" horiz-adv-x="1439" 
d="M504 -102l119 596q-73 0 -143.5 33t-125 89.5t-88 139t-33.5 174.5q0 111 45 211t124.5 173t193 116t244.5 43h786l-72 -369h-524l-235 -1206h-291zM922 -102l217 1112h288l-217 -1112h-288z" />
    <glyph glyph-name="periodcentered" unicode="&#xb7;" horiz-adv-x="626" 
d="M203 414l76 391h376l-73 -391h-379z" />
    <glyph glyph-name="cedilla" unicode="&#xb8;" horiz-adv-x="976" 
d="M160 -219l157 285l162 -41l-4 -15l-61 -106q75 -5 125.5 -48.5t50.5 -109.5q0 -65 -34 -114t-89.5 -75.5t-115.5 -39.5t-122 -13q-33 0 -69.5 5t-57.5 11l-20 5l31 174q45 -18 104 -18q102 0 102 55q0 45 -102 45h-57z" />
    <glyph glyph-name="onesuperior" unicode="&#xb9;" horiz-adv-x="819" 
d="M252 866l45 236h199l43 225q3 14 9 31t10 27l5 10h-4q-27 -29 -45 -43l-53 -33l-137 188l348 267h260l-129 -672h203l-45 -236h-709z" />
    <glyph glyph-name="ordmasculine" unicode="&#xba;" horiz-adv-x="940" 
d="M649 791q-151 0 -248.5 83.5t-97.5 221.5q0 115 63 207.5t160.5 141t206.5 48.5q152 0 249 -83t97 -222q0 -114 -63.5 -207t-161 -141.5t-205.5 -48.5zM672 1038q46 0 81 33.5t35 93.5q0 37 -21.5 59.5t-53.5 22.5q-43 0 -81 -37.5t-38 -95.5q0 -36 22 -56t56 -20z
M217 551l37 180h717l-37 -180h-717z" />
    <glyph glyph-name="guillemotright" unicode="&#xbb;" horiz-adv-x="1452" 
d="M735 158l414 438l-268 403h372l269 -417l-392 -424h-395zM86 158l473 438l-268 403h371l268 -417l-443 -424h-401z" />
    <glyph glyph-name="onequarter" unicode="&#xbc;" horiz-adv-x="2203" 
d="M1729 0l34 172h-391l33 193l420 542h381l-101 -516h101l-41 -219h-101l-32 -172h-303zM1665 391h139l39 197q4 21 12.5 48t14.5 44l6 16h-8q-31 -61 -60 -102l-143 -199v-4zM911 0h-303l973 1473h303zM229 565l45 236h199l43 225q3 14 9 31t11 27l5 10h-4
q-27 -29 -45 -43l-54 -33l-137 188l348 267h260l-129 -672h203l-45 -236h-709z" />
    <glyph glyph-name="onehalf" unicode="&#xbd;" horiz-adv-x="2199" 
d="M1389 0q0 98 27.5 179t72 133t98 93t106.5 67.5t97.5 48.5t72 44t27.5 45q0 37 -53 37q-35 0 -75.5 -20.5t-63.5 -40.5l-23 -21l-178 180q7 7 19 19.5t52.5 44t83.5 55.5t107 44t127 20q56 0 111 -15.5t104 -46t79 -83.5t30 -121q0 -57 -24.5 -106.5t-64 -85t-87.5 -66
t-95.5 -53t-87.5 -42t-65 -38t-25 -35.5h199l14 79h211l-59 -315h-737zM918 0h-304l973 1473h303zM225 565l45 236h199l43 225q3 14 9 31t11 27l5 10h-5q-27 -29 -45 -43l-53 -33l-137 188l348 267h260l-129 -672h203l-45 -236h-709z" />
    <glyph glyph-name="threequarters" unicode="&#xbe;" horiz-adv-x="2172" 
d="M1710 0l35 172h-391l32 193l420 542h381l-100 -516h100l-41 -219h-100l-33 -172h-303zM1647 391h139l39 197q4 21 12.5 48t14.5 44l6 16h-9q-30 -61 -59 -102l-143 -199v-4zM555 545q-71 0 -132 14.5t-98.5 35.5t-64.5 41.5t-38 35.5l-11 14l178 205q2 -3 6.5 -7.5
t20 -16t33 -20.5t45.5 -16.5t59 -7.5q44 0 69 17t25 43q0 35 -92 35h-59l-13 122l162 158q9 11 23 23.5t24 18.5l10 7v8q-40 -8 -73 -8h-90l-19 -90h-211l62 316h667l-34 -193l-207 -188q75 -30 120.5 -85.5t45.5 -121.5q0 -60 -29 -120t-80 -109t-129.5 -80t-169.5 -31z
M893 0h-303l973 1473h303z" />
    <glyph glyph-name="questiondown" unicode="&#xbf;" horiz-adv-x="1114" 
d="M578 707l67 356h379l-68 -356h-378zM84 -41q0 73 23 137.5t60.5 110.5t83 85.5t92.5 70.5t86 57.5t66.5 54t32.5 53.5l11 58h409l-16 -94q-11 -66 -46 -123t-79 -94.5t-93 -73t-89 -61t-66.5 -55.5t-26.5 -60q0 -31 27 -50.5t62 -19.5q43 0 91 22.5t74 44.5l27 23
l197 -311q-8 -7 -23 -18t-63 -39t-99 -50t-126.5 -39.5t-149.5 -17.5q-87 0 -168.5 25t-148.5 71.5t-107.5 122.5t-40.5 170z" />
    <glyph glyph-name="Agrave" unicode="&#xc0;" horiz-adv-x="1507" 
d="M20 0l60 315h110l596 1158h506l146 -1158h110l-59 -315h-653l61 315h115l-2 136h-314l-55 -136h115l-64 -315h-672zM817 741h178l-6 203q-2 47 -2 96.5t1 75.5l1 25h-10q-25 -91 -72 -197zM1065 1894l168 -329h-305l-258 329h395z" />
    <glyph glyph-name="Aacute" unicode="&#xc1;" horiz-adv-x="1511" 
d="M23 0l59 315h111l595 1158h506l146 -1158h110l-59 -315h-653l61 315h115l-2 136h-314l-55 -136h115l-64 -315h-671zM819 741h178l-6 203q-2 47 -2 96.5t1 75.5l1 25h-10q-25 -91 -72 -197zM854 1565l295 329h428l-385 -329h-338z" />
    <glyph glyph-name="Acircumflex" unicode="&#xc2;" horiz-adv-x="1511" 
d="M23 0l59 315h111l595 1158h506l146 -1158h110l-59 -315h-653l61 315h115l-2 136h-314l-55 -136h115l-64 -315h-671zM819 741h178l-6 203q-2 47 -2 96.5t1 75.5l1 25h-10q-25 -91 -72 -197zM625 1565l278 329h406l147 -329h-311l-60 170h-4l-123 -170h-333z" />
    <glyph glyph-name="Atilde" unicode="&#xc3;" horiz-adv-x="1511" 
d="M23 0l59 315h111l595 1158h506l146 -1158h110l-59 -315h-653l61 315h115l-2 136h-314l-55 -136h115l-64 -315h-671zM819 741h178l-6 203q-2 47 -2 96.5t1 75.5l1 25h-10q-25 -91 -72 -197zM627 1563q31 158 115 248t204 90q42 0 75 -12t52.5 -28.5t36 -33.5t35 -29
t39.5 -12q64 0 82 108h270q-28 -156 -112.5 -247t-202.5 -91q-50 0 -89 18.5t-59 40t-44.5 40t-49.5 18.5q-60 0 -84 -110h-268z" />
    <glyph glyph-name="Adieresis" unicode="&#xc4;" horiz-adv-x="1511" 
d="M23 0l59 315h111l595 1158h506l146 -1158h110l-59 -315h-653l61 315h115l-2 136h-314l-55 -136h115l-64 -315h-671zM819 741h178l-6 203q-2 47 -2 96.5t1 75.5l1 25h-10q-25 -91 -72 -197zM1165 1569l64 325h301l-64 -325h-301zM639 1569l66 325h299l-64 -325h-301z" />
    <glyph glyph-name="Aring" unicode="&#xc5;" horiz-adv-x="1511" 
d="M23 0l59 315h111l595 1158h506l146 -1158h110l-59 -315h-653l61 315h115l-2 136h-314l-55 -136h115l-64 -315h-671zM819 741h178l-6 203q-2 47 -2 96.5t1 75.5l1 25h-10q-25 -91 -72 -197zM1055 1538q-92 0 -156.5 39t-64.5 115q0 54 24.5 96t65.5 66t86.5 35.5
t93.5 11.5q92 0 157.5 -40.5t65.5 -121.5q0 -52 -26 -93t-68 -63.5t-87.5 -33.5t-90.5 -11zM1067 1647q34 0 60 25t26 61q0 26 -15.5 41.5t-43.5 15.5q-35 0 -59.5 -25t-24.5 -65q0 -53 57 -53z" />
    <glyph glyph-name="AE" unicode="&#xc6;" horiz-adv-x="2117" 
d="M27 0l59 315h104l506 842h-129l62 316h1661l-92 -478h-343l27 135h-211l-43 -217h377l-70 -344h-374l-45 -227h233l25 135h342l-93 -477h-1175l59 315h162l51 263h-327l-148 -263h129l-59 -315h-688zM975 897h207l47 233h-119z" />
    <glyph glyph-name="Ccedilla" unicode="&#xc7;" horiz-adv-x="1505" 
d="M586 -219l119 217q-231 55 -369.5 225.5t-138.5 409.5q0 174 69 332.5t186.5 275.5t284.5 186.5t353 69.5q68 0 143.5 -8.5t158.5 -29.5t146 -52t98.5 -82.5t22.5 -114.5l-51 -266h-387l18 103q17 81 -158 81q-87 0 -160.5 -31t-121.5 -80.5t-82 -113t-49 -127
t-15 -123.5q0 -63 15.5 -117t47.5 -98t88 -69t132 -25q77 0 121.5 17t52.5 63l20 104h392l-43 -239q-13 -72 -58.5 -128.5t-105.5 -90.5t-135 -56t-142 -30.5t-133 -8.5h-24l-43 -71q76 -5 126 -48.5t50 -109.5q0 -65 -33.5 -114t-89 -75.5t-115 -39.5t-121.5 -13
q-34 0 -70.5 5t-56.5 11l-20 5l31 174q43 -18 104 -18q102 0 102 55q0 45 -102 45h-57z" />
    <glyph glyph-name="Egrave" unicode="&#xc8;" horiz-adv-x="1380" 
d="M102 0l62 315h153l164 842h-155l61 316h1165l-92 -478h-366l26 135h-202l-41 -217h389l-68 -344h-389l-45 -227h221l27 131h366l-90 -473h-1186zM1047 1894l167 -329h-305l-258 329h396z" />
    <glyph glyph-name="Eacute" unicode="&#xc9;" horiz-adv-x="1380" 
d="M831 1565l295 329h428l-385 -329h-338zM102 0l62 315h153l164 842h-155l61 316h1165l-92 -478h-366l26 135h-202l-41 -217h389l-68 -344h-389l-45 -227h221l27 131h366l-90 -473h-1186z" />
    <glyph glyph-name="Ecircumflex" unicode="&#xca;" horiz-adv-x="1380" 
d="M604 1565l279 329h405l148 -329h-312l-59 170h-4l-123 -170h-334zM102 0l62 315h153l164 842h-155l61 316h1165l-92 -478h-366l26 135h-202l-41 -217h389l-68 -344h-389l-45 -227h221l27 131h366l-90 -473h-1186z" />
    <glyph glyph-name="Edieresis" unicode="&#xcb;" horiz-adv-x="1380" 
d="M1145 1569l63 325h301l-63 -325h-301zM618 1569l66 325h299l-63 -325h-302zM102 0l62 315h153l164 842h-155l61 316h1165l-92 -478h-366l26 135h-202l-41 -217h389l-68 -344h-389l-45 -227h221l27 131h366l-90 -473h-1186z" />
    <glyph glyph-name="Igrave" unicode="&#xcc;" horiz-adv-x="956" 
d="M102 0l62 315h153l162 842h-153l61 316h754l-62 -316h-157l-162 -842h155l-61 -315h-752zM795 1894l168 -329h-306l-258 329h396z" />
    <glyph glyph-name="Iacute" unicode="&#xcd;" horiz-adv-x="956" 
d="M102 0l62 315h153l162 842h-153l61 316h754l-62 -316h-157l-162 -842h155l-61 -315h-752zM582 1565l295 329h428l-385 -329h-338z" />
    <glyph glyph-name="Icircumflex" unicode="&#xce;" horiz-adv-x="956" 
d="M102 0l62 315h153l162 842h-153l61 316h754l-62 -316h-157l-162 -842h155l-61 -315h-752zM352 1565l279 329h405l148 -329h-312l-59 170h-4l-123 -170h-334z" />
    <glyph glyph-name="Idieresis" unicode="&#xcf;" horiz-adv-x="956" 
d="M102 0l62 315h153l162 842h-153l61 316h754l-62 -316h-157l-162 -842h155l-61 -315h-752zM895 1569l63 325h302l-64 -325h-301zM369 1569l65 325h299l-63 -325h-301z" />
    <glyph glyph-name="Eth" unicode="&#xd0;" horiz-adv-x="1617" 
d="M102 0l62 315h153l48 240h-140l68 342h137l51 260h-155l61 316h627q327 0 511.5 -155t184.5 -431q0 -245 -108 -447t-306 -321t-446 -119h-748zM766 342h80q126 0 223 69.5t147 183.5t50 251q0 138 -70.5 211t-200.5 73h-80l-43 -233h195l-66 -342h-194z" />
    <glyph glyph-name="Ntilde" unicode="&#xd1;" horiz-adv-x="1779" 
d="M102 0l62 315h153l164 842h-155l61 316h592l221 -670q11 -32 20 -73t12 -66l3 -25h10q9 102 23 178l67 340h-166l60 316h764l-60 -316h-155l-226 -1157h-436l-227 668q-10 30 -19 70t-12 64l-4 25h-10q-7 -100 -21 -176l-63 -336h166l-62 -315h-762zM772 1563
q31 158 115 248t205 90q51 0 89.5 -18t57 -39.5t42 -39.5t48.5 -18q64 0 82 108h270q-28 -156 -112.5 -247t-202.5 -91q-50 0 -89 18.5t-59 40t-44.5 40t-49.5 18.5q-60 0 -84 -110h-268z" />
    <glyph glyph-name="Ograve" unicode="&#xd2;" horiz-adv-x="1671" 
d="M197 639q0 170 71 328.5t189.5 274.5t280.5 185.5t337 69.5q202 0 359.5 -83.5t244 -231t86.5 -334.5q0 -139 -46.5 -272t-130 -240.5t-193 -189t-242 -126.5t-270.5 -45q-306 0 -496 186.5t-190 477.5zM641 666q0 -139 74 -224.5t194 -85.5q74 0 148 36t132 96t94 147.5
t36 183.5q0 134 -75.5 215.5t-196.5 81.5q-76 0 -149.5 -35t-130.5 -94t-91.5 -143.5t-34.5 -177.5zM1153 1894l168 -329h-305l-258 329h395z" />
    <glyph glyph-name="Oacute" unicode="&#xd3;" horiz-adv-x="1671" 
d="M940 1565l295 329h428l-385 -329h-338zM197 639q0 170 71 328.5t189.5 274.5t280.5 185.5t337 69.5q202 0 359.5 -83.5t244 -231t86.5 -334.5q0 -139 -46.5 -272t-130 -240.5t-193 -189t-242 -126.5t-270.5 -45q-306 0 -496 186.5t-190 477.5zM641 666q0 -139 74 -224.5
t194 -85.5q74 0 148 36t132 96t94 147.5t36 183.5q0 134 -75.5 215.5t-196.5 81.5q-76 0 -149.5 -35t-130.5 -94t-91.5 -143.5t-34.5 -177.5z" />
    <glyph glyph-name="Ocircumflex" unicode="&#xd4;" horiz-adv-x="1671" 
d="M711 1565l278 329h406l147 -329h-311l-60 170h-4l-123 -170h-333zM197 639q0 170 71 328.5t189.5 274.5t280.5 185.5t337 69.5q202 0 359.5 -83.5t244 -231t86.5 -334.5q0 -139 -46.5 -272t-130 -240.5t-193 -189t-242 -126.5t-270.5 -45q-306 0 -496 186.5t-190 477.5z
M641 666q0 -139 74 -224.5t194 -85.5q74 0 148 36t132 96t94 147.5t36 183.5q0 134 -75.5 215.5t-196.5 81.5q-76 0 -149.5 -35t-130.5 -94t-91.5 -143.5t-34.5 -177.5z" />
    <glyph glyph-name="Otilde" unicode="&#xd5;" horiz-adv-x="1671" 
d="M197 639q0 170 71 328.5t189.5 274.5t280.5 185.5t337 69.5q202 0 359.5 -83.5t244 -231t86.5 -334.5q0 -139 -46.5 -272t-130 -240.5t-193 -189t-242 -126.5t-270.5 -45q-306 0 -496 186.5t-190 477.5zM641 666q0 -139 74 -224.5t194 -85.5q74 0 148 36t132 96t94 147.5
t36 183.5q0 134 -75.5 215.5t-196.5 81.5q-76 0 -149.5 -35t-130.5 -94t-91.5 -143.5t-34.5 -177.5zM715 1563q31 158 115 248t204 90q42 0 75 -12t52.5 -28.5t36 -33.5t35 -29t39.5 -12q64 0 82 108h270q-28 -156 -112.5 -247t-202.5 -91q-50 0 -89 18.5t-59 40t-44.5 40
t-49.5 18.5q-60 0 -84 -110h-268z" />
    <glyph glyph-name="Odieresis" unicode="&#xd6;" horiz-adv-x="1671" 
d="M1253 1569l64 325h301l-64 -325h-301zM727 1569l66 325h299l-64 -325h-301zM197 639q0 170 71 328.5t189.5 274.5t280.5 185.5t337 69.5q202 0 359.5 -83.5t244 -231t86.5 -334.5q0 -139 -46.5 -272t-130 -240.5t-193 -189t-242 -126.5t-270.5 -45q-306 0 -496 186.5
t-190 477.5zM641 666q0 -139 74 -224.5t194 -85.5q74 0 148 36t132 96t94 147.5t36 183.5q0 134 -75.5 215.5t-196.5 81.5q-76 0 -149.5 -35t-130.5 -94t-91.5 -143.5t-34.5 -177.5z" />
    <glyph glyph-name="multiply" unicode="&#xd7;" 
d="M201 223l348 367l-348 368l223 224l342 -359l344 359l225 -224l-352 -368l352 -367l-225 -223l-344 358l-342 -358z" />
    <glyph glyph-name="Oslash" unicode="&#xd8;" horiz-adv-x="1671" 
d="M197 639q0 170 71 328.5t189.5 274.5t280.5 185.5t337 69.5q225 0 389 -102l123 131l129 -115l-117 -125q166 -180 166 -438q0 -139 -46.5 -272t-130 -240.5t-193 -189t-242 -126.5t-270.5 -45q-234 0 -402 111l-135 -145l-129 116l133 144q-153 180 -153 438zM1319 819
q0 68 -27 137l-524 -561q59 -39 141 -39q74 0 148 36t132 96t94 147.5t36 183.5zM641 666q0 -72 21 -131l514 550q-57 31 -129 31q-76 0 -149.5 -35t-130.5 -94t-91.5 -143.5t-34.5 -177.5z" />
    <glyph glyph-name="Ugrave" unicode="&#xd9;" horiz-adv-x="1703" 
d="M305 457q0 57 12 118l113 582h-156l62 316h749l-61 -316h-152l-116 -608q-4 -28 -4 -43q0 -150 170 -150q201 0 237 193l117 608h-152l60 316h749l-59 -316h-156l-119 -616q-50 -263 -228 -414.5t-451 -151.5q-100 0 -190 17.5t-168 55.5t-135 93.5t-89.5 136.5
t-32.5 179zM1171 1894l168 -329h-305l-258 329h395z" />
    <glyph glyph-name="Uacute" unicode="&#xda;" horiz-adv-x="1703" 
d="M958 1565l295 329h428l-385 -329h-338zM305 457q0 57 12 118l113 582h-156l62 316h749l-61 -316h-152l-116 -608q-4 -28 -4 -43q0 -150 170 -150q201 0 237 193l117 608h-152l60 316h749l-59 -316h-156l-119 -616q-50 -263 -228 -414.5t-451 -151.5q-100 0 -190 17.5
t-168 55.5t-135 93.5t-89.5 136.5t-32.5 179z" />
    <glyph glyph-name="Ucircumflex" unicode="&#xdb;" horiz-adv-x="1703" 
d="M729 1565l279 329h405l148 -329h-312l-59 170h-4l-123 -170h-334zM305 457q0 57 12 118l113 582h-156l62 316h749l-61 -316h-152l-116 -608q-4 -28 -4 -43q0 -150 170 -150q201 0 237 193l117 608h-152l60 316h749l-59 -316h-156l-119 -616q-50 -263 -228 -414.5
t-451 -151.5q-100 0 -190 17.5t-168 55.5t-135 93.5t-89.5 136.5t-32.5 179z" />
    <glyph glyph-name="Udieresis" unicode="&#xdc;" horiz-adv-x="1703" 
d="M1272 1569l63 325h301l-63 -325h-301zM745 1569l66 325h299l-63 -325h-302zM305 457q0 57 12 118l113 582h-156l62 316h749l-61 -316h-152l-116 -608q-4 -28 -4 -43q0 -150 170 -150q201 0 237 193l117 608h-152l60 316h749l-59 -316h-156l-119 -616
q-50 -263 -228 -414.5t-451 -151.5q-100 0 -190 17.5t-168 55.5t-135 93.5t-89.5 136.5t-32.5 179z" />
    <glyph glyph-name="Yacute" unicode="&#xdd;" horiz-adv-x="1396" 
d="M322 0l59 315h156l55 279l-227 563h-119l61 316h611l-60 -316h-82l58 -184l20 -78h4q16 31 49 78l129 184h-80l60 316h645l-62 -316h-118l-447 -563l-55 -279h156l-60 -315h-753zM815 1565l295 329h428l-385 -329h-338z" />
    <glyph glyph-name="Thorn" unicode="&#xde;" horiz-adv-x="1402" 
d="M102 0l60 315h155l162 842h-155l61 316h754l-62 -316h-166l-16 -90h250q195 0 295 -76t100 -209q0 -173 -135.5 -278t-366.5 -105h-272l-16 -84h165l-61 -315h-752zM817 666h139q79 0 109.5 19.5t30.5 57.5q0 29 -23 43.5t-82 14.5h-147z" />
    <glyph glyph-name="germandbls" unicode="&#xdf;" horiz-adv-x="1357" 
d="M133 0l213 1098q24 128 114 220.5t209.5 135.5t254.5 43q134 0 243.5 -43.5t177.5 -131.5t68 -206q0 -61 -18.5 -111t-45.5 -82.5t-54 -59.5t-45.5 -55t-18.5 -56q0 -25 16.5 -53t40 -56.5t47 -62t40 -82t16.5 -103.5q0 -116 -66 -210t-180 -146.5t-252 -52.5
q-56 0 -113.5 8.5t-87.5 17.5l-30 8l69 338q69 -20 143 -20q91 0 91 59q0 28 -17 56.5t-41.5 55.5t-49 58t-41.5 75t-17 95q0 54 19 102t46.5 81.5t55 62t46.5 55t19 49.5q0 58 -94 58q-108 0 -127 -98l-203 -1047h-428z" />
    <glyph glyph-name="agrave" unicode="&#xe0;" horiz-adv-x="1216" 
d="M92 250q0 87 45.5 157t116 113t162.5 71.5t179 40t171 11.5q10 37 10 64q0 53 -104 53q-57 0 -135 -24t-127 -48l-50 -24l-81 303q10 5 27.5 13t71.5 28.5t108 36.5t129.5 29t142.5 13q56 0 111.5 -8t116.5 -31.5t106.5 -59.5t75.5 -97.5t30 -140.5q0 -66 -30.5 -201.5
t-30.5 -179.5q0 -66 73 -66l35 2l-59 -305q-21 -6 -152 -6q-9 0 -32.5 -0.5t-35.5 -0.5t-35.5 1.5t-38 4t-36 8t-35.5 13.5t-31.5 20t-29.5 28t-23.5 38t-19.5 48h-4q-5 -7 -14.5 -18.5t-42 -41t-68 -52.5t-91 -41.5t-112.5 -18.5q-120 0 -206.5 72t-86.5 196zM502 326
q0 -33 19 -49.5t44 -16.5q47 0 90.5 44t63.5 112l10 37h-33q-21 0 -50 -5.5t-63.5 -18.5t-57.5 -40t-23 -63zM815 1473l168 -330h-305l-258 330h395z" />
    <glyph glyph-name="aacute" unicode="&#xe1;" horiz-adv-x="1216" 
d="M92 250q0 87 45.5 157t116 113t162.5 71.5t179 40t171 11.5q10 37 10 64q0 53 -104 53q-57 0 -135 -24t-127 -48l-50 -24l-81 303q10 5 27.5 13t71.5 28.5t108 36.5t129.5 29t142.5 13q56 0 111.5 -8t116.5 -31.5t106.5 -59.5t75.5 -97.5t30 -140.5q0 -66 -30.5 -201.5
t-30.5 -179.5q0 -66 73 -66l35 2l-59 -305q-21 -6 -152 -6q-9 0 -32.5 -0.5t-35.5 -0.5t-35.5 1.5t-38 4t-36 8t-35.5 13.5t-31.5 20t-29.5 28t-23.5 38t-19.5 48h-4q-5 -7 -14.5 -18.5t-42 -41t-68 -52.5t-91 -41.5t-112.5 -18.5q-120 0 -206.5 72t-86.5 196zM502 326
q0 -33 19 -49.5t44 -16.5q47 0 90.5 44t63.5 112l10 37h-33q-21 0 -50 -5.5t-63.5 -18.5t-57.5 -40t-23 -63zM600 1143l295 330h428l-385 -330h-338z" />
    <glyph glyph-name="acircumflex" unicode="&#xe2;" horiz-adv-x="1216" 
d="M92 250q0 87 45.5 157t116 113t162.5 71.5t179 40t171 11.5q10 37 10 64q0 53 -104 53q-57 0 -135 -24t-127 -48l-50 -24l-81 303q10 5 27.5 13t71.5 28.5t108 36.5t129.5 29t142.5 13q56 0 111.5 -8t116.5 -31.5t106.5 -59.5t75.5 -97.5t30 -140.5q0 -66 -30.5 -201.5
t-30.5 -179.5q0 -66 73 -66l35 2l-59 -305q-21 -6 -152 -6q-9 0 -32.5 -0.5t-35.5 -0.5t-35.5 1.5t-38 4t-36 8t-35.5 13.5t-31.5 20t-29.5 28t-23.5 38t-19.5 48h-4q-5 -7 -14.5 -18.5t-42 -41t-68 -52.5t-91 -41.5t-112.5 -18.5q-120 0 -206.5 72t-86.5 196zM502 326
q0 -33 19 -49.5t44 -16.5q47 0 90.5 44t63.5 112l10 37h-33q-21 0 -50 -5.5t-63.5 -18.5t-57.5 -40t-23 -63zM373 1143l278 330h406l147 -330h-311l-59 170h-5l-122 -170h-334z" />
    <glyph glyph-name="atilde" unicode="&#xe3;" horiz-adv-x="1216" 
d="M92 250q0 87 45.5 157t116 113t162.5 71.5t179 40t171 11.5q10 37 10 64q0 53 -104 53q-57 0 -135 -24t-127 -48l-50 -24l-81 303q10 5 27.5 13t71.5 28.5t108 36.5t129.5 29t142.5 13q56 0 111.5 -8t116.5 -31.5t106.5 -59.5t75.5 -97.5t30 -140.5q0 -66 -30.5 -201.5
t-30.5 -179.5q0 -66 73 -66l35 2l-59 -305q-21 -6 -152 -6q-9 0 -32.5 -0.5t-35.5 -0.5t-35.5 1.5t-38 4t-36 8t-35.5 13.5t-31.5 20t-29.5 28t-23.5 38t-19.5 48h-4q-5 -7 -14.5 -18.5t-42 -41t-68 -52.5t-91 -41.5t-112.5 -18.5q-120 0 -206.5 72t-86.5 196zM502 326
q0 -33 19 -49.5t44 -16.5q47 0 90.5 44t63.5 112l10 37h-33q-21 0 -50 -5.5t-63.5 -18.5t-57.5 -40t-23 -63zM375 1141q31 158 115 248t204 90q42 0 75 -12t52.5 -28.5t36 -33.5t35 -29t39.5 -12q64 0 82 109h270q-28 -156 -112.5 -247t-202.5 -91q-41 0 -74 12t-53.5 29
t-38 34t-36.5 29t-40 12q-60 0 -84 -110h-268z" />
    <glyph glyph-name="adieresis" unicode="&#xe4;" horiz-adv-x="1216" 
d="M92 250q0 87 45.5 157t116 113t162.5 71.5t179 40t171 11.5q10 37 10 64q0 53 -104 53q-57 0 -135 -24t-127 -48l-50 -24l-81 303q10 5 27.5 13t71.5 28.5t108 36.5t129.5 29t142.5 13q56 0 111.5 -8t116.5 -31.5t106.5 -59.5t75.5 -97.5t30 -140.5q0 -66 -30.5 -201.5
t-30.5 -179.5q0 -66 73 -66l35 2l-59 -305q-21 -6 -152 -6q-9 0 -32.5 -0.5t-35.5 -0.5t-35.5 1.5t-38 4t-36 8t-35.5 13.5t-31.5 20t-29.5 28t-23.5 38t-19.5 48h-4q-5 -7 -14.5 -18.5t-42 -41t-68 -52.5t-91 -41.5t-112.5 -18.5q-120 0 -206.5 72t-86.5 196zM502 326
q0 -33 19 -49.5t44 -16.5q47 0 90.5 44t63.5 112l10 37h-33q-21 0 -50 -5.5t-63.5 -18.5t-57.5 -40t-23 -63zM913 1147l64 326h301l-64 -326h-301zM387 1147l66 326h299l-64 -326h-301z" />
    <glyph glyph-name="aring" unicode="&#xe5;" horiz-adv-x="1216" 
d="M92 250q0 87 45.5 157t116 113t162.5 71.5t179 40t171 11.5q10 37 10 64q0 53 -104 53q-57 0 -135 -24t-127 -48l-50 -24l-81 303q10 5 27.5 13t71.5 28.5t108 36.5t129.5 29t142.5 13q56 0 111.5 -8t116.5 -31.5t106.5 -59.5t75.5 -97.5t30 -140.5q0 -66 -30.5 -201.5
t-30.5 -179.5q0 -66 73 -66l35 2l-59 -305q-21 -6 -152 -6q-9 0 -32.5 -0.5t-35.5 -0.5t-35.5 1.5t-38 4t-36 8t-35.5 13.5t-31.5 20t-29.5 28t-23.5 38t-19.5 48h-4q-5 -7 -14.5 -18.5t-42 -41t-68 -52.5t-91 -41.5t-112.5 -18.5q-120 0 -206.5 72t-86.5 196zM502 326
q0 -33 19 -49.5t44 -16.5q47 0 90.5 44t63.5 112l10 37h-33q-21 0 -50 -5.5t-63.5 -18.5t-57.5 -40t-23 -63zM803 1116q-92 0 -156.5 39t-64.5 115q0 54 24.5 96t65.5 66t86.5 35.5t93.5 11.5q92 0 157.5 -40.5t65.5 -121.5q0 -52 -26 -93t-68 -63.5t-87.5 -33.5t-90.5 -11z
M815 1225q34 0 60 25t26 61q0 26 -15.5 41.5t-43.5 15.5q-35 0 -59.5 -25t-24.5 -65q0 -53 57 -53z" />
    <glyph glyph-name="ae" unicode="&#xe6;" horiz-adv-x="1736" 
d="M96 283q0 84 46.5 150t117 104.5t162 64t171 34.5t155.5 9h16q10 64 -19.5 89.5t-93.5 25.5q-68 0 -141 -21.5t-112 -42.5l-40 -22l-88 293q10 5 28 13t72 28.5t108 36.5t127.5 29t137.5 13q84 0 156.5 -20.5t140.5 -77.5h4q77 56 142 77t155 21q216 0 339.5 -117
t123.5 -296q0 -53 -11 -106.5t-21 -81.5l-11 -27h-633q2 -59 58 -101.5t137 -42.5q60 0 132.5 25t115.5 50l43 26l104 -303q-7 -6 -21 -15t-60.5 -33t-96 -42t-124.5 -33t-150 -15q-130 0 -242.5 41.5t-189.5 112.5h-5q-6 -10 -20 -25t-45 -37.5t-68.5 -41t-95.5 -32
t-121 -13.5q-165 0 -274 84.5t-109 218.5zM506 326q0 -33 19 -49.5t44 -16.5q47 0 90.5 44t63.5 112l10 37h-33q-21 0 -50 -5.5t-63.5 -18.5t-57.5 -40t-23 -63zM1184 651h205q4 37 4 60q0 90 -76 90q-94 0 -133 -150z" />
    <glyph glyph-name="ccedilla" unicode="&#xe7;" horiz-adv-x="1196" 
d="M381 -219l121 219q-180 49 -273.5 174t-93.5 283q0 86 28 174t86.5 170t139 145.5t195 102t245.5 38.5q64 0 127.5 -8.5t130.5 -30.5t115 -55.5t72.5 -89t11.5 -125.5l-33 -162h-358l10 52q7 29 -18 48t-84 19q-62 0 -110.5 -25.5t-75 -65t-39.5 -79.5t-13 -76
q0 -30 8 -55.5t28 -51.5t60.5 -41t98.5 -15q50 0 102 11.5t90.5 28t70 33t47.5 27.5l17 12l107 -309q-7 -6 -20 -16.5t-59 -37t-97 -47t-133.5 -37t-169.5 -16.5h-37l-43 -71q76 -5 126 -48.5t50 -109.5q0 -65 -33.5 -114t-88.5 -75.5t-115 -39.5t-123 -13q-33 0 -70 5
t-57 11l-21 5l33 174q43 -18 102 -18q105 0 105 55q0 45 -103 45h-59z" />
    <glyph glyph-name="egrave" unicode="&#xe8;" horiz-adv-x="1165" 
d="M143 477q0 166 80.5 306t224 222t318.5 82q217 0 341 -116.5t124 -298.5q0 -50 -10.5 -101.5t-20.5 -77.5l-10 -26h-621q-1 -72 43.5 -106.5t118.5 -34.5q67 0 144 25t121 50l44 25l107 -313q-7 -6 -21 -15t-60 -33t-96 -42t-128 -33t-158 -15q-134 0 -239 39.5
t-170 108.5t-98.5 159t-33.5 195zM608 651h205q4 37 4 60q0 90 -76 90q-94 0 -133 -150zM829 1473l168 -330h-305l-258 330h395z" />
    <glyph glyph-name="eacute" unicode="&#xe9;" horiz-adv-x="1165" 
d="M616 1143l295 330h428l-385 -330h-338zM143 477q0 166 80.5 306t224 222t318.5 82q217 0 341 -116.5t124 -298.5q0 -50 -10.5 -101.5t-20.5 -77.5l-10 -26h-621q-1 -72 43.5 -106.5t118.5 -34.5q67 0 144 25t121 50l44 25l107 -313q-7 -6 -21 -15t-60 -33t-96 -42
t-128 -33t-158 -15q-134 0 -239 39.5t-170 108.5t-98.5 159t-33.5 195zM608 651h205q4 37 4 60q0 90 -76 90q-94 0 -133 -150z" />
    <glyph glyph-name="ecircumflex" unicode="&#xea;" horiz-adv-x="1165" 
d="M389 1143l279 330h405l148 -330h-312l-59 170h-4l-123 -170h-334zM143 477q0 166 80.5 306t224 222t318.5 82q217 0 341 -116.5t124 -298.5q0 -50 -10.5 -101.5t-20.5 -77.5l-10 -26h-621q-1 -72 43.5 -106.5t118.5 -34.5q67 0 144 25t121 50l44 25l107 -313
q-7 -6 -21 -15t-60 -33t-96 -42t-128 -33t-158 -15q-134 0 -239 39.5t-170 108.5t-98.5 159t-33.5 195zM608 651h205q4 37 4 60q0 90 -76 90q-94 0 -133 -150z" />
    <glyph glyph-name="edieresis" unicode="&#xeb;" horiz-adv-x="1165" 
d="M930 1147l63 326h301l-63 -326h-301zM403 1147l66 326h299l-63 -326h-302zM143 477q0 166 80.5 306t224 222t318.5 82q217 0 341 -116.5t124 -298.5q0 -50 -10.5 -101.5t-20.5 -77.5l-10 -26h-621q-1 -72 43.5 -106.5t118.5 -34.5q67 0 144 25t121 50l44 25l107 -313
q-7 -6 -21 -15t-60 -33t-96 -42t-128 -33t-158 -15q-134 0 -239 39.5t-170 108.5t-98.5 159t-33.5 195zM608 651h205q4 37 4 60q0 90 -76 90q-94 0 -133 -150z" />
    <glyph glyph-name="igrave" unicode="&#xec;" horiz-adv-x="784" 
d="M233 258q0 60 19 150l67 352h-129l58 303h557l-121 -625q-8 -36 -8 -69q0 -66 74 -66l32 2l-57 -305q-53 -8 -121 -8q-48 0 -81 1.5t-75 7.5t-70.5 16.5t-58 30t-47 47.5t-28.5 69t-11 94zM621 1473l167 -330h-305l-258 330h396z" />
    <glyph glyph-name="iacute" unicode="&#xed;" horiz-adv-x="784" 
d="M408 1143l294 330h428l-385 -330h-337zM233 258q0 60 19 150l67 352h-129l58 303h557l-121 -625q-8 -36 -8 -69q0 -66 74 -66l32 2l-57 -305q-53 -8 -121 -8q-48 0 -81 1.5t-75 7.5t-70.5 16.5t-58 30t-47 47.5t-28.5 69t-11 94z" />
    <glyph glyph-name="icircumflex" unicode="&#xee;" horiz-adv-x="784" 
d="M178 1143l279 330h405l148 -330h-312l-59 170h-4l-123 -170h-334zM233 258q0 60 19 150l67 352h-129l58 303h557l-121 -625q-8 -36 -8 -69q0 -66 74 -66l32 2l-57 -305q-53 -8 -121 -8q-48 0 -81 1.5t-75 7.5t-70.5 16.5t-58 30t-47 47.5t-28.5 69t-11 94z" />
    <glyph glyph-name="idieresis" unicode="&#xef;" horiz-adv-x="784" 
d="M688 1147l64 326h301l-64 -326h-301zM223 1147l66 326h299l-64 -326h-301zM233 258q0 60 19 150l67 352h-129l58 303h557l-121 -625q-8 -36 -8 -69q0 -66 74 -66l32 2l-57 -305q-53 -8 -121 -8q-48 0 -81 1.5t-75 7.5t-70.5 16.5t-58 30t-47 47.5t-28.5 69t-11 94z" />
    <glyph glyph-name="eth" unicode="&#xf0;" horiz-adv-x="1243" 
d="M147 424q0 99 42 193.5t115.5 167.5t181.5 118t231 45q24 0 53.5 -4.5t46.5 -9.5l17 -4q-54 83 -103 112l-457 -168l58 236l182 64q-92 44 -156 53l172 303q262 -68 431 -191l411 150l-55 -234l-191 -69q162 -202 162 -479q0 -89 -20 -184.5t-68 -194.5t-117 -176.5
t-177.5 -127t-239.5 -49.5q-125 0 -225 35.5t-163.5 97t-97 142.5t-33.5 174zM580 428q0 -48 19 -74t69 -26q75 0 123.5 63.5t48.5 143.5q0 92 -97 92q-46 0 -79.5 -18t-51 -48.5t-25 -63t-7.5 -69.5z" />
    <glyph glyph-name="ntilde" unicode="&#xf1;" horiz-adv-x="1464" 
d="M186 0l140 715q4 21 -6 33t-31 12h-84l57 303h383q64 0 98.5 -26t34.5 -74q0 -16 -3.5 -35.5t-6.5 -31.5l-4 -11h4q5 8 14.5 21.5t42.5 48.5t71 61.5t100.5 48.5t129.5 22q137 0 225.5 -78t88.5 -229q0 -73 -33 -224t-33 -187q0 -66 74 -66l35 2l-60 -305q-35 -6 -141 -6
q-41 0 -70.5 1.5t-68.5 7.5t-66.5 16.5t-56 30t-46 47.5t-29 69.5t-11.5 93.5q0 75 30.5 218.5t30.5 162.5q0 17 -4 28.5t-21 22t-48 10.5q-86 0 -142 -74.5t-80 -189.5l-88 -438h-426zM545 1141q31 158 115 248t204 90q42 0 75 -12t52.5 -28.5t36 -33.5t35 -29t39.5 -12
q64 0 82 109h270q-28 -156 -112.5 -247t-202.5 -91q-41 0 -74 12t-53.5 29t-38 34t-36.5 29t-40 12q-60 0 -84 -110h-268z" />
    <glyph glyph-name="ograve" unicode="&#xf2;" 
d="M137 457q0 137 58 256.5t153.5 200.5t220 127t256.5 46q157 0 282 -58t197 -169t72 -256q0 -137 -58 -256.5t-154 -200t-220.5 -126.5t-257.5 -46q-156 0 -280 58t-196.5 168.5t-72.5 255.5zM569 477q0 -72 41 -110.5t107 -38.5q89 0 158 67t69 183q0 74 -40.5 115.5
t-104.5 41.5q-85 0 -157.5 -71.5t-72.5 -186.5zM891 1473l168 -330h-305l-258 330h395z" />
    <glyph glyph-name="oacute" unicode="&#xf3;" 
d="M678 1143l295 330h428l-385 -330h-338zM137 457q0 137 58 256.5t153.5 200.5t220 127t256.5 46q157 0 282 -58t197 -169t72 -256q0 -137 -58 -256.5t-154 -200t-220.5 -126.5t-257.5 -46q-156 0 -280 58t-196.5 168.5t-72.5 255.5zM569 477q0 -72 41 -110.5t107 -38.5
q89 0 158 67t69 183q0 74 -40.5 115.5t-104.5 41.5q-85 0 -157.5 -71.5t-72.5 -186.5z" />
    <glyph glyph-name="ocircumflex" unicode="&#xf4;" 
d="M449 1143l278 330h406l147 -330h-311l-60 170h-4l-123 -170h-333zM137 457q0 137 58 256.5t153.5 200.5t220 127t256.5 46q157 0 282 -58t197 -169t72 -256q0 -137 -58 -256.5t-154 -200t-220.5 -126.5t-257.5 -46q-156 0 -280 58t-196.5 168.5t-72.5 255.5zM569 477
q0 -72 41 -110.5t107 -38.5q89 0 158 67t69 183q0 74 -40.5 115.5t-104.5 41.5q-85 0 -157.5 -71.5t-72.5 -186.5z" />
    <glyph glyph-name="otilde" unicode="&#xf5;" 
d="M137 457q0 137 58 256.5t153.5 200.5t220 127t256.5 46q157 0 282 -58t197 -169t72 -256q0 -137 -58 -256.5t-154 -200t-220.5 -126.5t-257.5 -46q-156 0 -280 58t-196.5 168.5t-72.5 255.5zM569 477q0 -72 41 -110.5t107 -38.5q89 0 158 67t69 183q0 74 -40.5 115.5
t-104.5 41.5q-85 0 -157.5 -71.5t-72.5 -186.5zM451 1141q31 158 115 248t204 90q42 0 75 -12t52.5 -28.5t36 -33.5t35 -29t39.5 -12q64 0 82 109h270q-28 -156 -113 -247t-203 -91q-41 0 -73.5 12t-53.5 29t-38 34t-36 29t-40 12q-60 0 -84 -110h-268z" />
    <glyph glyph-name="odieresis" unicode="&#xf6;" 
d="M991 1147l64 326h301l-64 -326h-301zM465 1147l65 326h299l-63 -326h-301zM137 457q0 137 58 256.5t153.5 200.5t220 127t256.5 46q157 0 282 -58t197 -169t72 -256q0 -137 -58 -256.5t-154 -200t-220.5 -126.5t-257.5 -46q-156 0 -280 58t-196.5 168.5t-72.5 255.5z
M569 477q0 -72 41 -110.5t107 -38.5q89 0 158 67t69 183q0 74 -40.5 115.5t-104.5 41.5q-85 0 -157.5 -71.5t-72.5 -186.5z" />
    <glyph glyph-name="divide" unicode="&#xf7;" 
d="M596 905v320h348v-320h-348zM190 432v316h1158v-316h-1158zM596 -43v319h348v-319h-348z" />
    <glyph glyph-name="oslash" unicode="&#xf8;" 
d="M137 457q0 137 58 256.5t153.5 200.5t220 127t256.5 46q175 0 305 -71l123 131l101 -82l-117 -125q139 -130 139 -336q0 -137 -58 -256.5t-154 -200t-220.5 -126.5t-257.5 -46q-166 0 -295 66l-129 -137l-98 86l119 125q-146 133 -146 342zM569 477q0 -27 6 -51l281 299
q-30 10 -57 10q-85 0 -157.5 -71.5t-72.5 -186.5zM944 578q0 24 -6 45l-272 -289q24 -6 51 -6q89 0 158 67t69 183z" />
    <glyph glyph-name="ugrave" unicode="&#xf9;" horiz-adv-x="1460" 
d="M236 276q0 59 12 121l71 363h-131l62 303h557l-115 -586q-10 -40 -10 -67q0 -31 13.5 -46.5t49.5 -15.5q74 0 137 77t81 173l30 162h-131l62 303h557l-123 -625q-8 -40 -8 -71t17 -48.5t65 -17.5l26 2l-57 -303q-5 -2 -84.5 -5t-128.5 -3q-53 0 -89.5 6.5t-74 26
t-62 61.5t-36.5 107h-4q-144 -218 -365 -218q-138 0 -229.5 77.5t-91.5 223.5zM922 1473l168 -330h-306l-258 330h396z" />
    <glyph glyph-name="uacute" unicode="&#xfa;" horiz-adv-x="1460" 
d="M709 1143l295 330h428l-385 -330h-338zM236 276q0 59 12 121l71 363h-131l62 303h557l-115 -586q-10 -40 -10 -67q0 -31 13.5 -46.5t49.5 -15.5q74 0 137 77t81 173l30 162h-131l62 303h557l-123 -625q-8 -40 -8 -71t17 -48.5t65 -17.5l26 2l-57 -303q-5 -2 -84.5 -5
t-128.5 -3q-53 0 -89.5 6.5t-74 26t-62 61.5t-36.5 107h-4q-144 -218 -365 -218q-138 0 -229.5 77.5t-91.5 223.5z" />
    <glyph glyph-name="ucircumflex" unicode="&#xfb;" horiz-adv-x="1460" 
d="M479 1143l279 330h405l148 -330h-312l-59 170h-4l-123 -170h-334zM236 276q0 59 12 121l71 363h-131l62 303h557l-115 -586q-10 -40 -10 -67q0 -31 13.5 -46.5t49.5 -15.5q74 0 137 77t81 173l30 162h-131l62 303h557l-123 -625q-8 -40 -8 -71t17 -48.5t65 -17.5l26 2
l-57 -303q-5 -2 -84.5 -5t-128.5 -3q-53 0 -89.5 6.5t-74 26t-62 61.5t-36.5 107h-4q-144 -218 -365 -218q-138 0 -229.5 77.5t-91.5 223.5z" />
    <glyph glyph-name="udieresis" unicode="&#xfc;" horiz-adv-x="1460" 
d="M1020 1147l63 326h301l-63 -326h-301zM494 1147l65 326h299l-63 -326h-301zM236 276q0 59 12 121l71 363h-131l62 303h557l-115 -586q-10 -40 -10 -67q0 -31 13.5 -46.5t49.5 -15.5q74 0 137 77t81 173l30 162h-131l62 303h557l-123 -625q-8 -40 -8 -71t17 -48.5
t65 -17.5l26 2l-57 -303q-5 -2 -84.5 -5t-128.5 -3q-53 0 -89.5 6.5t-74 26t-62 61.5t-36.5 107h-4q-144 -218 -365 -218q-138 0 -229.5 77.5t-91.5 223.5z" />
    <glyph glyph-name="yacute" unicode="&#xfd;" horiz-adv-x="1329" 
d="M121 -45q6 -5 18 -12.5t58 -20t102 -12.5q114 0 162 53l-185 797h-112l57 303h602l-59 -303h-70l27 -287q3 -38 2 -73t-3 -60l-3 -25h10q31 84 66 158l131 287h-62l58 303h583l-57 -303h-100l-465 -819q-62 -109 -133 -184t-147.5 -114.5t-149.5 -56t-158 -16.5
q-62 0 -121.5 9.5t-99.5 23.5t-71 28t-45 23l-15 10zM676 1143l295 330h428l-385 -330h-338z" />
    <glyph glyph-name="thorn" unicode="&#xfe;" horiz-adv-x="1351" 
d="M53 -410l309 1579h-137l58 304h559l-80 -400q-2 -14 -6 -29t-8 -24l-3 -8h5q97 75 249 75q193 0 305.5 -128.5t112.5 -344.5q0 -138 -50.5 -259.5t-133 -203.5t-188 -129t-214.5 -47q-62 0 -135.5 20.5t-124.5 57.5h-4q-4 -35 -14 -88l-74 -375h-426zM643 475
q0 -67 33 -108t100 -41q79 0 144 70.5t65 185.5q0 68 -35 108.5t-96 40.5q-19 0 -44.5 -8t-55 -27.5t-54 -48t-41 -73.5t-16.5 -99z" />
    <glyph glyph-name="ydieresis" unicode="&#xff;" horiz-adv-x="1329" 
d="M121 -45q6 -5 18 -12.5t58 -20t102 -12.5q114 0 162 53l-185 797h-112l57 303h602l-59 -303h-70l27 -287q3 -38 2 -73t-3 -60l-3 -25h10q31 84 66 158l131 287h-62l58 303h583l-57 -303h-100l-465 -819q-62 -109 -133 -184t-147.5 -114.5t-149.5 -56t-158 -16.5
q-62 0 -121.5 9.5t-99.5 23.5t-71 28t-45 23l-15 10zM987 1147l64 326h301l-64 -326h-301zM461 1147l65 326h299l-63 -326h-301z" />
    <glyph glyph-name="Amacron" unicode="&#x100;" horiz-adv-x="1511" 
d="M23 0l59 315h111l595 1158h506l146 -1158h110l-59 -315h-653l61 315h115l-2 136h-314l-55 -136h115l-64 -315h-671zM819 741h178l-6 203q-2 47 -2 96.5t1 75.5l1 25h-10q-25 -91 -72 -197zM768 1599l53 271h584l-55 -271h-582z" />
    <glyph glyph-name="amacron" unicode="&#x101;" horiz-adv-x="1216" 
d="M92 250q0 87 45.5 157t116 113t162.5 71.5t179 40t171 11.5q10 37 10 64q0 53 -104 53q-57 0 -135 -24t-127 -48l-50 -24l-81 303q10 5 27.5 13t71.5 28.5t108 36.5t129.5 29t142.5 13q56 0 111.5 -8t116.5 -31.5t106.5 -59.5t75.5 -97.5t30 -140.5q0 -66 -30.5 -201.5
t-30.5 -179.5q0 -66 73 -66l35 2l-59 -305q-21 -6 -152 -6q-9 0 -32.5 -0.5t-35.5 -0.5t-35.5 1.5t-38 4t-36 8t-35.5 13.5t-31.5 20t-29.5 28t-23.5 38t-19.5 48h-4q-5 -7 -14.5 -18.5t-42 -41t-68 -52.5t-91 -41.5t-112.5 -18.5q-120 0 -206.5 72t-86.5 196zM502 326
q0 -33 19 -49.5t44 -16.5q47 0 90.5 44t63.5 112l10 37h-33q-21 0 -50 -5.5t-63.5 -18.5t-57.5 -40t-23 -63zM514 1178l53 270h584l-55 -270h-582z" />
    <glyph glyph-name="Abreve" unicode="&#x102;" horiz-adv-x="1511" 
d="M23 0l59 315h111l595 1158h506l146 -1158h110l-59 -315h-653l61 315h115l-2 136h-314l-55 -136h115l-64 -315h-671zM819 741h178l-6 203q-2 47 -2 96.5t1 75.5l1 25h-10q-25 -91 -72 -197zM1075 1552q-116 0 -204 40t-130.5 119t-19.5 183h280q-13 -70 13 -103.5
t76 -33.5q46 0 88 33t53 104h282q-37 -169 -155 -255.5t-283 -86.5z" />
    <glyph glyph-name="abreve" unicode="&#x103;" horiz-adv-x="1216" 
d="M92 250q0 87 45.5 157t116 113t162.5 71.5t179 40t171 11.5q10 37 10 64q0 53 -104 53q-57 0 -135 -24t-127 -48l-50 -24l-81 303q10 5 27.5 13t71.5 28.5t108 36.5t129.5 29t142.5 13q56 0 111.5 -8t116.5 -31.5t106.5 -59.5t75.5 -97.5t30 -140.5q0 -66 -30.5 -201.5
t-30.5 -179.5q0 -66 73 -66l35 2l-59 -305q-21 -6 -152 -6q-9 0 -32.5 -0.5t-35.5 -0.5t-35.5 1.5t-38 4t-36 8t-35.5 13.5t-31.5 20t-29.5 28t-23.5 38t-19.5 48h-4q-5 -7 -14.5 -18.5t-42 -41t-68 -52.5t-91 -41.5t-112.5 -18.5q-120 0 -206.5 72t-86.5 196zM502 326
q0 -33 19 -49.5t44 -16.5q47 0 90.5 44t63.5 112l10 37h-33q-21 0 -50 -5.5t-63.5 -18.5t-57.5 -40t-23 -63zM823 1130q-116 0 -204 40t-130.5 119.5t-19.5 183.5h281q-13 -71 12.5 -104.5t75.5 -33.5q46 0 88 33.5t53 104.5h283q-37 -169 -155.5 -256t-283.5 -87z" />
    <glyph glyph-name="Aogonek" unicode="&#x104;" horiz-adv-x="1511" 
d="M979 -307q0 84 55.5 166t141.5 141h-338l61 315h115l-2 136h-314l-55 -136h115l-64 -315h-671l59 315h111l595 1158h506l146 -1158h110l-59 -315h-8q-58 0 -125.5 -64t-67.5 -124q0 -59 101 -64l-117 -264q-295 33 -295 209zM819 741h178l-6 203q-2 47 -2 96.5t1 75.5
l1 25h-10q-25 -91 -72 -197z" />
    <glyph glyph-name="aogonek" unicode="&#x105;" horiz-adv-x="1216" 
d="M1186 0h-10q-58 0 -125.5 -64t-67.5 -124q0 -59 100 -64l-118 -264q-157 18 -225 72t-68 139t58 170.5t144 138.5q-58 15 -97.5 48.5t-59.5 101.5h-4q-5 -7 -14.5 -19t-42 -43t-67.5 -54.5t-89.5 -43t-110.5 -19.5q-123 0 -210 73t-87 200q0 73 31.5 134.5t85.5 103.5
t121.5 73.5t145 49t149.5 26t141 8.5q10 39 10 59q0 58 -98 58q-62 0 -141.5 -24t-128.5 -48l-48 -24l-81 303q10 5 27.5 13t71.5 28.5t108 36.5t129.5 29t142.5 13q56 0 111.5 -8t116.5 -31t106.5 -59t75.5 -97.5t30 -139.5q0 -70 -30.5 -205t-30.5 -174q0 -35 15 -52.5
t58 -17.5h35zM502 326q0 -33 19 -49.5t44 -16.5q47 0 90.5 44t63.5 112l10 37h-33q-21 0 -50 -5.5t-63.5 -18.5t-57.5 -40t-23 -63z" />
    <glyph glyph-name="Cacute" unicode="&#x106;" horiz-adv-x="1505" 
d="M915 1565l295 329h428l-385 -329h-338zM197 633q0 174 69 332.5t186.5 275.5t284.5 186.5t353 69.5q68 0 143.5 -8.5t158.5 -29.5t146 -52t98.5 -82.5t22.5 -114.5l-51 -266h-387l18 103q17 81 -158 81q-87 0 -160.5 -31t-121.5 -80.5t-82 -113t-49 -127t-15 -123.5
q0 -63 15.5 -117t47.5 -98t88 -69t132 -25q77 0 121.5 17t52.5 63l20 104h392l-43 -239q-13 -72 -58.5 -128.5t-105.5 -90.5t-135 -56t-142 -30.5t-133 -8.5q-205 0 -366.5 83t-251.5 233t-90 342z" />
    <glyph glyph-name="cacute" unicode="&#x107;" horiz-adv-x="1196" 
d="M637 1143l295 330h428l-385 -330h-338zM135 457q0 86 28 174t86.5 170t139.5 145.5t195.5 102t246.5 38.5q64 0 127.5 -8.5t130 -30.5t114 -55.5t72 -89t11.5 -125.5l-31 -162h-360l12 52q7 29 -18 48t-84 19q-58 0 -105 -24t-75 -61t-43 -79t-15 -82q0 -30 8 -55.5
t28 -51.5t60.5 -41t98.5 -15q50 0 102 11.5t91 28t70.5 33t48.5 27.5l16 12l104 -309q-7 -6 -20 -16.5t-58.5 -37t-96.5 -47t-133 -37t-169 -16.5q-143 0 -256 39.5t-183 107.5t-106.5 153.5t-36.5 181.5z" />
    <glyph glyph-name="Ccircumflex" unicode="&#x108;" horiz-adv-x="1505" 
d="M686 1565l279 329h405l148 -329h-312l-59 170h-4l-123 -170h-334zM197 633q0 174 69 332.5t186.5 275.5t284.5 186.5t353 69.5q68 0 143.5 -8.5t158.5 -29.5t146 -52t98.5 -82.5t22.5 -114.5l-51 -266h-387l18 103q17 81 -158 81q-87 0 -160.5 -31t-121.5 -80.5t-82 -113
t-49 -127t-15 -123.5q0 -63 15.5 -117t47.5 -98t88 -69t132 -25q77 0 121.5 17t52.5 63l20 104h392l-43 -239q-13 -72 -58.5 -128.5t-105.5 -90.5t-135 -56t-142 -30.5t-133 -8.5q-205 0 -366.5 83t-251.5 233t-90 342z" />
    <glyph glyph-name="ccircumflex" unicode="&#x109;" horiz-adv-x="1196" 
d="M410 1143l278 330h406l147 -330h-311l-60 170h-4l-123 -170h-333zM135 457q0 86 28 174t86.5 170t139.5 145.5t195.5 102t246.5 38.5q64 0 127.5 -8.5t130 -30.5t114 -55.5t72 -89t11.5 -125.5l-31 -162h-360l12 52q7 29 -18 48t-84 19q-58 0 -105 -24t-75 -61t-43 -79
t-15 -82q0 -30 8 -55.5t28 -51.5t60.5 -41t98.5 -15q50 0 102 11.5t91 28t70.5 33t48.5 27.5l16 12l104 -309q-7 -6 -20 -16.5t-58.5 -37t-96.5 -47t-133 -37t-169 -16.5q-143 0 -256 39.5t-183 107.5t-106.5 153.5t-36.5 181.5z" />
    <glyph glyph-name="Cdotaccent" unicode="&#x10a;" horiz-adv-x="1505" 
d="M197 633q0 174 69 332.5t186.5 275.5t284.5 186.5t353 69.5q68 0 143.5 -8.5t158.5 -29.5t146 -52t98.5 -82.5t22.5 -114.5l-51 -266h-387l18 103q17 81 -158 81q-87 0 -160.5 -31t-121.5 -80.5t-82 -113t-49 -127t-15 -123.5q0 -63 15.5 -117t47.5 -98t88 -69t132 -25
q77 0 121.5 17t52.5 63l20 104h392l-43 -239q-13 -72 -58.5 -128.5t-105.5 -90.5t-135 -56t-142 -30.5t-133 -8.5q-205 0 -366.5 83t-251.5 233t-90 342zM948 1591l60 303h346l-62 -303h-344z" />
    <glyph glyph-name="cdotaccent" unicode="&#x10b;" horiz-adv-x="1196" 
d="M135 457q0 86 28 174t86.5 170t139.5 145.5t195.5 102t246.5 38.5q64 0 127.5 -8.5t130 -30.5t114 -55.5t72 -89t11.5 -125.5l-31 -162h-360l12 52q7 29 -18 48t-84 19q-58 0 -105 -24t-75 -61t-43 -79t-15 -82q0 -30 8 -55.5t28 -51.5t60.5 -41t98.5 -15q50 0 102 11.5
t91 28t70.5 33t48.5 27.5l16 12l104 -309q-7 -6 -20 -16.5t-58.5 -37t-96.5 -47t-133 -37t-169 -16.5q-143 0 -256 39.5t-183 107.5t-106.5 153.5t-36.5 181.5zM670 1169l59 304h346l-61 -304h-344z" />
    <glyph glyph-name="Ccaron" unicode="&#x10c;" horiz-adv-x="1505" 
d="M922 1565l-148 329h311l58 -170h4l125 170h334l-281 -329h-403zM197 633q0 174 69 332.5t186.5 275.5t284.5 186.5t353 69.5q68 0 143.5 -8.5t158.5 -29.5t146 -52t98.5 -82.5t22.5 -114.5l-51 -266h-387l18 103q17 81 -158 81q-87 0 -160.5 -31t-121.5 -80.5t-82 -113
t-49 -127t-15 -123.5q0 -63 15.5 -117t47.5 -98t88 -69t132 -25q77 0 121.5 17t52.5 63l20 104h392l-43 -239q-13 -72 -58.5 -128.5t-105.5 -90.5t-135 -56t-142 -30.5t-133 -8.5q-205 0 -366.5 83t-251.5 233t-90 342z" />
    <glyph glyph-name="ccaron" unicode="&#x10d;" horiz-adv-x="1196" 
d="M645 1143l-147 330h311l57 -170h4l125 170h334l-280 -330h-404zM135 457q0 86 28 174t86.5 170t139.5 145.5t195.5 102t246.5 38.5q64 0 127.5 -8.5t130 -30.5t114 -55.5t72 -89t11.5 -125.5l-31 -162h-360l12 52q7 29 -18 48t-84 19q-58 0 -105 -24t-75 -61t-43 -79
t-15 -82q0 -30 8 -55.5t28 -51.5t60.5 -41t98.5 -15q50 0 102 11.5t91 28t70.5 33t48.5 27.5l16 12l104 -309q-7 -6 -20 -16.5t-58.5 -37t-96.5 -47t-133 -37t-169 -16.5q-143 0 -256 39.5t-183 107.5t-106.5 153.5t-36.5 181.5z" />
    <glyph glyph-name="Dcaron" unicode="&#x10e;" horiz-adv-x="1624" 
d="M911 1565l-147 329h311l58 -170h4l125 170h333l-280 -329h-404zM102 0l62 315h153l162 842h-153l61 316h633q327 0 510.5 -154.5t183.5 -431.5q0 -183 -63.5 -346t-175 -282.5t-272.5 -189t-347 -69.5h-754zM766 342h84q127 0 224.5 69.5t147.5 183.5t50 251
q0 138 -70.5 211t-200.5 73h-86z" />
    <glyph glyph-name="dcaron" unicode="&#x10f;" horiz-adv-x="1431" 
d="M1642 1473h336q2 -14 2 -39q0 -158 -99.5 -266t-250.5 -142l-119 129q77 47 107.5 102.5t30.5 128.5q0 33 -7 87zM141 451q0 138 49 258t131 202t192 129t230 47q53 0 97.5 -9.5t70 -22.5t43.5 -26t24 -23l7 -9h4q2 27 6 43l25 129h-127l57 304h557l-200 -1035
q0 -1 -2.5 -11.5t-4.5 -26t-2 -29.5q0 -68 70 -68l39 2l-57 -305q-84 -10 -166 -10q-267 0 -305 166h-5q-129 -181 -335 -181q-175 0 -286.5 130t-111.5 346zM573 485q0 -74 33.5 -116.5t87.5 -42.5q30 0 66.5 15t71.5 43t58 77t23 108q0 72 -31.5 117t-93.5 45
q-80 0 -147.5 -69t-67.5 -177z" />
    <glyph glyph-name="Dcroat" unicode="&#x110;" horiz-adv-x="1617" 
d="M102 0l62 315h153l48 240h-140l68 342h137l51 260h-155l61 316h627q327 0 511.5 -155t184.5 -431q0 -245 -108 -447t-306 -321t-446 -119h-748zM766 342h80q126 0 223 69.5t147 183.5t50 251q0 138 -70.5 211t-200.5 73h-80l-43 -233h195l-66 -342h-194z" />
    <glyph glyph-name="dcroat" unicode="&#x111;" horiz-adv-x="1411" 
d="M999 1061l17 78h-297l41 225h299l20 109h428l-22 -109h127l-43 -225h-125l-137 -701q-9 -41 -9 -69q0 -66 74 -66l35 2l-57 -305q-80 -10 -172 -10q-269 0 -304 145h-4q-55 -73 -143 -116.5t-166 -43.5q-195 0 -307.5 126.5t-112.5 340.5q0 142 49 264t131.5 205
t192 129.5t229.5 46.5q36 0 60 -1.5t62.5 -7.5t70.5 -21t55 -39h4q0 27 4 43zM573 475q0 -69 36 -109t98 -40q26 0 59 15t67 43.5t57 80.5t23 115q0 65 -33 108t-98 43q-78 0 -143.5 -70.5t-65.5 -185.5z" />
    <glyph glyph-name="Emacron" unicode="&#x112;" horiz-adv-x="1380" 
d="M102 0l62 315h153l164 842h-155l61 316h1165l-92 -478h-366l26 135h-202l-41 -217h389l-68 -344h-389l-45 -227h221l27 131h366l-90 -473h-1186zM745 1599l54 271h583l-55 -271h-582z" />
    <glyph glyph-name="emacron" unicode="&#x113;" horiz-adv-x="1165" 
d="M143 477q0 166 80.5 306t224 222t318.5 82q217 0 341 -116.5t124 -298.5q0 -50 -10.5 -101.5t-20.5 -77.5l-10 -26h-621q-1 -72 43.5 -106.5t118.5 -34.5q67 0 144 25t121 50l44 25l107 -313q-7 -6 -21 -15t-60 -33t-96 -42t-128 -33t-158 -15q-134 0 -239 39.5
t-170 108.5t-98.5 159t-33.5 195zM608 651h205q4 37 4 60q0 90 -76 90q-94 0 -133 -150zM530 1178l54 270h583l-55 -270h-582z" />
    <glyph glyph-name="Ebreve" unicode="&#x114;" horiz-adv-x="1380" 
d="M102 0l62 315h153l164 842h-155l61 316h1165l-92 -478h-366l26 135h-202l-41 -217h389l-68 -344h-389l-45 -227h221l27 131h366l-90 -473h-1186zM1055 1552q-116 0 -204 40t-131 119t-20 183h281q-13 -71 12.5 -104t75.5 -33q46 0 88 33t53 104h283q-37 -169 -155 -255.5
t-283 -86.5z" />
    <glyph glyph-name="ebreve" unicode="&#x115;" horiz-adv-x="1165" 
d="M143 477q0 166 80.5 306t224 222t318.5 82q217 0 341 -116.5t124 -298.5q0 -50 -10.5 -101.5t-20.5 -77.5l-10 -26h-621q-1 -72 43.5 -106.5t118.5 -34.5q67 0 144 25t121 50l44 25l107 -313q-7 -6 -21 -15t-60 -33t-96 -42t-128 -33t-158 -15q-134 0 -239 39.5
t-170 108.5t-98.5 159t-33.5 195zM608 651h205q4 37 4 60q0 90 -76 90q-94 0 -133 -150zM840 1130q-116 0 -204 40t-131 119.5t-20 183.5h281q-13 -71 12.5 -104.5t75.5 -33.5q46 0 88 33.5t53 104.5h283q-37 -169 -155 -256t-283 -87z" />
    <glyph glyph-name="Edotaccent" unicode="&#x116;" horiz-adv-x="1380" 
d="M102 0l62 315h153l164 842h-155l61 316h1165l-92 -478h-366l26 135h-202l-41 -217h389l-68 -344h-389l-45 -227h221l27 131h366l-90 -473h-1186zM864 1591l60 303h346l-62 -303h-344z" />
    <glyph glyph-name="edotaccent" unicode="&#x117;" horiz-adv-x="1165" 
d="M143 477q0 166 80.5 306t224 222t318.5 82q217 0 341 -116.5t124 -298.5q0 -50 -10.5 -101.5t-20.5 -77.5l-10 -26h-621q-1 -72 43.5 -106.5t118.5 -34.5q67 0 144 25t121 50l44 25l107 -313q-7 -6 -21 -15t-60 -33t-96 -42t-128 -33t-158 -15q-134 0 -239 39.5
t-170 108.5t-98.5 159t-33.5 195zM608 651h205q4 37 4 60q0 90 -76 90q-94 0 -133 -150zM649 1169l60 304h346l-62 -304h-344z" />
    <glyph glyph-name="Eogonek" unicode="&#x118;" horiz-adv-x="1380" 
d="M102 0l62 315h153l164 842h-155l61 316h1165l-92 -478h-366l26 135h-202l-41 -217h389l-68 -344h-389l-45 -227h221l27 131h366l-90 -473h-8q-58 0 -125.5 -64t-67.5 -124q0 -59 101 -64l-119 -264q-153 16 -223 70.5t-70 134.5q0 89 54.5 170.5t142.5 140.5h-871z" />
    <glyph glyph-name="eogonek" unicode="&#x119;" horiz-adv-x="1163" 
d="M754 1087q230 0 352.5 -116t122.5 -312q0 -41 -10.5 -89t-20.5 -76l-10 -27h-621q-1 -73 44 -107t122 -34q63 0 139 25t121 50l45 25l107 -313q-92 -56 -213 -101q-71 -26 -122.5 -88.5t-51.5 -111.5q0 -29 21.5 -44.5t78.5 -19.5l-119 -264q-153 16 -223 70.5t-70 134.5
q0 82 45.5 156.5t122.5 131.5q-119 12 -211.5 55t-148.5 107t-84.5 141.5t-28.5 163.5q0 186 80.5 333.5t220 228.5t312.5 81zM606 651h205q4 37 4 60q0 90 -76 90q-94 0 -133 -150z" />
    <glyph glyph-name="Ecaron" unicode="&#x11a;" horiz-adv-x="1380" 
d="M840 1565l-148 329h312l57 -170h4l125 170h334l-281 -329h-403zM102 0l62 315h153l164 842h-155l61 316h1165l-92 -478h-366l26 135h-202l-41 -217h389l-68 -344h-389l-45 -227h221l27 131h366l-90 -473h-1186z" />
    <glyph glyph-name="ecaron" unicode="&#x11b;" horiz-adv-x="1165" 
d="M625 1143l-148 330h311l58 -170h4l125 170h334l-281 -330h-403zM143 477q0 166 80.5 306t224 222t318.5 82q217 0 341 -116.5t124 -298.5q0 -50 -10.5 -101.5t-20.5 -77.5l-10 -26h-621q-1 -72 43.5 -106.5t118.5 -34.5q67 0 144 25t121 50l44 25l107 -313q-7 -6 -21 -15
t-60 -33t-96 -42t-128 -33t-158 -15q-134 0 -239 39.5t-170 108.5t-98.5 159t-33.5 195zM608 651h205q4 37 4 60q0 90 -76 90q-94 0 -133 -150z" />
    <glyph glyph-name="Gcircumflex" unicode="&#x11c;" horiz-adv-x="1574" 
d="M696 1565l279 329h405l148 -329h-311l-60 170h-4l-123 -170h-334zM193 631q0 177 72 337t194.5 276t293 184.5t359.5 68.5q53 0 112.5 -5t131.5 -16.5t134 -33.5t112.5 -52.5t74.5 -77t13 -102.5l-54 -266h-387l21 107q3 18 -3 32t-22 22t-31.5 13t-39.5 7t-37.5 2.5
t-32.5 0.5q-92 0 -169.5 -30.5t-129 -80t-88 -113.5t-52.5 -129t-16 -128q0 -66 12.5 -116t45 -94.5t97.5 -68.5t161 -24q198 0 213 72l12 57h-217l63 315h606l-100 -507q-16 -81 -80 -143t-155.5 -96t-190.5 -50.5t-201 -16.5q-213 0 -377.5 83.5t-254.5 232.5t-90 340z
" />
    <glyph glyph-name="gcircumflex" unicode="&#x11d;" horiz-adv-x="1372" 
d="M455 1143l278 330h406l147 -330h-311l-60 170h-4l-123 -170h-333zM252 -23q4 -3 12 -7.5t35.5 -16t58.5 -20.5t82.5 -16t106.5 -7q96 0 153.5 36.5t79.5 123.5l25 84h-2q-106 -115 -236 -115q-106 0 -187 36.5t-130 100t-73.5 144t-24.5 174.5q0 89 24 175.5t73 162
t116 132.5t159 90t197 33q61 0 112.5 -14.5t81 -35.5t50.5 -41.5t29 -35.5l7 -14h5q0 50 42.5 83.5t92.5 33.5h370l-61 -303h-61q-44 0 -50 -37l-122 -612q-23 -116 -73.5 -209.5t-115 -154.5t-144.5 -101.5t-160.5 -58t-164.5 -17.5q-94 0 -176.5 12t-133 29t-88.5 34.5
t-53 29.5l-16 12zM582 530q0 -61 29 -100t96 -39q82 0 136 71t54 152q0 70 -37.5 95.5t-99.5 25.5q-82 0 -130 -56t-48 -149z" />
    <glyph glyph-name="Gbreve" unicode="&#x11e;" horiz-adv-x="1574" 
d="M193 631q0 177 72 337t194.5 276t293 184.5t359.5 68.5q53 0 112.5 -5t131.5 -16.5t134 -33.5t112.5 -52.5t74.5 -77t13 -102.5l-54 -266h-387l21 107q3 18 -3 32t-22 22t-31.5 13t-39.5 7t-37.5 2.5t-32.5 0.5q-92 0 -169.5 -30.5t-129 -80t-88 -113.5t-52.5 -129
t-16 -128q0 -66 12.5 -116t45 -94.5t97.5 -68.5t161 -24q198 0 213 72l12 57h-217l63 315h606l-100 -507q-16 -81 -80 -143t-155.5 -96t-190.5 -50.5t-201 -16.5q-213 0 -377.5 83.5t-254.5 232.5t-90 340zM1147 1552q-116 0 -204 40t-130.5 119t-19.5 183h280
q-13 -71 12.5 -104t75.5 -33q46 0 88.5 33t53.5 104h282q-37 -169 -155 -255.5t-283 -86.5z" />
    <glyph glyph-name="gbreve" unicode="&#x11f;" horiz-adv-x="1372" 
d="M252 -23q4 -3 12 -7.5t35.5 -16t58.5 -20.5t82.5 -16t106.5 -7q96 0 153.5 36.5t79.5 123.5l25 84h-2q-106 -115 -236 -115q-106 0 -187 36.5t-130 100t-73.5 144t-24.5 174.5q0 89 24 175.5t73 162t116 132.5t159 90t197 33q61 0 112.5 -14.5t81 -35.5t50.5 -41.5
t29 -35.5l7 -14h5q0 50 42.5 83.5t92.5 33.5h370l-61 -303h-61q-44 0 -50 -37l-122 -612q-23 -116 -73.5 -209.5t-115 -154.5t-144.5 -101.5t-160.5 -58t-164.5 -17.5q-94 0 -176.5 12t-133 29t-88.5 34.5t-53 29.5l-16 12zM582 530q0 -61 29 -100t96 -39q82 0 136 71
t54 152q0 70 -37.5 95.5t-99.5 25.5q-82 0 -130 -56t-48 -149zM905 1130q-116 0 -204 40t-130.5 119.5t-19.5 183.5h280q-13 -71 13 -104.5t76 -33.5q46 0 88 33.5t53 104.5h282q-37 -169 -155 -256t-283 -87z" />
    <glyph glyph-name="Gdotaccent" unicode="&#x120;" horiz-adv-x="1574" 
d="M193 631q0 177 72 337t194.5 276t293 184.5t359.5 68.5q53 0 112.5 -5t131.5 -16.5t134 -33.5t112.5 -52.5t74.5 -77t13 -102.5l-54 -266h-387l21 107q3 18 -3 32t-22 22t-31.5 13t-39.5 7t-37.5 2.5t-32.5 0.5q-92 0 -169.5 -30.5t-129 -80t-88 -113.5t-52.5 -129
t-16 -128q0 -66 12.5 -116t45 -94.5t97.5 -68.5t161 -24q198 0 213 72l12 57h-217l63 315h606l-100 -507q-16 -81 -80 -143t-155.5 -96t-190.5 -50.5t-201 -16.5q-213 0 -377.5 83.5t-254.5 232.5t-90 340zM958 1591l60 303h346l-61 -303h-345z" />
    <glyph glyph-name="gdotaccent" unicode="&#x121;" horiz-adv-x="1372" 
d="M252 -23q4 -3 12 -7.5t35.5 -16t58.5 -20.5t82.5 -16t106.5 -7q96 0 153.5 36.5t79.5 123.5l25 84h-2q-106 -115 -236 -115q-106 0 -187 36.5t-130 100t-73.5 144t-24.5 174.5q0 89 24 175.5t73 162t116 132.5t159 90t197 33q61 0 112.5 -14.5t81 -35.5t50.5 -41.5
t29 -35.5l7 -14h5q0 50 42.5 83.5t92.5 33.5h370l-61 -303h-61q-44 0 -50 -37l-122 -612q-23 -116 -73.5 -209.5t-115 -154.5t-144.5 -101.5t-160.5 -58t-164.5 -17.5q-94 0 -176.5 12t-133 29t-88.5 34.5t-53 29.5l-16 12zM582 530q0 -61 29 -100t96 -39q82 0 136 71
t54 152q0 70 -37.5 95.5t-99.5 25.5q-82 0 -130 -56t-48 -149zM717 1169l59 304h346l-61 -304h-344z" />
    <glyph glyph-name="Gcommaaccent" unicode="&#x122;" horiz-adv-x="1574" 
d="M637 -84h336q2 -14 2 -39q0 -158 -99.5 -265.5t-250.5 -141.5l-119 129q77 47 107 102.5t30 128.5q0 40 -6 86zM193 631q0 177 72 337t194.5 276t293 184.5t359.5 68.5q53 0 112.5 -5t131.5 -16.5t134 -33.5t112.5 -52.5t74.5 -77t13 -102.5l-54 -266h-387l21 107
q3 18 -3 32t-22 22t-31.5 13t-39.5 7t-37.5 2.5t-32.5 0.5q-92 0 -169.5 -30.5t-129 -80t-88 -113.5t-52.5 -129t-16 -128q0 -66 12.5 -116t45 -94.5t97.5 -68.5t161 -24q198 0 213 72l12 57h-217l63 315h606l-100 -507q-16 -81 -80 -143t-155.5 -96t-190.5 -50.5
t-201 -16.5q-213 0 -377.5 83.5t-254.5 232.5t-90 340z" />
    <glyph glyph-name="gcommaaccent" unicode="&#x123;" horiz-adv-x="1372" 
d="M1028 1169h-336q-2 14 -2 39q0 158 99.5 266t250.5 142l119 -129q-77 -47 -107 -103t-30 -129q0 -39 6 -86zM252 -23q4 -3 12 -7.5t35.5 -16t58.5 -20.5t82.5 -16t106.5 -7q96 0 153.5 36.5t79.5 123.5l25 84h-2q-106 -115 -236 -115q-106 0 -187 36.5t-130 100
t-73.5 144t-24.5 174.5q0 89 24 175.5t73 162t116 132.5t159 90t197 33q61 0 112.5 -14.5t81 -35.5t50.5 -41.5t29 -35.5l7 -14h5q0 50 42.5 83.5t92.5 33.5h370l-61 -303h-61q-44 0 -50 -37l-122 -612q-23 -116 -73.5 -209.5t-115 -154.5t-144.5 -101.5t-160.5 -58
t-164.5 -17.5q-94 0 -176.5 12t-133 29t-88.5 34.5t-53 29.5l-16 12zM582 530q0 -61 29 -100t96 -39q82 0 136 71t54 152q0 70 -37.5 95.5t-99.5 25.5q-82 0 -130 -56t-48 -149z" />
    <glyph glyph-name="Hcircumflex" unicode="&#x124;" horiz-adv-x="1816" 
d="M786 1565l279 329h405l148 -329h-311l-60 170h-4l-123 -170h-334zM102 0l62 315h153l162 842h-153l61 316h754l-62 -316h-155l-50 -256h420l49 256h-155l61 316h754l-61 -316h-156l-164 -842h156l-62 -315h-753l61 315h156l47 242h-420l-47 -242h155l-61 -315h-752z" />
    <glyph glyph-name="hcircumflex" unicode="&#x125;" horiz-adv-x="1413" 
d="M223 1565l279 329h405l148 -329h-312l-59 170h-4l-123 -170h-334zM135 0l225 1169h-129l60 304h559l-94 -469q-4 -23 -11 -45t-11 -33l-5 -11h4q5 7 15 18.5t44 41t71.5 52.5t96.5 41.5t121 18.5q84 0 152.5 -31.5t113 -101.5t44.5 -168q0 -76 -34 -229.5t-34 -185.5
q0 -68 72 -68l37 2l-58 -305q-37 -6 -139 -6q-41 0 -70.5 1.5t-68.5 7.5t-66.5 16t-56.5 29.5t-47 47t-29.5 68t-11.5 92.5q0 80 30.5 222.5t30.5 164.5q0 59 -74 59q-86 0 -143.5 -75.5t-79.5 -188.5l-86 -438h-428z" />
    <glyph glyph-name="Hbar" unicode="&#x126;" horiz-adv-x="1818" 
d="M102 0l62 315h153l111 570h-162l37 186h162l16 86h-155l61 316h754l-62 -316h-155l-17 -86h420l16 86h-155l61 316h752l-59 -316h-156l-17 -86h162l-39 -186h-159l-111 -570h156l-62 -315h-753l61 315h156l41 217h-420l-41 -217h155l-61 -315h-752zM854 797h420l16 88
h-420z" />
    <glyph glyph-name="hbar" unicode="&#x127;" horiz-adv-x="1411" 
d="M561 0h-428l223 1139h-147l43 223h145l23 111h426l-21 -111h316l-41 -223h-318l-26 -131q-4 -23 -11 -45t-11 -33l-5 -10h4q5 7 15 18t43.5 40t70.5 51t94.5 40t116.5 18q139 0 227.5 -77.5t88.5 -227.5q0 -71 -34 -225t-34 -188q0 -66 74 -66l35 2l-58 -305
q-35 -6 -141 -6q-41 0 -70.5 1.5t-68.5 7.5t-66.5 16.5t-56 30t-46 47.5t-29 69.5t-11.5 93.5q0 75 30.5 218.5t30.5 162.5q0 17 -4 28.5t-22 22t-50 10.5q-84 0 -141.5 -75.5t-79.5 -188.5z" />
    <glyph glyph-name="Itilde" unicode="&#x128;" horiz-adv-x="956" 
d="M102 0l62 315h153l162 842h-153l61 316h754l-62 -316h-157l-162 -842h155l-61 -315h-752zM354 1563q31 158 115 248t205 90q51 0 89.5 -18t57 -39.5t42 -39.5t48.5 -18q64 0 82 108h271q-28 -156 -113 -247t-203 -91q-50 0 -89 18.5t-58.5 40t-44 40t-49.5 18.5
q-60 0 -84 -110h-269z" />
    <glyph glyph-name="itilde" unicode="&#x129;" horiz-adv-x="784" 
d="M233 258q0 60 19 150l67 352h-129l58 303h557l-121 -625q-8 -36 -8 -69q0 -66 74 -66l32 2l-57 -305q-53 -8 -121 -8q-48 0 -81 1.5t-75 7.5t-70.5 16.5t-58 30t-47 47.5t-28.5 69t-11 94zM180 1141q31 158 115 248t205 90q51 0 89.5 -18t57 -39.5t42 -39.5t48.5 -18
q64 0 82 109h271q-28 -156 -113 -247t-203 -91q-41 0 -74 12t-53.5 29t-38 34t-36.5 29t-40 12q-59 0 -83 -110h-269z" />
    <glyph glyph-name="Imacron" unicode="&#x12a;" horiz-adv-x="956" 
d="M102 0l62 315h153l162 842h-153l61 316h754l-62 -316h-157l-162 -842h155l-61 -315h-752zM496 1599l53 271h584l-56 -271h-581z" />
    <glyph glyph-name="imacron" unicode="&#x12b;" horiz-adv-x="784" 
d="M233 258q0 60 19 150l67 352h-129l58 303h557l-121 -625q-8 -36 -8 -69q0 -66 74 -66l32 2l-57 -305q-53 -8 -121 -8q-48 0 -81 1.5t-75 7.5t-70.5 16.5t-58 30t-47 47.5t-28.5 69t-11 94zM322 1178l53 270h583l-55 -270h-581z" />
    <glyph glyph-name="Ibreve" unicode="&#x12c;" horiz-adv-x="956" 
d="M102 0l62 315h153l162 842h-153l61 316h754l-62 -316h-157l-162 -842h155l-61 -315h-752zM803 1552q-116 0 -204 40t-130.5 119t-19.5 183h280q-13 -71 12.5 -104t75.5 -33q46 0 88 33t53 104h283q-37 -169 -155 -255.5t-283 -86.5z" />
    <glyph glyph-name="ibreve" unicode="&#x12d;" horiz-adv-x="784" 
d="M233 258q0 60 19 150l67 352h-129l58 303h557l-121 -625q-8 -36 -8 -69q0 -66 74 -66l32 2l-57 -305q-53 -8 -121 -8q-48 0 -81 1.5t-75 7.5t-70.5 16.5t-58 30t-47 47.5t-28.5 69t-11 94zM629 1130q-116 0 -204 40t-131 119.5t-20 183.5h281q-13 -71 12.5 -104.5
t75.5 -33.5q46 0 88 33.5t53 104.5h283q-37 -169 -155 -256t-283 -87z" />
    <glyph glyph-name="Iogonek" unicode="&#x12e;" horiz-adv-x="956" 
d="M102 0l62 315h153l162 842h-153l61 316h754l-62 -316h-157l-162 -842h155l-61 -315h-10q-58 0 -125.5 -64t-67.5 -124q0 -59 101 -64l-117 -264q-154 16 -224.5 70.5t-70.5 134.5q0 89 54.5 170.5t142.5 140.5h-435z" />
    <glyph glyph-name="iogonek" unicode="&#x12f;" horiz-adv-x="784" 
d="M209 -311q0 92 59 176t152 141q-91 20 -139 77.5t-48 174.5q0 60 19 150l67 352h-129l58 303h557l-121 -625q-10 -45 -10 -69q0 -66 74 -66h34l-57 -303q-17 0 -35 -2q-45 -5 -107.5 -67.5t-62.5 -112.5q0 -31 21 -49t80 -21l-117 -264q-154 16 -224.5 70.5t-70.5 134.5z
M406 1161l59 312h412l-60 -312h-411z" />
    <glyph glyph-name="Idotaccent" unicode="&#x130;" horiz-adv-x="956" 
d="M102 0l62 315h153l162 842h-153l61 316h754l-62 -316h-157l-162 -842h155l-61 -315h-752zM614 1591l60 303h346l-62 -303h-344z" />
    <glyph glyph-name="dotlessi" unicode="&#x131;" horiz-adv-x="784" 
d="M233 258q0 60 19 150l67 352h-129l58 303h557l-121 -625q-8 -36 -8 -69q0 -66 74 -66l32 2l-57 -305q-53 -8 -121 -8q-48 0 -81 1.5t-75 7.5t-70.5 16.5t-58 30t-47 47.5t-28.5 69t-11 94z" />
    <glyph glyph-name="IJ" unicode="&#x132;" horiz-adv-x="1763" 
d="M915 0l66 342q29 -4 66.5 2.5t75.5 23t67.5 49t38.5 75.5l129 665h-182l61 316h754l-62 -316h-129l-121 -618q-115 -591 -764 -539zM102 0l62 315h151l166 842h-155l61 316h754l-62 -316h-155l-166 -842h114l-61 -315h-709z" />
    <glyph glyph-name="ij" unicode="&#x133;" horiz-adv-x="1492" 
d="M406 1161l59 312h414l-60 -312h-413zM233 258q0 60 19 150l67 352h-129l58 303h557l-121 -625q-8 -36 -8 -69q0 -66 74 -66l32 2l-57 -305q-51 -6 -119 -6q-49 0 -81.5 1.5t-75 7t-70.5 16t-58 30t-47.5 47t-29 68.5t-11.5 94zM1165 1161l62 312h411l-59 -312h-414z
M694 -98q20 -2 45 -2q177 0 193 92l147 768h-131l58 303h559l-203 -1055q-17 -87 -56 -157.5t-91 -116.5t-110 -79.5t-120.5 -50.5t-114.5 -24.5t-100 -7.5q-37 0 -72 1.5t-51 2.5l-16 2z" />
    <glyph glyph-name="Jcircumflex" unicode="&#x134;" horiz-adv-x="1218" 
d="M674 1565l278 329h406l147 -329h-311l-59 170h-5l-122 -170h-334zM98 385q0 46 9 97.5t17 79.5l9 28h416q-27 -95 -27 -156q0 -78 58 -78q69 0 88 105l139 696h-184l61 316h760l-60 -316h-135l-139 -713q-43 -221 -195 -345t-350 -124q-91 0 -174.5 27.5t-149 78
t-104.5 129.5t-39 175z" />
    <glyph glyph-name="jcircumflex" unicode="&#x135;" horiz-adv-x="745" 
d="M172 1143l281 330h403l148 -330h-312l-57 170h-4l-125 -170h-334zM184 -8l148 768h-131l57 303h559l-203 -1055q-17 -87 -56 -157.5t-91 -116.5t-109.5 -79.5t-120.5 -50.5t-114.5 -24.5t-99.5 -7.5q-37 0 -72 1.5t-51 2.5l-17 2l64 324q20 -2 45 -2q176 0 192 92z" />
    <glyph glyph-name="Kcommaaccent" unicode="&#x136;" horiz-adv-x="1585" 
d="M649 -84h336q2 -14 2 -39q0 -158 -99.5 -265.5t-250.5 -141.5l-119 129q77 47 107 102.5t30 128.5q0 40 -6 86zM102 0l62 315h153l162 842h-153l61 316h670l-60 -316h-75l-45 -242h84l215 242h-80l61 316h639l-61 -316h-115l-356 -399v-4q6 -4 15.5 -13t30.5 -40.5
t31 -67.5l62 -217q19 -63 36.5 -84t63.5 -21l68 4l-58 -315q-49 -6 -176 -6q-286 0 -346 233l-69 277q-16 67 -99 67h-14l-49 -256h133l-62 -315h-729z" />
    <glyph glyph-name="kcommaaccent" unicode="&#x137;" horiz-adv-x="1294" 
d="M487 -84h336q2 -14 2 -39q0 -158 -99.5 -265.5t-250.5 -141.5l-119 129q77 47 107.5 102.5t30.5 128.5q0 32 -7 86zM135 0l223 1169h-129l58 304h557l-154 -801h96l95 88h-105l58 303h581l-59 -303h-90l-213 -209v-4q30 -33 63 -103l29 -67q29 -72 98 -72l57 2l-57 -307
q-43 -6 -149 -6q-38 0 -71 3.5t-58 8t-47.5 15t-37 17.5t-29.5 23l-22.5 24t-18 28.5t-14 28t-12.5 30.5t-12 29l-41 114q-21 60 -61 60h-39l-72 -375h-424z" />
    <glyph glyph-name="kgreenlandic" unicode="&#x138;" horiz-adv-x="1343" 
d="M188 0l146 760h-129l57 303h557l-76 -383h111l82 80h-92l57 303h555l-59 -303h-97l-213 -215v-4q6 -3 15.5 -10t32 -33t36.5 -58l29 -63q26 -72 98 -72h58l-58 -305q-45 -6 -135 -6q-68 0 -119.5 11.5t-82.5 29.5t-54 45.5t-35.5 52.5t-25.5 57q-3 7 -4 11l-41 114
q-21 52 -78 52h-41l-70 -367h-424z" />
    <glyph glyph-name="Lacute" unicode="&#x139;" horiz-adv-x="1329" 
d="M571 1565l295 329h428l-385 -329h-338zM104 0l60 315h153l160 815h-155l65 343h754l-66 -343h-157l-152 -788h227l41 207h367l-107 -549h-1190z" />
    <glyph glyph-name="lacute" unicode="&#x13a;" horiz-adv-x="737" 
d="M436 1565l295 329h428l-385 -329h-338zM186 283q0 62 15 151l143 735h-129l59 304h555l-190 -1004q-12 -47 -12 -84q0 -30 15.5 -44.5t57.5 -14.5l41 2l-67 -334q-51 -6 -117 -6q-64 0 -112.5 5.5t-99.5 24t-84 50t-54 86t-21 129.5z" />
    <glyph glyph-name="Lcommaaccent" unicode="&#x13b;" horiz-adv-x="1329" 
d="M547 -84h336q2 -14 2 -39q0 -158 -99.5 -265.5t-250.5 -141.5l-119 129q77 47 107 102.5t30 128.5q0 40 -6 86zM104 0l60 315h153l160 815h-155l65 343h754l-66 -343h-157l-152 -788h227l41 207h367l-107 -549h-1190z" />
    <glyph glyph-name="lcommaaccent" unicode="&#x13c;" horiz-adv-x="737" 
d="M229 -84h336q2 -14 2 -39q0 -158 -99.5 -265.5t-250.5 -141.5l-119 129q77 47 107.5 102.5t30.5 128.5q0 32 -7 86zM186 283q0 62 15 151l143 735h-129l59 304h555l-190 -1004q-12 -47 -12 -84q0 -30 15.5 -44.5t57.5 -14.5l41 2l-67 -334q-51 -6 -117 -6
q-64 0 -112.5 5.5t-99.5 24t-84 50t-54 86t-21 129.5z" />
    <glyph glyph-name="Lcaron" unicode="&#x13d;" horiz-adv-x="1329" 
d="M547 -84h336q2 -14 2 -39q0 -158 -99.5 -265.5t-250.5 -141.5l-119 129q77 47 107 102.5t30 128.5q0 40 -6 86zM104 0l60 315h153l160 815h-155l65 343h754l-66 -343h-157l-152 -788h227l41 207h367l-107 -549h-1190z" />
    <glyph glyph-name="lcaron" unicode="&#x13e;" horiz-adv-x="765" 
d="M971 1468h336q2 -14 2 -38q0 -158 -100 -266t-251 -142l-118 129q77 47 107 102.5t30 128.5q0 40 -6 86zM186 283q0 62 15 151l143 735h-129l59 304h555l-190 -1004q-12 -47 -12 -84q0 -30 15.5 -44.5t57.5 -14.5l41 2l-67 -334q-51 -6 -117 -6q-64 0 -112.5 5.5
t-99.5 24t-84 50t-54 86t-21 129.5z" />
    <glyph glyph-name="Ldot" unicode="&#x13f;" horiz-adv-x="1329" 
d="M104 0l60 315h153l160 815h-155l65 343h754l-66 -343h-157l-152 -788h227l41 207h367l-107 -549h-1190zM989 637l76 391h377l-74 -391h-379z" />
    <glyph glyph-name="ldot" unicode="&#x140;" horiz-adv-x="1150" 
d="M186 283q0 62 15 151l143 735h-129l59 304h555l-190 -1004q-12 -47 -12 -84q0 -30 15.5 -44.5t57.5 -14.5l41 2l-67 -334q-51 -6 -117 -6q-64 0 -112.5 5.5t-99.5 24t-84 50t-54 86t-21 129.5zM838 637l75 391h377l-73 -391h-379z" />
    <glyph glyph-name="Lslash" unicode="&#x141;" horiz-adv-x="1329" 
d="M102 0l62 315h153l21 117l-168 -84l59 334l177 84l67 364h-151l65 343h754l-68 -343h-158l-24 -126l334 161l-66 -331l-332 -164l-63 -328h254l41 207h342l-107 -549h-1192z" />
    <glyph glyph-name="lslash" unicode="&#x142;" horiz-adv-x="800" 
d="M240 436l-148 -69l66 354l147 70l74 378h-129l57 304h557l-86 -449l199 96l-68 -352l-198 -98l-41 -215q-18 -66 -6.5 -97.5t71.5 -31.5l47 2l-65 -332q-57 -6 -125 -6q-53 0 -94 3.5t-85.5 15.5t-76 31.5t-58.5 53.5t-40 80t-13 112.5t15 149.5z" />
    <glyph glyph-name="Nacute" unicode="&#x143;" horiz-adv-x="1779" 
d="M997 1565l295 329h428l-385 -329h-338zM102 0l62 315h153l164 842h-155l61 316h592l221 -670q11 -32 20 -73t12 -66l3 -25h10q9 102 23 178l67 340h-166l60 316h764l-60 -316h-155l-226 -1157h-436l-227 668q-10 30 -19 70t-12 64l-4 25h-10q-7 -100 -21 -176l-63 -336
h166l-62 -315h-762z" />
    <glyph glyph-name="nacute" unicode="&#x144;" horiz-adv-x="1464" 
d="M770 1143l295 330h428l-385 -330h-338zM186 0l140 715q4 21 -6 33t-31 12h-84l57 303h383q64 0 98.5 -26t34.5 -74q0 -16 -3.5 -35.5t-6.5 -31.5l-4 -11h4q5 8 14.5 21.5t42.5 48.5t71 61.5t100.5 48.5t129.5 22q137 0 225.5 -78t88.5 -229q0 -73 -33 -224t-33 -187
q0 -66 74 -66l35 2l-60 -305q-35 -6 -141 -6q-41 0 -70.5 1.5t-68.5 7.5t-66.5 16.5t-56 30t-46 47.5t-29 69.5t-11.5 93.5q0 75 30.5 218.5t30.5 162.5q0 17 -4 28.5t-21 22t-48 10.5q-86 0 -142 -74.5t-80 -189.5l-88 -438h-426z" />
    <glyph glyph-name="Ncommaaccent" unicode="&#x145;" horiz-adv-x="1779" 
d="M711 -84h336q2 -14 2 -39q0 -158 -100 -265.5t-251 -141.5l-118 129q77 47 107 102.5t30 128.5q0 40 -6 86zM102 0l62 315h153l164 842h-155l61 316h592l221 -670q11 -32 20 -73t12 -66l3 -25h10q9 102 23 178l67 340h-166l60 316h764l-60 -316h-155l-226 -1157h-436
l-227 668q-10 30 -19 70t-12 64l-4 25h-10q-7 -100 -21 -176l-63 -336h166l-62 -315h-762z" />
    <glyph glyph-name="ncommaaccent" unicode="&#x146;" horiz-adv-x="1464" 
d="M664 -84h335q2 -14 2 -39q0 -158 -99.5 -265.5t-250.5 -141.5l-119 129q77 47 107.5 102.5t30.5 128.5q0 40 -6 86zM186 0l140 715q4 21 -6 33t-31 12h-84l57 303h383q64 0 98.5 -26t34.5 -74q0 -16 -3.5 -35.5t-6.5 -31.5l-4 -11h4q5 8 14.5 21.5t42.5 48.5t71 61.5
t100.5 48.5t129.5 22q137 0 225.5 -78t88.5 -229q0 -73 -33 -224t-33 -187q0 -66 74 -66l35 2l-60 -305q-35 -6 -141 -6q-41 0 -70.5 1.5t-68.5 7.5t-66.5 16.5t-56 30t-46 47.5t-29 69.5t-11.5 93.5q0 75 30.5 218.5t30.5 162.5q0 17 -4 28.5t-21 22t-48 10.5
q-86 0 -142 -74.5t-80 -189.5l-88 -438h-426z" />
    <glyph glyph-name="Ncaron" unicode="&#x147;" horiz-adv-x="1779" 
d="M1004 1565l-148 329h311l58 -170h4l125 170h334l-281 -329h-403zM102 0l62 315h153l164 842h-155l61 316h592l221 -670q11 -32 20 -73t12 -66l3 -25h10q9 102 23 178l67 340h-166l60 316h764l-60 -316h-155l-226 -1157h-436l-227 668q-10 30 -19 70t-12 64l-4 25h-10
q-7 -100 -21 -176l-63 -336h166l-62 -315h-762z" />
    <glyph glyph-name="ncaron" unicode="&#x148;" horiz-adv-x="1464" 
d="M776 1143l-147 330h311l57 -170h4l125 170h334l-280 -330h-404zM186 0l140 715q4 21 -6 33t-31 12h-84l57 303h383q64 0 98.5 -26t34.5 -74q0 -16 -3.5 -35.5t-6.5 -31.5l-4 -11h4q5 8 14.5 21.5t42.5 48.5t71 61.5t100.5 48.5t129.5 22q137 0 225.5 -78t88.5 -229
q0 -73 -33 -224t-33 -187q0 -66 74 -66l35 2l-60 -305q-35 -6 -141 -6q-41 0 -70.5 1.5t-68.5 7.5t-66.5 16.5t-56 30t-46 47.5t-29 69.5t-11.5 93.5q0 75 30.5 218.5t30.5 162.5q0 17 -4 28.5t-21 22t-48 10.5q-86 0 -142 -74.5t-80 -189.5l-88 -438h-426z" />
    <glyph glyph-name="napostrophe" unicode="&#x149;" horiz-adv-x="1464" 
d="M260 1563h336q2 -14 2 -39q0 -158 -99.5 -266t-250.5 -142l-119 129q77 47 107 103t30 129q0 39 -6 86zM186 0l140 715q4 21 -6 33t-31 12h-84l57 303h383q64 0 98.5 -26t34.5 -74q0 -16 -3.5 -35.5t-6.5 -31.5l-4 -11h4q5 8 14.5 21.5t42.5 48.5t71 61.5t100.5 48.5
t129.5 22q137 0 225.5 -78t88.5 -229q0 -73 -33 -224t-33 -187q0 -66 74 -66l35 2l-60 -305q-35 -6 -141 -6q-41 0 -70.5 1.5t-68.5 7.5t-66.5 16.5t-56 30t-46 47.5t-29 69.5t-11.5 93.5q0 75 30.5 218.5t30.5 162.5q0 17 -4 28.5t-21 22t-48 10.5q-86 0 -142 -74.5
t-80 -189.5l-88 -438h-426z" />
    <glyph glyph-name="Eng" unicode="&#x14a;" horiz-adv-x="1779" 
d="M1120 -10l-231 678q-10 30 -19 70t-12 64l-4 25h-10q-7 -100 -21 -176l-63 -336h166l-62 -315h-762l62 315h153l164 842h-155l61 316h592l221 -670q11 -32 20 -73t12 -66l3 -25h10q9 102 23 178l67 340h-166l60 316h764l-60 -316h-155l-222 -1145q-14 -75 -45.5 -138.5
t-71.5 -107.5t-90 -78.5t-99.5 -55t-103 -33.5t-96.5 -18t-83 -5q-38 0 -73 1.5t-51 2.5l-16 2l64 322q18 -2 45 -2q29 0 55.5 3.5t55.5 12.5t48.5 27.5t24.5 44.5z" />
    <glyph glyph-name="eng" unicode="&#x14b;" horiz-adv-x="1411" 
d="M186 0l140 715q9 45 -37 45h-84l57 303h383q64 0 98.5 -26t34.5 -74q0 -19 -5 -44.5t-10 -40.5l-5 -16h4q5 9 15 24t44 54t73 68.5t102 54t130 24.5q138 0 226 -77t88 -228q0 -67 -58 -352l-84 -418q-14 -75 -45.5 -138.5t-71.5 -107.5t-90 -78.5t-99.5 -55t-103 -33.5
t-96.5 -18t-83 -5q-38 0 -73 1.5t-51 2.5l-16 2l64 322q18 -2 45 -2q174 0 190 92l88 438q5 24 16.5 79.5t17 86t5.5 43.5q0 17 -4 28.5t-21 22t-48 10.5q-86 0 -142 -74.5t-80 -189.5l-88 -438h-426z" />
    <glyph glyph-name="Omacron" unicode="&#x14c;" horiz-adv-x="1671" 
d="M854 1599l53 271h584l-55 -271h-582zM197 639q0 170 71 328.5t189.5 274.5t280.5 185.5t337 69.5q202 0 359.5 -83.5t244 -231t86.5 -334.5q0 -139 -46.5 -272t-130 -240.5t-193 -189t-242 -126.5t-270.5 -45q-306 0 -496 186.5t-190 477.5zM641 666q0 -139 74 -224.5
t194 -85.5q74 0 148 36t132 96t94 147.5t36 183.5q0 134 -75.5 215.5t-196.5 81.5q-76 0 -149.5 -35t-130.5 -94t-91.5 -143.5t-34.5 -177.5z" />
    <glyph glyph-name="omacron" unicode="&#x14d;" 
d="M592 1178l53 270h584l-55 -270h-582zM137 457q0 137 58 256.5t153.5 200.5t220 127t256.5 46q157 0 282 -58t197 -169t72 -256q0 -137 -58 -256.5t-154 -200t-220.5 -126.5t-257.5 -46q-156 0 -280 58t-196.5 168.5t-72.5 255.5zM569 477q0 -72 41 -110.5t107 -38.5
q89 0 158 67t69 183q0 74 -40.5 115.5t-104.5 41.5q-85 0 -157.5 -71.5t-72.5 -186.5z" />
    <glyph glyph-name="Obreve" unicode="&#x14e;" horiz-adv-x="1671" 
d="M197 639q0 170 71 328.5t189.5 274.5t280.5 185.5t337 69.5q202 0 359.5 -83.5t244 -231t86.5 -334.5q0 -139 -46.5 -272t-130 -240.5t-193 -189t-242 -126.5t-270.5 -45q-306 0 -496 186.5t-190 477.5zM641 666q0 -139 74 -224.5t194 -85.5q74 0 148 36t132 96t94 147.5
t36 183.5q0 134 -75.5 215.5t-196.5 81.5q-76 0 -149.5 -35t-130.5 -94t-91.5 -143.5t-34.5 -177.5zM1163 1552q-116 0 -204 40t-130.5 119t-19.5 183h281q-13 -71 12.5 -104t75.5 -33q46 0 88 33t53 104h283q-37 -169 -155.5 -255.5t-283.5 -86.5z" />
    <glyph glyph-name="obreve" unicode="&#x14f;" 
d="M137 457q0 137 58 256.5t153.5 200.5t220 127t256.5 46q157 0 282 -58t197 -169t72 -256q0 -137 -58 -256.5t-154 -200t-220.5 -126.5t-257.5 -46q-156 0 -280 58t-196.5 168.5t-72.5 255.5zM569 477q0 -72 41 -110.5t107 -38.5q89 0 158 67t69 183q0 74 -40.5 115.5
t-104.5 41.5q-85 0 -157.5 -71.5t-72.5 -186.5zM899 1130q-116 0 -204 40t-130.5 119.5t-19.5 183.5h280q-13 -71 12.5 -104.5t75.5 -33.5q46 0 88.5 33.5t53.5 104.5h282q-37 -169 -155 -256t-283 -87z" />
    <glyph glyph-name="Ohungarumlaut" unicode="&#x150;" horiz-adv-x="1671" 
d="M1188 1565l239 329h404l-328 -329h-315zM713 1565l229 329h344l-235 -329h-338zM197 639q0 170 71 328.5t189.5 274.5t280.5 185.5t337 69.5q202 0 359.5 -83.5t244 -231t86.5 -334.5q0 -139 -46.5 -272t-130 -240.5t-193 -189t-242 -126.5t-270.5 -45q-306 0 -496 186.5
t-190 477.5zM641 666q0 -139 74 -224.5t194 -85.5q74 0 148 36t132 96t94 147.5t36 183.5q0 134 -75.5 215.5t-196.5 81.5q-76 0 -149.5 -35t-130.5 -94t-91.5 -143.5t-34.5 -177.5z" />
    <glyph glyph-name="ohungarumlaut" unicode="&#x151;" 
d="M926 1143l239 330h404l-328 -330h-315zM451 1143l229 330h344l-236 -330h-337zM137 457q0 137 58 256.5t153.5 200.5t220 127t256.5 46q157 0 282 -58t197 -169t72 -256q0 -137 -58 -256.5t-154 -200t-220.5 -126.5t-257.5 -46q-156 0 -280 58t-196.5 168.5t-72.5 255.5z
M569 477q0 -72 41 -110.5t107 -38.5q89 0 158 67t69 183q0 74 -40.5 115.5t-104.5 41.5q-85 0 -157.5 -71.5t-72.5 -186.5z" />
    <glyph glyph-name="OE" unicode="&#x152;" horiz-adv-x="2125" 
d="M193 641q0 136 49 266t135 234t196 183t239 122t257 43q115 0 209 -8t152 -8h866l-92 -478h-342l26 135h-213l-45 -221h377l-65 -340h-377l-43 -227h233l27 135h342l-94 -477h-854q-42 0 -119 -7t-164 -7q-199 0 -359 84.5t-250.5 234.5t-90.5 336zM641 662
q0 -141 81.5 -232.5t207.5 -91.5q42 0 80 3t56 6l17 3l148 772q-52 15 -146 15q-80 0 -160.5 -38t-143 -101.5t-101.5 -152t-39 -183.5z" />
    <glyph glyph-name="oe" unicode="&#x153;" horiz-adv-x="1964" 
d="M571 477q0 -72 41 -110.5t107 -38.5q89 0 158 67t69 183q0 74 -40.5 115.5t-104.5 41.5q-99 0 -164.5 -69.5t-65.5 -188.5zM1505 -25q-241 0 -401 134h-4q-180 -134 -387 -134q-252 0 -413 131.5t-161 350.5q0 138 53.5 257t144 200t211.5 127t255 46q226 0 387 -124h4
q154 124 358 124q231 0 354.5 -116t123.5 -312q0 -41 -10 -89t-20 -76l-11 -27h-621q-1 -73 44 -107t122 -34q63 0 139 25t121 50l45 25l107 -313q-8 -6 -22.5 -15t-61 -33t-95.5 -42t-121 -33t-141 -15zM1409 651h205q4 37 4 60q0 90 -76 90q-94 0 -133 -150z" />
    <glyph glyph-name="Racute" unicode="&#x154;" horiz-adv-x="1531" 
d="M840 1565l295 329h428l-385 -329h-338zM98 0l62 315h155l164 842h-155l61 316h752q89 0 165.5 -24t138.5 -72t98 -128.5t36 -185.5q0 -47 -7 -95t-26.5 -105.5t-49.5 -107t-80.5 -95t-115.5 -74.5v-6q8 -7 19.5 -18.5t36 -47t34.5 -70.5l9 -28q19 -63 36 -84t62 -21l63 4
l-59 -315q-88 -6 -168 -6q-70 0 -126.5 14.5t-92 37t-62.5 55t-40.5 61.5t-24.5 65l-63 213q-10 32 -26 47t-50 15h-47l-37 -187h129l-60 -315h-731zM856 823h92q82 0 136.5 49t54.5 132q0 57 -28 91.5t-79 34.5h-117z" />
    <glyph glyph-name="racute" unicode="&#x155;" horiz-adv-x="999" 
d="M549 1143l295 330h428l-385 -330h-338zM188 0l138 715q4 18 -4.5 31.5t-32.5 13.5h-84l61 303h379q135 0 135 -100q0 -60 -24 -134h4q57 114 157 184t220 70l45 -2l-82 -419q-18 6 -86 6q-272 0 -328 -295l-70 -373h-428z" />
    <glyph glyph-name="Rcommaaccent" unicode="&#x156;" horiz-adv-x="1531" 
d="M641 -84h336q2 -14 2 -39q0 -158 -99.5 -265.5t-250.5 -141.5l-119 129q77 47 107 102.5t30 128.5q0 40 -6 86zM98 0l62 315h155l164 842h-155l61 316h752q89 0 165.5 -24t138.5 -72t98 -128.5t36 -185.5q0 -47 -7 -95t-26.5 -105.5t-49.5 -107t-80.5 -95t-115.5 -74.5
v-6q8 -7 19.5 -18.5t36 -47t34.5 -70.5l9 -28q19 -63 36 -84t62 -21l63 4l-59 -315q-88 -6 -168 -6q-70 0 -126.5 14.5t-92 37t-62.5 55t-40.5 61.5t-24.5 65l-63 213q-10 32 -26 47t-50 15h-47l-37 -187h129l-60 -315h-731zM856 823h92q82 0 136.5 49t54.5 132
q0 57 -28 91.5t-79 34.5h-117z" />
    <glyph glyph-name="rcommaaccent" unicode="&#x157;" horiz-adv-x="999" 
d="M211 -84h336q2 -14 2 -39q0 -158 -99.5 -265.5t-250.5 -141.5l-119 129q77 47 107 102.5t30 128.5q0 40 -6 86zM188 0l138 715q4 18 -4.5 31.5t-32.5 13.5h-84l61 303h379q135 0 135 -100q0 -60 -24 -134h4q57 114 157 184t220 70l45 -2l-82 -419q-18 6 -86 6
q-272 0 -328 -295l-70 -373h-428z" />
    <glyph glyph-name="Rcaron" unicode="&#x158;" horiz-adv-x="1531" 
d="M848 1565l-148 329h312l57 -170h4l125 170h334l-281 -329h-403zM98 0l62 315h155l164 842h-155l61 316h752q89 0 165.5 -24t138.5 -72t98 -128.5t36 -185.5q0 -47 -7 -95t-26.5 -105.5t-49.5 -107t-80.5 -95t-115.5 -74.5v-6q8 -7 19.5 -18.5t36 -47t34.5 -70.5l9 -28
q19 -63 36 -84t62 -21l63 4l-59 -315q-88 -6 -168 -6q-70 0 -126.5 14.5t-92 37t-62.5 55t-40.5 61.5t-24.5 65l-63 213q-10 32 -26 47t-50 15h-47l-37 -187h129l-60 -315h-731zM856 823h92q82 0 136.5 49t54.5 132q0 57 -28 91.5t-79 34.5h-117z" />
    <glyph glyph-name="rcaron" unicode="&#x159;" horiz-adv-x="999" 
d="M555 1143l-147 330h311l57 -170h4l125 170h334l-281 -330h-403zM188 0l138 715q4 18 -4.5 31.5t-32.5 13.5h-84l61 303h379q135 0 135 -100q0 -60 -24 -134h4q57 114 157 184t220 70l45 -2l-82 -419q-18 6 -86 6q-272 0 -328 -295l-70 -373h-428z" />
    <glyph glyph-name="Sacute" unicode="&#x15a;" horiz-adv-x="1325" 
d="M768 1565l295 329h428l-385 -329h-338zM182 557h393l-18 -94q-21 -107 182 -107q84 0 125 33.5t41 79.5q0 26 -33.5 48t-87 40.5t-118.5 40.5t-130 56t-118.5 79t-87 117t-33.5 162q0 101 35 183.5t95 138t142.5 93t174.5 54t194 16.5q51 0 103.5 -5t115.5 -17.5
t114.5 -37t92.5 -59t58 -88.5t3 -121l-43 -211h-391l19 93q7 38 -26.5 51.5t-96.5 13.5q-78 0 -114 -23.5t-36 -62.5q0 -34 33.5 -59.5t87.5 -44.5t119 -40t130.5 -53.5t119.5 -75.5t87.5 -114.5t33.5 -163.5q0 -100 -35.5 -183.5t-97.5 -142t-146.5 -99t-182 -60
t-204.5 -19.5q-58 0 -120 9.5t-127.5 28.5t-121 52t-97.5 76.5t-59.5 106.5t-4.5 137z" />
    <glyph glyph-name="sacute" unicode="&#x15b;" horiz-adv-x="1087" 
d="M575 1143l295 330h428l-385 -330h-338zM98 283l23 108h354l-4 -24q-7 -40 23 -57t88 -17q108 0 108 45q0 21 -26 38t-67 31t-90.5 30.5t-99.5 41t-91 56.5t-67 83t-26 115q0 88 46.5 157.5t124 111.5t170 63.5t192.5 21.5q81 0 154.5 -14t137.5 -43.5t96 -84t19 -126.5
l-22 -123h-355l5 27q4 28 -13.5 37.5t-52.5 9.5q-90 0 -90 -45q0 -26 35 -45.5t87.5 -32.5t114 -35.5t114 -51t87.5 -83t35 -127.5q0 -108 -74 -194.5t-199 -133.5t-276 -47q-65 0 -129.5 8.5t-131.5 30.5t-114.5 55.5t-72.5 89t-13 124.5z" />
    <glyph glyph-name="Scircumflex" unicode="&#x15c;" horiz-adv-x="1325" 
d="M539 1565l278 329h406l147 -329h-311l-60 170h-4l-123 -170h-333zM182 557h393l-18 -94q-21 -107 182 -107q84 0 125 33.5t41 79.5q0 26 -33.5 48t-87 40.5t-118.5 40.5t-130 56t-118.5 79t-87 117t-33.5 162q0 101 35 183.5t95 138t142.5 93t174.5 54t194 16.5
q51 0 103.5 -5t115.5 -17.5t114.5 -37t92.5 -59t58 -88.5t3 -121l-43 -211h-391l19 93q7 38 -26.5 51.5t-96.5 13.5q-78 0 -114 -23.5t-36 -62.5q0 -34 33.5 -59.5t87.5 -44.5t119 -40t130.5 -53.5t119.5 -75.5t87.5 -114.5t33.5 -163.5q0 -100 -35.5 -183.5t-97.5 -142
t-146.5 -99t-182 -60t-204.5 -19.5q-58 0 -120 9.5t-127.5 28.5t-121 52t-97.5 76.5t-59.5 106.5t-4.5 137z" />
    <glyph glyph-name="scircumflex" unicode="&#x15d;" horiz-adv-x="1087" 
d="M346 1143l279 330h405l148 -330h-312l-59 170h-4l-123 -170h-334zM98 283l23 108h354l-4 -24q-7 -40 23 -57t88 -17q108 0 108 45q0 21 -26 38t-67 31t-90.5 30.5t-99.5 41t-91 56.5t-67 83t-26 115q0 88 46.5 157.5t124 111.5t170 63.5t192.5 21.5q81 0 154.5 -14
t137.5 -43.5t96 -84t19 -126.5l-22 -123h-355l5 27q4 28 -13.5 37.5t-52.5 9.5q-90 0 -90 -45q0 -26 35 -45.5t87.5 -32.5t114 -35.5t114 -51t87.5 -83t35 -127.5q0 -108 -74 -194.5t-199 -133.5t-276 -47q-65 0 -129.5 8.5t-131.5 30.5t-114.5 55.5t-72.5 89t-13 124.5z
" />
    <glyph glyph-name="Scedilla" unicode="&#x15e;" horiz-adv-x="1325" 
d="M442 -219l113 205q-66 10 -126.5 29t-118 52t-96.5 76.5t-57 106t-5 135.5l30 172h393l-18 -94q-21 -107 182 -107q84 0 125 33.5t41 79.5q0 26 -33.5 48t-87 40.5t-118.5 40.5t-130 56t-118.5 79t-87 117t-33.5 162q0 101 35 183.5t95 138t142.5 93t174.5 54t194 16.5
q51 0 103.5 -5t115.5 -17.5t114.5 -37t92.5 -59t58 -88.5t3 -121l-43 -211h-391l19 93q7 38 -26.5 51.5t-96.5 13.5q-78 0 -114 -23.5t-36 -62.5q0 -34 33.5 -59.5t87.5 -44.5t119 -40t130.5 -53.5t119.5 -75.5t87.5 -114.5t33.5 -163.5q0 -95 -32 -175t-88 -137.5
t-133.5 -99t-167.5 -63.5t-190 -27l-41 -73q75 -5 125.5 -48.5t50.5 -109.5q0 -65 -34 -114t-89 -75.5t-115 -39.5t-122 -13q-33 0 -69.5 5t-56.5 11l-21 5l30 174q46 -18 105 -18q102 0 102 55q0 45 -102 45h-58z" />
    <glyph glyph-name="scedilla" unicode="&#x15f;" horiz-adv-x="1087" 
d="M342 -219l111 201q-75 7 -140.5 27t-121.5 54.5t-82 91t-11 128.5l23 108h354l-4 -24q-7 -40 23 -57t88 -17q108 0 108 45q0 21 -26 38t-67 31t-90.5 30.5t-99.5 41t-91 56.5t-67 83t-26 115q0 88 46.5 157.5t124 111.5t170 63.5t192.5 21.5q81 0 154.5 -14t137.5 -43.5
t96 -84t19 -126.5l-22 -123h-355l5 27q4 28 -13.5 37.5t-52.5 9.5q-90 0 -90 -45q0 -26 35 -45.5t87.5 -32.5t114 -35.5t114 -51t87.5 -83t35 -127.5q0 -149 -133 -250.5t-336 -119.5l-43 -76q75 -5 125.5 -48.5t50.5 -109.5q0 -65 -34 -114t-89 -75.5t-115 -39.5t-122 -13
q-33 0 -70 5t-58 11l-20 5l31 174q45 -18 104 -18q103 0 103 55q0 45 -103 45h-57z" />
    <glyph glyph-name="Scaron" unicode="&#x160;" horiz-adv-x="1325" 
d="M774 1565l-147 329h311l57 -170h4l125 170h334l-280 -329h-404zM182 557h393l-18 -94q-21 -107 182 -107q84 0 125 33.5t41 79.5q0 26 -33.5 48t-87 40.5t-118.5 40.5t-130 56t-118.5 79t-87 117t-33.5 162q0 101 35 183.5t95 138t142.5 93t174.5 54t194 16.5
q51 0 103.5 -5t115.5 -17.5t114.5 -37t92.5 -59t58 -88.5t3 -121l-43 -211h-391l19 93q7 38 -26.5 51.5t-96.5 13.5q-78 0 -114 -23.5t-36 -62.5q0 -34 33.5 -59.5t87.5 -44.5t119 -40t130.5 -53.5t119.5 -75.5t87.5 -114.5t33.5 -163.5q0 -100 -35.5 -183.5t-97.5 -142
t-146.5 -99t-182 -60t-204.5 -19.5q-58 0 -120 9.5t-127.5 28.5t-121 52t-97.5 76.5t-59.5 106.5t-4.5 137z" />
    <glyph glyph-name="scaron" unicode="&#x161;" horiz-adv-x="1087" 
d="M582 1143l-148 330h311l58 -170h4l125 170h334l-281 -330h-403zM98 283l23 108h354l-4 -24q-7 -40 23 -57t88 -17q108 0 108 45q0 21 -26 38t-67 31t-90.5 30.5t-99.5 41t-91 56.5t-67 83t-26 115q0 88 46.5 157.5t124 111.5t170 63.5t192.5 21.5q81 0 154.5 -14
t137.5 -43.5t96 -84t19 -126.5l-22 -123h-355l5 27q4 28 -13.5 37.5t-52.5 9.5q-90 0 -90 -45q0 -26 35 -45.5t87.5 -32.5t114 -35.5t114 -51t87.5 -83t35 -127.5q0 -108 -74 -194.5t-199 -133.5t-276 -47q-65 0 -129.5 8.5t-131.5 30.5t-114.5 55.5t-72.5 89t-13 124.5z
" />
    <glyph glyph-name="Tcommaaccent" unicode="&#x162;" horiz-adv-x="1460" 
d="M350 0l62 315h155l158 815h-98l-37 -196h-367l105 539h1370l-105 -539h-368l37 196h-95l-157 -815h155l-61 -315h-293l-55 -96q75 -5 125.5 -48.5t50.5 -109.5q0 -65 -34 -114t-89.5 -75.5t-115.5 -39.5t-122 -13q-33 0 -69.5 5t-57.5 11l-20 5l31 174q45 -18 104 -18
q103 0 103 55q0 45 -103 45h-57l121 219h-273z" />
    <glyph glyph-name="tcommaaccent" unicode="&#x163;" horiz-adv-x="880" 
d="M287 -219l145 262q-90 39 -141 112t-51 171q0 40 12 98l67 336h-129l58 303h145l56 285h407l-55 -285h211l-58 -303h-211l-59 -314q-4 -24 -4 -38q0 -80 141 -80l62 4l-66 -336q-60 -6 -115 -6q-59 0 -108 8l-53 -94q79 -6 127.5 -49t48.5 -117q0 -60 -34 -107
t-88.5 -73.5t-114 -40t-118.5 -13.5q-37 0 -75.5 5t-58.5 11l-19 5l31 174q47 -18 102 -18q104 0 104 53q0 47 -102 47h-57z" />
    <glyph glyph-name="Tcaron" unicode="&#x164;" horiz-adv-x="1460" 
d="M834 1565l-148 329h311l58 -170h4l125 170h334l-281 -329h-403zM350 0l62 315h155l158 815h-98l-37 -196h-367l105 539h1370l-105 -539h-368l37 196h-95l-157 -815h155l-61 -315h-754z" />
    <glyph glyph-name="tcaron" unicode="&#x165;" horiz-adv-x="876" 
d="M1061 1561h336q2 -14 2 -39q0 -158 -99.5 -266t-250.5 -142l-119 129q77 47 107 103t30 129q0 39 -6 86zM315 760h-129l58 303h145l55 285h408l-55 -285h211l-58 -303h-211l-55 -291q-8 -40 -8 -66q0 -75 147 -75l56 4l-66 -336q-63 -6 -108 -6q-213 0 -341 89.5
t-128 246.5q0 40 12 98z" />
    <glyph glyph-name="Tbar" unicode="&#x166;" horiz-adv-x="1460" 
d="M350 0l62 315h155l43 224h-315l51 270h318l61 321h-96l-39 -196h-367l105 539h1370l-105 -539h-368l41 196h-99l-61 -321h315l-53 -270h-315l-43 -224h155l-61 -315h-754z" />
    <glyph glyph-name="tbar" unicode="&#x167;" horiz-adv-x="876" 
d="M238 342q0 14 8 80h-125l51 258h127l23 104h-129l53 279h143l55 285h410l-55 -285h211l-54 -279h-211l-18 -104h195l-52 -258h-190q-5 -53 35.5 -73.5t109.5 -20.5l54 4l-66 -336q-63 -6 -106 -6q-210 0 -339.5 89t-129.5 263z" />
    <glyph glyph-name="Utilde" unicode="&#x168;" horiz-adv-x="1703" 
d="M305 457q0 57 12 118l113 582h-156l62 316h749l-61 -316h-152l-116 -608q-4 -28 -4 -43q0 -150 170 -150q201 0 237 193l117 608h-152l60 316h749l-59 -316h-156l-119 -616q-50 -263 -228 -414.5t-451 -151.5q-100 0 -190 17.5t-168 55.5t-135 93.5t-89.5 136.5
t-32.5 179zM731 1563q31 158 115 248t205 90q51 0 89.5 -18t57 -39.5t42 -39.5t48.5 -18q64 0 82 108h270q-28 -156 -112.5 -247t-202.5 -91q-50 0 -89 18.5t-59 40t-44.5 40t-49.5 18.5q-60 0 -84 -110h-268z" />
    <glyph glyph-name="utilde" unicode="&#x169;" horiz-adv-x="1460" 
d="M236 276q0 59 12 121l71 363h-131l62 303h557l-115 -586q-10 -40 -10 -67q0 -31 13.5 -46.5t49.5 -15.5q74 0 137 77t81 173l30 162h-131l62 303h557l-123 -625q-8 -40 -8 -71t17 -48.5t65 -17.5l26 2l-57 -303q-5 -2 -84.5 -5t-128.5 -3q-53 0 -89.5 6.5t-74 26
t-62 61.5t-36.5 107h-4q-144 -218 -365 -218q-138 0 -229.5 77.5t-91.5 223.5zM481 1141q31 158 115 248t205 90q51 0 89.5 -18t57 -39.5t42 -39.5t48.5 -18q64 0 82 109h271q-28 -156 -113 -247t-203 -91q-41 0 -73.5 12t-53.5 29t-38 34t-36 29t-40 12q-60 0 -84 -110
h-269z" />
    <glyph glyph-name="Umacron" unicode="&#x16a;" horiz-adv-x="1703" 
d="M305 457q0 57 12 118l113 582h-156l62 316h749l-61 -316h-152l-116 -608q-4 -28 -4 -43q0 -150 170 -150q201 0 237 193l117 608h-152l60 316h749l-59 -316h-156l-119 -616q-50 -263 -228 -414.5t-451 -151.5q-100 0 -190 17.5t-168 55.5t-135 93.5t-89.5 136.5
t-32.5 179zM872 1599l54 271h583l-55 -271h-582z" />
    <glyph glyph-name="umacron" unicode="&#x16b;" horiz-adv-x="1460" 
d="M236 276q0 59 12 121l71 363h-131l62 303h557l-115 -586q-10 -40 -10 -67q0 -31 13.5 -46.5t49.5 -15.5q74 0 137 77t81 173l30 162h-131l62 303h557l-123 -625q-8 -40 -8 -71t17 -48.5t65 -17.5l26 2l-57 -303q-5 -2 -84.5 -5t-128.5 -3q-53 0 -89.5 6.5t-74 26
t-62 61.5t-36.5 107h-4q-144 -218 -365 -218q-138 0 -229.5 77.5t-91.5 223.5zM623 1178l53 270h584l-56 -270h-581z" />
    <glyph glyph-name="Ubreve" unicode="&#x16c;" horiz-adv-x="1703" 
d="M305 457q0 57 12 118l113 582h-156l62 316h749l-61 -316h-152l-116 -608q-4 -28 -4 -43q0 -150 170 -150q201 0 237 193l117 608h-152l60 316h749l-59 -316h-156l-119 -616q-50 -263 -228 -414.5t-451 -151.5q-100 0 -190 17.5t-168 55.5t-135 93.5t-89.5 136.5
t-32.5 179zM1180 1552q-116 0 -204 40t-131 119t-20 183h281q-13 -71 12.5 -104t75.5 -33q46 0 88 33t53 104h283q-37 -169 -155 -255.5t-283 -86.5z" />
    <glyph glyph-name="ubreve" unicode="&#x16d;" horiz-adv-x="1460" 
d="M236 276q0 59 12 121l71 363h-131l62 303h557l-115 -586q-10 -40 -10 -67q0 -31 13.5 -46.5t49.5 -15.5q74 0 137 77t81 173l30 162h-131l62 303h557l-123 -625q-8 -40 -8 -71t17 -48.5t65 -17.5l26 2l-57 -303q-5 -2 -84.5 -5t-128.5 -3q-53 0 -89.5 6.5t-74 26
t-62 61.5t-36.5 107h-4q-144 -218 -365 -218q-138 0 -229.5 77.5t-91.5 223.5zM930 1130q-116 0 -204 40t-131 119.5t-20 183.5h281q-13 -71 12.5 -104.5t75.5 -33.5q46 0 88 33.5t53 104.5h283q-37 -169 -155 -256t-283 -87z" />
    <glyph glyph-name="Uring" unicode="&#x16e;" horiz-adv-x="1703" 
d="M1161 1538q-92 0 -156.5 39t-64.5 115q0 54 24.5 96t65.5 66t86.5 35.5t93.5 11.5q93 0 158.5 -41t65.5 -121q0 -69 -46 -116.5t-105 -66t-122 -18.5zM1174 1647q34 0 60 25t26 61q0 26 -16 41.5t-44 15.5q-35 0 -59.5 -25t-24.5 -65q0 -25 15 -39t43 -14zM305 457
q0 57 12 118l113 582h-156l62 316h749l-61 -316h-152l-116 -608q-4 -28 -4 -43q0 -150 170 -150q201 0 237 193l117 608h-152l60 316h749l-59 -316h-156l-119 -616q-50 -263 -228 -414.5t-451 -151.5q-100 0 -190 17.5t-168 55.5t-135 93.5t-89.5 136.5t-32.5 179z" />
    <glyph glyph-name="uring" unicode="&#x16f;" horiz-adv-x="1460" 
d="M909 1116q-92 0 -156.5 39t-64.5 115q0 54 24.5 96t65.5 66t86.5 35.5t93.5 11.5q93 0 158.5 -41t65.5 -121q0 -69 -46 -116.5t-105 -66t-122 -18.5zM922 1225q34 0 60 25t26 61q0 26 -16 41.5t-44 15.5q-35 0 -59.5 -25t-24.5 -65q0 -25 15 -39t43 -14zM236 276
q0 59 12 121l71 363h-131l62 303h557l-115 -586q-10 -40 -10 -67q0 -31 13.5 -46.5t49.5 -15.5q74 0 137 77t81 173l30 162h-131l62 303h557l-123 -625q-8 -40 -8 -71t17 -48.5t65 -17.5l26 2l-57 -303q-5 -2 -84.5 -5t-128.5 -3q-53 0 -89.5 6.5t-74 26t-62 61.5t-36.5 107
h-4q-144 -218 -365 -218q-138 0 -229.5 77.5t-91.5 223.5z" />
    <glyph glyph-name="Uhungarumlaut" unicode="&#x170;" horiz-adv-x="1703" 
d="M305 457q0 57 12 118l113 582h-156l62 316h749l-61 -316h-152l-116 -608q-4 -28 -4 -43q0 -150 170 -150q201 0 237 193l117 608h-152l60 316h749l-59 -316h-156l-119 -616q-50 -263 -228 -414.5t-451 -151.5q-100 0 -190 17.5t-168 55.5t-135 93.5t-89.5 136.5
t-32.5 179zM1206 1565l240 329h403l-327 -329h-316zM731 1565l230 329h344l-236 -329h-338z" />
    <glyph glyph-name="uhungarumlaut" unicode="&#x171;" horiz-adv-x="1460" 
d="M236 276q0 59 12 121l71 363h-131l62 303h557l-115 -586q-10 -40 -10 -67q0 -31 13.5 -46.5t49.5 -15.5q74 0 137 77t81 173l30 162h-131l62 303h557l-123 -625q-8 -40 -8 -71t17 -48.5t65 -17.5l26 2l-57 -303q-5 -2 -84.5 -5t-128.5 -3q-53 0 -89.5 6.5t-74 26
t-62 61.5t-36.5 107h-4q-144 -218 -365 -218q-138 0 -229.5 77.5t-91.5 223.5zM956 1143l240 330h403l-327 -330h-316zM481 1143l230 330h344l-236 -330h-338z" />
    <glyph glyph-name="Uogonek" unicode="&#x172;" horiz-adv-x="1703" 
d="M305 457q0 57 12 118l113 582h-156l62 316h754l-62 -316h-156l-116 -608q-4 -28 -4 -43q0 -150 170 -150q201 0 237 193l117 608h-156l60 316h753l-59 -316h-156l-123 -641q-71 -370 -454 -516q-71 -26 -116.5 -83.5t-45.5 -102.5q0 -62 100 -66l-118 -264
q-153 16 -223 70.5t-70 134.5q0 154 166 288q-240 20 -384.5 143t-144.5 337z" />
    <glyph glyph-name="uogonek" unicode="&#x173;" horiz-adv-x="1462" 
d="M236 279q0 46 10 108l73 373h-131l62 303h557l-115 -586q-10 -40 -10 -67q0 -31 13.5 -46.5t49.5 -15.5q74 0 137 77t81 173l30 162h-131l62 303h557l-123 -625q-8 -36 -8 -69q0 -68 73 -68l35 2l-57 -303h-10q-58 0 -125.5 -64t-67.5 -124q0 -59 100 -64l-118 -264
q-153 16 -223 70.5t-70 134.5q0 92 57 174.5t146 140.5q-27 6 -49 16.5t-46 30.5t-41.5 56t-27.5 86h-4q-143 -218 -363 -218q-140 0 -231.5 78t-91.5 226z" />
    <glyph glyph-name="Wcircumflex" unicode="&#x174;" horiz-adv-x="2162" 
d="M942 1565l279 329h405l148 -329h-312l-59 170h-4l-123 -170h-334zM426 0l-51 1157h-115l59 316h701l-59 -316h-170l-7 -510q0 -36 -3 -79.5t-6 -69.5l-3 -25h8q21 92 58 174l350 826h334l28 -826q2 -43 1 -81.5t-4 -65.5l-3 -27h10q19 92 52 174l192 510h-168l60 316h725
l-62 -316h-115l-501 -1157h-482l-22 621q-2 36 0.5 82t6.5 74l3 28h-8q-29 -104 -66 -184l-260 -621h-483z" />
    <glyph glyph-name="wcircumflex" unicode="&#x175;" horiz-adv-x="1820" 
d="M700 1143l279 330h405l148 -330h-311l-60 170h-4l-123 -170h-334zM317 0l-22 760h-117l62 303h594l-60 -303h-94l-14 -256l-13 -160h9q24 88 53 160l225 559h336v-559l-6 -160h8q24 88 47 160l88 256h-94l61 303h619l-62 -303h-116l-318 -760h-497l8 412q1 34 4 73t6 61
l2 23h-10q-20 -79 -49 -157l-152 -412h-498z" />
    <glyph glyph-name="Ycircumflex" unicode="&#x176;" horiz-adv-x="1396" 
d="M322 0l59 315h156l55 279l-227 563h-119l61 316h611l-60 -316h-82l58 -184l20 -78h4q16 31 49 78l129 184h-80l60 316h645l-62 -316h-118l-447 -563l-55 -279h156l-60 -315h-753zM586 1565l278 329h406l147 -329h-311l-59 170h-5l-122 -170h-334z" />
    <glyph glyph-name="ycircumflex" unicode="&#x177;" horiz-adv-x="1329" 
d="M121 -45q6 -5 18 -12.5t58 -20t102 -12.5q114 0 162 53l-185 797h-112l57 303h602l-59 -303h-70l27 -287q3 -38 2 -73t-3 -60l-3 -25h10q31 84 66 158l131 287h-62l58 303h583l-57 -303h-100l-465 -819q-62 -109 -133 -184t-147.5 -114.5t-149.5 -56t-158 -16.5
q-62 0 -121.5 9.5t-99.5 23.5t-71 28t-45 23l-15 10zM446 1143l279 330h405l148 -330h-311l-60 170h-4l-123 -170h-334z" />
    <glyph glyph-name="Ydieresis" unicode="&#x178;" horiz-adv-x="1396" 
d="M322 0l59 315h156l55 279l-227 563h-119l61 316h611l-60 -316h-82l58 -184l20 -78h4q16 31 49 78l129 184h-80l60 316h645l-62 -316h-118l-447 -563l-55 -279h156l-60 -315h-753zM1126 1569l64 325h301l-64 -325h-301zM600 1569l66 325h299l-64 -325h-301z" />
    <glyph glyph-name="Zacute" unicode="&#x179;" horiz-adv-x="1382" 
d="M782 1565l295 329h428l-385 -329h-338zM98 0l52 268l714 795q16 18 36.5 35.5t33.5 25.5l12 9v4q-49 -7 -90 -7h-166l-39 -196h-366l104 539h1163l-51 -263l-719 -800q-16 -18 -37 -35.5t-34 -26.5l-13 -8v-4q52 6 93 6h200l41 207h367l-107 -549h-1194z" />
    <glyph glyph-name="zacute" unicode="&#x17a;" horiz-adv-x="1155" 
d="M578 1143l294 330h428l-385 -330h-337zM82 0l49 258l535 451q17 15 35 27.5t27 17.5l9 6v4q-59 -4 -92 -4h-74l-20 -109h-354l82 412h987l-52 -260l-526 -449q-16 -15 -33.5 -27.5t-26.5 -18.5l-10 -5v-4q60 4 93 4h86l20 109h354l-81 -412h-1008z" />
    <glyph glyph-name="Zdotaccent" unicode="&#x17b;" horiz-adv-x="1382" 
d="M98 0l52 268l714 795q16 18 36.5 35.5t33.5 25.5l12 9v4q-49 -7 -90 -7h-166l-39 -196h-366l104 539h1163l-51 -263l-719 -800q-16 -18 -37 -35.5t-34 -26.5l-13 -8v-4q52 6 93 6h200l41 207h367l-107 -549h-1194zM815 1591l59 303h347l-62 -303h-344z" />
    <glyph glyph-name="zdotaccent" unicode="&#x17c;" horiz-adv-x="1155" 
d="M82 0l49 258l535 451q17 15 35 27.5t27 17.5l9 6v4q-59 -4 -92 -4h-74l-20 -109h-354l82 412h987l-52 -260l-526 -449q-16 -15 -33.5 -27.5t-26.5 -18.5l-10 -5v-4q60 4 93 4h86l20 109h354l-81 -412h-1008zM610 1169l60 304h346l-62 -304h-344z" />
    <glyph glyph-name="Zcaron" unicode="&#x17d;" horiz-adv-x="1382" 
d="M788 1565l-147 329h311l58 -170h4l125 170h334l-281 -329h-404zM98 0l52 268l714 795q16 18 36.5 35.5t33.5 25.5l12 9v4q-49 -7 -90 -7h-166l-39 -196h-366l104 539h1163l-51 -263l-719 -800q-16 -18 -37 -35.5t-34 -26.5l-13 -8v-4q52 6 93 6h200l41 207h367l-107 -549
h-1194z" />
    <glyph glyph-name="zcaron" unicode="&#x17e;" horiz-adv-x="1155" 
d="M586 1143l-148 330h312l57 -170h4l125 170h334l-281 -330h-403zM82 0l49 258l535 451q17 15 35 27.5t27 17.5l9 6v4q-59 -4 -92 -4h-74l-20 -109h-354l82 412h987l-52 -260l-526 -449q-16 -15 -33.5 -27.5t-26.5 -18.5l-10 -5v-4q60 4 93 4h86l20 109h354l-81 -412h-1008
z" />
    <glyph glyph-name="longs" unicode="&#x17f;" horiz-adv-x="745" 
d="M825 1096l-213 -1096h-426l148 760h-129l59 303h129l8 43q16 84 53.5 150t88.5 108t106.5 71t119 43t114 19.5t102.5 5.5q36 0 71 -2.5t52 -4.5l16 -3l-67 -330q-46 8 -99 8q-63 0 -94 -17.5t-39 -57.5z" />
    <glyph glyph-name="florin" unicode="&#x192;" horiz-adv-x="1146" 
d="M12 102q68 -12 144 -12q35 0 62 4.5t54.5 16.5t46.5 36t29 60l107 391h-109l66 330h137l57 194q27 94 82 165t116 110t136 62.5t131 30.5t113 7q44 0 102.5 -4.5t94.5 -8.5l36 -5l-71 -355q-85 13 -146 13q-160 0 -182 -86l-33 -123h174l-67 -330h-203l-133 -494
q-26 -95 -81.5 -166.5t-118.5 -110t-140 -62.5t-133.5 -30.5t-112.5 -6.5q-49 0 -106 5.5t-89 10.5l-32 6z" />
    <glyph glyph-name="Scommaaccent" unicode="&#x218;" horiz-adv-x="1325" 
d="M477 -84h336q2 -14 2 -39q0 -158 -99.5 -265.5t-250.5 -141.5l-119 129q77 47 107 102.5t30 128.5q0 40 -6 86zM182 557h393l-18 -94q-21 -107 182 -107q84 0 125 33.5t41 79.5q0 26 -33.5 48t-87 40.5t-118.5 40.5t-130 56t-118.5 79t-87 117t-33.5 162q0 101 35 183.5
t95 138t142.5 93t174.5 54t194 16.5q51 0 103.5 -5t115.5 -17.5t114.5 -37t92.5 -59t58 -88.5t3 -121l-43 -211h-391l19 93q7 38 -26.5 51.5t-96.5 13.5q-78 0 -114 -23.5t-36 -62.5q0 -34 33.5 -59.5t87.5 -44.5t119 -40t130.5 -53.5t119.5 -75.5t87.5 -114.5t33.5 -163.5
q0 -100 -35.5 -183.5t-97.5 -142t-146.5 -99t-182 -60t-204.5 -19.5q-58 0 -120 9.5t-127.5 28.5t-121 52t-97.5 76.5t-59.5 106.5t-4.5 137z" />
    <glyph glyph-name="scommaaccent" unicode="&#x219;" horiz-adv-x="1087" 
d="M381 -84h336q2 -14 2 -39q0 -158 -99.5 -265.5t-250.5 -141.5l-119 129q77 47 107 102.5t30 128.5q0 40 -6 86zM98 283l23 108h354l-4 -24q-7 -40 23 -57t88 -17q108 0 108 45q0 21 -26 38t-67 31t-90.5 30.5t-99.5 41t-91 56.5t-67 83t-26 115q0 88 46.5 157.5
t124 111.5t170 63.5t192.5 21.5q81 0 154.5 -14t137.5 -43.5t96 -84t19 -126.5l-22 -123h-355l5 27q4 28 -13.5 37.5t-52.5 9.5q-90 0 -90 -45q0 -26 35 -45.5t87.5 -32.5t114 -35.5t114 -51t87.5 -83t35 -127.5q0 -108 -74 -194.5t-199 -133.5t-276 -47q-65 0 -129.5 8.5
t-131.5 30.5t-114.5 55.5t-72.5 89t-13 124.5z" />
    <glyph glyph-name="uni021A" unicode="&#x21a;" horiz-adv-x="1460" 
d="M539 -84h335q3 -21 3 -39q0 -158 -100 -265.5t-251 -141.5l-118 129q77 47 107 102.5t30 128.5q0 40 -6 86zM350 0l62 315h155l158 815h-98l-37 -196h-367l105 539h1370l-105 -539h-368l37 196h-95l-157 -815h155l-61 -315h-754z" />
    <glyph glyph-name="uni021B" unicode="&#x21b;" horiz-adv-x="876" 
d="M317 -84h336q2 -14 2 -39q0 -158 -99.5 -265.5t-250.5 -141.5l-119 129q77 47 107.5 102.5t30.5 128.5q0 32 -7 86zM315 760h-129l58 303h145l55 285h408l-55 -285h211l-58 -303h-211l-55 -291q-8 -40 -8 -66q0 -75 147 -75l56 4l-66 -336q-63 -6 -108 -6
q-213 0 -341 89.5t-128 246.5q0 40 12 98z" />
    <glyph glyph-name="circumflex" unicode="&#x2c6;" horiz-adv-x="983" 
d="M-78 1565l279 329h405l148 -329h-312l-59 170h-4l-123 -170h-334z" />
    <glyph glyph-name="caron" unicode="&#x2c7;" horiz-adv-x="983" 
d="M158 1565l-148 329h312l57 -170h4l125 170h334l-281 -329h-403z" />
    <glyph glyph-name="breve" unicode="&#x2d8;" horiz-adv-x="976" 
d="M358 1552q-116 0 -204 40t-130.5 119t-19.5 183h281q-13 -71 12.5 -104t75.5 -33q46 0 88 33t53 104h283q-37 -169 -155.5 -255.5t-283.5 -86.5z" />
    <glyph glyph-name="dotaccent" unicode="&#x2d9;" horiz-adv-x="978" 
d="M180 1591l60 303h346l-62 -303h-344z" />
    <glyph glyph-name="ring" unicode="&#x2da;" horiz-adv-x="978" 
d="M350 1538q-92 0 -156.5 39t-64.5 115q0 54 24.5 96t65.5 66t86.5 35.5t93.5 11.5q93 0 158.5 -41t65.5 -121q0 -69 -46 -116.5t-105 -66t-122 -18.5zM362 1647q35 0 61 25t26 61q0 26 -16 41.5t-44 15.5q-35 0 -59.5 -25t-24.5 -65q0 -53 57 -53z" />
    <glyph glyph-name="ogonek" unicode="&#x2db;" horiz-adv-x="983" 
d="M123 -311q0 111 84 207.5t203 154.5h227l-10 -51q-56 0 -122.5 -72t-66.5 -131q0 -9 1.5 -13.5t9 -13.5t29.5 -14.5t57 -7.5l-117 -264q-154 16 -224.5 70.5t-70.5 134.5z" />
    <glyph glyph-name="tilde" unicode="&#x2dc;" horiz-adv-x="978" 
d="M-86 1563q31 158 115 248t204 90q42 0 75 -12t52.5 -28.5t36 -33.5t35 -29t39.5 -12q64 0 82 108h270q-28 -156 -112.5 -247t-202.5 -91q-50 0 -89 18.5t-59 40t-44.5 40t-49.5 18.5q-60 0 -84 -110h-268z" />
    <glyph glyph-name="hungarumlaut" unicode="&#x2dd;" horiz-adv-x="978" 
d="M297 1565l240 329h403l-328 -329h-315zM-178 1565l229 329h344l-235 -329h-338z" />
    <glyph glyph-name="uni1E9E" unicode="&#x1e9e;" horiz-adv-x="1607" 
d="M59 0l60 315h155l115 590q51 259 241 413.5t453 154.5h648l-58 -295l-225 -263q-13 -16 -29.5 -32t-26.5 -25l-10 -8v-4q87 -32 147 -94.5t84.5 -129t24.5 -135.5q0 -63 -23 -131t-73.5 -136t-122 -122t-179.5 -87.5t-234 -33.5q-107 0 -224 21l68 360q45 -12 123 -12
q69 0 115.5 11t67 30t27.5 36.5t7 39.5q0 59 -76 88t-207 31l54 243l176 205q17 21 37.5 40t32.5 28l12 8l-2 4q-42 -6 -89 -6h-118q-61 0 -110 -52.5t-66 -136.5l-177 -915h-598z" />
    <glyph glyph-name="thinspace" unicode="&#x2009;" horiz-adv-x="458" 
 />
    <glyph glyph-name="endash" unicode="&#x2013;" horiz-adv-x="1542" 
d="M211 432l61 316h1287l-62 -316h-1286z" />
    <glyph glyph-name="emdash" unicode="&#x2014;" horiz-adv-x="1951" 
d="M211 432l61 316h1696l-61 -316h-1696z" />
    <glyph glyph-name="quoteleft" unicode="&#x2018;" horiz-adv-x="593" 
d="M233 928l318 579h297l-232 -579h-383z" />
    <glyph glyph-name="quoteright" unicode="&#x2019;" horiz-adv-x="573" 
d="M244 928l233 579h381l-317 -579h-297z" />
    <glyph glyph-name="quotesinglbase" unicode="&#x201a;" horiz-adv-x="620" 
d="M238 399h380l-317 -581h-297z" />
    <glyph glyph-name="quotedblleft" unicode="&#x201c;" horiz-adv-x="1054" 
d="M694 928l318 579h297l-234 -579h-381zM233 928l318 579h297l-232 -579h-383z" />
    <glyph glyph-name="quotedblright" unicode="&#x201d;" horiz-adv-x="1034" 
d="M705 928l231 579h383l-318 -579h-296zM244 928l233 579h381l-317 -579h-297z" />
    <glyph glyph-name="quotedblbase" unicode="&#x201e;" horiz-adv-x="1081" 
d="M696 399h383l-317 -581h-297zM238 399h380l-317 -581h-297z" />
    <glyph glyph-name="dagger" unicode="&#x2020;" horiz-adv-x="1093" 
d="M322 -102l167 850h-276l61 315h275l82 410h405l-80 -410h275l-62 -315h-274l-166 -850h-407z" />
    <glyph glyph-name="daggerdbl" unicode="&#x2021;" horiz-adv-x="1105" 
d="M330 -102l76 389h-273l57 317h277l29 144h-275l60 315h276l80 410h405l-79 -410h274l-59 -315h-277l-29 -144h275l-60 -317h-274l-78 -389h-405z" />
    <glyph glyph-name="bullet" unicode="&#x2022;" horiz-adv-x="980" 
d="M606 184q-170 0 -289.5 120.5t-119.5 291.5t119.5 291.5t289.5 120.5q171 0 291.5 -120.5t120.5 -291.5t-120.5 -291.5t-291.5 -120.5z" />
    <glyph glyph-name="ellipsis" unicode="&#x2026;" horiz-adv-x="2050" 
d="M1565 0l73 391h377l-73 -391h-377zM840 0l73 391h377l-73 -391h-377zM115 0l73 391h377l-73 -391h-377z" />
    <glyph glyph-name="perthousand" unicode="&#x2030;" horiz-adv-x="2805" 
d="M666 743q-162 0 -265.5 96t-103.5 242q0 80 34.5 156t93 133.5t140.5 92t172 34.5q161 0 266 -100t105 -248q0 -105 -64.5 -200t-167 -150.5t-210.5 -55.5zM229 0l1387 1473h383l-1387 -1473h-383zM696 1034q38 0 70.5 29.5t32.5 69.5q0 33 -24.5 53t-65.5 20
q-40 0 -71.5 -28t-31.5 -72q0 -32 24.5 -52t65.5 -20zM2003 313q0 80 34.5 156t92.5 133.5t140 92t173 34.5q161 0 266 -100t105 -248q0 -106 -64.5 -201t-167 -150t-210.5 -55q-162 0 -265.5 95.5t-103.5 242.5zM1130 313q0 80 34.5 156t93 133.5t141 92t172.5 34.5
q160 0 264 -100t104 -248q0 -106 -64.5 -201t-167 -150t-210.5 -55q-161 0 -264 95.5t-103 242.5zM2312 338q0 -32 24.5 -52t65.5 -20q38 0 70.5 29.5t32.5 69.5q0 32 -24 52.5t-66 20.5q-40 0 -71.5 -28t-31.5 -72zM1440 338q0 -33 24 -52.5t66 -19.5q38 0 69 29.5t31 69.5
q0 32 -24 52.5t-66 20.5q-39 0 -69.5 -28t-30.5 -72z" />
    <glyph glyph-name="guilsinglleft" unicode="&#x2039;" horiz-adv-x="829" 
d="M428 158l-268 417l391 424h395l-416 -438l269 -403h-371z" />
    <glyph glyph-name="guilsinglright" unicode="&#x203a;" horiz-adv-x="829" 
d="M113 158l415 438l-268 403h373l266 -417l-389 -424h-397z" />
    <glyph glyph-name="fraction" unicode="&#x2044;" horiz-adv-x="399" 
d="M10 0h-303l973 1473h303z" />
    <glyph glyph-name="zerosuperior" unicode="&#x2070;" horiz-adv-x="856" 
d="M608 846q-301 0 -301 356q0 78 13.5 156t46.5 158t83 140.5t129.5 99t178.5 38.5q155 0 230 -92.5t75 -263.5q0 -78 -14 -156.5t-48.5 -158t-85 -140.5t-130 -99t-177.5 -38zM647 1124q43 0 82 90t39 197q0 100 -45 100q-48 0 -86.5 -87.5t-38.5 -188.5q0 -111 49 -111z
" />
    <glyph glyph-name="foursuperior" unicode="&#x2074;" horiz-adv-x="884" 
d="M596 866l35 172h-391l32 193l420 543h381l-100 -517h100l-41 -219h-100l-33 -172h-303zM532 1257h140l39 197q4 21 12 48t14 44l6 17h-8q-30 -62 -59 -103l-144 -198v-5z" />
    <glyph glyph-name="fivesuperior" unicode="&#x2075;" horiz-adv-x="829" 
d="M567 846q-88 0 -172.5 31t-124.5 61l-41 31l158 190q11 -8 29 -19t66 -29.5t85 -18.5q119 0 119 77q0 62 -100 62q-30 0 -58 -4.5t-40 -9.5l-13 -5l-143 68l131 494h608l-59 -316h-211l16 90h-168l-26 -102l-15 -39l2 -2q52 18 113 18q131 0 204.5 -65.5t73.5 -163.5
q0 -61 -30 -122t-84 -112t-138 -82.5t-182 -31.5z" />
    <glyph glyph-name="sixsuperior" unicode="&#x2076;" horiz-adv-x="831" 
d="M641 846q-66 0 -126.5 20t-111 60.5t-80.5 109.5t-30 158q0 104 40 210t109.5 193t174.5 142t225 55q60 0 117.5 -13t85.5 -27l28 -13l-104 -240q-76 31 -158 31q-93 0 -133 -84q54 8 78 8q110 0 182 -71.5t72 -180.5q0 -60 -24 -122t-68.5 -115.5t-117 -87t-159.5 -33.5
zM655 1081q36 0 60 32t24 69t-20 62.5t-64 25.5q-80 0 -80 -88q0 -49 23 -75t57 -26z" />
    <glyph glyph-name="sevensuperior" unicode="&#x2077;" horiz-adv-x="813" 
d="M236 866l462 631q10 14 22.5 26.5t19.5 18.5l8 6l2 11q-41 -11 -72 -11h-84l-16 -90h-234l62 316h720l-39 -207l-516 -701h-335z" />
    <glyph glyph-name="eightsuperior" unicode="&#x2078;" horiz-adv-x="849" 
d="M602 846q-139 0 -237.5 65t-98.5 176q0 145 180 269q-31 37 -45 70t-14 81q0 70 35 127t91 91t120 51.5t127 17.5q126 0 218.5 -62.5t92.5 -166.5q0 -121 -149 -252q90 -73 90 -172q0 -74 -39 -133t-101.5 -93t-131.5 -51.5t-138 -17.5zM737 1409q6 6 15.5 16t25 37.5
t15.5 50.5q0 56 -72 56q-28 0 -46 -17t-18 -51q0 -31 18 -52t62 -40zM627 1073q36 0 63 19t27 53q0 32 -24.5 52.5t-84.5 47.5q-57 -50 -57 -102q0 -33 21 -51.5t55 -18.5z" />
    <glyph glyph-name="ninesuperior" unicode="&#x2079;" horiz-adv-x="831" 
d="M705 1794q66 0 126.5 -20t111 -60.5t80.5 -109.5t30 -158q0 -104 -40 -210t-109.5 -193t-174.5 -142t-225 -55q-60 0 -118 13t-86 27l-28 13l105 240q76 -31 158 -31q93 0 133 84q-54 -8 -78 -8q-110 0 -182 71.5t-72 180.5q0 60 24 122t68.5 115.5t117 87t159.5 33.5z
M690 1559q-36 0 -60 -32t-24 -69t20 -62.5t64 -25.5q80 0 80 88q0 49 -23 75t-57 26z" />
    <glyph glyph-name="zeroinferior" unicode="&#x2080;" horiz-adv-x="858" 
d="M379 -342q-301 0 -301 356q0 79 13.5 156.5t46.5 157.5t82.5 140.5t129 99t178.5 38.5q156 0 231 -92.5t75 -263.5q0 -78 -14 -156.5t-48.5 -158t-85 -140.5t-130 -99t-177.5 -38zM418 -63q43 0 82 89.5t39 196.5q0 101 -45 101q-48 0 -86.5 -88t-38.5 -189
q0 -110 49 -110z" />
    <glyph glyph-name="oneinferior" unicode="&#x2081;" horiz-adv-x="817" 
d="M20 -322l46 236h198l43 225q3 14 9 31t11 27l5 10h-4q-27 -29 -45 -43l-54 -33l-137 188l348 267h260l-129 -672h203l-45 -236h-709z" />
    <glyph glyph-name="twoinferior" unicode="&#x2082;" horiz-adv-x="872" 
d="M14 -322q0 98 27.5 179t72 133t98 93t107 68t98 49t72 44t27.5 45q0 37 -53 37q-35 0 -75.5 -20.5t-63.5 -41.5l-23 -20l-178 180q7 7 19 19.5t52.5 44t83.5 55.5t107 43.5t127 19.5q56 0 111 -15.5t104 -46t79 -83.5t30 -121q0 -57 -24.5 -106.5t-64 -85t-87.5 -66
t-95.5 -53t-87.5 -42t-65 -38t-25 -35.5h199l14 80h211l-59 -316h-738z" />
    <glyph glyph-name="threeinferior" unicode="&#x2083;" horiz-adv-x="831" 
d="M365 -342q-71 0 -132.5 14.5t-98.5 35t-64.5 41.5t-38.5 35l-11 15l179 205q2 -3 6.5 -7.5t19.5 -16t32.5 -20.5t45.5 -16t59 -7q44 0 69.5 16.5t25.5 42.5q0 35 -92 35h-60l-12 123l162 157q9 11 23 23.5t24 19.5l10 6v9q-41 -9 -74 -9h-90l-18 -90h-211l61 316h668
l-35 -193l-207 -188q75 -30 120.5 -85.5t45.5 -121.5q0 -60 -29 -120t-79.5 -109t-129 -80t-169.5 -31z" />
    <glyph glyph-name="fourinferior" unicode="&#x2084;" horiz-adv-x="882" 
d="M365 -322l34 172h-391l33 193l420 543h381l-101 -516h101l-41 -220h-101l-32 -172h-303zM301 70h139l39 196q4 21 12.5 48t14.5 44l6 17h-8q-31 -62 -60 -103l-143 -198v-4z" />
    <glyph glyph-name="fiveinferior" unicode="&#x2085;" horiz-adv-x="829" 
d="M336 -342q-88 0 -172.5 31t-125.5 61l-40 31l158 190q11 -8 29 -19t66 -29.5t85 -18.5q119 0 119 78q0 61 -101 61q-30 0 -57.5 -4.5t-40.5 -8.5l-12 -5l-144 67l131 494h609l-60 -316h-211l17 90h-168l-27 -102l-14 -39l2 -2q52 19 113 19q131 0 204.5 -65.5
t73.5 -164.5q0 -61 -30 -122t-84 -112t-138 -82.5t-182 -31.5z" />
    <glyph glyph-name="sixinferior" unicode="&#x2086;" horiz-adv-x="831" 
d="M410 -342q-66 0 -126.5 20t-111.5 60.5t-81 109.5t-30 158q0 104 40 210t109.5 193t174.5 142t225 55q60 0 118 -13t86 -27l28 -13l-105 -240q-75 31 -157 31q-94 0 -134 -84q54 8 78 8q110 0 182 -71.5t72 -180.5q0 -60 -24 -122t-68 -115.5t-116.5 -87t-159.5 -33.5z
M424 -106q36 0 60 31.5t24 68.5t-20 62.5t-64 25.5q-80 0 -80 -88q0 -49 23 -74.5t57 -25.5z" />
    <glyph glyph-name="seveninferior" unicode="&#x2087;" horiz-adv-x="811" 
d="M4 -322l463 631q10 14 22.5 26.5t19.5 18.5l7 6l2 11q-41 -11 -72 -11h-84l-16 -90h-233l61 316h721l-39 -207l-516 -701h-336z" />
    <glyph glyph-name="eightinferior" unicode="&#x2088;" horiz-adv-x="851" 
d="M373 -342q-139 0 -237.5 65.5t-98.5 176.5q0 144 180 268q-31 37 -45 70t-14 81q0 70 35 127t90.5 91t119.5 51.5t127 17.5q126 0 219 -62.5t93 -166.5q0 -120 -150 -252q90 -73 90 -172q0 -74 -39 -133t-101 -93t-131 -51.5t-138 -17.5zM508 221q6 6 15 16.5t24.5 38
t15.5 50.5q0 55 -71 55q-28 0 -46 -17t-18 -51q0 -31 18 -52t62 -40zM397 -115q36 0 63 19t27 53q0 32 -24 52.5t-84 47.5q-57 -50 -57 -102q0 -33 20.5 -51.5t54.5 -18.5z" />
    <glyph glyph-name="nineinferior" unicode="&#x2089;" horiz-adv-x="831" 
d="M473 606q66 0 126.5 -20t111 -60.5t80.5 -109.5t30 -158q0 -104 -40 -210t-109.5 -193t-174.5 -142t-225 -55q-60 0 -118 13t-86 27l-27 13l104 240q76 -31 158 -31q93 0 133 84q-54 -8 -78 -8q-110 0 -182 71.5t-72 180.5q0 60 24 122t68.5 115.5t117 87t159.5 33.5z
M459 371q-36 0 -60 -32t-24 -69t20 -62.5t64 -25.5q80 0 80 88q0 49 -23 75t-57 26z" />
    <glyph glyph-name="Euro" unicode="&#x20ac;" horiz-adv-x="1298" 
d="M164 459l47 213h113q5 79 16 116h-107l48 216h129q109 225 308.5 359t450.5 134q76 0 154.5 -12.5t118.5 -25.5l41 -13l-164 -342q-88 26 -164 26q-194 0 -266 -126h389l-94 -216h-393q-6 -16 -13 -57.5t-6 -58.5h369l-90 -213h-242q32 -64 90 -86.5t139 -22.5
q43 0 93.5 9t80.5 19l29 9l-4 -375q-97 -37 -242 -37q-239 0 -418 130.5t-235 353.5h-178z" />
    <glyph glyph-name="trademark" unicode="&#x2122;" horiz-adv-x="2166" 
d="M1188 549l72 915h241l150 -358l26 -90h4q15 59 27 90l150 358h241l68 -915h-260l-21 356l2 66h-4l-104 -256h-201l-104 256h-5q1 -4 1.5 -10.5t1.5 -25t0 -30.5l-25 -356h-260zM604 549v692h-291v223h836v-223h-287v-692h-258z" />
    <glyph glyph-name="minus" unicode="&#x2212;" 
d="M193 432v316h1144v-316h-1144z" />
    <glyph glyph-name="infinity" unicode="&#x221e;" horiz-adv-x="1060" 
d="M672 270q-183 0 -315 131t-132 314q0 121 60.5 223t163.5 160.5t223 58.5q184 0 313 -128.5t129 -313.5q0 -120 -58.5 -222.5t-160.5 -162.5t-223 -60z" />
    <glyph glyph-name="approxequal" unicode="&#x2248;" 
d="M365 659l-150 242q174 174 350 174q65 0 124.5 -22.5t97 -49t87 -49t97.5 -22.5q55 0 108.5 31t94.5 79l149 -241q-174 -174 -352 -174q-65 0 -124.5 22.5t-97 49t-87 49t-97.5 22.5q-97 0 -200 -111zM365 154l-150 239q174 174 350 174q65 0 124.5 -22.5t97 -49t87 -49
t97.5 -22.5q54 0 107.5 31.5t95.5 79.5l149 -242q-178 -174 -352 -174q-65 0 -124.5 22.5t-97 49t-87 49t-97.5 22.5q-100 0 -200 -108z" />
    <glyph glyph-name="notequal" unicode="&#x2260;" 
d="M334 72l61 104h-157v318h358l115 192h-473v318h675l129 215l181 -115l-60 -100h137v-318h-335l-117 -192h452v-318h-653l-127 -213z" />
    <glyph glyph-name="lessequal" unicode="&#x2264;" 
d="M188 463v258l1067 471v-350l-649 -250v-4l649 -246v-352zM195 -119h1060v-311h-1060v311z" />
    <glyph glyph-name="greaterequal" unicode="&#x2265;" 
d="M279 -10v352l651 246v4l-651 250v350l1069 -471v-258zM283 -119h1060v-311h-1060v311z" />
    <glyph glyph-name="commaaccent" horiz-adv-x="686" 
d="M102 -84h336q2 -14 2 -39q0 -158 -99.5 -265.5t-250.5 -141.5l-119 129q77 47 107.5 102.5t30.5 128.5q0 32 -7 86z" />
    <glyph glyph-name="apple" horiz-adv-x="2314" 
d="M225 -10v311l-258 148v569l258 145v310l543 290l274 -145l271 145l542 -290v-310l254 -145v-569l-254 -148v-311l-542 -289l-271 145l-274 -145zM307 61l488 -258l247 136l242 -136l488 258v285l233 131v510l-233 135v279l-488 258l-242 -131l-247 131l-488 -258v-279
l-233 -135v-510l233 -131v-285zM377 131v248l-203 123v461l203 118v252l440 234l225 -121l220 121l438 -234v-252l205 -118v-461l-205 -123v-248l-438 -233l-220 118l-225 -118zM741 186h314v318h331v260h-331v227h100q19 0 27 -8t8 -27v-36h276v237q0 49 -19 70.5t-71 21.5
h-723v-258h88v-805z" />
    <glyph glyph-name="zero.tnum" horiz-adv-x="1255" 
d="M178 504q0 84 10.5 173t34.5 187t60 187.5t91.5 171.5t123.5 142.5t161.5 96t200.5 35.5q512 0 512 -522q0 -83 -10.5 -172.5t-35.5 -188t-61.5 -189t-92 -173.5t-124 -144t-161 -97t-199.5 -36q-510 0 -510 529zM625 526q0 -170 73 -170q48 0 92 64.5t72 158t45 193.5
t17 176q0 168 -76 168q-52 0 -96.5 -66.5t-71 -162.5t-41 -192.5t-14.5 -168.5z" />
    <glyph glyph-name="one.tnum" horiz-adv-x="1255" 
d="M154 0l63 342h309l95 483l26 121h-4q-27 -43 -74 -80l-82 -61l-200 276l508 392h368l-217 -1131h311l-69 -342h-1034z" />
    <glyph glyph-name="two.tnum" horiz-adv-x="1255" 
d="M109 0q-1 118 25 220.5t70.5 177.5t102.5 139t121.5 110.5t128 87t122.5 75t102.5 67.5t71 70.5t26.5 78.5q0 48 -30 69t-69 21q-34 0 -69 -16.5t-61 -39.5t-47.5 -46t-32.5 -40l-11 -16l-285 226q4 7 12.5 18t37 43.5t60 62t82.5 65.5t105 62t126.5 44t146.5 18
q69 0 139 -16t135.5 -50.5t116 -82.5t81 -116.5t30.5 -148.5q0 -86 -38 -166t-99 -141t-135 -116t-149 -99t-138 -82t-105 -73t-47 -64h248l32 166h349l-99 -508h-1056z" />
    <glyph glyph-name="three.tnum" horiz-adv-x="1255" 
d="M117 158l221 303q5 -4 14.5 -11t40 -25.5t61.5 -32t76 -25t88 -11.5q87 0 139 39.5t52 89.5q0 43 -43.5 74t-120.5 31l-70 -4l-49 190l269 293q19 21 39 37t30 22l10 5v4q-57 -7 -104 -7h-104l-21 -118h-348l88 461h1006l-58 -306l-313 -333q10 -3 26.5 -10t59 -34
t75 -60.5t59 -93.5t26.5 -130q0 -68 -26.5 -141t-81.5 -142.5t-130.5 -124.5t-182.5 -89t-229 -34q-92 0 -177 19t-141 45.5t-99 53.5t-63 46z" />
    <glyph glyph-name="four.tnum" horiz-adv-x="1255" 
d="M74 340l45 258l676 875h546l-155 -803h164l-64 -330h-164l-65 -340h-428l67 340h-622zM545 670h215l57 293q5 30 17.5 72.5t21.5 70.5l10 27h-8q-49 -80 -100 -154l-213 -305v-4z" />
    <glyph glyph-name="five.tnum" horiz-adv-x="1255" 
d="M106 170l230 289q5 -4 15 -11t41 -25t62.5 -31.5t76.5 -24.5t87 -11q86 0 143.5 37.5t57.5 106.5q0 112 -170 112q-46 0 -93.5 -8.5t-71.5 -17.5l-25 -8l-221 94l217 801h905l-90 -461h-346l24 118h-209l-37 -120l-26 -76h4q72 14 123 14q130 0 235 -50t169.5 -152
t64.5 -240q0 -147 -89 -269t-241.5 -192t-333.5 -70q-90 0 -175 20t-141.5 48.5t-100.5 57.5t-65 49z" />
    <glyph glyph-name="six.tnum" horiz-adv-x="1255" 
d="M166 547q0 135 40 271t119 257.5t185.5 216t250.5 150t304 55.5q94 0 179.5 -18.5t123.5 -36.5l39 -19l-154 -346q-86 39 -215 39q-109 0 -186.5 -35.5t-128.5 -117.5h4q60 24 160 24q106 0 189.5 -38t134 -101.5t76.5 -141.5t26 -163q0 -107 -40.5 -208.5t-114 -181.5
t-186 -129t-245.5 -49q-111 0 -210 34.5t-178.5 102t-126 179.5t-46.5 256zM594 539q0 -91 45.5 -137t112.5 -46q60 0 95.5 49t35.5 105q0 137 -172 137q-63 0 -90 -27t-27 -81z" />
    <glyph glyph-name="seven.tnum" horiz-adv-x="1255" 
d="M137 0l729 1049q18 24 36.5 45t27.5 30l10 9v4q-49 -7 -117 -7h-137l-24 -118h-367l90 461h1096l-60 -302l-823 -1171h-461z" />
    <glyph glyph-name="eight.tnum" horiz-adv-x="1255" 
d="M135 389q0 109 68 203t217 194q-107 99 -107 244q0 67 22 133.5t67.5 126.5t108.5 106t153 73.5t194 27.5q141 0 255.5 -46.5t182.5 -134.5t68 -202q0 -60 -19 -116t-55.5 -104.5t-63 -76.5t-68.5 -68l-5 -5t-5 -4.5t-5 -4.5q64 -47 101.5 -119t37.5 -157
q0 -68 -23.5 -135.5t-74 -130.5t-120.5 -111.5t-171 -77.5t-219 -29q-128 0 -232.5 34.5t-170.5 93t-101 132t-35 154.5zM874 868q28 25 58.5 76t30.5 111q0 44 -31 69t-90 25q-66 0 -101.5 -34t-35.5 -83q0 -50 44 -89t125 -75zM532 442q0 -52 43.5 -87.5t110.5 -35.5
q78 0 129 39.5t51 104.5q0 30 -32 59.5t-69.5 49t-107.5 51.5q-48 -29 -86.5 -77.5t-38.5 -103.5z" />
    <glyph glyph-name="nine.tnum" horiz-adv-x="1255" 
d="M1372 926q0 -112 -29 -226.5t-82 -220t-133 -197.5t-177.5 -160t-220.5 -107.5t-257 -39.5q-94 0 -179.5 18.5t-123.5 36.5l-39 19l154 346q86 -39 215 -39q230 0 327 168h-4q-72 -28 -172 -28q-104 0 -185.5 37t-130.5 99t-74 138t-25 160q0 107 40 208t112 181.5
t182.5 129t240.5 48.5q111 0 210 -34.5t178.5 -101.5t126 -179t46.5 -256zM944 938q0 91 -45 134.5t-113 43.5q-60 0 -95.5 -48.5t-35.5 -104.5q0 -138 172 -138q117 0 117 113z" />
    <glyph glyph-name="hyphen.case" horiz-adv-x="907" 
d="M221 524l72 369h663l-71 -369h-664z" />
    <glyph glyph-name="parenleft.case" horiz-adv-x="772" 
d="M354 -133q-129 282 -129 573q0 340 104.5 628t342.5 544h356q-218 -266 -326 -567.5t-108 -614.5q0 -309 92 -563h-332z" />
    <glyph glyph-name="parenright.case" horiz-adv-x="774" 
d="M33 -133q217 267 325.5 568.5t108.5 613.5q0 301 -94 563h334q129 -282 129 -574q0 -340 -104.5 -628.5t-342.5 -542.5h-356z" />
    <glyph glyph-name="bracketleft.case" horiz-adv-x="796" 
d="M131 -133l342 1745h580l-58 -291h-229l-225 -1163h229l-59 -291h-580z" />
    <glyph glyph-name="bracketright.case" horiz-adv-x="798" 
d="M88 158h231l226 1163h-230l58 291h579l-340 -1745h-579z" />
    <glyph glyph-name="braceleft.case" horiz-adv-x="831" 
d="M252 143q0 50 22.5 149.5t22.5 133.5q0 39 -14.5 67t-35.5 40t-42.5 19t-36.5 7h-14l71 369q7 0 19 0.5t43.5 10t58 27.5t53 58t37.5 96l43 223q14 72 54.5 126.5t98.5 86.5t131.5 51t153.5 19.5t164 -6.5l-57 -303q-87 16 -145.5 -6t-71.5 -86l-51 -254q-10 -49 -37 -91
t-58 -66t-61 -41t-50 -23l-20 -7v-4q5 -1 14.5 -4.5t32.5 -19t40.5 -37.5t32 -65t14.5 -97q0 -37 -25 -149.5t-25 -155.5q0 -31 32.5 -45.5t73.5 -12.5t79 7l-58 -301q-49 -4 -110 -4q-40 0 -82.5 5.5t-98 24t-97.5 48.5t-71.5 84.5t-29.5 125.5z" />
    <glyph glyph-name="braceright.case" horiz-adv-x="831" 
d="M94 160q84 -15 145 9t74 91l52 260q10 48 37 89t58.5 64.5t61.5 40t50 22.5l20 7v5q-5 1 -14 4.5t-32 19.5t-40.5 38.5t-32 65.5t-14.5 97q0 33 23.5 152t23.5 141q0 31 -33 46t-74.5 13.5t-79.5 -6.5l58 301q64 8 131 6t131 -25t114 -56.5t80.5 -89t30.5 -122.5
q0 -40 -20.5 -139.5t-20.5 -130.5q0 -39 15 -67t36.5 -40t43 -19t36.5 -7h15l-72 -369q-7 0 -19 -0.5t-44 -10t-58.5 -27.5t-53 -58t-36.5 -96l-47 -234q-14 -71 -52 -123.5t-85.5 -81.5t-113 -47t-122.5 -23t-125 -5q-28 0 -54 1.5t-38 3.5l-12 1z" />
    <glyph glyph-name="at.case" horiz-adv-x="1708" 
d="M176 631q0 173 74 333t202 279.5t311.5 190.5t391.5 71q144 0 253.5 -33.5t177 -94t101 -139t33.5 -173.5q0 -50 -16 -150l-49 -272h153l-55 -276h-555q-113 0 -201 28t-141.5 75.5t-80.5 107t-27 127.5q0 56 18 108t60.5 101.5t106 86t161 58.5t217.5 22h35
q5 29 -13.5 49.5t-53 29.5t-63.5 12.5t-59 3.5q-108 0 -201 -33t-157.5 -88t-110.5 -126t-68 -146.5t-22 -149.5q0 -153 102 -252.5t304 -99.5l-60 -310q-228 0 -402 80.5t-270 230.5t-96 349zM1108 729q0 -86 102 -86h54l34 199h-47q-74 0 -108.5 -32t-34.5 -81z" />
    <glyph glyph-name="guillemotleft.case" horiz-adv-x="1458" 
d="M1040 281l-266 417l440 424h404l-473 -438l268 -403h-373zM451 281l-269 417l391 424h396l-416 -438l268 -403h-370z" />
    <glyph glyph-name="guillemotright.case" horiz-adv-x="1456" 
d="M762 281l416 438l-269 403h371l268 -417l-391 -424h-395zM113 281l473 438l-269 403h373l266 -417l-440 -424h-403z" />
    <glyph glyph-name="guilsinglleft.case" horiz-adv-x="831" 
d="M451 281l-269 417l391 424h396l-416 -438l268 -403h-370z" />
    <glyph glyph-name="guilsinglright.case" horiz-adv-x="831" 
d="M137 281l416 438l-268 403h370l269 -417l-392 -424h-395z" />
    <glyph glyph-name="endash.case" horiz-adv-x="1538" 
d="M229 555l62 315h1286l-59 -315h-1289z" />
    <glyph glyph-name="emdash.case" horiz-adv-x="1947" 
d="M229 555l62 315h1696l-60 -315h-1698z" />
    <glyph glyph-name="periodcentered.case" horiz-adv-x="618" 
d="M217 510l76 391h377l-74 -391h-379z" />
    <glyph glyph-name="questiondown.case" horiz-adv-x="987" 
d="M596 1116l68 357h378l-67 -357h-379zM98 365q0 73 23 137.5t61 110.5t83.5 85.5t92 70.5t86 57.5t67 54t32.5 53.5l14 61h408l-19 -98q-11 -66 -46 -123t-78.5 -94.5t-92.5 -73t-89 -61t-66.5 -55.5t-26.5 -60q0 -31 26.5 -50.5t63.5 -19.5q43 0 91 23t74 45l27 23
l195 -312q-8 -7 -23 -18t-63 -39t-99 -50t-126.5 -39.5t-149.5 -17.5q-87 0 -168.5 25t-148.5 72t-107.5 123t-40.5 170z" />
    <glyph glyph-name="exclamdown.case" horiz-adv-x="733" 
d="M391 1116l68 357h379l-68 -357h-379zM145 0l234 995h362l-151 -995h-445z" />
    <glyph glyph-name="bullet.case" horiz-adv-x="985" 
d="M635 322q-171 0 -291.5 119.5t-120.5 289.5q0 171 120.5 291.5t291.5 120.5t291.5 -120.5t120.5 -291.5q0 -170 -120.5 -289.5t-291.5 -119.5z" />
    <glyph glyph-name="zero.p_osf" horiz-adv-x="1239" 
d="M178 434q0 101 22 202.5t70 198t116.5 170.5t170 119t221.5 45q137 0 238 -36t158 -101t83.5 -145t26.5 -178q0 -105 -23 -208.5t-72 -198.5t-118 -167.5t-168.5 -116t-216.5 -43.5q-138 0 -239 36t-158.5 100.5t-84 144.5t-26.5 178zM606 440q0 -112 78 -112
q47 0 82.5 37t54 95.5t27 118t8.5 117.5t-16.5 89.5t-59.5 31.5q-38 0 -68.5 -26t-49.5 -66t-32 -91.5t-18.5 -100t-5.5 -93.5z" />
    <glyph glyph-name="one.p_osf" horiz-adv-x="1095" 
d="M102 0l64 330h285l38 211l37 159h-4q-41 -38 -94 -63l-80 -37l-141 297l452 248h359l-156 -815h271l-64 -330h-967z" />
    <glyph glyph-name="two.p_osf" horiz-adv-x="1208" 
d="M129 0l55 283q40 19 102 51.5t152.5 87t164.5 108.5t127.5 115t53.5 107q0 34 -24.5 50.5t-59.5 16.5q-37 0 -79.5 -13.5t-77.5 -32.5t-64.5 -38.5t-46.5 -32.5l-16 -14l-168 279q9 8 25.5 21.5t70.5 48.5t111.5 61.5t143.5 48.5t171 22q62 0 122.5 -10.5t120.5 -36.5
t105 -65t73 -99.5t28 -136.5q0 -77 -34 -149.5t-84 -125t-115 -98.5t-117 -72.5t-101 -45.5v-13q52 13 150 13h278l-72 -330h-995z" />
    <glyph glyph-name="three.p_osf" horiz-adv-x="1146" 
d="M31 -88l207 278q5 -4 13.5 -11t37 -24t58 -30t74 -24t87.5 -11q89 0 134.5 39t45.5 90q0 44 -38.5 69t-114.5 25l-72 -4l-37 178l270 297q15 16 33.5 31t29.5 22l11 7v4q-57 -6 -90 -6h-123l-29 -131h-321l86 434h942l-53 -277l-291 -313q10 -3 25.5 -10t56 -33.5
t71.5 -59.5t56.5 -90.5t25.5 -123.5q0 -68 -25 -138t-77.5 -135t-124.5 -115.5t-173.5 -81t-217.5 -30.5q-89 0 -171 18t-135.5 43.5t-94 51t-58.5 43.5z" />
    <glyph glyph-name="four.p_osf" horiz-adv-x="1286" 
d="M47 49l45 248l635 848h567l-151 -778h157l-63 -318h-158l-55 -287h-418l56 287h-615zM496 367h229l63 315q4 27 15.5 66.5t20.5 65.5l10 26h-9q-39 -79 -90 -142l-239 -327v-4z" />
    <glyph glyph-name="five.p_osf" horiz-adv-x="1120" 
d="M23 -90l206 276q4 -4 12 -11.5t33.5 -25.5t53 -32t69.5 -25.5t84 -11.5q96 0 151.5 39t55.5 108q0 119 -164 119q-43 0 -86 -9t-64 -19l-22 -9l-200 80l200 756h854l-88 -434h-334l27 131h-174l-39 -142q-3 -11 -8 -24t-8 -20l-4 -7h4q40 10 112 10q187 0 304.5 -112.5
t117.5 -294.5q0 -113 -50.5 -211.5t-135 -165.5t-195.5 -105t-231 -38q-84 0 -164 18.5t-135 44.5t-98 52t-63 45z" />
    <glyph glyph-name="six.p_osf" horiz-adv-x="1269" 
d="M178 514q0 126 36.5 252.5t109.5 241.5t173.5 204t238.5 142t294 53q93 0 180 -18.5t128 -36.5l40 -19l-166 -315q-85 43 -198 43q-108 0 -177 -41.5t-130 -122.5h4q88 31 190 31q119 0 213 -60t143.5 -157t49.5 -209q0 -75 -23 -149.5t-71 -142.5t-115.5 -120.5
t-163 -83.5t-205.5 -31q-86 0 -164.5 18.5t-150 60t-123.5 102.5t-82.5 153t-30.5 205zM588 481q0 -67 43 -115.5t110 -48.5q65 0 108.5 47t43.5 115q0 57 -36.5 93t-111.5 36q-76 0 -116.5 -32.5t-40.5 -94.5z" />
    <glyph glyph-name="seven.p_osf" horiz-adv-x="1144" 
d="M39 -238l696 983q21 30 42 55t31 34l11 10v4q-51 -6 -121 -6h-131l-24 -131h-355l84 434h1067l-57 -285l-784 -1098h-459z" />
    <glyph glyph-name="eight.p_osf" horiz-adv-x="1236" 
d="M137 362q0 62 23 119t66 105.5t79.5 81t87.5 69.5q-90 90 -90 217q0 82 35 161t99.5 144.5t168 105.5t228.5 40q130 0 239.5 -43t175.5 -123.5t66 -183.5q0 -172 -187 -381q127 -91 127 -238q0 -64 -23 -127.5t-72 -124t-118.5 -107t-170.5 -74.5t-220 -28
q-103 0 -189.5 22.5t-145.5 60.5t-100 88.5t-60 104.5t-19 111zM850 805q28 24 56 72t28 108q0 44 -31 69t-90 25q-66 0 -101.5 -33.5t-35.5 -82.5t44 -84.5t130 -73.5zM516 422q0 -52 43.5 -87.5t110.5 -35.5q78 0 129 39t51 104q0 21 -12 39t-46.5 38.5t-54.5 30.5t-76 35
q-5 3 -8 4t-7.5 3t-8.5 4q-48 -29 -84.5 -74t-36.5 -100z" />
    <glyph glyph-name="nine.p_osf" horiz-adv-x="1271" 
d="M1315 627q0 -126 -36.5 -252.5t-109.5 -241.5t-173.5 -204t-238.5 -142t-294 -53q-59 0 -116 7.5t-97 18t-72 21.5t-48 19l-15 7l166 316q85 -43 198 -43q108 0 177 41.5t130 122.5h-4q-88 -31 -190 -31q-119 0 -213 60t-143.5 157t-49.5 209q0 75 23 149t71 142
t115.5 120.5t163 83.5t205.5 31q86 0 164.5 -18t150 -59.5t123.5 -102.5t82.5 -153t30.5 -205zM905 659q0 67 -43 115.5t-110 48.5q-65 0 -108.5 -46.5t-43.5 -114.5q0 -57 36.5 -93.5t111.5 -36.5q76 0 116.5 32.5t40.5 94.5z" />
    <glyph glyph-name="zero.t_osf" horiz-adv-x="1255" 
d="M186 434q0 101 22 202.5t70 198t116.5 170.5t170 119t221.5 45q137 0 238 -36t158 -101t83.5 -145t26.5 -178q0 -105 -23 -208.5t-72 -198.5t-118 -167.5t-168.5 -116t-216.5 -43.5q-138 0 -239 36t-158.5 100.5t-84 144.5t-26.5 178zM614 440q0 -112 78 -112
q47 0 82.5 37t54 95.5t27 118t8.5 117.5t-16.5 89.5t-59.5 31.5q-38 0 -68.5 -26t-49.5 -66t-32 -91.5t-18.5 -100t-5.5 -93.5z" />
    <glyph glyph-name="one.t_osf" horiz-adv-x="1255" 
d="M182 0l64 330h284l39 211l37 159h-4q-41 -38 -94 -63l-80 -37l-141 297l452 248h359l-156 -815h270l-63 -330h-967z" />
    <glyph glyph-name="two.t_osf" horiz-adv-x="1255" 
d="M152 0l55 283q40 19 102 51.5t152.5 87t164.5 108.5t127.5 115t53.5 107q0 34 -24.5 50.5t-59.5 16.5q-37 0 -79.5 -13.5t-77.5 -32.5t-65 -38.5t-47 -32.5l-16 -14l-168 279q9 8 25.5 21.5t71 48.5t112 61.5t143.5 48.5t171 22q62 0 122.5 -10.5t120 -36.5t104.5 -65
t73 -99.5t28 -136.5q0 -77 -34 -149.5t-83.5 -125t-114.5 -98.5t-117.5 -73t-100.5 -45v-13q51 13 149 13h279l-72 -330h-995z" />
    <glyph glyph-name="three.t_osf" horiz-adv-x="1255" 
d="M90 -82l205 279q5 -4 13.5 -11t37 -24.5t58 -30.5t74 -24t87.5 -11q88 0 133 39t45 88q0 44 -38 69t-113 25l-72 -4l-37 179l269 294q15 16 33 31t29 22l11 7v4q-57 -6 -90 -6h-121l-28 -131h-322l86 432h938l-53 -275l-289 -311q10 -3 25.5 -10t56 -33.5t71 -59.5
t56 -90.5t25.5 -123.5q0 -86 -41 -172t-116 -159t-195 -119t-263 -46q-89 0 -170.5 17.5t-134.5 43t-93.5 51t-58.5 42.5z" />
    <glyph glyph-name="four.t_osf" horiz-adv-x="1255" 
d="M31 49l45 248l635 848h567l-152 -778h158l-63 -318h-158l-55 -287h-418l55 287h-614zM479 367h230l63 315q4 27 15.5 66.5t20.5 65.5l9 26h-8q-39 -79 -90 -142l-240 -327v-4z" />
    <glyph glyph-name="five.t_osf" horiz-adv-x="1255" 
d="M88 -90l207 276q4 -4 12 -11.5t33.5 -25.5t53 -32t69.5 -25.5t84 -11.5q96 0 151.5 39t55.5 108q0 119 -164 119q-43 0 -86 -9t-64 -19l-22 -9l-201 80l201 756h854l-88 -434h-334l27 131h-175l-38 -142q-3 -11 -8 -24t-9 -20l-4 -7h4q41 10 113 10q187 0 304.5 -112.5
t117.5 -294.5q0 -151 -86.5 -271.5t-225.5 -184.5t-301 -64q-84 0 -164 18.5t-135 44.5t-98 52t-64 45z" />
    <glyph glyph-name="six.t_osf" horiz-adv-x="1255" 
d="M170 514q0 126 36.5 252.5t109.5 241.5t173.5 204t238.5 142t294 53q93 0 180 -18.5t128 -36.5l40 -19l-166 -315q-85 43 -198 43q-109 0 -178 -41.5t-130 -122.5h4q89 31 191 31q119 0 213 -60t143 -157t49 -209q0 -95 -37.5 -186.5t-107 -168.5t-182.5 -124.5
t-250 -47.5q-86 0 -164.5 18.5t-150 60t-123.5 102.5t-82.5 153t-30.5 205zM580 481q0 -67 43 -115.5t110 -48.5q65 0 108.5 47t43.5 115q0 57 -36.5 93t-111.5 36q-76 0 -116.5 -32.5t-40.5 -94.5z" />
    <glyph glyph-name="seven.t_osf" horiz-adv-x="1255" 
d="M94 -238l697 983q21 30 41.5 55t31.5 34l10 10v4q-50 -6 -120 -6h-131l-25 -131h-354l84 434h1067l-58 -285l-784 -1098h-459z" />
    <glyph glyph-name="eight.t_osf" horiz-adv-x="1255" 
d="M145 362q0 62 23 119t66 105.5t79.5 81t87.5 69.5q-90 90 -90 217q0 82 35 161t99.5 144.5t168 105.5t228.5 40q130 0 239.5 -43t175.5 -123.5t66 -183.5q0 -173 -186 -381q127 -91 127 -238q0 -64 -23 -127.5t-72.5 -124t-119 -107t-170.5 -74.5t-220 -28
q-103 0 -189.5 22.5t-145.5 60.5t-100 88.5t-60 104.5t-19 111zM858 805q28 24 56 72t28 108q0 44 -31 69t-90 25q-66 0 -101.5 -33.5t-35.5 -82.5t44 -84.5t130 -73.5zM524 422q0 -52 43.5 -87.5t110.5 -35.5q78 0 129 39t51 104q0 21 -12 39t-46.5 38.5t-54.5 30.5t-76 35
q-5 3 -8 4t-7.5 3t-8.5 4q-48 -29 -84.5 -74t-36.5 -100z" />
    <glyph glyph-name="nine.t_osf" horiz-adv-x="1255" 
d="M1307 627q0 -126 -36.5 -252.5t-109.5 -241.5t-173.5 -204t-238.5 -142t-294 -53q-93 0 -180 18t-128 36l-41 19l166 316q86 -43 199 -43q108 0 177 41.5t130 122.5h-4q-88 -31 -190 -31q-119 0 -213 60t-143.5 157t-49.5 209q0 75 23 149t71 142t115.5 120.5t163 83.5
t205.5 31q86 0 164.5 -18t150 -59.5t123.5 -102.5t82.5 -153t30.5 -205zM897 659q0 67 -43.5 115.5t-110.5 48.5q-65 0 -108 -46.5t-43 -114.5q0 -57 36 -93.5t111 -36.5q76 0 117 32.5t41 94.5z" />
    <glyph glyph-name="dollar.osf" horiz-adv-x="1155" 
d="M102 193l209 268q7 -5 18.5 -13t47 -28.5t71 -36t84 -28.5t91.5 -13q49 0 67.5 10.5t18.5 34.5q0 16 -33.5 35t-84 38.5t-109 52t-109 70.5t-84 99t-33.5 133q0 134 113 243t321 138l37 213h260l-39 -217q91 -16 169.5 -51t111.5 -61l33 -27l-183 -285q-5 4 -13.5 10
t-38 22t-61.5 28t-81 22t-99 10q-46 0 -66 -9t-20 -30q0 -17 14.5 -26.5t67.5 -30.5q43 -17 69 -27.5t70 -32t71.5 -40.5t61.5 -48.5t53 -60.5t32.5 -72.5t13.5 -87.5q0 -79 -37.5 -148t-99.5 -117.5t-138.5 -80t-158.5 -43.5l-35 -209h-260l39 215q-64 13 -124.5 36
t-101.5 47.5t-73 46.5t-47 36z" />
    <glyph glyph-name="cent.osf" horiz-adv-x="1161" 
d="M444 -63l35 178q-147 53 -224 173t-77 265q0 93 33 184t94 170t158 138.5t215 84.5l31 160h274l-33 -164q53 -11 103.5 -31.5t85.5 -42t62.5 -41.5t40.5 -33l13 -13l-223 -269q-3 3 -8 8.5t-23.5 20t-40.5 25t-58 19.5t-75 9q-62 0 -108.5 -21.5t-68.5 -54t-32 -62
t-10 -54.5q0 -22 7.5 -43.5t24.5 -42.5t50.5 -34t79.5 -13q58 0 115 21.5t85 43.5l27 21l136 -306q-6 -5 -18 -13.5t-51 -31t-80.5 -40.5t-105.5 -35t-128 -21l-33 -155h-273z" />
    <glyph glyph-name="sterling.osf" horiz-adv-x="1263" 
d="M80 0l70 356h120l19 107h-101l52 260h100l12 57q46 214 211.5 331.5t390.5 117.5q74 0 145 -15t118.5 -36t84.5 -42t54 -36l18 -15l-219 -284q-9 7 -26.5 17t-76 27t-122.5 17q-45 0 -92.5 -26.5t-55.5 -67.5l-10 -45h334l-51 -260h-334l-19 -107h558l-72 -356h-1108z
" />
    <glyph glyph-name="yen.osf" horiz-adv-x="1419" 
d="M201 217l45 227h329l-63 162h-236l46 228h106l-133 370h469l35 -178q12 -49 23 -110.5t16 -98.5l4 -37h4q67 137 133 246l104 178h494l-277 -370h132l-46 -228h-262l-120 -162h352l-45 -227h-350l-43 -217h-433l45 217h-329z" />
    <glyph glyph-name="florin.osf" horiz-adv-x="1253" 
d="M80 117q77 -19 147 -19q157 0 185 113l77 297h-108l68 332h137l55 192q23 79 62.5 142t89.5 102.5t102 66.5t110.5 40.5t103.5 18.5t91 5t105.5 -4.5t96.5 -8.5l36 -5l-72 -355q-81 17 -147 17q-156 0 -187 -113l-28 -98h174l-66 -332h-203l-104 -389
q-18 -68 -51.5 -124.5t-73 -94.5t-89 -67t-95.5 -45.5t-96.5 -26.5t-88.5 -13.5t-75 -3.5q-48 0 -105 6t-90 12l-33 5z" />
    <glyph glyph-name="Euro.osf" horiz-adv-x="1189" 
d="M150 399l32 158h133q2 26 15 92h-129l32 158h148q98 198 272 310t424 112q67 0 128.5 -10.5t89.5 -21.5l28 -11l-145 -309q-60 16 -136 16q-148 0 -215 -86h324l-68 -158h-325q-17 -49 -17 -92h314l-62 -158h-229q27 -41 79 -60.5t105 -19.5q42 0 87.5 7.5t70.5 14.5
l24 7l-4 -334q-100 -39 -221 -39q-239 0 -389.5 119.5t-187.5 304.5h-178z" />
    <glyph glyph-name="zero.numerator" horiz-adv-x="860" 
d="M553 545q-301 0 -301 356q0 79 13.5 156.5t46.5 157.5t82.5 140.5t129 99t178.5 38.5q156 0 231 -92.5t75 -263.5q0 -78 -14 -156.5t-48.5 -158t-85 -140.5t-130 -99t-177.5 -38zM592 823q43 0 82 90t39 197q0 100 -45 100q-48 0 -86.5 -87.5t-38.5 -188.5
q0 -111 49 -111z" />
    <glyph glyph-name="one.numerator" horiz-adv-x="819" 
d="M193 565l45 236h198l43 225q3 14 9 31t11 27l5 10h-4q-27 -29 -45 -43l-54 -33l-137 188l348 267h260l-129 -672h203l-45 -236h-708z" />
    <glyph glyph-name="two.numerator" horiz-adv-x="872" 
d="M186 565q0 98 27.5 179t72 133t98 93t107 68t98 49t72 44t27.5 45q0 36 -53 36q-35 0 -75.5 -20.5t-63.5 -41.5l-23 -20l-178 181q7 7 19 19.5t52.5 44t83.5 55.5t107 43.5t127 19.5q56 0 111 -15.5t104 -46t79 -83.5t30 -121q0 -57 -24.5 -106.5t-64 -85t-87.5 -66
t-95.5 -53t-87.5 -42t-65 -38t-25 -35.5h199l14 80h211l-59 -316h-738z" />
    <glyph glyph-name="three.numerator" horiz-adv-x="829" 
d="M535 545q-71 0 -132.5 14.5t-98.5 35.5t-64.5 41.5t-38.5 35.5l-11 14l179 205q2 -3 6.5 -7.5t19.5 -16t32.5 -20.5t45.5 -16.5t59 -7.5q44 0 69.5 17t25.5 43q0 35 -92 35h-60l-12 122l162 158q9 11 23 23.5t24 18.5l10 7v8q-41 -8 -74 -8h-90l-18 -90h-211l61 316h668
l-35 -193l-207 -188q75 -30 120.5 -85.5t45.5 -121.5q0 -60 -29 -120t-79.5 -109t-129 -80t-169.5 -31z" />
    <glyph glyph-name="four.numerator" horiz-adv-x="882" 
d="M537 565l34 172h-391l33 193l420 543h381l-101 -517h101l-41 -219h-101l-32 -172h-303zM473 956h139l39 197q4 21 12.5 48t14.5 44l6 17h-8q-31 -62 -60 -103l-143 -198v-5z" />
    <glyph glyph-name="five.numerator" horiz-adv-x="829" 
d="M508 545q-56 0 -111 12.5t-94.5 30.5t-70.5 36.5t-46 31.5l-16 12l158 190q11 -8 29 -19t66 -29.5t85 -18.5q119 0 119 77q0 62 -101 62q-30 0 -57.5 -5t-40.5 -9l-12 -5l-144 68l131 494h609l-60 -316h-211l17 90h-168l-27 -102l-14 -39l2 -2q52 18 113 18
q131 0 204.5 -65.5t73.5 -163.5q0 -61 -30 -122t-84 -112t-138 -82.5t-182 -31.5z" />
    <glyph glyph-name="six.numerator" horiz-adv-x="833" 
d="M584 545q-66 0 -126.5 20t-111 60.5t-80.5 109.5t-30 158q0 104 39.5 210t109 193t174.5 142t225 55q60 0 118 -13.5t86 -26.5l28 -13l-105 -240q-75 31 -157 31q-93 0 -133 -84q54 8 77 8q110 0 182 -71.5t72 -180.5q0 -60 -24 -122t-68 -115.5t-116.5 -87t-159.5 -33.5
zM598 780q36 0 60 32t24 69t-20 62.5t-64 25.5q-80 0 -80 -88q0 -49 23 -75t57 -26z" />
    <glyph glyph-name="seven.numerator" horiz-adv-x="819" 
d="M182 565l463 631q10 14 22.5 26.5t19.5 18.5l7 6l2 10q-40 -10 -71 -10h-84l-17 -90h-233l61 316h721l-39 -207l-516 -701h-336z" />
    <glyph glyph-name="eight.numerator" horiz-adv-x="851" 
d="M545 545q-139 0 -237.5 65t-98.5 176q0 145 180 269q-31 37 -45 70t-14 81q0 70 35 127t90.5 91t119.5 51.5t127 17.5q126 0 219 -62.5t93 -166.5q0 -120 -150 -252q90 -73 90 -172q0 -74 -39 -133t-101 -93t-131 -51.5t-138 -17.5zM680 1108q6 6 15 16t24.5 37.5
t15.5 50.5q0 56 -71 56q-28 0 -46 -17t-18 -51q0 -31 18 -52t62 -40zM569 772q36 0 63 19t27 53q0 32 -24 52.5t-84 47.5q-57 -50 -57 -102q0 -33 20.5 -51.5t54.5 -18.5z" />
    <glyph glyph-name="nine.numerator" horiz-adv-x="833" 
d="M647 1493q66 0 126.5 -20t111 -60.5t80.5 -109.5t30 -158q0 -104 -40 -210t-109.5 -193t-174.5 -142t-225 -55q-60 0 -118 13.5t-86 26.5l-27 13l104 240q76 -31 158 -31q93 0 133 84q-54 -8 -78 -8q-110 0 -181.5 71.5t-71.5 180.5q0 60 24 122t68 115.5t116.5 87
t159.5 33.5zM633 1257q-36 0 -60 -31.5t-24 -68.5t20 -62.5t64 -25.5q80 0 80 88q0 49 -23 74.5t-57 25.5z" />
    <glyph glyph-name="zero.denominator" horiz-adv-x="856" 
d="M440 -20q-301 0 -301 356q0 78 13.5 156t46.5 158t83 140.5t129.5 99t178.5 38.5q155 0 230 -93t75 -264q0 -78 -14 -156.5t-48.5 -157.5t-85 -140t-130 -99t-177.5 -38zM479 258q43 0 82 90t39 197q0 100 -45 100q-48 0 -86.5 -87.5t-38.5 -188.5q0 -111 49 -111z" />
    <glyph glyph-name="one.denominator" horiz-adv-x="817" 
d="M82 0l45 236h199l43 225q3 14 9 30.5t10 26.5l5 10h-4q-27 -29 -45 -43l-53 -32l-137 188l348 266h260l-129 -671h203l-45 -236h-709z" />
    <glyph glyph-name="two.denominator" horiz-adv-x="870" 
d="M76 0q0 98 27.5 179t72 133t98 93t107 67.5t98 48.5t72 44t27.5 45q0 37 -54 37q-35 0 -75.5 -20.5t-63.5 -40.5l-23 -21l-178 180q7 7 19 19.5t52.5 44t83.5 55.5t107 44t127 20q56 0 111 -15.5t104 -46t79 -83.5t30 -121q0 -57 -24.5 -106.5t-64 -85t-87 -66t-95.5 -53
t-87.5 -42t-64.5 -38t-25 -35.5h198l15 79h210l-59 -315h-737z" />
    <glyph glyph-name="three.denominator" horiz-adv-x="829" 
d="M424 -20q-71 0 -132 14.5t-98.5 35t-64.5 41.5t-38 35l-11 15l178 205q2 -3 6.5 -7.5t20 -16t33 -20.5t45.5 -16.5t59 -7.5q44 0 69 16.5t25 42.5q0 35 -92 35h-59l-13 123l162 158q9 11 23 23.5t24 19.5l10 6v8q-40 -8 -73 -8h-90l-19 -90h-211l62 315h667l-35 -192
l-206 -189q75 -30 120 -85.5t45 -121.5q0 -60 -29 -120t-79.5 -109t-129 -79.5t-169.5 -30.5z" />
    <glyph glyph-name="four.denominator" horiz-adv-x="882" 
d="M426 0l35 172h-391l32 193l420 542h381l-100 -516h100l-41 -219h-100l-33 -172h-303zM362 391h140l39 197q4 21 12 48t14 44l6 16h-8q-30 -61 -59 -102l-144 -199v-4z" />
    <glyph glyph-name="five.denominator" horiz-adv-x="827" 
d="M397 -20q-56 0 -111 12.5t-94.5 30.5t-70.5 36t-47 31l-15 12l158 191q11 -8 29 -19t66 -30t85 -19q119 0 119 78q0 62 -100 62q-30 0 -58 -4.5t-40 -9.5l-13 -5l-143 68l131 493h608l-59 -315h-211l16 90h-168l-26 -102l-15 -39l2 -2q52 18 113 18q131 0 204.5 -65.5
t73.5 -163.5q0 -61 -30 -122t-84 -112t-138 -82.5t-182 -31.5z" />
    <glyph glyph-name="six.denominator" horiz-adv-x="833" 
d="M473 -20q-66 0 -126.5 20t-111 60.5t-80.5 109.5t-30 158q0 104 40 210t109.5 193t174.5 142t225 55q60 0 118 -13.5t86 -26.5l27 -14l-104 -239q-76 31 -158 31q-93 0 -133 -84q54 8 78 8q110 0 182 -71.5t72 -180.5q0 -60 -24 -122t-68.5 -115.5t-117 -87t-159.5 -33.5
zM487 215q36 0 60 31.5t24 68.5t-20 62.5t-64 25.5q-43 0 -61 -22.5t-18 -65.5q0 -49 23 -74.5t56 -25.5z" />
    <glyph glyph-name="seven.denominator" horiz-adv-x="811" 
d="M66 0l462 631q10 14 22.5 26.5t19.5 18.5l8 6l2 10q-41 -10 -72 -10h-84l-16 -90h-234l62 315h720l-38 -207l-517 -700h-335z" />
    <glyph glyph-name="eight.denominator" horiz-adv-x="849" 
d="M434 -20q-139 0 -237.5 65t-98.5 176q0 144 181 268q-31 38 -45.5 71t-14.5 81q0 70 35 127t91 91t120 51.5t127 17.5q125 0 218 -63t93 -167q0 -121 -149 -252q90 -73 90 -172q0 -74 -39 -132.5t-101.5 -92.5t-131.5 -51.5t-138 -17.5zM569 543q6 6 15.5 16t25 37.5
t15.5 50.5q0 55 -72 55q-28 0 -46 -17t-18 -50q0 -31 18 -52t62 -40zM459 207q36 0 63 19t27 53q0 32 -24.5 52.5t-84.5 47.5q-57 -50 -57 -103q0 -33 20.5 -51t55.5 -18z" />
    <glyph glyph-name="nine.denominator" horiz-adv-x="833" 
d="M537 928q66 0 126.5 -20t111 -60.5t80.5 -109.5t30 -158q0 -104 -40 -210t-109.5 -193t-174.5 -142t-225 -55q-60 0 -118 13t-86 27l-28 13l105 239q76 -30 158 -30q93 0 133 84q-61 -9 -78 -9q-110 0 -182 71.5t-72 180.5q0 60 24 122t68.5 115.5t117 87.5t159.5 34z
M522 692q-36 0 -60 -31.5t-24 -68.5t20 -62.5t64 -25.5q80 0 80 88q0 49 -23 74.5t-57 25.5z" />
    </font>
</defs>
</svg>
