<?xml version="1.0" encoding="UTF-8"?>
<!-- Generator: Adobe Illustrator 24.0.2, SVG Export Plug-In . SVG Version: 6.00 Build 0)  -->
<svg version="1.1" id="Layer_1" xmlns="http://www.w3.org/2000/svg" xmlns:xlink="http://www.w3.org/1999/xlink" x="0px" y="0px" viewBox="0 0 596.1 264.4" style="enable-background:new 0 0 596.1 264.4;" xml:space="preserve">
<style type="text/css">
	.st0{fill:#606060;}
	.st1{fill:url(#SVGID_1_);}
	.st2{fill:url(#SVGID_2_);}
	.st3{fill:url(#SVGID_3_);}
	.st4{fill:url(#SVGID_4_);}
	.st5{fill:url(#SVGID_5_);}
	.st6{fill:url(#SVGID_6_);}
	.st7{fill:url(#SVGID_7_);}
	.st8{fill:url(#SVGID_8_);}
	.st9{fill:url(#SVGID_9_);}
	.st10{fill:#9D9D9C;}
	.st11{fill:none;stroke:#9D9D9C;stroke-width:2;stroke-miterlimit:10;}
	.st12{fill:url(#SVGID_10_);}
	.st13{fill:url(#SVGID_11_);}
	.st14{fill:url(#SVGID_12_);}
	.st15{fill:url(#SVGID_13_);}
	.st16{fill:url(#SVGID_14_);}
	.st17{fill:url(#SVGID_15_);}
	.st18{fill:url(#SVGID_16_);}
	.st19{fill:url(#SVGID_17_);}
	.st20{fill:url(#SVGID_18_);}
	.st21{fill:none;stroke:#606060;stroke-width:0.25;stroke-miterlimit:10;}
	.st22{fill:#FFFFFF;}
	.st23{fill:#6E6E70;}
	.st24{fill:#BABDBF;}
</style>
<path class="st23" d="M13.4,151.4c0,11.4,9,21.5,20.9,21.5c12.3,0,21.8-9.3,21.8-21.5c0-12.4-9.5-21.7-21.8-21.7  C22.4,129.6,13.4,139.7,13.4,151.4 M61,151.3c0,14.9-11.6,26.2-26.4,26.2c-14.5,0-26.1-11.8-26.1-26.1c0-14.5,11.5-26.3,26.1-26.3  C49.4,125.1,61,136.4,61,151.3"/>
<polygon class="st23" points="83.9,167.6 101.7,126.2 106.7,126.2 83.7,179.1 60.7,126.2 65.7,126.2 "/>
<path class="st23" d="M111.2,150.9c0,11.5,7.6,22,19.8,22c12.8,0,19.8-10.4,19.8-22.5c0-11.6-7.9-20.8-20.1-20.8  C119.2,129.6,111.2,140.1,111.2,150.9 M155.3,176.4h-4.9v-9h-0.2c-3.7,6.4-11.7,10.1-19.1,10.1c-15.2,0-24.8-11.8-24.8-26.5  c0-14.7,9.5-25.9,24.6-25.9c7.7,0,15.1,3.5,19.3,9.8h0.2v-8.7h4.9V176.4z"/>
<polygon class="st23" points="167.7,86.7 167.7,176.4 172.6,176.4 172.6,154.1 175.3,151.3 200.2,176.4 206.6,176.4 178.5,147.9   199.6,126.2 193.3,126.2 172.6,147.5 172.6,86.7 "/>
<path class="st23" d="M209.8,150.9c0,11.5,7.6,22,19.8,22c12.8,0,19.8-10.4,19.8-22.5c0-11.6-7.9-20.8-20.1-20.8  C217.7,129.6,209.8,140.1,209.8,150.9 M253.9,176.4H249v-9h-0.2c-3.7,6.4-11.7,10.1-19.1,10.1c-15.2,0-24.8-11.8-24.8-26.5  c0-14.7,9.5-25.9,24.6-25.9c7.7,0,15.1,3.5,19.3,9.8h0.2v-8.7h4.9V176.4z"/>
<path class="st23" d="M287.4,135.3c-1.6-3.5-4.9-5.6-8.8-5.6c-4.2,0-8.6,3.5-8.6,7.8c0,12.1,24.5,6.2,24.5,24.3  c0,9.2-7.2,15.6-16.2,15.6c-8.4,0-15.2-5.1-17.3-13.3l4.8-1.5c1.8,6,5.9,10.2,12.5,10.2c6.3,0,11.3-5,11.3-11.3  c0-6.2-4.8-8.1-9.8-9.9c-6.8-2.5-14.7-5.4-14.7-13.9c0-7.6,6.4-12.7,13.7-12.7c5.1,0,10.6,3.4,12.8,8L287.4,135.3z"/>
<polygon class="st23" points="308.1,176.4 303.2,176.4 303.2,108.2 308.1,108.2 308.1,126.2 316.9,126.2 316.9,130.7 308.1,130.7   "/>
<rect x="14.5" y="112.5" class="st23" width="40.6" height="4.7"/>
<polygon class="st24" points="348.7,127.9 348.7,134.9 356.6,134.9 356.6,137.4 348.7,137.4 348.7,149.1 346.1,149.1 346.1,125.5   356.9,125.5 356.9,127.9 "/>
<path class="st24" d="M361.3,137.3c0,5.3,4.3,9.8,9.7,9.8c5.4,0,9.7-4.4,9.7-9.8c0-5.4-4.3-9.8-9.7-9.8  C365.5,127.5,361.3,131.9,361.3,137.3 M383.3,137.3c0,6.8-5.6,12.2-12.3,12.2c-6.7,0-12.3-5.4-12.3-12.2c0-6.8,5.6-12.2,12.3-12.2  C377.7,125.1,383.3,130.6,383.3,137.3"/>
<path class="st24" d="M388.2,136.4h0.8c3,0,6-0.6,6-4.2c0-3.9-2.8-4.3-6-4.3h-0.8V136.4z M388.2,149.1h-2.6v-23.6h3.4  c4.5,0,8.6,1.2,8.6,6.5c0,3.6-2.3,6.2-5.9,6.5l7.5,10.6H396l-7.1-10.4h-0.7V149.1z"/>
<polygon class="st24" points="416,149.1 413.3,149.1 413.3,127.9 407.6,127.9 407.6,125.5 421.7,125.5 421.7,127.9 416,127.9 "/>
<polygon class="st24" points="438,135.1 438,125.5 440.6,125.5 440.6,149.1 438,149.1 438,137.5 425.9,137.5 425.9,149.1   423.3,149.1 423.3,125.5 425.9,125.5 425.9,135.1 "/>
<polygon class="st24" points="444.3,125.5 456.5,125.5 456.5,127.9 446.9,127.9 446.9,134.9 456.2,134.9 456.2,137.4 446.9,137.4   446.9,146.7 456.5,146.7 456.5,149.1 444.3,149.1 "/>
<path class="st24" d="M474,127.5c-1.9,0-3.4,0.6-4.5,1.7c-1.1,1.1-1.7,2.6-1.7,4.5c0,1.7,0.4,3,1.1,4c0.8,1,2.5,2.1,4.9,3.1  c0.1,0,0.2,0.1,0.4,0.2c3.5,1.5,6,3.1,7.4,5c1.4-1.8,3.9-3.5,7.5-5l0.3-0.1c2.5-1,4.1-2.1,5-3.1c0.8-1,1.2-2.3,1.2-4  c0-1.9-0.5-3.4-1.7-4.6c-1.1-1.1-2.6-1.7-4.5-1.7c-1.6,0-2.9,0.4-4.1,1.3c-1.1,0.9-2,2.2-2.5,4c-0.2,0.5-0.6,0.8-1.1,0.8  c-0.5,0-0.9-0.3-1.1-0.8c-0.6-1.8-1.4-3.1-2.6-4C476.9,127.9,475.6,127.5,474,127.5 M481.7,149.3c-0.5,0-0.9-0.3-1.1-0.7  c-0.8-2-3.3-3.8-7.3-5.5c-0.1-0.1-0.2-0.1-0.3-0.1c-2.9-1.2-4.8-2.5-5.9-3.8c-1.1-1.4-1.6-3.2-1.6-5.4c0-2.5,0.8-4.6,2.4-6.2  c1.6-1.6,3.6-2.4,6.1-2.4c2.1,0,4,0.6,5.5,1.8c0.9,0.7,1.6,1.6,2.2,2.6c0.6-1.1,1.3-1.9,2.2-2.6c1.5-1.2,3.4-1.8,5.5-1.8  c2.5,0,4.6,0.8,6.1,2.4c1.6,1.6,2.4,3.6,2.4,6.2c0,2.2-0.6,4-1.6,5.4c-1.1,1.3-3,2.6-5.8,3.8l-0.3,0.1c-4.1,1.7-6.5,3.6-7.3,5.5  C482.6,149.1,482.1,149.3,481.7,149.3L481.7,149.3z"/>
<path class="st24" d="M351.7,174.1c1.1-1.6,2.6-5.4,2.6-7.4c0-0.8-0.1-1.7-1-1.7c-0.6,0-1.2,0.3-2,1.4c-1.5,1.9-3.1,5.6-3.1,8  c0,0.9,0.4,1.6,1.1,1.6C350,175.9,350.7,175.4,351.7,174.1 M348.6,165.9c1.8-1.7,3.4-2.1,4.8-2.1c2.8,0,3.9,1.9,3.9,4.3  c0,1.9-1,4.8-3.1,6.8c-1.8,1.8-3.6,2.2-4.9,2.2c-2.6,0-3.9-1.8-3.9-4.1C345.3,170.6,346.6,167.7,348.6,165.9"/>
<path class="st24" d="M364.1,165.6c-1.1,3.1-2.5,8.8-3.5,11.9c-0.8,2.4-1.6,4.3-2.4,5.3c-0.7,0.8-2.3,2.2-4.3,2.2  c-1.5,0-2.6-1-2.6-2.1c0-0.8,0.6-1.5,1.2-1.5c0.4,0,0.7,0.2,1,0.6c0.6,0.9,1.3,1.6,1.8,1.6c0.5,0,0.9-0.5,1.5-2.7  c1.1-3.8,2.6-9.8,4.1-15.3h-2.8c-0.3-0.4-0.1-1.2,0.4-1.4h2.8c0.7-2.4,1.4-4.6,2.7-6.4c1.6-2.3,3.5-3.6,6-3.6c1.9,0,3.1,1.1,3.1,2.4  c0,1.3-1,2.1-1.7,2.1c-0.4,0-0.6-0.2-0.7-0.6c-0.2-2.1-1.2-2.8-1.8-2.8c-0.7,0-1.4,0.8-2.1,2.1c-1,2.1-1.7,4.4-2.4,6.8h3.7  c0.3,0.4,0.1,1.1-0.4,1.4H364.1z"/>
<path class="st24" d="M401.5,164.7c0.1,3.2-0.3,5.8-2.4,8.3c-2.2,2.5-5.5,3.9-8.7,3.9c-6.6,0-12.2-5.5-12.2-12.2  c0-6.8,5.5-12.3,12.3-12.3c4.1,0,7.5,1.8,10,5.1l-1.9,1.8c-2-2.8-4.6-4.4-8.1-4.4c-5.4,0-9.6,4.5-9.6,9.9c0,2.5,1,4.9,2.8,6.7  c1.7,1.7,4.2,3,6.7,3c4.1,0,8.4-3,8.4-7.4h-7v-2.4H401.5z"/>
<path class="st24" d="M405.4,164.8c0,5.3,4.3,9.8,9.7,9.8c5.4,0,9.7-4.4,9.7-9.8c0-5.4-4.3-9.8-9.7-9.8  C409.7,155,405.4,159.4,405.4,164.8 M427.4,164.8c0,6.8-5.6,12.2-12.3,12.2c-6.7,0-12.3-5.4-12.3-12.2c0-6.8,5.6-12.2,12.3-12.2  C421.8,152.6,427.4,158.1,427.4,164.8"/>
<path class="st24" d="M431.2,164.8c0,5.3,4.3,9.8,9.7,9.8c5.4,0,9.7-4.4,9.7-9.8c0-5.4-4.3-9.8-9.7-9.8  C435.4,155,431.2,159.4,431.2,164.8 M453.2,164.8c0,6.8-5.6,12.2-12.3,12.2c-6.7,0-12.3-5.4-12.3-12.2c0-6.8,5.6-12.2,12.3-12.2  C447.6,152.6,453.2,158.1,453.2,164.8"/>
<path class="st24" d="M460,174.2c2.9,0,5.3-0.4,7.5-2.4c1.9-1.8,2.9-4.3,2.9-6.9c0-2.7-1-5.3-3.1-7.1c-2.2-1.9-4.5-2.3-7.3-2.3h-1.9  v18.7H460z M455.5,153h4.4c3.5,0,6.4,0.5,9.2,2.8c2.7,2.3,3.9,5.5,3.9,9c0,3.4-1.3,6.5-3.9,8.8c-2.8,2.5-5.6,3-9.3,3h-4.4V153z"/>
<path class="st24" d="M488.4,174.2c2.9,0,5.3-0.4,7.5-2.4c1.9-1.8,2.9-4.3,2.9-6.9c0-2.7-1-5.3-3.1-7.1c-2.2-1.9-4.5-2.3-7.3-2.3  h-1.9v18.7H488.4z M483.9,153h4.4c3.5,0,6.4,0.5,9.2,2.8c2.7,2.3,3.9,5.5,3.9,9c0,3.4-1.3,6.5-3.9,8.8c-2.8,2.5-5.6,3-9.3,3h-4.4  V153z"/>
<polygon class="st24" points="503.8,153 516.1,153 516.1,155.4 506.5,155.4 506.5,162.4 515.8,162.4 515.8,164.9 506.5,164.9   506.5,174.2 516.1,174.2 516.1,176.6 503.8,176.6 "/>
<path class="st24" d="M530,157.6c-0.9-1.6-2.1-2.6-4.1-2.6c-2.1,0-3.9,1.5-3.9,3.7c0,2,2.1,3,3.7,3.7l1.6,0.7  c3.1,1.3,5.7,2.9,5.7,6.6c0,4.1-3.3,7.3-7.4,7.3c-3.8,0-6.6-2.4-7.4-6.1l2.6-0.7c0.3,2.4,2.2,4.4,4.7,4.4c2.5,0,4.9-1.9,4.9-4.6  c0-2.8-2.2-3.7-4.4-4.7l-1.4-0.6c-2.8-1.2-5.1-2.7-5.1-6c0-3.7,3.1-6,6.6-6c2.6,0,4.9,1.3,6.1,3.7L530,157.6z"/>
<rect x="535.6" y="153" class="st24" width="2.6" height="23.6"/>
<path class="st24" d="M563.8,164.7c0.1,3.2-0.3,5.8-2.4,8.3c-2.2,2.5-5.5,3.9-8.7,3.9c-6.6,0-12.2-5.5-12.2-12.2  c0-6.8,5.5-12.3,12.3-12.3c4.1,0,7.5,1.8,10,5.1l-1.9,1.8c-2-2.8-4.6-4.4-8.1-4.4c-5.4,0-9.6,4.5-9.6,9.9c0,2.5,1,4.9,2.8,6.7  c1.7,1.7,4.2,3,6.7,3c4.1,0,8.4-3,8.4-7.4h-7v-2.4H563.8z"/>
<polygon class="st24" points="566.4,176.6 569,176.6 569,158.4 587.4,177.7 587.4,153 584.8,153 584.8,171.3 566.4,152 "/>
</svg>