<?xml version="1.0" encoding="utf-8"?>
<!-- Generator: Adobe Illustrator 26.0.2, SVG Export Plug-In . SVG Version: 6.00 Build 0)  -->
<svg version="1.1" id="Layer_1" xmlns="http://www.w3.org/2000/svg" xmlns:xlink="http://www.w3.org/1999/xlink" x="0px" y="0px"
	 viewBox="0 0 83 114.4" style="enable-background:new 0 0 83 114.4;" xml:space="preserve">
<style type="text/css">
	.st0{fill:#58595B;}
	.st1{fill:#808285;}
</style>
<g>
	<path class="st0" d="M15.8,59.8c-0.3,0.5-0.1,1.3-0.1,1.3s0.8,0,1.2-0.5c0.3-0.5,0.1-1.3,0.1-1.3S16.2,59.3,15.8,59.8z"/>
	<path class="st0" d="M8.9,51.2c-0.3,0.5-0.1,1.3-0.1,1.3s0.8,0,1.2-0.5c0.3-0.5,0.1-1.3,0.1-1.3S9.3,50.7,8.9,51.2z"/>
	<path class="st0" d="M6.9,106c-0.3,0.5-0.1,1.3-0.1,1.3s0.8,0,1.2-0.5c0.3-0.5,0.1-1.3,0.1-1.3S7.3,105.6,6.9,106z"/>
	<path class="st0" d="M11.6,83.6c-0.3,0.5-0.1,1.3-0.1,1.3s0.8,0,1.2-0.5c0.3-0.5,0.1-1.3,0.1-1.3S12,83.1,11.6,83.6z"/>
	<path class="st0" d="M16.3,91.9c-0.3,0.5-0.1,1.3-0.1,1.3s0.8,0,1.2-0.5c0.3-0.5,0.1-1.3,0.1-1.3S16.6,91.4,16.3,91.9z"/>
	<path class="st0" d="M13.3,86.2c-0.3,0.5-0.1,1.3-0.1,1.3s0.8,0,1.2-0.5c0.3-0.5,0.1-1.3,0.1-1.3S13.7,85.7,13.3,86.2z"/>
	<path class="st0" d="M17.6,82.9c-0.3,0.5-0.1,1.3-0.1,1.3s0.8,0,1.2-0.5c0.3-0.5,0.1-1.3,0.1-1.3S17.9,82.5,17.6,82.9z"/>
	<path class="st0" d="M20.9,89.3c-0.3,0.5-0.1,1.3-0.1,1.3s0.8,0,1.2-0.5c0.3-0.5,0.1-1.3,0.1-1.3S21.3,88.8,20.9,89.3z"/>
	<path class="st0" d="M14.8,89.8c-0.3,0.5-0.1,1.3-0.1,1.3s0.8,0,1.2-0.5c0.3-0.5,0.1-1.3,0.1-1.3S15.1,89.3,14.8,89.8z"/>
	<path class="st0" d="M15.6,94.9c-0.3,0.5-0.1,1.3-0.1,1.3s0.8,0,1.2-0.5c0.3-0.5,0.1-1.3,0.1-1.3S15.9,94.4,15.6,94.9z"/>
	<path class="st0" d="M12.6,96.9c-0.3,0.5-0.1,1.3-0.1,1.3s0.8,0,1.2-0.5c0.3-0.5,0.1-1.3,0.1-1.3S12.9,96.4,12.6,96.9z"/>
	<path class="st0" d="M13.6,101.4c-0.3,0.5-0.1,1.3-0.1,1.3s0.8,0,1.2-0.5c0.3-0.5,0.1-1.3,0.1-1.3S13.9,100.9,13.6,101.4z"/>
	<path class="st0" d="M18.9,99.2c-0.3,0.5-0.1,1.3-0.1,1.3s0.8,0,1.2-0.5c0.3-0.5,0.1-1.3,0.1-1.3S19.3,98.8,18.9,99.2z"/>
	<path class="st0" d="M22.4,106.6c-0.3,0.5-0.1,1.3-0.1,1.3s0.8,0,1.2-0.5c0.3-0.5,0.1-1.3,0.1-1.3S22.8,106.1,22.4,106.6z"/>
	<path class="st0" d="M19.8,107.4c-0.3,0.5-0.1,1.3-0.1,1.3s0.8,0,1.2-0.5c0.3-0.5,0.1-1.3,0.1-1.3S20.1,106.9,19.8,107.4z"/>
	<path class="st0" d="M14.6,105.2c-0.3,0.5-0.1,1.3-0.1,1.3s0.8,0,1.2-0.5c0.3-0.5,0.1-1.3,0.1-1.3S14.9,104.8,14.6,105.2z"/>
	<path class="st0" d="M9.3,107.7c-0.3,0.5-0.1,1.3-0.1,1.3s0.8,0,1.2-0.5c0.3-0.5,0.1-1.3,0.1-1.3S9.6,107.2,9.3,107.7z"/>
	<path class="st0" d="M5.8,109.2c-0.3,0.5-0.1,1.3-0.1,1.3s0.8,0,1.2-0.5c0.3-0.5,0.1-1.3,0.1-1.3S6.1,108.7,5.8,109.2z"/>
	<path class="st0" d="M2.4,109.4c-0.3,0.5-0.1,1.3-0.1,1.3s0.8,0,1.2-0.5c0.3-0.5,0.1-1.3,0.1-1.3S2.8,108.9,2.4,109.4z"/>
	<path class="st0" d="M5.9,112.2c-0.3,0.5-0.1,1.3-0.1,1.3s0.8,0,1.2-0.5c0.3-0.5,0.1-1.3,0.1-1.3S6.3,111.7,5.9,112.2z"/>
	<path class="st0" d="M10.3,112c-0.3,0.5-0.1,1.3-0.1,1.3s0.8,0,1.2-0.5c0.3-0.5,0.1-1.3,0.1-1.3S10.6,111.6,10.3,112z"/>
	<path class="st0" d="M16.8,112c-0.3,0.5-0.1,1.3-0.1,1.3s0.8,0,1.2-0.5c0.3-0.5,0.1-1.3,0.1-1.3S17.1,111.6,16.8,112z"/>
	<path class="st0" d="M17.3,106.7c-0.3,0.5-0.1,1.3-0.1,1.3s0.8,0,1.2-0.5c0.3-0.5,0.1-1.3,0.1-1.3S17.6,106.2,17.3,106.7z"/>
	<path class="st0" d="M6.3,101.9c-0.3,0.5-0.1,1.3-0.1,1.3s0.8,0,1.2-0.5c0.3-0.5,0.1-1.3,0.1-1.3S6.6,101.4,6.3,101.9z"/>
	<path class="st0" d="M1.9,97.7C1.6,98.2,1.9,99,1.9,99s0.8,0,1.2-0.5c0.3-0.5,0.1-1.3,0.1-1.3S2.3,97.3,1.9,97.7z"/>
	<path class="st0" d="M6.6,96.6c-0.3,0.5-0.1,1.3-0.1,1.3s0.8,0,1.2-0.5c0.3-0.5,0.1-1.3,0.1-1.3S6.9,96.1,6.6,96.6z"/>
	<path class="st0" d="M8.6,99.7c-0.3,0.5-0.1,1.3-0.1,1.3s0.8,0,1.2-0.5c0.3-0.5,0.1-1.3,0.1-1.3S8.9,99.3,8.6,99.7z"/>
	<path class="st0" d="M13.3,103.1c-0.3,0.5-0.1,1.3-0.1,1.3s0.8,0,1.2-0.5c0.3-0.5,0.1-1.3,0.1-1.3S13.6,102.6,13.3,103.1z"/>
	<path class="st0" d="M21.4,102.7c-0.3,0.5-0.1,1.3-0.1,1.3s0.8,0,1.2-0.5c0.3-0.5,0.1-1.3,0.1-1.3S21.8,102.3,21.4,102.7z"/>
	<path class="st0" d="M19.1,81.3c-0.3,0.5-0.1,1.3-0.1,1.3s0.8,0,1.2-0.5c0.3-0.5,0.1-1.3,0.1-1.3S19.4,80.8,19.1,81.3z"/>
	<path class="st0" d="M16.9,75.3c-0.3,0.5-0.1,1.3-0.1,1.3s0.8,0,1.2-0.5c0.3-0.5,0.1-1.3,0.1-1.3S17.3,74.8,16.9,75.3z"/>
	<path class="st0" d="M6.8,75.3c-0.3,0.5-0.1,1.3-0.1,1.3s0.8,0,1.2-0.5c0.3-0.5,0.1-1.3,0.1-1.3S7.1,74.8,6.8,75.3z"/>
	<path class="st0" d="M1.1,70.9c-0.3,0.5-0.1,1.3-0.1,1.3s0.8,0,1.2-0.5c0.3-0.5,0.1-1.3,0.1-1.3S1.5,70.5,1.1,70.9z"/>
	<path class="st0" d="M1.6,79.4c-0.3,0.5-0.1,1.3-0.1,1.3s0.8,0,1.2-0.5C3.1,79.8,2.8,79,2.8,79S2,79,1.6,79.4z"/>
	<path class="st0" d="M20.6,72.9c-0.3,0.5-0.1,1.3-0.1,1.3s0.8,0,1.2-0.5c0.3-0.5,0.1-1.3,0.1-1.3S20.9,72.5,20.6,72.9z"/>
	<path class="st0" d="M22.1,81.3c-0.3,0.5-0.1,1.3-0.1,1.3s0.8,0,1.2-0.5c0.3-0.5,0.1-1.3,0.1-1.3S22.4,80.8,22.1,81.3z"/>
	<path class="st0" d="M22.1,87.8C21.7,88.2,22,89,22,89s0.8,0,1.2-0.5c0.3-0.5,0.1-1.3,0.1-1.3S22.4,87.3,22.1,87.8z"/>
	<path class="st0" d="M10.6,71.1c-0.3,0.5-0.1,1.3-0.1,1.3s0.8,0,1.2-0.5c0.3-0.5,0.1-1.3,0.1-1.3S10.9,70.6,10.6,71.1z"/>
	<path class="st0" d="M5.9,73.6c-0.3,0.5-0.1,1.3-0.1,1.3s0.8,0,1.2-0.5c0.3-0.5,0.1-1.3,0.1-1.3S6.3,73.1,5.9,73.6z"/>
	<path class="st0" d="M12,105.6c-0.2,0.6,0.3,1.2,0.3,1.2s0.8-0.2,1-0.8c0.2-0.6-0.3-1.2-0.3-1.2S12.2,105,12,105.6z"/>
	<path class="st0" d="M13.1,101.4c0.1,0.7,3.1,2.7,3.1,2.7s2.8,0.8,2.7,0.1c-0.1-0.7-3.1-2.7-3.1-2.7S13,100.7,13.1,101.4z"/>
	<path class="st0" d="M22.1,72.1c-0.3,0.5-0.1,1.3-0.1,1.3s0.8,0,1.2-0.5c0.3-0.5,0.1-1.3,0.1-1.3S22.4,71.7,22.1,72.1z"/>
	<path class="st0" d="M20.3,61.9c-0.3,0.5-0.1,1.3-0.1,1.3s0.8,0,1.2-0.5c0.3-0.5,0.1-1.3,0.1-1.3S20.6,61.4,20.3,61.9z"/>
	<path class="st0" d="M16.1,64.9c-0.3,0.5-0.1,1.3-0.1,1.3s0.8,0,1.2-0.5c0.3-0.5,0.1-1.3,0.1-1.3S16.4,64.4,16.1,64.9z"/>
	<path class="st0" d="M18.9,75.5c-0.3,0.5-0.1,1.3-0.1,1.3s0.8,0,1.2-0.5c0.3-0.5,0.1-1.3,0.1-1.3S19.3,75.1,18.9,75.5z"/>
	<path class="st0" d="M5.1,75.5c-0.3,0.5-0.1,1.3-0.1,1.3s0.8,0,1.2-0.5c0.3-0.5,0.1-1.3,0.1-1.3S5.5,75.1,5.1,75.5z"/>
	<path class="st0" d="M5.4,91.4c0.7-0.6,1.7-0.6,1.7-0.6s-0.2,1.1-1,1.7c-0.7,0.6-1.7,0.6-1.7,0.6S4.6,92,5.4,91.4z"/>
	<path class="st0" d="M4.5,96.2c0.7-0.6,1.7-0.6,1.7-0.6s-0.2,1.1-1,1.7C4.5,98.1,3.6,98,3.6,98S3.8,96.9,4.5,96.2z"/>
	<path class="st0" d="M5.5,82.3c-0.3,0.5-0.1,1.3-0.1,1.3s0.8,0,1.2-0.5c0.3-0.5,0.1-1.3,0.1-1.3S5.8,81.8,5.5,82.3z"/>
	<path class="st0" d="M11.3,79.4c-0.3,0.5-0.1,1.3-0.1,1.3s0.8,0,1.2-0.5c0.3-0.5,0.1-1.3,0.1-1.3S11.7,78.9,11.3,79.4z"/>
	<path class="st0" d="M3.6,96.3c-0.3,0.5-0.1,1.3-0.1,1.3s0.8,0,1.2-0.5c0.3-0.5,0.1-1.3,0.1-1.3S4,95.8,3.6,96.3z"/>
	<path class="st0" d="M21.5,83.6c-0.3,0.5-0.1,1.3-0.1,1.3s0.8,0,1.2-0.5c0.3-0.5,0.1-1.3,0.1-1.3S21.9,83.1,21.5,83.6z"/>
	<path class="st0" d="M13.9,98.5c-0.3,0.5-0.1,1.3-0.1,1.3s0.8,0,1.2-0.5c0.3-0.5,0.1-1.3,0.1-1.3S14.3,98.1,13.9,98.5z"/>
	<path class="st0" d="M16,90.4c-0.3,0.5-0.1,1.3-0.1,1.3s0.8,0,1.2-0.5c0.3-0.5,0.1-1.3,0.1-1.3S16.4,89.9,16,90.4z"/>
	<path class="st0" d="M11.3,86.4c-0.3,0.5-0.1,1.3-0.1,1.3s0.8,0,1.2-0.5c0.3-0.5,0.1-1.3,0.1-1.3S11.6,86,11.3,86.4z"/>
	<path class="st0" d="M7.4,92.8C7,93.2,7.3,94,7.3,94s0.8,0,1.2-0.5c0.3-0.5,0.1-1.3,0.1-1.3S7.7,92.3,7.4,92.8z"/>
	<path class="st0" d="M2.4,111.9c-0.3,0.5-0.1,1.3-0.1,1.3s0.8,0,1.2-0.5c0.3-0.5,0.1-1.3,0.1-1.3S2.7,111.5,2.4,111.9z"/>
	<path class="st0" d="M7.4,110.9c-0.3,0.5-0.1,1.3-0.1,1.3s0.8,0,1.2-0.5c0.3-0.5,0.1-1.3,0.1-1.3S7.7,110.4,7.4,110.9z"/>
	<path class="st0" d="M11,100.4c-0.3,0.5-0.1,1.3-0.1,1.3s0.8,0,1.2-0.5c0.3-0.5,0.1-1.3,0.1-1.3S11.4,99.9,11,100.4z"/>
	<path class="st0" d="M6.6,99.3c-0.3,0.5-0.1,1.3-0.1,1.3s0.8,0,1.2-0.5c0.3-0.5,0.1-1.3,0.1-1.3S6.9,98.8,6.6,99.3z"/>
	<path class="st0" d="M3.2,87c-0.3,0.5-0.1,1.3-0.1,1.3s0.8,0,1.2-0.5c0.3-0.5,0.1-1.3,0.1-1.3S3.5,86.5,3.2,87z"/>
	<path class="st0" d="M4.7,70.9c-0.3,0.5-0.1,1.3-0.1,1.3s0.8,0,1.2-0.5c0.3-0.5,0.1-1.3,0.1-1.3S5.1,70.5,4.7,70.9z"/>
	<path class="st0" d="M3.4,61c-0.3,0.5-0.1,1.3-0.1,1.3s0.8,0,1.2-0.5c0.3-0.5,0.1-1.3,0.1-1.3S3.8,60.5,3.4,61z"/>
	<path class="st0" d="M10,54.5C9.7,55,10,55.8,10,55.8s0.8,0,1.2-0.5c0.3-0.5,0.1-1.3,0.1-1.3S10.4,54.1,10,54.5z"/>
	<path class="st0" d="M14.7,44.3c-0.3,0.5-0.1,1.3-0.1,1.3s0.8,0,1.2-0.5c0.3-0.5,0.1-1.3,0.1-1.3S15.1,43.8,14.7,44.3z"/>
	<path class="st0" d="M2.4,35.6c-0.3,0.5-0.1,1.3-0.1,1.3s0.8,0,1.2-0.5c0.3-0.5,0.1-1.3,0.1-1.3S2.7,35.1,2.4,35.6z"/>
	<path class="st0" d="M6.3,25.6c-0.3,0.5-0.1,1.3-0.1,1.3s0.8,0,1.2-0.5c0.3-0.5,0.1-1.3,0.1-1.3S6.7,25.2,6.3,25.6z"/>
	<path class="st0" d="M4,28.1c-0.6,0.8-0.1,2.1-0.1,2.1s1.4,0,2-0.8c0.6-0.8,0.1-2.1,0.1-2.1S4.5,27.3,4,28.1z"/>
	<path class="st0" d="M7.4,13c-0.3,0.5-0.1,1.3-0.1,1.3s0.8,0,1.2-0.5c0.3-0.5,0.1-1.3,0.1-1.3S7.7,12.6,7.4,13z"/>
	<path class="st0" d="M6.6,19.3c-0.3,0.5-0.1,1.3-0.1,1.3s0.8,0,1.2-0.5c0.3-0.5,0.1-1.3,0.1-1.3S6.9,18.9,6.6,19.3z"/>
	<path class="st0" d="M2.4,5.2C2.1,5.6,2.3,6.4,2.3,6.4s0.8,0,1.2-0.5c0.3-0.5,0.1-1.3,0.1-1.3S2.7,4.7,2.4,5.2z"/>
	<path class="st0" d="M7.1,8C6.8,8.5,7.1,9.3,7.1,9.3s0.8,0,1.2-0.5c0.3-0.5,0.1-1.3,0.1-1.3S7.5,7.6,7.1,8z"/>
	<path class="st0" d="M10.1,74.5C9.8,75,10,75.8,10,75.8s0.8,0,1.2-0.5c0.3-0.5,0.1-1.3,0.1-1.3S10.4,74.1,10.1,74.5z"/>
	<path class="st0" d="M9.6,80.3c0.5,0.4,1.3,0.1,1.3,0.1s0.1-0.8-0.4-1.2c-0.5-0.4-1.3-0.1-1.3-0.1S9.1,79.9,9.6,80.3z"/>
	<path class="st0" d="M11.1,78.2c0.5,0.4,1.3,0.1,1.3,0.1s0.1-0.8-0.4-1.2c-0.5-0.4-1.3-0.1-1.3-0.1S10.7,77.8,11.1,78.2z"/>
	<path class="st0" d="M11.6,108.8c-0.3,0.5-0.1,1.3-0.1,1.3s0.8,0,1.2-0.5c0.3-0.5,0.1-1.3,0.1-1.3S11.9,108.4,11.6,108.8z"/>
	<path class="st0" d="M8.8,76.9c-0.3,0.5-0.1,1.3-0.1,1.3s0.8,0,1.2-0.5c0.3-0.5,0.1-1.3,0.1-1.3S9.1,76.5,8.8,76.9z"/>
	<path class="st0" d="M8.8,67.2c-0.6,0.8-0.1,2.1-0.1,2.1s1.4,0,2-0.8c0.6-0.8,0.1-2.1,0.1-2.1S9.4,66.4,8.8,67.2z"/>
	<path class="st0" d="M1.7,75c-0.6,0.8-0.1,2.1-0.1,2.1s1.4,0,2-0.8c0.6-0.8,0.1-2.1,0.1-2.1S2.2,74.2,1.7,75z"/>
	<path class="st0" d="M6.2,61.6c-0.6,0.8-0.1,2.1-0.1,2.1s1.4,0,2-0.8c0.6-0.8,0.1-2.1,0.1-2.1S6.7,60.8,6.2,61.6z"/>
	<path class="st0" d="M2,58.3c-0.6,0.8-0.1,2.1-0.1,2.1s1.4,0,2-0.8c0.6-0.8,0.1-2.1,0.1-2.1S2.5,57.5,2,58.3z"/>
	<path class="st0" d="M21.1,77.6c-0.6,0.8-0.1,2.1-0.1,2.1s1.4,0,2-0.8c0.6-0.8,0.1-2.1,0.1-2.1S21.7,76.8,21.1,77.6z"/>
	<path class="st0" d="M20.1,86.4c-0.6,0.8-0.1,2.1-0.1,2.1s1.4,0,2-0.8c0.6-0.8,0.1-2.1,0.1-2.1S20.6,85.6,20.1,86.4z"/>
	<path class="st0" d="M21.3,99.2c-0.6,0.8-0.1,2.1-0.1,2.1s1.4,0,2-0.8c0.6-0.8,0.1-2.1,0.1-2.1S21.8,98.4,21.3,99.2z"/>
	<path class="st0" d="M3.6,101.2c0.7,0.7,0.3,2.1,0.3,2.1s-1.4,0.2-2-0.6c-0.7-0.7-0.3-2.1-0.3-2.1S3,100.5,3.6,101.2z"/>
	<path class="st0" d="M3.6,106c0.7,0.7,0.3,2.1,0.3,2.1s-1.4,0.2-2-0.6c-0.7-0.7-0.3-2.1-0.3-2.1S3,105.3,3.6,106z"/>
	<path class="st0" d="M11.4,104.1c0.7,0.7,0.3,2.1,0.3,2.1s-1.4,0.2-2-0.6c-0.7-0.7-0.3-2.1-0.3-2.1S10.8,103.3,11.4,104.1z"/>
	<path class="st0" d="M3.5,91.8c0.7,0.7,0.3,2.1,0.3,2.1s-1.4,0.2-2-0.6c-0.7-0.7-0.3-2.1-0.3-2.1S2.8,91.1,3.5,91.8z"/>
	<path class="st0" d="M13.6,110.8c0.7,0.7,0.3,2.1,0.3,2.1s-1.4,0.2-2-0.6c-0.7-0.7-0.3-2.1-0.3-2.1S13,110.1,13.6,110.8z"/>
	<path class="st0" d="M16.9,108.9c0.7,0.7,0.3,2.1,0.3,2.1s-1.4,0.2-2-0.6c-0.7-0.7-0.3-2.1-0.3-2.1S16.3,108.1,16.9,108.9z"/>
	<path class="st0" d="M20.2,96.2c0.7,0.7,0.3,2.1,0.3,2.1s-1.4,0.2-2-0.6c-0.7-0.7-0.3-2.1-0.3-2.1S19.6,95.4,20.2,96.2z"/>
	<path class="st0" d="M10.7,95.1c0.7,0.7,0.3,2.1,0.3,2.1s-1.4,0.2-2-0.6c-0.7-0.7-0.3-2.1-0.3-2.1S10,94.4,10.7,95.1z"/>
	<path class="st0" d="M18.3,86.1c0.6,0.7,0.3,2.1,0.3,2.1s-1.4,0.2-2-0.6c-0.7-0.7-0.3-2.1-0.3-2.1S17.6,85.4,18.3,86.1z"/>
	<path class="st0" d="M8.3,86.7c0.7,0.7,0.3,2.1,0.3,2.1s-1.4,0.2-2-0.6c-0.7-0.7-0.3-2.1-0.3-2.1S7.6,86,8.3,86.7z"/>
	<path class="st0" d="M3.9,83.9C4.6,84.6,4.2,86,4.2,86s-1.4,0.2-2-0.6c-0.7-0.7-0.3-2.1-0.3-2.1S3.3,83.2,3.9,83.9z"/>
	<path class="st0" d="M15.1,69.7c0.7,0.7,0.3,2.1,0.3,2.1s-1.4,0.2-2-0.6c-0.7-0.7-0.3-2.1-0.3-2.1S14.5,69,15.1,69.7z"/>
	<path class="st0" d="M16.8,77.8c0.7,0.7,0.3,2.1,0.3,2.1s-1.4,0.2-2-0.6c-0.7-0.7-0.3-2.1-0.3-2.1S16.1,77,16.8,77.8z"/>
	<path class="st0" d="M16,82.7c0.7,0.7,0.3,2.1,0.3,2.1s-1.4,0.2-2-0.6c-0.7-0.7-0.3-2.1-0.3-2.1S15.4,82,16,82.7z"/>
	<path class="st0" d="M14.1,93.6c0.7,0.7,0.3,2.1,0.3,2.1s-1.4,0.2-2-0.6C11.7,94.4,12,93,12,93S13.4,92.9,14.1,93.6z"/>
	<path class="st0" d="M21.1,92.3c0.7,0.7,0.3,2.1,0.3,2.1s-1.4,0.2-2-0.6c-0.7-0.7-0.3-2.1-0.3-2.1S20.5,91.5,21.1,92.3z"/>
	<path class="st0" d="M8.8,81.7C8.5,82.2,8.7,83,8.7,83s0.8,0,1.2-0.5c0.3-0.5,0.1-1.3,0.1-1.3S9.1,81.3,8.8,81.7z"/>
	<path class="st0" d="M11.8,74.5c-0.3,0.5-0.1,1.3-0.1,1.3s0.8,0,1.2-0.5c0.3-0.5,0.1-1.3,0.1-1.3S12.1,74.1,11.8,74.5z"/>
	<path class="st0" d="M12.3,8.1c-0.3,0.5-0.1,1.3-0.1,1.3s0.8,0,1.2-0.5c0.3-0.5,0.1-1.3,0.1-1.3S12.6,7.6,12.3,8.1z"/>
	<path class="st0" d="M5.6,1.7C5.3,2.2,5.6,3,5.6,3s0.8,0,1.2-0.5C7.1,2,6.8,1.3,6.8,1.3S5.9,1.2,5.6,1.7z"/>
	<rect x="16" y="7.4" class="st0" width="1.4" height="1.4"/>
	<rect x="74.9" y="48" class="st1" width="1.3" height="1.3"/>
	<rect x="57.7" y="10.6" class="st1" width="1.3" height="1.3"/>
	<rect x="47" y="16" class="st1" width="1.3" height="1.3"/>
	<rect x="32.5" y="17.8" class="st1" width="1.3" height="1.3"/>
	<rect x="40.2" y="9.2" class="st1" width="1.3" height="1.3"/>
	<rect x="30.2" y="1.9" class="st1" width="1.3" height="1.3"/>
	<rect x="65.6" y="44.7" class="st1" width="1.3" height="1.3"/>
	<rect x="54.9" y="61" class="st1" width="1.3" height="1.3"/>
	<rect x="69.4" y="48.5" class="st1" width="1.3" height="1.3"/>
	<rect x="65" y="60.8" class="st1" width="1.3" height="1.3"/>
	<rect x="68.1" y="30.9" class="st1" width="1.3" height="1.3"/>
	<rect x="69.2" y="27.3" class="st1" width="1.3" height="1.3"/>
	<rect x="62.1" y="25.1" class="st1" width="1.3" height="1.3"/>
	<rect x="58.6" y="33.2" class="st1" width="1.3" height="1.3"/>
	<rect x="72.2" y="42" class="st1" width="1.3" height="1.3"/>
	<rect x="47.8" y="81.2" class="st1" width="1.3" height="1.3"/>
	<rect x="29.8" y="82.8" class="st1" width="1.3" height="1.3"/>
	<rect x="31" y="76.4" class="st1" width="1.3" height="1.3"/>
	<rect x="38.2" y="81.2" class="st1" width="1.3" height="1.3"/>
	<rect x="43.6" y="68.1" class="st1" width="1.3" height="1.3"/>
	<rect x="59" y="78.7" class="st1" width="1.3" height="1.3"/>
	<rect x="63.4" y="66.2" class="st1" width="1.3" height="1.3"/>
	<rect x="58.1" y="55.4" class="st1" width="1.3" height="1.3"/>
	<rect x="50.2" y="59.7" class="st1" width="1.3" height="1.3"/>
	<rect x="43.6" y="62.6" class="st1" width="1.3" height="1.3"/>
	<rect x="50" y="69.4" class="st1" width="1.3" height="1.3"/>
	<rect x="68.3" y="57.9" class="st1" width="1.3" height="1.3"/>
	<rect x="44.7" y="83.8" class="st1" width="1.3" height="1.3"/>
	<rect x="58.4" y="50.1" class="st1" width="1.3" height="1.3"/>
	<rect x="62.6" y="44.9" class="st1" width="1.3" height="1.3"/>
	<rect x="79.9" y="33.8" class="st1" width="1.3" height="1.3"/>
	<rect x="73.6" y="25.7" class="st1" width="1.3" height="1.3"/>
	<rect x="61.8" y="19.6" class="st1" width="1.3" height="1.3"/>
	<rect x="64.3" y="11.3" class="st1" width="1.3" height="1.3"/>
	<rect x="57.1" y="7.9" class="st1" width="1.3" height="1.3"/>
	<rect x="39.8" y="16" class="st1" width="1.3" height="1.3"/>
	<rect x="37.4" y="6.9" class="st1" width="1.3" height="1.3"/>
	<rect x="35.1" y="2.8" class="st1" width="1.3" height="1.3"/>
	<rect x="30.1" y="9.4" class="st1" width="1.3" height="1.3"/>
	<rect x="35.1" y="12.8" class="st1" width="1.3" height="1.3"/>
	<rect x="43" y="12.2" class="st1" width="1.3" height="1.3"/>
	<rect x="46" y="18.9" class="st1" width="1.3" height="1.3"/>
	<rect x="53.2" y="22.4" transform="matrix(0.876 -0.4823 0.4823 0.876 -4.4671 28.8434)" class="st1" width="1.3" height="1.3"/>
	<rect x="56.1" y="15.9" transform="matrix(0.8763 -0.4817 0.4817 0.8763 -0.9431 29.3951)" class="st1" width="1.3" height="1.3"/>
	<rect x="53.4" y="10.9" transform="matrix(0.8764 -0.4816 0.4816 0.8764 1.1374 27.4762)" class="st1" width="1.3" height="1.3"/>
	<rect x="54.9" y="5.7" transform="matrix(0.8761 -0.4822 0.4822 0.8761 3.8286 27.5582)" class="st1" width="1.3" height="1.3"/>
	<rect x="59.3" y="6.7" transform="matrix(0.8759 -0.4826 0.4826 0.8759 3.8743 29.8715)" class="st1" width="1.3" height="1.3"/>
	<rect x="65.4" y="16.9" transform="matrix(0.8762 -0.482 0.482 0.8762 -0.3041 34.0335)" class="st1" width="1.3" height="1.3"/>
	<rect x="59.9" y="29.8" transform="matrix(0.8763 -0.4817 0.4817 0.8763 -7.2038 32.9345)" class="st1" width="1.3" height="1.3"/>
	<rect x="63.3" y="38.4" transform="matrix(0.876 -0.4824 0.4824 0.876 -11.1176 36.0166)" class="st1" width="2.4" height="2.4"/>
	<rect x="66.8" y="34.3" transform="matrix(0.876 -0.4822 0.4822 0.876 -8.6874 37.219)" class="st1" width="2.4" height="2.4"/>
	<rect x="76.9" y="26.8" transform="matrix(0.8759 -0.4826 0.4826 0.8759 -3.8149 41.1523)" class="st1" width="2.4" height="2.4"/>
	<rect x="65.6" y="23.2" transform="matrix(0.8759 -0.4824 0.4824 0.8759 -3.489 35.2533)" class="st1" width="2.4" height="2.4"/>
	
		<rect x="78.3" y="46.3" transform="matrix(0.8761 -0.4821 0.4821 0.8761 -13.0505 44.2136)" class="st1" width="2.4" height="2.4"/>
	<rect x="72.9" y="54" transform="matrix(0.8761 -0.4821 0.4821 0.8761 -17.4262 42.5768)" class="st1" width="2.4" height="2.4"/>
	<rect x="75.4" y="57.6" transform="matrix(0.876 -0.4822 0.4822 0.876 -18.8441 44.2468)" class="st1" width="2.4" height="2.4"/>
	<rect x="60.8" y="70.5" transform="matrix(0.8759 -0.4824 0.4824 0.8759 -26.8849 38.784)" class="st1" width="2.4" height="2.4"/>
	<rect x="52.2" y="81" transform="matrix(0.8759 -0.4824 0.4824 0.8759 -33.0456 35.9492)" class="st1" width="2.4" height="2.4"/>
	<rect x="55.8" y="23.8" class="st1" width="1.3" height="1.3"/>
	<rect x="59.9" y="11.6" class="st1" width="1.3" height="1.3"/>
	<rect x="11" y="81.1" class="st0" width="1.3" height="1.3"/>
	<rect x="12.9" y="75.4" class="st0" width="1.3" height="1.3"/>
	<rect x="8.2" y="72.3" class="st0" width="1.3" height="1.3"/>
	<rect x="17" y="79.6" class="st0" width="1.3" height="1.3"/>
	<rect x="12.2" y="80.8" class="st0" width="1.3" height="1.3"/>
	<rect x="7.5" y="83.3" class="st0" width="1.3" height="1.3"/>
	<rect x="8" y="79.6" class="st0" width="1.3" height="1.3"/>
	<rect x="3" y="80.6" class="st0" width="1.3" height="1.3"/>
	<rect x="19.2" y="15.4" class="st0" width="1.3" height="1.3"/>
	<rect x="19.9" y="109.5" class="st0" width="4.2" height="4.2"/>
	<rect x="13.8" y="37.2" class="st0" width="4.2" height="4.2"/>
	<rect x="31.6" y="5.6" class="st1" width="4.2" height="4.2"/>
	<rect x="55.3" y="69.4" class="st1" width="4.2" height="4.2"/>
	<rect x="37" y="73.7" class="st1" width="2.4" height="2.5"/>
	<rect x="48.3" y="9.3" class="st1" width="4.2" height="4.2"/>
	<rect x="40.6" y="20.4" class="st1" width="4.2" height="4.2"/>
	<rect x="78.1" y="38.8" class="st1" width="4.2" height="4.2"/>
	<rect x="57.4" y="63.1" class="st1" width="3" height="3"/>
	<rect x="29.5" y="71.6" class="st1" width="3" height="3"/>
	<rect x="32.4" y="82.5" class="st1" width="3" height="3"/>
	<rect x="49.2" y="76.1" class="st1" width="3" height="3"/>
	<rect x="34.2" y="71.6" class="st1" width="1.7" height="1.7"/>
	<rect x="33.2" y="64.9" class="st1" width="1.7" height="1.7"/>
	<rect x="37.1" y="68.9" class="st1" width="1.7" height="1.7"/>
	<rect x="40.4" y="63.3" class="st1" width="1.7" height="1.7"/>
	<rect x="41.4" y="74.9" class="st1" width="1.7" height="1.7"/>
	<rect x="33.7" y="78.3" class="st1" width="1.7" height="1.7"/>
	<rect x="46.5" y="75.5" class="st1" width="1.7" height="1.7"/>
	<rect x="51.3" y="72.1" class="st1" width="1.7" height="1.7"/>
	<rect x="53.8" y="66" class="st1" width="1.7" height="1.7"/>
	<rect x="47" y="68.3" class="st1" width="1.7" height="1.7"/>
	<rect x="60.6" y="59.4" class="st1" width="1.7" height="1.7"/>
	<rect x="54.7" y="76.9" class="st1" width="1.7" height="1.7"/>
	<rect x="49.2" y="82.9" class="st1" width="1.7" height="1.7"/>
	<rect x="42.3" y="80.8" class="st1" width="1.7" height="1.7"/>
	<rect x="38" y="84" class="st1" width="1.7" height="1.7"/>
	<rect x="44.1" y="75.9" class="st1" width="1.7" height="1.7"/>
	<rect x="40.2" y="72.4" class="st1" width="1.7" height="1.7"/>
	<rect x="58.3" y="74.9" class="st1" width="1.7" height="1.7"/>
	<rect x="66.7" y="72.6" class="st1" width="1.7" height="1.7"/>
	<rect x="70.8" y="69" class="st1" width="1.7" height="1.7"/>
	<rect x="66.7" y="64.4" class="st1" width="1.7" height="1.7"/>
	<rect x="71.7" y="57.8" class="st1" width="1.7" height="1.7"/>
	<rect x="65.1" y="55.4" class="st1" width="1.7" height="1.7"/>
	<rect x="61.8" y="62.8" class="st1" width="1.7" height="1.7"/>
	<rect x="67.8" y="61.3" class="st1" width="1.7" height="1.7"/>
	<rect x="59.3" y="46.3" class="st1" width="1.7" height="1.7"/>
	<rect x="62.9" y="49.5" class="st1" width="1.7" height="1.7"/>
	<rect x="57" y="53.5" class="st1" width="1.7" height="1.7"/>
	<rect x="68.8" y="44.3" class="st1" width="1.7" height="1.7"/>
	<rect x="75.6" y="39.7" class="st1" width="1.7" height="1.7"/>
	<rect x="62.1" y="73.9" class="st1" width="3" height="3"/>
	<rect x="70.3" y="65.2" class="st1" width="3" height="3"/>
	<rect x="66.4" y="50.5" class="st1" width="3" height="3"/>
	<rect x="71" y="35.1" class="st1" width="3" height="3"/>
	<rect x="58.3" y="20.1" class="st1" width="3" height="3"/>
	<rect x="41.6" y="1.6" class="st1" width="4.2" height="4.2"/>
	<rect x="15.8" y="68.5" class="st0" width="4.2" height="4.2"/>
	<rect x="19.8" y="64.2" class="st0" width="4.2" height="4.2"/>
	<rect x="9.2" y="55.5" class="st0" width="4.2" height="4.2"/>
	<rect x="14" y="51.2" class="st0" width="4.2" height="4.2"/>
	<path class="st0" d="M19.8,104.3c-0.1,0.8-0.9,1.4-1.7,1.3c-0.8-0.1-1.4-0.9-1.3-1.7c0.1-0.8,0.9-1.4,1.7-1.3
		C19.4,102.7,19.9,103.4,19.8,104.3z"/>
	<path class="st0" d="M6,78.7c-0.1,0.5-0.5,0.8-1,0.8c-0.5-0.1-0.8-0.5-0.8-1c0.1-0.5,0.5-0.8,1-0.8C5.7,77.8,6,78.2,6,78.7z"/>
	<path class="st0" d="M12.8,16c-0.1,0.8-0.9,1.4-1.7,1.3c-0.8-0.1-1.4-0.9-1.3-1.7c0.1-0.8,0.9-1.4,1.7-1.3
		C12.3,14.4,12.9,15.1,12.8,16z"/>
	<path class="st0" d="M17.4,10.9c-0.1,0.8-0.9,1.4-1.7,1.3c-0.8-0.1-1.4-0.9-1.3-1.7c0.1-0.8,0.9-1.4,1.7-1.3
		C17,9.3,17.6,10.1,17.4,10.9z"/>
	<path class="st0" d="M11.7,12.8c-0.1,0.6-0.7,1.1-1.3,1c-0.6-0.1-1.1-0.7-1-1.3c0.1-0.6,0.7-1.1,1.3-1
		C11.3,11.6,11.8,12.2,11.7,12.8z"/>
	<path class="st0" d="M17.9,15.2c-0.1,0.6-0.7,1.1-1.3,1c-0.6-0.1-1.1-0.7-1-1.3c0.1-0.6,0.7-1.1,1.3-1C17.6,14,18,14.6,17.9,15.2z"
		/>
	<path class="st1" d="M61.3,17.2c-0.1,0.6-0.7,1.1-1.3,1c-0.6-0.1-1.1-0.7-1-1.3c0.1-0.6,0.7-1.1,1.3-1C61,16,61.4,16.6,61.3,17.2z"
		/>
	<path class="st1" d="M65.1,34.8c-0.1,0.6-0.7,1.1-1.3,1c-0.6-0.1-1.1-0.7-1-1.3c0.1-0.6,0.7-1.1,1.3-1
		C64.7,33.6,65.2,34.1,65.1,34.8z"/>
	<path class="st1" d="M69.7,15.4c-0.1,0.6-0.7,1.1-1.3,1c-0.6-0.1-1.1-0.7-1-1.3c0.1-0.6,0.7-1.1,1.3-1
		C69.4,14.2,69.8,14.8,69.7,15.4z"/>
	<path class="st1" d="M53.3,5.1c-0.1,0.6-0.7,1.1-1.3,1c-0.6-0.1-1.1-0.7-1-1.3c0.1-0.6,0.7-1.1,1.3-1C52.9,3.8,53.4,4.4,53.3,5.1z"
		/>
	<path class="st1" d="M38.1,17.1c-0.1,0.6-0.7,1.1-1.3,1c-0.6-0.1-1.1-0.7-1-1.3c0.1-0.6,0.7-1.1,1.3-1
		C37.7,15.8,38.1,16.4,38.1,17.1z"/>
	<path class="st1" d="M31.8,22.8c-0.1,0.6-0.7,1.1-1.3,1c-0.6-0.1-1.1-0.7-1-1.3c0.1-0.6,0.7-1.1,1.3-1
		C31.4,21.6,31.9,22.2,31.8,22.8z"/>
	<path class="st1" d="M32,14.2c-0.1,0.6-0.7,1.1-1.3,1c-0.6-0.1-1.1-0.7-1-1.3c0.1-0.6,0.7-1.1,1.3-1C31.6,13,32.1,13.6,32,14.2z"/>
	<path class="st1" d="M57.4,27.8c-0.1,0.6-0.7,1.1-1.3,1c-0.6-0.1-1.1-0.7-1-1.3c0.1-0.6,0.7-1.1,1.3-1C57,26.6,57.5,27.2,57.4,27.8
		z"/>
	<path class="st1" d="M70.5,40.3c-0.1,0.6-0.7,1.1-1.3,1c-0.6-0.1-1.1-0.7-1-1.3c0.1-0.6,0.7-1.1,1.3-1
		C70.1,39.1,70.5,39.7,70.5,40.3z"/>
	<path class="st1" d="M77.4,32.3c-0.1,0.6-0.7,1.1-1.3,1c-0.6-0.1-1.1-0.7-1-1.3c0.1-0.6,0.7-1.1,1.3-1C77.1,31,77.5,31.6,77.4,32.3
		z"/>
	<path class="st1" d="M73.9,21.4c-0.1,0.6-0.7,1.1-1.3,1c-0.6-0.1-1.1-0.7-1-1.3c0.1-0.6,0.7-1.1,1.3-1
		C73.5,20.1,73.9,20.7,73.9,21.4z"/>
	<path class="st1" d="M65.1,29.2c-0.1,0.6-0.7,1.1-1.3,1c-0.6-0.1-1.1-0.7-1-1.3c0.1-0.6,0.7-1.1,1.3-1C64.7,28,65.2,28.6,65.1,29.2
		z"/>
	<path class="st1" d="M54.9,18.3c-0.1,0.6-0.7,1.1-1.3,1c-0.6-0.1-1.1-0.7-1-1.3c0.1-0.6,0.7-1.1,1.3-1C54.5,17.1,55,17.7,54.9,18.3
		z"/>
	<path class="st1" d="M52,24.8c-0.1,0.6-0.7,1.1-1.3,1c-0.6-0.1-1.1-0.7-1-1.3c0.1-0.6,0.7-1.1,1.3-1C51.7,23.5,52.1,24.1,52,24.8z"
		/>
	<path class="st1" d="M44.5,16.7c-0.1,0.6-0.7,1.1-1.3,1c-0.6-0.1-1.1-0.7-1-1.3c0.1-0.6,0.7-1.1,1.3-1
		C44.2,15.5,44.6,16.1,44.5,16.7z"/>
	<path class="st1" d="M40.9,13.5c-0.1,0.6-0.7,1.1-1.3,1c-0.6-0.1-1.1-0.7-1-1.3c0.1-0.6,0.7-1.1,1.3-1C40.6,12.3,41,12.8,40.9,13.5
		z"/>
	<path class="st1" d="M37.7,21.7c-0.1,0.8-0.9,1.4-1.8,1.3c-0.8-0.1-1.4-0.9-1.3-1.8c0.1-0.8,0.9-1.4,1.8-1.3
		C37.3,20.1,37.9,20.9,37.7,21.7z"/>
	<path class="st1" d="M61.9,41.4c-0.1,0.6-0.7,1.1-1.3,1c-0.6-0.1-1.1-0.7-1-1.3c0.1-0.6,0.7-1.1,1.3-1C61.5,40.2,62,40.8,61.9,41.4
		z"/>
	<path class="st1" d="M74.8,61.8c-0.1,0.6-0.7,1.1-1.3,1c-0.6-0.1-1.1-0.7-1-1.3c0.1-0.6,0.7-1.1,1.3-1
		C74.4,60.6,74.8,61.2,74.8,61.8z"/>
	<path class="st1" d="M39.8,66.1c-0.1,0.6-0.7,1.1-1.3,1c-0.6-0.1-1.1-0.7-1-1.3c0.1-0.6,0.7-1.1,1.3-1
		C39.5,64.9,39.9,65.5,39.8,66.1z"/>
	<path class="st1" d="M45.9,79.7c-0.1,0.6-0.7,1.1-1.3,1c-0.6-0.1-1.1-0.7-1-1.3c0.1-0.6,0.7-1.1,1.3-1C45.6,78.5,46,79.1,45.9,79.7
		z"/>
	<path class="st1" d="M39,78.8c-0.1,0.6-0.7,1.1-1.3,1c-0.6-0.1-1.1-0.7-1-1.3c0.1-0.6,0.7-1.1,1.3-1C38.6,77.6,39,78.2,39,78.8z"/>
	<path class="st1" d="M42.8,71.1c-0.1,0.6-0.7,1.1-1.3,1c-0.6-0.1-1.1-0.7-1-1.3c0.1-0.6,0.7-1.1,1.3-1
		C42.4,69.9,42.9,70.5,42.8,71.1z"/>
	<path class="st1" d="M49.5,65.6c-0.1,0.6-0.7,1.1-1.3,1c-0.6-0.1-1.1-0.7-1-1.3c0.1-0.6,0.7-1.1,1.3-1
		C49.2,64.3,49.6,64.9,49.5,65.6z"/>
	<path class="st1" d="M56.3,58.8c-0.1,0.6-0.7,1.1-1.3,1c-0.6-0.1-1.1-0.7-1-1.3c0.1-0.6,0.7-1.1,1.3-1C56,57.5,56.4,58.1,56.3,58.8
		z"/>
	<path class="st1" d="M37.5,64c-0.1,0.6-0.7,1.1-1.3,1c-0.6-0.1-1.1-0.7-1-1.3c0.1-0.6,0.7-1.1,1.3-1C37.2,62.7,37.6,63.3,37.5,64z"
		/>
	<path class="st1" d="M32.5,69.1c-0.1,0.6-0.7,1.1-1.3,1c-0.6-0.1-1.1-0.7-1-1.3c0.1-0.6,0.7-1.1,1.3-1
		C32.2,67.9,32.6,68.5,32.5,69.1z"/>
	<path class="st1" d="M32.7,64.3c-0.1,0.6-0.7,1.1-1.3,1c-0.6-0.1-1.1-0.7-1-1.3c0.1-0.6,0.7-1.1,1.3-1
		C32.3,63.1,32.8,63.7,32.7,64.3z"/>
	<path class="st1" d="M35.2,69.1c-0.1,0.6-0.7,1.1-1.3,1c-0.6-0.1-1.1-0.7-1-1.3c0.1-0.6,0.7-1.1,1.3-1
		C34.8,67.9,35.3,68.5,35.2,69.1z"/>
	<path class="st1" d="M46.8,73.6c-0.1,0.6-0.7,1.1-1.3,1c-0.6-0.1-1.1-0.7-1-1.3c0.1-0.6,0.7-1.1,1.3-1C46.5,72.4,46.9,73,46.8,73.6
		z"/>
	<path class="st1" d="M42.7,84.2c-0.1,0.6-0.7,1.1-1.3,1c-0.6-0.1-1.1-0.7-1-1.3c0.1-0.6,0.7-1.1,1.3-1C42.4,83,42.8,83.5,42.7,84.2
		z"/>
	<path class="st1" d="M52.2,63.8c-0.1,0.6-0.7,1.1-1.3,1c-0.6-0.1-1.1-0.7-1-1.3c0.1-0.6,0.7-1.1,1.3-1
		C51.8,62.6,52.3,63.1,52.2,63.8z"/>
	<path class="st1" d="M69.2,70.4c-0.1,0.6-0.7,1.1-1.3,1c-0.6-0.1-1.1-0.7-1-1.3c0.1-0.6,0.7-1.1,1.3-1
		C68.9,69.2,69.3,69.8,69.2,70.4z"/>
	<path class="st1" d="M63.7,54.6c-0.1,0.6-0.7,1.1-1.3,1c-0.6-0.1-1.1-0.7-1-1.3c0.1-0.6,0.7-1.1,1.3-1C63.3,53.4,63.7,54,63.7,54.6
		z"/>
	<path class="st1" d="M79.4,54.6c-0.1,0.6-0.7,1.1-1.3,1c-0.6-0.1-1.1-0.7-1-1.3c0.1-0.6,0.7-1.1,1.3-1C79.1,53.4,79.5,54,79.4,54.6
		z"/>
	<path class="st0" d="M20.9,11.4c-0.1,0.6-0.7,1.1-1.3,1c-0.6-0.1-1.1-0.7-1-1.3c0.1-0.6,0.7-1.1,1.3-1C20.5,10.2,21,10.8,20.9,11.4
		z"/>
	<path class="st0" d="M14.2,6c-0.1,0.6-0.7,1.1-1.3,1c-0.6-0.1-1.1-0.7-1-1.3c0.1-0.6,0.7-1.1,1.3-1C13.9,4.7,14.3,5.3,14.2,6z"/>
	<path class="st0" d="M12.6,90.8c-0.1,0.6-0.7,1.1-1.3,1c-0.6-0.1-1.1-0.7-1-1.3c0.1-0.6,0.7-1.1,1.3-1
		C12.3,89.6,12.7,90.2,12.6,90.8z"/>
	<path class="st0" d="M15,57.3c-0.1,0.4-0.4,0.7-0.8,0.6c-0.4-0.1-0.7-0.4-0.6-0.8c0.1-0.4,0.4-0.7,0.8-0.6
		C14.8,56.5,15.1,56.9,15,57.3z"/>
	<path class="st0" d="M3.2,40.6c-0.1,0.4-0.4,0.7-0.8,0.6c-0.4-0.1-0.7-0.4-0.6-0.8c0.1-0.4,0.4-0.7,0.8-0.6
		C3,39.9,3.2,40.2,3.2,40.6z"/>
	<path class="st0" d="M2.1,54.5c-0.1,0.4-0.4,0.7-0.8,0.6c-0.4-0.1-0.7-0.4-0.6-0.8c0.1-0.4,0.4-0.7,0.8-0.6
		C1.9,53.8,2.2,54.1,2.1,54.5z"/>
	<path class="st0" d="M4.8,53.7c-0.1,0.4-0.4,0.7-0.8,0.6c-0.4-0.1-0.7-0.4-0.6-0.8c0.1-0.4,0.4-0.7,0.8-0.6
		C4.5,53,4.8,53.4,4.8,53.7z"/>
	<path class="st0" d="M9.5,61.9c-0.1,0.4-0.4,0.7-0.8,0.6c-0.4-0.1-0.7-0.4-0.6-0.8c0.1-0.4,0.4-0.7,0.8-0.6
		C9.3,61.1,9.5,61.5,9.5,61.9z"/>
	<path class="st0" d="M20,64.8c-0.1,0.4-0.4,0.7-0.8,0.6c-0.4-0.1-0.7-0.4-0.6-0.8c0.1-0.4,0.4-0.7,0.8-0.6
		C19.8,64,20.1,64.4,20,64.8z"/>
	<path class="st1" d="M68.4,22c-0.1,0.4-0.4,0.7-0.8,0.6c-0.4-0.1-0.7-0.4-0.6-0.8c0.1-0.4,0.4-0.7,0.8-0.6
		C68.1,21.2,68.4,21.6,68.4,22z"/>
	<path class="st1" d="M63.9,22.8c-0.1,0.4-0.4,0.7-0.8,0.6c-0.4-0.1-0.7-0.4-0.6-0.8c0.1-0.4,0.4-0.7,0.8-0.6
		C63.7,22,64,22.4,63.9,22.8z"/>
	<path class="st1" d="M56.6,29.8c-0.1,0.4-0.4,0.7-0.8,0.6c-0.4-0.1-0.7-0.4-0.6-0.8c0.1-0.4,0.4-0.7,0.8-0.6
		C56.4,29,56.7,29.4,56.6,29.8z"/>
	<path class="st1" d="M61.4,37.3c-0.1,0.4-0.4,0.7-0.8,0.6c-0.4-0.1-0.7-0.4-0.6-0.8c0.1-0.4,0.4-0.7,0.8-0.6
		C61.2,36.5,61.5,36.9,61.4,37.3z"/>
	<path class="st1" d="M63.9,43.4c-0.1,0.4-0.4,0.7-0.8,0.6c-0.4-0.1-0.7-0.4-0.6-0.8c0.1-0.4,0.4-0.7,0.8-0.6
		C63.7,42.6,64,43,63.9,43.4z"/>
	<path class="st1" d="M62.3,50.3c-0.1,0.4-0.4,0.7-0.8,0.6c-0.4-0.1-0.7-0.4-0.6-0.8c0.1-0.4,0.4-0.7,0.8-0.6
		C62.1,49.5,62.4,49.9,62.3,50.3z"/>
	<path class="st1" d="M62.7,57.6c-0.1,0.4-0.4,0.7-0.8,0.6c-0.4-0.1-0.7-0.4-0.6-0.8c0.1-0.4,0.4-0.7,0.8-0.6
		C62.5,56.9,62.7,57.2,62.7,57.6z"/>
	<path class="st1" d="M57.1,63.9c-0.1,0.4-0.4,0.7-0.8,0.6c-0.4-0.1-0.7-0.4-0.6-0.8c0.1-0.4,0.4-0.7,0.8-0.6
		C56.9,63.1,57.2,63.5,57.1,63.9z"/>
	<path class="st1" d="M43.2,66.4c-0.1,0.4-0.4,0.7-0.8,0.6c-0.4-0.1-0.7-0.4-0.6-0.8c0.1-0.4,0.4-0.7,0.8-0.6
		C43,65.6,43.2,66,43.2,66.4z"/>
	<path class="st1" d="M40,69.1c-0.1,0.4-0.4,0.7-0.8,0.6c-0.4-0.1-0.7-0.4-0.6-0.8c0.1-0.4,0.4-0.7,0.8-0.6
		C39.8,68.3,40.1,68.7,40,69.1z"/>
	<path class="st1" d="M36.3,66.9c-0.1,0.4-0.4,0.7-0.8,0.6c-0.4-0.1-0.7-0.4-0.6-0.8c0.1-0.4,0.4-0.7,0.8-0.6
		C36,66.2,36.3,66.6,36.3,66.9z"/>
	<path class="st1" d="M31,66.9c-0.1,0.4-0.4,0.7-0.8,0.6c-0.4-0.1-0.7-0.4-0.6-0.8c0.1-0.4,0.4-0.7,0.8-0.6
		C30.8,66.1,31.1,66.5,31,66.9z"/>
	<path class="st1" d="M30.8,76c-0.1,0.4-0.4,0.7-0.8,0.6c-0.4-0.1-0.7-0.4-0.6-0.8c0.1-0.4,0.4-0.7,0.8-0.6
		C30.6,75.2,30.9,75.6,30.8,76z"/>
	<path class="st1" d="M33.1,79.2c-0.1,0.4-0.4,0.7-0.8,0.6c-0.4-0.1-0.7-0.4-0.6-0.8c0.1-0.4,0.4-0.7,0.8-0.6
		C32.9,78.4,33.2,78.8,33.1,79.2z"/>
	<path class="st1" d="M37.9,81.4c-0.1,0.4-0.4,0.7-0.8,0.6c-0.4-0.1-0.7-0.4-0.6-0.8c0.1-0.4,0.4-0.7,0.8-0.6
		C37.7,80.7,38,81,37.9,81.4z"/>
	<path class="st1" d="M40.9,77.5c-0.1,0.4-0.4,0.7-0.8,0.6c-0.4-0.1-0.7-0.4-0.6-0.8c0.1-0.4,0.4-0.7,0.8-0.6
		C40.6,76.7,40.9,77.1,40.9,77.5z"/>
	<path class="st1" d="M36.7,74.6c-0.1,0.4-0.4,0.7-0.8,0.6c-0.4-0.1-0.7-0.4-0.6-0.8c0.1-0.4,0.4-0.7,0.8-0.6
		C36.5,73.8,36.8,74.2,36.7,74.6z"/>
	<path class="st1" d="M46,71.1c-0.1,0.4-0.4,0.7-0.8,0.6c-0.4-0.1-0.7-0.4-0.6-0.8c0.1-0.4,0.4-0.7,0.8-0.6
		C45.8,70.3,46.1,70.7,46,71.1z"/>
	<path class="st1" d="M46.8,66.2c-0.1,0.4-0.4,0.7-0.8,0.6c-0.4-0.1-0.7-0.4-0.6-0.8c0.1-0.4,0.4-0.7,0.8-0.6
		C46.5,65.5,46.8,65.8,46.8,66.2z"/>
	<path class="st1" d="M54.4,70c-0.1,0.4-0.4,0.7-0.8,0.6c-0.4-0.1-0.7-0.4-0.6-0.8c0.1-0.4,0.4-0.7,0.8-0.6
		C54.2,69.2,54.5,69.6,54.4,70z"/>
	<path class="st1" d="M47.9,79.8c-0.1,0.4-0.4,0.7-0.8,0.6c-0.4-0.1-0.7-0.4-0.6-0.8c0.1-0.4,0.4-0.7,0.8-0.6
		C47.6,79,47.9,79.4,47.9,79.8z"/>
	<path class="st1" d="M46.5,82.3c-0.1,0.4-0.4,0.7-0.8,0.6c-0.4-0.1-0.7-0.4-0.6-0.8c0.1-0.4,0.4-0.7,0.8-0.6
		C46.3,81.6,46.5,81.9,46.5,82.3z"/>
	<path class="st1" d="M43.4,78.3c-0.1,0.4-0.4,0.7-0.8,0.6c-0.4-0.1-0.7-0.4-0.6-0.8c0.1-0.4,0.4-0.7,0.8-0.6
		C43.2,77.5,43.5,77.9,43.4,78.3z"/>
	<path class="st1" d="M37.2,83.9c-0.1,0.4-0.4,0.7-0.8,0.6c-0.4-0.1-0.7-0.4-0.6-0.8c0.1-0.4,0.4-0.7,0.8-0.6
		C37,83.1,37.2,83.5,37.2,83.9z"/>
	<path class="st1" d="M31.4,85c-0.1,0.4-0.4,0.7-0.8,0.6c-0.4-0.1-0.7-0.4-0.6-0.8c0.1-0.4,0.4-0.7,0.8-0.6
		C31.2,84.2,31.4,84.6,31.4,85z"/>
	<path class="st1" d="M51.5,81c-0.1,0.4-0.4,0.7-0.8,0.6c-0.4-0.1-0.7-0.4-0.6-0.8c0.1-0.4,0.4-0.7,0.8-0.6
		C51.3,80.3,51.6,80.7,51.5,81z"/>
	<path class="st1" d="M54.3,78.2c-0.1,0.4-0.4,0.7-0.8,0.6c-0.4-0.1-0.7-0.4-0.6-0.8c0.1-0.4,0.4-0.7,0.8-0.6
		C54.1,77.4,54.4,77.8,54.3,78.2z"/>
	<path class="st1" d="M62.9,78c-0.1,0.4-0.4,0.7-0.8,0.6c-0.4-0.1-0.7-0.4-0.6-0.8c0.1-0.4,0.4-0.7,0.8-0.6
		C62.7,77.2,62.9,77.6,62.9,78z"/>
	<path class="st1" d="M58.2,68c-0.1,0.4-0.4,0.7-0.8,0.6c-0.4-0.1-0.7-0.4-0.6-0.8c0.1-0.4,0.4-0.7,0.8-0.6
		C58,67.2,58.2,67.6,58.2,68z"/>
	<path class="st1" d="M53.9,60.5c-0.1,0.4-0.4,0.7-0.8,0.6c-0.4-0.1-0.7-0.4-0.6-0.8c0.1-0.4,0.4-0.7,0.8-0.6
		C53.7,59.8,54,60.1,53.9,60.5z"/>
	<path class="st1" d="M56.6,55.9c-0.1,0.4-0.4,0.7-0.8,0.6c-0.4-0.1-0.7-0.4-0.6-0.8c0.1-0.4,0.4-0.7,0.8-0.6
		C56.4,55.1,56.7,55.5,56.6,55.9z"/>
	<path class="st1" d="M61.2,58.2c-0.1,0.4-0.4,0.7-0.8,0.6c-0.4-0.1-0.7-0.4-0.6-0.8c0.1-0.4,0.4-0.7,0.8-0.6
		C61,57.4,61.3,57.8,61.2,58.2z"/>
	<path class="st1" d="M61.4,55.4c-0.1,0.4-0.4,0.7-0.8,0.6c-0.4-0.1-0.7-0.4-0.6-0.8c0.1-0.4,0.4-0.7,0.8-0.6
		C61.2,54.7,61.5,55.1,61.4,55.4z"/>
	<path class="st1" d="M66.7,53.6c-0.1,0.4-0.4,0.7-0.8,0.6c-0.4-0.1-0.7-0.4-0.6-0.8c0.1-0.4,0.4-0.7,0.8-0.6
		C66.5,52.8,66.8,53.2,66.7,53.6z"/>
	<path class="st1" d="M68.4,60.3c-0.1,0.4-0.4,0.7-0.8,0.6c-0.4-0.1-0.7-0.4-0.6-0.8c0.1-0.4,0.4-0.7,0.8-0.6
		C68.2,59.6,68.5,59.9,68.4,60.3z"/>
	<path class="st1" d="M71.7,61.7c-0.1,0.4-0.4,0.7-0.8,0.6c-0.4-0.1-0.7-0.4-0.6-0.8c0.1-0.4,0.4-0.7,0.8-0.6
		C71.5,60.9,71.8,61.3,71.7,61.7z"/>
	<path class="st1" d="M76.6,51.9c-0.1,0.4-0.4,0.7-0.8,0.6c-0.4-0.1-0.7-0.4-0.6-0.8c0.1-0.4,0.4-0.7,0.8-0.6
		C76.4,51.2,76.6,51.6,76.6,51.9z"/>
	<path class="st1" d="M39.1,73c-0.1,0.4-0.4,0.7-0.8,0.6c-0.4-0.1-0.7-0.4-0.6-0.8c0.1-0.4,0.4-0.7,0.8-0.6
		C38.8,72.3,39.1,72.6,39.1,73z"/>
	<path class="st1" d="M35.5,76.2c-0.1,0.4-0.4,0.7-0.8,0.6C34.3,76.8,34,76.4,34,76c0.1-0.4,0.4-0.7,0.8-0.6
		C35.3,75.5,35.5,75.9,35.5,76.2z"/>
	<path class="st1" d="M31.7,80.7c-0.1,0.4-0.4,0.7-0.8,0.6c-0.4-0.1-0.7-0.4-0.6-0.8c0.1-0.4,0.4-0.7,0.8-0.6
		C31.5,80,31.8,80.3,31.7,80.7z"/>
	<path class="st1" d="M35.5,81.3c-0.1,0.4-0.4,0.7-0.8,0.6c-0.4-0.1-0.7-0.4-0.6-0.8c0.1-0.4,0.4-0.7,0.8-0.6
		C35.3,80.5,35.5,80.9,35.5,81.3z"/>
	<path class="st1" d="M41.4,79.6c-0.1,0.4-0.4,0.7-0.8,0.6c-0.4-0.1-0.7-0.4-0.6-0.8c0.1-0.4,0.4-0.7,0.8-0.6
		C41.2,78.9,41.4,79.3,41.4,79.6z"/>
	<path class="st1" d="M43.7,72.8c-0.1,0.4-0.4,0.7-0.8,0.6c-0.4-0.1-0.7-0.4-0.6-0.8c0.1-0.4,0.4-0.7,0.8-0.6
		C43.5,72.1,43.8,72.4,43.7,72.8z"/>
	<path class="st1" d="M50.3,72.8c-0.1,0.7-0.8,1.2-1.5,1.1c-0.7-0.1-1.2-0.8-1.1-1.5c0.1-0.7,0.8-1.2,1.5-1.1
		C49.9,71.4,50.4,72.1,50.3,72.8z"/>
	<path class="st1" d="M49.4,62.6c-0.1,0.7-0.8,1.2-1.5,1.1c-0.7-0.1-1.2-0.8-1.1-1.5c0.1-0.7,0.8-1.2,1.5-1.1
		C49.1,61.2,49.5,61.9,49.4,62.6z"/>
	<path class="st1" d="M53,67.4c-0.1,0.7-0.8,1.2-1.5,1.1c-0.7-0.1-1.2-0.8-1.1-1.5c0.1-0.7,0.8-1.2,1.5-1.1
		C52.6,66,53.1,66.7,53,67.4z"/>
	<path class="st1" d="M56.2,75.3c-0.1,0.7-0.8,1.2-1.5,1.1c-0.7-0.1-1.2-0.8-1.1-1.5c0.1-0.7,0.8-1.2,1.5-1.1
		C55.8,74,56.3,74.6,56.2,75.3z"/>
	<path class="st1" d="M62,68c-0.1,0.7-0.8,1.2-1.5,1.1c-0.7-0.1-1.2-0.8-1.1-1.5c0.1-0.7,0.8-1.2,1.5-1.1C61.6,66.6,62.1,67.2,62,68
		z"/>
	<path class="st1" d="M59.7,59.9c-0.1,0.7-0.8,1.2-1.5,1.1c-0.7-0.1-1.2-0.8-1.1-1.5c0.1-0.7,0.8-1.2,1.5-1.1
		C59.3,58.6,59.8,59.2,59.7,59.9z"/>
	<path class="st1" d="M65.7,58.9c-0.1,0.7-0.8,1.2-1.5,1.1c-0.7-0.1-1.2-0.8-1.1-1.5c0.1-0.7,0.8-1.2,1.5-1.1
		C65.4,57.6,65.8,58.2,65.7,58.9z"/>
	<path class="st1" d="M71.2,56c-0.1,0.7-0.8,1.2-1.5,1.1c-0.7-0.1-1.2-0.8-1.1-1.5c0.1-0.7,0.8-1.2,1.5-1.1
		C70.8,54.6,71.3,55.3,71.2,56z"/>
	<path class="st1" d="M74.5,50.9c-0.1,0.7-0.8,1.2-1.5,1.1c-0.7-0.1-1.2-0.8-1.1-1.5c0.1-0.7,0.8-1.2,1.5-1.1
		C74.1,49.6,74.6,50.2,74.5,50.9z"/>
	<path class="st1" d="M67.9,47.8c-0.1,0.7-0.8,1.2-1.5,1.1c-0.7-0.1-1.2-0.8-1.1-1.5c0.1-0.7,0.8-1.2,1.5-1.1
		C67.5,46.4,68,47.1,67.9,47.8z"/>
	<path class="st1" d="M61.7,52.9c-0.1,0.7-0.8,1.2-1.5,1.1c-0.7-0.1-1.2-0.8-1.1-1.5c0.1-0.7,0.8-1.2,1.5-1.1
		C61.3,51.5,61.8,52.1,61.7,52.9z"/>
	<path class="st1" d="M81.9,52.3c-0.1,0.7-0.8,1.2-1.5,1.1c-0.7-0.1-1.2-0.8-1.1-1.5c0.1-0.7,0.8-1.2,1.5-1.1
		C81.5,50.9,82,51.6,81.9,52.3z"/>
	<path class="st1" d="M76.5,64.7c-0.1,0.7-0.8,1.2-1.5,1.1c-0.7-0.1-1.2-0.8-1.1-1.5c0.1-0.7,0.8-1.2,1.5-1.1
		C76.1,63.4,76.6,64,76.5,64.7z"/>
	<path class="st1" d="M67.1,68.9c-0.1,0.7-0.8,1.2-1.5,1.1c-0.7-0.1-1.2-0.8-1.1-1.5c0.1-0.7,0.8-1.2,1.5-1.1
		C66.7,67.5,67.2,68.2,67.1,68.9z"/>
	<path class="st1" d="M59,80.8c-0.1,0.7-0.8,1.2-1.5,1.1c-0.7-0.1-1.2-0.8-1.1-1.5c0.1-0.7,0.8-1.2,1.5-1.1
		C58.6,79.4,59.1,80,59,80.8z"/>
	<path class="st1" d="M55.3,14.7c-0.1,0.4-0.4,0.7-0.8,0.6c-0.4-0.1-0.7-0.4-0.6-0.8c0.1-0.4,0.4-0.7,0.8-0.6
		C55.1,14,55.4,14.4,55.3,14.7z"/>
	<path class="st1" d="M49.3,20.6c-0.1,0.4-0.4,0.7-0.8,0.6c-0.4-0.1-0.7-0.4-0.6-0.8c0.1-0.4,0.4-0.7,0.8-0.6
		C49.1,19.8,49.4,20.2,49.3,20.6z"/>
	<path class="st1" d="M39.3,23.4c-0.1,0.4-0.4,0.7-0.8,0.6c-0.4-0.1-0.7-0.4-0.6-0.8c0.1-0.4,0.4-0.7,0.8-0.6
		C39.1,22.7,39.4,23,39.3,23.4z"/>
	<path class="st1" d="M34.5,23.8c-0.1,0.4-0.4,0.7-0.8,0.6c-0.4-0.1-0.7-0.4-0.6-0.8c0.1-0.4,0.4-0.7,0.8-0.6
		C34.3,23,34.5,23.4,34.5,23.8z"/>
	<path class="st1" d="M30.9,20.2c-0.1,0.4-0.4,0.7-0.8,0.6c-0.4-0.1-0.7-0.4-0.6-0.8c0.1-0.4,0.4-0.7,0.8-0.6
		C30.7,19.5,31,19.8,30.9,20.2z"/>
	<path class="st1" d="M39.1,19.5c-0.1,0.4-0.4,0.7-0.8,0.6c-0.4-0.1-0.7-0.4-0.6-0.8c0.1-0.4,0.4-0.7,0.8-0.6
		C38.9,18.7,39.2,19.1,39.1,19.5z"/>
	<path class="st1" d="M46.8,12.9c-0.1,0.4-0.4,0.7-0.8,0.6c-0.4-0.1-0.7-0.4-0.6-0.8c0.1-0.4,0.4-0.7,0.8-0.6
		C46.6,12.1,46.9,12.5,46.8,12.9z"/>
	<path class="st1" d="M50.4,7.9c-0.1,0.4-0.4,0.7-0.8,0.6c-0.4-0.1-0.7-0.4-0.6-0.8C49,7.3,49.4,7,49.8,7
		C50.2,7.1,50.5,7.5,50.4,7.9z"/>
	<path class="st1" d="M39.8,3.4C39.8,3.8,39.4,4.1,39,4c-0.4-0.1-0.7-0.4-0.6-0.8c0.1-0.4,0.4-0.7,0.8-0.6C39.6,2.6,39.9,3,39.8,3.4
		z"/>
	<path class="st1" d="M33.4,4.5c-0.1,0.4-0.4,0.7-0.8,0.6C32.2,5,31.9,4.7,32,4.3c0.1-0.4,0.4-0.7,0.8-0.6
		C33.2,3.7,33.5,4.1,33.4,4.5z"/>
	<path class="st1" d="M47.4,7c-0.1,0.4-0.4,0.7-0.8,0.6c-0.4-0.1-0.7-0.4-0.6-0.8c0.1-0.4,0.4-0.7,0.8-0.6C47.1,6.2,47.4,6.6,47.4,7
		z"/>
	<path class="st1" d="M44.4,10.7c-0.1,0.4-0.4,0.7-0.8,0.6c-0.4-0.1-0.7-0.4-0.6-0.8c0.1-0.4,0.4-0.7,0.8-0.6
		C44.2,10,44.5,10.3,44.4,10.7z"/>
	<path class="st1" d="M51.8,15.6c-0.1,0.4-0.4,0.7-0.8,0.6c-0.4-0.1-0.7-0.4-0.6-0.8c0.1-0.4,0.4-0.7,0.8-0.6
		C51.5,14.8,51.8,15.2,51.8,15.6z"/>
	<path class="st1" d="M47.6,24.9c-0.1,0.4-0.4,0.7-0.8,0.6c-0.4-0.1-0.7-0.4-0.6-0.8c0.1-0.4,0.4-0.7,0.8-0.6
		C47.4,24.1,47.7,24.5,47.6,24.9z"/>
	<path class="st1" d="M52.1,20c-0.1,0.4-0.4,0.7-0.8,0.6c-0.4-0.1-0.7-0.4-0.6-0.8c0.1-0.4,0.4-0.7,0.8-0.6
		C51.9,19.3,52.2,19.6,52.1,20z"/>
	<path class="st1" d="M44.1,6.3C44,6.7,43.6,7,43.3,6.9c-0.4-0.1-0.7-0.4-0.6-0.8c0.1-0.4,0.4-0.7,0.8-0.6
		C43.9,5.6,44.1,5.9,44.1,6.3z"/>
	<path class="st1" d="M37.6,10.4c-0.1,0.4-0.4,0.7-0.8,0.6c-0.4-0.1-0.7-0.4-0.6-0.8c0.1-0.4,0.4-0.7,0.8-0.6
		C37.4,9.7,37.7,10.1,37.6,10.4z"/>
	<path class="st1" d="M34.2,15.5c-0.1,0.4-0.4,0.7-0.8,0.6c-0.4-0.1-0.7-0.4-0.6-0.8c0.1-0.4,0.4-0.7,0.8-0.6
		C34,14.7,34.3,15.1,34.2,15.5z"/>
	<path class="st1" d="M45.7,8.5c-0.1,0.4-0.4,0.7-0.8,0.6c-0.4-0.1-0.7-0.4-0.6-0.8c0.1-0.4,0.4-0.7,0.8-0.6
		C45.5,7.7,45.7,8.1,45.7,8.5z"/>
	<path class="st1" d="M49.3,4c-0.1,0.4-0.4,0.7-0.8,0.6c-0.4-0.1-0.7-0.4-0.6-0.8c0.1-0.4,0.4-0.7,0.8-0.6C49,3.2,49.3,3.6,49.3,4z"
		/>
	<path class="st1" d="M54.6,8.5c-0.1,0.4-0.4,0.7-0.8,0.6c-0.4-0.1-0.7-0.4-0.6-0.8c0.1-0.4,0.4-0.7,0.8-0.6
		C54.4,7.7,54.7,8.1,54.6,8.5z"/>
	<path class="st1" d="M58,13.7c-0.1,0.4-0.4,0.7-0.8,0.6c-0.4-0.1-0.7-0.4-0.6-0.8c0.1-0.4,0.4-0.7,0.8-0.6
		C57.8,12.9,58.1,13.3,58,13.7z"/>
	<path class="st1" d="M57.5,19.6c-0.1,0.4-0.4,0.7-0.8,0.6c-0.4-0.1-0.7-0.4-0.6-0.8c0.1-0.4,0.4-0.7,0.8-0.6
		C57.3,18.8,57.5,19.2,57.5,19.6z"/>
	<path class="st0" d="M20.1,49c-0.1,0.4-0.4,0.7-0.8,0.6c-0.4-0.1-0.7-0.4-0.6-0.8c0.1-0.4,0.4-0.7,0.8-0.6
		C19.9,48.2,20.1,48.6,20.1,49z"/>
	<path class="st0" d="M19.9,23.8c-0.1,0.4-0.4,0.7-0.8,0.6c-0.4-0.1-0.7-0.4-0.6-0.8c0.1-0.4,0.4-0.7,0.8-0.6
		C19.7,23,20,23.4,19.9,23.8z"/>
	<path class="st0" d="M12,23c-0.1,0.4-0.4,0.7-0.8,0.6c-0.4-0.1-0.7-0.4-0.6-0.8c0.1-0.4,0.4-0.7,0.8-0.6C11.8,22.2,12.1,22.6,12,23
		z"/>
	<path class="st0" d="M20.4,26.5c-0.1,0.4-0.4,0.7-0.8,0.6c-0.4-0.1-0.7-0.4-0.6-0.8c0.1-0.4,0.4-0.7,0.8-0.6
		C20.2,25.8,20.5,26.1,20.4,26.5z"/>
	<path class="st0" d="M14.3,25.3c-0.1,0.4-0.4,0.7-0.8,0.6c-0.4-0.1-0.7-0.4-0.6-0.8c0.1-0.4,0.4-0.7,0.8-0.6
		C14.1,24.5,14.4,24.9,14.3,25.3z"/>
	<path class="st0" d="M4.1,20.6C4,21,3.7,21.3,3.3,21.3c-0.4-0.1-0.7-0.4-0.6-0.8c0.1-0.4,0.4-0.7,0.8-0.6
		C3.9,19.9,4.1,20.3,4.1,20.6z"/>
	<path class="st0" d="M11.3,27.8c-0.1,0.4-0.4,0.7-0.8,0.6C10,28.4,9.8,28,9.8,27.6c0.1-0.4,0.4-0.7,0.8-0.6
		C11,27.1,11.3,27.4,11.3,27.8z"/>
	<path class="st0" d="M18,19.8c-0.1,0.4-0.4,0.7-0.8,0.6c-0.4-0.1-0.7-0.4-0.6-0.8c0.1-0.4,0.4-0.7,0.8-0.6C17.8,19,18,19.4,18,19.8
		z"/>
	<path class="st0" d="M23.8,13.8c-0.1,0.4-0.4,0.7-0.8,0.6c-0.4-0.1-0.7-0.4-0.6-0.8c0.1-0.4,0.4-0.7,0.8-0.6
		C23.6,13,23.9,13.4,23.8,13.8z"/>
	<path class="st0" d="M22.3,30.4c-0.1,0.4-0.4,0.7-0.8,0.6c-0.4-0.1-0.7-0.4-0.6-0.8c0.1-0.4,0.4-0.7,0.8-0.6
		C22.1,29.6,22.4,30,22.3,30.4z"/>
	<path class="st0" d="M23.2,25.3c-0.1,0.4-0.4,0.7-0.8,0.6c-0.4-0.1-0.7-0.4-0.6-0.8c0.1-0.4,0.4-0.7,0.8-0.6
		C23,24.5,23.3,24.9,23.2,25.3z"/>
	<path class="st0" d="M18.9,35.1c-0.1,0.4-0.4,0.7-0.8,0.6c-0.4-0.1-0.7-0.4-0.6-0.8c0.1-0.4,0.4-0.7,0.8-0.6
		C18.7,34.4,18.9,34.8,18.9,35.1z"/>
	<path class="st0" d="M24.3,34.4c-0.1,0.4-0.4,0.7-0.8,0.6c-0.4-0.1-0.7-0.4-0.6-0.8c0.1-0.4,0.4-0.7,0.8-0.6
		C24,33.6,24.3,34,24.3,34.4z"/>
	<path class="st0" d="M20.2,28.5c-0.1,0.4-0.4,0.7-0.8,0.6c-0.4-0.1-0.7-0.4-0.6-0.8c0.1-0.4,0.4-0.7,0.8-0.6
		C20,27.7,20.3,28.1,20.2,28.5z"/>
	<path class="st0" d="M18.9,46.2c-0.1,0.4-0.4,0.7-0.8,0.6c-0.4-0.1-0.7-0.4-0.6-0.8c0.1-0.4,0.4-0.7,0.8-0.6
		C18.7,45.4,18.9,45.8,18.9,46.2z"/>
	<path class="st0" d="M23.3,28.2c-0.1,0.4-0.4,0.7-0.8,0.6c-0.4-0.1-0.7-0.4-0.6-0.8c0.1-0.4,0.4-0.7,0.8-0.6
		C23.1,27.4,23.4,27.8,23.3,28.2z"/>
	<path class="st0" d="M15.7,63.8c-0.1,0.4-0.4,0.7-0.8,0.6c-0.4-0.1-0.7-0.4-0.6-0.8c0.1-0.4,0.4-0.7,0.8-0.6
		C15.5,63,15.8,63.4,15.7,63.8z"/>
	<path class="st0" d="M22.2,52.6c-0.1,0.4-0.4,0.7-0.8,0.6c-0.4-0.1-0.7-0.4-0.6-0.8c0.1-0.4,0.4-0.7,0.8-0.6
		C21.9,51.9,22.2,52.2,22.2,52.6z"/>
	<path class="st0" d="M23.2,59.2c-0.1,0.4-0.4,0.7-0.8,0.6c-0.4-0.1-0.7-0.4-0.6-0.8c0.1-0.4,0.4-0.7,0.8-0.6
		C23,58.5,23.3,58.8,23.2,59.2z"/>
	<path class="st0" d="M15.1,66.2c-0.1,0.4-0.4,0.7-0.8,0.6c-0.4-0.1-0.7-0.4-0.6-0.8c0.1-0.4,0.4-0.7,0.8-0.6
		C14.9,65.5,15.2,65.8,15.1,66.2z"/>
	<path class="st0" d="M6.9,66.2c-0.1,0.4-0.4,0.7-0.8,0.6c-0.4-0.1-0.7-0.4-0.6-0.8c0.1-0.4,0.4-0.7,0.8-0.6
		C6.7,65.5,7,65.8,6.9,66.2z"/>
	<path class="st0" d="M3.2,69.8c-0.1,0.4-0.4,0.7-0.8,0.6C2,70.4,1.7,70,1.8,69.6C1.8,69.2,2.2,69,2.6,69C3,69.1,3.2,69.4,3.2,69.8z
		"/>
	<path class="st0" d="M7.1,69.4C7,69.8,6.6,70,6.3,70c-0.4-0.1-0.7-0.4-0.6-0.8c0.1-0.4,0.4-0.7,0.8-0.6C6.8,68.6,7.1,69,7.1,69.4z"
		/>
	<path class="st0" d="M2.6,43.1c-0.1,0.4-0.4,0.7-0.8,0.6c-0.4-0.1-0.7-0.4-0.6-0.8c0.1-0.4,0.4-0.7,0.8-0.6
		C2.4,42.3,2.6,42.7,2.6,43.1z"/>
	<path class="st0" d="M6.5,34.1c-0.1,0.4-0.4,0.7-0.8,0.6C5.3,34.7,5,34.3,5,33.9c0.1-0.4,0.4-0.7,0.8-0.6
		C6.2,33.3,6.5,33.7,6.5,34.1z"/>
	<path class="st0" d="M6.8,23.8c-0.1,0.4-0.4,0.7-0.8,0.6c-0.4-0.1-0.7-0.4-0.6-0.8c0.1-0.4,0.4-0.7,0.8-0.6
		C6.5,23,6.8,23.4,6.8,23.8z"/>
	<path class="st0" d="M6.9,16.2c-0.1,0.4-0.4,0.7-0.8,0.6c-0.4-0.1-0.7-0.4-0.6-0.8c0.1-0.4,0.4-0.7,0.8-0.6
		C6.7,15.4,7,15.8,6.9,16.2z"/>
	<path class="st0" d="M2.7,17.2c-0.1,0.4-0.4,0.7-0.8,0.6c-0.4-0.1-0.7-0.4-0.6-0.8c0.1-0.4,0.4-0.7,0.8-0.6
		C2.5,16.5,2.8,16.8,2.7,17.2z"/>
	<path class="st0" d="M6.6,10.2c-0.1,0.4-0.4,0.7-0.8,0.6c-0.4-0.1-0.7-0.4-0.6-0.8C5.2,9.6,5.6,9.3,6,9.4C6.4,9.4,6.7,9.8,6.6,10.2
		z"/>
	<path class="st0" d="M10.7,5.4C10.6,5.8,10.2,6.1,9.8,6C9.4,6,9.2,5.6,9.2,5.2C9.3,4.8,9.6,4.5,10,4.6C10.4,4.6,10.7,5,10.7,5.4z"
		/>
	<path class="st0" d="M19.8,5.3c-0.1,0.4-0.4,0.7-0.8,0.6c-0.4-0.1-0.7-0.4-0.6-0.8c0.1-0.4,0.4-0.7,0.8-0.6
		C19.6,4.5,19.8,4.9,19.8,5.3z"/>
	<path class="st0" d="M14.1,12.7c-0.1,0.4-0.4,0.7-0.8,0.6c-0.4-0.1-0.7-0.4-0.6-0.8c0.1-0.4,0.4-0.7,0.8-0.6
		C13.9,12,14.1,12.3,14.1,12.7z"/>
	<path class="st0" d="M15.1,17.5c-0.1,0.4-0.4,0.7-0.8,0.6c-0.4-0.1-0.7-0.4-0.6-0.8c0.1-0.4,0.4-0.7,0.8-0.6
		C14.9,16.8,15.2,17.1,15.1,17.5z"/>
	<path class="st0" d="M9,19.8c-0.1,0.4-0.4,0.7-0.8,0.6c-0.4-0.1-0.7-0.4-0.6-0.8c0.1-0.4,0.4-0.7,0.8-0.6C8.8,19,9.1,19.4,9,19.8z"
		/>
	<path class="st0" d="M8.6,16.3c-0.1,0.4-0.4,0.7-0.8,0.6c-0.4-0.1-0.7-0.4-0.6-0.8c0.1-0.4,0.4-0.7,0.8-0.6
		C8.3,15.6,8.6,15.9,8.6,16.3z"/>
	<path class="st0" d="M6.8,12.3c-0.1,0.4-0.4,0.7-0.8,0.6c-0.4-0.1-0.7-0.4-0.6-0.8c0.1-0.4,0.4-0.7,0.8-0.6
		C6.5,11.5,6.8,11.9,6.8,12.3z"/>
	<path class="st0" d="M13,10c-0.1,0.4-0.4,0.7-0.8,0.6c-0.4-0.1-0.7-0.4-0.6-0.8c0.1-0.4,0.4-0.7,0.8-0.6C12.8,9.3,13.1,9.6,13,10z"
		/>
	<path class="st0" d="M19.8,8.1c-0.1,0.4-0.4,0.7-0.8,0.6c-0.4-0.1-0.7-0.4-0.6-0.8c0.1-0.4,0.4-0.7,0.8-0.6
		C19.6,7.3,19.8,7.7,19.8,8.1z"/>
	<path class="st0" d="M17.3,23.7c-0.1,0.4-0.4,0.7-0.8,0.6c-0.4-0.1-0.7-0.4-0.6-0.8c0.1-0.4,0.4-0.7,0.8-0.6
		C17,22.9,17.3,23.3,17.3,23.7z"/>
	<path class="st0" d="M9.2,41.1c-0.1,0.4-0.4,0.7-0.8,0.6c-0.4-0.1-0.7-0.4-0.6-0.8c0.1-0.4,0.4-0.7,0.8-0.6
		C9,40.4,9.3,40.7,9.2,41.1z"/>
	<path class="st0" d="M10.5,48.7c-0.1,0.4-0.4,0.7-0.8,0.6C9.2,49.2,9,48.9,9,48.5c0.1-0.4,0.4-0.7,0.8-0.6
		C10.2,47.9,10.5,48.3,10.5,48.7z"/>
	<path class="st0" d="M19.5,60.3c-0.1,0.4-0.4,0.7-0.8,0.6c-0.4-0.1-0.7-0.4-0.6-0.8c0.1-0.4,0.4-0.7,0.8-0.6
		C19.2,59.5,19.5,59.9,19.5,60.3z"/>
	<path class="st0" d="M17.6,57.7c-0.1,0.4-0.4,0.7-0.8,0.6c-0.4-0.1-0.7-0.4-0.6-0.8c0.1-0.4,0.4-0.7,0.8-0.6
		C17.4,56.9,17.6,57.3,17.6,57.7z"/>
	<path class="st0" d="M12.4,51.9c-0.1,0.4-0.4,0.7-0.8,0.6c-0.4-0.1-0.7-0.4-0.6-0.8c0.1-0.4,0.4-0.7,0.8-0.6
		C12.2,51.1,12.5,51.5,12.4,51.9z"/>
	<path class="st0" d="M7.9,54.7c-0.1,0.4-0.4,0.7-0.8,0.6c-0.4-0.1-0.7-0.4-0.6-0.8c0.1-0.4,0.4-0.7,0.8-0.6
		C7.7,53.9,8,54.3,7.9,54.7z"/>
	<path class="st0" d="M3.6,52.2c-0.1,0.4-0.4,0.7-0.8,0.6c-0.4-0.1-0.7-0.4-0.6-0.8c0.1-0.4,0.4-0.7,0.8-0.6
		C3.4,51.4,3.7,51.8,3.6,52.2z"/>
	<path class="st0" d="M7.4,47.7c-0.1,0.4-0.4,0.7-0.8,0.6C6.2,48.3,6,47.9,6,47.5c0.1-0.4,0.4-0.7,0.8-0.6
		C7.2,46.9,7.5,47.3,7.4,47.7z"/>
	<path class="st0" d="M3,46.5c-0.1,0.4-0.4,0.7-0.8,0.6c-0.4-0.1-0.7-0.4-0.6-0.8c0.1-0.4,0.4-0.7,0.8-0.6C2.7,45.8,3,46.1,3,46.5z"
		/>
	<path class="st0" d="M8.8,44.9c-0.1,0.4-0.4,0.7-0.8,0.6c-0.4-0.1-0.7-0.4-0.6-0.8c0.1-0.4,0.4-0.7,0.8-0.6
		C8.6,44.1,8.8,44.5,8.8,44.9z"/>
	<path class="st0" d="M2.5,38.7c-0.1,0.4-0.4,0.7-0.8,0.6C1.2,39.3,1,38.9,1,38.5c0.1-0.4,0.4-0.7,0.8-0.6C2.2,38,2.5,38.3,2.5,38.7
		z"/>
	<path class="st0" d="M6.1,37.2c-0.1,0.4-0.4,0.7-0.8,0.6c-0.4-0.1-0.7-0.4-0.6-0.8c0.1-0.4,0.4-0.7,0.8-0.6
		C5.9,36.5,6.2,36.8,6.1,37.2z"/>
	<path class="st0" d="M10.9,39.5c-0.1,0.4-0.4,0.7-0.8,0.6c-0.4-0.1-0.7-0.4-0.6-0.8c0.1-0.4,0.4-0.7,0.8-0.6
		C10.7,38.8,11,39.2,10.9,39.5z"/>
	<path class="st0" d="M16.4,36.4c-0.1,0.4-0.4,0.7-0.8,0.6c-0.4-0.1-0.7-0.4-0.6-0.8c0.1-0.4,0.4-0.7,0.8-0.6
		C16.2,35.6,16.5,36,16.4,36.4z"/>
	<path class="st0" d="M12.9,33.7c-0.1,0.4-0.4,0.7-0.8,0.6c-0.4-0.1-0.7-0.4-0.6-0.8c0.1-0.4,0.4-0.7,0.8-0.6
		C12.7,33,13,33.3,12.9,33.7z"/>
	<path class="st0" d="M13.3,30.1c0.1-0.4-0.2-0.8-0.6-0.8c-0.4-0.1-0.8,0.2-0.8,0.6c-0.1,0.4,0.2,0.8,0.6,0.8
		C12.8,30.7,13.2,30.5,13.3,30.1z"/>
	<path class="st0" d="M12.6,26.2c0.1-0.4-0.2-0.8-0.6-0.8c-0.4-0.1-0.8,0.2-0.8,0.6c-0.1,0.4,0.2,0.8,0.6,0.8
		C12.2,26.9,12.5,26.6,12.6,26.2z"/>
	<path class="st0" d="M16.1,22.1c0.1-0.4-0.2-0.8-0.6-0.8c-0.4-0.1-0.8,0.2-0.8,0.6c-0.1,0.4,0.2,0.8,0.6,0.8
		C15.7,22.7,16,22.5,16.1,22.1z"/>
	<path class="st0" d="M10.4,19.9c0.1-0.4-0.2-0.8-0.6-0.8C9.4,19,9.1,19.3,9,19.7c-0.1,0.4,0.2,0.8,0.6,0.8
		C10,20.6,10.4,20.3,10.4,19.9z"/>
	<path class="st0" d="M20.6,18.6c0.1-0.4-0.2-0.8-0.6-0.8c-0.4-0.1-0.8,0.2-0.8,0.6c-0.1,0.4,0.2,0.8,0.6,0.8
		C20.2,19.2,20.5,19,20.6,18.6z"/>
	<path class="st0" d="M23.3,15.9c0.1-0.4-0.2-0.8-0.6-0.8c-0.4-0.1-0.8,0.2-0.8,0.6c-0.1,0.4,0.2,0.8,0.6,0.8
		C22.8,16.6,23.2,16.3,23.3,15.9z"/>
	<path class="st0" d="M18.9,13.4c0.1-0.4-0.2-0.8-0.6-0.8c-0.4-0.1-0.8,0.2-0.8,0.6c-0.1,0.4,0.2,0.8,0.6,0.8
		C18.5,14.1,18.9,13.8,18.9,13.4z"/>
	<path class="st0" d="M6.6,50.5c-0.1,0.4-0.4,0.7-0.8,0.6c-0.4-0.1-0.7-0.4-0.6-0.8c0.1-0.4,0.4-0.7,0.8-0.6
		C6.4,49.8,6.7,50.1,6.6,50.5z"/>
	<path class="st0" d="M12.4,48c-0.1,0.4-0.4,0.7-0.8,0.6c-0.4-0.1-0.7-0.4-0.6-0.8c0.1-0.4,0.4-0.7,0.8-0.6
		C12.2,47.3,12.4,47.6,12.4,48z"/>
	<path class="st0" d="M5.3,90.9c-0.1,0.4-0.4,0.7-0.8,0.6c-0.4-0.1-0.7-0.4-0.6-0.8c0.1-0.4,0.4-0.7,0.8-0.6
		C5.1,90.1,5.3,90.5,5.3,90.9z"/>
	<path class="st0" d="M5.9,105.5c-0.1,0.4-0.4,0.7-0.8,0.6c-0.4-0.1-0.7-0.4-0.6-0.8c0.1-0.4,0.4-0.7,0.8-0.6
		C5.7,104.7,6,105.1,5.9,105.5z"/>
	<path class="st0" d="M13.9,64.3c-0.1,0.8-0.9,1.4-1.7,1.3c-0.8-0.1-1.4-0.9-1.3-1.7c0.1-0.8,0.9-1.4,1.7-1.3
		C13.4,62.7,14,63.5,13.9,64.3z"/>
	<path class="st0" d="M4.6,14.1c-0.1,0.8-0.9,1.4-1.7,1.3c-0.8-0.1-1.4-0.9-1.3-1.7c0.1-0.8,0.9-1.4,1.7-1.3
		C4.2,12.5,4.7,13.2,4.6,14.1z"/>
	<path class="st0" d="M7.1,5.1C6.9,5.9,6.2,6.5,5.3,6.4C4.5,6.3,3.9,5.5,4,4.7c0.1-0.8,0.9-1.4,1.7-1.3C6.6,3.5,7.2,4.3,7.1,5.1z"/>
	<path class="st0" d="M5.7,19c-0.1,0.8-0.9,1.4-1.7,1.3c-0.8-0.1-1.4-0.9-1.3-1.7c0.1-0.8,0.9-1.4,1.7-1.3C5.3,17.4,5.9,18.2,5.7,19
		z"/>
	<path class="st0" d="M4.4,25.4c-0.1,0.8-0.9,1.4-1.7,1.3c-0.8-0.1-1.4-0.9-1.3-1.7c0.1-0.8,0.9-1.4,1.7-1.3
		C4,23.8,4.5,24.6,4.4,25.4z"/>
	<path class="st0" d="M4.1,2.8C4,3.7,3.2,4.2,2.4,4.1C1.6,4,1,3.2,1.1,2.4C1.2,1.6,2,1,2.8,1.1C3.7,1.2,4.2,2,4.1,2.8z"/>
	<path class="st0" d="M14.7,20.9c-0.1,0.8-0.9,1.4-1.7,1.3c-0.8-0.1-1.4-0.9-1.3-1.7c0.1-0.8,0.9-1.4,1.7-1.3
		C14.2,19.3,14.8,20,14.7,20.9z"/>
	<path class="st0" d="M11.3,23.6c-0.1,0.8-0.9,1.4-1.7,1.3c-0.8-0.1-1.4-0.9-1.3-1.7c0.1-0.8,0.9-1.4,1.7-1.3
		C10.8,22,11.4,22.8,11.3,23.6z"/>
	<path class="st0" d="M3.9,32.2C3.8,33,3,33.6,2.2,33.5c-0.8-0.1-1.4-0.9-1.3-1.7c0.1-0.8,0.9-1.4,1.7-1.3C3.4,30.6,4,31.3,3.9,32.2
		z"/>
	<path class="st0" d="M7.6,58.6c-0.1,0.8-0.9,1.4-1.7,1.3c-0.8-0.1-1.4-0.9-1.3-1.7c0.1-0.8,0.9-1.4,1.7-1.3
		C7.2,57,7.8,57.7,7.6,58.6z"/>
	<path class="st0" d="M4.7,67.4c-0.1,0.8-0.9,1.4-1.7,1.3c-0.8-0.1-1.4-0.9-1.3-1.7c0.1-0.8,0.9-1.4,1.7-1.3
		C4.2,65.8,4.8,66.5,4.7,67.4z"/>
	<path class="st0" d="M23.9,42.9c-0.1,0.8-0.9,1.4-1.7,1.3c-0.8-0.1-1.4-0.9-1.3-1.7c0.1-0.8,0.9-1.4,1.7-1.3
		C23.4,41.3,24,42.1,23.9,42.9z"/>
	<path class="st0" d="M21.2,31.4c-0.1,0.8-0.9,1.4-1.7,1.3c-0.8-0.1-1.4-0.9-1.3-1.7c0.1-0.8,0.9-1.4,1.7-1.3
		C20.8,29.8,21.4,30.5,21.2,31.4z"/>
	<path class="st0" d="M22.6,2.5c-0.1,0.8-0.9,1.4-1.7,1.3C20,3.7,19.4,2.9,19.5,2c0.1-0.8,0.9-1.4,1.7-1.3
		C22.1,0.9,22.7,1.6,22.6,2.5z"/>
	<path class="st0" d="M24.1,93.4c-0.1,0.8-0.9,1.4-1.7,1.3c-0.8-0.1-1.4-0.9-1.3-1.7c0.1-0.8,0.9-1.4,1.7-1.3
		C23.7,91.8,24.3,92.5,24.1,93.4z"/>
	<path class="st0" d="M22,56.3c-0.1,0.8-0.9,1.4-1.7,1.3c-0.8-0.1-1.4-0.9-1.3-1.7c0.1-0.8,0.9-1.4,1.7-1.3
		C21.6,54.7,22.2,55.5,22,56.3z"/>
	<path class="st0" d="M5.6,48.7c-0.1,0.8-0.9,1.4-1.7,1.3c-0.8-0.1-1.4-0.9-1.3-1.7c0.1-0.8,0.9-1.4,1.7-1.3
		C5.1,47.1,5.7,47.9,5.6,48.7z"/>
	<path class="st0" d="M6.7,44.7C6.6,45.5,5.8,46.1,5,46c-0.8-0.1-1.4-0.9-1.3-1.7c0.1-0.8,0.9-1.4,1.7-1.3
		C6.3,43.1,6.8,43.9,6.7,44.7z"/>
	<path class="st0" d="M10.1,30.8c-0.1,0.8-0.9,1.4-1.7,1.3C7.5,32,7,31.2,7.1,30.4C7.2,29.6,8,29,8.8,29.1
		C9.6,29.2,10.2,30,10.1,30.8z"/>
	<path class="st0" d="M13.8,36.9c-0.1,0.8-0.9,1.4-1.7,1.3c-0.8-0.1-1.4-0.9-1.3-1.7c0.1-0.8,0.9-1.4,1.7-1.3
		C13.3,35.3,13.9,36,13.8,36.9z"/>
	<path class="st0" d="M8.3,40c-0.1,0.8-0.9,1.4-1.7,1.3c-0.8-0.1-1.4-0.9-1.3-1.7c0.1-0.8,0.9-1.4,1.7-1.3C7.8,38.4,8.4,39.2,8.3,40
		z"/>
	<path class="st0" d="M10.7,47.7C10.6,48.5,9.8,49.1,9,49c-0.8-0.1-1.4-0.9-1.3-1.7c0.1-0.8,0.9-1.4,1.7-1.3
		C10.3,46.1,10.9,46.8,10.7,47.7z"/>
	<path class="st0" d="M16,49.5c-0.1,0.8-0.9,1.4-1.7,1.3c-0.8-0.1-1.4-0.9-1.3-1.7c0.1-0.8,0.9-1.4,1.7-1.3
		C15.5,47.9,16.1,48.7,16,49.5z"/>
	<path class="st0" d="M22.6,38.2c-0.1,0.8-0.9,1.4-1.7,1.3c-0.8-0.1-1.4-0.9-1.3-1.7c0.1-0.8,0.9-1.4,1.7-1.3
		C22.1,36.6,22.7,37.4,22.6,38.2z"/>
	<path class="st0" d="M16.5,32.9c-0.1,0.8-0.9,1.4-1.7,1.3c-0.8-0.1-1.4-0.9-1.3-1.7c0.1-0.8,0.9-1.4,1.7-1.3
		C16.1,31.3,16.6,32.1,16.5,32.9z"/>
	<path class="st0" d="M10.2,34.8c-0.1,0.8-0.9,1.4-1.7,1.3c-0.8-0.1-1.4-0.9-1.3-1.7c0.1-0.8,0.9-1.4,1.7-1.3
		C9.8,33.2,10.3,34,10.2,34.8z"/>
	<path class="st0" d="M4.5,9.6c-0.1,0.8-0.9,1.4-1.7,1.3C1.9,10.8,1.4,10,1.5,9.2c0.1-0.8,0.9-1.4,1.7-1.3C4,8,4.6,8.8,4.5,9.6z"/>
	<path class="st0" d="M17.7,3.3c-0.1,0.8-0.9,1.4-1.7,1.3c-0.8-0.1-1.4-0.9-1.3-1.7c0.1-0.8,0.9-1.4,1.7-1.3
		C17.3,1.7,17.8,2.4,17.7,3.3z"/>
	<path class="st0" d="M11,9.3c-0.1,0.8-0.9,1.4-1.7,1.3C8.4,10.4,7.9,9.7,8,8.8C8.1,8,8.9,7.4,9.7,7.5C10.5,7.6,11.1,8.4,11,9.3z"/>
	<path class="st0" d="M12.3,3.5c-0.1,0.8-0.9,1.4-1.7,1.3C9.8,4.7,9.2,3.9,9.3,3.1c0.1-0.8,0.9-1.4,1.7-1.3
		C11.9,1.9,12.4,2.7,12.3,3.5z"/>
	<path class="st0" d="M24.1,8c-0.1,0.8-0.9,1.4-1.7,1.3c-0.8-0.1-1.4-0.9-1.3-1.7c0.1-0.8,0.9-1.4,1.7-1.3C23.7,6.4,24.3,7.2,24.1,8
		z"/>
	<path class="st0" d="M23.6,20.3c-0.1,0.8-0.9,1.4-1.7,1.3c-0.8-0.1-1.4-0.9-1.3-1.7c0.1-0.8,0.9-1.4,1.7-1.3
		C23.1,18.7,23.7,19.5,23.6,20.3z"/>
	<path class="st0" d="M22.8,49c-0.1,0.8-0.9,1.4-1.7,1.3c-0.8-0.1-1.4-0.9-1.3-1.7c0.1-0.8,0.9-1.4,1.7-1.3
		C22.4,47.4,22.9,48.1,22.8,49z"/>
	<path class="st0" d="M18.6,42.9c-0.1,0.8-0.9,1.4-1.7,1.3c-0.8-0.1-1.4-0.9-1.3-1.7c0.1-0.8,0.9-1.4,1.7-1.3
		C18.2,41.3,18.7,42.1,18.6,42.9z"/>
	<path class="st0" d="M13.9,43.7c-0.1,0.8-0.9,1.4-1.7,1.3c-0.8-0.1-1.4-0.9-1.3-1.7c0.1-0.8,0.9-1.4,1.7-1.3
		C13.4,42.1,14,42.9,13.9,43.7z"/>
	<path class="st0" d="M17.4,28.3c-0.1,0.8-0.9,1.4-1.7,1.3c-0.8-0.1-1.4-0.9-1.3-1.7c0.1-0.8,0.9-1.4,1.7-1.3
		C16.9,26.7,17.5,27.5,17.4,28.3z"/>
</g>
</svg>
