<?xml version="1.0" encoding="utf-8"?>
<!-- Generator: Adobe Illustrator 24.0.2, SVG Export Plug-In . SVG Version: 6.00 Build 0)  -->
<svg version="1.1" id="Layer_1" xmlns="http://www.w3.org/2000/svg" xmlns:xlink="http://www.w3.org/1999/xlink" x="0px" y="0px"
	 viewBox="0 0 479.2 269.6" style="enable-background:new 0 0 479.2 269.6;" xml:space="preserve">
<style type="text/css">
	.st0{fill:#FFFFFF;}
	.st1{clip-path:url(#SVGID_2_);fill:#383737;}
	.st2{clip-path:url(#SVGID_2_);fill:none;stroke:#707070;}
	.st3{clip-path:url(#SVGID_2_);fill:#FFFFFF;}
	
		.st4{opacity:0.302;clip-path:url(#SVGID_2_);fill:none;stroke:#707070;stroke-width:0.5;stroke-linecap:round;stroke-linejoin:round;}
	.st5{clip-path:url(#SVGID_2_);fill:#707070;}
	.st6{opacity:5.100000e-02;clip-path:url(#SVGID_2_);fill:none;stroke:#000000;stroke-width:2;}
	.st7{clip-path:url(#SVGID_2_);}
	.st8{opacity:0.302;}
	.st9{opacity:0;clip-path:url(#SVGID_2_);fill:none;stroke:#365A0C;stroke-width:2;}
	.st10{clip-path:url(#SVGID_2_);fill:none;stroke:#030303;stroke-width:2;}
	.st11{opacity:0;clip-path:url(#SVGID_2_);fill:none;stroke:#030303;stroke-width:2;}
	.st12{opacity:0.302;clip-path:url(#SVGID_2_);enable-background:new    ;}
	.st13{clip-path:url(#SVGID_4_);fill:#FFFFFF;}
	.st14{clip-path:url(#SVGID_4_);fill:none;stroke:#707070;stroke-width:0.5;stroke-linecap:round;stroke-linejoin:round;}
	.st15{clip-path:url(#SVGID_6_);fill:#FFFFFF;}
	.st16{clip-path:url(#SVGID_6_);fill:none;stroke:#707070;stroke-width:0.5;stroke-linecap:round;stroke-linejoin:round;}
	.st17{clip-path:url(#SVGID_8_);fill:#FFFFFF;}
	.st18{clip-path:url(#SVGID_8_);fill:none;stroke:#707070;stroke-width:0.5;stroke-linecap:round;stroke-linejoin:round;}
	.st19{opacity:0.302;clip-path:url(#SVGID_2_);fill:none;stroke:#707070;stroke-width:0.5;stroke-linecap:round;}
	.st20{clip-path:url(#SVGID_10_);fill:none;stroke:#000000;stroke-width:0.5;stroke-linecap:round;stroke-linejoin:round;}
	.st21{clip-path:url(#SVGID_2_);fill:#020202;}
	.st22{clip-path:url(#SVGID_2_);fill:none;stroke:#707070;stroke-width:0.2;}
	.st23{clip-path:url(#SVGID_2_);fill:none;stroke:#FFF100;stroke-width:2;stroke-linecap:round;}
	.st24{clip-path:url(#SVGID_2_);fill:#114B9A;}
	.st25{clip-path:url(#SVGID_2_);fill:#68C5F5;}
	.st26{clip-path:url(#SVGID_2_);fill-rule:evenodd;clip-rule:evenodd;fill:#FDF8F8;}
	.st27{clip-path:url(#SVGID_12_);enable-background:new    ;}
	.st28{clip-path:url(#SVGID_14_);fill:#FFFFFF;}
	.st29{clip-path:url(#SVGID_16_);enable-background:new    ;}
	.st30{clip-path:url(#SVGID_18_);fill:#D62828;}
	.st31{clip-path:url(#SVGID_18_);fill:#44AA42;}
	.st32{clip-path:url(#SVGID_18_);fill:#5B7FBF;}
	.st33{clip-path:url(#SVGID_18_);fill:#F4C100;}
	.st34{fill:#FFF100;}
	.st35{fill:#808080;}
	.st36{fill:#171616;}
	.st37{opacity:0.302;enable-background:new    ;}
	.st38{clip-path:url(#SVGID_20_);}
	.st39{clip-path:url(#SVGID_22_);enable-background:new    ;}
	.st40{clip-path:url(#SVGID_24_);fill:none;stroke:#030303;stroke-width:0.5;}
	.st41{fill-rule:evenodd;clip-rule:evenodd;fill:none;}
	.st42{fill:none;}
	.st43{clip-path:url(#SVGID_26_);fill:#FFFFFF;}
	.st44{clip-path:url(#SVGID_26_);}
	.st45{clip-path:url(#SVGID_28_);fill:#383737;}
	.st46{clip-path:url(#SVGID_28_);fill:none;stroke:#707070;}
	.st47{clip-path:url(#SVGID_28_);fill:#FFFFFF;}
	.st48{opacity:0.302;clip-path:url(#SVGID_28_);enable-background:new    ;}
	.st49{clip-path:url(#SVGID_30_);fill:#FFFFFF;}
	.st50{clip-path:url(#SVGID_30_);fill:none;stroke:#707070;stroke-width:0.5;stroke-linecap:round;stroke-linejoin:round;}
	.st51{clip-path:url(#SVGID_32_);fill:#FFFFFF;}
	.st52{clip-path:url(#SVGID_32_);fill:none;stroke:#707070;stroke-width:0.5;stroke-linecap:round;stroke-linejoin:round;}
	.st53{clip-path:url(#SVGID_34_);fill:#FFFFFF;}
	.st54{clip-path:url(#SVGID_34_);fill:none;stroke:#707070;stroke-width:0.5;stroke-linecap:round;stroke-linejoin:round;}
	.st55{clip-path:url(#SVGID_28_);fill:#114B9A;}
	.st56{clip-path:url(#SVGID_28_);fill:#68C5F5;}
	.st57{clip-path:url(#SVGID_36_);fill:#FFFFFF;}
	.st58{clip-path:url(#SVGID_36_);fill:none;stroke:#707070;stroke-width:0.5;stroke-linecap:round;stroke-linejoin:round;}
	.st59{clip-path:url(#SVGID_38_);fill:#FFFFFF;}
	.st60{clip-path:url(#SVGID_38_);fill:none;stroke:#707070;stroke-width:0.5;stroke-linecap:round;stroke-linejoin:round;}
	.st61{clip-path:url(#SVGID_28_);fill:#FFF100;}
	.st62{clip-path:url(#SVGID_28_);fill:#707070;}
	.st63{opacity:0.302;clip-path:url(#SVGID_28_);fill:none;stroke:#707070;stroke-width:0.5;stroke-linecap:round;}
	.st64{clip-path:url(#SVGID_40_);fill:none;stroke:#000000;stroke-width:0.5;stroke-linecap:round;stroke-linejoin:round;}
	.st65{clip-path:url(#SVGID_42_);fill:none;stroke:#000000;stroke-width:0.5;stroke-linecap:round;stroke-linejoin:round;}
	.st66{opacity:5.100000e-02;clip-path:url(#SVGID_28_);fill:none;stroke:#000000;stroke-width:2;}
	.st67{clip-path:url(#SVGID_28_);}
	.st68{opacity:0;clip-path:url(#SVGID_28_);fill:none;stroke:#365A0C;stroke-width:2;}
	.st69{clip-path:url(#SVGID_28_);fill:none;stroke:#030303;stroke-width:2;}
	.st70{opacity:0;clip-path:url(#SVGID_28_);fill:none;stroke:#030303;stroke-width:2;}
	.st71{opacity:0.298;}
	.st72{clip-path:url(#SVGID_28_);fill:none;stroke:#707070;stroke-width:0.2;}
	.st73{clip-path:url(#SVGID_28_);fill:#020202;}
	.st74{clip-path:url(#SVGID_28_);fill-rule:evenodd;clip-rule:evenodd;fill:#FDF8F8;}
	.st75{clip-path:url(#SVGID_28_);fill:none;stroke:#FFF100;stroke-width:2;stroke-linecap:round;}
	.st76{clip-path:url(#SVGID_44_);enable-background:new    ;}
	.st77{clip-path:url(#SVGID_46_);fill:#FFFFFF;}
	.st78{clip-path:url(#SVGID_48_);enable-background:new    ;}
	.st79{clip-path:url(#SVGID_50_);fill:#D62828;}
	.st80{clip-path:url(#SVGID_50_);fill:#44AA42;}
	.st81{clip-path:url(#SVGID_50_);fill:#5B7FBF;}
	.st82{clip-path:url(#SVGID_50_);fill:#F4C100;}
	.st83{clip-path:url(#SVGID_52_);fill:#FFF100;}
	.st84{clip-path:url(#SVGID_52_);fill:#FFFFFF;}
	.st85{clip-path:url(#SVGID_52_);fill:#808080;}
	.st86{clip-path:url(#SVGID_52_);fill:#171616;}
	.st87{clip-path:url(#SVGID_52_);fill:#383737;}
	
		.st88{opacity:0.302;clip-path:url(#SVGID_52_);fill:none;stroke:#707070;stroke-width:0.5;stroke-linecap:round;stroke-linejoin:round;}
	.st89{opacity:0.302;clip-path:url(#SVGID_52_);enable-background:new    ;}
	.st90{clip-path:url(#SVGID_54_);}
	.st91{clip-path:url(#SVGID_56_);enable-background:new    ;}
	.st92{clip-path:url(#SVGID_58_);fill:none;stroke:#030303;stroke-width:0.5;}
	.st93{clip-path:url(#SVGID_60_);}
	.st94{clip-path:url(#SVGID_62_);enable-background:new    ;}
	.st95{clip-path:url(#SVGID_64_);fill:#DCDCDD;}
	.st96{clip-path:url(#SVGID_64_);fill:none;stroke:#000000;stroke-width:0.5;}
	.st97{fill:#383737;}
</style>
<rect x="297.3" y="35" class="st34" width="42.8" height="211"/>
<path class="st0" d="M371.2,193.5h-20.4v-42.9h20.4c20.1,0,36.4-16.3,36.4-36.4c0-20.1-16.3-36.4-36.4-36.4h-20.4V35h20.4
	c43.7,0,79.3,35.6,79.3,79.3C450.4,158,414.9,193.5,371.2,193.5"/>
<path class="st0" d="M145.5,80.9c0,1.1,0.1,2.3,0.4,3.4c1.8,6.5,7.4,10.8,13.9,10.8c9.7,0,15.3-7.9,15.3-19.1
	c0-9.5-5.3-18.1-14.9-18.1c-6.2,0-12.2,4.2-14,11.2c-0.3,1.1-0.6,2.5-0.6,3.6V80.9z M141.2,68.7c0-5.3-0.1-9.4-0.4-13.5h4.1l0.3,8
	h0.2c3.1-5.6,8.3-9,15.7-9c10.9,0,18.2,9,18.2,21.4c0,15.1-9,22.9-19.2,22.9c-6.1,0-11.5-2.7-14.4-7.9h-0.2V115h-4.2V68.7z"/>
<path class="st0" d="M186.6,97.5V55.2h4.2v42.4H186.6z M188.5,46.7c-1.9,0-3.3-1.7-3.3-3.6c0-1.9,1.5-3.7,3.4-3.7
	c1.9,0,3.4,1.7,3.4,3.7C192.1,45,190.7,46.7,188.5,46.7L188.5,46.7z"/>
<path class="st0" d="M201,55.2l7.2,10.3c1.9,2.5,3.3,4.7,4.9,7.2h0.2c1.6-2.6,3.3-4.9,4.9-7.2l7.2-10.3h4.7l-14.7,20.6l15.3,21.7
	h-4.9l-7.5-10.7c-1.9-2.7-3.5-5.3-5.3-7.9h-0.2c-1.6,2.7-3.3,5-5.3,7.9l-7.4,10.7h-4.8l15.5-21.6l-14.6-20.7H201z"/>
<path class="st0" d="M262.6,72.6c0.1-5.9-2.4-14.8-12.6-14.8c-9.4,0-13.3,8.3-14.1,14.8H262.6z M235.6,75.9
	c0,13.5,7.4,18.9,16.1,18.9c6.2,0,9.4-1.2,11.7-2.4l1.1,3.3c-1.6,0.9-5.9,2.7-13.3,2.7c-12.2,0-19.8-8.8-19.8-21.3
	c0-14.1,8.1-22.9,19.1-22.9c13.9,0,16.5,13.1,16.5,19.1c0,1.1,0,1.8-0.2,2.6H235.6z"/>
<rect x="274.3" y="34.8" class="st0" width="4.2" height="62.7"/>
<path class="st34" d="M60.6,156.3c-1.8,0.9-6.2,2.7-12.3,2.7c-12,0-20-8.8-20-21.3c0-13.3,9-22.3,21.5-22.3c5.1,0,9.4,1.5,11,2.6
	l-1.5,3.4c-2-1.2-5.2-2.4-9.8-2.4c-11.2,0-17,8.5-17,18.3c0,11,6.9,18.1,16.5,18.1c5,0,8.2-1.4,10.4-2.4L60.6,156.3z"/>
<path class="st34" d="M84.8,155.6c8.7,0,15.6-7.8,15.6-18.5c0-7.6-4.3-18.2-15.3-18.2c-10.7,0-15.5,9.5-15.5,18.4
	C69.6,147.8,76.2,155.6,84.8,155.6L84.8,155.6z M84.5,159.1c-10.8,0-19.1-8.4-19.1-21.5c0-14.3,9.4-22.2,19.7-22.2
	c11.6,0,19.4,8.7,19.4,21.5C104.5,152.4,93.8,159.1,84.5,159.1L84.5,159.1z"/>
<path class="st34" d="M145.5,148c0,3.7,0.1,7,0.3,10.2H142l-0.3-7.5h-0.2c-2.1,3.9-6.9,8.4-14.3,8.4c-5.3,0-14.3-2.7-14.3-18.4
	v-24.3h4.2v23.5c0,9,2.8,15.6,11,15.6c6.1,0,10.5-4.3,12.3-8.4c0.4-1.3,0.8-3,0.8-4.6v-26h4.2V148z"/>
<path class="st34" d="M157.8,126.4c0-3.8-0.1-6.7-0.3-10h3.9l0.3,7.5h0.2c2.3-4.7,7.6-8.4,14.3-8.4c4,0,14.6,2,14.6,17.6v25h-4.2
	v-24.7c0-7.6-3-14.5-11.6-14.5c-5.8,0-10.9,4.2-12.5,9.6c-0.3,1-0.5,2.3-0.5,3.7v25.9h-4.2V126.4z"/>
<path class="st34" d="M200.9,152.7c2.3,1.4,5.7,2.9,9.4,2.9c6.6,0,9.7-3.6,9.7-7.9c0-4.6-2.8-7-8.8-9.5c-6.9-2.6-10.6-6.3-10.6-11.4
	c0-6.1,4.8-11.3,12.9-11.3c3.8,0,7.1,1.1,9.2,2.6l-1.6,3.4c-1.5-1-4.2-2.5-8.3-2.5c-5.3,0-8.1,3.4-8.1,7.2c0,4.3,3,6.2,8.6,8.5
	c6.8,2.7,10.8,6.1,10.8,12.4c0,7.1-5.6,11.9-14.1,11.9c-4,0-7.8-1.1-10.6-2.9L200.9,152.7z"/>
<path class="st34" d="M260.5,133.5c0.1-5.8-2.3-14.6-12.4-14.6c-9.2,0-13.1,8.2-13.9,14.6H260.5z M233.9,136.8
	c0,13.3,7.3,18.6,15.9,18.6c6.1,0,9.2-1.2,11.6-2.3l1,3.2c-1.6,0.9-5.8,2.7-13.1,2.7c-12,0-19.5-8.7-19.5-20.9
	c0-13.9,8-22.6,18.8-22.6c13.6,0,16.3,12.9,16.3,18.9c0,1.1,0,1.7-0.2,2.5H233.9z"/>
<rect x="274.3" y="96.3" class="st34" width="4.2" height="61.8"/>
<path class="st35" d="M166.9,201.7c-1.5,0-2.6-1.4-2.6-3c0-1.7,1.1-3,2.7-3c1.6,0,2.6,1.3,2.6,3
	C169.7,200.3,168.6,201.7,166.9,201.7L166.9,201.7z"/>
<path class="st35" d="M196.9,199.6c-1.4,0.7-4.7,2-9.3,2c-9.1,0-15.2-6.7-15.2-16.2c0-10.1,6.9-16.9,16.3-16.9c3.9,0,7.1,1.1,8.3,2
	l-1.1,2.6c-1.5-0.9-4-1.9-7.5-1.9c-8.5,0-12.9,6.5-12.9,13.9c0,8.3,5.2,13.8,12.6,13.8c3.8,0,6.2-1.1,7.9-1.9L196.9,199.6z"/>
<path class="st35" d="M214,199c6.6,0,11.8-6,11.8-14.1c0-5.8-3.2-13.8-11.6-13.8c-8.1,0-11.8,7.2-11.8,14
	C202.4,193.1,207.4,199,214,199L214,199z M213.8,201.7c-8.2,0-14.5-6.4-14.5-16.3c0-10.8,7.1-16.9,15-16.9c8.8,0,14.7,6.6,14.7,16.3
	C229,196.6,220.9,201.7,213.8,201.7L213.8,201.7z"/>
<path class="st35" d="M234.4,176.8c0-2.9-0.1-5.1-0.3-7.6h3l0.2,5.6h0.1c2-3.6,5.1-6.3,10.3-6.3c4.4,0,7.7,2.9,9.1,6.9h0.1
	c0.9-1.9,2.1-3.3,3.2-4.3c2-1.7,4.2-2.6,7.5-2.6c3.1,0,10.4,1.7,10.4,13.8v18.7H275v-18.4c0-7.1-2.8-11.4-8.3-11.4
	c-4,0-7.1,3-8.3,6.3c-0.3,0.9-0.5,2-0.5,3.2v20.4h-3.2V181c0-5.7-2.7-9.9-7.9-9.9c-4.2,0-7.6,3.4-8.8,7.1c-0.3,0.9-0.5,2-0.5,3.1
	v19.6h-3.2V176.8z"/>
</svg>
