<?xml version="1.0" encoding="utf-8"?>
<!-- Generator: Adobe Illustrator 24.0.2, SVG Export Plug-In . SVG Version: 6.00 Build 0)  -->
<svg version="1.1" id="Layer_1" xmlns="http://www.w3.org/2000/svg" xmlns:xlink="http://www.w3.org/1999/xlink" x="0px" y="0px"
	 viewBox="0 0 499.2 196.6" style="enable-background:new 0 0 499.2 196.6;" xml:space="preserve">
<style type="text/css">
	.st0{fill:#4D4D4D;}
	.st1{fill:#333333;}
	.st2{fill:#FFF100;}
	.st3{clip-path:url(#SVGID_4_);fill:#FFFFFF;}
	.st4{clip-path:url(#SVGID_6_);fill:#FFF100;}
	.st5{clip-path:url(#SVGID_6_);fill:#B3B3B3;}
	.st6{fill:none;stroke:#6D6E70;stroke-width:0.948;stroke-miterlimit:10;}
	.st7{fill:none;}
	.st8{fill:#FFFFFF;}
	.st9{fill:none;stroke:#929497;stroke-width:0.75;stroke-miterlimit:10;}
	.st10{fill:#808083;}
	.st11{fill:none;stroke:#FFFFFF;stroke-width:1.122;stroke-linecap:round;stroke-linejoin:round;}
	.st12{opacity:0.58;clip-path:url(#SVGID_8_);}
	.st13{clip-path:url(#SVGID_10_);fill:#231F20;}
	.st14{clip-path:url(#SVGID_8_);fill:none;stroke:#999999;stroke-width:0.1;stroke-miterlimit:10;}
	.st15{fill:none;stroke:#999999;stroke-width:0.1;stroke-miterlimit:10;}
	.st16{fill:none;stroke:#FFFFFF;stroke-width:0.403;stroke-miterlimit:10;}
	.st17{fill:#BABCBE;}
	.st18{clip-path:url(#SVGID_12_);fill:none;stroke:#FFFFFF;stroke-width:9.700000e-02;stroke-miterlimit:10;}
	.st19{clip-path:url(#SVGID_12_);fill:#FFF100;}
	.st20{clip-path:url(#SVGID_12_);fill:#FFFFFF;}
	.st21{clip-path:url(#SVGID_14_);fill:#FFF100;}
	.st22{opacity:0.2;clip-path:url(#SVGID_16_);}
	.st23{clip-path:url(#SVGID_18_);}
	.st24{clip-path:url(#SVGID_16_);fill:#FFFFFF;}
	.st25{clip-path:url(#SVGID_20_);fill:none;stroke:#4D4D4D;stroke-width:0.547;}
	.st26{clip-path:url(#SVGID_20_);fill:#31538D;}
	.st27{clip-path:url(#SVGID_22_);fill:#B3B3B3;}
	.st28{fill:none;stroke:#4D4D4D;stroke-width:0.5;stroke-miterlimit:10;}
	.st29{clip-path:url(#SVGID_24_);fill:none;stroke:#4D4D4D;stroke-width:0.5;stroke-miterlimit:10;}
	.st30{fill:none;stroke:#808080;stroke-width:0.5;stroke-miterlimit:10;}
	.st31{clip-path:url(#SVGID_26_);}
	.st32{clip-path:url(#SVGID_28_);fill:#333333;}
	.st33{clip-path:url(#SVGID_28_);}
	.st34{clip-path:url(#SVGID_30_);fill:#FFFFFF;}
	.st35{clip-path:url(#SVGID_30_);fill:none;stroke:#929497;stroke-width:0.75;stroke-miterlimit:10;}
	.st36{clip-path:url(#SVGID_30_);fill:#808083;}
	.st37{clip-path:url(#SVGID_30_);fill:none;stroke:#FFFFFF;stroke-width:1.122;stroke-linecap:round;stroke-linejoin:round;}
	.st38{clip-path:url(#SVGID_32_);fill:none;stroke:#999999;stroke-width:0.1;stroke-miterlimit:10;}
	.st39{clip-path:url(#SVGID_34_);fill:none;stroke:#999999;stroke-width:0.1;stroke-miterlimit:10;}
	.st40{opacity:0.2;clip-path:url(#SVGID_34_);}
	.st41{clip-path:url(#SVGID_36_);}
	.st42{clip-path:url(#SVGID_34_);fill:#FFFFFF;}
	.st43{clip-path:url(#SVGID_34_);fill:#999999;}
	.st44{clip-path:url(#SVGID_38_);fill:#999999;}
	.st45{clip-path:url(#SVGID_40_);fill:none;stroke:#4D4D4D;stroke-width:0.518;}
	.st46{clip-path:url(#SVGID_40_);fill:#31538D;}
	.st47{clip-path:url(#SVGID_42_);fill:#666666;}
	.st48{clip-path:url(#SVGID_42_);fill:#CCCCCC;}
	.st49{opacity:0.58;clip-path:url(#SVGID_44_);}
	.st50{clip-path:url(#SVGID_46_);fill:#231F20;}
	.st51{clip-path:url(#SVGID_44_);fill:#666666;}
	.st52{clip-path:url(#SVGID_44_);fill:#CCCCCC;}
	.st53{clip-path:url(#SVGID_48_);fill:none;stroke:#808080;stroke-width:0.5;stroke-miterlimit:10;}
	.st54{clip-path:url(#SVGID_50_);fill:#FFFFFF;}
	.st55{clip-path:url(#SVGID_28_);fill:none;stroke:#808080;stroke-width:0.5;stroke-miterlimit:10;}
	.st56{clip-path:url(#SVGID_52_);}
	.st57{clip-path:url(#SVGID_54_);fill:#F2F2F2;}
	.st58{clip-path:url(#SVGID_54_);}
	.st59{clip-path:url(#SVGID_56_);fill:#E6E6E6;}
	.st60{clip-path:url(#SVGID_56_);fill:#333333;}
	.st61{clip-path:url(#SVGID_58_);fill:none;stroke:#999999;stroke-width:0.1;stroke-miterlimit:10;}
	.st62{clip-path:url(#SVGID_60_);fill:none;stroke:#999999;stroke-width:0.1;stroke-miterlimit:10;}
	.st63{opacity:0.2;clip-path:url(#SVGID_60_);}
	.st64{clip-path:url(#SVGID_62_);}
	.st65{clip-path:url(#SVGID_60_);fill:#FFFFFF;}
	.st66{clip-path:url(#SVGID_60_);fill:#999999;}
	.st67{clip-path:url(#SVGID_64_);fill:#999999;}
	.st68{clip-path:url(#SVGID_66_);fill:none;stroke:#4D4D4D;stroke-width:0.518;}
	.st69{clip-path:url(#SVGID_66_);fill:#31538D;}
	.st70{clip-path:url(#SVGID_68_);fill:#666666;}
	.st71{clip-path:url(#SVGID_68_);fill:#CCCCCC;}
	.st72{opacity:0.58;clip-path:url(#SVGID_70_);}
	.st73{clip-path:url(#SVGID_72_);fill:#231F20;}
	.st74{clip-path:url(#SVGID_70_);fill:#666666;}
	.st75{clip-path:url(#SVGID_70_);fill:#CCCCCC;}
	.st76{clip-path:url(#SVGID_74_);fill:#FFFFFF;}
	
		.st77{clip-path:url(#SVGID_76_);fill:none;stroke:#CCCCCC;stroke-width:0.468;stroke-linecap:round;stroke-linejoin:round;stroke-miterlimit:10;}
	
		.st78{clip-path:url(#SVGID_76_);fill:none;stroke:#FFFFFF;stroke-width:0.468;stroke-linecap:round;stroke-linejoin:round;stroke-miterlimit:10;}
	.st79{clip-path:url(#SVGID_78_);fill:#F2F2F2;}
	.st80{clip-path:url(#SVGID_78_);fill:#E6E6E6;}
	
		.st81{clip-path:url(#SVGID_80_);fill:none;stroke:#CCCCCC;stroke-width:0.554;stroke-linecap:round;stroke-linejoin:round;stroke-miterlimit:10;}
	
		.st82{clip-path:url(#SVGID_80_);fill:none;stroke:#FFFFFF;stroke-width:0.468;stroke-linecap:round;stroke-linejoin:round;stroke-miterlimit:10;}
	.st83{clip-path:url(#SVGID_82_);fill:#F2F2F2;}
	.st84{clip-path:url(#SVGID_82_);fill:#E6E6E6;}
	
		.st85{clip-path:url(#SVGID_84_);fill:none;stroke:#CCCCCC;stroke-width:0.393;stroke-linecap:round;stroke-linejoin:round;stroke-miterlimit:10;}
	
		.st86{clip-path:url(#SVGID_84_);fill:none;stroke:#FFFFFF;stroke-width:0.468;stroke-linecap:round;stroke-linejoin:round;stroke-miterlimit:10;}
	.st87{clip-path:url(#SVGID_86_);fill:#F2F2F2;}
	.st88{clip-path:url(#SVGID_86_);fill:#E6E6E6;}
	
		.st89{clip-path:url(#SVGID_88_);fill:none;stroke:#CCCCCC;stroke-width:0.393;stroke-linecap:round;stroke-linejoin:round;stroke-miterlimit:10;}
	
		.st90{clip-path:url(#SVGID_88_);fill:none;stroke:#FFFFFF;stroke-width:0.468;stroke-linecap:round;stroke-linejoin:round;stroke-miterlimit:10;}
	.st91{clip-path:url(#SVGID_90_);fill:#F2F2F2;}
	.st92{clip-path:url(#SVGID_90_);fill:#E6E6E6;}
	
		.st93{clip-path:url(#SVGID_92_);fill:none;stroke:#CCCCCC;stroke-width:0.393;stroke-linecap:round;stroke-linejoin:round;stroke-miterlimit:10;}
	
		.st94{clip-path:url(#SVGID_92_);fill:none;stroke:#FFFFFF;stroke-width:0.468;stroke-linecap:round;stroke-linejoin:round;stroke-miterlimit:10;}
	.st95{clip-path:url(#SVGID_94_);fill:#F2F2F2;}
	.st96{clip-path:url(#SVGID_94_);fill:#E6E6E6;}
	
		.st97{clip-path:url(#SVGID_96_);fill:none;stroke:#CCCCCC;stroke-width:0.393;stroke-linecap:round;stroke-linejoin:round;stroke-miterlimit:10;}
	
		.st98{clip-path:url(#SVGID_96_);fill:none;stroke:#FFFFFF;stroke-width:0.468;stroke-linecap:round;stroke-linejoin:round;stroke-miterlimit:10;}
	.st99{clip-path:url(#SVGID_98_);fill:#F2F2F2;}
	.st100{clip-path:url(#SVGID_98_);fill:#662D91;}
	
		.st101{clip-path:url(#SVGID_100_);fill:none;stroke:#CCCCCC;stroke-width:0.393;stroke-linecap:round;stroke-linejoin:round;stroke-miterlimit:10;}
	
		.st102{clip-path:url(#SVGID_100_);fill:none;stroke:#FFFFFF;stroke-width:0.468;stroke-linecap:round;stroke-linejoin:round;stroke-miterlimit:10;}
	.st103{clip-path:url(#SVGID_102_);fill:#F2F2F2;}
	.st104{clip-path:url(#SVGID_102_);fill:#FBB03B;}
	
		.st105{clip-path:url(#SVGID_104_);fill:none;stroke:#CCCCCC;stroke-width:0.393;stroke-linecap:round;stroke-linejoin:round;stroke-miterlimit:10;}
	
		.st106{clip-path:url(#SVGID_104_);fill:none;stroke:#FFFFFF;stroke-width:0.468;stroke-linecap:round;stroke-linejoin:round;stroke-miterlimit:10;}
	.st107{clip-path:url(#SVGID_106_);fill:#F2F2F2;}
	.st108{clip-path:url(#SVGID_106_);fill:#E6E6E6;}
	
		.st109{clip-path:url(#SVGID_108_);fill:none;stroke:#CCCCCC;stroke-width:0.393;stroke-linecap:round;stroke-linejoin:round;stroke-miterlimit:10;}
	
		.st110{clip-path:url(#SVGID_108_);fill:none;stroke:#FFFFFF;stroke-width:0.468;stroke-linecap:round;stroke-linejoin:round;stroke-miterlimit:10;}
	.st111{clip-path:url(#SVGID_110_);fill:#F2F2F2;}
	.st112{clip-path:url(#SVGID_110_);fill:#E6E6E6;}
	
		.st113{clip-path:url(#SVGID_112_);fill:none;stroke:#CCCCCC;stroke-width:0.454;stroke-linecap:round;stroke-linejoin:round;stroke-miterlimit:10;}
	
		.st114{clip-path:url(#SVGID_112_);fill:none;stroke:#FFFFFF;stroke-width:0.468;stroke-linecap:round;stroke-linejoin:round;stroke-miterlimit:10;}
	.st115{clip-path:url(#SVGID_114_);fill:#F2F2F2;}
	.st116{clip-path:url(#SVGID_114_);fill:#E6E6E6;}
	
		.st117{clip-path:url(#SVGID_116_);fill:none;stroke:#CCCCCC;stroke-width:0.454;stroke-linecap:round;stroke-linejoin:round;stroke-miterlimit:10;}
	
		.st118{clip-path:url(#SVGID_116_);fill:none;stroke:#FFFFFF;stroke-width:0.468;stroke-linecap:round;stroke-linejoin:round;stroke-miterlimit:10;}
	.st119{clip-path:url(#SVGID_118_);fill:#F2F2F2;}
	.st120{clip-path:url(#SVGID_118_);fill:#E6E6E6;}
	
		.st121{clip-path:url(#SVGID_120_);fill:none;stroke:#CCCCCC;stroke-width:0.489;stroke-linecap:round;stroke-linejoin:round;stroke-miterlimit:10;}
	
		.st122{clip-path:url(#SVGID_120_);fill:none;stroke:#FFFFFF;stroke-width:0.468;stroke-linecap:round;stroke-linejoin:round;stroke-miterlimit:10;}
	.st123{clip-path:url(#SVGID_122_);fill:#F2F2F2;}
	.st124{clip-path:url(#SVGID_122_);fill:#E6E6E6;}
	
		.st125{clip-path:url(#SVGID_124_);fill:none;stroke:#CCCCCC;stroke-width:0.489;stroke-linecap:round;stroke-linejoin:round;stroke-miterlimit:10;}
	
		.st126{clip-path:url(#SVGID_124_);fill:none;stroke:#FFFFFF;stroke-width:0.468;stroke-linecap:round;stroke-linejoin:round;stroke-miterlimit:10;}
	.st127{clip-path:url(#SVGID_126_);fill:#E6E6E6;}
	
		.st128{clip-path:url(#SVGID_128_);fill:none;stroke:#808080;stroke-width:2;stroke-linecap:round;stroke-linejoin:round;stroke-miterlimit:10;}
	.st129{clip-path:url(#SVGID_128_);fill:#4D4D4D;}
	.st130{clip-path:url(#SVGID_128_);fill:none;stroke:#B3B3B3;stroke-width:3;stroke-miterlimit:10;}
	.st131{clip-path:url(#SVGID_130_);fill:#FFFF00;}
	.st132{clip-path:url(#SVGID_130_);fill:#666666;}
	.st133{clip-path:url(#SVGID_130_);fill:none;stroke:#B3B3B3;stroke-miterlimit:10;}
	.st134{clip-path:url(#SVGID_132_);fill:none;stroke:#808080;stroke-width:0.5;stroke-miterlimit:10;}
	.st135{clip-path:url(#SVGID_134_);}
	.st136{clip-path:url(#SVGID_136_);fill:#333333;}
	.st137{clip-path:url(#SVGID_136_);fill:none;stroke:#999999;stroke-width:0.1;stroke-miterlimit:10;}
	.st138{clip-path:url(#SVGID_136_);}
	.st139{opacity:0.2;clip-path:url(#SVGID_138_);}
	.st140{clip-path:url(#SVGID_140_);}
	.st141{clip-path:url(#SVGID_136_);fill:#FFFFFF;}
	.st142{clip-path:url(#SVGID_142_);fill:#999999;}
	.st143{clip-path:url(#SVGID_144_);fill:#999999;}
	.st144{clip-path:url(#SVGID_146_);fill:none;stroke:#4D4D4D;stroke-width:0.518;}
	.st145{clip-path:url(#SVGID_146_);fill:#31538D;}
	.st146{clip-path:url(#SVGID_148_);fill:#666666;}
	.st147{clip-path:url(#SVGID_148_);fill:#CCCCCC;}
	.st148{opacity:0.58;clip-path:url(#SVGID_150_);}
	.st149{clip-path:url(#SVGID_152_);fill:#231F20;}
	.st150{clip-path:url(#SVGID_150_);fill:#666666;}
	.st151{clip-path:url(#SVGID_150_);fill:#CCCCCC;}
	.st152{clip-path:url(#SVGID_150_);fill:#FFFFFF;}
	.st153{clip-path:url(#SVGID_150_);fill:none;stroke:#929497;stroke-width:0.75;stroke-miterlimit:10;}
	.st154{clip-path:url(#SVGID_150_);fill:#808083;}
	.st155{clip-path:url(#SVGID_150_);fill:none;stroke:#FFFFFF;stroke-width:1.122;stroke-linecap:round;stroke-linejoin:round;}
	.st156{clip-path:url(#SVGID_154_);fill:none;stroke:#999999;stroke-width:0.591;stroke-miterlimit:10;}
	.st157{clip-path:url(#SVGID_156_);fill:none;stroke:#999999;stroke-width:0.591;stroke-miterlimit:10;}
	.st158{clip-path:url(#SVGID_158_);fill:none;stroke:#999999;stroke-width:0.591;stroke-miterlimit:10;}
	.st159{clip-path:url(#SVGID_160_);fill:none;stroke:#808080;stroke-width:0.25;stroke-miterlimit:10;}
	.st160{clip-path:url(#SVGID_166_);fill:none;stroke:#808080;stroke-width:0.25;stroke-miterlimit:10;}
	.st161{clip-path:url(#SVGID_168_);fill:none;stroke:#808080;stroke-width:0.25;stroke-miterlimit:10;}
	.st162{clip-path:url(#SVGID_170_);fill:none;stroke:#808080;stroke-width:0.25;stroke-miterlimit:10;}
	.st163{clip-path:url(#SVGID_172_);fill:none;stroke:#808080;stroke-width:0.25;stroke-miterlimit:10;}
	.st164{clip-path:url(#SVGID_174_);fill:none;stroke:#808080;stroke-width:0.25;stroke-miterlimit:10;}
	.st165{clip-path:url(#SVGID_176_);fill:none;stroke:#808080;stroke-width:0.25;stroke-miterlimit:10;}
	.st166{clip-path:url(#SVGID_178_);fill:none;stroke:#808080;stroke-width:0.25;stroke-miterlimit:10;}
	.st167{clip-path:url(#SVGID_180_);fill:none;stroke:#808080;stroke-width:0.25;stroke-miterlimit:10;}
	.st168{clip-path:url(#SVGID_182_);fill:none;stroke:#808080;stroke-width:0.25;stroke-miterlimit:10;}
	.st169{clip-path:url(#SVGID_184_);fill:none;stroke:#808080;stroke-width:0.25;stroke-miterlimit:10;}
	.st170{clip-path:url(#SVGID_186_);fill:none;stroke:#808080;stroke-width:0.5;stroke-miterlimit:10;}
	.st171{clip-path:url(#SVGID_188_);}
	.st172{clip-path:url(#SVGID_190_);fill:#4D4D4D;}
	.st173{clip-path:url(#SVGID_190_);fill:#FCEE21;}
	.st174{clip-path:url(#SVGID_190_);}
	.st175{clip-path:url(#SVGID_192_);fill:#FFFFFF;}
	.st176{clip-path:url(#SVGID_192_);fill:none;stroke:#929497;stroke-width:1.031;stroke-miterlimit:10;}
	.st177{clip-path:url(#SVGID_192_);fill:#808083;}
	.st178{clip-path:url(#SVGID_192_);fill:none;stroke:#FFFFFF;stroke-width:1.541;stroke-linecap:round;stroke-linejoin:round;}
	.st179{clip-path:url(#SVGID_194_);fill:none;stroke:#999999;stroke-width:0.1;stroke-miterlimit:10;}
	.st180{clip-path:url(#SVGID_196_);fill:none;stroke:#999999;stroke-width:0.1;stroke-miterlimit:10;}
	.st181{opacity:0.2;clip-path:url(#SVGID_196_);}
	.st182{clip-path:url(#SVGID_198_);}
	.st183{clip-path:url(#SVGID_196_);fill:#FFFFFF;}
	.st184{clip-path:url(#SVGID_196_);fill:#999999;}
	.st185{clip-path:url(#SVGID_200_);fill:#999999;}
	.st186{clip-path:url(#SVGID_202_);fill:none;stroke:#4D4D4D;stroke-width:0.518;}
	.st187{clip-path:url(#SVGID_202_);fill:#31538D;}
	.st188{clip-path:url(#SVGID_204_);fill:#666666;}
	.st189{clip-path:url(#SVGID_204_);fill:#CCCCCC;}
	.st190{opacity:0.58;clip-path:url(#SVGID_206_);}
	.st191{clip-path:url(#SVGID_208_);fill:#231F20;}
	.st192{clip-path:url(#SVGID_206_);fill:#666666;}
	.st193{clip-path:url(#SVGID_206_);fill:#CCCCCC;}
	.st194{clip-path:url(#SVGID_206_);fill:#FFFFFF;}
	.st195{clip-path:url(#SVGID_206_);}
	.st196{clip-path:url(#SVGID_206_);fill:none;stroke:#FFFFFF;stroke-miterlimit:10;}
	.st197{clip-path:url(#SVGID_210_);}
	.st198{clip-path:url(#SVGID_210_);fill:none;stroke:#FFFFFF;stroke-width:0.5;stroke-miterlimit:10;}
	.st199{clip-path:url(#SVGID_212_);fill:#FFFFFF;}
	.st200{clip-path:url(#SVGID_212_);fill:none;stroke:#929497;stroke-width:0.75;stroke-miterlimit:10;}
	.st201{clip-path:url(#SVGID_212_);fill:#808083;}
	.st202{clip-path:url(#SVGID_214_);fill:#E6E6E6;}
	.st203{clip-path:url(#SVGID_214_);fill:none;stroke:#B3B3B3;stroke-width:0.242;stroke-miterlimit:10;}
	.st204{clip-path:url(#SVGID_190_);fill:none;stroke:#808080;stroke-width:0.5;stroke-miterlimit:10;}
	.st205{clip-path:url(#SVGID_216_);}
	.st206{clip-path:url(#SVGID_218_);fill:#4D4D4D;}
	.st207{clip-path:url(#SVGID_218_);fill:#FCEE21;}
	.st208{clip-path:url(#SVGID_218_);}
	.st209{clip-path:url(#SVGID_220_);fill:#FFFFFF;}
	.st210{clip-path:url(#SVGID_220_);fill:none;stroke:#929497;stroke-width:1.031;stroke-miterlimit:10;}
	.st211{clip-path:url(#SVGID_220_);fill:#808083;}
	.st212{clip-path:url(#SVGID_220_);fill:none;stroke:#FFFFFF;stroke-width:1.541;stroke-linecap:round;stroke-linejoin:round;}
	.st213{clip-path:url(#SVGID_222_);fill:none;stroke:#999999;stroke-width:0.1;stroke-miterlimit:10;}
	.st214{clip-path:url(#SVGID_224_);fill:none;stroke:#999999;stroke-width:0.1;stroke-miterlimit:10;}
	.st215{opacity:0.2;clip-path:url(#SVGID_224_);}
	.st216{clip-path:url(#SVGID_226_);}
	.st217{clip-path:url(#SVGID_224_);fill:#FFFFFF;}
	.st218{clip-path:url(#SVGID_224_);fill:#999999;}
	.st219{clip-path:url(#SVGID_228_);fill:#999999;}
	.st220{clip-path:url(#SVGID_230_);fill:none;stroke:#4D4D4D;stroke-width:0.518;}
	.st221{clip-path:url(#SVGID_230_);fill:#31538D;}
	.st222{clip-path:url(#SVGID_232_);fill:#666666;}
	.st223{clip-path:url(#SVGID_232_);fill:#CCCCCC;}
	.st224{opacity:0.58;clip-path:url(#SVGID_234_);}
	.st225{clip-path:url(#SVGID_236_);fill:#231F20;}
	.st226{clip-path:url(#SVGID_234_);fill:#666666;}
	.st227{clip-path:url(#SVGID_234_);fill:#CCCCCC;}
	.st228{clip-path:url(#SVGID_234_);fill:#FFFFFF;}
	.st229{clip-path:url(#SVGID_234_);}
	.st230{clip-path:url(#SVGID_234_);fill:none;stroke:#FFFFFF;stroke-width:0.5;stroke-miterlimit:10;}
	.st231{clip-path:url(#SVGID_238_);fill:#4D4D4D;}
	.st232{clip-path:url(#SVGID_238_);fill:none;stroke:#B3B3B3;stroke-width:0.75;stroke-miterlimit:10;}
	.st233{clip-path:url(#SVGID_240_);fill:#E6E6E6;}
	.st234{clip-path:url(#SVGID_242_);fill:none;stroke:#666666;stroke-width:0.25;stroke-miterlimit:10;}
	.st235{clip-path:url(#SVGID_244_);fill:none;stroke:#666666;stroke-width:0.25;stroke-miterlimit:10;}
	.st236{clip-path:url(#SVGID_246_);fill:none;stroke:#666666;stroke-width:0.25;stroke-miterlimit:10;}
	.st237{clip-path:url(#SVGID_248_);fill:none;stroke:#666666;stroke-width:0.25;stroke-miterlimit:10;}
	.st238{clip-path:url(#SVGID_248_);fill:#FFFFFF;}
	.st239{clip-path:url(#SVGID_248_);fill:#4D4D4D;}
	.st240{clip-path:url(#SVGID_248_);fill:none;stroke:#FFFFFF;stroke-linecap:round;stroke-linejoin:round;stroke-miterlimit:10;}
	.st241{clip-path:url(#SVGID_250_);fill:#4D4D4D;}
	.st242{clip-path:url(#SVGID_250_);fill:#FFFF00;}
	.st243{clip-path:url(#SVGID_250_);fill:none;stroke:#B3B3B3;stroke-width:0.75;stroke-miterlimit:10;}
	.st244{clip-path:url(#SVGID_252_);fill:#FFFF00;}
	.st245{clip-path:url(#SVGID_252_);fill:none;stroke:#FFFFFF;stroke-linecap:round;stroke-linejoin:round;stroke-miterlimit:10;}
	.st246{clip-path:url(#SVGID_252_);fill:none;stroke:#B3B3B3;stroke-width:0.5;stroke-miterlimit:10;}
	.st247{clip-path:url(#SVGID_252_);fill:none;stroke:#B3B3B3;stroke-width:0.19;stroke-miterlimit:10;}
	.st248{clip-path:url(#SVGID_218_);fill:none;stroke:#808080;stroke-width:0.5;stroke-miterlimit:10;}
	.st249{clip-path:url(#SVGID_254_);}
	.st250{clip-path:url(#SVGID_256_);fill:#F2F2F2;}
	.st251{clip-path:url(#SVGID_256_);}
	.st252{clip-path:url(#SVGID_258_);fill:#E6E6E6;}
	.st253{clip-path:url(#SVGID_258_);fill:#333333;}
	.st254{clip-path:url(#SVGID_260_);fill:none;stroke:#999999;stroke-width:0.1;stroke-miterlimit:10;}
	.st255{clip-path:url(#SVGID_262_);fill:none;stroke:#999999;stroke-width:0.1;stroke-miterlimit:10;}
	.st256{opacity:0.2;clip-path:url(#SVGID_262_);}
	.st257{clip-path:url(#SVGID_264_);}
	.st258{clip-path:url(#SVGID_262_);fill:#FFFFFF;}
	.st259{clip-path:url(#SVGID_262_);fill:#999999;}
	.st260{clip-path:url(#SVGID_266_);fill:#999999;}
	.st261{clip-path:url(#SVGID_268_);fill:none;stroke:#4D4D4D;stroke-width:0.518;}
	.st262{clip-path:url(#SVGID_268_);fill:#31538D;}
	.st263{clip-path:url(#SVGID_270_);fill:#666666;}
	.st264{clip-path:url(#SVGID_270_);fill:#CCCCCC;}
	.st265{opacity:0.58;clip-path:url(#SVGID_272_);}
	.st266{clip-path:url(#SVGID_274_);fill:#231F20;}
	.st267{clip-path:url(#SVGID_272_);fill:#666666;}
	.st268{clip-path:url(#SVGID_272_);fill:#CCCCCC;}
	.st269{clip-path:url(#SVGID_276_);fill:#FFFFFF;}
	
		.st270{clip-path:url(#SVGID_278_);fill:none;stroke:#CCCCCC;stroke-width:0.468;stroke-linecap:round;stroke-linejoin:round;stroke-miterlimit:10;}
	
		.st271{clip-path:url(#SVGID_278_);fill:none;stroke:#FFFFFF;stroke-width:0.468;stroke-linecap:round;stroke-linejoin:round;stroke-miterlimit:10;}
	.st272{clip-path:url(#SVGID_280_);fill:#F2F2F2;}
	.st273{clip-path:url(#SVGID_280_);fill:#E6E6E6;}
	
		.st274{clip-path:url(#SVGID_282_);fill:none;stroke:#CCCCCC;stroke-width:0.554;stroke-linecap:round;stroke-linejoin:round;stroke-miterlimit:10;}
	
		.st275{clip-path:url(#SVGID_282_);fill:none;stroke:#FFFFFF;stroke-width:0.468;stroke-linecap:round;stroke-linejoin:round;stroke-miterlimit:10;}
	.st276{clip-path:url(#SVGID_284_);fill:#F2F2F2;}
	.st277{clip-path:url(#SVGID_284_);fill:#E6E6E6;}
	
		.st278{clip-path:url(#SVGID_286_);fill:none;stroke:#CCCCCC;stroke-width:0.393;stroke-linecap:round;stroke-linejoin:round;stroke-miterlimit:10;}
	
		.st279{clip-path:url(#SVGID_286_);fill:none;stroke:#FFFFFF;stroke-width:0.468;stroke-linecap:round;stroke-linejoin:round;stroke-miterlimit:10;}
	.st280{clip-path:url(#SVGID_288_);fill:#F2F2F2;}
	.st281{clip-path:url(#SVGID_288_);fill:#E6E6E6;}
	
		.st282{clip-path:url(#SVGID_290_);fill:none;stroke:#CCCCCC;stroke-width:0.393;stroke-linecap:round;stroke-linejoin:round;stroke-miterlimit:10;}
	
		.st283{clip-path:url(#SVGID_290_);fill:none;stroke:#FFFFFF;stroke-width:0.468;stroke-linecap:round;stroke-linejoin:round;stroke-miterlimit:10;}
	.st284{clip-path:url(#SVGID_292_);fill:#F2F2F2;}
	.st285{clip-path:url(#SVGID_292_);fill:#E6E6E6;}
	
		.st286{clip-path:url(#SVGID_294_);fill:none;stroke:#CCCCCC;stroke-width:0.393;stroke-linecap:round;stroke-linejoin:round;stroke-miterlimit:10;}
	
		.st287{clip-path:url(#SVGID_294_);fill:none;stroke:#FFFFFF;stroke-width:0.468;stroke-linecap:round;stroke-linejoin:round;stroke-miterlimit:10;}
	.st288{clip-path:url(#SVGID_296_);fill:#F2F2F2;}
	.st289{clip-path:url(#SVGID_296_);fill:#E6E6E6;}
	
		.st290{clip-path:url(#SVGID_298_);fill:none;stroke:#CCCCCC;stroke-width:0.393;stroke-linecap:round;stroke-linejoin:round;stroke-miterlimit:10;}
	
		.st291{clip-path:url(#SVGID_298_);fill:none;stroke:#FFFFFF;stroke-width:0.468;stroke-linecap:round;stroke-linejoin:round;stroke-miterlimit:10;}
	.st292{clip-path:url(#SVGID_300_);fill:#F2F2F2;}
	.st293{clip-path:url(#SVGID_300_);fill:#E6E6E6;}
	
		.st294{clip-path:url(#SVGID_302_);fill:none;stroke:#CCCCCC;stroke-width:0.393;stroke-linecap:round;stroke-linejoin:round;stroke-miterlimit:10;}
	
		.st295{clip-path:url(#SVGID_302_);fill:none;stroke:#FFFFFF;stroke-width:0.468;stroke-linecap:round;stroke-linejoin:round;stroke-miterlimit:10;}
	.st296{clip-path:url(#SVGID_304_);fill:#F2F2F2;}
	.st297{clip-path:url(#SVGID_304_);fill:#E6E6E6;}
	
		.st298{clip-path:url(#SVGID_306_);fill:none;stroke:#CCCCCC;stroke-width:0.393;stroke-linecap:round;stroke-linejoin:round;stroke-miterlimit:10;}
	
		.st299{clip-path:url(#SVGID_306_);fill:none;stroke:#FFFFFF;stroke-width:0.468;stroke-linecap:round;stroke-linejoin:round;stroke-miterlimit:10;}
	.st300{clip-path:url(#SVGID_308_);fill:#F2F2F2;}
	.st301{clip-path:url(#SVGID_308_);fill:#E6E6E6;}
	
		.st302{clip-path:url(#SVGID_310_);fill:none;stroke:#CCCCCC;stroke-width:0.393;stroke-linecap:round;stroke-linejoin:round;stroke-miterlimit:10;}
	
		.st303{clip-path:url(#SVGID_310_);fill:none;stroke:#FFFFFF;stroke-width:0.468;stroke-linecap:round;stroke-linejoin:round;stroke-miterlimit:10;}
	.st304{clip-path:url(#SVGID_312_);fill:#F2F2F2;}
	.st305{clip-path:url(#SVGID_312_);fill:#E6E6E6;}
	
		.st306{clip-path:url(#SVGID_314_);fill:none;stroke:#CCCCCC;stroke-width:0.454;stroke-linecap:round;stroke-linejoin:round;stroke-miterlimit:10;}
	
		.st307{clip-path:url(#SVGID_314_);fill:none;stroke:#FFFFFF;stroke-width:0.468;stroke-linecap:round;stroke-linejoin:round;stroke-miterlimit:10;}
	.st308{clip-path:url(#SVGID_316_);fill:#F2F2F2;}
	.st309{clip-path:url(#SVGID_316_);fill:#E6E6E6;}
	
		.st310{clip-path:url(#SVGID_318_);fill:none;stroke:#CCCCCC;stroke-width:0.454;stroke-linecap:round;stroke-linejoin:round;stroke-miterlimit:10;}
	
		.st311{clip-path:url(#SVGID_318_);fill:none;stroke:#FFFFFF;stroke-width:0.468;stroke-linecap:round;stroke-linejoin:round;stroke-miterlimit:10;}
	.st312{clip-path:url(#SVGID_320_);fill:#F2F2F2;}
	.st313{clip-path:url(#SVGID_320_);fill:#E6E6E6;}
	
		.st314{clip-path:url(#SVGID_322_);fill:none;stroke:#CCCCCC;stroke-width:0.489;stroke-linecap:round;stroke-linejoin:round;stroke-miterlimit:10;}
	
		.st315{clip-path:url(#SVGID_322_);fill:none;stroke:#FFFFFF;stroke-width:0.468;stroke-linecap:round;stroke-linejoin:round;stroke-miterlimit:10;}
	.st316{clip-path:url(#SVGID_324_);fill:#F2F2F2;}
	.st317{clip-path:url(#SVGID_324_);fill:#E6E6E6;}
	
		.st318{clip-path:url(#SVGID_326_);fill:none;stroke:#CCCCCC;stroke-width:0.489;stroke-linecap:round;stroke-linejoin:round;stroke-miterlimit:10;}
	
		.st319{clip-path:url(#SVGID_326_);fill:none;stroke:#FFFFFF;stroke-width:0.468;stroke-linecap:round;stroke-linejoin:round;stroke-miterlimit:10;}
	.st320{clip-path:url(#SVGID_328_);fill:#E6E6E6;}
	
		.st321{clip-path:url(#SVGID_330_);fill:none;stroke:#808080;stroke-width:2;stroke-linecap:round;stroke-linejoin:round;stroke-miterlimit:10;}
	.st322{clip-path:url(#SVGID_330_);fill:#666666;}
	.st323{clip-path:url(#SVGID_330_);fill:none;stroke:#B3B3B3;stroke-miterlimit:10;}
	.st324{opacity:0.9;clip-path:url(#SVGID_332_);}
	.st325{clip-path:url(#SVGID_334_);fill:#FFFFFF;}
	.st326{clip-path:url(#SVGID_332_);fill:#FFFFFF;}
	.st327{clip-path:url(#SVGID_332_);fill:none;stroke:#B3B3B3;stroke-miterlimit:10;}
	.st328{clip-path:url(#SVGID_332_);fill:#E6E6E6;}
	.st329{clip-path:url(#SVGID_336_);fill:none;stroke:#B3B3B3;stroke-miterlimit:10;}
	.st330{clip-path:url(#SVGID_336_);fill:none;stroke:#B3B3B3;stroke-width:0.5;stroke-miterlimit:10;}
	.st331{clip-path:url(#SVGID_338_);fill:#999999;}
	.st332{clip-path:url(#SVGID_338_);fill:none;stroke:#B3B3B3;stroke-width:0.5;stroke-miterlimit:10;}
	.st333{clip-path:url(#SVGID_338_);fill:#B3B3B3;}
	.st334{clip-path:url(#SVGID_338_);fill:none;stroke:#FFFFFF;stroke-width:1.263;stroke-miterlimit:10;}
	.st335{clip-path:url(#SVGID_338_);fill:none;stroke:#808080;stroke-width:0.5;stroke-miterlimit:10;}
</style>
<rect x="0" class="st2" width="499.2" height="196.2"/>
<g>
	<path d="M96.4,50.5h-1.9l0.4-2.2h7.1l-0.4,2.2h-2.2l1.9,13.3c0.1,0.7,0,1.6,0,1.6h0.1c0,0,0.3-0.9,0.6-1.6l7.1-13.3h-2.2l0.5-2.2
		h7.3l-0.4,2.2h-2l-9.9,18h-3L96.4,50.5z"/>
	<path d="M111.8,66.2h2.5l3.1-15.7h-2.5l0.5-2.2h14.6L129,53h-2.5l0.5-2.3h-6.7l-1.3,6.5h7.1l-0.5,2.3h-7.1l-1.3,6.7h7.2l0.5-2.4
		h2.5l-0.9,4.8h-15.1L111.8,66.2z"/>
	<path d="M142.1,48c2.4,0,7.8,0.7,7.1,4l-0.5,2.5h-2.6l0.3-1.6c0.4-1.9-2.6-2.4-4.3-2.4c-5.2,0-9.2,4.5-9.2,9.4
		c0,3.7,2.3,6.5,6.2,6.5c2,0,5.1-0.7,5.4-2.4l0.3-1.5h2.6l-0.5,2.3c-0.6,3.1-5.1,4.1-8,4.1c-5.5,0-9-3.6-9-8.8
		C129.9,53.4,135.6,48,142.1,48z"/>
	<path d="M152.6,66.2h2.5l3.1-15.6h-4.7l-0.6,3.1h-2.5l1.1-5.5h17.3l-1.1,5.5h-2.5l0.6-3.1h-4.7L158,66.2h2.5l-0.4,2.2h-7.9
		L152.6,66.2z"/>
	<path d="M180.1,48c5.2,0,8.8,3.6,8.8,8.6c0,6.7-5.9,12.3-12.2,12.3c-5.2,0-8.8-3.7-8.8-8.8C167.9,53.5,173.7,48,180.1,48z
		 M176.8,66.3c4.5,0,9.1-4.3,9.1-9.6c0-3.6-2.5-6.2-6.1-6.2c-4.6,0-9.1,4.2-9.1,9.4C170.7,63.6,173.2,66.3,176.8,66.3z"/>
	<path d="M188.8,66.2h2.5l3.1-15.7h-2.5l0.5-2.2h8.9c1.3,0,2.6,0.1,3.6,0.6c1.4,0.7,2.4,2.1,2.4,4.3c0,3-2,5.9-5.3,6.6v0.1
		c0,0,0.5,0.5,0.7,1.1l1.6,4.1c0.3,0.8,0.6,1.3,1.6,1.3c0.3,0,0.8-0.1,0.8-0.1l-0.4,2.2c-0.2,0-0.9,0.1-1.3,0.1
		c-2.3,0-2.9-1.3-3.5-2.7l-1.6-4.4c-0.3-0.9-0.8-1.1-1.8-1.1h-2.5l-1.2,5.9h2.5l-0.4,2.2h-7.9L188.8,66.2z M199.8,58
		c2.4,0,4.5-1.8,4.5-4.4c0-1.2-0.4-1.9-1.1-2.4c-0.6-0.4-1.5-0.5-2.6-0.5h-3.4l-1.4,7.3H199.8z"/>
	<path d="M213.9,66.2h2.5l3.1-15.6h-2.5l0.5-2.3h7.9l-0.5,2.3h-2.5l-3,15.5h7l0.7-3.3h2.5l-1.1,5.6h-14.9L213.9,66.2z"/>
	<path d="M243.3,48c5.2,0,8.8,3.6,8.8,8.6c0,6.7-5.9,12.3-12.2,12.3c-5.2,0-8.8-3.7-8.8-8.8C231.1,53.5,236.9,48,243.3,48z
		 M240,66.3c4.5,0,9.1-4.3,9.1-9.6c0-3.6-2.5-6.2-6.1-6.2c-4.6,0-9.1,4.2-9.1,9.4C233.9,63.6,236.4,66.3,240,66.3z"/>
	<path d="M265.8,48c3.1,0,7.9,1.2,7.4,4l-0.5,2.5h-2.6l0.3-1.5c0.4-1.9-2.6-2.5-4.6-2.5c-5.4,0-9.4,4.7-9.4,9.5
		c0,3.7,2.3,6.4,6.5,6.4c1.9,0,5.4-0.6,5.7-2.5l0.5-2.7h-4l0.5-2.2h6.6l-1.1,5.7c-0.6,3.2-5.3,4.2-8.5,4.2c-5.7,0-9.3-3.6-9.3-8.8
		C253.5,53.5,259,48,265.8,48z"/>
	<path d="M286.6,48c5.2,0,8.8,3.6,8.8,8.6c0,6.7-5.9,12.3-12.2,12.3c-5.2,0-8.8-3.7-8.8-8.8C274.3,53.5,280.2,48,286.6,48z
		 M283.3,66.3c4.5,0,9.1-4.3,9.1-9.6c0-3.6-2.5-6.2-6.1-6.2c-4.6,0-9.1,4.2-9.1,9.4C277.2,63.6,279.7,66.3,283.3,66.3z"/>
	<path d="M296.4,62.3h2.6l-0.3,1.6c-0.3,1.8,1.8,2.4,3.8,2.4c2.7,0,4.5-1.5,4.5-3.7c0-4.2-8.8-2.6-8.8-8.7c0-3.9,3.7-6,7.7-6
		c2.4,0,6.1,0.9,5.5,3.5l-0.5,2.2h-2.6l0.3-1.4c0.3-1.4-1.7-1.8-3.1-1.8c-2.4,0-4.4,1.3-4.4,3.3c0,4,8.8,2.4,8.8,8.7
		c0,4-3.6,6.4-7.9,6.4c-2.6,0-6.7-1.1-6.1-4.5L296.4,62.3z"/>
</g>
<g>
	<path d="M321,68.8c-0.8,0-1.5-0.3-2.1-1c-0.6-0.7-0.9-1.6-0.9-2.6c0-1.2,0.3-2.5,0.8-3.8s1.3-2.4,2.4-3.3c1-0.9,2.1-1.4,3.3-1.4
		c0.9,0,1.7,0.3,2.2,0.9c0.6,0.6,0.8,1.4,0.8,2.4c0,1.1-0.3,2.3-0.8,3.7c-0.5,1.3-1.3,2.5-2.3,3.6S322.3,68.8,321,68.8z M320.6,67.4
		c0.9,0,1.9-0.5,2.8-1.6s1.7-2.2,2.3-3.4c0.6-1.2,0.8-2.2,0.8-2.9c0-0.5-0.1-0.8-0.4-1.1c-0.3-0.3-0.6-0.5-1.1-0.5
		c-0.6,0-1.3,0.3-2,0.9c-0.7,0.6-1.4,1.4-2.1,2.5c-1.1,1.8-1.7,3.3-1.7,4.6c0,0.4,0.1,0.8,0.4,1.1C319.9,67.2,320.2,67.4,320.6,67.4
		z"/>
	<path d="M331.3,58.4h-2.5c-0.2,0-0.2-0.1-0.1-0.3l0.1-0.5c0.1-0.2,0.2-0.3,0.3-0.3h2.5c1.1-3,2.2-5.2,3.3-6.5
		c0.5-0.5,1.1-1,1.8-1.4s1.6-0.6,2.4-0.6c0.8,0,1.4,0.2,1.9,0.5s0.7,0.7,0.7,1.1c0,0.4-0.1,0.7-0.3,1s-0.5,0.3-0.8,0.3
		c-0.7,0-1.2-0.4-1.3-1.1c0-0.2-0.1-0.4-0.3-0.6c-0.2-0.2-0.5-0.3-0.9-0.3c-0.4,0-0.8,0.1-1.1,0.3c-0.3,0.2-0.7,0.4-0.9,0.8
		c-0.3,0.4-0.5,0.7-0.7,1.1c-0.2,0.4-0.4,0.8-0.6,1.5c-0.2,0.6-0.4,1.1-0.5,1.5s-0.3,0.9-0.5,1.6c-0.1,0.3-0.2,0.5-0.2,0.7h2.8
		c0.2,0,0.2,0.1,0.2,0.3l-0.1,0.5c0,0.1-0.1,0.2-0.3,0.2h-2.7c-0.1,0.4-0.4,1.4-0.8,2.9c-0.4,1.5-0.9,2.9-1.3,4.3
		c-0.5,1.4-0.9,2.7-1.3,3.7c-1,2.5-2,4.3-3.1,5.7c-1.1,1.3-2.3,2-3.8,2c-0.6,0-1.1-0.2-1.5-0.5s-0.6-0.7-0.6-1.2
		c0-0.3,0.1-0.6,0.3-0.9c0.2-0.2,0.5-0.4,0.9-0.4c0.4,0,0.7,0.1,0.9,0.4c0.2,0.3,0.4,0.6,0.4,0.9c0.1,0.3,0.2,0.5,0.5,0.5
		c1.5,0,3-2.6,4.5-7.7L331.3,58.4z"/>
</g>
<g>
	<path d="M92.6,96.9h2.5l3.1-15.7h-2.5l0.5-2.2h8.7c1.3,0,2.5,0.2,3.4,0.6c1.5,0.6,2.4,2.1,2.4,3.9c0,2.3-1.4,4.1-3.4,5v0.1
		c1.6,0.6,2.5,2,2.5,4c0,2.7-1.6,4.9-3.8,5.9c-1.1,0.5-2.4,0.7-3.7,0.7h-9.9L92.6,96.9z M102.2,96.8c1,0,1.9-0.2,2.7-0.7
		c1.1-0.7,1.9-2.1,1.9-3.6c0-1.7-1.1-2.7-2.9-2.7h-4.5l-1.4,7H102.2z M104,87.4c2,0,3.7-1.5,3.7-3.7c0-0.9-0.3-1.6-0.9-2
		c-0.5-0.3-1.1-0.5-1.9-0.5H101l-1.2,6.1H104z"/>
	<path d="M111,96.9h2.5l3.1-15.7H114l0.5-2.2h8.9c1.3,0,2.6,0.1,3.6,0.6c1.4,0.7,2.4,2.1,2.4,4.3c0,3-2,5.9-5.3,6.6v0.1
		c0,0,0.5,0.5,0.7,1.1l1.6,4.1c0.3,0.8,0.6,1.3,1.6,1.3c0.3,0,0.8-0.1,0.8-0.1l-0.4,2.2c-0.2,0-0.9,0.1-1.3,0.1
		c-2.3,0-2.9-1.3-3.5-2.7l-1.6-4.4c-0.3-0.9-0.8-1.1-1.8-1.1h-2.5l-1.2,5.9h2.5l-0.4,2.2h-7.9L111,96.9z M121.9,88.6
		c2.4,0,4.5-1.8,4.5-4.4c0-1.2-0.4-1.9-1.1-2.4c-0.6-0.4-1.5-0.5-2.6-0.5h-3.4l-1.4,7.3H121.9z"/>
	<path d="M128.8,96.9h1.9l9.9-17.9h3.2l2.9,17.9h2l-0.5,2.2h-6.9l0.4-2.2h2.1l-0.7-4.5h-7.1l-2.5,4.5h2.2l-0.5,2.2h-7.1L128.8,96.9z
		 M143,90.1l-1.1-7c-0.1-0.8-0.1-1.5-0.1-1.5h-0.1c0,0-0.2,0.7-0.6,1.5l-3.8,7H143z"/>
	<path d="M149.5,96.9h2.5l3.1-15.7h-2.5l0.5-2.2h5.3l7.1,14.6c0.3,0.5,0.4,1.4,0.4,1.4h0.1c0,0,0.1-0.9,0.2-1.6l2.4-12.2h-2.6
		l0.4-2.2h8l-0.4,2.2h-2.5l-3.5,18h-2.7l-7.1-14.6c-0.3-0.6-0.4-1.4-0.4-1.4h-0.1c0,0-0.1,0.9-0.2,1.6l-2.3,12.2h2.6l-0.4,2.2h-7.9
		L149.5,96.9z"/>
	<path d="M172.3,96.9h2.5l3.1-15.7h-2.5l0.4-2.2h8.3c1.8,0,3.2,0.2,4.5,0.7c3,1.1,4.6,3.6,4.6,7.3c0,4.7-2.7,9.3-6.9,11.1
		c-1.6,0.7-3.3,1-5.3,1h-9.3L172.3,96.9z M181,96.8c1.7,0,3.1-0.3,4.4-0.9c3-1.5,5-5,5-8.7c0-2.7-1.1-4.5-3-5.3
		c-1-0.4-2.1-0.6-3.4-0.6h-3.3l-3,15.5H181z"/>
	<path d="M194.4,93h2.6l-0.3,1.6c-0.3,1.8,1.8,2.4,3.8,2.4c2.7,0,4.5-1.5,4.5-3.7c0-4.2-8.8-2.6-8.8-8.7c0-3.9,3.7-6,7.7-6
		c2.4,0,6.1,0.9,5.5,3.5l-0.5,2.2h-2.6l0.3-1.4c0.3-1.4-1.7-1.8-3.1-1.8c-2.4,0-4.4,1.3-4.4,3.3c0,4,8.8,2.4,8.8,8.7
		c0,4-3.6,6.4-7.9,6.4c-2.6,0-6.7-1.1-6.1-4.5L194.4,93z"/>
	<path d="M215.2,96.9h2.5l3.1-15.7h-2.5l0.4-2.2h7.9l-0.4,2.2h-2.5l-3.1,15.7h2.5l-0.4,2.2h-7.9L215.2,96.9z"/>
	<path d="M225.1,96.9h2.5l3.1-15.7h-2.5l0.5-2.2h5.3l7.1,14.6c0.3,0.5,0.4,1.4,0.4,1.4h0.1c0,0,0.1-0.9,0.2-1.6l2.4-12.2h-2.6
		l0.4-2.2h8l-0.4,2.2h-2.5l-3.5,18h-2.7l-7.1-14.6c-0.3-0.6-0.4-1.4-0.4-1.4H233c0,0-0.1,0.9-0.2,1.6l-2.3,12.2h2.6l-0.4,2.2h-7.9
		L225.1,96.9z"/>
	<path d="M252.8,96.9h1.9l9.9-17.9h3.2l2.9,17.9h2l-0.5,2.2h-6.9l0.4-2.2h2.1l-0.7-4.5h-7.1l-2.5,4.5h2.2l-0.5,2.2h-7.1L252.8,96.9z
		 M267,90.1l-1.1-7c-0.1-0.8-0.1-1.5-0.1-1.5h-0.1c0,0-0.2,0.7-0.6,1.5l-3.8,7H267z"/>
	<path d="M273.5,96.9h2.5l3.1-15.7h-2.5l0.5-2.2h14l-0.9,4.8h-2.5l0.5-2.3h-6.1l-1.3,6.7h7l-0.5,2.3h-7l-1.2,6.5h2.7l-0.4,2.2h-8.1
		L273.5,96.9z"/>
	<path d="M289,96.9h2.5l3.1-15.7h-2.5l0.5-2.2h8.9c1.3,0,2.6,0.1,3.6,0.6c1.4,0.7,2.4,2.1,2.4,4.3c0,3-2,5.9-5.3,6.6v0.1
		c0,0,0.5,0.5,0.7,1.1l1.6,4.1c0.3,0.8,0.6,1.3,1.6,1.3c0.3,0,0.8-0.1,0.8-0.1l-0.4,2.2c-0.2,0-0.9,0.1-1.3,0.1
		c-2.3,0-2.9-1.3-3.5-2.7l-1.6-4.4c-0.3-0.9-0.8-1.1-1.8-1.1h-2.5l-1.2,5.9h2.5l-0.4,2.2h-7.9L289,96.9z M300,88.6
		c2.4,0,4.5-1.8,4.5-4.4c0-1.2-0.4-1.9-1.1-2.4c-0.6-0.4-1.5-0.5-2.6-0.5h-3.4l-1.4,7.3H300z"/>
	<path d="M308,96.9h2.5l3.1-15.7H311l0.4-2.2h7.9l-0.4,2.2h-2.5l-3.1,15.7h2.5l-0.4,2.2h-7.9L308,96.9z"/>
	<path d="M331.2,78.6c2.4,0,7.8,0.7,7.1,4l-0.5,2.5h-2.6l0.3-1.6c0.4-1.9-2.6-2.4-4.3-2.4c-5.2,0-9.2,4.5-9.2,9.4
		c0,3.7,2.3,6.5,6.2,6.5c2,0,5.1-0.7,5.4-2.4l0.3-1.5h2.6l-0.5,2.3c-0.6,3.1-5.1,4.1-8,4.1c-5.5,0-9-3.6-9-8.8
		C319,84,324.7,78.6,331.2,78.6z"/>
	<path d="M336.5,96.9h1.9l9.9-17.9h3.2l2.9,17.9h2l-0.5,2.2h-6.9l0.4-2.2h2.1l-0.7-4.5h-7.1l-2.5,4.5h2.2l-0.5,2.2h-7.1L336.5,96.9z
		 M350.7,90.1l-1.1-7c-0.1-0.8-0.1-1.5-0.1-1.5h-0.1c0,0-0.2,0.7-0.6,1.5l-3.8,7H350.7z"/>
</g>
<path d="M470.1,40.9v5.4h-2.9l-39.6,103.6h0.5v5.4h-5.4v-1.7h-18v1.7h-5.4v-5.4h0.9L364.3,46.4h-3v-5.4h5.4v1.8h23.7v-1.8h5.4v5.4
	H395l19.2,62.4h0.3l21.9-62.4h-0.9v-5.4h5.4v1.8h23.7v-1.8H470.1z M365.2,45h0.3v-2.9h-2.9V45H365.2z M465.7,46.4h-1.1v-2.3H441v2.3
	h-3.2l-21.9,62.4h1.4v5.4h-5.6v-5.4h1.1l-19.1-62.4h-3.3v-2.3h-23.7v2.3h-1.1l35.9,103.6h3.2v2.4h18v-2.4h3.6L465.7,46.4z M391.7,45
	h2.9v-2.9h-2.9V45z M403.4,151.3h-2.9v2.7h2.9V151.3z M413.2,110.2H413v2.7h1.2h0.2h1.5v-2.7H413.2z M426.8,151.3h-2.7v2.7h2.7
	V151.3z M439.6,42.2h-2.9V45h2.9V42.2z M468.8,42.2h-2.9V45h2.9V42.2z"/>
<line class="st6" x1="92.2" y1="111.8" x2="319.5" y2="111.8"/>
<g>
	<path d="M98.8,134.3c-2.3,0-4.1-1.8-4.1-4.8c0-3.1,1.9-5,4.2-5c2.4,0,4.1,1.9,4.1,4.8C103,132.6,101,134.3,98.8,134.3L98.8,134.3z
		 M98.8,133.7c2.2,0,3.5-2,3.5-4.4c0-2-1.1-4.3-3.5-4.3c-2.4,0-3.5,2.2-3.5,4.4C95.3,131.6,96.6,133.7,98.8,133.7L98.8,133.7z"/>
	<path d="M104.6,129c0-0.6,0-1.1-0.1-1.6h0.6l0,1.2h0c0.4-0.8,1.2-1.4,2.3-1.4c0.6,0,2.4,0.3,2.4,2.8v4h-0.7v-4
		c0-1.2-0.5-2.3-1.9-2.3c-0.9,0-1.8,0.7-2,1.6c0,0.2-0.1,0.4-0.1,0.6v4.2h-0.7V129z"/>
	<path d="M112.1,124.2h0.7v10h-0.7V124.2z"/>
	<path d="M115.4,126c-0.3,0-0.5-0.3-0.5-0.6c0-0.3,0.2-0.6,0.5-0.6c0.3,0,0.5,0.3,0.5,0.6C116,125.8,115.8,126,115.4,126L115.4,126z
		 M115.1,134.1v-6.7h0.7v6.7H115.1z"/>
	<path d="M118,129c0-0.6,0-1.1-0.1-1.6h0.6l0,1.2h0c0.4-0.8,1.2-1.4,2.3-1.4c0.6,0,2.4,0.3,2.4,2.8v4h-0.7v-4c0-1.2-0.5-2.3-1.9-2.3
		c-0.9,0-1.8,0.7-2,1.6c0,0.2-0.1,0.4-0.1,0.6v4.2H118V129z"/>
	<path d="M125.6,130.7c0,2.1,1.2,3,2.6,3c1,0,1.5-0.2,1.9-0.4l0.2,0.5c-0.3,0.1-0.9,0.4-2.1,0.4c-1.9,0-3.1-1.4-3.1-3.4
		c0-2.2,1.3-3.6,3-3.6c2.2,0,2.6,2.1,2.6,3c0,0.2,0,0.3,0,0.4H125.6z M129.9,130.2c0-0.9-0.4-2.4-2-2.4c-1.5,0-2.1,1.3-2.2,2.4
		H129.9z"/>
	<path d="M135.2,127.4l1.6,4.2c0.3,0.7,0.5,1.2,0.7,1.8h0c0.2-0.6,0.4-1.1,0.7-1.8l1.6-4.2h0.7l-2.7,6.7h-0.6l-2.6-6.7H135.2z"/>
	<path d="M141.7,130.7c0,2.1,1.2,3,2.6,3c1,0,1.5-0.2,1.9-0.4l0.2,0.5c-0.3,0.1-0.9,0.4-2.1,0.4c-1.9,0-3.1-1.4-3.1-3.4
		c0-2.2,1.3-3.6,3-3.6c2.2,0,2.6,2.1,2.6,3c0,0.2,0,0.3,0,0.4H141.7z M146,130.2c0-0.9-0.4-2.4-2-2.4c-1.5,0-2.1,1.3-2.2,2.4H146z"
		/>
	<path d="M153.1,133.8c-0.3,0.1-1,0.4-2,0.4c-1.9,0-3.2-1.4-3.2-3.4c0-2.1,1.5-3.6,3.5-3.6c0.8,0,1.5,0.2,1.8,0.4l-0.2,0.5
		c-0.3-0.2-0.8-0.4-1.6-0.4c-1.8,0-2.7,1.4-2.7,3c0,1.8,1.1,2.9,2.7,2.9c0.8,0,1.3-0.2,1.7-0.4L153.1,133.8z"/>
	<path d="M155.7,125.9v1.5h1.9v0.5h-1.9v4.4c0,0.9,0.3,1.4,1,1.4c0.3,0,0.6,0,0.8-0.1l0.1,0.5c-0.2,0.1-0.5,0.2-0.9,0.2
		c-0.5,0-0.9-0.2-1.1-0.5c-0.3-0.4-0.4-0.9-0.4-1.6v-4.2h-1.1v-0.5h1.1v-1.2L155.7,125.9z"/>
	<path d="M161.6,134.3c-1.7,0-3.1-1.4-3.1-3.5c0-2.3,1.5-3.6,3.2-3.6c1.9,0,3.1,1.4,3.1,3.5C164.8,133.2,163.1,134.3,161.6,134.3
		L161.6,134.3z M161.6,133.7c1.4,0,2.5-1.3,2.5-3c0-1.2-0.7-2.9-2.5-2.9c-1.7,0-2.5,1.5-2.5,3C159.2,132.4,160.3,133.7,161.6,133.7
		L161.6,133.7z"/>
	<path d="M166.5,129.4c0-0.7,0-1.4-0.1-2h0.6l0,1.4h0c0.3-0.9,1-1.5,1.9-1.5c0.1,0,0.2,0,0.3,0v0.6c-0.1,0-0.2,0-0.3,0
		c-0.9,0-1.6,0.8-1.8,1.9c0,0.2-0.1,0.4-0.1,0.6v3.7h-0.7V129.4z"/>
	<path d="M173.7,124.2h0.7v10h-0.7V124.2z"/>
	<path d="M179.2,134.3c-1.7,0-3.1-1.4-3.1-3.5c0-2.3,1.5-3.6,3.2-3.6c1.9,0,3.1,1.4,3.1,3.5C182.4,133.2,180.7,134.3,179.2,134.3
		L179.2,134.3z M179.3,133.7c1.4,0,2.5-1.3,2.5-3c0-1.2-0.7-2.9-2.5-2.9c-1.7,0-2.5,1.5-2.5,3C176.8,132.4,177.9,133.7,179.3,133.7
		L179.3,133.7z"/>
	<path d="M189.5,133.1c0,1.7-0.4,2.6-0.9,3.1c-0.6,0.6-1.5,0.8-2.3,0.8c-0.8,0-1.6-0.2-2.1-0.6l0.2-0.5c0.5,0.3,1.1,0.6,2,0.6
		c1.4,0,2.4-0.7,2.4-2.7v-1h0c-0.3,0.7-1.1,1.3-2.3,1.3c-1.7,0-2.9-1.5-2.9-3.3c0-2.3,1.5-3.6,3-3.6c1.3,0,2,0.7,2.3,1.3h0l0-1.1
		h0.6c0,0.5-0.1,1-0.1,1.7V133.1z M188.8,130c0-0.3,0-0.5-0.1-0.7c-0.3-0.8-1-1.5-2.1-1.5c-1.4,0-2.4,1.2-2.4,2.9
		c0,1.5,0.8,2.8,2.4,2.8c0.9,0,1.7-0.6,2.1-1.5c0.1-0.2,0.1-0.5,0.1-0.7V130z"/>
	<path d="M194.3,134.3c-1.7,0-3.1-1.4-3.1-3.5c0-2.3,1.5-3.6,3.2-3.6c1.9,0,3.1,1.4,3.1,3.5C197.5,133.2,195.8,134.3,194.3,134.3
		L194.3,134.3z M194.3,133.7c1.4,0,2.5-1.3,2.5-3c0-1.2-0.7-2.9-2.5-2.9c-1.7,0-2.5,1.5-2.5,3C191.9,132.4,192.9,133.7,194.3,133.7
		L194.3,133.7z"/>
	<path d="M206.9,133.8c-0.3,0.1-1,0.4-2,0.4c-1.9,0-3.2-1.4-3.2-3.4c0-2.1,1.5-3.6,3.5-3.6c0.8,0,1.5,0.2,1.8,0.4l-0.2,0.5
		c-0.3-0.2-0.8-0.4-1.6-0.4c-1.8,0-2.7,1.4-2.7,3c0,1.8,1.1,2.9,2.7,2.9c0.8,0,1.3-0.2,1.7-0.4L206.9,133.8z"/>
	<path d="M211,134.3c-1.7,0-3.1-1.4-3.1-3.5c0-2.3,1.5-3.6,3.2-3.6c1.9,0,3.1,1.4,3.1,3.5C214.3,133.2,212.5,134.3,211,134.3
		L211,134.3z M211.1,133.7c1.4,0,2.5-1.3,2.5-3c0-1.2-0.7-2.9-2.5-2.9c-1.7,0-2.5,1.5-2.5,3C208.6,132.4,209.7,133.7,211.1,133.7
		L211.1,133.7z"/>
	<path d="M216,124.2h0.7v10H216V124.2z"/>
	<path d="M218.9,124.2h0.7v10h-0.7V124.2z"/>
	<path d="M222,130.7c0,2.1,1.2,3,2.6,3c1,0,1.5-0.2,1.9-0.4l0.2,0.5c-0.3,0.1-0.9,0.4-2.1,0.4c-1.9,0-3.1-1.4-3.1-3.4
		c0-2.2,1.3-3.6,3-3.6c2.2,0,2.6,2.1,2.6,3c0,0.2,0,0.3,0,0.4H222z M226.3,130.2c0-0.9-0.4-2.4-2-2.4c-1.5,0-2.1,1.3-2.2,2.4H226.3z
		"/>
	<path d="M233.3,133.8c-0.3,0.1-1,0.4-2,0.4c-1.9,0-3.2-1.4-3.2-3.4c0-2.1,1.5-3.6,3.5-3.6c0.8,0,1.5,0.2,1.8,0.4l-0.2,0.5
		c-0.3-0.2-0.8-0.4-1.6-0.4c-1.8,0-2.7,1.4-2.7,3c0,1.8,1.1,2.9,2.7,2.9c0.8,0,1.3-0.2,1.7-0.4L233.3,133.8z"/>
	<path d="M236,125.9v1.5h1.9v0.5H236v4.4c0,0.9,0.3,1.4,1,1.4c0.3,0,0.6,0,0.8-0.1l0.1,0.5c-0.2,0.1-0.5,0.2-0.9,0.2
		c-0.5,0-0.9-0.2-1.1-0.5c-0.3-0.4-0.4-0.9-0.4-1.6v-4.2h-1.1v-0.5h1.1v-1.2L236,125.9z"/>
	<path d="M239.7,126c-0.3,0-0.5-0.3-0.5-0.6c0-0.3,0.2-0.6,0.5-0.6c0.3,0,0.5,0.3,0.5,0.6C240.3,125.8,240.1,126,239.7,126
		L239.7,126z M239.4,134.1v-6.7h0.7v6.7H239.4z"/>
	<path d="M244.8,134.3c-1.7,0-3.1-1.4-3.1-3.5c0-2.3,1.5-3.6,3.2-3.6c1.9,0,3.1,1.4,3.1,3.5C248.1,133.2,246.3,134.3,244.8,134.3
		L244.8,134.3z M244.9,133.7c1.4,0,2.5-1.3,2.5-3c0-1.2-0.7-2.9-2.5-2.9c-1.7,0-2.5,1.5-2.5,3C242.4,132.4,243.5,133.7,244.9,133.7
		L244.9,133.7z"/>
	<path d="M249.8,129c0-0.6,0-1.1-0.1-1.6h0.6l0,1.2h0c0.4-0.8,1.2-1.4,2.3-1.4c0.6,0,2.4,0.3,2.4,2.8v4h-0.7v-4
		c0-1.2-0.5-2.3-1.9-2.3c-0.9,0-1.8,0.7-2,1.6c0,0.2-0.1,0.4-0.1,0.6v4.2h-0.7V129z"/>
</g>
<g>
	<path d="M97.8,148.5c-1.7,0-3.1-1.4-3.1-3.5c0-2.3,1.5-3.6,3.2-3.6c1.9,0,3.1,1.4,3.1,3.5C101,147.4,99.3,148.5,97.8,148.5
		L97.8,148.5z M97.8,147.9c1.4,0,2.5-1.3,2.5-3c0-1.2-0.7-2.9-2.5-2.9c-1.7,0-2.5,1.5-2.5,3C95.4,146.7,96.4,147.9,97.8,147.9
		L97.8,147.9z"/>
	<path d="M102.7,148.3v-6.2h-1v-0.5h1v-0.4c0-1,0.2-1.9,0.7-2.4c0.4-0.4,1-0.6,1.5-0.6c0.4,0,0.8,0.1,1,0.2l-0.2,0.5
		c-0.2-0.1-0.4-0.2-0.9-0.2c-1.3,0-1.5,1.1-1.5,2.4v0.4h1.8v0.5h-1.8v6.2H102.7z"/>
	<path d="M109.4,138.4h0.7v4.5h0c0.4-0.9,1.3-1.4,2.5-1.4c1.7,0,2.9,1.4,2.9,3.4c0,2.4-1.5,3.6-3,3.6c-1.1,0-1.9-0.4-2.4-1.4h0
		l-0.1,1.2h-0.6c0-0.5,0.1-1.1,0.1-1.6V138.4z M110.1,145.7c0,0.2,0,0.3,0.1,0.5c0.3,1,1.2,1.7,2.2,1.7c1.5,0,2.4-1.3,2.4-3
		c0-1.5-0.8-2.9-2.4-2.9c-1,0-1.9,0.7-2.2,1.8c0,0.2-0.1,0.3-0.1,0.6V145.7z"/>
	<path d="M117.1,143.6c0-0.7,0-1.4-0.1-2h0.6l0,1.4h0c0.3-0.9,1-1.5,1.9-1.5c0.1,0,0.2,0,0.3,0v0.6c-0.1,0-0.2,0-0.3,0
		c-0.9,0-1.6,0.8-1.8,1.9c0,0.2-0.1,0.4-0.1,0.6v3.7h-0.7V143.6z"/>
	<path d="M125.5,146.7c0,0.5,0,1.1,0.1,1.6H125l-0.1-1h0c-0.3,0.5-1.1,1.1-2.2,1.1c-1.4,0-2-1-2-1.8c0-1.6,1.4-2.5,4.1-2.5V144
		c0-0.7-0.1-2-1.7-2c-0.6,0-1.2,0.2-1.7,0.5l-0.2-0.5c0.6-0.4,1.4-0.6,2-0.6c1.9,0,2.3,1.5,2.3,2.6V146.7z M124.8,144.7
		c-1.5,0-3.4,0.2-3.4,1.8c0,1,0.6,1.4,1.3,1.4c1.1,0,1.8-0.7,2-1.3c0.1-0.1,0.1-0.3,0.1-0.4V144.7z"/>
	<path d="M127.6,143.2c0-0.6,0-1.1-0.1-1.6h0.6l0,1.2h0c0.4-0.8,1.2-1.4,2.3-1.4c0.6,0,2.4,0.3,2.4,2.8v4h-0.7v-4
		c0-1.2-0.5-2.3-1.9-2.3c-0.9,0-1.8,0.7-2,1.6c0,0.2-0.1,0.4-0.1,0.6v4.2h-0.7V143.2z"/>
	<path d="M140.5,138.4v8.4c0,0.5,0,1.1,0.1,1.6H140l-0.1-1.3h0c-0.4,0.7-1.1,1.4-2.4,1.4c-1.7,0-2.9-1.4-2.9-3.4
		c0-2.2,1.4-3.6,3-3.6c1.2,0,1.9,0.6,2.2,1.2h0v-4.3H140.5z M139.8,144.3c0-0.2,0-0.4-0.1-0.6c-0.2-0.9-1-1.6-2.1-1.6
		c-1.5,0-2.4,1.3-2.4,3c0,1.5,0.8,2.9,2.4,2.9c1,0,1.9-0.6,2.2-1.8c0.1-0.2,0.1-0.4,0.1-0.6V144.3z"/>
	<path d="M142.5,147.4c0.4,0.2,0.9,0.5,1.5,0.5c1.1,0,1.6-0.6,1.6-1.3c0-0.7-0.4-1.1-1.4-1.5c-1.1-0.4-1.7-1-1.7-1.8
		c0-1,0.8-1.8,2.1-1.8c0.6,0,1.1,0.2,1.5,0.4l-0.3,0.5c-0.2-0.2-0.7-0.4-1.3-0.4c-0.9,0-1.3,0.5-1.3,1.2c0,0.7,0.5,1,1.4,1.4
		c1.1,0.4,1.7,1,1.7,2c0,1.1-0.9,1.9-2.3,1.9c-0.6,0-1.3-0.2-1.7-0.5L142.5,147.4z"/>
	<path d="M151.4,140.3c-0.3,0-0.5-0.3-0.5-0.6c0-0.3,0.2-0.6,0.5-0.6c0.3,0,0.5,0.3,0.5,0.6C151.9,140,151.7,140.3,151.4,140.3
		L151.4,140.3z M151.1,148.3v-6.7h0.7v6.7H151.1z"/>
	<path d="M154,143.2c0-0.6,0-1.1-0.1-1.6h0.6l0,1.2h0c0.4-0.8,1.2-1.4,2.3-1.4c0.6,0,2.4,0.3,2.4,2.8v4h-0.7v-4
		c0-1.2-0.5-2.3-1.9-2.3c-0.9,0-1.8,0.7-2,1.6c0,0.2-0.1,0.4-0.1,0.6v4.2H154V143.2z"/>
	<path d="M165.7,145l-1.2,3.3h-0.7l3.4-9.4h0.6l3.4,9.4h-0.7l-1.2-3.3H165.7z M169.2,144.5l-1.1-3.2c-0.2-0.7-0.3-1.1-0.5-1.7h0
		c-0.1,0.5-0.3,1-0.5,1.6l-1.2,3.2H169.2z"/>
	<path d="M172.7,148.3v-6.2h-1v-0.5h1v-0.4c0-1,0.2-1.9,0.7-2.4c0.4-0.4,1-0.6,1.5-0.6c0.4,0,0.8,0.1,1,0.2l-0.2,0.5
		c-0.2-0.1-0.4-0.2-0.9-0.2c-1.3,0-1.5,1.1-1.5,2.4v0.4h1.8v0.5h-1.8v6.2H172.7z"/>
	<path d="M176.4,143.6c0-0.7,0-1.4-0.1-2h0.6l0,1.4h0c0.3-0.9,1-1.5,1.9-1.5c0.1,0,0.2,0,0.3,0v0.6c-0.1,0-0.2,0-0.3,0
		c-0.9,0-1.6,0.8-1.8,1.9c0,0.2-0.1,0.4-0.1,0.6v3.7h-0.7V143.6z"/>
	<path d="M180.9,140.3c-0.3,0-0.5-0.3-0.5-0.6c0-0.3,0.2-0.6,0.5-0.6c0.3,0,0.5,0.3,0.5,0.6C181.4,140,181.2,140.3,180.9,140.3
		L180.9,140.3z M180.6,148.3v-6.7h0.7v6.7H180.6z"/>
	<path d="M188.1,148c-0.3,0.1-1,0.4-2,0.4c-1.9,0-3.2-1.4-3.2-3.4c0-2.1,1.5-3.6,3.5-3.6c0.8,0,1.5,0.2,1.8,0.4l-0.2,0.5
		c-0.3-0.2-0.8-0.4-1.6-0.4c-1.8,0-2.7,1.4-2.7,3c0,1.8,1.1,2.9,2.7,2.9c0.8,0,1.3-0.2,1.7-0.4L188.1,148z"/>
	<path d="M193.9,146.7c0,0.5,0,1.1,0.1,1.6h-0.6l-0.1-1h0c-0.3,0.5-1.1,1.1-2.2,1.1c-1.4,0-2-1-2-1.8c0-1.6,1.4-2.5,4.1-2.5V144
		c0-0.7-0.1-2-1.7-2c-0.6,0-1.2,0.2-1.7,0.5l-0.2-0.5c0.6-0.4,1.4-0.6,2-0.6c1.9,0,2.3,1.5,2.3,2.6V146.7z M193.3,144.7
		c-1.5,0-3.4,0.2-3.4,1.8c0,1,0.6,1.4,1.3,1.4c1.1,0,1.8-0.7,2-1.3c0.1-0.1,0.1-0.3,0.1-0.4V144.7z"/>
</g>
</svg>
