<?xml version="1.0" encoding="utf-8"?>
<!-- Generator: Adobe Illustrator 25.4.0, SVG Export Plug-In . SVG Version: 6.00 Build 0)  -->
<svg version="1.1" id="Layer_1" xmlns="http://www.w3.org/2000/svg" xmlns:xlink="http://www.w3.org/1999/xlink" x="0px" y="0px"
	 viewBox="0 0 368.3 189.3" style="enable-background:new 0 0 368.3 189.3;" xml:space="preserve">
<style type="text/css">
	.st0{display:none;fill:#333333;}
	.st1{fill:#FFF100;}
	.st2{fill:#FFFFFF;}
	.st3{fill:#808080;}
</style>
<rect x="-5.3" y="-6.1" class="st0" width="380" height="201.2"/>
<rect x="231.2" y="9" class="st1" width="35" height="172.2"/>
<path class="st2" d="M291.6,138.4H275v-35h16.6c16.4,0,29.7-13.3,29.7-29.7S308,44,291.6,44H275V9h16.6c35.7,0,64.7,29,64.7,64.7
	S327.2,138.4,291.6,138.4"/>
<g>
	<path class="st2" d="M103.9,36.5c0-4.3-0.1-7.7-0.3-11h3.3l0.2,6.6h0.1c2.5-4.5,6.8-7.3,12.8-7.3c8.9,0,14.8,7.3,14.8,17.5
		c0,12.3-7.3,18.7-15.7,18.7c-5,0-9.4-2.2-11.7-6.4h-0.1v19.9h-3.5L103.9,36.5L103.9,36.5z M107.3,46.4c0,0.9,0.1,1.9,0.3,2.7
		c1.4,5.3,6.1,8.8,11.4,8.8c7.9,0,12.5-6.4,12.5-15.6c0-7.8-4.3-14.8-12.2-14.8c-5,0-9.9,3.5-11.5,9.1c-0.2,0.9-0.5,2-0.5,3V46.4z"
		/>
	<path class="st2" d="M142.5,18.5c-1.6,0-2.7-1.4-2.7-3s1.2-3,2.8-3s2.7,1.4,2.7,3C145.3,17.2,144.3,18.5,142.5,18.5L142.5,18.5z
		 M140.9,60V25.5h3.5V60H140.9z"/>
	<path class="st2" d="M152.6,25.5l5.9,8.4c1.5,2,2.7,3.8,4,5.9h0.1c1.3-2.1,2.7-4,4-5.9l5.9-8.4h3.8l-12,16.9L176.8,60h-4l-6.1-8.7
		c-1.6-2.2-2.9-4.3-4.3-6.5h-0.1c-1.3,2.2-2.7,4.1-4.3,6.5l-6,8.7h-4l12.7-17.6l-12-16.9C148.7,25.5,152.6,25.5,152.6,25.5z"/>
	<path class="st2" d="M180.9,42.4c0,11,6,15.4,13.2,15.4c5,0,7.6-1,9.6-1.9l0.9,2.7c-1.3,0.7-4.8,2.2-10.9,2.2
		c-9.9,0-16.1-7.2-16.1-17.4c0-11.5,6.6-18.7,15.6-18.7c11.3,0,13.5,10.7,13.5,15.6c0,0.9,0,1.4-0.1,2.1H180.9z M202.9,39.6
		c0.1-4.8-1.9-12.1-10.3-12.1c-7.6,0-10.9,6.8-11.5,12.1H202.9z"/>
	<path class="st2" d="M212.5,8.8h3.5V60h-3.5V8.8z"/>
</g>
<g>
	<path class="st1" d="M37.1,107.7c-1.5,0.7-5.1,2.2-10.2,2.2c-9.9,0-16.6-7.3-16.6-17.6c0-11,7.5-18.4,17.8-18.4
		c4.2,0,7.8,1.2,9.1,2.2L36,78.8c-1.7-1-4.3-2-8.1-2c-9.3,0-14,7.1-14,15.2c0,9.1,5.7,15,13.7,15c4.1,0,6.8-1.2,8.6-2L37.1,107.7z"
		/>
</g>
<g>
	<path class="st1" d="M56.9,110C48,110,41,103,41,92.2c0-11.8,7.8-18.4,16.4-18.4c9.6,0,16.1,7.2,16.1,17.8
		C73.5,104.5,64.6,110,56.9,110L56.9,110z M57.1,107.1c7.2,0,12.9-6.5,12.9-15.3c0-6.3-3.5-15.1-12.7-15.1
		c-8.9,0-12.8,7.9-12.8,15.3C44.5,100.7,50,107.1,57.1,107.1L57.1,107.1z"/>
</g>
<g>
	<path class="st1" d="M107.5,100.8c0,3,0.1,5.8,0.3,8.4h-3.2l-0.2-6.2h-0.1c-1.7,3.2-5.7,7-11.8,7c-4.4,0-11.8-2.2-11.8-15.3v-20H84
		v19.4c0,7.5,2.3,12.9,9.1,12.9c5,0,8.7-3.5,10.2-7c0.4-1.1,0.6-2.4,0.6-3.8V74.7h3.5v26.1H107.5z"/>
</g>
<g>
	<path class="st1" d="M114.7,82.9c0-3.2-0.1-5.5-0.3-8.3h3.2l0.2,6.2h0.1c1.9-3.9,6.3-7,11.9-7c3.3,0,12.1,1.7,12.1,14.6v20.7h-3.5
		V88.8c0-6.3-2.4-12-9.6-12c-4.8,0-9,3.5-10.4,8c-0.2,0.8-0.4,1.9-0.4,3v21.5h-3.5V82.9H114.7z"/>
</g>
<g>
	<path class="st1" d="M150.5,104.7c1.9,1.2,4.7,2.4,7.8,2.4c5.5,0,8.1-3,8.1-6.6c0-3.8-2.3-5.8-7.3-7.9c-5.7-2.2-8.8-5.3-8.8-9.4
		c0-5,4-9.4,10.7-9.4c3.2,0,5.9,0.9,7.6,2.2l-1.3,2.8c-1.2-0.9-3.5-2.1-6.9-2.1c-4.4,0-6.7,2.8-6.7,6c0,3.6,2.4,5.1,7.1,7.1
		c5.6,2.2,8.9,5,8.9,10.3c0,5.9-4.6,9.9-11.7,9.9c-3.3,0-6.5-0.9-8.8-2.4L150.5,104.7z"/>
</g>
<g>
	<path class="st1" d="M177.8,91.6c0,11,6,15.4,13.2,15.4c5,0,7.6-1,9.6-1.9l0.9,2.7c-1.3,0.7-4.8,2.2-10.9,2.2
		c-9.9,0-16.1-7.2-16.1-17.4c0-11.5,6.6-18.7,15.6-18.7c11.3,0,13.5,10.7,13.5,15.6c0,0.9,0,1.4-0.1,2.1
		C203.5,91.6,177.8,91.6,177.8,91.6z M199.9,88.8c0.1-4.8-1.9-12.1-10.3-12.1c-7.6,0-10.9,6.8-11.5,12.1H199.9z"/>
</g>
<g>
	<path class="st1" d="M212.3,58h3.5v51.2h-3.5V58z"/>
</g>
<g>
	<path class="st3" d="M148.2,145c-1.2,0-2.2-1.1-2.1-2.4c0-1.4,0.9-2.4,2.2-2.4s2.2,1,2.2,2.4C150.4,143.9,149.6,145,148.2,145
		L148.2,145z"/>
	<path class="st3" d="M164.5,145c-6.7,0-11.9-5.2-11.9-13.3c0-8.8,5.8-13.8,12.2-13.8c7.2,0,12,5.4,12,13.3
		C176.9,140.9,170.3,145,164.5,145L164.5,145z M164.7,142.9c5.4,0,9.7-4.9,9.7-11.5c0-4.7-2.6-11.3-9.5-11.3
		c-6.6,0-9.6,5.9-9.6,11.4C155.2,138,159.3,142.9,164.7,142.9L164.7,142.9z"/>
	<path class="st3" d="M181.3,126.3c0-2.6-0.1-5.2-0.2-7.8h2.4l0.1,5.2h0.2c1.1-3.3,3.8-5.8,7.3-5.8c0.4,0,0.8,0.1,1.1,0.1v2.4
		c-0.4-0.1-0.8-0.1-1.2-0.1c-3.6,0-6.1,3.1-6.8,7.2c-0.2,0.8-0.2,1.6-0.2,2.5v14.3h-2.6v-18H181.3z"/>
</g>
<g>
	<path class="st3" d="M215.2,140.7c0,6.6-1.4,9.9-3.6,12c-2.4,2.3-5.9,3.1-8.8,3.1c-3,0-6.3-0.8-8.3-2.3l0.9-2
		c1.8,1.2,4.4,2.2,7.7,2.2c5.4,0,9.4-2.8,9.4-10.5v-3.7h-0.1c-1.3,2.6-4.4,5-9,5c-6.5,0-11.1-5.7-11.1-12.7c0-9,5.9-13.8,11.7-13.8
		c5.1,0,7.7,2.8,8.7,5h0.1l0.2-4.4h2.4c-0.2,1.9-0.2,4-0.2,6.7L215.2,140.7L215.2,140.7z M212.6,128.5c0-1-0.1-1.8-0.3-2.5
		c-1.1-3.1-3.8-5.9-8-5.9c-5.5,0-9.3,4.5-9.3,11.3c0,5.8,3.1,10.8,9.2,10.8c3.5,0,6.7-2.2,8-5.8c0.3-0.9,0.4-1.8,0.4-2.8
		L212.6,128.5L212.6,128.5z"/>
</g>
</svg>
