<?xml version="1.0" encoding="utf-8"?>
<!-- Generator: Adobe Illustrator 26.0.2, SVG Export Plug-In . SVG Version: 6.00 Build 0)  -->
<svg version="1.1" id="Layer_1" xmlns="http://www.w3.org/2000/svg" xmlns:xlink="http://www.w3.org/1999/xlink" x="0px" y="0px"
	 viewBox="0 0 420 136.1" style="enable-background:new 0 0 420 136.1;" xml:space="preserve">
<style type="text/css">
	.st0{fill:none;stroke:#000000;stroke-width:0.5;stroke-miterlimit:10;}
</style>
<g>
	<g>
		<path d="M358.4,86.7h-6.5v-6.5h6.5V86.7z M353.9,84.7h2.5v-2.5h-2.5V84.7z"/>
		<g>
			<g>
				<path d="M298.8,8.5h-6.5V2h6.5V8.5z M294.3,6.5h2.5V4h-2.5V6.5z"/>
				<path d="M332.4,8.5h-6.5V2h6.5V8.5z M327.9,6.5h2.5V4h-2.5V6.5z"/>
			</g>
			<g>
				<path d="M384.4,8.5h-6.5V2h6.5V8.5z M379.9,6.5h2.5V4h-2.5V6.5z"/>
				<path d="M418,8.5h-6.5V2h6.5V8.5z M413.5,6.5h2.5V4h-2.5V6.5z"/>
			</g>
		</g>
		<g>
			<path d="M343.6,134.1h-6.5v-6.5h6.5V134.1z M339.1,132.1h2.5v-2.5h-2.5V132.1z"/>
			<path d="M371,134.1h-6.5v-6.5h6.5V134.1z M366.5,132.1h2.5v-2.5h-2.5V132.1z"/>
		</g>
		<rect x="326.1" y="67" transform="matrix(0.3633 -0.9317 0.9317 0.3633 185.6113 407.6992)" width="130" height="2"/>
		<rect x="317" y="3.5" transform="matrix(0.9375 -0.3479 0.3479 0.9375 -3.8125 114.8634)" width="2" height="129.2"/>
		<polygon points="355.8,81.5 353.9,81.5 328.2,7.8 330.1,7.2 354.9,78.2 380.2,7.2 382.1,7.8 		"/>
		<rect x="297.8" y="4.2" width="29.1" height="2"/>
		<rect x="384.1" y="4.2" width="29.1" height="2"/>
		<rect x="342.6" y="129.8" width="23" height="2"/>
	</g>
	<g>
		<g>
			<path d="M5.1,49.4L2.6,29.3h5.2l1.5,15.2l8-15.2H23L12.1,49.4H5.1z"/>
			<path d="M19.6,49.4l4.3-20.1h14.5l-1,4.5h-9.3l-0.7,3.3h8.1l-0.9,4.3h-8.1l-0.8,3.5h9.4l-1,4.5H19.6z"/>
			<path d="M45.6,49.7c-1.5,0-2.8-0.2-3.9-0.7c-1.1-0.5-2-1.1-2.8-2c-0.7-0.8-1.3-1.8-1.6-2.9c-0.4-1.1-0.5-2.2-0.5-3.3
				c0-1.4,0.2-2.8,0.7-4.2c0.5-1.4,1.2-2.6,2.2-3.8c1-1.1,2.1-2.1,3.5-2.7c1.4-0.7,3-1,4.8-1c1.5,0,2.7,0.2,3.7,0.5
				c1,0.4,1.8,0.8,2.4,1.4c0.6,0.6,1.1,1.2,1.5,1.8c0.3,0.6,0.6,1.2,0.7,1.8c0.1,0.6,0.2,1.2,0.3,1.9h-5.2c-0.1-0.6-0.2-1.1-0.5-1.5
				c-0.2-0.4-0.6-0.7-1.1-1c-0.5-0.3-1.2-0.4-2.1-0.4s-1.7,0.2-2.4,0.6c-0.7,0.4-1.3,0.9-1.8,1.6c-0.5,0.7-0.8,1.4-1.1,2.2
				c-0.3,0.8-0.4,1.6-0.4,2.3c0,0.8,0.1,1.6,0.4,2.3c0.3,0.7,0.7,1.3,1.3,1.7c0.6,0.4,1.4,0.7,2.3,0.7c0.9,0,1.6-0.1,2.1-0.4
				c0.6-0.3,1-0.6,1.3-1s0.6-0.9,0.9-1.4h5.2c-0.2,0.7-0.4,1.4-0.7,1.9s-0.6,1.2-1.1,1.8c-0.5,0.6-1.1,1.2-1.8,1.8s-1.6,1-2.7,1.4
				C48.3,49.5,47,49.7,45.6,49.7z"/>
			<path d="M58.6,49.4l3.3-15.6h-6.1l1-4.5h17.4l-1,4.5h-6l-3.3,15.6H58.6z"/>
			<path d="M81.4,49.7c-1.6,0-2.9-0.2-4.1-0.7c-1.2-0.5-2.1-1.2-2.9-2S73,45,72.7,43.9c-0.4-1.1-0.6-2.2-0.6-3.4
				c0-1.4,0.2-2.7,0.7-4.1c0.5-1.4,1.2-2.6,2.2-3.7c1-1.1,2.1-2,3.5-2.7c1.4-0.7,3-1,4.8-1c1.6,0,2.9,0.2,4.1,0.7
				c1.2,0.5,2.1,1.2,2.9,2c0.8,0.9,1.3,1.8,1.7,2.9c0.4,1.1,0.6,2.2,0.6,3.4c0,1.4-0.2,2.7-0.7,4.1c-0.5,1.4-1.2,2.6-2.2,3.7
				c-1,1.1-2.1,2-3.5,2.7C84.8,49.3,83.2,49.7,81.4,49.7z M81.6,45c0.9,0,1.7-0.2,2.5-0.6s1.3-0.9,1.8-1.6c0.5-0.7,0.9-1.4,1.1-2.2
				c0.3-0.8,0.4-1.6,0.4-2.4c0-0.8-0.1-1.6-0.4-2.3s-0.8-1.3-1.4-1.7c-0.6-0.4-1.4-0.6-2.3-0.6c-0.9,0-1.7,0.2-2.5,0.6
				c-0.7,0.4-1.3,0.9-1.8,1.6c-0.5,0.7-0.9,1.4-1.1,2.2s-0.4,1.6-0.4,2.4c0,0.8,0.1,1.6,0.4,2.3c0.3,0.7,0.8,1.3,1.4,1.7
				S80.6,45,81.6,45z"/>
			<path d="M91.9,49.4l4.3-20.1h8.3c1.6,0,3,0.3,4.1,0.9s1.9,1.3,2.4,2.2c0.5,0.9,0.8,1.9,0.8,2.9c0,0.9-0.2,1.8-0.6,2.6
				c-0.4,0.9-1,1.6-1.7,2.3c-0.8,0.7-1.7,1.2-2.8,1.5l2.3,7.7h-5.3l-2.1-7.3h-2.9l-1.5,7.3H91.9z M104.2,33.8h-3.8L99.6,38h4.3
				c0.9,0,1.5-0.2,2-0.7c0.5-0.5,0.7-1,0.7-1.5c0-0.5-0.2-1-0.6-1.4C105.6,34,105,33.8,104.2,33.8z"/>
			<path d="M120.9,49.4l4.3-20.1h5.2l-3.3,15.6h9.4l-1,4.5H120.9z"/>
			<path d="M146,49.7c-1.6,0-2.9-0.2-4.1-0.7c-1.2-0.5-2.1-1.2-2.9-2c-0.8-0.9-1.3-1.8-1.7-2.9c-0.4-1.1-0.6-2.2-0.6-3.4
				c0-1.4,0.2-2.7,0.7-4.1c0.5-1.4,1.2-2.6,2.2-3.7c1-1.1,2.1-2,3.5-2.7c1.4-0.7,3-1,4.8-1c1.6,0,2.9,0.2,4.1,0.7s2.1,1.2,2.9,2
				c0.8,0.9,1.3,1.8,1.7,2.9c0.4,1.1,0.6,2.2,0.6,3.4c0,1.4-0.2,2.7-0.7,4.1c-0.5,1.4-1.2,2.6-2.2,3.7c-1,1.1-2.1,2-3.5,2.7
				C149.4,49.3,147.8,49.7,146,49.7z M146.2,45c0.9,0,1.7-0.2,2.5-0.6c0.7-0.4,1.3-0.9,1.8-1.6c0.5-0.7,0.9-1.4,1.1-2.2
				c0.3-0.8,0.4-1.6,0.4-2.4c0-0.8-0.1-1.6-0.4-2.3s-0.8-1.3-1.4-1.7c-0.6-0.4-1.4-0.6-2.3-0.6c-0.9,0-1.7,0.2-2.5,0.6
				c-0.7,0.4-1.3,0.9-1.8,1.6c-0.5,0.7-0.9,1.4-1.1,2.2c-0.3,0.8-0.4,1.6-0.4,2.4c0,0.8,0.1,1.6,0.4,2.3c0.3,0.7,0.8,1.3,1.4,1.7
				S145.3,45,146.2,45z"/>
			<path d="M167.2,49.7c-1.5,0-2.9-0.2-4-0.7s-2.1-1.1-2.9-2c-0.8-0.8-1.3-1.8-1.7-2.9s-0.6-2.2-0.6-3.4c0-1.4,0.2-2.7,0.7-4.1
				s1.2-2.6,2.2-3.7c1-1.1,2.2-2,3.6-2.7c1.4-0.7,3.1-1,5-1c1.4,0,2.6,0.2,3.5,0.5s1.8,0.8,2.4,1.4c0.6,0.6,1.1,1.2,1.4,1.8
				c0.3,0.6,0.6,1.2,0.7,1.8s0.2,1.2,0.3,1.9h-5.2c-0.1-0.6-0.3-1.1-0.5-1.5c-0.2-0.4-0.6-0.7-1-1c-0.5-0.3-1.2-0.4-2-0.4
				c-1,0-1.8,0.2-2.5,0.6c-0.7,0.4-1.3,0.9-1.8,1.6c-0.5,0.7-0.9,1.4-1.1,2.1c-0.2,0.8-0.4,1.5-0.4,2.3c0,0.9,0.2,1.6,0.5,2.4
				s0.8,1.3,1.5,1.8s1.5,0.7,2.5,0.7c1,0,1.8-0.2,2.5-0.6c0.7-0.4,1.2-1.1,1.6-2.1h-4.4l0.9-4h9.6l-0.2,1.5
				c-0.3,2.4-0.9,4.3-1.9,5.7c-1,1.4-2.2,2.5-3.7,3.2C170.5,49.3,168.9,49.7,167.2,49.7z"/>
			<path d="M187.7,49.7c-1.6,0-2.9-0.2-4.1-0.7c-1.2-0.5-2.1-1.2-2.9-2c-0.8-0.9-1.3-1.8-1.7-2.9c-0.4-1.1-0.6-2.2-0.6-3.4
				c0-1.4,0.2-2.7,0.7-4.1c0.5-1.4,1.2-2.6,2.2-3.7c1-1.1,2.1-2,3.5-2.7c1.4-0.7,3-1,4.8-1c1.6,0,2.9,0.2,4.1,0.7
				c1.2,0.5,2.1,1.2,2.9,2c0.8,0.9,1.3,1.8,1.7,2.9c0.4,1.1,0.6,2.2,0.6,3.4c0,1.4-0.2,2.7-0.7,4.1c-0.5,1.4-1.2,2.6-2.2,3.7
				s-2.1,2-3.5,2.7C191.2,49.3,189.5,49.7,187.7,49.7z M187.9,45c0.9,0,1.7-0.2,2.5-0.6s1.3-0.9,1.8-1.6s0.9-1.4,1.1-2.2
				c0.3-0.8,0.4-1.6,0.4-2.4c0-0.8-0.2-1.6-0.4-2.3s-0.8-1.3-1.4-1.7c-0.6-0.4-1.4-0.6-2.3-0.6c-0.9,0-1.7,0.2-2.5,0.6
				c-0.7,0.4-1.3,0.9-1.8,1.6c-0.5,0.7-0.9,1.4-1.1,2.2c-0.3,0.8-0.4,1.6-0.4,2.4c0,0.8,0.1,1.6,0.4,2.3c0.3,0.7,0.8,1.3,1.4,1.7
				C186.2,44.8,187,45,187.9,45z"/>
			<path d="M207.3,49.7c-1.4,0-2.6-0.2-3.6-0.5s-1.8-0.7-2.4-1.2c-0.6-0.5-1.1-1-1.5-1.6s-0.6-1.1-0.7-1.6c-0.1-0.5-0.3-1.1-0.3-1.7
				h5.1c0.1,0.5,0.3,0.9,0.6,1.3s0.6,0.6,1.1,0.9c0.5,0.3,1.1,0.4,2,0.4c1,0,1.7-0.2,2.2-0.6c0.5-0.4,0.8-0.9,0.8-1.5
				c0-0.9-0.6-1.5-1.9-1.8l-2.2-0.6c-1.5-0.4-2.8-1.1-3.8-2c-1-0.9-1.5-2.1-1.5-3.6c0-1.1,0.3-2.2,0.9-3.2c0.6-1,1.5-1.7,2.7-2.3
				c1.2-0.6,2.7-0.9,4.4-0.9c1.3,0,2.4,0.1,3.3,0.4c0.9,0.3,1.6,0.7,2.2,1.2c0.6,0.5,1.1,1,1.4,1.5c0.4,0.5,0.6,1,0.8,1.5
				c0.2,0.5,0.3,1,0.4,1.6h-5c-0.1-0.4-0.3-0.8-0.5-1.1c-0.2-0.3-0.5-0.5-0.9-0.8c-0.4-0.2-1-0.3-1.7-0.3c-0.9,0-1.7,0.2-2.2,0.6
				c-0.5,0.4-0.7,0.9-0.7,1.4c0,0.5,0.2,0.9,0.5,1.2c0.4,0.3,0.8,0.6,1.5,0.7l2,0.5c1.7,0.5,3,1.2,4,2.1c0.9,0.9,1.4,2.1,1.4,3.5
				c0,1.1-0.3,2.2-1,3.2c-0.6,1-1.6,1.8-2.9,2.4C210.7,49.4,209.2,49.7,207.3,49.7z"/>
			<path d="M228.5,49.7c-1.3,0-2.4-0.3-3.3-0.9c-0.9-0.6-1.5-1.4-1.9-2.3c-0.4-1-0.6-2-0.6-3.1c0-1,0.2-2,0.5-3.1
				c0.4-1,0.9-2,1.5-2.8c0.7-0.9,1.5-1.5,2.5-2.1s2.1-0.8,3.3-0.8c1.3,0,2.4,0.3,3.3,0.9c0.9,0.6,1.5,1.4,1.9,2.3
				c0.4,0.9,0.6,2,0.6,3.1c0,1-0.2,2-0.5,3.1c-0.3,1-0.9,2-1.5,2.8c-0.7,0.9-1.5,1.5-2.5,2.1S229.7,49.7,228.5,49.7z M228.6,47.8
				c0.9,0,1.7-0.2,2.4-0.6c0.7-0.4,1.3-0.9,1.8-1.6c0.5-0.7,0.9-1.4,1.1-2.2c0.3-0.8,0.4-1.6,0.4-2.4c0-0.8-0.1-1.5-0.4-2.2
				c-0.3-0.7-0.7-1.2-1.3-1.6c-0.6-0.4-1.3-0.6-2.2-0.6c-0.9,0-1.7,0.2-2.4,0.6c-0.7,0.4-1.3,0.9-1.8,1.6s-0.9,1.4-1.1,2.2
				c-0.3,0.8-0.4,1.6-0.4,2.4c0,0.8,0.1,1.5,0.4,2.2c0.3,0.7,0.7,1.2,1.3,1.6C227,47.6,227.7,47.8,228.6,47.8z"/>
			<path d="M238.4,49.4l2.7-12.7h-2.6l0.4-1.7h2.6l0.5-2.3c0.3-1.2,0.8-2.3,1.6-3c0.8-0.8,1.9-1.2,3.4-1.2c0.4,0,0.8,0.1,1.4,0.2
				l-0.4,1.7c-0.5-0.1-0.9-0.1-1.2-0.1c-0.9,0-1.5,0.2-1.9,0.7s-0.7,1.1-0.9,1.8l-0.5,2.3h3.3l-0.4,1.7h-3.3l-2.7,12.7H238.4z"/>
			<path d="M3.5,76.6l4.3-20.1H17c1.4,0,2.5,0.2,3.4,0.6s1.5,1,1.9,1.7s0.6,1.4,0.6,2.2c0,0.7-0.2,1.3-0.5,1.9
				c-0.3,0.6-0.8,1.2-1.3,1.7c-0.6,0.5-1.3,0.8-2.1,1.1l0,0.2c1.1,0.2,1.9,0.7,2.4,1.5c0.5,0.7,0.8,1.6,0.8,2.5
				c0,0.8-0.2,1.5-0.5,2.3c-0.4,0.8-0.9,1.5-1.6,2.2c-0.7,0.7-1.6,1.2-2.6,1.6s-2.2,0.6-3.5,0.6H3.5z M14.6,68.2h-4.1l-0.9,4.1H14
				c0.8,0,1.5-0.3,2-0.8c0.5-0.5,0.7-1,0.7-1.6c0-0.5-0.2-0.9-0.5-1.2C15.9,68.4,15.3,68.2,14.6,68.2z M15.8,60.8h-3.7l-0.7,3.5h4
				c0.7,0,1.3-0.2,1.7-0.7c0.4-0.4,0.6-0.9,0.6-1.4c0-0.4-0.1-0.7-0.4-1C16.9,61,16.4,60.8,15.8,60.8z"/>
			<path d="M22.3,76.6l4.3-20.1h8.3c1.6,0,3,0.3,4.1,0.9s1.9,1.3,2.4,2.2c0.5,0.9,0.8,1.9,0.8,2.9c0,0.9-0.2,1.8-0.6,2.6
				c-0.4,0.9-1,1.6-1.7,2.3c-0.8,0.7-1.7,1.2-2.8,1.5l2.3,7.7h-5.3L32,69.3h-2.9l-1.5,7.3H22.3z M34.6,61h-3.8L30,65.2h4.3
				c0.9,0,1.5-0.2,2-0.7c0.5-0.5,0.7-1,0.7-1.5c0-0.5-0.2-1-0.6-1.4C36,61.2,35.4,61,34.6,61z"/>
			<path d="M39.8,76.6l10.9-20.1h7l2.4,20.1h-5.2l-0.4-3.4h-7.4l-1.8,3.4H39.8z M49.6,68.8h4.6l-0.8-7.4L49.6,68.8z"/>
			<path d="M61,76.6l4.3-20.1h4.8L75,67.9l2.4-11.4h5.2l-4.3,20.1h-4.9l-5-10.9l-2.3,10.9H61z"/>
			<path d="M80.5,76.6l4.3-20.1h6.7c1.6,0,3,0.2,4.2,0.7c1.2,0.5,2.2,1.2,2.9,2c0.8,0.8,1.4,1.8,1.8,2.9c0.4,1.1,0.6,2.2,0.6,3.4
				c0,1.3-0.3,2.7-0.8,4c-0.5,1.3-1.3,2.5-2.3,3.6c-1,1.1-2.3,1.9-3.8,2.6c-1.5,0.7-3.2,1-5.2,1H80.5z M91.1,61.1h-2L86.7,72h2.6
				c1.1,0,2-0.2,2.8-0.5c0.8-0.4,1.5-0.8,2-1.5c0.5-0.6,1-1.3,1.2-2c0.3-0.7,0.4-1.5,0.4-2.2c0-0.8-0.2-1.6-0.5-2.3
				c-0.3-0.7-0.9-1.3-1.6-1.7C93,61.3,92.1,61.1,91.1,61.1z"/>
			<path d="M109.2,76.9c-1.4,0-2.6-0.2-3.6-0.5c-1-0.3-1.8-0.7-2.4-1.2s-1.1-1-1.5-1.6c-0.4-0.6-0.6-1.1-0.7-1.6
				c-0.1-0.5-0.3-1.1-0.3-1.7h5.1c0.1,0.5,0.3,0.9,0.6,1.3c0.2,0.3,0.6,0.6,1.1,0.9c0.5,0.3,1.1,0.4,2,0.4c1,0,1.7-0.2,2.2-0.6
				c0.5-0.4,0.8-0.9,0.8-1.5c0-0.9-0.6-1.5-1.9-1.8l-2.2-0.6c-1.5-0.4-2.8-1.1-3.8-2c-1-0.9-1.5-2.1-1.5-3.6c0-1.1,0.3-2.2,0.9-3.2
				s1.5-1.7,2.7-2.3c1.2-0.6,2.7-0.9,4.4-0.9c1.3,0,2.4,0.1,3.3,0.4s1.6,0.7,2.2,1.2c0.6,0.5,1.1,1,1.4,1.5c0.4,0.5,0.6,1,0.8,1.5
				c0.2,0.5,0.3,1,0.4,1.6h-5c-0.1-0.4-0.3-0.8-0.5-1.1c-0.2-0.3-0.5-0.5-0.9-0.8c-0.4-0.2-1-0.3-1.7-0.3c-0.9,0-1.7,0.2-2.2,0.6
				c-0.5,0.4-0.7,0.9-0.7,1.4c0,0.5,0.2,0.9,0.5,1.2c0.4,0.3,0.8,0.6,1.5,0.7l2,0.5c1.7,0.5,3,1.2,4,2.1s1.4,2.1,1.4,3.5
				c0,1.1-0.3,2.2-1,3.2c-0.6,1-1.6,1.8-2.9,2.4C112.6,76.6,111.1,76.9,109.2,76.9z"/>
			<path d="M128.4,76.6l4.3-20.1h5.2l-4.3,20.1H128.4z"/>
			<path d="M135.7,76.6l4.3-20.1h4.8l4.9,11.4l2.4-11.4h5.2l-4.3,20.1h-4.9l-5-10.9L141,76.6H135.7z"/>
			<path d="M159.3,76.6l10.9-20.1h7l2.4,20.1h-5.2l-0.4-3.4h-7.4l-1.8,3.4H159.3z M169.1,68.8h4.6l-0.8-7.4L169.1,68.8z"/>
			<path d="M180.4,76.6l4.3-20.1h14.5l-1,4.5H189l-0.9,4.3h8.1l-0.9,4.3h-8.1l-1.5,6.9H180.4z"/>
			<path d="M196.5,76.6l4.3-20.1h8.3c1.6,0,3,0.3,4.1,0.9s1.9,1.3,2.4,2.2c0.5,0.9,0.8,1.9,0.8,2.9c0,0.9-0.2,1.8-0.6,2.6
				c-0.4,0.9-1,1.6-1.7,2.3c-0.8,0.7-1.7,1.2-2.8,1.5l2.3,7.7h-5.3l-2.1-7.3h-2.9l-1.5,7.3H196.5z M208.8,61H205l-0.9,4.2h4.3
				c0.9,0,1.5-0.2,2-0.7s0.7-1,0.7-1.5c0-0.5-0.2-1-0.6-1.4C210.2,61.2,209.6,61,208.8,61z"/>
			<path d="M215.2,76.6l4.3-20.1h5.2l-4.3,20.1H215.2z"/>
			<path d="M232.8,76.9c-1.5,0-2.8-0.2-3.9-0.7c-1.1-0.5-2-1.1-2.8-2c-0.7-0.8-1.3-1.8-1.6-2.9S224,69.1,224,68
				c0-1.4,0.2-2.8,0.7-4.2c0.5-1.4,1.2-2.6,2.2-3.8c1-1.1,2.1-2.1,3.5-2.7c1.4-0.7,3-1,4.8-1c1.5,0,2.7,0.2,3.7,0.5s1.8,0.8,2.4,1.4
				c0.6,0.6,1.1,1.2,1.5,1.8c0.3,0.6,0.6,1.2,0.7,1.8c0.1,0.6,0.2,1.2,0.3,1.9h-5.2c-0.1-0.6-0.2-1.1-0.5-1.5
				c-0.2-0.4-0.6-0.7-1.1-1c-0.5-0.3-1.2-0.4-2.1-0.4s-1.7,0.2-2.4,0.6c-0.7,0.4-1.3,0.9-1.8,1.6c-0.5,0.7-0.8,1.4-1.1,2.2
				c-0.3,0.8-0.4,1.6-0.4,2.3c0,0.8,0.1,1.6,0.4,2.3c0.3,0.7,0.7,1.3,1.3,1.7s1.4,0.7,2.3,0.7c0.9,0,1.6-0.1,2.1-0.4
				c0.6-0.3,1-0.6,1.3-1s0.6-0.9,0.9-1.4h5.2c-0.2,0.7-0.4,1.4-0.7,1.9s-0.6,1.2-1.1,1.8c-0.5,0.6-1.1,1.2-1.8,1.8
				c-0.7,0.6-1.6,1-2.7,1.4C235.5,76.7,234.3,76.9,232.8,76.9z"/>
			<path d="M240.5,76.6l10.9-20.1h7l2.4,20.1h-5.2l-0.4-3.4H248l-1.8,3.4H240.5z M250.3,68.8h4.6l-0.8-7.4L250.3,68.8z"/>
		</g>
		<line class="st0" x1="2" y1="88.5" x2="264.2" y2="88.5"/>
	</g>
</g>
</svg>
